<svg width="258" height="321" viewBox="0 0 258 321" fill="none" xmlns="http://www.w3.org/2000/svg">
<path d="M132.132 208.125C133.138 207.239 134.179 206.495 135.375 205.959C137.084 205.192 139.184 204.82 142.053 205.187L142.053 205.187C144.987 205.561 147.258 206.403 148.75 208.026C150.224 209.63 151.103 212.183 150.839 216.364L150.839 216.364C150.604 220.087 147.174 223.142 142.759 224.346C138.373 225.542 133.554 224.749 130.871 221.378C128.066 217.854 128.119 214.874 128.777 212.8C129.114 211.735 129.623 210.876 130.051 210.282C130.263 209.987 130.453 209.761 130.586 209.612C130.652 209.538 130.704 209.483 130.738 209.449C130.754 209.432 130.766 209.42 130.773 209.414L130.779 209.408L130.779 209.408L130.779 209.408L132.132 208.125Z" fill="#CB1124" stroke="black" stroke-width="2"/>
<path d="M153.849 212.213L153.849 212.213L153.849 212.213L153.853 212.204L153.858 212.192C154.647 210.303 155.488 208.649 156.793 207.275C158.083 205.917 159.883 204.775 162.677 204.025C165.531 203.259 167.95 203.176 169.947 204.111C171.92 205.036 173.703 207.064 175.047 211.031C176.244 214.565 174.23 218.694 170.604 221.484C167 224.257 162.24 225.353 158.478 223.253C154.547 221.058 153.464 218.281 153.285 216.112C153.193 214.998 153.338 214.01 153.507 213.299C153.592 212.944 153.682 212.663 153.748 212.475C153.781 212.381 153.809 212.311 153.826 212.267C153.835 212.245 153.842 212.229 153.846 212.221L153.849 212.213Z" fill="#CB1124" stroke="black" stroke-width="2"/>
<path d="M132.015 192.213L132.015 192.213L132.015 192.213L132.019 192.204L132.024 192.192C132.814 190.303 133.654 188.649 134.959 187.275C136.249 185.917 138.049 184.775 140.843 184.025C143.697 183.259 146.116 183.176 148.113 184.111C150.086 185.036 151.869 187.064 153.213 191.031C154.41 194.565 152.396 198.694 148.77 201.484C145.166 204.257 140.406 205.353 136.645 203.253C132.713 201.058 131.63 198.281 131.451 196.112C131.359 194.998 131.504 194.01 131.673 193.299C131.758 192.944 131.848 192.663 131.914 192.475C131.947 192.381 131.975 192.311 131.992 192.267C132.001 192.245 132.008 192.229 132.012 192.221L132.015 192.213Z" fill="#CB1124" stroke="black" stroke-width="2"/>
<path d="M161.36 198.95L161.36 198.949L161.36 198.949L161.353 198.943L161.342 198.934C159.762 197.634 158.42 196.352 157.481 194.706C156.553 193.078 155.979 191.026 156.067 188.135C156.157 185.181 156.776 182.84 158.247 181.199C159.702 179.576 162.158 178.454 166.344 178.312C170.073 178.185 173.446 181.304 175.071 185.582C176.686 189.832 176.362 194.706 173.267 197.702C170.03 200.833 167.059 201.068 164.93 200.614C163.837 200.381 162.933 199.957 162.301 199.589C161.986 199.406 161.743 199.239 161.582 199.121C161.502 199.063 161.442 199.016 161.405 198.986C161.387 198.971 161.374 198.961 161.366 198.955L161.36 198.95Z" fill="#CB1124" stroke="black" stroke-width="2"/>
</svg>
