<?xml version="1.0" encoding="utf-8"?>
<svg width="346" height="249" viewBox="0 0 346 249" fill="none" xmlns="http://www.w3.org/2000/svg">
  <defs/>
  <path d="M 230.968 172.304 C 231.568 170.144 232.158 167.994 232.758 165.834 C 232.968 165.084 232.498 164.184 231.718 164.004 C 230.938 163.824 230.108 164.244 229.888 165.044 C 229.288 167.204 228.698 169.354 228.098 171.514 C 227.888 172.264 228.358 173.164 229.138 173.344 C 229.918 173.524 230.748 173.104 230.968 172.304 Z" fill="#69AA31" style="transform-box: fill-box; transform-origin: 50% 50%;" transform="matrix(-0.956305, -0.292372, 0.292372, -0.956305, -0.000005, 0.000012)"/>
  <path d="M 221.384 162.532 C 221.334 164.462 221.284 166.392 221.234 168.322 C 221.214 169.102 221.934 169.842 222.724 169.812 C 223.514 169.782 224.194 169.162 224.214 168.322 C 224.264 166.392 224.314 164.462 224.364 162.532 C 224.384 161.752 223.664 161.012 222.874 161.042 C 222.084 161.072 221.404 161.692 221.384 162.532 Z" fill="#69AA31" style="transform-box: fill-box; transform-origin: 50% 50%;" transform="matrix(-0.956305, -0.292372, 0.292372, -0.956305, -0.000008, -0.000009)"/>
  <path d="M 212.21 186.609 C 228.376 186.609 241.481 173.504 241.481 157.338 C 241.481 141.172 228.376 128.067 212.21 128.067 C 196.044 128.067 182.939 141.172 182.939 157.338 C 182.939 173.504 196.044 186.609 212.21 186.609 Z" fill="#FF8533" style="transform-box: fill-box; transform-origin: 50% 50%;" transform="matrix(-0.956305, -0.292372, 0.292372, -0.956305, 0.000009, -0.000006)"/>
  <path d="M 239.601 157.334 C 239.517 168.724 232.35 179.269 221.551 183.154 C 210.752 187.039 198.252 183.661 190.844 174.72 C 183.436 165.78 182.7 152.918 188.612 143.133 C 194.524 133.347 206.24 128.135 217.449 130.379 C 230.238 132.937 239.504 144.339 239.601 157.334 C 239.613 159.638 243.209 159.65 243.197 157.334 C 243.1 144.339 234.92 132.611 222.697 128.123 C 210.499 123.647 196.213 127.604 188.069 137.715 C 179.949 147.802 178.791 162.208 185.523 173.357 C 192.256 184.505 205.612 190.333 218.414 187.763 C 232.748 184.879 243.1 171.849 243.197 157.346 C 243.209 155.029 239.625 155.029 239.601 157.346 L 239.601 157.334 Z" fill="black" style="transform-box: fill-box; transform-origin: 50% 50%;" transform="matrix(-0.956305, -0.292372, 0.292372, -0.956305, -0.000005, -0.000009)"/>
  <path d="M 212.209 167.16 C 217.633 167.16 222.03 162.763 222.03 157.339 C 222.03 151.915 217.633 147.517 212.209 147.517 C 206.785 147.517 202.388 151.915 202.388 157.339 C 202.388 162.763 206.785 167.16 212.209 167.16 Z" fill="#EA5F00" style="transform-box: fill-box; transform-origin: 50% 50%;" transform="matrix(-0.956305, -0.292372, 0.292372, -0.956305, -0.000017, 0.000007)"/>
  <path d="M 144.202 186.732 C 160.368 186.732 173.473 173.627 173.473 157.461 C 173.473 141.295 160.368 128.189 144.202 128.189 C 128.036 128.189 114.931 141.295 114.931 157.461 C 114.931 173.627 128.036 186.732 144.202 186.732 Z" fill="#FF8533" style="transform-box: fill-box; transform-origin: 50% 50%;" transform="matrix(-0.956305, -0.292372, 0.292372, -0.956305, 0.000019, 0.000015)"/>
  <path d="M 171.594 157.456 C 171.51 168.846 164.343 179.391 153.544 183.276 C 142.745 187.161 130.245 183.783 122.837 174.842 C 115.429 165.902 114.693 153.04 120.605 143.255 C 126.517 133.469 138.233 128.257 149.442 130.501 C 162.231 133.059 171.497 144.461 171.594 157.456 C 171.606 159.76 175.202 159.772 175.19 157.456 C 175.093 144.461 166.913 132.733 154.69 128.245 C 142.492 123.768 128.206 127.726 120.062 137.837 C 111.942 147.924 110.784 162.33 117.516 173.479 C 124.249 184.627 137.605 190.455 150.407 187.885 C 164.741 185.001 175.093 171.971 175.19 157.468 C 175.202 155.151 171.618 155.151 171.594 157.468 L 171.594 157.456 Z" fill="black" style="transform-box: fill-box; transform-origin: 50% 50%;" transform="matrix(-0.956305, -0.292372, 0.292372, -0.956305, -0.000012, 0.000018)"/>
  <path d="M 144.202 167.282 C 149.626 167.282 154.023 162.885 154.023 157.461 C 154.023 152.037 149.626 147.639 144.202 147.639 C 138.778 147.639 134.381 152.037 134.381 157.461 C 134.381 162.885 138.778 167.282 144.202 167.282 Z" fill="#EA5F00" style="transform-box: fill-box; transform-origin: 50% 50%;" transform="matrix(-0.956305, -0.292372, 0.292372, -0.956305, 0.000004, -0.000018)"/>
  <path d="M 173.294 173.666 C 189.46 173.666 202.565 160.561 202.565 144.395 C 202.565 128.229 189.46 115.124 173.294 115.124 C 157.128 115.124 144.023 128.229 144.023 144.395 C 144.023 160.561 157.128 173.666 173.294 173.666 Z" fill="#FF8533" style="transform-box: fill-box; transform-origin: 50% 50%;" transform="matrix(-0.956305, -0.292372, 0.292372, -0.956305, -0.000009, -0.00001)"/>
  <path d="M 200.685 144.391 C 200.601 155.781 193.434 166.326 182.635 170.211 C 171.836 174.096 159.336 170.718 151.928 161.777 C 144.52 152.837 143.784 139.975 149.696 130.19 C 155.608 120.404 167.324 115.192 178.533 117.436 C 191.322 119.994 200.588 131.396 200.685 144.391 C 200.697 146.695 204.293 146.707 204.281 144.391 C 204.184 131.396 196.004 119.668 183.781 115.18 C 171.583 110.704 157.297 114.661 149.153 124.772 C 141.033 134.859 139.875 149.265 146.607 160.414 C 153.34 171.562 166.696 177.39 179.498 174.82 C 193.832 171.936 204.184 158.906 204.281 144.403 C 204.293 142.086 200.709 142.086 200.685 144.403 L 200.685 144.391 Z" fill="black" style="transform-box: fill-box; transform-origin: 50% 50%;" transform="matrix(-0.956305, -0.292372, 0.292372, -0.956305, 0.000007, -0.000008)"/>
  <path d="M 173.293 154.217 C 178.717 154.217 183.114 149.82 183.114 144.396 C 183.114 138.972 178.717 134.574 173.293 134.574 C 167.869 134.574 163.472 138.972 163.472 144.396 C 163.472 149.82 167.869 154.217 173.293 154.217 Z" fill="#EA5F00" style="transform-box: fill-box; transform-origin: 50% 50%;" transform="matrix(-0.956305, -0.292372, 0.292372, -0.956305, -0.000002, -0.000012)"/>
</svg>