<svg width="190" height="180" viewBox="0 0 190 180" fill="none" xmlns="http://www.w3.org/2000/svg">
<path fill-rule="evenodd" clip-rule="evenodd" d="M95.18 177.67C60.24 177.67 37.85 167.16 32.15 148.08L32 147.59L31.52 147.74C31.32 147.8 31.13 147.83 30.94 147.83C30.83 147.83 30.71 147.82 30.61 147.79C28.19 147.27 26.87 140.8 28.75 131.99C30.56 123.53 34.22 118.29 36.57 118.29C36.68 118.29 36.8 118.3 36.9 118.33C37.21 118.4 37.5 118.56 37.77 118.81L38.15 119.16L38.49 118.77C43.16 113.47 49.84 108.82 57.82 105.32L58.42 105.06L58 104.55C52.48 97.78 49.69 90.24 49.69 82.16C49.69 60.38 70.1 42.66 95.19 42.66C120.28 42.66 140.69 60.38 140.69 82.16C140.69 90.05 137.81 97.58 132.13 104.55L131.71 105.06L132.31 105.32C140.25 108.81 146.92 113.44 151.58 118.71L151.91 119.09L152.28 118.76C152.53 118.54 152.81 118.39 153.09 118.33C153.2 118.31 153.31 118.29 153.42 118.29C155.77 118.29 159.43 123.53 161.24 131.99C163.12 140.8 161.8 147.28 159.38 147.79C159.27 147.81 159.16 147.83 159.05 147.83C158.89 147.83 158.72 147.81 158.56 147.76L158.09 147.63L157.95 148.1C153.91 161.59 139.73 177.66 95.17 177.66L95.18 177.67Z" fill="#4CA6FF"/>
<path d="M95.18 43.17C119.99 43.17 140.18 60.67 140.18 82.17C140.18 89.94 137.34 97.37 131.73 104.24L130.9 105.26L132.1 105.79C139.98 109.25 146.58 113.83 151.2 119.05L151.86 119.8L152.61 119.14C152.8 118.97 152.99 118.87 153.2 118.82C153.28 118.8 153.35 118.8 153.43 118.8C155.6 118.8 159.06 124.15 160.76 132.11C161.6 136.07 161.84 139.89 161.44 142.87C161.09 145.4 160.27 147.11 159.29 147.32C159.22 147.34 159.14 147.34 159.06 147.34C158.95 147.34 158.82 147.32 158.7 147.29L157.76 147.04L157.48 147.97C154.83 156.81 148.68 163.8 139.2 168.74C128.46 174.34 113.65 177.17 95.18 177.17C76.71 177.17 61.82 174.33 51.02 168.73C41.46 163.77 35.27 156.77 32.63 147.94L32.34 146.97L31.37 147.27C31.22 147.32 31.07 147.34 30.94 147.34C30.86 147.34 30.79 147.34 30.71 147.32C29.73 147.11 28.9 145.41 28.56 142.87C28.15 139.88 28.39 136.06 29.24 132.11C30.94 124.15 34.4 118.8 36.57 118.8C36.65 118.8 36.73 118.8 36.8 118.82C37.02 118.87 37.23 118.98 37.43 119.17L38.18 119.88L38.86 119.1C43.48 113.86 50.1 109.25 58.01 105.78L59.21 105.25L58.38 104.23C52.94 97.55 50.18 90.12 50.18 82.16C50.18 60.66 70.37 43.16 95.18 43.16M95.18 42.16C69.86 42.16 49.18 60.19 49.18 82.16C49.18 90.7 52.32 98.38 57.61 104.87C49.56 108.4 42.87 113.05 38.11 118.44C37.78 118.13 37.41 117.92 37 117.84C36.86 117.81 36.71 117.79 36.56 117.79C33.59 117.79 29.96 123.88 28.25 131.89C26.45 140.3 27.46 147.64 30.5 148.29C30.64 148.32 30.79 148.34 30.94 148.34C31.18 148.34 31.42 148.3 31.67 148.22C36.79 165.33 55.76 178.17 95.18 178.17C134.6 178.17 153.31 165.35 158.44 148.25C158.65 148.31 158.86 148.34 159.06 148.34C159.21 148.34 159.35 148.32 159.5 148.29C162.54 147.64 163.54 140.3 161.75 131.89C160.04 123.88 156.41 117.79 153.44 117.79C153.29 117.79 153.15 117.81 153 117.84C152.62 117.92 152.27 118.11 151.96 118.39C147.21 113.02 140.53 108.4 132.51 104.88C137.79 98.4 141.18 90.72 141.18 82.17C141.18 60.2 120.5 42.17 95.18 42.17V42.16Z" fill="#19191C"/>
<path d="M78.71 77.1C78.11 79.35 76.91 81.2 75.49 82.37C74.07 83.54 72.46 84.01 70.98 83.61C69.5 83.21 68.34 82.01 67.69 80.28C67.04 78.56 66.93 76.36 67.54 74.11C68.14 71.86 69.34 70.01 70.76 68.84C72.18 67.67 73.79 67.2 75.27 67.6C76.75 68 77.91 69.21 78.56 70.93C79.21 72.65 79.32 74.85 78.71 77.1Z" fill="#19191C" stroke="white"/>
<path d="M75.7399 72.6234C76.1015 71.2737 75.612 69.9699 74.6464 69.7112C73.6808 69.4524 72.6049 70.3368 72.2433 71.6865C71.8816 73.0362 72.3712 74.34 73.3368 74.5987C74.3023 74.8575 75.3783 73.9731 75.7399 72.6234Z" fill="#FEFFFE"/>
<path d="M111.65 77.1C112.25 79.35 113.45 81.2 114.87 82.37C116.29 83.54 117.9 84.01 119.38 83.61C120.86 83.21 122.02 82.01 122.67 80.28C123.32 78.55 123.43 76.36 122.82 74.11C122.22 71.86 121.02 70.01 119.6 68.84C118.18 67.67 116.57 67.2 115.09 67.6C113.61 68 112.45 69.21 111.8 70.93C111.15 72.65 111.04 74.85 111.65 77.1Z" fill="#19191C" stroke="white"/>
<path d="M117.023 74.5966C117.989 74.3378 118.479 73.034 118.117 71.6843C117.755 70.3346 116.679 69.4503 115.714 69.709C114.748 69.9677 114.259 71.2716 114.62 72.6212C114.982 73.9709 116.058 74.8553 117.023 74.5966Z" fill="#FEFFFE"/>
<path d="M110.68 94.25C113.49 94.61 116.04 94.94 119.61 94.97C119.46 95.99 118.87 97.01 117.83 97.98C116.62 99.11 114.85 100.16 112.61 101.04C108.14 102.81 101.94 103.92 95.06 103.92C88.18 103.92 81.98 102.81 77.51 101.04C75.28 100.15 73.5 99.11 72.29 97.98C71.25 97 70.66 95.99 70.51 94.97C72.36 94.93 74.34 94.69 76.72 94.41C77.54 94.31 78.4 94.21 79.33 94.11C83.21 93.68 88.16 93.25 95.06 93.25C101.96 93.25 106.05 93.68 109.49 94.11C109.89 94.16 110.29 94.21 110.68 94.26V94.25Z" fill="#E85D27" stroke="#19191C"/>
<path fill-rule="evenodd" clip-rule="evenodd" d="M110.46 96.13C107.11 96.13 105.31 95.64 103.4 95.12C101.33 94.56 99.2 93.97 95.06 93.97C90.92 93.97 88.78 94.55 86.72 95.12C84.81 95.64 83 96.14 79.66 96.14C72.07 96.14 70.48 95.24 70.48 94.48C70.48 92.63 72.02 92.03 74.96 91.05C78.03 90.03 81.85 88.76 84.9 84.84C89.48 78.95 91.41 78.68 94.7 78.68C98.16 78.68 100.77 79.11 105.23 84.84C108.28 88.76 112.1 90.03 115.17 91.05C118.11 92.03 119.65 92.63 119.65 94.48C119.65 95.24 118.06 96.14 110.47 96.14L110.46 96.13Z" fill="#E6432C"/>
<path d="M94.69 79.17C98.01 79.17 100.5 79.59 104.82 85.14C107.96 89.18 112.03 90.53 114.99 91.52C117.99 92.52 119.13 93.03 119.13 94.48C119.06 94.67 118.34 95.63 110.45 95.63C107.17 95.63 105.4 95.15 103.52 94.63C101.43 94.06 99.26 93.47 95.05 93.47C90.84 93.47 88.67 94.06 86.58 94.64C84.7 95.15 82.93 95.64 79.65 95.64C71.76 95.64 71.04 94.68 70.97 94.48C70.97 93.04 72.1 92.53 75.11 91.53C78.08 90.54 82.14 89.19 85.28 85.15C89.72 79.44 91.56 79.18 94.69 79.18M94.69 78.18C91.17 78.18 89.08 78.64 84.49 84.54C81.53 88.34 77.75 89.6 74.79 90.58C72.02 91.5 69.97 92.19 69.97 94.48C69.97 96.21 74.02 96.64 79.65 96.64C83.07 96.64 84.93 96.13 86.85 95.61C88.88 95.05 90.98 94.48 95.06 94.48C99.14 94.48 101.23 95.05 103.27 95.61C105.19 96.13 107.05 96.64 110.46 96.64C116.09 96.64 120.14 96.21 120.14 94.48C120.14 92.18 118.09 91.5 115.32 90.58C112.36 89.6 108.58 88.34 105.62 84.54C101.03 78.64 98.22 78.18 94.7 78.18H94.69Z" fill="#19191C"/>
<path d="M73.71 86.3C79.6802 86.3 84.52 81.4602 84.52 75.49C84.52 69.5198 79.6802 64.68 73.71 64.68C67.7398 64.68 62.9 69.5198 62.9 75.49C62.9 81.4602 67.7398 86.3 73.71 86.3Z" fill="#19191C"/>
<path d="M103.68 43.68C95.61 56.8 74.51 85.07 51.68 92.68" stroke="#19191C"/>
</svg>
