<svg width="174" height="169" viewBox="0 0 174 169" fill="none" xmlns="http://www.w3.org/2000/svg">
<ellipse cx="40.5661" cy="23" rx="26.5" ry="23" fill="#F9B811"/>
<path d="M78.0661 55.25C78.0661 68.0906 67.8161 78.5 40.5661 78.5C13.3161 78.5 3.0661 68.0906 3.0661 55.25C3.0661 42.4094 19.8554 32 40.5661 32C61.2768 32 78.0661 42.4094 78.0661 55.25Z" fill="#F9B811"/>
<ellipse cx="27.8888" cy="19.3457" rx="3.63198" ry="5.07872" transform="rotate(15 27.8888 19.3457)" fill="#1A1B14"/>
<ellipse cx="1.04769" cy="1.46502" rx="1.04769" ry="1.46502" transform="matrix(0.965926 0.258819 0.258819 -0.965926 26.9977 18.4896)" fill="#FEFFFE"/>
<ellipse cx="3.63198" cy="5.07872" rx="3.63198" ry="5.07872" transform="matrix(-0.965926 0.258819 0.258819 0.965926 55.5826 13.5)" fill="#1A1B14"/>
<ellipse cx="52.8888" cy="17.3457" rx="1.04769" ry="1.46502" transform="rotate(165 52.8888 17.3457)" fill="#FEFFFE"/>
<path d="M55.0661 30.25C55.0661 33.4257 48.5742 36 40.5661 36C32.558 36 26.0661 33.4257 26.0661 30.25C29.0661 30.25 32.558 30.25 40.5661 30.25C48.5742 30.25 50.0661 30.25 55.0661 30.25Z" fill="#E85D27"/>
<path fill-rule="evenodd" clip-rule="evenodd" d="M26.0661 30.25C26.0661 31.25 28.4065 31.5 31.6626 31.5C33.6378 31.5 34.7143 31.2056 35.8226 30.9026C36.9981 30.5812 38.2092 30.25 40.5661 30.25C42.923 30.25 44.1341 30.5812 45.3096 30.9026C46.4179 31.2056 47.4944 31.5 49.4696 31.5C52.7258 31.5 55.0661 31.25 55.0661 30.25C55.0661 28.9216 53.879 28.5266 52.2788 27.9941C50.5664 27.4243 48.3809 26.697 46.6714 24.5C44.0171 21.0889 42.6012 20.5 40.5661 20.5C38.531 20.5 37.1151 21.0889 34.4608 24.5C32.7513 26.697 30.5658 27.4243 28.8534 27.9941C27.2533 28.5266 26.0661 28.9216 26.0661 30.25Z" fill="#E6432C"/>
<ellipse cx="3.25" cy="9" rx="3.25" ry="9" transform="matrix(-0.977962 0.208783 0.208783 0.977962 77.242 43.0838)" fill="#F9B811"/>
<ellipse cx="5.12355" cy="52.564" rx="3.25" ry="9" transform="rotate(12.051 5.12355 52.564)" fill="#F9B811"/>
<ellipse cx="40.5661" cy="113.5" rx="26.5" ry="23" fill="#28B8A0"/>
<path d="M78.0661 145.75C78.0661 158.591 67.8161 169 40.5661 169C13.3161 169 3.0661 158.591 3.0661 145.75C3.0661 132.909 19.8554 122.5 40.5661 122.5C61.2768 122.5 78.0661 132.909 78.0661 145.75Z" fill="#28B8A0"/>
<ellipse cx="27.8888" cy="109.846" rx="3.63198" ry="5.07872" transform="rotate(15 27.8888 109.846)" fill="#1A1B14"/>
<ellipse cx="1.04769" cy="1.46502" rx="1.04769" ry="1.46502" transform="matrix(0.965926 0.258819 0.258819 -0.965926 26.9977 108.99)" fill="#FEFFFE"/>
<ellipse cx="3.63198" cy="5.07872" rx="3.63198" ry="5.07872" transform="matrix(-0.965926 0.258819 0.258819 0.965926 55.5826 104)" fill="#1A1B14"/>
<ellipse cx="52.8888" cy="107.846" rx="1.04769" ry="1.46502" transform="rotate(165 52.8888 107.846)" fill="#FEFFFE"/>
<path d="M55.0661 120.75C55.0661 123.926 48.5742 126.5 40.5661 126.5C32.558 126.5 26.0661 123.926 26.0661 120.75C29.0661 120.75 32.558 120.75 40.5661 120.75C48.5742 120.75 50.0661 120.75 55.0661 120.75Z" fill="#E85D27"/>
<path fill-rule="evenodd" clip-rule="evenodd" d="M26.0661 120.75C26.0661 121.75 28.4065 122 31.6626 122C33.6378 122 34.7143 121.706 35.8226 121.403C36.9981 121.081 38.2092 120.75 40.5661 120.75C42.923 120.75 44.1341 121.081 45.3096 121.403C46.4179 121.706 47.4944 122 49.4696 122C52.7258 122 55.0661 121.75 55.0661 120.75C55.0661 119.422 53.879 119.027 52.2788 118.494C50.5664 117.924 48.3809 117.197 46.6714 115C44.0171 111.589 42.6012 111 40.5661 111C38.531 111 37.1151 111.589 34.4608 115C32.7513 117.197 30.5658 117.924 28.8534 118.494C27.2533 119.027 26.0661 119.422 26.0661 120.75Z" fill="#E6432C"/>
<ellipse cx="3.25" cy="9" rx="3.25" ry="9" transform="matrix(-0.977962 0.208783 0.208783 0.977962 77.242 133.584)" fill="#28B8A0"/>
<ellipse cx="5.12355" cy="143.064" rx="3.25" ry="9" transform="rotate(12.051 5.12355 143.064)" fill="#28B8A0"/>
<ellipse cx="133.5" cy="113.5" rx="26.5" ry="23" fill="#4CA6FF"/>
<path d="M171 145.75C171 158.591 160.75 169 133.5 169C106.25 169 95.9999 158.591 95.9999 145.75C95.9999 132.909 112.789 122.5 133.5 122.5C154.211 122.5 171 132.909 171 145.75Z" fill="#4CA6FF"/>
<ellipse cx="120.823" cy="109.846" rx="3.63198" ry="5.07872" transform="rotate(15 120.823 109.846)" fill="#1A1B14"/>
<ellipse cx="1.04769" cy="1.46502" rx="1.04769" ry="1.46502" transform="matrix(0.965926 0.258819 0.258819 -0.965926 119.931 108.99)" fill="#FEFFFE"/>
<ellipse cx="3.63198" cy="5.07872" rx="3.63198" ry="5.07872" transform="matrix(-0.965926 0.258819 0.258819 0.965926 148.516 104)" fill="#1A1B14"/>
<ellipse cx="145.823" cy="107.846" rx="1.04769" ry="1.46502" transform="rotate(165 145.823 107.846)" fill="#FEFFFE"/>
<path d="M148 120.75C148 123.926 141.508 126.5 133.5 126.5C125.492 126.5 119 123.926 119 120.75C122 120.75 125.492 120.75 133.5 120.75C141.508 120.75 143 120.75 148 120.75Z" fill="#E85D27"/>
<path fill-rule="evenodd" clip-rule="evenodd" d="M119 120.75C119 121.75 121.34 122 124.596 122C126.572 122 127.648 121.706 128.756 121.403C129.932 121.081 131.143 120.75 133.5 120.75C135.857 120.75 137.068 121.081 138.243 121.403C139.352 121.706 140.428 122 142.403 122C145.66 122 148 121.75 148 120.75C148 119.422 146.813 119.027 145.213 118.494C143.5 117.924 141.315 117.197 139.605 115C136.951 111.589 135.535 111 133.5 111C131.465 111 130.049 111.589 127.395 115C125.685 117.197 123.5 117.924 121.787 118.494C120.187 119.027 119 119.422 119 120.75Z" fill="#E6432C"/>
<ellipse cx="3.25" cy="9" rx="3.25" ry="9" transform="matrix(-0.977962 0.208783 0.208783 0.977962 170.176 133.584)" fill="#4CA6FF"/>
<ellipse cx="98.0574" cy="143.064" rx="3.25" ry="9" transform="rotate(12.051 98.0574 143.064)" fill="#4CA6FF"/>
<ellipse cx="133.5" cy="23" rx="26.5" ry="23" fill="#FF58A2"/>
<path d="M171 55.25C171 68.0906 160.75 78.5 133.5 78.5C106.25 78.5 95.9999 68.0906 95.9999 55.25C95.9999 42.4094 112.789 32 133.5 32C154.211 32 171 42.4094 171 55.25Z" fill="#FF58A2"/>
<ellipse cx="120.823" cy="19.3457" rx="3.63198" ry="5.07872" transform="rotate(15 120.823 19.3457)" fill="#1A1B14"/>
<ellipse cx="1.04769" cy="1.46502" rx="1.04769" ry="1.46502" transform="matrix(0.965926 0.258819 0.258819 -0.965926 119.931 18.4896)" fill="#FEFFFE"/>
<ellipse cx="3.63198" cy="5.07872" rx="3.63198" ry="5.07872" transform="matrix(-0.965926 0.258819 0.258819 0.965926 148.516 13.5)" fill="#1A1B14"/>
<ellipse cx="145.823" cy="17.3457" rx="1.04769" ry="1.46502" transform="rotate(165 145.823 17.3457)" fill="#FEFFFE"/>
<path d="M148 30.25C148 33.4257 141.508 36 133.5 36C125.492 36 119 33.4257 119 30.25C122 30.25 125.492 30.25 133.5 30.25C141.508 30.25 143 30.25 148 30.25Z" fill="#E85D27"/>
<path fill-rule="evenodd" clip-rule="evenodd" d="M119 30.25C119 31.25 121.34 31.5 124.596 31.5C126.572 31.5 127.648 31.2056 128.756 30.9026C129.932 30.5812 131.143 30.25 133.5 30.25C135.857 30.25 137.068 30.5812 138.243 30.9026C139.352 31.2056 140.428 31.5 142.403 31.5C145.66 31.5 148 31.25 148 30.25C148 28.9216 146.813 28.5266 145.213 27.9941C143.5 27.4243 141.315 26.697 139.605 24.5C136.951 21.0889 135.535 20.5 133.5 20.5C131.465 20.5 130.049 21.0889 127.395 24.5C125.685 26.697 123.5 27.4243 121.787 27.9941C120.187 28.5266 119 28.9216 119 30.25Z" fill="#E6432C"/>
<ellipse cx="3.25" cy="9" rx="3.25" ry="9" transform="matrix(-0.977962 0.208783 0.208783 0.977962 170.176 43.0838)" fill="#FF58A2"/>
<ellipse cx="98.0574" cy="52.564" rx="3.25" ry="9" transform="rotate(12.051 98.0574 52.564)" fill="#FF58A2"/>
</svg>
