<svg width="369" height="111" viewBox="0 0 369 111" fill="none" xmlns="http://www.w3.org/2000/svg">
<path d="M271 34L99 34V3L271 3V18.6409V34Z" fill="url(#paint0_radial_833_7838)"/>
<path d="M99.8338 3H97.4707V60.89H99.8338V3Z" fill="#19191C"/>
<path fill-rule="evenodd" clip-rule="evenodd" d="M53.8556 110.252C27.6506 110.252 10.8581 102.37 6.58309 88.06L6.47058 87.6925L6.11058 87.805C5.96058 87.85 5.81058 87.8725 5.67558 87.8725C5.59308 87.8725 5.51058 87.865 5.42808 87.8425C3.61308 87.4525 2.61558 82.6 4.03308 75.9925C5.39058 69.6475 8.13558 65.7175 9.89808 65.7175C9.98058 65.7175 10.0706 65.725 10.1456 65.7475C10.3781 65.8 10.5956 65.92 10.7981 66.1075L11.0831 66.37L11.3381 66.0775C14.8406 62.1025 19.8506 58.615 25.8356 55.99L26.2856 55.795L25.9706 55.4125C21.8306 50.335 19.7381 44.6875 19.7381 38.62C19.7381 22.285 35.0456 8.995 53.8631 8.995C72.6806 8.995 87.9881 22.285 87.9881 38.62C87.9881 44.5375 85.8281 50.185 81.5681 55.4125L81.2531 55.795L81.7031 55.99C86.0081 57.88 91.3256 62.08 94.1156 64.42L94.7531 64.9525L94.7306 64.12C94.7306 63.9025 94.7306 62.365 94.7306 61.5775V61.135C94.7306 54.4675 97.4156 48.76 99.6056 48.76C99.9731 48.76 100.341 48.97 100.701 49.39C102.186 51.1375 103.161 56.2675 102.238 61.825C101.443 66.58 100.686 69.37 99.6131 71.4475L99.5381 71.59L99.5906 71.74C99.9656 72.88 100.333 74.2975 100.738 76.2175C102.006 82.165 101.548 85.5625 100.933 88.105C97.9031 98.2 87.2756 110.252 53.8556 110.252Z" fill="#F9B811"/>
<path d="M53.8559 9.37749C72.4634 9.37749 87.6059 22.5025 87.6059 38.6275C87.6059 44.455 85.4759 50.0275 81.2684 55.18L80.6459 55.945L81.5459 56.3425C85.8059 58.21 91.0934 62.3875 93.8684 64.7125L95.1434 65.7775L95.1059 64.12C95.1059 63.91 95.1059 62.3425 95.1059 61.585V61.1425C95.1059 58.0675 95.6984 54.9175 96.7409 52.5025C97.8059 50.0275 98.9534 49.1425 99.6059 49.1425C99.8609 49.1425 100.131 49.3075 100.416 49.6375C101.811 51.2875 102.763 56.395 101.871 61.765C101.083 66.4825 100.333 69.235 99.2834 71.275L99.1409 71.5525L99.2384 71.8525C99.6059 72.9775 99.9734 74.3875 100.378 76.2925C101.631 82.15 101.181 85.495 100.581 87.9925C98.5859 94.615 93.9809 99.85 86.8784 103.555C78.8234 107.755 67.7159 109.877 53.8634 109.877C40.0109 109.877 28.8434 107.747 20.7434 103.547C13.5734 99.8275 8.93087 94.5775 6.95087 87.955L6.73337 87.2275L6.00587 87.4525C5.89337 87.49 5.78087 87.505 5.68337 87.505C5.62337 87.505 5.57087 87.505 5.51087 87.49C4.77587 87.3325 4.15337 86.0575 3.89837 84.1525C3.59087 81.91 3.77087 79.045 4.40837 76.0825C5.68337 70.1125 8.27837 66.1 9.90587 66.1C9.96587 66.1 10.0259 66.1 10.0784 66.115C10.2434 66.1525 10.4009 66.235 10.5509 66.3775L11.1134 66.91L11.6234 66.325C15.0884 62.395 20.0534 58.9375 25.9859 56.335L26.8859 55.9375L26.2634 55.1725C22.1834 50.1625 20.1134 44.59 20.1134 38.62C20.1134 22.495 35.2559 9.37 53.8634 9.37M53.8634 8.62C34.8734 8.62 19.3634 22.1425 19.3634 38.62C19.3634 45.025 21.7184 50.785 25.6859 55.6525C19.6484 58.3 14.6309 61.7875 11.0609 65.83C10.8134 65.5975 10.5359 65.44 10.2284 65.38C10.1234 65.3575 10.0109 65.3425 9.89837 65.3425C7.67087 65.3425 4.94837 69.91 3.66587 75.9175C2.32337 82.225 3.07337 87.73 5.35337 88.2175C5.45837 88.24 5.57087 88.255 5.68337 88.255C5.86337 88.255 6.04337 88.225 6.23087 88.165C10.0709 100.997 24.2984 110.627 53.8634 110.627C83.4284 110.627 97.4609 101.012 101.308 88.1875C101.871 85.885 102.463 82.4425 101.121 76.135C100.708 74.2225 100.341 72.7825 99.9584 71.62C101.113 69.3775 101.871 66.385 102.621 61.885C103.746 55.1425 102.103 48.385 99.6209 48.385C97.1384 48.385 94.3709 54.3025 94.3709 61.135C94.3709 61.42 94.3709 63.85 94.3709 64.135C91.2884 61.555 86.0909 57.505 81.8684 55.6525C85.8284 50.7925 88.3709 45.0325 88.3709 38.62C88.3709 22.1425 72.8609 8.62 53.8709 8.62H53.8634Z" fill="#19191C"/>
<path d="M41.5036 34.825C41.0536 36.5125 40.1536 37.9 39.0886 38.7775C38.0236 39.655 36.8161 40.0075 35.7061 39.7075C34.5961 39.4075 33.7261 38.5075 33.2386 37.21C32.7511 35.92 32.6686 34.27 33.1261 32.5825C33.5761 30.895 34.4761 29.5075 35.5411 28.63C36.6061 27.7525 37.8136 27.4 38.9236 27.7C40.0336 28 40.9036 28.9075 41.3911 30.1975C41.8786 31.4875 41.9611 33.1375 41.5036 34.825Z" fill="#19191C" stroke="white" stroke-width="0.75"/>
<path d="M39.2757 31.4675C39.5469 30.4553 39.1798 29.4774 38.4556 29.2833C37.7314 29.0893 36.9245 29.7526 36.6532 30.7648C36.382 31.7771 36.7492 32.755 37.4734 32.949C38.1975 33.143 39.0045 32.4798 39.2757 31.4675Z" fill="#FEFFFE"/>
<path d="M66.2081 34.825C66.6581 36.5125 67.5581 37.9 68.6231 38.7775C69.6881 39.655 70.8956 40.0075 72.0056 39.7075C73.1156 39.4075 73.9856 38.5075 74.4731 37.21C74.9606 35.9125 75.0431 34.27 74.5856 32.5825C74.1356 30.895 73.2356 29.5075 72.1706 28.63C71.1056 27.7525 69.8981 27.4 68.7881 27.7C67.6781 28 66.8081 28.9075 66.3206 30.1975C65.8331 31.4875 65.7506 33.1375 66.2081 34.825Z" fill="#19191C" stroke="white" stroke-width="0.75"/>
<path d="M70.2388 32.9474C70.963 32.7534 71.3301 31.7755 71.0589 30.7632C70.7877 29.751 69.9807 29.0877 69.2566 29.2817C68.5324 29.4758 68.1652 30.4536 68.4364 31.4659C68.7077 32.4782 69.5146 33.1414 70.2388 32.9474Z" fill="#FEFFFE"/>
<path d="M65.481 47.6875C67.5885 47.9575 69.501 48.205 72.1785 48.2275C72.066 48.9925 71.6235 49.7575 70.8435 50.485C69.936 51.3325 68.6085 52.12 66.9285 52.78C63.576 54.1075 58.926 54.94 53.766 54.94C48.606 54.94 43.956 54.1075 40.6035 52.78C38.931 52.1125 37.596 51.3325 36.6885 50.485C35.9085 49.75 35.466 48.9925 35.3535 48.2275C36.741 48.1975 38.226 48.0175 40.011 47.8075C40.626 47.7325 41.271 47.6575 41.9685 47.5825C44.8785 47.26 48.591 46.9375 53.766 46.9375C58.941 46.9375 62.0085 47.26 64.5885 47.5825C64.8885 47.62 65.1885 47.6575 65.481 47.695V47.6875Z" fill="#E85D27" stroke="#19191C" stroke-width="0.75"/>
<path fill-rule="evenodd" clip-rule="evenodd" d="M65.3161 49.0975C62.8036 49.0975 61.4536 48.73 60.0211 48.34C58.4686 47.92 56.8711 47.4775 53.7661 47.4775C50.6611 47.4775 49.0561 47.9125 47.5111 48.34C46.0786 48.73 44.7211 49.105 42.2161 49.105C36.5236 49.105 35.3311 48.43 35.3311 47.86C35.3311 46.4725 36.4861 46.0225 38.6911 45.2875C40.9936 44.5225 43.8586 43.57 46.1461 40.63C49.5811 36.2125 51.0285 36.01 53.496 36.01C56.091 36.01 58.0486 36.3325 61.3936 40.63C63.6811 43.57 66.5461 44.5225 68.8486 45.2875C71.0536 46.0225 72.2086 46.4725 72.2086 47.86C72.2086 48.43 71.0161 49.105 65.3236 49.105L65.3161 49.0975Z" fill="#E6432C"/>
<path d="M53.4882 36.3775C55.9782 36.3775 57.8457 36.6925 61.0857 40.855C63.4407 43.885 66.4932 44.8975 68.7132 45.64C70.9632 46.39 71.8182 46.7725 71.8182 47.86C71.7657 48.0025 71.2257 48.7225 65.3082 48.7225C62.8482 48.7225 61.5207 48.3625 60.1107 47.9725C58.5432 47.545 56.9157 47.1025 53.7582 47.1025C50.6007 47.1025 48.9732 47.545 47.4057 47.98C45.9957 48.3625 44.6682 48.73 42.2082 48.73C36.2907 48.73 35.7507 48.01 35.6982 47.86C35.6982 46.78 36.5457 46.3975 38.8032 45.6475C41.0307 44.905 44.0757 43.8925 46.4307 40.8625C49.7607 36.58 51.1407 36.385 53.4882 36.385M53.4882 35.635C50.8482 35.635 49.2807 35.98 45.8382 40.405C43.6182 43.255 40.7832 44.2 38.5632 44.935C36.4857 45.625 34.9482 46.1425 34.9482 47.86C34.9482 49.1575 37.9857 49.48 42.2082 49.48C44.7732 49.48 46.1682 49.0975 47.6082 48.7075C49.1307 48.2875 50.7057 47.86 53.7657 47.86C56.8257 47.86 58.3932 48.2875 59.9232 48.7075C61.3632 49.0975 62.7582 49.48 65.3157 49.48C69.5382 49.48 72.5757 49.1575 72.5757 47.86C72.5757 46.135 71.0382 45.625 68.9607 44.935C66.7407 44.2 63.9057 43.255 61.6857 40.405C58.2432 35.98 56.1357 35.635 53.4957 35.635H53.4882Z" fill="#19191C"/>
<path d="M269.719 3H272.077V60.89H269.719V3Z" fill="#19191C"/>
<path fill-rule="evenodd" clip-rule="evenodd" d="M315.609 110.252C341.764 110.252 358.524 102.37 362.791 88.06L362.903 87.6925L363.262 87.805C363.412 87.85 363.562 87.8725 363.697 87.8725C363.779 87.8725 363.861 87.865 363.944 87.8425C365.755 87.4525 366.751 82.6 365.336 75.9925C363.981 69.6475 361.241 65.7175 359.482 65.7175C359.4 65.7175 359.31 65.725 359.235 65.7475C359.003 65.8 358.786 65.92 358.584 66.1075L358.299 66.37L358.045 66.0775C354.549 62.1025 349.549 58.615 343.575 55.99L343.126 55.795L343.44 55.4125C347.573 50.335 349.661 44.6875 349.661 38.62C349.661 22.285 334.383 8.995 315.601 8.995C296.82 8.995 281.542 22.285 281.542 38.62C281.542 44.5375 283.698 50.185 287.95 55.4125L288.264 55.795L287.815 55.99C283.518 57.88 278.211 62.08 275.426 64.42L274.79 64.9525L274.812 64.12C274.812 63.9025 274.812 62.365 274.812 61.5775V61.135C274.812 54.4675 272.132 48.76 269.947 48.76C269.58 48.76 269.213 48.97 268.854 49.39C267.372 51.1375 266.398 56.2675 267.319 61.825C268.113 66.58 268.869 69.37 269.939 71.4475L270.014 71.59L269.962 71.74C269.587 72.88 269.221 74.2975 268.816 76.2175C267.551 82.165 268.008 85.5625 268.622 88.105C271.646 98.2 282.253 110.252 315.609 110.252Z" fill="#1FBBA1"/>
<path d="M315.609 9.37749C297.037 9.37749 281.924 22.5025 281.924 38.6275C281.924 44.455 284.049 50.0275 288.249 55.18L288.87 55.945L287.972 56.3425C283.72 58.21 278.443 62.3875 275.673 64.7125L274.4 65.7775L274.438 64.12C274.438 63.91 274.438 62.3425 274.438 61.585V61.1425C274.438 58.0675 273.847 54.9175 272.806 52.5025C271.743 50.0275 270.598 49.1425 269.947 49.1425C269.692 49.1425 269.423 49.3075 269.138 49.6375C267.746 51.2875 266.795 56.395 267.686 61.765C268.472 66.4825 269.22 69.235 270.268 71.275L270.411 71.5525L270.313 71.8525C269.947 72.9775 269.58 74.3875 269.176 76.2925C267.925 82.15 268.375 85.495 268.973 87.9925C270.965 94.615 275.561 99.85 282.65 103.555C290.689 107.755 301.775 109.877 315.601 109.877C329.427 109.877 340.573 107.747 348.658 103.547C355.814 99.8275 360.448 94.5775 362.424 87.955L362.641 87.2275L363.367 87.4525C363.479 87.49 363.592 87.505 363.689 87.505C363.749 87.505 363.801 87.505 363.861 87.49C364.595 87.3325 365.216 86.0575 365.471 84.1525C365.777 81.91 365.598 79.045 364.962 76.0825C363.689 70.1125 361.099 66.1 359.475 66.1C359.415 66.1 359.355 66.1 359.302 66.115C359.138 66.1525 358.981 66.235 358.831 66.3775L358.269 66.91L357.76 66.325C354.302 62.395 349.347 58.9375 343.425 56.335L342.527 55.9375L343.148 55.1725C347.221 50.1625 349.287 44.59 349.287 38.62C349.287 22.495 334.173 9.37 315.601 9.37M315.601 8.62C334.555 8.62 350.035 22.1425 350.035 38.62C350.035 45.025 347.685 50.785 343.725 55.6525C349.751 58.3 354.759 61.7875 358.322 65.83C358.569 65.5975 358.846 65.44 359.153 65.38C359.257 65.3575 359.37 65.3425 359.482 65.3425C361.705 65.3425 364.423 69.91 365.703 75.9175C367.043 82.225 366.294 87.73 364.018 88.2175C363.914 88.24 363.801 88.255 363.689 88.255C363.509 88.255 363.33 88.225 363.143 88.165C359.31 100.997 345.11 110.627 315.601 110.627C286.093 110.627 272.087 101.012 268.247 88.1875C267.686 85.885 267.095 82.4425 268.434 76.135C268.846 74.2225 269.213 72.7825 269.595 71.62C268.442 69.3775 267.686 66.385 266.937 61.885C265.814 55.1425 267.454 48.385 269.932 48.385C272.409 48.385 275.172 54.3025 275.172 61.135C275.172 61.42 275.172 63.85 275.172 64.135C278.248 61.555 283.436 57.505 287.65 55.6525C283.698 50.7925 281.16 45.0325 281.16 38.62C281.16 22.1425 296.64 8.62 315.594 8.62H315.601Z" fill="#19191C"/>
<path d="M327.937 34.825C328.386 36.5125 329.285 37.9 330.348 38.7775C331.411 39.655 332.616 40.0075 333.724 39.7075C334.832 39.4075 335.7 38.5075 336.187 37.21C336.673 35.92 336.755 34.27 336.299 32.5825C335.85 30.895 334.951 29.5075 333.888 28.63C332.825 27.7525 331.62 27.4 330.512 27.7C329.405 28 328.536 28.9075 328.05 30.1975C327.563 31.4875 327.481 33.1375 327.937 34.825Z" fill="#19191C" stroke="white" stroke-width="0.75"/>
<path d="M330.161 31.4675C329.89 30.4553 330.257 29.4774 330.979 29.2833C331.702 29.0893 332.508 29.7526 332.778 30.7648C333.049 31.7771 332.683 32.755 331.96 32.949C331.237 33.143 330.432 32.4798 330.161 31.4675Z" fill="#FEFFFE"/>
<path d="M303.28 34.825C302.831 36.5125 301.933 37.9 300.87 38.7775C299.807 39.655 298.602 40.0075 297.494 39.7075C296.386 39.4075 295.518 38.5075 295.031 37.21C294.545 35.9125 294.462 34.27 294.919 32.5825C295.368 30.895 296.266 29.5075 297.329 28.63C298.392 27.7525 299.597 27.4 300.705 27.7C301.813 28 302.681 28.9075 303.168 30.1975C303.655 31.4875 303.737 33.1375 303.28 34.825Z" fill="#19191C" stroke="white" stroke-width="0.75"/>
<path d="M299.258 32.9474C298.535 32.7534 298.169 31.7755 298.439 30.7632C298.71 29.751 299.515 29.0877 300.238 29.2817C300.961 29.4758 301.327 30.4536 301.057 31.4659C300.786 32.4782 299.981 33.1414 299.258 32.9474Z" fill="#FEFFFE"/>
<path d="M304.006 47.6875C301.902 47.9575 299.994 48.205 297.321 48.2275C297.434 48.9925 297.875 49.7575 298.654 50.485C299.559 51.3325 300.884 52.12 302.561 52.78C305.907 54.1075 310.548 54.94 315.698 54.94C320.849 54.94 325.49 54.1075 328.836 52.78C330.505 52.1125 331.837 51.3325 332.743 50.485C333.522 49.75 333.963 48.9925 334.076 48.2275C332.691 48.1975 331.209 48.0175 329.427 47.8075C328.813 47.7325 328.17 47.6575 327.473 47.5825C324.569 47.26 320.864 46.9375 315.698 46.9375C310.533 46.9375 307.472 47.26 304.897 47.5825C304.597 47.62 304.298 47.6575 304.006 47.695V47.6875Z" fill="#E85D27" stroke="#19191C" stroke-width="0.75"/>
<path fill-rule="evenodd" clip-rule="evenodd" d="M304.171 49.0975C306.678 49.0975 308.026 48.73 309.455 48.34C311.005 47.92 312.599 47.4775 315.698 47.4775C318.798 47.4775 320.399 47.9125 321.942 48.34C323.371 48.73 324.726 49.105 327.226 49.105C332.908 49.105 334.098 48.43 334.098 47.86C334.098 46.4725 332.945 46.0225 330.745 45.2875C328.447 44.5225 325.587 43.57 323.304 40.63C319.875 36.2125 318.431 36.01 315.968 36.01C313.378 36.01 311.424 36.3325 308.086 40.63C305.803 43.57 302.943 44.5225 300.645 45.2875C298.444 46.0225 297.291 46.4725 297.291 47.86C297.291 48.43 298.482 49.105 304.163 49.105L304.171 49.0975Z" fill="#E6432C"/>
<path d="M315.976 36.3775C313.49 36.3775 311.626 36.6925 308.393 40.855C306.042 43.885 302.995 44.8975 300.78 45.64C298.534 46.39 297.681 46.7725 297.681 47.86C297.733 48.0025 298.272 48.7225 304.178 48.7225C306.633 48.7225 307.958 48.3625 309.366 47.9725C310.93 47.545 312.555 47.1025 315.706 47.1025C318.857 47.1025 320.482 47.545 322.046 47.98C323.454 48.3625 324.779 48.73 327.234 48.73C333.14 48.73 333.679 48.01 333.731 47.86C333.731 46.78 332.886 46.3975 330.632 45.6475C328.409 44.905 325.37 43.8925 323.019 40.8625C319.696 36.58 318.319 36.385 315.976 36.385M315.976 35.635C318.61 35.635 320.175 35.98 323.611 40.405C325.827 43.255 328.656 44.2 330.872 44.935C332.945 45.625 334.48 46.1425 334.48 47.86C334.48 49.1575 331.448 49.48 327.234 49.48C324.674 49.48 323.281 49.0975 321.844 48.7075C320.325 48.2875 318.753 47.86 315.699 47.86C312.644 47.86 311.08 48.2875 309.553 48.7075C308.116 49.0975 306.723 49.48 304.171 49.48C299.956 49.48 296.925 49.1575 296.925 47.86C296.925 46.135 298.459 45.625 300.533 44.935C302.748 44.2 305.578 43.255 307.794 40.405C311.23 35.98 313.333 35.635 315.968 35.635H315.976Z" fill="#19191C"/>
<path d="M114.428 22.16C113.329 22.16 112.455 21.856 111.804 21.248C111.164 20.6293 110.844 19.7973 110.844 18.752V13.568C110.844 12.512 111.164 11.68 111.804 11.072C112.455 10.464 113.329 10.16 114.428 10.16C115.516 10.16 116.38 10.4693 117.02 11.088C117.671 11.696 117.996 12.5227 117.996 13.568H116.268C116.268 12.96 116.103 12.496 115.772 12.176C115.452 11.856 115.004 11.696 114.428 11.696C113.841 11.696 113.383 11.856 113.052 12.176C112.732 12.496 112.572 12.96 112.572 13.568V18.752C112.572 19.36 112.732 19.824 113.052 20.144C113.383 20.464 113.841 20.624 114.428 20.624C115.004 20.624 115.452 20.464 115.772 20.144C116.103 19.824 116.268 19.36 116.268 18.752H117.996C117.996 19.7973 117.671 20.6293 117.02 21.248C116.38 21.856 115.516 22.16 114.428 22.16ZM123.894 22.144C122.806 22.144 121.936 21.8293 121.286 21.2C120.646 20.5707 120.326 19.712 120.326 18.624V16.576C120.326 15.4773 120.646 14.6187 121.286 14C121.926 13.3707 122.795 13.056 123.894 13.056C124.992 13.056 125.862 13.3707 126.502 14C127.142 14.6187 127.462 15.4773 127.462 16.576V18.624C127.462 19.712 127.136 20.5707 126.486 21.2C125.846 21.8293 124.982 22.144 123.894 22.144ZM123.894 20.624C124.47 20.624 124.918 20.464 125.238 20.144C125.568 19.8133 125.734 19.344 125.734 18.736V16.464C125.734 15.856 125.568 15.392 125.238 15.072C124.918 14.7413 124.47 14.576 123.894 14.576C123.318 14.576 122.864 14.7413 122.534 15.072C122.214 15.392 122.054 15.856 122.054 16.464V18.736C122.054 19.344 122.214 19.8133 122.534 20.144C122.864 20.464 123.318 20.624 123.894 20.624ZM130.032 22V13.2H131.744V14.88C131.829 14.304 132.074 13.856 132.48 13.536C132.896 13.2053 133.434 13.04 134.096 13.04C134.97 13.04 135.669 13.3227 136.192 13.888C136.714 14.4427 136.976 15.1947 136.976 16.144V22H135.248V16.4C135.248 15.792 135.093 15.328 134.784 15.008C134.474 14.6773 134.053 14.512 133.52 14.512C132.976 14.512 132.544 14.6827 132.224 15.024C131.914 15.3653 131.76 15.84 131.76 16.448V22H130.032ZM140.777 24.88V23.392H143.257C143.737 23.392 144.116 23.2587 144.393 22.992C144.671 22.7253 144.809 22.3627 144.809 21.904V21.248L144.841 19.776C144.703 20.2987 144.425 20.704 144.009 20.992C143.604 21.28 143.097 21.424 142.489 21.424C141.583 21.424 140.868 21.1307 140.345 20.544C139.823 19.9573 139.561 19.152 139.561 18.128V16.352C139.561 15.3387 139.823 14.5333 140.345 13.936C140.868 13.3387 141.583 13.04 142.489 13.04C143.097 13.04 143.604 13.184 144.009 13.472C144.415 13.76 144.687 14.1653 144.825 14.688V13.2H146.521V21.936C146.521 22.8427 146.228 23.5573 145.641 24.08C145.065 24.6133 144.276 24.88 143.273 24.88H140.777ZM143.049 19.968C143.593 19.968 144.02 19.8027 144.329 19.472C144.649 19.1307 144.809 18.656 144.809 18.048V16.448C144.809 15.8507 144.649 15.3867 144.329 15.056C144.02 14.7147 143.593 14.544 143.049 14.544C142.484 14.544 142.047 14.704 141.737 15.024C141.439 15.344 141.289 15.7813 141.289 16.336V18.16C141.289 18.7253 141.439 19.168 141.737 19.488C142.047 19.808 142.484 19.968 143.049 19.968ZM149.539 22V13.2H151.251V14.928C151.336 14.3413 151.587 13.8827 152.003 13.552C152.419 13.2107 152.968 13.04 153.651 13.04C154.558 13.04 155.262 13.3227 155.763 13.888C156.264 14.4533 156.515 15.248 156.515 16.272V17.056H154.787V16.32C154.787 15.136 154.206 14.544 153.043 14.544C152.467 14.544 152.024 14.7147 151.715 15.056C151.416 15.3867 151.267 15.872 151.267 16.512V22H149.539ZM161.389 22.16C160.493 22.16 159.778 21.9093 159.245 21.408C158.722 20.896 158.461 20.2293 158.461 19.408C158.461 18.576 158.743 17.9093 159.309 17.408C159.874 16.896 160.626 16.64 161.565 16.64H163.997V16C163.997 14.9867 163.426 14.48 162.285 14.48C161.773 14.48 161.362 14.576 161.053 14.768C160.743 14.96 160.578 15.2267 160.557 15.568H158.861C158.914 14.832 159.245 14.2293 159.853 13.76C160.461 13.28 161.277 13.04 162.301 13.04C163.389 13.04 164.231 13.3013 164.829 13.824C165.426 14.336 165.725 15.056 165.725 15.984V22H164.029V20.352H164.013C163.938 20.9173 163.671 21.36 163.213 21.68C162.754 22 162.146 22.16 161.389 22.16ZM161.885 20.736C162.535 20.736 163.047 20.5813 163.421 20.272C163.805 19.952 163.997 19.5253 163.997 18.992V17.856H161.693C161.234 17.856 160.866 17.9893 160.589 18.256C160.322 18.5227 160.189 18.864 160.189 19.28C160.189 19.728 160.338 20.0853 160.637 20.352C160.935 20.608 161.351 20.736 161.885 20.736ZM172.743 22C171.964 22 171.345 21.776 170.887 21.328C170.428 20.88 170.199 20.272 170.199 19.504V14.768H167.719V13.2H170.199V10.72H171.927V13.2H175.479V14.768H171.927V19.488C171.927 19.7653 172.007 19.9947 172.167 20.176C172.327 20.3467 172.545 20.432 172.823 20.432H175.399V22H172.743ZM181.44 22.16C180.374 22.16 179.526 21.856 178.896 21.248C178.278 20.6293 177.968 19.792 177.968 18.736V13.2H179.696V18.72C179.696 19.3173 179.851 19.792 180.16 20.144C180.47 20.4853 180.896 20.656 181.44 20.656C181.995 20.656 182.427 20.4853 182.736 20.144C183.056 19.792 183.216 19.3173 183.216 18.72V13.2H184.944V18.736C184.944 19.792 184.624 20.6293 183.984 21.248C183.355 21.856 182.507 22.16 181.44 22.16ZM192.41 22C191.578 22 190.911 21.76 190.41 21.28C189.919 20.7893 189.674 20.1387 189.674 19.328V11.888H186.714V10.32H191.402V19.296C191.402 19.648 191.498 19.9253 191.69 20.128C191.882 20.3307 192.143 20.432 192.474 20.432H195.13V22H192.41ZM199.764 22.16C198.868 22.16 198.153 21.9093 197.62 21.408C197.097 20.896 196.836 20.2293 196.836 19.408C196.836 18.576 197.118 17.9093 197.684 17.408C198.249 16.896 199.001 16.64 199.94 16.64H202.372V16C202.372 14.9867 201.801 14.48 200.66 14.48C200.148 14.48 199.737 14.576 199.428 14.768C199.118 14.96 198.953 15.2267 198.932 15.568H197.236C197.289 14.832 197.62 14.2293 198.228 13.76C198.836 13.28 199.652 13.04 200.676 13.04C201.764 13.04 202.606 13.3013 203.204 13.824C203.801 14.336 204.1 15.056 204.1 15.984V22H202.404V20.352H202.388C202.313 20.9173 202.046 21.36 201.588 21.68C201.129 22 200.521 22.16 199.764 22.16ZM200.26 20.736C200.91 20.736 201.422 20.5813 201.796 20.272C202.18 19.952 202.372 19.5253 202.372 18.992V17.856H200.068C199.609 17.856 199.241 17.9893 198.964 18.256C198.697 18.5227 198.564 18.864 198.564 19.28C198.564 19.728 198.713 20.0853 199.012 20.352C199.31 20.608 199.726 20.736 200.26 20.736ZM211.118 22C210.339 22 209.72 21.776 209.262 21.328C208.803 20.88 208.574 20.272 208.574 19.504V14.768H206.094V13.2H208.574V10.72H210.302V13.2H213.854V14.768H210.302V19.488C210.302 19.7653 210.382 19.9947 210.542 20.176C210.702 20.3467 210.92 20.432 211.198 20.432H213.774V22H211.118ZM216.327 22V20.432H219.383V14.768H216.647V13.2H221.111V20.432H223.943V22H216.327ZM220.103 11.68C219.73 11.68 219.431 11.584 219.207 11.392C218.983 11.1893 218.871 10.9227 218.871 10.592C218.871 10.2507 218.983 9.984 219.207 9.792C219.431 9.58933 219.73 9.488 220.103 9.488C220.477 9.488 220.775 9.58933 220.999 9.792C221.223 9.984 221.335 10.2507 221.335 10.592C221.335 10.9227 221.223 11.1893 220.999 11.392C220.775 11.584 220.477 11.68 220.103 11.68ZM229.425 22.144C228.337 22.144 227.468 21.8293 226.817 21.2C226.177 20.5707 225.857 19.712 225.857 18.624V16.576C225.857 15.4773 226.177 14.6187 226.817 14C227.457 13.3707 228.326 13.056 229.425 13.056C230.524 13.056 231.393 13.3707 232.033 14C232.673 14.6187 232.993 15.4773 232.993 16.576V18.624C232.993 19.712 232.668 20.5707 232.017 21.2C231.377 21.8293 230.513 22.144 229.425 22.144ZM229.425 20.624C230.001 20.624 230.449 20.464 230.769 20.144C231.1 19.8133 231.265 19.344 231.265 18.736V16.464C231.265 15.856 231.1 15.392 230.769 15.072C230.449 14.7413 230.001 14.576 229.425 14.576C228.849 14.576 228.396 14.7413 228.065 15.072C227.745 15.392 227.585 15.856 227.585 16.464V18.736C227.585 19.344 227.745 19.8133 228.065 20.144C228.396 20.464 228.849 20.624 229.425 20.624ZM235.563 22V13.2H237.275V14.88C237.36 14.304 237.605 13.856 238.011 13.536C238.427 13.2053 238.965 13.04 239.627 13.04C240.501 13.04 241.2 13.3227 241.723 13.888C242.245 14.4427 242.507 15.1947 242.507 16.144V22H240.779V16.4C240.779 15.792 240.624 15.328 240.315 15.008C240.005 14.6773 239.584 14.512 239.051 14.512C238.507 14.512 238.075 14.6827 237.755 15.024C237.445 15.3653 237.291 15.84 237.291 16.448V22H235.563ZM248.261 22.144C247.247 22.144 246.453 21.9147 245.877 21.456C245.301 20.9973 245.013 20.3573 245.013 19.536H246.725C246.725 19.9093 246.858 20.2027 247.125 20.416C247.391 20.6187 247.77 20.72 248.261 20.72H248.965C249.466 20.72 249.855 20.6187 250.133 20.416C250.41 20.2027 250.549 19.904 250.549 19.52C250.549 18.848 250.191 18.464 249.477 18.368L247.157 18.048C246.506 17.9627 246.005 17.7067 245.653 17.28C245.301 16.8427 245.125 16.2773 245.125 15.584C245.125 14.784 245.391 14.1653 245.924 13.728C246.469 13.28 247.237 13.056 248.229 13.056H248.949C249.866 13.056 250.607 13.2747 251.173 13.712C251.749 14.1493 252.053 14.7253 252.085 15.44H250.357C250.335 15.152 250.197 14.9173 249.941 14.736C249.695 14.544 249.365 14.448 248.949 14.448H248.229C247.77 14.448 247.413 14.5493 247.157 14.752C246.911 14.9547 246.789 15.2213 246.789 15.552C246.789 16.1067 247.093 16.4267 247.701 16.512L249.877 16.8C251.445 17.0133 252.229 17.9147 252.229 19.504C252.229 20.3467 251.946 20.9973 251.381 21.456C250.815 21.9147 250.01 22.144 248.965 22.144H248.261ZM257.438 18.464L257.23 10.32H259.182L258.974 18.464H257.438ZM257.966 22.08C257.668 22.08 257.422 21.9893 257.23 21.808C257.038 21.616 256.942 21.3707 256.942 21.072C256.942 20.7733 257.038 20.5333 257.23 20.352C257.422 20.16 257.668 20.064 257.966 20.064H258.446C258.766 20.064 259.017 20.16 259.198 20.352C259.39 20.5333 259.486 20.768 259.486 21.056C259.486 21.3547 259.385 21.6 259.182 21.792C258.99 21.984 258.745 22.08 258.446 22.08H257.966Z" fill="white"/>
<path fill-rule="evenodd" clip-rule="evenodd" d="M287.523 56.0075C281.493 58.655 278.563 60.9575 275 65C276.613 66.515 273 73.5 269.5 73.5C268.39 78.6975 267 81 268.5 88.5C271 95.5 272.635 95.9975 275.92 99.155C277.06 99.0125 278.268 98.855 279.55 98.6825C287.313 97.64 298 96.2075 315.625 96.2075C330.58 96.2075 338.958 97.2425 346.668 98.1875C349.548 98.54 352.5 98.73 355.5 99C359 96.5 361.713 91.9325 363.258 87.965C361.225 87.0125 358.518 83.285 357.4 78.0275C356.223 72.5075 356.65 67.6025 358.308 66.14C354.738 62.1125 349.735 58.64 343.713 56C337.488 63.6425 327.228 68.6375 315.618 68.6375C304.008 68.6375 294.725 63.6425 288.5 56.0075L287.523 56.0075Z" fill="#6C58FF" stroke="#19191C" stroke-width="0.75"/>
<path fill-rule="evenodd" clip-rule="evenodd" d="M81.7353 56.0075C87.7653 58.655 90.6953 60.9575 94.2578 65C92.6453 66.515 96.2578 73.5 99.7578 73.5C100.868 78.6975 102.258 81 100.758 88.5C98.2576 95.5 96.6228 95.9975 93.3378 99.155C92.1978 99.0125 90.9903 98.855 89.7078 98.6825C81.9453 97.64 71.2578 96.2075 53.6328 96.2075C38.6778 96.2075 30.3003 97.2425 22.5903 98.1875C19.7103 98.54 16.7578 98.73 13.7578 99C10.2578 96.5 7.54526 91.9325 6.00026 87.965C8.03276 87.0125 10.7403 83.285 11.8578 78.0275C13.0353 72.5075 12.6078 67.6025 10.9503 66.14C14.5203 62.1125 19.5228 58.64 25.5453 56C31.7703 63.6425 42.0303 68.6375 53.6403 68.6375C65.2503 68.6375 74.5328 63.6425 80.7578 56.0075L81.7353 56.0075Z" fill="#FF58A2" stroke="#19191C" stroke-width="0.75"/>
<path d="M324.513 89.3825H307.645V72.515H324.513L315.948 80.8175L324.513 89.3825Z" fill="white"/>
<path d="M61.6688 89.3825H44.8013V72.515H61.6688L53.1038 80.8175L61.6688 89.3825Z" fill="white"/>
<defs>
<radialGradient id="paint0_radial_833_7838" cx="0" cy="0" r="1" gradientUnits="userSpaceOnUse" gradientTransform="translate(136.319 4.29913) rotate(-0.74413) scale(100.032 72.1225)">
<stop stop-color="#FE2857"/>
<stop offset="0.584224" stop-color="#AF1DF5"/>
<stop offset="1" stop-color="#6B57FF"/>
</radialGradient>
</defs>
</svg>
