<svg width="200" height="200" viewBox="0 0 200 200" fill="none" xmlns="http://www.w3.org/2000/svg">
<path d="M78.2498 63.6544C69.3498 73.2344 60.4398 82.8244 51.5398 92.4044C43.6498 100.894 42.9998 109.894 37.4798 120.074C30.0598 133.764 20.1499 149.634 22.9599 164.954C23.6399 168.664 24.6698 172.424 26.9198 175.454C30.6698 180.514 37.3498 182.754 43.6398 182.544C49.9298 182.334 55.9498 180.014 61.6898 177.424C74.1998 171.774 95.8799 154.544 104.31 143.714C122.37 120.504 137.18 117.814 154.41 95.9044C160.25 88.4744 166.09 78.3344 170.27 69.8544C175.34 59.5844 177.86 50.6544 177.56 39.2044C177.46 35.2944 177 31.2744 175.13 27.8344C170.78 19.8244 160.39 17.4344 151.28 17.5244C139.05 17.6344 133.2 25.0944 122.94 31.7444C108.9 40.8544 94.7098 45.6844 74.5098 67.6744" fill="#72713F"/>
<path d="M77.1899 62.6044L56.0599 85.3445C52.8399 88.8045 49.3599 92.1444 46.7399 96.1044C44.5399 99.4244 42.9799 103.094 41.5499 106.794C40.0199 110.764 38.5699 114.754 36.5999 118.534C34.6299 122.314 32.2999 126.314 30.2399 130.244C26.1299 138.054 22.3399 146.294 21.2499 155.134C20.7199 159.464 21.0499 163.784 22.0799 168.014C23.1099 172.244 24.8099 175.974 27.9599 178.784C34.3099 184.444 43.3799 184.904 51.2699 182.864C65.6799 179.124 78.3299 169.704 89.5699 160.304C94.7299 155.984 99.8099 151.404 104.15 146.244C106.94 142.924 109.57 139.504 112.55 136.334C115.36 133.354 118.33 130.534 121.43 127.854C126.97 123.074 132.92 118.804 138.56 114.134C145.04 108.774 150.94 102.804 156.08 96.1445C161.54 89.0645 166.1 81.2645 170.18 73.3145C174.26 65.3645 177.42 57.6245 178.56 48.9845C179.14 44.6045 179.31 40.0844 178.85 35.6844C178.39 31.2844 177.22 27.5045 174.49 24.2245C169.8 18.5845 162 16.5744 154.98 16.1044C151.1 15.8444 147.18 16.0245 143.44 17.1645C139.7 18.3045 136.61 20.1144 133.56 22.2444C130.31 24.5144 127.22 27.0145 123.95 29.2545C121.4 31.0045 118.76 32.6045 116.09 34.1645C110.94 37.1845 105.7 40.0645 100.69 43.3045C94.5099 47.2945 88.6799 51.8145 83.2599 56.7845C79.8599 59.9045 76.6099 63.1945 73.4799 66.5845C72.1799 67.9945 74.2799 70.1044 75.5799 68.6844C81.2499 62.5344 87.3199 56.7244 93.9699 51.6344C98.9499 47.8344 104.23 44.4745 109.64 41.3145C114.47 38.4945 119.38 35.8144 124.06 32.7444C130.2 28.7144 135.74 23.1545 142.7 20.5345C149.66 17.9145 157.46 18.5145 164.11 20.8445C167.26 21.9445 170.23 23.7145 172.37 26.3045C174.99 29.4745 175.79 33.6245 176.01 37.6145C176.46 46.0045 175.1 54.2444 172.07 62.0744C169.04 69.9044 164.61 77.8145 160.04 85.1145C155.47 92.4145 150.21 99.1445 144.07 105.164C138.91 110.224 133.2 114.634 127.51 119.074C121.56 123.714 115.77 128.544 110.58 134.044C105.67 139.254 101.54 145.084 96.4099 150.094C91.2799 155.104 85.8299 159.694 80.1399 163.984C74.8699 167.954 69.3799 171.774 63.5199 174.824C56.4699 178.494 48.0099 181.884 39.9099 180.844C36.2999 180.374 32.6499 179.004 29.9299 176.524C26.8299 173.704 25.4599 169.754 24.6199 165.744C22.8799 157.364 24.9599 148.994 28.2199 141.244C31.4799 133.494 36.3899 125.914 40.1299 118.064C43.4899 111.004 45.3199 103.194 49.8799 96.7345C52.5899 92.8845 56.1499 89.5744 59.3499 86.1344L69.4899 75.2144L79.2999 64.6645C80.5999 63.2645 78.4999 61.1545 77.1999 62.5645L77.1899 62.6044Z" fill="black"/>
<path d="M128.69 45.7444C130.91 46.2944 133.18 45.5344 135.35 46.0144C137.91 46.5844 138.22 49.6344 136.05 50.9244C133.88 52.2144 135.85 55.7744 138.1 54.4344C141.35 52.4944 142.69 48.3344 140.58 45.0244C139.64 43.5644 138.12 42.4844 136.43 42.0944C134.22 41.5844 131.95 42.3644 129.77 41.8244C127.23 41.1944 126.15 45.1144 128.69 45.7444Z" fill="#1F3809"/>
<path d="M129.29 69.1644C130.23 68.9344 132.42 68.3044 132.95 69.4444C133.29 70.1744 133 71.4844 133 72.2844C133 73.5944 133 74.9044 132.99 76.2144C132.99 78.8344 137.05 78.8344 137.05 76.2144C137.05 74.2244 137.12 72.2244 137.07 70.2344C137.04 68.7944 136.75 67.3544 135.7 66.2944C133.76 64.3344 130.66 64.6544 128.22 65.2544C125.78 65.8544 126.76 69.7944 129.3 69.1744L129.29 69.1644Z" fill="#1F3809"/>
<path d="M100.26 71.8745C103.05 72.1045 104.67 75.3045 103.81 77.7845C102.95 80.2645 106.87 81.3245 107.73 78.8645C109.53 73.7145 105.52 68.2545 100.26 67.8145C97.6498 67.5945 97.6698 71.6645 100.26 71.8745Z" fill="#1F3809"/>
<path d="M98.0899 95.9044C99.6899 95.7344 101.28 95.6444 102.89 95.7144C104.22 95.7644 106.33 95.6544 107.51 96.3444C109.83 97.7045 107.4 102.684 107.31 104.824C107.2 107.444 111.26 107.434 111.37 104.824C111.53 101.024 114.2 96.6344 110.61 93.5144C107.62 90.9244 101.68 91.4545 98.0799 91.8345C95.5099 92.1145 95.4799 96.1745 98.0799 95.8945L98.0899 95.9044Z" fill="#1F3809"/>
<path d="M68.2099 103.964C71.1399 103.224 70.3999 108.564 70.1699 109.884C69.7199 112.444 73.6399 113.544 74.0899 110.964C74.5699 108.214 75.0199 105.144 73.3899 102.674C71.9999 100.574 69.6199 99.4245 67.1299 100.054C64.6399 100.684 65.6699 104.614 68.2099 103.974V103.964Z" fill="#1F3809"/>
<path d="M75.9999 125.604C79.2999 124.584 80.3599 129.464 80.8599 131.674C81.4399 134.224 85.3599 133.144 84.7799 130.594C84.1999 128.044 83.4899 125.364 81.5699 123.494C79.8099 121.784 77.3099 120.944 74.9199 121.684C72.5299 122.424 73.4899 126.384 75.9999 125.604Z" fill="#1F3809"/>
<path d="M44.8898 135.304C46.6698 135.164 48.3898 135.214 50.1498 135.544L48.7298 134.124C49.5098 137.474 50.1798 140.844 50.7398 144.244C51.1698 146.814 55.0798 145.724 54.6598 143.164C54.0998 139.764 53.4298 136.394 52.6498 133.044C52.4998 132.404 51.8898 131.754 51.2298 131.624C49.1198 131.224 47.0298 131.064 44.8898 131.234C42.2998 131.444 42.2798 135.504 44.8898 135.294V135.304Z" fill="#1F3809"/>
<path d="M48.0399 159.194L51.0199 158.924C51.4699 158.884 51.9199 158.844 52.3799 158.804C52.6099 158.774 52.8499 158.754 53.0899 158.744C53.7299 158.744 53.3799 158.474 52.0299 157.924C51.7499 158.124 51.7899 160.314 51.7499 160.714C51.6399 161.824 51.5199 162.944 51.4099 164.054C51.1399 166.654 55.2099 166.634 55.4699 164.054C55.6199 162.564 55.7699 161.084 55.9299 159.594C56.0599 158.344 56.3799 156.974 55.5999 155.864C54.8199 154.754 53.6399 154.634 52.3899 154.734C50.9399 154.854 49.4999 154.994 48.0499 155.124C45.4699 155.354 45.4399 159.424 48.0499 159.184L48.0399 159.194Z" fill="#1F3809"/>
<mask id="mask0_840_2112" style="mask-type:luminance" maskUnits="userSpaceOnUse" x="22" y="17" width="156" height="166">
<path d="M78.2498 63.6544C69.3498 73.2344 60.4398 82.8244 51.5398 92.4044C43.6498 100.894 42.9998 109.894 37.4798 120.074C30.0598 133.764 20.1499 149.634 22.9599 164.954C23.6399 168.664 24.6698 172.424 26.9198 175.454C30.6698 180.514 37.3498 182.754 43.6398 182.544C49.9298 182.334 55.9498 180.014 61.6898 177.424C74.1998 171.774 82.2499 161.954 90.6799 151.114C108.74 127.904 137.18 117.814 154.41 95.8944C160.25 88.4644 149.46 71.9144 153.64 63.4344C158.71 53.1644 177.85 50.6444 177.56 39.1944C177.46 35.2844 177 31.2644 175.13 27.8244C170.78 19.8144 160.39 17.4244 151.28 17.5144C139.05 17.6244 133.2 25.0844 122.94 31.7344C108.9 40.8444 94.7098 45.6744 74.5098 67.6644" fill="white"/>
</mask>
<g mask="url(#mask0_840_2112)">
<g opacity="0.4">
<path d="M137.09 86.9643C132.22 90.7043 128.17 94.3743 126.22 100.394C125.72 101.944 125.54 103.544 124.63 104.934C124.09 105.754 123.34 106.394 122.62 107.064C121.67 107.954 120.13 107.434 121.98 107.534L126.66 108.794L125.76 108.234L129.08 111.554C128.6 110.864 129.47 110.404 128.91 112.064L126.53 116.154C129.06 113.044 132.94 110.644 136.04 108.104C137.69 106.744 141.75 102.564 143.53 102.744L138.85 101.484L139.99 102.014C144.53 104.104 149.97 103.304 152.66 98.6944C155 94.7044 153.9 88.1244 149.34 86.0244C138.98 81.2544 131.42 88.0843 123.68 94.3943C120.29 97.1643 116.31 99.7843 113.41 103.064C110.02 106.914 109.77 111.984 111.1 116.754C114.41 128.554 126.82 127.374 134.63 121.034C137.75 118.504 140.24 115.334 141.91 111.674C143.42 108.374 143.45 105.264 146.43 102.974C150.39 99.9343 152.5 95.0044 149.75 90.3044C147.47 86.4044 141.07 83.9143 137.08 86.9843L137.09 86.9643Z" fill="black"/>
<path d="M125.58 40.3943C125.31 38.4343 129.75 37.9343 130.57 37.6743C132.78 36.9543 134.76 35.8743 136.84 34.8643L135.3 34.9343C136.05 35.2143 136.82 35.4043 137.61 35.5143C138.35 35.6643 139.32 35.6043 139.96 36.0043L136.64 32.6843C133.63 28.4643 138.66 28.8643 135.47 30.3943C134.46 30.8743 133.69 32.1843 132.73 32.7843C130.66 34.1043 128.62 33.7943 126.18 33.6743C114.26 33.1043 114.29 51.6343 126.18 52.2043C135.96 52.6643 143.97 49.0243 150.43 41.6243C157.62 33.3843 155.79 20.2643 143.93 17.8843C139.01 16.8943 134.72 15.7743 129.87 17.7843C126.1 19.3543 121.79 20.4643 118.22 22.3943C109.61 27.0343 106.45 36.0843 107.71 45.3343C108.39 50.2943 114.74 53.0043 119.11 51.8043C124.46 50.3343 126.26 45.3843 125.58 40.4043V40.3943Z" fill="black"/>
<path d="M149.18 18.4544C148.91 16.4944 153.35 15.9944 154.17 15.7344C156.38 15.0144 158.36 13.9344 160.44 12.9244L158.9 12.9944C159.65 13.2744 160.42 13.4644 161.21 13.5744C161.95 13.7244 162.92 13.6644 163.56 14.0644L160.24 10.7444C157.23 6.52438 162.26 6.92438 159.07 8.45438C158.06 8.93438 157.29 10.2444 156.33 10.8444C154.26 12.1644 152.22 11.8544 149.78 11.7344C137.86 11.1644 137.89 29.6944 149.78 30.2644C159.56 30.7244 167.57 27.0844 174.03 19.6844C181.22 11.4444 179.39 -1.67561 167.53 -4.05561C162.61 -5.04561 158.32 -6.16562 153.47 -4.15562C149.7 -2.58562 145.39 -1.47562 141.82 0.454383C133.21 5.09438 130.05 14.1444 131.31 23.3944C131.99 28.3544 138.34 31.0644 142.71 29.8644C148.06 28.3944 149.86 23.4444 149.18 18.4644V18.4544Z" fill="black"/>
<path d="M53.7098 173.434C55.7998 172.614 57.1298 172.194 59.1898 173.044L55.0998 170.664L55.7098 171.434L53.3298 162.424C53.0798 163.764 50.8098 165.954 50.8598 167.104C49.9898 167.854 50.2398 167.984 51.5998 167.464C50.8398 167.404 50.0698 167.334 49.3098 167.244C47.0498 167.104 44.9198 167.344 42.6798 167.684C41.5498 167.864 40.4198 168.074 39.2998 168.294C38.3998 168.344 38.7798 168.464 40.4298 168.674L43.7498 171.994L43.9098 172.134V177.064C43.2698 179.014 42.4198 179.014 44.6298 177.894C45.8598 177.274 46.9798 176.164 47.9798 175.244C51.7198 171.824 51.3298 165.624 47.9798 162.144C43.9798 158.004 36.5998 154.994 30.7898 156.424C27.9398 157.134 25.6298 158.934 24.2198 161.504C22.9798 163.764 22.7398 166.144 23.2898 168.644C23.3898 169.084 23.6698 171.414 23.7198 169.704C23.3598 181.634 41.8798 181.614 42.2498 169.704C42.3198 167.484 41.4898 165.784 41.1598 163.714L40.2298 170.854L40.6098 170.224L35.0698 174.484C31.0698 175.694 33.5698 173.884 34.8798 175.234V162.134C31.5798 165.154 28.0098 166.224 26.4298 170.954C24.9998 175.204 25.9898 180.014 29.1898 183.224C32.7598 186.794 37.8198 187.154 42.5198 186.444C46.4898 185.834 50.4398 186.394 54.3198 185.714C62.5298 184.284 70.6498 174.414 71.3398 166.104C72.3298 154.034 57.2398 152.224 48.7598 155.554C44.1098 157.384 40.8598 161.764 42.2898 166.954C43.5098 171.394 48.9998 175.264 53.6898 173.424L53.7098 173.434Z" fill="black"/>
</g>
</g>
</svg>
