<svg width="40" height="40" viewBox="0 0 40 40" fill="none" xmlns="http://www.w3.org/2000/svg">
<path fill-rule="evenodd" clip-rule="evenodd" d="M20.0485 39.0699C10.2325 39.0699 3.9423 36.1173 2.34095 30.757L2.29881 30.6193L2.16396 30.6615C2.10777 30.6783 2.05439 30.6867 2.00101 30.6867C1.97011 30.6867 1.9364 30.6839 1.9083 30.6755C1.22843 30.5294 0.857593 28.7117 1.38576 26.2367C1.89426 23.8599 2.92249 22.3878 3.58269 22.3878C3.6136 22.3878 3.64731 22.3906 3.6754 22.3991C3.7625 22.4187 3.84397 22.4637 3.91982 22.5339L4.02658 22.6322L4.1221 22.5227C5.43408 21.0337 7.31075 19.7273 9.55263 18.7441L9.7212 18.671L9.6032 18.5277C8.05242 16.6258 7.26861 14.5075 7.26861 12.2375C7.26861 6.1187 13.0026 1.14047 20.0513 1.14047C27.1 1.14047 32.834 6.1187 32.834 12.2375C32.834 14.4541 32.0249 16.5696 30.4292 18.5277L30.3112 18.671L30.4797 18.7441C32.7104 19.7245 34.5842 21.0253 35.8934 22.5058L35.9861 22.6126L36.0901 22.5199C36.1603 22.4581 36.239 22.4159 36.3176 22.3991C36.3485 22.3934 36.3794 22.3878 36.4103 22.3878C37.0705 22.3878 38.0988 23.8599 38.6073 26.2367C39.1354 28.7117 38.7646 30.5322 38.0847 30.6755C38.0538 30.6811 38.0229 30.6867 37.992 30.6867C37.9471 30.6867 37.8993 30.6811 37.8544 30.6671L37.7223 30.6306L37.683 30.7626C36.548 34.5525 32.5643 39.0671 20.0457 39.0671L20.0485 39.0699Z" fill="#F9B811"/>
<path d="M20.0485 1.28375C27.0186 1.28375 32.6907 6.20017 32.6907 12.2403C32.6907 14.4232 31.8929 16.5106 30.3168 18.4406L30.0836 18.7272L30.4208 18.8761C32.6345 19.8481 34.4887 21.1348 35.7867 22.6013L35.9721 22.812L36.1828 22.6266C36.2362 22.5789 36.2896 22.5508 36.3485 22.5367C36.371 22.5311 36.3907 22.5311 36.4132 22.5311C37.0228 22.5311 37.9948 24.0341 38.4724 26.2704C38.7084 27.3829 38.7759 28.4561 38.6635 29.2933C38.5652 30.0041 38.3348 30.4845 38.0595 30.5435C38.0398 30.5491 38.0173 30.5491 37.9949 30.5491C37.9639 30.5491 37.9274 30.5435 37.8937 30.535L37.6296 30.4648L37.551 30.7261C36.8065 33.2096 35.0787 35.1733 32.4154 36.5612C29.3981 38.1344 25.2374 38.9295 20.0485 38.9295C14.8596 38.9295 10.6764 38.1316 7.64227 36.5583C4.9565 35.1649 3.21749 33.1983 2.47581 30.7176L2.39434 30.4451L2.12183 30.5294C2.07969 30.5435 2.03755 30.5491 2.00103 30.5491C1.97855 30.5491 1.95889 30.5491 1.93641 30.5435C1.66109 30.4845 1.42791 30.0069 1.33239 29.2933C1.21721 28.4533 1.28463 27.3801 1.52343 26.2704C2.00103 24.0341 2.97307 22.5311 3.58271 22.5311C3.60519 22.5311 3.62766 22.5311 3.64733 22.5367C3.70913 22.5508 3.76813 22.5817 3.82432 22.635L4.03502 22.8345L4.22606 22.6154C5.52399 21.1433 7.38381 19.8481 9.60603 18.8733L9.94315 18.7244L9.70998 18.4378C8.18167 16.5612 7.40628 14.4738 7.40628 12.2375C7.40628 6.19736 13.0784 1.28094 20.0485 1.28094M20.0485 1C12.9351 1 7.12534 6.06532 7.12534 12.2375C7.12534 14.6367 8.00749 16.7943 9.49365 18.6176C7.2321 19.6093 5.35262 20.9157 4.01536 22.43C3.92265 22.3429 3.8187 22.2839 3.70351 22.2614C3.66418 22.253 3.62204 22.2474 3.5799 22.2474C2.74551 22.2474 1.72571 23.9583 1.2453 26.2086C0.739614 28.5713 1.02336 30.6334 1.87741 30.816C1.91675 30.8244 1.95889 30.83 2.00103 30.83C2.06845 30.83 2.13588 30.8188 2.20611 30.7963C3.64452 35.6032 8.97392 39.2104 20.0485 39.2104C31.1231 39.2104 36.3795 35.6088 37.8207 30.8047C37.8797 30.8216 37.9387 30.83 37.9949 30.83C38.037 30.83 38.0763 30.8244 38.1185 30.816C38.9725 30.6334 39.2535 28.5713 38.7506 26.2086C38.2702 23.9583 37.2504 22.2474 36.416 22.2474C36.3738 22.2474 36.3345 22.253 36.2924 22.2614C36.1856 22.2839 36.0873 22.3373 36.0002 22.4159C34.6657 20.9073 32.7891 19.6093 30.5359 18.6204C32.0193 16.8 32.9717 14.6424 32.9717 12.2403C32.9717 6.06813 27.1619 1.00281 20.0485 1.00281V1Z" fill="#19191C"/>
<path d="M15.4214 10.816C15.2529 11.4481 14.9158 11.9678 14.5168 12.2965C14.1179 12.6252 13.6656 12.7573 13.2498 12.6449C12.834 12.5325 12.5081 12.1954 12.3255 11.7094C12.1429 11.2262 12.112 10.6081 12.2834 9.97599C12.4519 9.34388 12.7891 8.82414 13.188 8.49544C13.5869 8.16674 14.0392 8.0347 14.455 8.14708C14.8708 8.25945 15.1967 8.59939 15.3793 9.0826C15.5619 9.56582 15.5928 10.1839 15.4214 10.816Z" fill="#19191C" stroke="white" stroke-width="0.294096"/>
<path d="M14.587 9.55835C14.6886 9.17918 14.551 8.81288 14.2798 8.74019C14.0085 8.6675 13.7062 8.91596 13.6046 9.29514C13.503 9.67431 13.6406 10.0406 13.9118 10.1133C14.1831 10.186 14.4854 9.93753 14.587 9.55835Z" fill="#FEFFFE"/>
<path d="M24.6756 10.816C24.8441 11.4481 25.1813 11.9678 25.5802 12.2965C25.9791 12.6252 26.4314 12.7573 26.8472 12.6449C27.263 12.5325 27.5889 12.1954 27.7715 11.7094C27.9541 11.2234 27.985 10.6081 27.8137 9.97599C27.6451 9.34388 27.308 8.82414 26.909 8.49544C26.5101 8.16674 26.0578 8.0347 25.642 8.14708C25.2262 8.25945 24.9003 8.59939 24.7177 9.0826C24.5351 9.56582 24.5042 10.1839 24.6756 10.816Z" fill="#19191C" stroke="white" stroke-width="0.294096"/>
<path d="M26.1853 10.1127C26.4565 10.04 26.5941 9.6737 26.4925 9.29452C26.3909 8.91535 26.0886 8.66689 25.8173 8.73958C25.5461 8.81226 25.4085 9.17857 25.5101 9.55774C25.6117 9.93691 25.914 10.1854 26.1853 10.1127Z" fill="#FEFFFE"/>
<path d="M24.4031 15.6341C25.1925 15.7352 25.9089 15.8279 26.9119 15.8363C26.8697 16.1229 26.704 16.4094 26.4118 16.682C26.0719 16.9994 25.5746 17.2944 24.9453 17.5416C23.6895 18.0389 21.9477 18.3507 20.0148 18.3507C18.082 18.3507 16.3402 18.0389 15.0844 17.5416C14.4579 17.2916 13.9578 16.9994 13.6179 16.682C13.3257 16.4066 13.1599 16.1229 13.1178 15.8363C13.6375 15.8251 14.1938 15.7577 14.8624 15.679C15.0928 15.6509 15.3344 15.6228 15.5957 15.5947C16.6857 15.4739 18.0764 15.3531 20.0148 15.3531C21.9533 15.3531 23.1023 15.4739 24.0688 15.5947C24.1811 15.6088 24.2935 15.6228 24.4031 15.6369V15.6341Z" fill="#E85D27" stroke="#19191C" stroke-width="0.294096"/>
<path fill-rule="evenodd" clip-rule="evenodd" d="M24.3413 16.1622C23.4001 16.1622 22.8945 16.0246 22.3579 15.8785C21.7763 15.7212 21.1779 15.5554 20.0148 15.5554C18.8518 15.5554 18.2505 15.7183 17.6718 15.8785C17.1352 16.0246 16.6267 16.165 15.6884 16.165C13.5561 16.165 13.1094 15.9122 13.1094 15.6987C13.1094 15.1789 13.542 15.0104 14.368 14.7351C15.2305 14.4485 16.3036 14.0917 17.1605 12.9904C18.4472 11.3357 18.9894 11.2599 19.9137 11.2599C20.8857 11.2599 21.619 11.3807 22.872 12.9904C23.7288 14.0917 24.802 14.4485 25.6645 14.7351C26.4905 15.0104 26.9231 15.1789 26.9231 15.6987C26.9231 15.9122 26.4764 16.165 24.3441 16.165L24.3413 16.1622Z" fill="#E6432C"/>
<path d="M19.9107 11.3975C20.8435 11.3975 21.543 11.5155 22.7566 13.0747C23.6388 14.2097 24.7822 14.589 25.6138 14.8671C26.4566 15.148 26.7769 15.2913 26.7769 15.6987C26.7572 15.7521 26.5549 16.0218 24.3383 16.0218C23.4168 16.0218 22.9196 15.8869 22.3914 15.7408C21.8043 15.5807 21.1946 15.4149 20.0119 15.4149C18.8291 15.4149 18.2195 15.5807 17.6323 15.7436C17.1042 15.8869 16.6069 16.0246 15.6854 16.0246C13.4688 16.0246 13.2665 15.7549 13.2469 15.6987C13.2469 15.2941 13.5643 15.1508 14.41 14.8699C15.2444 14.5918 16.385 14.2125 17.2671 13.0775C18.5145 11.4734 19.0314 11.4003 19.9107 11.4003M19.9107 11.1194C18.9218 11.1194 18.3347 11.2486 17.0452 12.9062C16.2136 13.9737 15.1516 14.3277 14.3201 14.603C13.5419 14.8615 12.9659 15.0553 12.9659 15.6987C12.9659 16.1847 14.1037 16.3055 15.6854 16.3055C16.6462 16.3055 17.1688 16.1622 17.7082 16.0161C18.2785 15.8588 18.8685 15.6987 20.0119 15.6987C21.1553 15.6987 21.7453 15.8588 22.3184 16.0161C22.8578 16.1622 23.3803 16.3055 24.3383 16.3055C25.92 16.3055 27.0578 16.1847 27.0578 15.6987C27.0578 15.0525 26.4819 14.8615 25.7037 14.603C24.8721 14.3277 23.8102 13.9737 22.9786 12.9062C21.6891 11.2486 20.8996 11.1194 19.9107 11.1194Z" fill="#19191C"/>
<path fill-rule="evenodd" clip-rule="evenodd" d="M9.7 18.6766C7.44126 19.6683 5.19486 20.9791 3.8604 22.4934C4.46442 23.0608 4.80766 24.8798 4.3694 26.925C3.95361 28.8719 2.9619 30.2653 2.20898 30.6474C2.78491 32.1392 3.94518 33.6563 5.17569 34.839C5.60272 34.7856 6.05503 34.7266 6.53543 34.662C9.44315 34.2715 13.4465 33.7349 20.0486 33.7349C25.6505 33.7349 28.7886 34.1226 31.6766 34.4766C32.7554 34.6086 33.7977 34.7379 34.9214 34.839C36.1463 33.6619 37.3122 32.1336 37.891 30.6474C37.1296 30.2906 36.1154 28.8944 35.6968 26.925C35.2558 24.8573 35.4159 23.0199 36.0368 22.4721C34.6995 20.9635 32.5759 19.6627 30.32 18.6738C27.9882 21.5366 24.3947 23.4076 20.0458 23.4076C15.6968 23.4076 12.1 21.5 9.7 18.6794V18.6766Z" fill="#19191C" stroke="#19191C" stroke-width="0.3" stroke-linejoin="round"/>
<path d="M23.3778 31.1784H17.0594V24.8601H23.3778L20.1694 27.9701L23.3778 31.1784Z" fill="url(#paint0_radial_706_523)"/>
<defs>
<radialGradient id="paint0_radial_706_523" cx="0" cy="0" r="1" gradientUnits="userSpaceOnUse" gradientTransform="translate(23.6623 25.1355) scale(7.25102)">
<stop stop-color="#FE2857"/>
<stop offset="0.47" stop-color="#AF1DF5"/>
<stop offset="1" stop-color="#6B57FF"/>
</radialGradient>
</defs>
</svg>
