<svg width="84" height="32" viewBox="0 0 84 32" fill="none" xmlns="http://www.w3.org/2000/svg">
<g filter="url(#filter0_b_525_20321)">
<path d="M17.6142 11.9H21.2932C21.8739 11.9 22.383 12.0083 22.8207 12.225C23.2627 12.4417 23.6029 12.7493 23.8412 13.148C24.0839 13.5467 24.2052 14.0103 24.2052 14.539C24.2052 15.0677 24.0817 15.5335 23.8347 15.9365C23.592 16.3352 23.2475 16.645 22.8012 16.866C22.3549 17.0827 21.8349 17.191 21.2412 17.191H18.6932V21H17.6142V11.9ZM21.2932 16.1835C21.6485 16.1835 21.9584 16.1163 22.2227 15.982C22.4914 15.8477 22.6972 15.657 22.8402 15.41C22.9875 15.163 23.0612 14.8727 23.0612 14.539C23.0612 14.2097 22.9875 13.9215 22.8402 13.6745C22.6972 13.4275 22.4914 13.239 22.2227 13.109C21.9584 12.9747 21.6485 12.9075 21.2932 12.9075H18.6932V16.1835H21.2932ZM27.808 14.188C28.3107 14.188 28.7527 14.2812 29.134 14.4675C29.5153 14.6495 29.81 14.9182 30.018 15.2735C30.2303 15.6245 30.3365 16.0427 30.3365 16.528V21H29.3225V19.9145C29.1362 20.3175 28.8632 20.6252 28.5035 20.8375C28.1438 21.0498 27.717 21.156 27.223 21.156C26.7983 21.156 26.4148 21.0737 26.0725 20.909C25.7302 20.7443 25.4615 20.5168 25.2665 20.2265C25.0715 19.9362 24.974 19.6068 24.974 19.2385C24.974 18.8918 25.0628 18.5733 25.2405 18.283C25.4225 17.9883 25.6717 17.7478 25.988 17.5615C26.3087 17.3752 26.6683 17.2603 27.067 17.217L28.8415 17.022C28.9888 17.0047 29.1037 16.944 29.186 16.84C29.2683 16.736 29.3095 16.5843 29.3095 16.385C29.3095 16.1207 29.2467 15.8888 29.121 15.6895C28.9953 15.4902 28.8177 15.3363 28.588 15.228C28.3627 15.1153 28.1005 15.059 27.8015 15.059C27.5025 15.059 27.2338 15.111 26.9955 15.215C26.7572 15.3147 26.5643 15.4512 26.417 15.6245C26.274 15.7935 26.1873 15.9777 26.157 16.177H25.117C25.169 15.8 25.3163 15.462 25.559 15.163C25.806 14.8597 26.1245 14.6213 26.5145 14.448C26.9045 14.2747 27.3357 14.188 27.808 14.188ZM26.053 19.18C26.053 19.4053 26.1115 19.6047 26.2285 19.778C26.3498 19.9513 26.5167 20.0878 26.729 20.1875C26.9413 20.2828 27.184 20.3305 27.457 20.3305C27.8297 20.3305 28.1547 20.2547 28.432 20.103C28.7137 19.9513 28.9303 19.739 29.082 19.466C29.2337 19.1887 29.3095 18.8702 29.3095 18.5105V17.75L27.21 17.984C26.8633 18.023 26.5838 18.153 26.3715 18.374C26.1592 18.595 26.053 18.8637 26.053 19.18ZM32.477 14.344H33.517V15.449C33.7294 15.072 34.0045 14.7838 34.3425 14.5845C34.6805 14.3808 35.0684 14.279 35.506 14.279H35.74V15.3645H35.467C35.0727 15.3645 34.7282 15.4403 34.4335 15.592C34.1389 15.7437 33.9114 15.9603 33.751 16.242C33.595 16.5193 33.517 16.8465 33.517 17.2235V21H32.477V14.344ZM38.6835 21C38.1939 21 37.8104 20.8722 37.533 20.6165C37.26 20.3608 37.1235 20.0077 37.1235 19.557V12.68H38.1635V14.344H39.73L39.7235 15.267H38.157L38.1635 19.492C38.1635 19.674 38.2155 19.817 38.3195 19.921C38.4235 20.025 38.5665 20.077 38.7485 20.077H39.7235V21H38.6835ZM41.4935 14.344H42.5335V21H41.4935V14.344ZM42.6245 11.9V13.135H41.4025V11.9H42.6245ZM47.0039 21C46.6876 21 46.3994 20.9328 46.1394 20.7985C45.8838 20.6598 45.6823 20.4713 45.5349 20.233C45.3876 19.9903 45.3139 19.7217 45.3139 19.427L45.3074 15.267H44.1374L44.1439 14.344H44.8654C45.0301 14.344 45.1623 14.292 45.2619 14.188C45.3659 14.084 45.4179 13.9518 45.4179 13.7915V12.719H46.3539V14.344H47.9594L47.9529 15.267H46.3474L46.3539 19.362C46.3539 19.5657 46.4211 19.7368 46.5554 19.8755C46.6941 20.0098 46.8653 20.077 47.0689 20.077H47.9529V21H47.0039ZM49.8243 14.344H50.8643V21H49.8243V14.344ZM50.9553 11.9V13.135H49.7333V11.9H50.9553ZM56.0238 21.156C55.3911 21.156 54.8148 21.0065 54.2948 20.7075C53.7791 20.4042 53.3718 19.9882 53.0728 19.4595C52.7781 18.9265 52.6308 18.3307 52.6308 17.672C52.6308 17.0133 52.7781 16.4197 53.0728 15.891C53.3718 15.358 53.7813 14.942 54.3013 14.643C54.8213 14.3397 55.3976 14.188 56.0303 14.188C56.663 14.188 57.2371 14.3397 57.7528 14.643C58.2685 14.942 58.6736 15.3558 58.9683 15.8845C59.2673 16.4132 59.4168 17.009 59.4168 17.672C59.4168 18.335 59.2673 18.9308 58.9683 19.4595C58.6736 19.9882 58.2685 20.4042 57.7528 20.7075C57.2371 21.0065 56.6608 21.156 56.0238 21.156ZM53.7228 17.672C53.7228 18.1703 53.8225 18.6123 54.0218 18.998C54.2255 19.3793 54.5028 19.6762 54.8538 19.8885C55.2091 20.1008 55.6035 20.207 56.0368 20.207C56.4701 20.207 56.8601 20.1008 57.2068 19.8885C57.5535 19.6762 57.8265 19.3793 58.0258 18.998C58.2251 18.6123 58.3248 18.1703 58.3248 17.672C58.3248 17.1737 58.2251 16.7317 58.0258 16.346C57.8265 15.9603 57.5513 15.6613 57.2003 15.449C56.8536 15.2367 56.4636 15.1305 56.0303 15.1305C55.597 15.1305 55.2048 15.2367 54.8538 15.449C54.5028 15.6613 54.2255 15.9603 54.0218 16.346C53.8225 16.7317 53.7228 17.1737 53.7228 17.672ZM61.1894 14.344H62.1904V15.423C62.4157 15.0243 62.7147 14.7188 63.0874 14.5065C63.4644 14.2942 63.8999 14.188 64.3939 14.188C64.8705 14.188 65.293 14.2898 65.6614 14.4935C66.0297 14.6972 66.3179 14.9983 66.5259 15.397C66.7382 15.7913 66.8444 16.2658 66.8444 16.8205V21H65.8044V16.9245C65.8044 16.3482 65.6549 15.8997 65.3559 15.579C65.0569 15.2583 64.6452 15.098 64.1209 15.098C63.7482 15.098 63.4189 15.1803 63.1329 15.345C62.8469 15.5097 62.6237 15.7415 62.4634 16.0405C62.3074 16.3352 62.2294 16.6732 62.2294 17.0545V21H61.1894V14.344Z" fill="#19191C"/>
<rect x="0.5" y="0.5" width="83" height="31" rx="15.5" stroke="#19191C" stroke-opacity="0.3"/>
</g>
<defs>
<filter id="filter0_b_525_20321" x="-8" y="-8" width="100" height="48" filterUnits="userSpaceOnUse" color-interpolation-filters="sRGB">
<feFlood flood-opacity="0" result="BackgroundImageFix"/>
<feGaussianBlur in="BackgroundImageFix" stdDeviation="4"/>
<feComposite in2="SourceAlpha" operator="in" result="effect1_backgroundBlur_525_20321"/>
<feBlend mode="normal" in="SourceGraphic" in2="effect1_backgroundBlur_525_20321" result="shape"/>
</filter>
</defs>
</svg>
