<svg width="200" height="249" viewBox="0 0 200 249" fill="none" xmlns="http://www.w3.org/2000/svg">
<path d="M104.147 100.004C109.677 93.0444 111.237 83.6444 110.677 74.7744C110.127 65.9044 111.527 59.6944 109.887 50.9544C109.367 48.1844 103.117 45.7944 105.137 43.8144C106.127 42.8444 108.457 40.8944 109.427 40.6444C114.167 39.4044 117.427 41.4644 119.487 43.6844C121.667 46.0544 121.867 51.4444 124.367 50.4244C120.127 42.2644 114.947 33.0044 122.207 27.1644C128.837 23.1144 130.877 20.4344 132.507 24.8344C133.157 27.5544 133.107 30.1144 132.397 31.8044C135.887 24.3144 135.027 21.3944 139.077 14.1944C142.647 7.84439 145.278 11.2644 146.807 12.1944C149.458 13.7944 154.277 24.0744 152.127 26.3044C154.947 24.0344 159.147 14.4844 162.637 13.5544C166.127 12.6244 167.268 14.3244 169.248 17.3444C171.358 20.5644 170.177 27.5744 166.588 28.9844C178.497 25.8844 177.887 29.2644 176.897 32.3144C174.427 39.8944 171.037 43.2444 163.577 46.0544C166.967 44.8444 170.857 47.7344 171.537 51.2744C172.217 54.8144 167.787 55.0344 165.097 57.4344C162.407 59.8344 155.137 62.4044 151.797 63.7544C153.867 64.0844 161.408 63.1544 161.147 66.9544C159.017 74.3044 151.617 75.9844 143.317 79.7144C135.017 83.4444 131.057 92.7344 124.117 98.6144C120.007 102.094 116.997 106.804 112.557 109.834C108.118 112.864 101.168 113.504 97.9975 109.164C95.9475 106.354 96.4375 107.314 98.1675 104.294C99.8975 101.274 101.117 101.704 104.147 100.004Z" fill="#B5A950"/>
<path d="M105.198 101.064C109.308 95.8044 111.377 89.5044 112.037 82.9044C112.377 79.5444 112.188 76.2344 112.078 72.8744C111.968 69.5144 112.117 66.0244 112.187 62.6044C112.257 59.1844 112.138 55.8044 111.638 52.4244C111.448 51.1244 111.287 49.9344 110.507 48.8444C109.867 47.9644 109.047 47.2544 108.227 46.5444C107.837 46.2044 107.438 45.8744 107.058 45.5244C106.878 45.3544 106.508 44.7744 106.298 44.6944C105.908 44.5444 106.508 44.6344 106.198 44.8644C106.638 44.5344 107.028 44.0944 107.448 43.7344C108.298 43.0144 109.217 42.2344 110.257 41.9744C111.727 41.6044 113.318 41.6944 114.748 42.1844C117.408 43.1044 118.948 45.1444 119.948 47.6644C120.747 49.7044 121.937 52.8444 124.757 51.8644C125.687 51.5444 126.108 50.5744 125.648 49.6744C123.868 46.2444 121.947 42.8044 120.817 39.0844C119.857 35.9244 119.518 32.3444 121.778 29.6344C123.068 28.0844 125.008 27.1444 126.678 26.0444C127.748 25.3344 128.848 24.5144 130.078 24.1044C130.338 24.0144 130.238 24.0544 130.428 24.0544C130.258 24.0544 130.538 24.1844 130.338 24.0044C130.658 24.2944 130.868 24.6944 131.018 25.0944C131.718 26.9944 131.678 29.5244 130.958 31.4144C130.368 32.9744 132.978 34.0944 133.678 32.5644C135.168 29.3144 136.168 25.9744 137.168 22.5544C137.638 20.9444 138.178 19.3544 138.888 17.8244C139.698 16.0744 140.577 14.0444 141.978 12.6844C143.478 11.2244 144.498 12.4044 145.948 13.4244C147.398 14.4444 148.668 16.8944 149.518 18.7244C150.138 20.0644 150.658 21.4744 150.978 22.9144C151.097 23.4444 151.188 23.9744 151.178 24.5144C151.178 24.8344 151.157 24.8344 151.127 25.0944C151.097 25.3144 151.008 25.3544 151.088 25.2744C149.818 26.7344 151.727 28.6044 153.187 27.3744C155.367 25.5444 156.788 22.6744 158.338 20.3344C159.608 18.4144 161.298 15.1944 163.757 14.8544C165.277 14.6444 166.138 15.4744 166.978 16.6344C167.817 17.7944 168.558 18.9044 168.757 20.3544C169.107 22.8644 168.448 26.6044 165.858 27.7244C164.278 28.4044 165.418 30.8544 167.007 30.4444C168.948 29.9444 170.918 29.4544 172.918 29.3044C173.538 29.2544 174.178 29.2244 174.798 29.3044C175.058 29.3344 175.558 29.4844 175.588 29.4944C175.938 29.6344 175.638 29.4844 175.768 29.5944C176.068 29.8544 175.758 29.5144 175.858 29.7044C175.978 29.9144 175.788 29.4244 175.888 29.8244C175.948 30.0544 175.908 29.5344 175.898 29.9544C175.898 30.1044 175.897 30.2544 175.877 30.4044C175.857 30.6444 175.938 30.1844 175.838 30.5944C175.768 30.9044 175.687 31.2044 175.597 31.5044C174.737 34.3744 173.477 37.2844 171.437 39.5244C169.207 41.9744 166.228 43.4644 163.178 44.6244C161.428 45.2944 162.107 48.0844 163.967 47.4944C166.607 46.6544 169.428 48.7444 170.028 51.3444C170.538 53.5744 166.928 54.3844 165.488 55.3044C164.488 55.9444 163.638 56.7644 162.608 57.3844C161.428 58.1044 160.167 58.7044 158.907 59.2744C156.437 60.3844 153.898 61.3144 151.388 62.3244C150.218 62.7944 149.748 64.9644 151.388 65.1944C153.588 65.5044 155.848 65.1644 158.018 65.6944C158.648 65.8444 159.627 66.0944 159.657 66.7544C159.677 67.3544 159.078 68.2644 158.798 68.7644C158.408 69.4544 157.958 70.0844 157.418 70.6644C152.578 75.8644 144.608 76.4344 139.018 80.5244C133.038 84.8944 129.498 91.6044 124.138 96.6144C122.668 97.9844 121.158 99.2844 119.778 100.754C118.398 102.224 117.008 103.844 115.548 105.324C112.978 107.934 110.068 110.184 106.338 110.704C104.668 110.934 102.838 110.824 101.308 110.074C100.548 109.704 99.8975 109.184 99.3475 108.534C99.0375 108.164 98.7575 107.754 98.4775 107.354C98.4175 107.274 98.0875 106.604 98.1275 106.964C98.1675 107.294 98.1675 107.014 98.3275 106.804C98.5675 106.484 98.7875 106.134 98.9975 105.794C99.4975 105.004 99.9075 104.114 100.627 103.484C101.797 102.464 103.527 102.044 104.877 101.304C106.557 100.384 105.057 97.8144 103.377 98.7344C101.987 99.4944 100.388 99.9544 99.1075 100.904C97.5975 102.024 96.6675 103.824 95.6875 105.394C94.8375 106.764 95.1975 107.874 96.0875 109.114C97.2175 110.684 98.4075 112.024 100.208 112.834C103.738 114.424 107.857 113.844 111.287 112.274C115.367 110.394 118.338 106.704 121.308 103.474C124.278 100.244 127.638 97.5344 130.428 94.1444C133.218 90.7544 135.528 87.5044 138.618 84.6644C144.598 79.1644 153.738 78.7944 159.398 72.8744C161.598 70.5744 164.448 65.8944 160.768 63.6044C159.388 62.7444 157.638 62.5644 156.058 62.4644C155.288 62.4144 154.518 62.4044 153.738 62.3844C153.398 62.3844 153.048 62.3744 152.708 62.3644C152.568 62.3644 151.898 62.3044 152.168 62.3444V65.2144C155.298 63.9644 158.467 62.8044 161.507 61.3544C162.997 60.6444 164.467 59.8644 165.757 58.8244C167.048 57.7844 168.297 57.1844 169.687 56.4444C170.957 55.7644 172.238 54.9144 172.778 53.5144C173.378 51.9544 172.928 50.2444 172.178 48.8044C170.518 45.6144 166.697 43.5244 163.157 44.6544L163.948 47.5244C166.918 46.3944 169.797 45.0344 172.217 42.9344C174.447 40.9944 176.037 38.4644 177.187 35.7644C178.337 33.0644 180.508 27.9844 176.248 26.6244C173.128 25.6244 169.198 26.8344 166.178 27.6044L167.328 30.3244C169.928 29.2044 171.208 26.1944 171.608 23.5644C172.088 20.3944 171.368 17.7544 169.528 15.1644C168.658 13.9444 167.678 12.7744 166.248 12.2144C164.898 11.6844 163.258 11.7944 161.898 12.2844C159.438 13.1844 157.758 15.8744 156.358 17.9344C154.718 20.3444 153.328 23.3944 151.058 25.2944L153.157 27.3944C154.987 25.2844 153.897 21.8844 153.037 19.5844C152.017 16.8544 150.638 13.7844 148.498 11.7244C147.098 10.3744 144.957 8.83441 142.937 9.01441C141.167 9.17441 139.827 10.4644 138.817 11.8244C137.387 13.7444 136.357 16.0244 135.467 18.2444C133.777 22.4644 132.977 26.9444 131.067 31.0944L133.787 32.2444C134.497 30.3744 134.508 28.3144 134.238 26.3644C134.038 24.8644 133.678 23.2444 132.588 22.1244C130.738 20.2144 128.267 21.5344 126.407 22.7044C123.397 24.6044 119.858 26.3744 118.198 29.6944C116.677 32.7444 116.867 36.1944 117.757 39.4044C118.917 43.5644 121.057 47.4144 123.037 51.2244L123.928 49.0344C123.598 49.1444 123.958 49.2044 123.738 48.9844C123.478 48.7244 123.307 48.2044 123.157 47.8644C122.647 46.7044 122.268 45.4844 121.678 44.3644C120.498 42.1444 118.287 40.4444 115.977 39.5244C113.457 38.5344 109.998 38.4044 107.648 39.8944C106.568 40.5744 105.558 41.4144 104.618 42.2744C103.828 42.9844 103.168 43.7444 103.238 44.8744C103.368 46.8744 105.568 48.1944 106.898 49.3944C107.538 49.9744 108.168 50.5444 108.428 51.3844C108.998 53.1944 109.018 55.3744 109.118 57.2544C109.298 60.5644 109.137 63.8744 109.067 67.1944C108.987 70.8244 109.268 74.4344 109.278 78.0544C109.288 85.4044 107.698 93.0944 103.078 98.9944C101.908 100.484 103.998 102.604 105.178 101.094L105.198 101.064Z" fill="black"/>
<path d="M115.318 84.4143C115.318 84.4143 102.088 80.2043 89.3775 84.4143C80.4275 87.3743 73.0475 90.5543 64.1575 109.194C57.7375 122.674 53.0175 138.554 47.0275 153.804C34.4375 185.874 22.7575 217.634 23.5175 235.804C23.6375 238.574 26.6875 240.214 29.0275 238.734C32.9675 236.244 41.1775 226.004 45.5675 222.424C79.3675 194.774 119.508 145.664 129.358 123.404C141.018 97.0443 115.308 84.4243 115.308 84.4243L115.318 84.4143Z" fill="#BF8862"/>
<path d="M115.717 82.9744C110.757 81.4144 105.248 80.8944 100.088 81.0844C93.6475 81.3144 87.1575 83.0444 81.4175 86.0044C76.4075 88.5844 72.4675 92.6144 69.2675 97.1944C64.2575 104.354 60.8175 112.584 57.6475 120.694C54.1975 129.514 51.1975 138.514 47.8975 147.394C44.4275 156.724 40.6775 165.944 37.2175 175.284C33.9875 184.004 30.8975 192.774 28.2175 201.674C25.9875 209.084 23.9775 216.614 22.8375 224.274C22.3775 227.374 22.0375 230.504 22.0075 233.634C21.9975 235.124 21.9175 236.714 22.6375 238.064C23.3575 239.414 24.7575 240.444 26.2975 240.694C29.2875 241.184 31.6075 238.754 33.5675 236.844C35.9375 234.534 38.1675 232.064 40.4275 229.644C42.4575 227.474 44.4775 225.254 46.7675 223.364C49.5475 221.064 52.2975 218.724 54.9875 216.324C60.7375 211.194 66.2975 205.854 71.7075 200.374C82.7575 189.174 93.2375 177.394 103.098 165.134C111.228 155.024 119.128 144.584 125.758 133.414C128.438 128.894 131.028 124.174 132.538 119.114C134.248 113.364 134.418 107.154 132.448 101.454C129.858 93.9844 124.078 87.8244 117.338 83.8344C116.928 83.5944 116.508 83.3444 116.078 83.1344C114.368 82.2944 112.858 84.8544 114.578 85.7044C119.368 88.0644 123.638 91.9544 126.618 96.4144C129.348 100.494 130.908 105.204 130.918 110.134C130.918 115.894 128.908 121.314 126.288 126.364C121.058 136.464 114.288 145.804 107.418 154.824C98.4375 166.624 88.7875 177.924 78.6875 188.784C68.5975 199.624 58.0275 210.084 46.6675 219.594C44.4675 221.434 42.3675 223.284 40.3775 225.364C38.0775 227.764 35.8575 230.234 33.5475 232.634C32.5375 233.684 31.5175 234.724 30.4475 235.704C29.6975 236.394 28.7875 237.364 27.7875 237.694C24.4475 238.804 24.9675 233.724 25.0375 231.934C25.3275 225.294 26.7275 218.724 28.3575 212.294C30.4275 204.104 33.0175 196.054 35.7875 188.084C41.9475 170.314 49.1375 152.924 55.4575 135.214C58.4775 126.754 61.5175 118.264 65.3675 110.144C68.3675 103.814 71.8875 97.3644 77.1275 92.5844C80.4375 89.5644 84.4075 87.6844 88.6175 86.2444C95.8175 83.7844 103.448 83.4744 110.908 84.8944C112.257 85.1544 113.628 85.4444 114.938 85.8544C116.768 86.4344 117.548 83.5644 115.728 82.9844L115.717 82.9744Z" fill="black"/>
<path d="M78.6975 103.724C83.0475 104.834 86.5175 107.194 89.3075 110.694C90.6975 112.444 93.6975 112.144 95.1575 110.694C96.8875 108.964 96.5575 106.594 95.1575 104.844C91.5575 100.324 86.4875 97.1744 80.8975 95.7544C75.7375 94.4444 73.5375 102.414 78.6975 103.724Z" fill="#8E5D3C"/>
<path d="M87.7075 143.424C87.7675 143.414 89.7975 144.834 90.0775 145.014C90.9375 145.574 91.7475 146.174 92.5275 146.834C94.2775 148.324 95.8275 149.994 97.2475 151.804C98.6675 153.614 101.628 153.234 103.098 151.804C104.848 150.094 104.468 147.704 103.098 145.954C99.2575 141.084 92.2575 134.134 85.5075 135.444C80.2875 136.454 82.4975 144.434 87.7075 143.414V143.424Z" fill="#8E5D3C"/>
<path d="M54.5775 160.374C59.2075 160.504 62.9275 162.914 66.1275 166.094C69.9175 169.844 75.7675 163.994 71.9775 160.244C67.1875 155.514 61.4175 152.294 54.5775 152.104C49.2575 151.954 49.2575 160.224 54.5775 160.374Z" fill="#8E5D3C"/>
<path d="M51.3775 191.724C55.6575 192.814 59.3075 195.274 61.7475 198.994C64.6575 203.424 71.8175 199.284 68.8875 194.824C65.2875 189.334 59.9675 185.394 53.5775 183.754C48.4175 182.434 46.2175 190.404 51.3775 191.724Z" fill="#8E5D3C"/>
<mask id="mask0_840_2115" style="mask-type:luminance" maskUnits="userSpaceOnUse" x="23" y="81" width="110" height="159">
<path d="M115.318 84.4143C115.318 84.4143 108.938 79.6543 96.6476 83.3043C87.4876 86.0243 73.3375 89.9243 64.1575 109.194C57.7175 122.714 53.0276 138.514 47.0276 153.804C34.4676 185.834 22.7576 217.654 23.5176 235.804C23.6376 238.574 26.6876 240.214 29.0276 238.734C32.1676 236.754 36.2776 229.894 39.7076 227.194C73.8076 200.414 119.248 146.254 129.358 123.404C141.018 97.0443 115.308 84.4243 115.308 84.4243L115.318 84.4143Z" fill="white"/>
</mask>
<g mask="url(#mask0_840_2115)">
<g opacity="0.2">
<path d="M71.8676 221.174C71.7376 214.884 72.2976 210.924 76.8176 206.374C81.0576 202.094 86.3076 198.584 91.9276 196.384C88.2276 190.024 84.5176 183.654 80.8176 177.294L79.8576 178.084L84.8976 175.144C85.6876 175.314 85.6476 175.364 84.7876 175.294C84.1176 175.294 83.4476 175.254 82.7776 175.184C81.0576 175.104 79.4175 175.094 77.6875 175.234C73.7975 175.564 70.0876 176.324 66.4576 177.734L75.2576 198.614C79.9276 195.514 85.9876 192.604 88.1476 187.114C90.8476 180.234 86.2976 173.594 83.3676 167.544C80.6776 161.994 72.7676 160.504 67.7376 163.444C62.0676 166.754 60.9376 173.504 63.6376 179.074C64.6676 181.184 66.1676 183.514 66.6976 185.754L67.8476 176.954C69.1876 174.674 69.8776 174.764 67.3176 176.494C66.1276 177.304 64.9276 178.094 63.7276 178.894C59.0076 182.024 56.6876 187.784 59.0576 193.154C61.1576 197.924 67.1476 201.854 72.5276 199.764C76.3476 198.284 79.3575 197.894 83.4375 198.084C88.8075 198.334 92.8175 196.864 96.9675 193.464C105.598 186.394 96.3176 170.264 85.8576 174.374C76.0676 178.214 66.7976 183.544 59.5976 191.354C51.6576 199.974 48.7876 209.604 49.0276 221.194C49.3376 235.874 72.1776 235.924 71.8676 221.194V221.174Z" fill="black"/>
</g>
<g opacity="0.2">
<path d="M61.7575 134.984C67.3375 129.754 72.3176 124.074 76.9276 117.974C78.6875 115.654 81.8375 112.374 82.7675 109.594C83.9975 107.904 82.8875 108.394 79.4175 111.074C79.8475 111.024 80.2775 111.074 80.6875 111.214C82.5175 111.954 85.0476 111.974 86.9976 112.324C92.0576 113.214 97.1676 111.734 99.8976 107.074C102.398 102.794 101.778 96.6944 98.1075 93.2344C92.8175 88.2444 89.6075 82.5644 87.9675 75.4844C84.6675 61.1644 62.6375 67.2244 65.9375 81.5544C68.3975 92.1944 74.0075 101.904 81.9475 109.384C85.6475 103.024 89.3576 96.6544 93.0576 90.2944C88.0676 89.4144 82.8075 87.9744 77.7375 88.3744C71.0975 88.8944 66.6376 92.7643 63.0276 98.0643C57.8476 105.664 52.3276 112.524 45.5876 118.824C34.8276 128.894 51.0075 145.024 61.7375 134.974L61.7575 134.984Z" fill="black"/>
</g>
<g opacity="0.2">
<path d="M119.118 114.704H120.098C118.178 114.194 116.258 113.674 114.338 113.154L115.208 113.684L111.108 109.584C110.658 107.414 110.538 107.064 110.738 108.514C110.878 109.804 111.048 111.084 111.238 112.364C111.498 113.714 111.878 114.994 112.368 116.284C113.598 119.514 115.638 122.304 117.078 124.974V113.444L116.748 114.164L120.848 110.064C123.668 109.164 123.798 108.874 121.238 109.184C120.028 109.234 118.818 109.274 117.608 109.324C105.698 109.784 102.838 124.094 111.848 130.604C115.968 133.584 120.438 135.654 125.208 137.384C130.928 139.454 137.838 135.034 139.258 129.404C141.258 121.494 142.288 113.294 142.508 105.144C142.608 101.304 142.528 97.4643 142.298 93.6343C142.188 91.7143 142.038 89.8043 141.858 87.8943C141.768 86.9343 141.678 85.9843 141.568 85.0343C141.548 82.7643 141.378 82.7143 141.058 84.8943L136.958 88.9943L133.998 89.6443L128.238 88.0843L129.108 88.5343C142.128 95.3143 153.698 75.6043 140.638 68.8143C134.838 65.7943 127.918 66.2743 123.128 71.0643C117.918 76.2743 118.638 83.1443 119.188 89.8243C120.118 101.074 120.018 112.364 117.238 123.354C121.918 120.694 126.608 118.034 131.288 115.374C128.408 114.334 125.868 112.694 123.388 110.894L117.628 132.174C122.528 131.984 128.048 132.464 132.398 129.794C138.428 126.094 139.948 118.254 136.228 112.354C134.668 109.874 134.318 110.314 133.618 107.904C133.048 105.924 133.258 103.684 132.608 101.644C130.688 95.6343 125.348 91.9543 119.128 91.8743C104.428 91.7043 104.418 114.544 119.128 114.714L119.118 114.704Z" fill="black"/>
</g>
</g>
</svg>
