<svg width="200" height="200" viewBox="0 0 200 200" fill="none" xmlns="http://www.w3.org/2000/svg">
<path d="M78.888 63.6131C69.988 73.1931 61.078 82.7831 52.178 92.3631C44.288 100.853 36.318 109.463 30.798 119.643C23.378 133.333 20.788 149.593 23.598 164.913C24.278 168.623 25.308 172.383 27.558 175.413C31.308 180.473 37.988 182.713 44.278 182.503C50.568 182.293 56.588 179.973 62.328 177.383C74.838 171.733 86.718 164.663 97.638 156.353C119.828 139.473 137.818 117.773 155.048 95.8531C160.888 88.4231 166.718 80.8731 170.898 72.3931C175.968 62.1231 178.488 50.6131 178.198 39.1631C178.098 35.2531 177.638 31.2331 175.768 27.7931C171.418 19.7831 161.028 17.3931 151.918 17.4831C139.688 17.5931 126.928 19.6731 116.668 26.3231C102.628 35.4331 95.348 45.6431 75.148 67.6331" fill="#527F12"/>
<path d="M77.838 62.5631C71.248 69.6631 64.648 76.7531 58.058 83.8531C51.908 90.4731 45.578 96.9831 39.828 103.973C34.078 110.963 29.578 117.723 26.298 125.693C23.018 133.663 21.328 141.863 21.038 150.273C20.898 154.443 21.148 158.613 21.738 162.743C22.328 166.873 23.168 170.983 25.238 174.583C28.978 181.093 36.628 184.123 43.898 183.993C52.778 183.833 61.208 179.723 69.008 175.853C76.808 171.983 84.538 167.443 91.798 162.413C106.088 152.523 118.798 140.573 130.458 127.723C136.248 121.343 141.798 114.743 147.218 108.053C152.638 101.363 158.278 94.4131 163.418 87.3131C168.558 80.2131 173.108 72.4631 175.938 64.0131C178.768 55.5631 180.038 46.8231 179.638 38.0631C179.448 33.9431 178.768 29.6931 176.528 26.1431C174.778 23.3731 172.238 21.1731 169.348 19.6331C163.048 16.2831 155.728 15.7931 148.738 16.0631C140.508 16.3831 132.168 17.6131 124.478 20.6731C118.478 23.0631 113.128 26.6331 108.138 30.7031C98.708 38.3931 90.878 47.9431 82.788 56.9731C79.908 60.1931 77.008 63.3931 74.088 66.5731C72.798 67.9831 74.898 70.0931 76.188 68.6731C85.358 58.6831 94.008 48.1031 103.718 38.6431C107.238 35.2131 110.968 32.0131 115.008 29.2031C121.148 24.9331 127.858 22.1231 135.178 20.6031C142.498 19.0831 150.308 18.3931 157.708 19.2531C163.898 19.9731 170.748 22.3131 174.128 27.9331C176.228 31.4331 176.628 35.6031 176.698 39.6031C176.778 43.8331 176.488 48.0831 175.788 52.2631C174.378 60.6531 171.468 68.6931 167.218 76.0631C162.968 83.4331 157.608 90.1931 152.318 96.8931C147.028 103.593 141.848 110.023 136.408 116.413C125.658 129.033 114.168 141.113 101.278 151.583C94.728 156.903 87.808 161.753 80.578 166.103C73.348 170.453 65.598 174.583 57.658 177.753C50.488 180.613 42.208 182.583 34.838 179.273C31.548 177.793 28.918 175.403 27.298 172.163C25.538 168.643 24.878 164.503 24.418 160.633C22.498 144.253 26.688 127.783 35.868 114.123C40.528 107.193 46.178 100.993 51.838 94.8831C58.088 88.1431 64.358 81.4131 70.618 74.6731L79.918 64.6631C81.218 63.2631 79.118 61.1531 77.818 62.5631H77.838Z" fill="black"/>
<path d="M129.338 45.7031C131.558 46.2531 133.828 45.4931 135.998 45.9731C138.558 46.5431 138.868 49.5931 136.698 50.8831C134.528 52.1731 136.498 55.7331 138.748 54.3931C141.998 52.4531 143.338 48.2931 141.228 44.9831C140.288 43.5231 138.768 42.4431 137.078 42.0531C134.868 41.5431 132.598 42.3231 130.418 41.7831C127.878 41.1531 126.798 45.0731 129.338 45.7031Z" fill="#306605"/>
<path d="M129.938 69.1232C130.878 68.8932 133.068 68.2632 133.598 69.4032C133.938 70.1332 133.648 71.4432 133.648 72.2432C133.648 73.5532 133.648 74.8632 133.638 76.1732C133.638 78.7932 137.698 78.7932 137.698 76.1732C137.698 74.1832 137.768 72.1832 137.718 70.1932C137.688 68.7532 137.398 67.3132 136.348 66.2532C134.408 64.2932 131.308 64.6132 128.868 65.2132C126.428 65.8132 127.408 69.7532 129.948 69.1332L129.938 69.1232Z" fill="#306605"/>
<path d="M100.908 71.8333C103.698 72.0633 105.318 75.2633 104.458 77.7433C103.598 80.2233 107.518 81.2833 108.378 78.8233C110.178 73.6733 106.168 68.2133 100.908 67.7733C98.298 67.5533 98.318 71.6233 100.908 71.8333Z" fill="#306605"/>
<path d="M98.728 95.8632C100.328 95.6932 101.918 95.6032 103.528 95.6732C104.858 95.7232 106.968 95.6132 108.148 96.3032C110.468 97.6632 108.038 102.643 107.948 104.783C107.838 107.403 111.898 107.393 112.008 104.783C112.168 100.983 114.838 96.5932 111.248 93.4732C108.258 90.8832 102.318 91.4132 98.718 91.7932C96.148 92.0732 96.118 96.1332 98.718 95.8532L98.728 95.8632Z" fill="#306605"/>
<path d="M68.848 103.923C71.778 103.183 71.038 108.523 70.808 109.843C70.358 112.403 74.278 113.503 74.728 110.923C75.208 108.173 75.658 105.103 74.028 102.633C72.638 100.533 70.258 99.3831 67.768 100.013C65.278 100.643 66.308 104.573 68.848 103.933V103.923Z" fill="#306605"/>
<path d="M76.648 125.563C79.948 124.543 81.008 129.423 81.508 131.633C82.088 134.183 86.008 133.103 85.428 130.553C84.848 128.003 84.138 125.323 82.218 123.453C80.458 121.743 77.958 120.903 75.568 121.643C73.178 122.383 74.138 126.343 76.648 125.563Z" fill="#306605"/>
<path d="M45.538 135.263C47.318 135.123 49.038 135.173 50.798 135.503L49.378 134.083C50.158 137.433 50.828 140.803 51.388 144.203C51.818 146.773 55.728 145.683 55.308 143.123C54.748 139.723 54.078 136.353 53.298 133.003C53.148 132.363 52.538 131.713 51.878 131.583C49.768 131.183 47.678 131.023 45.538 131.193C42.948 131.403 42.928 135.463 45.538 135.253V135.263Z" fill="#306605"/>
<path d="M48.688 159.153L51.668 158.883C52.118 158.843 52.568 158.803 53.028 158.763C53.258 158.733 53.498 158.713 53.738 158.703C54.378 158.703 54.028 158.433 52.678 157.883C52.398 158.083 52.438 160.273 52.398 160.673C52.288 161.783 52.168 162.903 52.058 164.013C51.788 166.613 55.858 166.593 56.118 164.013C56.268 162.523 56.418 161.043 56.578 159.553C56.708 158.303 57.028 156.933 56.248 155.823C55.468 154.713 54.288 154.593 53.038 154.693C51.588 154.813 50.148 154.953 48.698 155.083C46.118 155.313 46.088 159.383 48.698 159.143L48.688 159.153Z" fill="#306605"/>
</svg>
