<?xml version="1.0" encoding="utf-8"?>
<svg width="281" height="303" viewBox="0 0 281 303" fill="none" xmlns="http://www.w3.org/2000/svg">
  <defs/>
  <mask id="mask1_944_520" style="mask-type:alpha" maskUnits="userSpaceOnUse" x="44" y="83" width="197" height="83">
    <path d="M239.5 153.5C239.5 153.496 239.5 153.496 239.499 153.5C239.487 153.542 239.37 153.952 238.231 154.63C237.083 155.314 235.291 156.025 232.844 156.73C227.974 158.132 220.853 159.414 211.969 160.496C194.221 162.658 169.659 164 142.5 164C115.341 164 90.7794 162.658 73.0314 160.496C64.147 159.414 57.0265 158.132 52.1558 156.73C49.709 156.025 47.9173 155.314 46.7685 154.63C45.6298 153.952 45.5133 153.542 45.5014 153.5C45.5001 153.496 45.5 153.496 45.5 153.5C45.5 150.244 45.5062 132.977 55.6512 116.553C65.7204 100.251 85.955 84.5 127 84.5C175.642 84.5 203.736 100.336 219.672 116.808C227.657 125.061 232.625 133.512 235.595 140.29C237.08 143.68 238.062 146.646 238.671 148.951C239.29 151.294 239.5 152.868 239.5 153.5Z" fill="#D9D9D9" stroke="black" stroke-width="3"/>
  </mask>
  <g mask="url(#mask1_944_520)" transform="matrix(1, 0, 0, 1, -16.412397, 5.809114)">
    <path d="M221.247 132.86C209.447 109.167 187.505 100.953 177.676 109.095C170.005 115.451 163.116 125.945 157.778 129.951C147.886 137.374 144.023 138.513 134.005 142.451C121.323 147.436 112.737 148.691 110.083 157.325C105.769 171.356 132.008 199.823 157.778 208.715C183.547 217.608 215.019 189.841 219.666 183.863C224.313 177.885 235.997 162.475 221.247 132.86Z" fill="#E50A0A" stroke="black" stroke-width="3"/>
    <path d="M155.153 151.994C159.491 152.707 163.991 153.415 168.082 152.206C172.172 150.996 175.715 147.242 175.199 142.88C174.781 139.358 171.887 135.9 172.898 132.6C173.626 130.228 176.136 128.992 178.518 128.317C186.285 126.142 195.36 127.702 202.066 132.899C208.772 138.096 212.748 146.935 211.477 154.979C210.268 162.529 204.962 168.47 199.427 173.487C195.284 177.26 190.854 180.783 185.815 183.319C168.652 191.98 145.046 187.01 131.332 171.877C129.799 170.188 128.308 168.202 128.263 165.994C128.222 164.148 129.205 162.514 130.23 161.048C133.119 156.887 136.675 153.04 141.273 150.868C145.871 148.697 150.503 149.272 155.134 151.991L155.153 151.994Z" fill="#BF0822"/>
    <path d="M192.291 160.127C191.523 159.325 190.758 158.504 189.935 157.76C189.682 157.535 189.419 157.317 189.177 157.083L189.658 157.569C189.028 156.929 188.468 156.204 187.894 155.506C187.474 154.99 186.892 154.613 186.215 154.507C185.601 154.42 184.817 154.592 184.323 154.996C183.829 155.4 183.402 156.003 183.325 156.676C183.248 157.348 183.379 158.03 183.814 158.567C184.582 159.502 185.329 160.452 186.208 161.27C186.745 161.764 187.285 162.24 187.789 162.758L187.308 162.272C187.606 162.58 187.896 162.877 188.193 163.185C188.679 163.7 189.147 164.08 189.872 164.184C190.486 164.271 191.27 164.098 191.764 163.694C192.258 163.29 192.685 162.687 192.762 162.015C192.823 161.388 192.735 160.607 192.273 160.124L192.291 160.127Z" fill="#FC7E0B"/>
    <path d="M179.995 170.715C179.513 168.171 178.867 165.65 178.041 163.198C177.613 161.942 175.952 161.212 174.736 161.759C173.429 162.341 172.845 163.71 173.297 165.064C173.749 166.419 174.129 167.678 174.469 169.017L174.304 168.377C174.546 169.341 174.756 170.329 174.94 171.304C175.07 171.986 175.355 172.587 175.918 173.028C176.396 173.399 177.158 173.641 177.769 173.548C178.428 173.452 179.09 173.138 179.493 172.57C179.862 172.044 180.13 171.361 180.013 170.718L179.995 170.715Z" fill="#FC7E0B"/>
    <path d="M165.991 173.718C166.012 171.843 166.022 169.975 166.043 168.1C166.016 167.754 165.91 167.436 165.721 167.162C165.585 166.849 165.368 166.58 165.083 166.378C164.605 166.007 163.843 165.765 163.232 165.858C162.573 165.954 161.911 166.268 161.508 166.836L161.171 167.405C160.998 167.817 160.937 168.244 160.988 168.688L160.936 174.306C160.962 174.652 161.069 174.97 161.257 175.244C161.393 175.557 161.611 175.826 161.895 176.027C162.373 176.399 163.136 176.641 163.747 176.548C164.406 176.452 165.067 176.138 165.471 175.57L165.808 175.001C165.98 174.589 166.041 174.162 165.991 173.718Z" fill="#FC7E0B"/>
    <path d="M152.584 172.404L154.931 166.325C155.169 165.714 155.193 165.016 154.949 164.402C154.704 163.788 154.17 163.209 153.567 162.981C152.964 162.753 152.252 162.689 151.644 162.963C151.035 163.237 150.475 163.707 150.223 164.345C149.44 166.377 148.667 168.401 147.876 170.423C147.637 171.034 147.613 171.733 147.858 172.346C148.102 172.96 148.637 173.539 149.24 173.767C149.843 173.996 150.555 174.059 151.163 173.785C151.771 173.512 152.331 173.041 152.584 172.404Z" fill="#FC7E0B"/>
    <path d="M139.762 165.518C140.984 164.336 142.227 163.204 143.448 162.022C143.724 161.814 143.95 161.562 144.099 161.251C144.29 160.975 144.399 160.677 144.439 160.332C144.526 159.718 144.353 158.935 143.949 158.441C143.546 157.947 142.942 157.519 142.27 157.442C141.643 157.381 140.863 157.469 140.379 157.932C139.157 159.114 137.915 160.246 136.693 161.428C136.417 161.636 136.191 161.888 136.042 162.199C135.851 162.475 135.742 162.773 135.702 163.118C135.615 163.732 135.788 164.515 136.192 165.009C136.596 165.503 137.199 165.931 137.871 166.008C138.498 166.069 139.279 165.981 139.762 165.518Z" fill="#FC7E0B"/>
    <path d="M197.526 143.778L191.939 142.374C191.344 142.223 190.526 142.505 190.048 142.863C189.548 143.238 189.121 143.908 189.049 144.542C188.978 145.177 189.111 145.908 189.539 146.434L190.02 146.92C190.37 147.188 190.782 147.361 191.218 147.432L196.805 148.836C197.4 148.987 198.218 148.705 198.696 148.347C199.195 147.972 199.623 147.303 199.694 146.668C199.766 146.033 199.633 145.302 199.205 144.776L198.724 144.29C198.373 144.022 197.961 143.85 197.526 143.778Z" fill="#FC7E0B"/>
  </g>
</svg>