<svg width="346" height="249" viewBox="0 0 346 249" fill="none" xmlns="http://www.w3.org/2000/svg">
<path d="M228.988 178.309C245.154 178.309 258.259 165.204 258.259 149.038C258.259 132.872 245.154 119.767 228.988 119.767C212.822 119.767 199.717 132.872 199.717 149.038C199.717 165.204 212.822 178.309 228.988 178.309Z" fill="#FF8533"/>
<path d="M256.461 149.038C256.377 160.428 249.21 170.973 238.411 174.858C227.612 178.743 215.112 175.365 207.704 166.424C200.296 157.484 199.56 144.622 205.472 134.837C211.384 125.051 223.1 119.839 234.309 122.083C247.098 124.641 256.364 136.043 256.461 149.038C256.473 151.342 260.069 151.354 260.057 149.038C259.96 136.043 251.78 124.315 239.557 119.827C227.359 115.351 213.073 119.308 204.929 129.419C196.809 139.506 195.651 153.912 202.383 165.061C209.116 176.209 222.472 182.037 235.274 179.467C249.608 176.583 259.96 163.553 260.057 149.05C260.069 146.733 256.485 146.733 256.461 149.05V149.038Z" fill="black"/>
<path d="M228.988 158.859C234.412 158.859 238.809 154.462 238.809 149.038C238.809 143.614 234.412 139.216 228.988 139.216C223.564 139.216 219.167 143.614 219.167 149.038C219.167 154.462 223.564 158.859 228.988 158.859Z" fill="#EA5F00"/>
<path d="M293.988 158.309C310.154 158.309 323.259 145.204 323.259 129.038C323.259 112.872 310.154 99.7667 293.988 99.7667C277.822 99.7667 264.717 112.872 264.717 129.038C264.717 145.204 277.822 158.309 293.988 158.309Z" fill="#FF8533"/>
<path d="M321.461 129.038C321.377 140.428 314.21 150.973 303.411 154.858C292.612 158.743 280.112 155.365 272.704 146.424C265.296 137.484 264.56 124.622 270.472 114.837C276.384 105.051 288.1 99.839 299.309 102.083C312.098 104.641 321.364 116.043 321.461 129.038C321.473 131.342 325.069 131.354 325.057 129.038C324.96 116.043 316.78 104.315 304.557 99.827C292.359 95.3507 278.073 99.3082 269.929 109.419C261.809 119.506 260.651 133.912 267.383 145.061C274.116 156.209 287.472 162.037 300.274 159.467C314.608 156.583 324.96 143.553 325.057 129.05C325.069 126.733 321.485 126.733 321.461 129.05V129.038Z" fill="black"/>
<path d="M293.988 138.859C299.412 138.859 303.809 134.462 303.809 129.038C303.809 123.614 299.412 119.216 293.988 119.216C288.564 119.216 284.167 123.614 284.167 129.038C284.167 134.462 288.564 138.859 293.988 138.859Z" fill="#EA5F00"/>
<path d="M269.988 179.309C286.154 179.309 299.259 166.204 299.259 150.038C299.259 133.872 286.154 120.767 269.988 120.767C253.822 120.767 240.717 133.872 240.717 150.038C240.717 166.204 253.822 179.309 269.988 179.309Z" fill="#FF8533"/>
<path d="M297.461 150.038C297.377 161.428 290.21 171.973 279.411 175.858C268.612 179.743 256.112 176.365 248.704 167.424C241.296 158.484 240.56 145.622 246.472 135.837C252.384 126.051 264.1 120.839 275.309 123.083C288.098 125.641 297.364 137.043 297.461 150.038C297.473 152.342 301.069 152.354 301.057 150.038C300.96 137.043 292.78 125.315 280.557 120.827C268.359 116.351 254.073 120.308 245.929 130.419C237.809 140.506 236.651 154.912 243.383 166.061C250.116 177.209 263.472 183.037 276.274 180.467C290.608 177.583 300.96 164.553 301.057 150.05C301.069 147.733 297.485 147.733 297.461 150.05V150.038Z" fill="black"/>
<path d="M269.988 159.859C275.412 159.859 279.809 155.462 279.809 150.038C279.809 144.614 275.412 140.216 269.988 140.216C264.564 140.216 260.167 144.614 260.167 150.038C260.167 155.462 264.564 159.859 269.988 159.859Z" fill="#EA5F00"/>
</svg>
