<svg width="200" height="200" viewBox="0 0 200 200" fill="none" xmlns="http://www.w3.org/2000/svg">
<path d="M91.6762 62.0432C84.8262 58.3732 68.8662 52.0532 46.6362 62.4032C36.4662 67.1432 25.9262 73.8632 23.8562 84.8932C22.5662 91.7532 24.4262 98.8032 26.8062 105.363C28.7962 110.843 31.1762 116.233 34.4862 121.033C41.3862 131.033 52.0562 138.013 63.4762 142.173C74.8962 146.333 87.0962 147.873 99.2262 148.683C120.246 150.093 143.196 148.773 159.416 135.313C177.356 120.413 181.626 91.5632 168.776 72.1132C165.296 66.8432 160.676 62.2132 155.016 59.4432C147.186 55.6132 138.116 55.5832 129.396 55.6332C110.686 55.7432 93.1262 56.8432 80.5262 70.6832" fill="#E50A0A"/>
<path d="M92.4262 60.7631C83.3462 55.9131 72.9962 54.3531 62.8362 55.8531C55.2362 56.9731 47.9962 59.8231 41.2462 63.4331C35.3562 66.5831 29.6162 70.5831 25.8562 76.2131C21.4762 82.7631 21.2762 90.6831 23.0362 98.1531C24.0062 102.263 25.4562 106.263 27.0662 110.163C28.6762 114.063 30.4262 117.633 32.6862 121.043C41.0762 133.713 54.9262 141.573 69.2862 145.603C77.5162 147.913 86.0362 149.093 94.5462 149.823C102.146 150.473 109.786 150.823 117.416 150.503C131.746 149.903 146.616 146.853 158.296 138.063C168.596 130.313 175.176 118.523 177.056 105.823C178.936 93.1231 176.386 79.9131 168.776 69.5431C164.266 63.4031 158.306 58.5431 150.966 56.2631C143.626 53.9831 135.236 54.0831 127.376 54.1631C113.696 54.3031 99.0062 55.1131 87.2662 62.9331C84.3962 64.8431 81.7862 67.1031 79.4562 69.6331C78.1662 71.0431 80.2662 73.1531 81.5562 71.7331C85.9962 66.9031 91.4662 63.2731 97.6462 61.0531C103.826 58.8331 110.286 57.9131 116.766 57.4931C123.926 57.0231 131.206 56.8931 138.366 57.2531C145.526 57.6131 153.316 59.2131 159.356 63.9331C169.326 71.7131 174.456 84.4931 174.686 96.9131C174.916 109.333 170.916 120.853 162.996 129.763C153.976 139.913 140.736 144.803 127.576 146.643C120.626 147.613 113.566 147.783 106.566 147.563C98.7962 147.323 90.9962 146.723 83.3162 145.543C68.6662 143.293 53.8962 138.473 42.7862 128.273C37.2862 123.223 33.2662 117.073 30.3062 110.243C27.1662 102.983 24.1862 94.7531 25.0662 86.7231C25.7862 80.1831 29.8662 74.8831 34.9362 70.9531C40.3662 66.7331 46.9062 63.5031 53.3862 61.2631C64.2262 57.5031 76.0062 57.0731 86.7462 61.3631C88.1762 61.9331 89.5662 62.6031 90.9262 63.3331C92.6162 64.2331 94.1162 61.6631 92.4262 60.7631Z" fill="black"/>
<path d="M94.7561 54.5532C88.5961 52.0632 74.6461 54.0732 68.3561 56.2132C62.3261 58.2732 55.8961 61.7632 54.2861 67.9232C61.9861 59.2532 71.9461 58.5032 82.6361 62.9932C76.2661 65.9132 76.2661 71.7332 78.6261 78.3332C82.2361 73.2232 86.7061 68.7132 91.7861 65.0532C92.3961 64.6132 93.0461 64.1732 93.7961 64.1332C94.7261 64.0732 95.5661 64.6432 96.3061 65.2132C100.726 68.6532 104.196 73.3032 106.236 78.5232C107.526 71.5432 106.516 64.1532 103.386 57.7732C107.956 59.6632 112.726 61.0632 117.596 61.9432C119.776 62.3332 122.026 62.6432 123.976 63.6932C125.926 64.7432 127.546 66.7632 127.396 68.9732C126.986 62.7832 123.086 56.9432 117.536 54.1832C114.656 52.7532 111.426 52.1232 108.226 51.8732C100.986 51.3232 99.7361 50.9532 93.1661 54.0532" fill="#527F12"/>
<path d="M95.1561 53.1131C92.5861 52.1131 89.6961 51.9231 86.9661 51.9031C83.6361 51.8831 80.3161 52.2131 77.0261 52.7031C70.9761 53.6131 64.7661 55.2331 59.6461 58.7131C56.4761 60.8631 53.8961 63.7631 52.8561 67.5131C52.4661 68.9031 54.3261 70.0831 55.3461 68.9631C58.6361 65.3131 62.7961 62.6531 67.7161 61.9531C72.6361 61.2531 77.6861 62.5231 82.2461 64.4131L81.8861 61.6931C78.9561 63.0831 76.6261 65.4831 75.9561 68.7331C75.2861 71.9831 76.0761 75.5431 77.1961 78.7131C77.6362 79.9731 79.1661 80.1331 79.9161 79.0731C81.7861 76.4531 83.8761 73.9931 86.1661 71.7331C87.3361 70.5831 88.5461 69.4831 89.8061 68.4431C90.8761 67.5531 92.1761 66.2031 93.4961 65.7231C94.7261 65.2731 96.2561 67.0431 97.0961 67.8031C98.1761 68.7931 99.1961 69.8531 100.136 70.9831C102.096 73.3531 103.676 76.0631 104.806 78.9131C105.286 80.1131 107.386 80.5231 107.676 78.9131C109.006 71.4431 107.966 63.8431 104.676 57.0131L102.996 59.2031C107.286 60.9631 111.736 62.3131 116.296 63.2031C119.586 63.8431 126.026 64.3031 125.916 68.9731H128.896C128.236 60.5731 122.356 53.5731 114.256 51.3631C110.376 50.3031 106.016 49.9631 102.006 50.0031C98.5662 50.0431 95.4861 51.3131 92.4161 52.7531C90.6861 53.5631 92.1961 56.1331 93.9161 55.3231C96.5061 54.1131 99.1061 53.0131 102.006 52.9831C105.486 52.9431 109.226 53.2131 112.606 54.0131C119.746 55.6931 125.326 61.5131 125.916 68.9731C126.066 70.8631 128.846 70.9131 128.896 68.9731C129.026 63.6831 123.666 61.5131 119.316 60.7331C113.986 59.7731 108.816 58.3931 103.796 56.3331C102.476 55.7931 101.616 57.4931 102.116 58.5231C105.036 64.5831 105.996 71.5031 104.816 78.1331H107.686C106.356 74.7731 104.556 71.6831 102.246 68.8931C101.096 67.5031 99.8261 66.2131 98.4561 65.0531C97.0861 63.8931 95.6461 62.6031 93.8161 62.6531C92.1061 62.7031 90.6661 64.0431 89.3861 65.0331C87.8061 66.2531 86.2861 67.5431 84.8461 68.9131C82.0661 71.5531 79.5861 74.4731 77.3661 77.5931L80.0861 77.9531C79.1861 75.4031 78.3561 72.5731 78.7961 69.8431C79.2361 67.1131 81.0361 65.4331 83.4161 64.3031C84.7161 63.6831 84.1061 62.0131 83.0561 61.5831C77.9661 59.4731 72.4661 58.2931 66.9661 59.1131C61.4661 59.9331 56.8661 62.8831 53.2561 66.8931L55.7461 68.3431C57.4061 62.3831 63.7861 59.2831 69.2261 57.5231C74.6661 55.7631 80.3762 55.0031 85.9762 54.9231C88.7862 54.8831 91.7261 54.9831 94.3861 56.0131C96.1761 56.7131 96.9461 53.8331 95.1761 53.1431L95.1561 53.1131Z" fill="black"/>
</svg>
