<svg width="108" height="108" viewBox="0 0 108 108" fill="none" xmlns="http://www.w3.org/2000/svg">
<g clip-path="url(#clip0_438_20040)">
<rect width="108" height="108" fill="#28B8A0"/>
<path d="M45.88 34.4927C43.59 37.1927 40.74 40.0077 36.655 41.9677C34.585 42.9627 26.33 43.2927 22.71 58.1027C22.25 59.9777 23.345 61.8827 25.205 62.4077L87.315 80.7927C89.075 81.2877 90.93 80.3727 91.595 78.6677C93.64 73.4227 95.4 69.3027 89.39 57.0027C86.41 50.9027 85.715 51.1477 84.39 45.4077C83.065 39.6677 81.175 29.1527 71.94 26.1077C61.555 22.6827 51.665 27.6827 45.88 34.5027V34.4927Z" fill="#6B57FF"/>
<path d="M79.285 53.8927C78.305 60.4028 59.58 68.7628 52.515 65.9078C44.835 62.8028 41.695 44.6878 45.91 40.4078C52.88 33.3228 60.125 26.7378 69.34 30.4628C78.555 34.1878 80.765 44.0627 79.285 53.8927Z" fill="#EAC59F"/>
<path d="M80.2699 64.2064C83.2922 62.9235 84.8624 59.8106 83.777 57.2534C82.6915 54.6963 79.3615 53.6632 76.3392 54.9461C73.3168 56.229 71.7467 59.3421 72.8321 61.8992C73.9176 64.4564 77.2476 65.4893 80.2699 64.2064Z" fill="#EAC59F"/>
<path d="M51.7462 45.1173C51.8843 41.8369 49.7462 39.0829 46.9707 38.9661C44.1951 38.8492 41.8332 41.4139 41.6951 44.6943C41.557 47.9747 43.6951 50.7287 46.4707 50.8455C49.2462 50.9624 51.6081 48.3977 51.7462 45.1173Z" fill="#EAC59F"/>
<path d="M55.965 43.6977L54.875 46.1577C54.6 46.7827 53.87 47.0627 53.25 46.7877C52.625 46.5127 52.345 45.7827 52.62 45.1627L53.71 42.7027C53.985 42.0777 54.715 41.7977 55.335 42.0727C55.96 42.3477 56.24 43.0777 55.965 43.6977Z" fill="black"/>
<path d="M65.125 47.5827L64.035 50.0426C63.76 50.6676 63.03 50.9477 62.41 50.6727C61.785 50.3977 61.505 49.6677 61.78 49.0477L62.87 46.5877C63.145 45.9627 63.875 45.6827 64.495 45.9577C65.12 46.2327 65.4 46.9627 65.125 47.5827Z" fill="black"/>
<path d="M49.145 33.1677C49.145 33.1677 66.38 34.0528 81.66 48.2828C81.66 48.2828 81.82 31.2678 74.31 29.3678C66.795 27.4678 61.47 27.4528 57.615 28.5228C53.755 29.5978 49.15 33.1677 49.15 33.1677H49.145Z" fill="#6B57FF"/>
<path d="M80.6 56.5227L80.885 51.0027H77.24L75.53 54.2027L80.6 56.5227Z" fill="#EAC59F"/>
<path d="M77.2401 42.4429C77.2401 42.4429 77.905 46.1179 77.68 49.5029C77.55 51.5229 78.6 54.1129 80.695 54.6329L82.65 48.2829L77.2401 42.4429Z" fill="#6B57FF"/>
<path d="M57.055 34.9628C57.055 34.9628 60 29.5128 64.49 27.8228C64.49 27.8228 58.75 32.9777 59.63 36.8027L57.055 34.9628Z" fill="#EAC59F"/>
<path d="M46.565 38.9629C46.565 38.9629 52.145 36.1629 55.19 31.6929L48.46 32.1729L46.565 38.9629Z" fill="#6B57FF"/>
<path d="M122.17 155.648L96.69 95.6577C94.305 90.0377 89.29 85.9627 83.305 84.7677L58.645 79.8577H47.935L23.265 84.7627C17.275 85.9527 12.26 90.0327 9.87503 95.6527L-15.59 155.643L12.94 167.753L25.5 138.163L31.145 162.808H75.425L81.075 138.163L93.635 167.753L122.165 155.643L122.17 155.648Z" fill="#F3C033"/>
<path d="M45.635 75.2227H60.945C62.54 75.2227 63.835 76.5176 63.835 78.1126V88.4926H42.74V78.1126C42.74 76.5176 44.035 75.2227 45.63 75.2227H45.635Z" fill="#F3C033"/>
</g>
<defs>
<clipPath id="clip0_438_20040">
<rect width="108" height="108" fill="white"/>
</clipPath>
</defs>
</svg>
