<svg width="108" height="108" viewBox="0 0 108 108" fill="none" xmlns="http://www.w3.org/2000/svg">
<g clip-path="url(#clip0_438_20035)">
<rect width="108" height="108" fill="#F4F4F4"/>
<path d="M42.135 51.5999C42.135 51.5999 40.16 50.8799 38.435 54.7449L35.235 61.8099L47.605 65.1249L42.14 51.5949L42.135 51.5999Z" fill="#010407"/>
<path d="M70.24 51.5999C70.24 51.5999 72.215 50.8799 73.94 54.7449L77.14 61.8099L64.77 65.1249L70.235 51.5949L70.24 51.5999Z" fill="#010407"/>
<path d="M74.205 43.375C74.205 53.315 66.145 72.75 56.205 72.75C46.265 72.75 38.205 53.315 38.205 43.375C38.205 33.435 46.265 22.875 56.205 22.875C66.145 22.875 74.205 33.435 74.205 43.375Z" fill="#EAC59F"/>
<path d="M59.16 41.59V44.28C59.16 44.96 59.715 45.51 60.395 45.51C61.075 45.51 61.63 44.955 61.63 44.275V41.585C61.63 40.905 61.075 40.355 60.395 40.355C59.715 40.355 59.16 40.91 59.16 41.59Z" fill="black"/>
<path d="M50.785 41.59V44.28C50.785 44.96 51.34 45.51 52.02 45.51C52.7 45.51 53.255 44.955 53.255 44.275V41.585C53.255 40.905 52.7 40.355 52.02 40.355C51.34 40.355 50.785 40.91 50.785 41.59Z" fill="black"/>
<path d="M41.545 37.7749H38.535" stroke="black" stroke-width="0.5" stroke-miterlimit="10"/>
<path d="M41.545 37.7751C41.545 37.7751 41.525 36.9951 42.515 35.9751C42.9 35.5801 44.045 35.2901 44.49 34.7851C46.71 32.2801 49.435 28.5751 49.8 25.1551C50.165 21.7351 41.21 30.4101 39.09 33.0701C37.655 34.8701 37.82 37.6051 37.82 37.6051L41.545 37.7751Z" fill="#010407"/>
<path d="M70.67 37.7751C70.67 37.7751 70.69 36.9951 69.7 35.9751C69.315 35.5801 68.17 35.2901 67.725 34.7851C65.505 32.2801 62.78 28.5751 62.415 25.1551C62.05 21.7351 71.005 30.4101 73.125 33.0701C74.56 34.8701 74.395 37.6051 74.395 37.6051L70.67 37.7751Z" fill="#010407"/>
<path d="M74.895 37.7749H70.76" stroke="black" stroke-width="0.5" stroke-miterlimit="10"/>
<path d="M82.2039 46.4062C83.0123 42.0822 80.532 37.9906 76.664 37.2675C72.796 36.5443 69.005 39.4633 68.1966 43.7874C67.3882 48.1114 69.8684 52.203 73.7364 52.9261C77.6044 53.6493 81.3954 50.7303 82.2039 46.4062Z" fill="#EAC59F"/>
<path d="M38.6741 52.9313C42.5421 52.2081 45.0223 48.1165 44.2139 43.7925C43.4055 39.4685 39.6144 36.5494 35.7464 37.2726C31.8784 37.9958 29.3982 42.0873 30.2066 46.4114C31.015 50.7354 34.806 53.6544 38.6741 52.9313Z" fill="#EAC59F"/>
<path d="M52.01 34.3199H47.37C45.16 34.3199 41.85 35.2049 41.185 39.0699C40.52 42.9349 43.17 49.8899 47.255 49.8899H50.13C52.96 49.8899 56.205 49.2249 56.205 46.1349V37.7399C56.205 36.0099 55.1 34.3149 52.01 34.3149V34.3199Z" stroke="black" stroke-width="0.5" stroke-miterlimit="10"/>
<path d="M60.4 34.3199H65.04C67.25 34.3199 70.56 35.2049 71.225 39.0699C71.89 42.9349 69.24 49.8899 65.155 49.8899H62.28C59.45 49.8899 56.205 49.2249 56.205 46.1349V37.7399C56.205 36.0099 57.31 34.3149 60.4 34.3149V34.3199Z" stroke="black" stroke-width="0.5" stroke-miterlimit="10"/>
<path d="M62.735 53.4451C62.645 53.3301 59.795 50.5451 59.795 50.5451C58.83 49.5951 57.535 49.0601 56.18 49.0601C54.825 49.0601 53.505 49.6001 52.54 50.5651L49.975 53.1301H49.965C49.88 53.2051 49.805 53.2851 49.735 53.3701C49.39 53.7751 49.175 54.3001 49.175 54.8751C49.175 56.1701 50.225 57.2201 51.52 57.2201C52.815 57.2201 53.845 56.1851 53.865 54.9051C53.88 56.1701 54.89 57.1901 56.15 57.2201C56.17 57.2201 56.19 57.2251 56.21 57.2251C56.23 57.2251 56.25 57.2201 56.27 57.2201C57.515 57.1901 58.515 56.1901 58.55 54.9451C58.585 56.1901 59.585 57.1901 60.83 57.2201C60.85 57.2201 60.87 57.2251 60.89 57.2251C60.91 57.2251 60.93 57.2201 60.95 57.2201C62.22 57.1901 63.24 56.1551 63.24 54.8801C63.24 54.3351 63.05 53.8401 62.735 53.4451Z" fill="#010407"/>
<path d="M71.96 27.255C71.96 27.255 60.145 22.875 56.205 22.875C52.265 22.875 40.45 27.255 40.45 27.255C40.45 18.555 47.505 11.5 56.205 11.5C64.905 11.5 71.96 18.555 71.96 27.255Z" fill="url(#paint0_linear_438_20035)"/>
<path d="M38.535 33.0701C38.535 33.0701 46.155 21.4351 56.37 21.4351C65.48 21.4351 74.205 33.0701 74.205 33.0701" stroke="#6BD48E" stroke-width="4.5" stroke-miterlimit="10" stroke-linecap="round"/>
<path d="M74.095 45.5099C74.095 45.5099 74.81 42.0099 77.14 42.1049" stroke="black" stroke-width="0.5" stroke-linecap="round" stroke-linejoin="round"/>
<path d="M38.335 45.5099C38.335 45.5099 37.62 42.0099 35.29 42.1049" stroke="black" stroke-width="0.5" stroke-linecap="round" stroke-linejoin="round"/>
<path d="M120.875 117.14C107.565 96.23 93.785 89.535 93.785 89.535C87.825 86.32 81.155 84.635 74.385 84.635H33.16C26.385 84.635 19.72 86.32 13.76 89.535C13.76 89.535 -0.0249939 96.23 -13.33 117.14L-35.43 153.33L-5.98499 165.665L18.365 157.315H89.185L97.505 160.17V170.88L142.98 153.33L120.88 117.14H120.875Z" fill="white" stroke="black" stroke-width="0.5" stroke-linecap="round" stroke-linejoin="round"/>
</g>
<defs>
<linearGradient id="paint0_linear_438_20035" x1="56.205" y1="8.48" x2="56.205" y2="27.345" gradientUnits="userSpaceOnUse">
<stop stop-color="#6BD48E"/>
<stop offset="1" stop-color="#3CA05A"/>
</linearGradient>
<clipPath id="clip0_438_20035">
<rect width="108" height="108" fill="white"/>
</clipPath>
</defs>
</svg>
