<svg width="108" height="108" viewBox="0 0 108 108" fill="none" xmlns="http://www.w3.org/2000/svg">
<g clip-path="url(#clip0_438_16114)">
<rect width="108" height="108" fill="#FF318C"/>
<rect x="35.75" y="27" width="36" height="14" fill="#EAC59F"/>
<path d="M119.966 114.545L125.201 176.77L141.746 214.695L93.7959 228.4L88.4359 195.71L92.6159 79.4951L96.5609 81.2951C109.796 87.3351 118.741 100.045 119.961 114.545H119.966Z" fill="#28B8A0"/>
<path d="M72.1259 41.29C72.1259 51.23 69.4409 64.29 54.1259 64.29C38.8109 64.29 36.1259 51.23 36.1259 41.29C36.1259 31.35 44.1859 23.29 54.1259 23.29C64.0659 23.29 72.1259 31.35 72.1259 41.29Z" fill="#EAC59F"/>
<path d="M58.0809 42.9401V45.6301C58.0809 46.3101 58.6359 46.8601 59.3159 46.8601C59.9959 46.8601 60.5509 46.3051 60.5509 45.6251V42.9351C60.5509 42.2551 59.9959 41.7051 59.3159 41.7051C58.6359 41.7051 58.0809 42.2601 58.0809 42.9401Z" fill="black"/>
<path d="M47.7059 42.9401V45.6301C47.7059 46.3101 48.2609 46.8601 48.9409 46.8601C49.6209 46.8601 50.1759 46.3051 50.1759 45.6251V42.9351C50.1759 42.2551 49.6209 41.7051 48.9409 41.7051C48.2609 41.7051 47.7059 42.2601 47.7059 42.9401Z" fill="black"/>
<path d="M45.3609 25.775C48.1209 25.34 49.9659 27.965 52.8009 27.715C57.8859 27.265 56.6609 29.53 59.7459 30.65C62.3209 31.585 64.3309 29.9051 67.4259 30.0001C71.1409 30.1151 72.1259 37.615 71.4959 39.94L76.2359 40.5501C76.2359 40.5501 78.2809 39.1601 78.7909 37.1851C80.0859 32.1901 73.6909 33.955 75.3809 29.46C76.3509 26.87 76.1409 23.87 74.0609 22.215C69.3709 18.49 67.7309 21.6801 65.1609 16.5401C62.5909 11.4001 60.3459 11.0101 57.2509 11.0001C51.5459 10.9851 51.7759 13.26 49.2759 13.78C47.1109 14.23 46.0859 11.405 40.3759 14.08C37.9309 15.225 37.8459 16.83 37.2559 20.285C36.3659 25.49 31.3259 24.6251 31.2609 27.7351C31.2159 30.0401 32.9909 29.85 32.4409 31.94C31.9309 33.88 28.0359 34.915 30.6659 39.315C31.0809 40.015 33.0509 38.745 33.8409 39.315C33.8409 39.315 32.5409 39.045 36.0159 39.315C36.0159 39.315 36.0559 31.1501 40.0209 29.9951C43.0909 29.1001 42.1859 26.27 45.3559 25.77L45.3609 25.775Z" fill="#19191C" stroke="black" stroke-width="0.5" stroke-linecap="round" stroke-linejoin="round"/>
<path d="M36.6989 52.643C40.4318 51.9949 42.8788 48.1346 42.1646 44.0209C41.4503 39.9072 37.8452 37.0978 34.1124 37.7459C30.3796 38.394 27.9325 42.2543 28.6468 46.368C29.3611 50.4817 32.9661 53.2911 36.6989 52.643Z" fill="#EAC59F"/>
<path d="M79.6614 46.4361C80.3756 42.3224 77.9286 38.4621 74.1958 37.814C70.4629 37.1659 66.8579 39.9753 66.1436 44.089C65.4294 48.2028 67.8764 52.063 71.6092 52.7111C75.342 53.3593 78.9471 50.5498 79.6614 46.4361Z" fill="#EAC59F"/>
<path d="M46.9559 52.84H44.9559C41.5659 52.84 38.8159 50.09 38.8159 46.7V43.475C38.8159 40.085 41.5659 37.335 44.9559 37.335H46.9559C49.0159 37.335 50.8409 38.35 51.9559 39.91C52.6759 40.915 53.0959 42.145 53.0959 43.475V46.7C53.0959 50.09 50.3459 52.84 46.9559 52.84Z" stroke="black" stroke-width="0.5" stroke-miterlimit="10"/>
<path d="M63.3009 52.8401H61.3009C57.9109 52.8401 55.1609 50.0901 55.1609 46.7001V43.4751C55.1609 42.2151 55.5409 41.0451 56.1909 40.0651C57.2909 38.4151 59.1709 37.3301 61.3009 37.3301H63.3009C66.6909 37.3301 69.4409 40.0801 69.4409 43.4701V46.6951C69.4409 50.0851 66.6909 52.8351 63.3009 52.8351V52.8401Z" stroke="black" stroke-width="0.5" stroke-miterlimit="10"/>
<path d="M67.8209 39.3198L69.9909 38.2148" stroke="black" stroke-width="0.5" stroke-linecap="round" stroke-linejoin="round"/>
<path d="M40.5059 38.9799L38.1208 38.2148" stroke="black" stroke-width="0.5" stroke-linecap="round" stroke-linejoin="round"/>
<path d="M53.0409 44.78H55.1559" stroke="black" stroke-width="0.5" stroke-miterlimit="10"/>
<path d="M71.4409 43.7899C71.4409 43.7899 71.7609 40.3049 74.9959 40.5499" stroke="black" stroke-width="0.5" stroke-miterlimit="10" stroke-linecap="round"/>
<path d="M36.6159 43.7899C36.6159 43.7899 36.2959 40.3049 33.0609 40.5499" stroke="black" stroke-width="0.5" stroke-miterlimit="10" stroke-linecap="round"/>
<path d="M-11.2191 108.02L-25.4341 165.56C-28.7441 178.95 -28.0641 193.015 -23.4841 206.025L-7.24412 244.235L19.5759 220.405L15.4909 204.54L9.33587 144.96V82.5801C-0.949131 87.5951 -8.47412 96.9151 -11.2191 108.025V108.02Z" fill="#28B8A0"/>
<path d="M61.25 70H45.75L41.25 75.5L53.75 81L66.75 75.5L61.25 70Z" fill="white" stroke="black"/>
<path d="M57.3409 69.8999L53.1709 77.6949L48.9409 69.8999" fill="white"/>
<path d="M57.3409 69.8999L53.1709 77.6949L48.9409 69.8999" stroke="black" stroke-width="0.5" stroke-linecap="round" stroke-linejoin="round"/>
<path d="M73.0059 69.9L67.1109 73.8051C59.2409 79.0151 49.0208 79.0151 41.1508 73.8051L35.2559 69.9L9.34085 82.575L1.13586 108.365L12.5558 220.01H93.5309L100.526 83.1L73.0059 69.895V69.9Z" fill="#28B8A0"/>
<path d="M48.9409 69.8999L38.7709 80.0699L27.9759 73.4599L36.8809 64.5549L48.9409 69.8999Z" fill="white" stroke="black" stroke-width="0.5" stroke-linecap="round" stroke-linejoin="round"/>
<path d="M57.3409 69.8999L67.5059 80.0699L78.3009 73.4599L69.4009 64.5549L57.3409 69.8999Z" fill="white" stroke="black" stroke-width="0.5" stroke-linecap="round" stroke-linejoin="round"/>
</g>
<defs>
<clipPath id="clip0_438_16114">
<rect width="108" height="108" fill="white"/>
</clipPath>
</defs>
</svg>
