<?xml version="1.0" encoding="utf-8"?>
<svg width="346" height="249" viewBox="0 0 346 249" fill="none" xmlns="http://www.w3.org/2000/svg">
  <defs/>
  <path d="M175.605 124.183C177.295 131.773 183.535 136.653 190.935 138.203C196.375 139.333 198.705 130.983 193.235 129.843C188.625 128.883 185.035 126.673 183.965 121.883C182.755 116.443 174.395 118.743 175.605 124.183Z" fill="black"/>
  <path d="M173.345 124.603C173.065 124.653 173.465 124.603 173.535 124.593C173.685 124.593 173.835 124.593 173.975 124.613C174.115 124.633 174.275 124.643 174.425 124.663C174.015 124.613 175.185 124.763 174.875 124.723C175.405 124.793 175.915 124.813 176.445 124.753C177.645 124.613 178.805 124.233 179.785 123.523C181.745 122.113 182.925 119.743 182.695 117.313C182.625 116.533 182.055 115.773 181.195 115.813C180.445 115.843 179.615 116.473 179.695 117.313C179.715 117.553 179.725 117.793 179.725 118.033C179.725 118.143 179.715 118.253 179.705 118.363C179.685 118.653 179.745 118.243 179.705 118.413C179.645 118.643 179.605 118.883 179.535 119.113C179.505 119.213 179.465 119.313 179.425 119.423C179.375 119.583 179.525 119.243 179.395 119.483C179.295 119.673 179.195 119.873 179.075 120.053C179.005 120.163 178.935 120.273 178.855 120.373C178.985 120.203 178.875 120.333 178.805 120.423C178.655 120.583 178.505 120.743 178.345 120.883C178.255 120.963 178.115 121.053 178.295 120.933C178.185 121.013 178.085 121.083 177.975 121.153C177.785 121.273 177.595 121.373 177.405 121.463C177.045 121.643 177.555 121.423 177.345 121.493C177.245 121.523 177.135 121.563 177.035 121.603C176.805 121.673 176.575 121.713 176.335 121.773C176.155 121.813 176.575 121.763 176.285 121.773C176.175 121.773 176.065 121.783 175.955 121.793C175.705 121.793 175.455 121.783 175.195 121.753L175.045 121.733C175.175 121.753 175.175 121.753 175.075 121.733C174.865 121.703 174.665 121.673 174.455 121.653C173.815 121.573 173.215 121.583 172.575 121.703C171.805 121.853 171.295 122.823 171.525 123.553C171.795 124.383 172.545 124.753 173.375 124.603H173.345Z" fill="black"/>
  <path d="M177.365 129.483C173.975 128.983 170.565 128.793 167.135 128.983C163.705 129.173 160.385 129.503 156.985 129.473C153.585 129.443 150.325 129.453 147.075 128.793C143.825 128.133 140.905 126.993 138.105 125.373C136.425 124.403 134.915 126.993 136.595 127.963C139.345 129.553 142.325 130.773 145.425 131.493C148.765 132.273 152.175 132.393 155.595 132.453C162.605 132.573 169.575 131.363 176.565 132.383C178.455 132.663 179.265 129.773 177.365 129.493V129.483Z" fill="#548C1E"/>
  <path d="M173.475 89.5735C173.475 89.5735 140.005 82.2835 128.155 120.393C116.315 158.503 166.685 199.703 197.465 181.503C228.245 163.303 228.125 142.733 216.745 120.333C205.365 97.9335 190.295 92.7735 173.475 89.5735Z" fill="#FC751A"/>
  <path d="M173.865 88.1434C170.455 87.4034 166.785 87.3934 163.325 87.6834C155.515 88.3534 148.065 91.1334 141.915 96.0334C137.915 99.2234 134.615 103.273 132.035 107.683C128.975 112.913 126.595 118.853 125.545 124.833C123.655 135.583 126.235 146.523 131.545 155.953C136.925 165.513 144.975 173.623 154.315 179.343C163.045 184.693 173.475 188.193 183.815 187.293C188.755 186.863 193.565 185.463 197.865 182.993C204.075 179.433 210.065 175.073 214.935 169.793C218.735 165.673 221.835 160.893 223.595 155.553C225.175 150.763 225.575 145.623 224.985 140.623C224.345 135.193 222.705 129.993 220.555 124.973C217.885 118.733 214.535 112.743 210.265 107.443C206.505 102.773 201.925 98.7634 196.725 95.7634C192.025 93.0534 186.875 91.1934 181.635 89.8334C179.065 89.1734 176.465 88.6234 173.855 88.1234C171.985 87.7634 171.185 90.6334 173.065 90.9934C183.335 92.9534 193.515 95.9334 201.635 102.823C206.465 106.923 210.345 111.983 213.495 117.453C216.385 122.483 218.845 127.843 220.475 133.413C221.835 138.063 222.545 142.903 222.155 147.753C221.765 152.603 220.115 157.303 217.565 161.463C214.415 166.593 210.005 170.903 205.225 174.523C200.445 178.143 195.405 181.593 189.665 183.223C180.535 185.813 170.655 184.033 162.155 180.143C152.745 175.843 144.375 169.023 138.195 160.723C132.015 152.423 127.945 142.693 127.865 132.393C127.825 126.813 129.115 121.483 131.145 116.313C133.175 111.143 135.845 106.463 139.465 102.433C144.755 96.5334 151.755 92.6534 159.525 91.1734C162.165 90.6734 164.905 90.4534 167.695 90.5034C168.725 90.5234 169.755 90.5734 170.785 90.6734C171.165 90.7134 171.535 90.7534 171.915 90.8034C171.455 90.7434 172.175 90.8434 172.415 90.8834C172.635 90.9234 172.865 90.9534 173.085 91.0034C174.955 91.4034 175.755 88.5434 173.875 88.1334L173.865 88.1434Z" fill="black"/>
  <path d="M144.755 164.383C137.215 166.323 132.455 172.563 131.145 180.053C130.745 182.353 131.765 184.723 134.175 185.383C136.265 185.953 139.095 184.673 139.505 182.353C140.315 177.763 142.315 173.963 147.065 172.733C152.465 171.343 150.175 162.983 144.765 164.373L144.755 164.383Z" fill="black"/>
  <path d="M144.105 162.123C144.175 162.453 144.135 161.993 144.135 162.313C144.135 162.463 144.135 162.613 144.135 162.753C144.125 163.053 144.085 163.353 144.055 163.653C143.995 164.293 144.015 164.903 144.115 165.533C144.275 166.623 144.735 167.683 145.395 168.553C146.855 170.453 149.245 171.593 151.655 171.283C152.435 171.183 153.195 170.663 153.155 169.783C153.125 169.053 152.485 168.183 151.655 168.283C151.425 168.313 151.195 168.333 150.955 168.333C150.845 168.333 150.745 168.333 150.635 168.333C150.585 168.333 150.165 168.273 150.525 168.333C150.315 168.303 150.105 168.253 149.905 168.203C149.785 168.173 149.665 168.133 149.545 168.093C149.505 168.083 149.185 167.953 149.365 168.033C149.545 168.113 149.235 167.963 149.195 167.953C149.085 167.893 148.975 167.833 148.865 167.773C148.775 167.723 148.685 167.663 148.595 167.603C148.485 167.533 148.385 167.433 148.545 167.573C148.365 167.423 148.195 167.263 148.035 167.093C147.965 167.013 147.895 166.933 147.825 166.853C148.035 167.083 147.785 166.793 147.755 166.753C147.635 166.573 147.525 166.393 147.425 166.203C147.365 166.093 147.315 165.973 147.255 165.863C147.345 166.053 147.285 165.933 147.245 165.803C147.165 165.583 147.105 165.353 147.055 165.133C147.055 165.093 146.985 164.743 147.015 164.953C147.045 165.163 147.005 164.813 147.005 164.773C146.975 164.253 147.035 163.733 147.085 163.213C147.145 162.573 147.125 161.963 146.985 161.343C146.815 160.573 145.885 160.053 145.135 160.293C144.325 160.553 143.905 161.313 144.085 162.143L144.105 162.123Z" fill="black"/>
  <path d="M139.985 113.293C109.745 148.063 138.325 172.953 138.325 172.953C142.155 166.873 169.155 148.303 139.985 113.293Z" fill="#6BA534" stroke="black" stroke-width="2.83" stroke-miterlimit="10"/>
  <path d="M139.415 165.993C139.795 162.643 139.835 159.283 139.525 155.923C139.215 152.563 138.805 149.353 138.735 146.033C138.665 142.713 138.525 139.463 139.065 136.243C139.605 133.023 140.665 129.923 142.205 127.033C143.115 125.333 140.525 123.813 139.615 125.523C138.065 128.423 136.905 131.543 136.295 134.783C135.645 138.203 135.665 141.653 135.725 145.113C135.835 152.123 137.225 158.983 136.425 166.003C136.205 167.923 139.205 167.903 139.425 166.003L139.415 165.993Z" fill="#548C1E"/>
</svg>