<svg width="308" height="383" viewBox="0 0 308 383" fill="none" xmlns="http://www.w3.org/2000/svg">
<g clip-path="url(#clip0_859_499)">
<path d="M219.94 46.53H27.68C24.8247 46.53 22.51 48.8447 22.51 51.7V317.07C22.51 319.925 24.8247 322.24 27.68 322.24H219.94C222.795 322.24 225.11 319.925 225.11 317.07V51.7C225.11 48.8447 222.795 46.53 219.94 46.53Z" fill="#FFFDF3"/>
<path d="M219.94 320.73H98.59C88.33 320.73 78.06 320.73 67.8 320.73H29.59C28.95 320.73 28.31 320.75 27.68 320.73C25.08 320.63 24.01 318.53 24.01 316.27V307.01C24.01 300.97 24.01 294.94 24.01 288.9C24.01 280.57 24.01 272.24 24.01 263.91C24.01 253.9 24.01 243.89 24.01 233.88C24.01 223.87 24.01 211.98 24.01 201.02C24.01 189.7 24.01 178.38 24.01 167.06C24.01 155.74 24.01 145.18 24.01 134.24C24.01 124.29 24.01 114.35 24.01 104.4C24.01 94.45 24.01 87.74 24.01 79.42C24.01 71.1 24.01 67.45 24.01 61.47V52.4C24.01 50.16 25.14 48.12 27.68 48.02C28.37 47.99 29.06 48.02 29.75 48.02C34.46 48.02 39.18 48.02 43.89 48.02C52.02 48.02 60.14 48.02 68.27 48.02C78.6 48.02 88.94 48.02 99.27 48.02H132.89C143.81 48.02 154.72 48.02 165.64 48.02C174.92 48.02 184.21 48.02 193.49 48.02C199.94 48.02 206.39 48.02 212.84 48.02H218.19C219 48.02 219.89 47.93 220.69 48.09C224.35 48.81 223.62 53.29 223.62 56.03C223.62 60.72 223.62 65.41 223.62 70.11C223.62 74.81 223.62 84.78 223.62 92.12C223.62 101.38 223.62 110.65 223.62 119.91C223.62 129.17 223.62 141.03 223.62 151.59V278.04C223.62 285.22 223.62 292.4 223.62 299.58C223.62 306.76 223.62 308.65 223.62 313.19C223.62 316.13 224.24 320.56 219.95 320.72C218.03 320.79 218.02 323.79 219.95 323.72C223.92 323.57 226.6 320.49 226.62 316.62C226.62 315.63 226.62 314.64 226.62 313.66V278.85C226.62 269.61 226.62 260.37 226.62 251.14C226.62 241.91 226.62 229.91 226.62 219.29C226.62 208.02 226.62 196.75 226.62 185.48C226.62 174.21 226.62 162.81 226.62 151.47C226.62 140.79 226.62 130.11 226.62 119.43C226.62 108.75 226.62 100.82 226.62 91.51C226.62 82.2 226.62 76.85 226.62 69.52V55.62C226.62 51.79 227.01 47.6 222.72 45.64C221.31 44.99 219.92 45.03 218.44 45.03H213.34C206.92 45.03 200.5 45.03 194.08 45.03H166.02C155.03 45.03 144.03 45.03 133.04 45.03C121.74 45.03 110.44 45.03 99.15 45.03C88.75 45.03 78.34 45.03 67.94 45.03C59.77 45.03 51.6 45.03 43.43 45.03C38.79 45.03 34.16 45.03 29.52 45.03C28.66 45.03 27.79 44.99 26.93 45.09C23.22 45.52 21.02 48.67 21 52.19C21 55.08 21 57.97 21 60.85V103.61C21 113.65 21 123.68 21 133.72C21 143.76 21 155.76 21 166.78C21 177.8 21 189.61 21 201.02C21 212.43 21 223.18 21 234.26C21 245.34 21 254.33 21 264.36C21 272.75 21 281.13 21 289.52C21 295.54 21 301.56 21 307.57V316.48C21 319.57 22.54 322.36 25.6 323.4C26.79 323.8 28.05 323.73 29.28 323.73H193.47C199.96 323.73 206.44 323.73 212.93 323.73H219.93C221.86 323.73 221.86 320.73 219.93 320.73H219.94Z" fill="black"/>
<path d="M219.94 232.57H27.68C24.8247 232.57 22.51 234.885 22.51 237.74V317.06C22.51 319.915 24.8247 322.23 27.68 322.23H219.94C222.795 322.23 225.11 319.915 225.11 317.06V237.74C225.11 234.885 222.795 232.57 219.94 232.57Z" fill="#B0E2EA"/>
<path d="M219.94 321.38H145.63C132.14 321.38 118.66 321.38 105.17 321.38H67.81C58.47 321.38 49.13 321.38 39.8 321.38C35.8 321.38 31.77 321.5 27.77 321.38C25.28 321.31 23.45 319.5 23.37 317C23.35 316.24 23.37 315.48 23.37 314.72V302.55C23.37 289.67 23.37 276.78 23.37 263.9C23.37 251.02 23.32 246.73 23.37 238.15C23.38 235.6 25.01 233.53 27.68 233.43C27.93 233.43 28.18 233.43 28.42 233.43H33.86C41.69 233.43 49.52 233.43 57.34 233.43C69.01 233.43 80.67 233.43 92.34 233.43H132.54C145.47 233.43 158.41 233.43 171.34 233.43H218.75C219.12 233.43 219.49 233.42 219.86 233.43C222.35 233.5 224.17 235.33 224.24 237.83C224.31 240.33 224.24 242.84 224.24 245.34C224.24 257.32 224.24 269.3 224.24 281.28C224.24 293.26 224.24 302.83 224.24 313.61C224.24 314.62 224.24 315.63 224.24 316.64C224.23 319.19 222.62 321.29 219.93 321.38C218.83 321.42 218.83 323.13 219.93 323.09C223.35 322.98 225.88 320.34 225.95 316.94C225.97 316.1 225.95 315.27 225.95 314.43V301.64C225.95 288.51 225.95 275.38 225.95 262.25C225.95 254.13 226.12 245.98 225.95 237.86C225.87 234 222.87 231.71 219.23 231.71H28.35C24.7 231.71 21.73 234.03 21.65 237.88C21.6 240.54 21.65 243.21 21.65 245.87C21.65 258.21 21.65 270.54 21.65 282.88C21.65 293.43 21.65 303.98 21.65 314.52C21.65 315.33 21.63 316.14 21.65 316.95C21.73 320.34 24.26 322.98 27.67 323.08C28.62 323.11 29.57 323.08 30.51 323.08H219.93C221.03 323.08 221.03 321.37 219.93 321.37L219.94 321.38Z" fill="black"/>
<path d="M21.73 232.37H224.33" stroke="black" stroke-width="2.83" stroke-miterlimit="10"/>
<path d="M46.84 253.65H46.83C45.2063 253.65 43.89 254.966 43.89 256.59V277.49C43.89 279.114 45.2063 280.43 46.83 280.43H46.84C48.4637 280.43 49.78 279.114 49.78 277.49V256.59C49.78 254.966 48.4637 253.65 46.84 253.65Z" fill="black"/>
<path d="M60.18 322H44.67C43.0463 322 41.73 323.316 41.73 324.94V335.9C41.73 337.524 43.0463 338.84 44.67 338.84H60.18C61.8037 338.84 63.12 337.524 63.12 335.9V324.94C63.12 323.316 61.8037 322 60.18 322Z" fill="black"/>
<path d="M201.39 322H185.88C184.256 322 182.94 323.316 182.94 324.94V335.9C182.94 337.524 184.256 338.84 185.88 338.84H201.39C203.014 338.84 204.33 337.524 204.33 335.9V324.94C204.33 323.316 203.014 322 201.39 322Z" fill="black"/>
<path d="M224.1 45.07H231.39L280.29 77.78C280.29 77.78 286.26 81.77 286.26 90.64V263.12C286.26 263.12 285.35 267.73 277.14 267.84" fill="black"/>
<path d="M273.58 265.2L224.11 232.37V46.53L279.25 85.41C279.92 86.13 280.3 87.08 280.3 88.06V262.55C280.3 266.07 275.99 267.77 273.59 265.2H273.58Z" fill="#FFFDF3"/>
<path d="M274.34 263.91C268.75 260.2 263.17 256.5 257.58 252.79C248.72 246.91 239.85 241.03 230.99 235.14C228.95 233.79 226.91 232.43 224.87 231.08L225.61 232.38V54.08C225.61 51.7 225.83 49.21 225.61 46.84C225.61 46.74 225.61 46.63 225.61 46.53L223.35 47.83C228.73 51.62 234.11 55.42 239.49 59.21C248.83 65.8 258.17 72.38 267.51 78.97L276.72 85.46C277.22 85.82 278.05 86.19 278.44 86.67C278.71 87 278.79 87.77 278.79 88.35C278.83 92.33 278.79 96.31 278.79 100.3V252.21C278.79 255.63 278.92 259.08 278.79 262.5C278.7 264.71 276.21 265.7 274.64 264.14C273.27 262.78 271.15 264.9 272.52 266.26C275.29 269.01 280.11 268.13 281.48 264.37C281.75 263.63 281.79 262.87 281.79 262.1C281.79 260.64 281.79 259.18 281.79 257.73C281.79 250.88 281.79 244.03 281.79 237.19C281.79 230.35 281.79 216.37 281.79 205.97C281.79 193.92 281.79 181.87 281.79 169.82C281.79 157.77 281.79 146.22 281.79 134.42V105.83C281.79 100.46 281.79 95.09 281.79 89.72C281.79 87.68 281.81 85.55 280 84.12C278.42 82.87 276.68 81.78 275.03 80.62C266.17 74.38 257.32 68.13 248.46 61.89C241 56.63 233.55 51.37 226.09 46.12C225.68 45.83 225.27 45.54 224.86 45.25C223.91 44.58 222.6 45.48 222.6 46.55V231.87C222.6 232.25 222.58 232.61 222.73 232.97C223.01 233.65 223.98 234.11 224.57 234.5C232.37 239.68 240.18 244.86 247.98 250.03C255.78 255.2 263.65 260.43 271.49 265.63C271.93 265.92 272.38 266.22 272.82 266.51C274.43 267.58 275.94 264.98 274.33 263.92L274.34 263.91Z" fill="black"/>
<path d="M25.48 50.78C31.84 53.98 38.21 57.18 44.57 60.37C47.61 61.9 50.66 63.43 53.7 64.96C54.5 65.36 55.12 65.44 55.99 65.44H189.25C190.17 65.44 191.14 65.52 192.06 65.44C192.59 65.39 192.99 65.19 193.45 64.96L196.93 63.21C204.58 59.37 212.22 55.53 219.87 51.68C220.45 51.39 221.04 51.09 221.62 50.8C223.33 49.94 221.83 47.37 220.12 48.23C213.76 51.43 207.4 54.62 201.04 57.82L191.96 62.38C191.84 62.44 191.48 62.54 191.41 62.66C191.96 61.84 192.43 62.54 192.03 62.46C191.72 62.4 191.33 62.46 191.02 62.46H57.93C57.08 62.46 55.93 62.25 55.1 62.46C54.72 62.55 55.52 62.4 55.74 62.65C55.61 62.5 55.24 62.4 55.06 62.31L51.51 60.53C43.91 56.71 36.32 52.9 28.72 49.08L26.98 48.21C25.27 47.35 23.76 49.92 25.48 50.78Z" fill="#BFD3D6"/>
<path d="M23.83 120.31L53.21 111.33H193.2L222.52 120.29L23.83 120.31Z" fill="#BFD3D6"/>
<path d="M23.83 182.43L53.21 172.48H193.2L222.52 182.41L23.83 182.43Z" fill="#BFD3D6"/>
<path d="M52.62 63.96V208.98C52.62 215.63 52.41 222.32 52.62 228.96C52.62 229.05 52.62 229.15 52.62 229.25C52.62 231.22 55.68 231.22 55.68 229.25V125.57C55.68 111.79 55.68 98.01 55.68 84.23C55.68 77.58 55.89 70.89 55.68 64.25C55.68 64.16 55.68 64.06 55.68 63.96C55.68 61.99 52.62 61.99 52.62 63.96Z" fill="#BFD3D6"/>
<path d="M190.51 63.96V208.98C190.51 215.63 190.3 222.32 190.51 228.96C190.51 229.05 190.51 229.15 190.51 229.25C190.51 231.22 193.57 231.22 193.57 229.25C193.57 223.75 193.57 218.26 193.57 212.76C193.57 199.56 193.57 186.37 193.57 173.17V125.57C193.57 111.79 193.57 98.01 193.57 84.23C193.57 70.45 193.78 70.89 193.57 64.25C193.57 64.16 193.57 64.06 193.57 63.96C193.57 61.99 190.51 61.99 190.51 63.96Z" fill="#BFD3D6"/>
</g>
<defs>
<clipPath id="clip0_859_499">
<rect width="265.26" height="293.84" fill="white" transform="translate(21 45)"/>
</clipPath>
</defs>
</svg>
