<svg width="843" height="598" viewBox="0 0 843 598" fill="none" xmlns="http://www.w3.org/2000/svg">
<path d="M264.022 308.976C264.24 298.453 264.334 287.929 264.365 277.406C264.381 272.456 264.381 267.491 264.365 262.542C264.35 257.592 264.1 252.455 264.318 247.428C264.412 245.429 264.506 244.446 264.787 242.931C265.099 241.198 265.552 239.496 266.129 237.841C266.239 237.56 266.348 237.279 266.442 236.998C266.941 235.639 265.989 237.825 266.645 236.561C266.972 235.92 267.285 235.28 267.644 234.656C268.003 234.031 268.362 233.454 268.768 232.891C268.924 232.673 269.08 232.439 269.252 232.22C268.596 233.11 269.33 232.142 269.501 231.955C270.391 230.924 271.359 230.034 272.374 229.129C273.389 228.223 271.546 229.66 272.639 228.926C272.858 228.77 273.076 228.613 273.295 228.457C273.966 228.004 274.669 227.583 275.371 227.192C275.98 226.865 276.604 226.568 277.213 226.271C278.447 225.662 276.261 226.599 277.572 226.115C277.838 226.022 278.103 225.912 278.368 225.819C279.867 225.272 281.413 224.835 282.974 224.491C283.708 224.335 284.457 224.179 285.191 224.054C285.487 224.007 285.799 223.96 286.096 223.914C284.972 224.085 286.517 223.867 286.627 223.851C288.391 223.664 290.171 223.555 291.95 223.539C293.73 223.523 295.416 223.555 297.149 223.711C297.476 223.742 297.804 223.773 298.132 223.804C299.709 223.929 297.195 223.617 298.725 223.882C299.553 224.023 300.396 224.164 301.208 224.351C302.597 224.663 303.986 225.054 305.329 225.538C305.672 225.662 307.233 226.349 306.188 225.85C306.89 226.178 307.577 226.506 308.264 226.865C309.341 227.458 310.324 228.145 311.355 228.816C312.385 229.488 310.574 228.098 311.464 228.894C311.636 229.051 311.823 229.191 311.995 229.347C312.51 229.8 313.009 230.253 313.493 230.737C313.884 231.127 314.259 231.533 314.633 231.955C314.836 232.189 315.976 233.672 315.101 232.47C315.788 233.407 316.46 234.375 317.053 235.39C317.568 236.28 318.052 237.201 318.489 238.138C318.567 238.325 318.645 238.512 318.739 238.684C319.207 239.668 318.333 237.591 318.708 238.606C318.895 239.121 319.098 239.621 319.285 240.136C320.003 242.182 320.55 244.289 320.924 246.428C321.002 246.881 321.08 247.334 321.159 247.803C321.393 249.255 321.065 246.803 321.19 248.021C321.268 248.88 321.362 249.739 321.424 250.597C321.533 252.299 321.596 254.048 321.44 255.75C321.205 258.435 323.89 260.731 326.419 260.731C329.308 260.731 331.165 258.435 331.4 255.75C331.852 250.41 331.025 244.664 329.542 239.558C326.388 228.629 318.973 219.948 308.201 215.998C301.426 213.515 293.777 213.14 286.658 213.905C279.539 214.671 273.061 216.404 267.472 220.463C261.883 224.523 257.746 230.565 255.873 237.451C253.344 246.71 254.437 256.78 254.452 266.258C254.484 280.513 254.406 294.768 254.109 309.023C253.968 315.44 263.928 315.44 264.069 309.023L264.022 308.976Z" fill="#E3E5E5"/>
<path d="M435.229 516.512H226.868C220.139 516.512 214.675 511.047 214.675 504.318V319.187C214.675 312.458 220.139 306.993 226.868 306.993H435.229C441.958 306.993 447.421 312.458 447.421 319.187V504.318C447.421 511.047 441.958 516.512 435.229 516.512Z" fill="#CCA789"/>
<path d="M435.229 514.185H415.091C398.902 514.185 382.698 514.185 366.509 514.185H307.249C289.905 514.185 272.561 514.185 255.233 514.185C246.1 514.185 236.984 514.185 227.851 514.185C221.903 514.185 217.064 510.266 217.017 504.037C216.986 500.461 217.017 496.886 217.017 493.326V365.388C217.017 350.055 216.798 334.692 217.017 319.359C217.095 313.832 221.31 309.429 226.883 309.335C227.367 309.335 227.835 309.335 228.319 309.335H430.811C433.465 309.335 436.478 309.039 438.976 310.054C442.832 311.631 445.08 315.362 445.111 319.437C445.111 320.343 445.111 321.264 445.111 322.17C445.111 333.786 445.111 345.418 445.111 357.035C445.111 368.651 445.111 394.82 445.111 413.712V469.656C445.111 480.569 445.111 491.483 445.111 502.382C445.111 503.006 445.111 503.646 445.111 504.286C445.017 509.782 440.74 514.076 435.245 514.201C432.263 514.264 432.247 518.916 435.245 518.854C442.301 518.698 448.498 513.655 449.56 506.566C449.747 505.379 449.747 504.224 449.747 503.037V491.717C449.747 476.088 449.747 460.459 449.747 444.83V384.811C449.747 368.355 449.747 351.914 449.747 335.457V322.014C449.747 321.139 449.747 320.249 449.747 319.375C449.685 314.597 447.562 310.241 443.69 307.415C440.053 304.745 436.01 304.682 431.795 304.682H228.179C227.383 304.682 226.587 304.667 225.806 304.729C218.687 305.323 213.021 310.99 212.427 318.11C212.271 320.046 212.38 322.014 212.38 323.95V336.222C212.38 348.026 212.38 359.83 212.38 371.649C212.38 383.469 212.38 398.567 212.38 412.01V470.858C212.38 481.943 212.224 493.029 212.38 504.115C212.505 512.515 219.062 518.807 227.398 518.838C230.271 518.838 233.128 518.838 236 518.838C249.831 518.838 263.647 518.838 277.479 518.838C296.961 518.838 316.46 518.838 335.942 518.838C355.425 518.838 373.94 518.838 392.938 518.838H435.245C438.242 518.838 438.242 514.185 435.245 514.185H435.229Z" fill="black"/>
<path d="M253.875 353.131H253.859C251.324 353.131 249.27 355.187 249.27 357.722V390.354C249.27 392.889 251.324 394.945 253.859 394.945H253.875C256.41 394.945 258.464 392.889 258.464 390.354V357.722C258.464 355.187 256.41 353.131 253.875 353.131Z" fill="black"/>
<path d="M253.859 392.618C251.377 392.618 251.58 390.058 251.58 388.34V360.704C251.58 359.299 251.174 356.988 252.407 355.989C253.953 354.709 255.982 355.895 256.138 357.753C256.169 358.191 256.138 358.659 256.138 359.096V387.372C256.138 389.324 256.669 392.462 253.859 392.634C250.893 392.806 250.862 397.459 253.859 397.287C258.339 397.021 260.775 393.633 260.775 389.402V359.112C260.775 355.489 259.417 352.039 255.53 351.039C250.846 349.837 247.006 353.678 246.943 358.19C246.85 364.826 246.943 371.478 246.943 378.113V388.934C246.943 389.808 246.912 390.667 247.053 391.525C247.599 394.804 250.534 397.287 253.859 397.287C256.856 397.287 256.856 392.634 253.859 392.634V392.618Z" fill="black"/>
<path d="M617.036 516.512H427.72V306.994H617.036C623.765 306.994 629.228 312.458 629.228 319.188V504.318C629.228 511.047 623.765 516.512 617.036 516.512Z" fill="#E3E5E5"/>
<path d="M617.036 514.186H435.432C433.044 514.186 430.421 513.873 428.048 514.186C427.939 514.186 427.829 514.186 427.72 514.186L430.046 516.512V306.994L427.72 309.32H447.765C463.579 309.32 479.409 309.32 495.223 309.32C514.018 309.32 532.799 309.32 551.594 309.32H612.4C614.71 309.32 617.348 309.054 619.581 309.648C623.999 310.834 626.84 314.816 626.902 319.313C626.902 320.062 626.902 320.796 626.902 321.545V377.942C626.902 396.678 626.902 415.43 626.902 434.166C626.902 452.902 626.902 466.627 626.902 482.865C626.902 490 627.027 497.151 626.902 504.287C626.809 509.767 622.516 514.061 617.036 514.186C614.054 514.248 614.039 518.901 617.036 518.839C623.749 518.698 629.884 514.061 631.227 507.331C631.492 505.957 631.555 504.615 631.555 503.241V493.248C631.555 478.868 631.555 464.488 631.555 450.107C631.555 435.727 631.555 412.151 631.555 393.165V342.78C631.555 334.957 631.679 327.135 631.555 319.313C631.414 310.975 624.81 304.729 616.552 304.698C613.711 304.698 610.87 304.698 608.029 304.698H567.143C548.332 304.698 529.52 304.698 510.693 304.698C493.193 304.698 475.678 304.698 458.177 304.698H427.72C426.471 304.698 425.394 305.76 425.394 307.025V482.334C425.394 493.56 425.082 504.833 425.394 516.044C425.394 516.2 425.394 516.372 425.394 516.528C425.394 517.777 426.456 518.854 427.72 518.854H593.76C601.394 518.854 609.09 519.151 616.724 518.854C616.833 518.854 616.943 518.854 617.052 518.854C620.049 518.854 620.049 514.201 617.052 514.201L617.036 514.186Z" fill="black"/>
<path d="M598.35 239.465C592.386 239.465 586.423 239.465 580.459 239.465L582.785 241.791V235.14L580.459 237.466C586.36 237.466 592.277 237.388 598.178 237.466C599.661 237.482 599.676 239.418 598.334 239.48C595.352 239.605 595.337 244.258 598.334 244.133C602.627 243.946 605.499 239.277 603.111 235.483C601.784 233.375 599.598 232.845 597.304 232.845C593.026 232.845 588.749 232.845 584.471 232.845C583.129 232.845 581.786 232.845 580.443 232.845C579.195 232.845 578.117 233.906 578.117 235.171V241.823C578.117 243.072 579.179 244.149 580.443 244.149C586.407 244.149 592.37 244.149 598.334 244.149C601.331 244.149 601.331 239.496 598.334 239.496L598.35 239.465Z" fill="black"/>
<path d="M458.583 237.45C464.547 237.45 470.51 237.45 476.473 237.45L474.147 235.124V241.775L476.473 239.449C470.572 239.449 464.656 239.527 458.755 239.449C457.272 239.433 457.256 237.497 458.599 237.435C461.581 237.31 461.596 232.657 458.599 232.782C454.306 232.969 451.433 237.638 453.822 241.432C455.149 243.54 457.334 244.07 459.629 244.07H472.461C473.804 244.07 475.147 244.07 476.489 244.07C477.738 244.07 478.815 243.009 478.815 241.744V235.093C478.815 233.843 477.754 232.766 476.489 232.766C470.526 232.766 464.562 232.766 458.599 232.766C455.601 232.766 455.601 237.419 458.599 237.419L458.583 237.45Z" fill="#BEBFC1"/>
<path d="M598.35 239.464C592.386 239.464 586.423 239.464 580.459 239.464L582.785 241.791V235.139L580.459 237.466C586.36 237.466 592.277 237.388 598.178 237.466C599.661 237.481 599.676 239.418 598.334 239.48C595.352 239.605 595.337 244.258 598.334 244.133C602.627 243.945 605.499 239.277 603.111 235.483C601.784 233.375 599.598 232.844 597.304 232.844C593.026 232.844 588.749 232.844 584.471 232.844C583.129 232.844 581.786 232.844 580.443 232.844C579.195 232.844 578.117 233.906 578.117 235.171V241.822C578.117 243.071 579.179 244.148 580.443 244.148C586.407 244.148 592.37 244.148 598.334 244.148C601.331 244.148 601.331 239.495 598.334 239.495L598.35 239.464Z" fill="#BEBFC1"/>
<path d="M558.104 305.51H498.829C486.48 305.51 476.473 295.501 476.473 283.151L468.574 222.008H588.374L580.475 283.151C580.475 295.501 570.468 305.51 558.12 305.51H558.104Z" fill="#BEBFC1"/>
<path d="M558.104 303.184H500.452C494.879 303.184 489.618 301.872 485.388 298.016C482.125 295.033 479.939 291.114 479.112 286.774C478.815 285.228 478.862 283.651 478.659 282.074C477.332 271.847 476.021 261.62 474.694 251.409C473.898 245.257 473.102 239.121 472.305 232.969C471.868 229.55 471.728 225.896 470.963 222.539C470.916 222.368 470.916 222.18 470.9 222.009L468.574 224.335H588.374L586.048 222.009C584.768 231.939 583.488 241.869 582.192 251.799L579.476 272.784C579.038 276.203 578.414 279.654 578.149 283.089C577.743 288.163 576.494 292.722 572.966 296.579C569.125 300.795 563.786 303.105 558.104 303.184C555.122 303.215 555.107 307.868 558.104 307.836C568.969 307.711 578.742 300.545 581.817 290.037C582.567 287.461 582.567 284.869 582.91 282.246L583.613 276.765C585.439 262.635 587.266 248.505 589.092 234.375C589.623 230.253 590.154 226.131 590.684 222.009C590.841 220.759 589.482 219.682 588.358 219.682H468.559C467.419 219.682 466.077 220.759 466.233 222.009C467.325 230.471 468.418 238.918 469.511 247.381C470.963 258.591 472.415 269.817 473.867 281.028C473.96 281.731 474.085 282.449 474.147 283.151C474.538 287.851 475.318 292.114 477.863 296.189C482.406 303.433 490.367 307.758 498.891 307.836C508.164 307.93 517.437 307.836 526.71 307.836C536.982 307.836 547.286 308.086 557.542 307.836C557.729 307.836 557.917 307.836 558.104 307.836C561.101 307.836 561.101 303.184 558.104 303.184Z" fill="black"/>
<path d="M532.096 191.328H524.837C522.276 191.328 520.2 193.404 520.2 195.965V195.981C520.2 198.542 522.276 200.618 524.837 200.618H532.096C534.657 200.618 536.732 198.542 536.732 195.981V195.965C536.732 193.404 534.657 191.328 532.096 191.328Z" fill="#939393"/>
<path d="M532.096 198.276C530.145 198.276 528.193 198.276 526.242 198.276C525.852 198.276 525.461 198.276 525.087 198.276C525.009 198.276 524.946 198.276 524.868 198.276C524.79 198.276 524.696 198.276 524.618 198.276C524.337 198.261 524.306 198.261 524.556 198.276C524.415 198.245 524.259 198.214 524.119 198.167C523.557 198.057 524.353 198.354 523.869 198.073C523.682 197.964 523.494 197.87 523.323 197.73C523.744 198.042 522.776 197.089 523.088 197.495C522.963 197.324 522.854 197.136 522.745 196.949C522.464 196.465 522.761 197.246 522.651 196.699C522.651 196.652 522.495 195.95 522.558 196.434C522.526 196.199 522.542 195.981 522.542 195.747C522.542 195.278 522.573 195.575 522.542 195.684C522.589 195.466 522.651 195.247 522.714 195.044C522.558 195.481 522.823 194.857 522.854 194.81C522.886 194.763 523.291 194.232 522.995 194.576C523.135 194.42 523.291 194.263 523.448 194.123C523.104 194.42 523.635 194.014 523.682 193.982C523.806 193.904 523.931 193.842 524.072 193.779C523.666 193.951 524.478 193.686 524.571 193.67C524.134 193.764 524.806 193.67 524.899 193.67C524.977 193.67 525.071 193.67 525.149 193.67C525.633 193.67 526.117 193.67 526.585 193.67H530.223C530.988 193.67 531.799 193.592 532.564 193.686C532.08 193.623 532.783 193.764 532.83 193.779C533.329 193.889 532.658 193.623 533.079 193.873C533.267 193.982 533.454 194.076 533.626 194.216C533.282 193.951 533.891 194.513 533.954 194.576C533.657 194.232 534.063 194.763 534.094 194.81C534.172 194.935 534.235 195.06 534.297 195.2C534.204 194.982 534.204 194.997 534.297 195.263C534.328 195.403 534.375 195.544 534.406 195.7C534.297 195.231 534.406 195.918 534.406 195.996C534.406 197.308 533.36 198.276 532.096 198.307C530.831 198.338 529.77 199.353 529.77 200.634C529.77 201.914 530.831 202.991 532.096 202.96C534.719 202.898 537.248 201.446 538.356 199.026C539.464 196.605 539.215 193.826 537.56 191.703C536.186 189.954 534.125 189.033 531.924 189.017C530.722 189.017 529.505 189.017 528.303 189.017C527.163 189.017 526.039 189.002 524.899 189.017C522.495 189.064 520.341 190.188 518.998 192.187C517.562 194.326 517.531 197.277 518.827 199.494C520.122 201.711 522.401 202.898 524.852 202.945C527.303 202.991 529.676 202.945 532.08 202.945C533.329 202.945 534.406 201.883 534.406 200.618C534.406 199.353 533.345 198.292 532.08 198.292L532.096 198.276Z" fill="black"/>
<path d="M528.474 200.602C467.716 200.602 465.874 218.058 465.874 218.058C465.874 220.135 467.56 221.821 469.636 221.821H587.312C589.389 221.821 591.075 220.135 591.075 218.058C591.075 218.058 589.233 200.602 528.474 200.602Z" fill="#999999"/>
<path d="M528.474 198.276C518.389 198.276 508.305 198.744 498.298 200.134C492.069 201.008 485.825 202.242 479.908 204.381C474.335 206.395 467.95 209.362 464.765 214.67C464.266 215.498 463.813 216.434 463.641 217.387C462.876 221.54 466.795 224.132 470.448 224.132H583.987C585.548 224.132 587.391 224.335 588.936 223.913C592.011 223.07 594.15 219.651 593.104 216.591C591.559 212.109 587.047 208.987 583.035 206.926C571.452 200.977 557.605 199.54 544.819 198.744C539.386 198.401 533.938 198.276 528.49 198.26C525.493 198.26 525.493 202.897 528.49 202.913C543.929 202.929 560.196 203.475 574.949 208.534C578.367 209.705 581.536 211.173 584.58 213.296C584.721 213.39 584.862 213.499 585.002 213.608C584.955 213.561 584.612 213.296 584.94 213.561C585.189 213.764 585.439 213.967 585.673 214.17C586.095 214.545 586.516 214.935 586.907 215.341C587.203 215.669 587.5 215.997 587.765 216.341C587.234 215.685 587.984 216.684 588.14 216.934C588.296 217.184 588.421 217.449 588.561 217.699C588.952 218.386 588.499 217.293 588.624 217.855C588.686 218.105 588.78 218.339 588.827 218.589C588.561 217.449 588.889 218.495 588.327 219.057C587.984 219.401 587.609 219.432 587.172 219.479C586.672 219.526 586.142 219.479 585.627 219.479H474.241C472.774 219.479 471.213 219.635 469.745 219.479C469.386 219.432 469.058 219.417 468.746 219.167C468.044 218.62 468.371 217.418 468.106 218.589C468.168 218.339 468.262 218.089 468.325 217.824C468.449 217.324 467.997 218.37 468.387 217.699C468.543 217.418 468.684 217.137 468.855 216.856C468.996 216.622 469.698 215.701 469.183 216.341C469.48 215.966 469.792 215.591 470.136 215.248C472.056 213.234 473.867 212.125 476.692 210.72C487.511 205.333 500.999 204.022 513.066 203.319C518.202 203.022 523.338 202.897 528.474 202.897C531.472 202.897 531.472 198.245 528.474 198.245V198.276Z" fill="black"/>
<path d="M607.388 386.779H449.56C445.404 386.779 442.035 390.148 442.035 394.304V457.649C442.035 461.805 445.404 465.175 449.56 465.175H607.388C611.544 465.175 614.913 461.805 614.913 457.649V394.304C614.913 390.148 611.544 386.779 607.388 386.779Z" fill="#767C7C"/>
<path d="M607.388 462.848H576.228C554.826 462.848 533.407 462.848 512.004 462.848H458.552C455.57 462.848 452.557 462.973 449.56 462.848C446.563 462.723 444.471 460.568 444.361 457.617C444.346 457.055 444.361 456.493 444.361 455.931V413.79C444.361 407.326 444.127 400.8 444.361 394.336C444.58 388.324 450.59 389.089 454.758 389.089H593.838C598.131 389.089 602.44 389.074 606.733 389.089C609.87 389.105 612.462 390.947 612.602 394.32C612.68 396.272 612.602 398.239 612.602 400.191V455.775C612.602 456.384 612.618 456.977 612.602 457.586C612.493 460.521 610.37 462.739 607.404 462.832C604.438 462.926 604.406 467.579 607.404 467.485C613.352 467.282 617.255 462.629 617.255 456.852V415.617C617.255 408.559 617.426 401.455 617.255 394.398C617.114 388.808 612.883 384.577 607.31 384.437C606.217 384.405 605.109 384.437 604.016 384.437H556.246C533.953 384.437 511.661 384.437 489.368 384.437C476.302 384.437 463.22 384.358 450.153 384.437C445.766 384.468 441.77 386.81 440.287 391.088C439.491 393.368 439.756 396.022 439.756 398.411V427.905C439.756 437.039 439.756 446.188 439.756 455.322C439.756 458.991 440.146 462.504 443.206 465.096C445.407 466.97 448.061 467.469 450.84 467.469H607.435C610.432 467.469 610.432 462.817 607.435 462.817L607.388 462.848Z" fill="black"/>
<path d="M447.406 338.048C450.846 338.048 453.634 335.259 453.634 331.819C453.634 328.378 450.846 325.589 447.406 325.589C443.965 325.589 441.177 328.378 441.177 331.819C441.177 335.259 443.965 338.048 447.406 338.048Z" fill="black"/>
<path d="M455.96 331.819C455.914 328.165 453.65 325.043 450.263 323.762C447.062 322.56 443.097 323.606 440.927 326.26C438.632 329.055 438.164 333.021 440.053 336.191C441.942 339.36 445.563 340.843 449.138 340.203C453.104 339.485 455.914 335.769 455.96 331.834C455.976 330.616 454.883 329.461 453.634 329.508C452.386 329.555 451.324 330.523 451.308 331.834C451.308 332.006 451.308 332.178 451.293 332.35C451.277 332.818 451.324 332.256 451.308 332.24C451.371 332.412 451.168 332.865 451.121 333.052C451.074 333.177 451.043 333.411 450.949 333.521C450.981 333.489 451.199 333.037 450.981 333.411C450.824 333.692 450.653 333.973 450.481 334.255C450.2 334.676 450.746 334.052 450.481 334.239C450.387 334.317 450.294 334.442 450.216 334.535C450.138 334.614 450.06 334.692 449.981 334.754C449.872 334.848 449.576 335.238 449.95 334.801C449.794 334.988 449.482 335.129 449.263 335.238C449.17 335.285 449.076 335.332 448.967 335.394C448.576 335.613 449.404 335.269 448.842 335.441C448.576 335.519 448.311 335.613 448.046 335.66C447.827 335.707 447.64 335.863 448.077 335.66C447.968 335.707 447.765 335.691 447.655 335.691C447.359 335.691 447.078 335.691 446.797 335.66C446.438 335.66 447.359 335.785 446.828 335.66C446.656 335.629 446.5 335.582 446.344 335.55C446.188 335.519 446.032 335.441 445.876 335.394C445.61 335.316 445.767 335.457 445.969 335.441C445.782 335.441 445.407 335.16 445.251 335.051C445.142 334.973 445.033 334.895 444.908 334.817C444.627 334.66 445.298 335.191 444.939 334.817C444.783 334.66 444.299 334.333 444.268 334.114C444.299 334.301 444.486 334.442 444.33 334.192C444.237 334.051 444.143 333.927 444.065 333.786C444.002 333.692 443.956 333.599 443.909 333.505C443.831 333.349 443.534 333.037 443.862 333.458C443.721 333.271 443.659 332.896 443.612 332.662C443.581 332.553 443.565 332.443 443.534 332.334C443.425 331.866 443.565 332.818 443.518 332.193C443.503 331.928 443.503 331.678 443.518 331.413V331.241C443.565 330.976 443.55 331.007 443.518 331.35C443.55 331.319 443.565 331.085 443.581 331.022C443.643 330.757 443.737 330.492 443.815 330.226C443.987 329.695 443.565 330.648 443.846 330.179C443.924 330.039 444.002 329.883 444.08 329.742C444.143 329.633 444.221 329.508 444.299 329.399L444.346 329.336C444.502 329.133 444.471 329.165 444.283 329.414C444.315 329.258 444.736 328.93 444.845 328.821C444.877 328.79 445.251 328.415 444.986 328.68C444.721 328.946 445.095 328.602 445.142 328.571C445.329 328.446 445.782 328.072 446.001 328.087C445.985 328.087 445.47 328.274 445.907 328.134C446.063 328.087 446.219 328.025 446.375 327.978C446.485 327.947 446.594 327.915 446.703 327.9C446.734 327.9 447.281 327.791 446.89 327.853C446.5 327.915 447.047 327.853 447.093 327.853C447.234 327.853 447.39 327.853 447.531 327.853C447.671 327.853 447.811 327.853 447.968 327.869C448.483 327.884 447.562 327.759 448.03 327.869C448.358 327.947 448.67 328.04 448.998 328.134C449.498 328.29 448.733 327.931 448.967 328.134C449.107 328.243 449.31 328.306 449.466 328.399C449.56 328.462 449.654 328.509 449.747 328.571C449.841 328.634 449.919 328.696 450.013 328.759C449.763 328.556 449.732 328.54 449.919 328.696C450.106 328.883 450.294 329.086 450.497 329.274C450.887 329.664 450.247 328.852 450.543 329.321C450.637 329.461 450.731 329.586 450.809 329.727C450.887 329.867 450.965 330.008 451.043 330.164C451.277 330.57 450.918 329.727 451.074 330.211C451.183 330.539 451.262 330.851 451.34 331.179C451.386 331.382 451.496 331.413 451.34 331.069C451.418 331.241 451.371 331.569 451.371 331.756C451.386 332.974 452.432 334.13 453.697 334.083C454.961 334.036 456.039 333.068 456.023 331.756L455.96 331.819Z" fill="black"/>
<path d="M472.103 338.048C475.543 338.048 478.331 335.259 478.331 331.819C478.331 328.378 475.543 325.589 472.103 325.589C468.663 325.589 465.874 328.378 465.874 331.819C465.874 335.259 468.663 338.048 472.103 338.048Z" fill="black"/>
<path d="M480.657 331.819C480.611 328.165 478.347 325.043 474.959 323.762C471.759 322.56 467.794 323.606 465.624 326.26C463.329 329.055 462.861 333.021 464.75 336.191C466.638 339.36 470.26 340.843 473.835 340.203C477.801 339.485 480.611 335.769 480.657 331.834C480.673 330.616 479.58 329.461 478.331 329.508C477.082 329.555 476.021 330.523 476.005 331.834C476.005 332.006 476.005 332.178 475.99 332.35C475.974 332.818 476.021 332.256 476.005 332.24C476.068 332.412 475.865 332.865 475.818 333.052C475.771 333.177 475.74 333.411 475.646 333.521C475.677 333.489 475.896 333.037 475.677 333.411C475.521 333.692 475.35 333.973 475.178 334.255C474.897 334.676 475.443 334.052 475.178 334.239C475.084 334.317 474.99 334.442 474.912 334.535C474.834 334.614 474.756 334.692 474.678 334.754C474.569 334.848 474.272 335.238 474.647 334.801C474.491 334.988 474.179 335.129 473.96 335.238C473.866 335.285 473.773 335.332 473.664 335.394C473.273 335.613 474.101 335.269 473.539 335.441C473.273 335.519 473.008 335.613 472.742 335.66C472.524 335.707 472.337 335.863 472.774 335.66C472.664 335.707 472.461 335.691 472.352 335.691C472.056 335.691 471.775 335.691 471.494 335.66C471.135 335.66 472.056 335.785 471.525 335.66C471.353 335.629 471.197 335.582 471.041 335.55C470.885 335.519 470.729 335.441 470.573 335.394C470.307 335.316 470.463 335.457 470.666 335.441C470.479 335.441 470.104 335.16 469.948 335.051C469.839 334.973 469.729 334.895 469.605 334.817C469.324 334.66 469.995 335.191 469.636 334.817C469.48 334.66 468.996 334.333 468.965 334.114C468.996 334.301 469.183 334.442 469.027 334.192C468.933 334.051 468.84 333.927 468.762 333.786C468.699 333.692 468.652 333.599 468.606 333.505C468.528 333.349 468.231 333.037 468.559 333.458C468.418 333.271 468.356 332.896 468.309 332.662C468.278 332.553 468.262 332.443 468.231 332.334C468.122 331.866 468.262 332.818 468.215 332.193C468.2 331.928 468.2 331.678 468.215 331.413V331.241C468.262 330.976 468.247 331.007 468.215 331.35C468.247 331.319 468.262 331.085 468.278 331.022C468.34 330.757 468.434 330.492 468.512 330.226C468.684 329.695 468.262 330.648 468.543 330.179C468.621 330.039 468.699 329.883 468.777 329.742C468.84 329.633 468.918 329.508 468.996 329.399L469.043 329.336C469.199 329.133 469.168 329.165 468.98 329.414C469.011 329.258 469.433 328.93 469.542 328.821C469.573 328.79 469.948 328.415 469.683 328.68C469.417 328.946 469.792 328.602 469.839 328.571C470.026 328.446 470.479 328.072 470.697 328.087C470.682 328.087 470.167 328.274 470.604 328.134C470.76 328.087 470.916 328.025 471.072 327.978C471.181 327.947 471.291 327.915 471.4 327.9C471.431 327.9 471.977 327.791 471.587 327.853C471.197 327.915 471.743 327.853 471.79 327.853C471.931 327.853 472.087 327.853 472.227 327.853C472.368 327.853 472.508 327.853 472.664 327.869C473.18 327.884 472.258 327.759 472.727 327.869C473.055 327.947 473.367 328.04 473.695 328.134C474.194 328.29 473.429 327.931 473.664 328.134C473.804 328.243 474.007 328.306 474.163 328.399C474.257 328.462 474.35 328.509 474.444 328.571C474.538 328.634 474.616 328.696 474.709 328.759C474.46 328.556 474.429 328.54 474.616 328.696C474.803 328.883 474.991 329.086 475.193 329.274C475.584 329.664 474.944 328.852 475.24 329.321C475.334 329.461 475.428 329.586 475.506 329.727C475.584 329.867 475.662 330.008 475.74 330.164C475.974 330.57 475.615 329.727 475.771 330.211C475.88 330.539 475.958 330.851 476.037 331.179C476.083 331.382 476.193 331.413 476.037 331.069C476.115 331.241 476.068 331.569 476.068 331.756C476.083 332.974 477.129 334.13 478.394 334.083C479.658 334.036 480.735 333.068 480.72 331.756L480.657 331.819Z" fill="black"/>
<path d="M495.691 338.048C499.131 338.048 501.92 335.259 501.92 331.819C501.92 328.378 499.131 325.589 495.691 325.589C492.251 325.589 489.462 328.378 489.462 331.819C489.462 335.259 492.251 338.048 495.691 338.048Z" fill="black"/>
<path d="M504.246 331.819C504.199 328.165 501.935 325.043 498.548 323.762C495.347 322.56 491.382 323.606 489.212 326.26C486.917 329.055 486.449 333.021 488.338 336.191C490.227 339.36 493.849 340.843 497.424 340.203C501.389 339.485 504.199 335.769 504.246 331.834C504.261 330.616 503.169 329.461 501.92 329.508C500.671 329.555 499.609 330.523 499.594 331.834C499.594 332.006 499.594 332.178 499.578 332.35C499.562 332.818 499.609 332.256 499.594 332.24C499.656 332.412 499.453 332.865 499.406 333.052C499.359 333.177 499.328 333.411 499.235 333.521C499.266 333.489 499.484 333.037 499.266 333.411C499.11 333.692 498.938 333.973 498.766 334.255C498.485 334.676 499.032 334.052 498.766 334.239C498.673 334.317 498.579 334.442 498.501 334.535C498.423 334.614 498.345 334.692 498.267 334.754C498.157 334.848 497.861 335.238 498.235 334.801C498.079 334.988 497.767 335.129 497.548 335.238C497.455 335.285 497.361 335.332 497.252 335.394C496.862 335.613 497.689 335.269 497.127 335.441C496.862 335.519 496.596 335.613 496.331 335.66C496.112 335.707 495.925 335.863 496.362 335.66C496.253 335.707 496.05 335.691 495.941 335.691C495.644 335.691 495.363 335.691 495.082 335.66C494.723 335.66 495.644 335.785 495.113 335.66C494.942 335.629 494.785 335.582 494.629 335.55C494.473 335.519 494.317 335.441 494.161 335.394C493.896 335.316 494.052 335.457 494.255 335.441C494.067 335.441 493.693 335.16 493.537 335.051C493.427 334.973 493.318 334.895 493.193 334.817C492.912 334.66 493.583 335.191 493.224 334.817C493.068 334.66 492.584 334.333 492.553 334.114C492.584 334.301 492.772 334.442 492.616 334.192C492.522 334.051 492.428 333.927 492.35 333.786C492.288 333.692 492.241 333.599 492.194 333.505C492.116 333.349 491.819 333.037 492.147 333.458C492.007 333.271 491.944 332.896 491.897 332.662C491.866 332.553 491.851 332.443 491.819 332.334C491.71 331.866 491.851 332.818 491.804 332.193C491.788 331.928 491.788 331.678 491.804 331.413V331.241C491.851 330.976 491.835 331.007 491.804 331.35C491.835 331.319 491.85 331.085 491.866 331.022C491.928 330.757 492.022 330.492 492.1 330.226C492.272 329.695 491.85 330.648 492.131 330.179C492.21 330.039 492.288 329.883 492.366 329.742C492.428 329.633 492.506 329.508 492.584 329.399L492.631 329.336C492.787 329.133 492.756 329.165 492.569 329.414C492.6 329.258 493.021 328.93 493.131 328.821C493.162 328.79 493.536 328.415 493.271 328.68C493.006 328.946 493.38 328.602 493.427 328.571C493.614 328.446 494.067 328.072 494.286 328.087C494.27 328.087 493.755 328.274 494.192 328.134C494.348 328.087 494.504 328.025 494.66 327.978C494.77 327.947 494.879 327.915 494.988 327.9C495.019 327.9 495.566 327.791 495.176 327.853C494.785 327.915 495.332 327.853 495.379 327.853C495.519 327.853 495.675 327.853 495.816 327.853C495.956 327.853 496.097 327.853 496.253 327.869C496.768 327.884 495.847 327.759 496.315 327.869C496.643 327.947 496.955 328.04 497.283 328.134C497.783 328.29 497.018 327.931 497.252 328.134C497.392 328.243 497.595 328.306 497.751 328.399C497.845 328.462 497.939 328.509 498.033 328.571C498.126 328.634 498.204 328.696 498.298 328.759C498.048 328.556 498.017 328.54 498.204 328.696C498.392 328.883 498.579 329.086 498.782 329.274C499.172 329.664 498.532 328.852 498.829 329.321C498.922 329.461 499.016 329.586 499.094 329.727C499.172 329.867 499.25 330.008 499.328 330.164C499.562 330.57 499.203 329.727 499.359 330.211C499.469 330.539 499.547 330.851 499.625 331.179C499.672 331.382 499.781 331.413 499.625 331.069C499.703 331.241 499.656 331.569 499.656 331.756C499.672 332.974 500.718 334.13 501.982 334.083C503.247 334.036 504.324 333.068 504.308 331.756L504.246 331.819Z" fill="black"/>
<path d="M581.755 338.048C585.195 338.048 587.984 335.259 587.984 331.819C587.984 328.378 585.195 325.589 581.755 325.589C578.315 325.589 575.526 328.378 575.526 331.819C575.526 335.259 578.315 338.048 581.755 338.048Z" fill="black"/>
<path d="M590.31 331.819C590.263 328.165 587.999 325.043 584.612 323.762C581.411 322.56 577.446 323.606 575.276 326.26C572.981 329.055 572.513 333.021 574.402 336.191C576.291 339.36 579.913 340.843 583.488 340.203C587.453 339.485 590.263 335.769 590.31 331.834C590.325 330.616 589.233 329.461 587.984 329.508C586.735 329.555 585.673 330.523 585.658 331.834C585.658 332.006 585.658 332.178 585.642 332.35C585.626 332.818 585.673 332.256 585.658 332.24C585.72 332.412 585.517 332.865 585.47 333.052C585.423 333.177 585.392 333.411 585.299 333.521C585.33 333.489 585.548 333.037 585.33 333.411C585.174 333.692 585.002 333.973 584.83 334.255C584.549 334.676 585.096 334.052 584.83 334.239C584.737 334.317 584.643 334.442 584.565 334.535C584.487 334.614 584.409 334.692 584.331 334.754C584.221 334.848 583.925 335.238 584.299 334.801C584.143 334.988 583.831 335.129 583.612 335.238C583.519 335.285 583.425 335.332 583.316 335.394C582.926 335.613 583.753 335.269 583.191 335.441C582.926 335.519 582.66 335.613 582.395 335.66C582.176 335.707 581.989 335.863 582.426 335.66C582.317 335.707 582.114 335.691 582.004 335.691C581.708 335.691 581.427 335.691 581.146 335.66C580.787 335.66 581.708 335.785 581.177 335.66C581.006 335.629 580.849 335.582 580.693 335.55C580.537 335.519 580.381 335.441 580.225 335.394C579.96 335.316 580.116 335.457 580.319 335.441C580.131 335.441 579.757 335.16 579.6 335.051C579.491 334.973 579.382 334.895 579.257 334.817C578.976 334.66 579.647 335.191 579.288 334.817C579.132 334.66 578.648 334.333 578.617 334.114C578.648 334.301 578.836 334.442 578.679 334.192C578.586 334.051 578.492 333.927 578.414 333.786C578.352 333.692 578.305 333.599 578.258 333.505C578.18 333.349 577.883 333.037 578.211 333.458C578.071 333.271 578.008 332.896 577.961 332.662C577.93 332.553 577.915 332.443 577.883 332.334C577.774 331.866 577.915 332.818 577.868 332.193C577.852 331.928 577.852 331.678 577.868 331.413V331.241C577.915 330.976 577.899 331.007 577.868 331.35C577.899 331.319 577.914 331.085 577.93 331.022C577.992 330.757 578.086 330.492 578.164 330.226C578.336 329.695 577.914 330.648 578.195 330.179C578.274 330.039 578.352 329.883 578.43 329.742C578.492 329.633 578.57 329.508 578.648 329.399L578.695 329.336C578.851 329.133 578.82 329.165 578.633 329.414C578.664 329.258 579.085 328.93 579.195 328.821C579.226 328.79 579.6 328.415 579.335 328.68C579.07 328.946 579.444 328.602 579.491 328.571C579.678 328.446 580.131 328.072 580.35 328.087C580.334 328.087 579.819 328.274 580.256 328.134C580.412 328.087 580.568 328.025 580.724 327.978C580.834 327.947 580.943 327.915 581.052 327.9C581.083 327.9 581.63 327.791 581.24 327.853C580.849 327.915 581.396 327.853 581.442 327.853C581.583 327.853 581.739 327.853 581.88 327.853C582.02 327.853 582.161 327.853 582.317 327.869C582.832 327.884 581.911 327.759 582.379 327.869C582.707 327.947 583.019 328.04 583.347 328.134C583.847 328.29 583.082 327.931 583.316 328.134C583.456 328.243 583.659 328.306 583.815 328.399C583.909 328.462 584.003 328.509 584.097 328.571C584.19 328.634 584.268 328.696 584.362 328.759C584.112 328.556 584.081 328.54 584.268 328.696C584.456 328.883 584.643 329.086 584.846 329.274C585.236 329.664 584.596 328.852 584.893 329.321C584.986 329.461 585.08 329.586 585.158 329.727C585.236 329.867 585.314 330.008 585.392 330.164C585.626 330.57 585.267 329.727 585.423 330.211C585.533 330.539 585.611 330.851 585.689 331.179C585.736 331.382 585.845 331.413 585.689 331.069C585.767 331.241 585.72 331.569 585.72 331.756C585.736 332.974 586.782 334.13 588.046 334.083C589.311 334.036 590.388 333.068 590.372 331.756L590.31 331.819Z" fill="black"/>
<path d="M605.343 338.048C608.783 338.048 611.572 335.259 611.572 331.819C611.572 328.378 608.783 325.589 605.343 325.589C601.903 325.589 599.115 328.378 599.115 331.819C599.115 335.259 601.903 338.048 605.343 338.048Z" fill="black"/>
<path d="M613.898 331.819C613.851 328.165 611.588 325.043 608.2 323.762C605 322.56 601.035 323.606 598.865 326.26C596.57 329.055 596.102 333.021 597.991 336.191C599.88 339.36 603.501 340.843 607.076 340.203C611.041 339.485 613.851 335.769 613.898 331.834C613.914 330.616 612.821 329.461 611.572 329.508C610.323 329.555 609.262 330.523 609.246 331.834C609.246 332.006 609.246 332.178 609.23 332.35C609.215 332.818 609.262 332.256 609.246 332.24C609.309 332.412 609.106 332.865 609.059 333.052C609.012 333.177 608.981 333.411 608.887 333.521C608.918 333.489 609.137 333.037 608.918 333.411C608.762 333.692 608.59 333.973 608.419 334.255C608.138 334.676 608.684 334.052 608.419 334.239C608.325 334.317 608.231 334.442 608.153 334.535C608.075 334.614 607.997 334.692 607.919 334.754C607.81 334.848 607.513 335.238 607.888 334.801C607.732 334.988 607.42 335.129 607.201 335.238C607.107 335.285 607.014 335.332 606.904 335.394C606.514 335.613 607.342 335.269 606.78 335.441C606.514 335.519 606.249 335.613 605.983 335.66C605.765 335.707 605.577 335.863 606.015 335.66C605.905 335.707 605.702 335.691 605.593 335.691C605.297 335.691 605.015 335.691 604.734 335.66C604.375 335.66 605.297 335.785 604.766 335.66C604.594 335.629 604.438 335.582 604.282 335.55C604.126 335.519 603.97 335.441 603.813 335.394C603.548 335.316 603.704 335.457 603.907 335.441C603.72 335.441 603.345 335.16 603.189 335.051C603.08 334.973 602.97 334.895 602.846 334.817C602.565 334.66 603.236 335.191 602.877 334.817C602.721 334.66 602.237 334.333 602.205 334.114C602.237 334.301 602.424 334.442 602.268 334.192C602.174 334.051 602.081 333.927 602.003 333.786C601.94 333.692 601.893 333.599 601.846 333.505C601.768 333.349 601.472 333.037 601.8 333.458C601.659 333.271 601.597 332.896 601.55 332.662C601.519 332.553 601.503 332.443 601.472 332.334C601.363 331.866 601.503 332.818 601.456 332.193C601.441 331.928 601.441 331.678 601.456 331.413V331.241C601.503 330.976 601.487 331.007 601.456 331.35C601.487 331.319 601.503 331.085 601.519 331.022C601.581 330.757 601.675 330.492 601.753 330.226C601.924 329.695 601.503 330.648 601.784 330.179C601.862 330.039 601.94 329.883 602.018 329.742C602.081 329.633 602.159 329.508 602.237 329.399L602.284 329.336C602.44 329.133 602.408 329.165 602.221 329.414C602.252 329.258 602.674 328.93 602.783 328.821C602.814 328.79 603.189 328.415 602.924 328.68C602.658 328.946 603.033 328.602 603.08 328.571C603.267 328.446 603.72 328.072 603.938 328.087C603.923 328.087 603.408 328.274 603.845 328.134C604.001 328.087 604.157 328.025 604.313 327.978C604.422 327.947 604.531 327.915 604.641 327.9C604.672 327.9 605.219 327.791 604.828 327.853C604.438 327.915 604.984 327.853 605.031 327.853C605.172 327.853 605.328 327.853 605.468 327.853C605.609 327.853 605.749 327.853 605.905 327.869C606.42 327.884 605.499 327.759 605.968 327.869C606.296 327.947 606.608 328.04 606.936 328.134C607.435 328.29 606.67 327.931 606.904 328.134C607.045 328.243 607.248 328.306 607.404 328.399C607.498 328.462 607.591 328.509 607.685 328.571C607.779 328.634 607.857 328.696 607.95 328.759C607.701 328.556 607.669 328.54 607.857 328.696C608.044 328.883 608.231 329.086 608.434 329.274C608.825 329.664 608.185 328.852 608.481 329.321C608.575 329.461 608.668 329.586 608.746 329.727C608.825 329.867 608.903 330.008 608.981 330.164C609.215 330.57 608.856 329.727 609.012 330.211C609.121 330.539 609.199 330.851 609.277 331.179C609.324 331.382 609.433 331.413 609.277 331.069C609.355 331.241 609.309 331.569 609.309 331.756C609.324 332.974 610.37 334.13 611.635 334.083C612.899 334.036 613.976 333.068 613.961 331.756L613.898 331.819Z" fill="black"/>
<path d="M249.478 126.576C246.358 126.576 243.534 125.824 241.006 124.32C238.478 122.8 236.494 120.72 235.054 118.08C233.614 115.44 232.894 112.48 232.894 109.2C232.894 105.92 233.614 102.96 235.054 100.32C236.494 97.68 238.478 95.608 241.006 94.104C243.534 92.584 246.358 91.824 249.478 91.824C252.07 91.824 254.486 92.376 256.726 93.48C258.982 94.584 260.822 96.048 262.246 97.872C263.686 99.696 264.534 101.656 264.79 103.752H259.99C259.686 102.456 259.022 101.232 257.998 100.08C256.99 98.928 255.734 98.008 254.23 97.32C252.742 96.616 251.158 96.264 249.478 96.264C247.27 96.264 245.286 96.816 243.526 97.92C241.766 99.024 240.39 100.56 239.398 102.528C238.406 104.496 237.91 106.72 237.91 109.2C237.91 111.68 238.406 113.904 239.398 115.872C240.39 117.84 241.766 119.376 243.526 120.48C245.286 121.584 247.27 122.136 249.478 122.136C251.158 122.136 252.742 121.792 254.23 121.104C255.734 120.4 256.99 119.472 257.998 118.32C259.022 117.168 259.686 115.952 259.99 114.672H264.79C264.534 116.752 263.686 118.712 262.246 120.552C260.822 122.376 258.982 123.84 256.726 124.944C254.486 126.032 252.07 126.576 249.478 126.576ZM281.835 126.576C279.451 126.576 277.291 126.024 275.355 124.92C273.419 123.816 271.891 122.288 270.771 120.336C269.667 118.368 269.115 116.16 269.115 113.712C269.115 111.264 269.667 109.064 270.771 107.112C271.891 105.144 273.419 103.608 275.355 102.504C277.307 101.4 279.475 100.848 281.859 100.848C284.259 100.848 286.419 101.4 288.339 102.504C290.275 103.608 291.795 105.144 292.899 107.112C294.003 109.064 294.555 111.264 294.555 113.712C294.555 116.16 294.003 118.368 292.899 120.336C291.795 122.288 290.275 123.816 288.339 124.92C286.403 126.024 284.235 126.576 281.835 126.576ZM274.011 113.712C274.011 115.392 274.355 116.888 275.043 118.2C275.731 119.512 276.675 120.528 277.875 121.248C279.075 121.968 280.411 122.328 281.883 122.328C283.355 122.328 284.683 121.968 285.867 121.248C287.067 120.528 288.003 119.52 288.675 118.224C289.347 116.912 289.683 115.408 289.683 113.712C289.683 112.016 289.339 110.52 288.651 109.224C287.979 107.912 287.043 106.896 285.843 106.176C284.659 105.44 283.331 105.072 281.859 105.072C280.387 105.072 279.051 105.44 277.851 106.176C276.667 106.896 275.731 107.912 275.043 109.224C274.355 110.536 274.011 112.032 274.011 113.712ZM300.356 101.424H304.892V105.24C305.708 103.816 306.788 102.728 308.132 101.976C309.476 101.224 311.036 100.848 312.812 100.848C314.572 100.848 316.132 101.232 317.492 102C318.852 102.752 319.908 103.864 320.66 105.336C321.428 106.792 321.812 108.536 321.812 110.568V126H317.132V111.168C317.132 109.2 316.62 107.672 315.596 106.584C314.588 105.496 313.196 104.952 311.42 104.952C310.156 104.952 309.036 105.232 308.06 105.792C307.1 106.352 306.356 107.136 305.828 108.144C305.3 109.152 305.036 110.296 305.036 111.576V126H300.356V101.424ZM339.199 134.256C337.327 134.256 335.607 133.96 334.039 133.368C332.471 132.792 331.175 131.968 330.151 130.896C329.143 129.84 328.503 128.616 328.231 127.224H332.839C333.319 128.232 334.127 129.008 335.263 129.552C336.399 130.096 337.663 130.368 339.055 130.368C340.495 130.368 341.751 130.072 342.823 129.48C343.911 128.904 344.743 128.088 345.319 127.032C345.911 125.976 346.207 124.76 346.207 123.384V122.352L346.279 120.024C345.351 121.32 344.175 122.328 342.751 123.048C341.327 123.768 339.751 124.128 338.023 124.128C335.975 124.128 334.119 123.632 332.455 122.64C330.791 121.632 329.479 120.248 328.519 118.488C327.575 116.712 327.103 114.72 327.103 112.512C327.103 110.304 327.575 108.312 328.519 106.536C329.479 104.76 330.791 103.368 332.455 102.36C334.119 101.352 335.975 100.848 338.023 100.848C339.799 100.848 341.407 101.232 342.847 102C344.303 102.752 345.495 103.824 346.423 105.216V101.424H350.959L350.887 123.384C350.887 125.528 350.399 127.416 349.423 129.048C348.447 130.696 347.071 131.976 345.295 132.888C343.535 133.8 341.503 134.256 339.199 134.256ZM331.951 112.512C331.951 113.936 332.255 115.232 332.863 116.4C333.487 117.552 334.343 118.464 335.431 119.136C336.519 119.792 337.743 120.12 339.103 120.12C340.447 120.12 341.663 119.792 342.751 119.136C343.839 118.464 344.695 117.552 345.319 116.4C345.959 115.232 346.279 113.936 346.279 112.512C346.279 111.088 345.959 109.792 345.319 108.624C344.695 107.456 343.839 106.544 342.751 105.888C341.663 105.216 340.447 104.88 339.103 104.88C337.743 104.88 336.519 105.216 335.431 105.888C334.343 106.544 333.487 107.456 332.863 108.624C332.255 109.792 331.951 111.088 331.951 112.512ZM358.669 101.424H363.349V105.336C364.117 104.008 365.109 102.992 366.325 102.288C367.557 101.568 368.949 101.208 370.501 101.208H371.389V106.032L370.093 106.008C368.733 106.008 367.541 106.264 366.517 106.776C365.509 107.288 364.733 108.024 364.189 108.984C363.645 109.944 363.373 111.072 363.373 112.368V126H358.669V101.424ZM384.783 100.848C386.703 100.848 388.391 101.2 389.847 101.904C391.319 102.592 392.463 103.6 393.279 104.928C394.095 106.24 394.503 107.8 394.503 109.608V126H389.943V122.184C389.223 123.608 388.199 124.696 386.871 125.448C385.543 126.2 383.975 126.576 382.167 126.576C380.583 126.576 379.159 126.28 377.895 125.688C376.647 125.08 375.663 124.24 374.943 123.168C374.239 122.08 373.887 120.856 373.887 119.496C373.887 118.2 374.223 117.008 374.895 115.92C375.567 114.816 376.495 113.92 377.679 113.232C378.879 112.528 380.223 112.096 381.711 111.936L388.215 111.24C388.727 111.176 389.127 110.968 389.415 110.616C389.719 110.264 389.871 109.752 389.871 109.08C389.855 107.736 389.375 106.664 388.431 105.864C387.487 105.048 386.247 104.64 384.711 104.64C383.703 104.64 382.791 104.816 381.975 105.168C381.159 105.504 380.503 105.968 380.007 106.56C379.511 107.136 379.207 107.768 379.095 108.456H374.439C374.615 107.016 375.167 105.72 376.095 104.568C377.039 103.4 378.263 102.488 379.767 101.832C381.271 101.176 382.943 100.848 384.783 100.848ZM378.687 119.064C378.687 119.816 378.887 120.488 379.287 121.08C379.703 121.672 380.271 122.136 380.991 122.472C381.727 122.792 382.559 122.952 383.487 122.952C384.751 122.952 385.863 122.696 386.823 122.184C387.799 121.672 388.551 120.952 389.079 120.024C389.607 119.08 389.871 118.008 389.871 116.808V114.288L382.623 115.104C381.455 115.232 380.503 115.656 379.767 116.376C379.047 117.096 378.687 117.992 378.687 119.064ZM409.862 126C408.63 126 407.51 125.736 406.502 125.208C405.51 124.68 404.734 123.952 404.174 123.024C403.614 122.08 403.334 121.024 403.334 119.856L403.31 105.528H398.99L399.014 101.424H401.678C402.286 101.424 402.774 101.232 403.142 100.848C403.526 100.464 403.718 99.976 403.718 99.384V95.424H408.014V101.424H413.918V105.528H407.99L408.014 119.4C408.014 120.12 408.246 120.72 408.71 121.2C409.19 121.664 409.79 121.896 410.51 121.896H413.918V126H409.862ZM440.883 126H436.347V122.184C435.531 123.608 434.451 124.696 433.107 125.448C431.763 126.2 430.203 126.576 428.427 126.576C426.667 126.576 425.107 126.2 423.747 125.448C422.387 124.68 421.323 123.568 420.555 122.112C419.803 120.64 419.427 118.888 419.427 116.856V101.424H424.107V116.256C424.107 118.224 424.611 119.752 425.619 120.84C426.643 121.928 428.043 122.472 429.819 122.472C431.083 122.472 432.195 122.192 433.155 121.632C434.131 121.072 434.883 120.288 435.411 119.28C435.939 118.272 436.203 117.128 436.203 115.848V101.424H440.883V126ZM448.622 92.4H453.302V126H448.622V92.4ZM470.236 100.848C472.156 100.848 473.844 101.2 475.3 101.904C476.772 102.592 477.916 103.6 478.732 104.928C479.548 106.24 479.956 107.8 479.956 109.608V126H475.396V122.184C474.676 123.608 473.652 124.696 472.324 125.448C470.996 126.2 469.428 126.576 467.62 126.576C466.036 126.576 464.612 126.28 463.348 125.688C462.1 125.08 461.116 124.24 460.396 123.168C459.692 122.08 459.34 120.856 459.34 119.496C459.34 118.2 459.676 117.008 460.348 115.92C461.02 114.816 461.948 113.92 463.132 113.232C464.332 112.528 465.676 112.096 467.164 111.936L473.668 111.24C474.18 111.176 474.58 110.968 474.868 110.616C475.172 110.264 475.324 109.752 475.324 109.08C475.308 107.736 474.828 106.664 473.884 105.864C472.94 105.048 471.7 104.64 470.164 104.64C469.156 104.64 468.244 104.816 467.428 105.168C466.612 105.504 465.956 105.968 465.46 106.56C464.964 107.136 464.66 107.768 464.548 108.456H459.892C460.068 107.016 460.62 105.72 461.548 104.568C462.492 103.4 463.716 102.488 465.22 101.832C466.724 101.176 468.396 100.848 470.236 100.848ZM464.14 119.064C464.14 119.816 464.34 120.488 464.74 121.08C465.156 121.672 465.724 122.136 466.444 122.472C467.18 122.792 468.012 122.952 468.94 122.952C470.204 122.952 471.316 122.696 472.276 122.184C473.252 121.672 474.004 120.952 474.532 120.024C475.06 119.08 475.324 118.008 475.324 116.808V114.288L468.076 115.104C466.908 115.232 465.956 115.656 465.22 116.376C464.5 117.096 464.14 117.992 464.14 119.064ZM495.315 126C494.083 126 492.963 125.736 491.955 125.208C490.963 124.68 490.187 123.952 489.627 123.024C489.067 122.08 488.787 121.024 488.787 119.856L488.763 105.528H484.443L484.467 101.424H487.131C487.739 101.424 488.227 101.232 488.595 100.848C488.979 100.464 489.171 99.976 489.171 99.384V95.424H493.467V101.424H499.371V105.528H493.443L493.467 119.4C493.467 120.12 493.699 120.72 494.163 121.2C494.643 121.664 495.243 121.896 495.963 121.896H499.371V126H495.315ZM505.528 101.424H510.232V126H505.528V101.424ZM510.52 92.4V97.344H505.24V92.4H510.52ZM528.726 126.576C526.342 126.576 524.182 126.024 522.246 124.92C520.31 123.816 518.782 122.288 517.662 120.336C516.558 118.368 516.006 116.16 516.006 113.712C516.006 111.264 516.558 109.064 517.662 107.112C518.782 105.144 520.31 103.608 522.246 102.504C524.198 101.4 526.366 100.848 528.75 100.848C531.15 100.848 533.31 101.4 535.23 102.504C537.166 103.608 538.686 105.144 539.79 107.112C540.894 109.064 541.446 111.264 541.446 113.712C541.446 116.16 540.894 118.368 539.79 120.336C538.686 122.288 537.166 123.816 535.23 124.92C533.294 126.024 531.126 126.576 528.726 126.576ZM520.902 113.712C520.902 115.392 521.246 116.888 521.934 118.2C522.622 119.512 523.566 120.528 524.766 121.248C525.966 121.968 527.302 122.328 528.774 122.328C530.246 122.328 531.574 121.968 532.758 121.248C533.958 120.528 534.894 119.52 535.566 118.224C536.238 116.912 536.574 115.408 536.574 113.712C536.574 112.016 536.23 110.52 535.542 109.224C534.87 107.912 533.934 106.896 532.734 106.176C531.55 105.44 530.222 105.072 528.75 105.072C527.278 105.072 525.942 105.44 524.742 106.176C523.558 106.896 522.622 107.912 521.934 109.224C521.246 110.536 520.902 112.032 520.902 113.712ZM547.247 101.424H551.783V105.24C552.599 103.816 553.679 102.728 555.023 101.976C556.367 101.224 557.927 100.848 559.703 100.848C561.463 100.848 563.023 101.232 564.383 102C565.743 102.752 566.799 103.864 567.551 105.336C568.319 106.792 568.703 108.536 568.703 110.568V126H564.023V111.168C564.023 109.2 563.511 107.672 562.487 106.584C561.479 105.496 560.087 104.952 558.311 104.952C557.047 104.952 555.927 105.232 554.951 105.792C553.991 106.352 553.247 107.136 552.719 108.144C552.191 109.152 551.927 110.296 551.927 111.576V126H547.247V101.424ZM584.386 126.576C582.434 126.576 580.674 126.28 579.106 125.688C577.538 125.08 576.298 124.232 575.386 123.144C574.474 122.056 573.986 120.824 573.922 119.448H578.674C578.738 120.104 579.018 120.696 579.514 121.224C580.01 121.736 580.674 122.144 581.506 122.448C582.354 122.736 583.298 122.88 584.338 122.88C585.362 122.88 586.266 122.72 587.05 122.4C587.85 122.064 588.466 121.608 588.898 121.032C589.346 120.456 589.57 119.8 589.57 119.064C589.57 118.264 589.338 117.592 588.874 117.048C588.426 116.488 587.794 116.136 586.978 115.992L580.882 114.96C578.962 114.64 577.458 113.872 576.37 112.656C575.298 111.44 574.762 109.92 574.762 108.096C574.762 106.752 575.154 105.536 575.938 104.448C576.722 103.344 577.818 102.472 579.226 101.832C580.65 101.192 582.266 100.872 584.074 100.872C585.882 100.872 587.506 101.16 588.946 101.736C590.402 102.312 591.546 103.112 592.378 104.136C593.226 105.16 593.682 106.304 593.746 107.568H588.994C588.946 106.992 588.706 106.48 588.274 106.032C587.842 105.568 587.258 105.208 586.522 104.952C585.802 104.68 584.986 104.544 584.074 104.544C583.162 104.544 582.346 104.696 581.626 105C580.922 105.288 580.37 105.696 579.97 106.224C579.586 106.736 579.394 107.32 579.394 107.976C579.394 108.728 579.61 109.352 580.042 109.848C580.474 110.328 581.098 110.64 581.914 110.784L588.034 111.768C589.314 111.976 590.418 112.416 591.346 113.088C592.29 113.744 593.01 114.576 593.506 115.584C594.002 116.576 594.25 117.664 594.25 118.848C594.25 120.32 593.818 121.648 592.954 122.832C592.106 124 590.93 124.92 589.426 125.592C587.938 126.248 586.258 126.576 584.386 126.576ZM602.161 92.4H607.441L606.793 115.392H602.809L602.161 92.4ZM602.041 120.288H607.825V126.072H602.041V120.288Z" fill="white"/>
</svg>
