<svg width="295" height="213" viewBox="0 0 295 213" fill="none" xmlns="http://www.w3.org/2000/svg">
<path d="M58.6956 209.432L46.6956 197.432L60.1956 189.932L58.6956 209.432Z" fill="#4630E6"/>
<path d="M58.6956 51.9323H252.196V209.432H58.6956V51.9323Z" fill="#4630E6"/>
<rect x="58.6956" y="54.9323" width="190.5" height="151.5" fill="white"/>
<rect x="59.0706" y="55.3073" width="189.75" height="150.75" stroke="#19191C" stroke-opacity="0.2" stroke-width="0.75"/>
<rect x="57.1956" y="53.4323" width="190.5" height="151.5" fill="white"/>
<rect x="57.5706" y="53.8073" width="189.75" height="150.75" stroke="#19191C" stroke-opacity="0.2" stroke-width="0.75"/>
<rect x="249.488" y="90" width="63" height="73.875" transform="rotate(45 249.488 90)" fill="#F4F4F4"/>
<rect x="249.488" y="95.3033" width="55.5" height="55.5" transform="rotate(45 249.488 95.3033)" fill="#FF008B"/>
<mask id="mask0_326_18277" style="mask-type:alpha" maskUnits="userSpaceOnUse" x="210" y="95" width="79" height="79">
<rect x="249.488" y="95.3033" width="55.5" height="55.5" transform="rotate(45 249.488 95.3033)" fill="#19191C"/>
</mask>
<g mask="url(#mask0_326_18277)">
<rect x="258.967" y="116.45" width="13.5" height="5.25" transform="rotate(45 258.967 116.45)" fill="#EAC59F"/>
<path d="M228.233 205.314C229.241 206.231 230.817 206.196 231.793 205.22L236.256 200.757C236.87 200.143 237.213 199.312 237.213 198.445L237.213 179.523C237.213 177.245 236.402 175.041 234.922 173.307L234.239 172.508" stroke="white" stroke-width="0.1875" stroke-linecap="round" stroke-linejoin="round"/>
<path d="M258.084 161.995L242.973 179.883L237.303 194.327L220.955 185.246L228.202 175.157L260.126 145.449L260.695 146.972C262.603 152.083 261.604 157.825 258.083 161.994L258.084 161.995Z" fill="#010407"/>
<path d="M215.356 169.354L182.946 202.137L152.998 227.028L163.169 237.199L217.445 189.533C218.051 189.001 218.593 188.4 219.06 187.745L225.169 179.165L215.358 169.354L215.356 169.354Z" fill="#6758F8"/>
<path d="M264.824 129.885C262.188 132.521 258.013 135.272 253.952 131.211C249.891 127.15 252.642 122.975 255.278 120.339C257.913 117.703 262.188 117.703 264.824 120.339C267.459 122.975 267.459 127.249 264.824 129.885Z" fill="#EAC59F"/>
<path d="M260.662 126.598L259.949 127.312C259.768 127.492 259.77 127.785 259.95 127.965C260.13 128.146 260.424 128.146 260.605 127.965L261.318 127.252C261.498 127.072 261.497 126.779 261.317 126.598C261.136 126.418 260.842 126.418 260.662 126.598Z" fill="black"/>
<path d="M257.911 123.847L257.197 124.56C257.017 124.741 257.018 125.034 257.199 125.214C257.379 125.394 257.673 125.394 257.854 125.214L258.567 124.501C258.747 124.321 258.746 124.028 258.566 123.847C258.385 123.667 258.091 123.667 257.911 123.847Z" fill="black"/>
<path d="M261.84 118.674C262.688 119.29 262.481 120.476 263.299 121.161C264.767 122.39 263.841 122.666 264.362 123.781C264.797 124.712 265.775 124.799 266.571 125.645C267.526 126.661 265.798 128.911 265.014 129.36L266.11 130.779C266.11 130.779 267.02 130.952 267.679 130.564C269.347 129.583 267.184 128.355 268.824 127.611C269.768 127.182 270.507 126.331 270.395 125.34C270.139 123.109 268.858 123.52 269.54 121.475C270.221 119.431 269.729 118.732 268.911 117.909C267.402 116.392 266.86 117.056 266.059 116.531C265.366 116.077 265.843 115.056 263.62 114.251C262.668 113.906 262.22 114.309 261.147 115.069C259.531 116.213 258.424 114.647 257.582 115.455C256.959 116.054 257.48 116.474 256.78 116.883C256.13 117.262 254.823 116.503 254.354 118.368C254.278 118.663 255.137 118.849 255.195 119.209C255.195 119.209 254.922 118.793 255.772 119.786C255.772 119.786 257.948 117.632 259.305 118.377C260.357 118.954 260.867 117.963 261.84 118.671L261.84 118.674Z" fill="white" stroke="black" stroke-width="0.1875" stroke-linecap="round" stroke-linejoin="round"/>
<path d="M252.419 123.501C253.581 124.319 255.253 123.945 256.155 122.665C257.056 121.384 256.845 119.683 255.683 118.865C254.522 118.047 252.849 118.422 251.948 119.702C251.046 120.983 251.257 122.684 252.419 123.501Z" fill="#EAC59F"/>
<path d="M265.457 133.248C266.737 132.346 267.112 130.674 266.294 129.512C265.476 128.35 263.775 128.14 262.495 129.041C261.215 129.942 260.84 131.615 261.658 132.776C262.476 133.938 264.177 134.149 265.457 133.248Z" fill="#EAC59F"/>
<path d="M255.087 126.273L254.556 125.743C253.657 124.844 253.657 123.386 254.556 122.487L255.412 121.632C256.31 120.733 257.769 120.733 258.668 121.632L259.198 122.162C259.744 122.708 259.959 123.461 259.841 124.171C259.766 124.628 259.551 125.066 259.198 125.418L258.343 126.273C257.444 127.172 255.986 127.172 255.087 126.273Z" stroke="black" stroke-width="0.1875" stroke-miterlimit="10"/>
<path d="M259.421 130.608L258.89 130.077C257.992 129.178 257.992 127.72 258.89 126.821L259.746 125.966C260.08 125.632 260.491 125.422 260.923 125.335C261.652 125.189 262.438 125.4 263.003 125.965L263.534 126.495C264.432 127.394 264.432 128.852 263.534 129.751L262.678 130.606C261.779 131.505 260.321 131.505 259.422 130.606L259.421 130.608Z" stroke="black" stroke-width="0.1875" stroke-miterlimit="10"/>
<path d="M264.204 128.221L265.073 128.504" stroke="black" stroke-width="0.1875" stroke-linecap="round" stroke-linejoin="round"/>
<path d="M257.052 120.888L256.622 120.053" stroke="black" stroke-width="0.1875" stroke-linecap="round" stroke-linejoin="round"/>
<path d="M258.837 125.75L259.398 126.311" stroke="black" stroke-width="0.1875" stroke-miterlimit="10"/>
<path d="M263.979 130.366C263.979 130.366 264.988 129.527 265.781 130.45" stroke="black" stroke-width="0.1875" stroke-miterlimit="10" stroke-linecap="round"/>
<path d="M254.745 121.132C254.745 121.132 255.584 120.123 254.661 119.33" stroke="black" stroke-width="0.1875" stroke-miterlimit="10" stroke-linecap="round"/>
<path d="M225.029 125.479L206.002 136.968C201.574 139.64 198.025 143.55 195.789 148.215L189.963 162.653L203.394 163.446L206.518 158.156L220.684 140.725L237.225 124.184C233.168 122.787 228.701 123.263 225.028 125.481L225.029 125.479Z" fill="#010407"/>
<path d="M254.327 134.614L250.217 130.504L247.565 130.769L249.421 135.542L254.327 137.531L254.327 134.614Z" fill="white" stroke="black" stroke-width="0.375"/>
<path d="M212.431 172.236L208.272 179.063L222.886 182.691L212.431 172.236Z" fill="white"/>
<path d="M253.317 133.551L250.144 134.512L251.089 131.324" fill="white"/>
<path d="M253.317 133.551L250.144 134.512L251.089 131.324" stroke="black" stroke-width="0.1875" stroke-linecap="round" stroke-linejoin="round"/>
<path d="M215.376 169.845L210.715 175.01L181.42 196.536L181.961 229.273L165.022 230.212L167.192 192.496C166.69 189.588 167.863 186.644 170.23 184.879L184.656 174.12L190.71 168.231L205.192 158.803L215.378 169.845L215.376 169.845Z" fill="#6758F8"/>
<path d="M257.471 137.705L254.872 137.177C251.404 136.472 248.694 133.762 247.988 130.293L247.461 127.695L237.228 124.184L228.214 128.847L201.637 161.479L223.109 182.951L261.268 148.502L257.472 137.703L257.471 137.705Z" fill="#010407"/>
<path d="M251.089 131.324L245.696 131.324L244.586 126.708L249.309 126.708L251.089 131.324Z" fill="white" stroke="black" stroke-width="0.1875" stroke-linecap="round" stroke-linejoin="round"/>
<path d="M253.317 133.551L253.315 138.943L257.931 140.053L257.932 135.331L253.317 133.551Z" fill="white" stroke="black" stroke-width="0.1875" stroke-linecap="round" stroke-linejoin="round"/>
<path d="M207.95 153.727L211.101 143.891" stroke="white" stroke-width="0.1875" stroke-linecap="round" stroke-linejoin="round"/>
<path d="M212.404 172.209L205.578 176.368L201.636 161.481L212.404 172.209Z" fill="white"/>
<path d="M251.107 160.223L224.082 182.23C223.552 182.662 222.782 182.621 222.299 182.136L202.491 162.328C202.006 161.845 201.965 161.075 202.397 160.545L224.404 133.52" stroke="white" stroke-width="0.1875" stroke-linecap="round" stroke-linejoin="round"/>
</g>
<path d="M214.026 144.818L214.312 145.104L211.899 147.517L211.613 147.231L214.026 144.818ZM214.351 146.439L214.616 146.705L214.318 147.003C214.48 146.947 214.637 146.936 214.789 146.97C214.941 147.006 215.081 147.087 215.208 147.213C215.34 147.345 215.423 147.492 215.457 147.653C215.492 147.814 215.476 147.976 215.409 148.139C215.58 148.08 215.748 148.07 215.912 148.108C216.077 148.146 216.225 148.231 216.357 148.363C216.482 148.488 216.565 148.628 216.604 148.782C216.645 148.936 216.64 149.092 216.59 149.251C216.539 149.409 216.444 149.558 216.305 149.697L215.192 150.81L214.916 150.535L216.018 149.433C216.164 149.287 216.242 149.136 216.252 148.978C216.263 148.822 216.203 148.678 216.071 148.546C215.977 148.451 215.872 148.39 215.757 148.363C215.644 148.334 215.528 148.34 215.409 148.38C215.292 148.419 215.18 148.492 215.073 148.599L214.027 149.645L213.751 149.369L214.852 148.268C214.998 148.122 215.077 147.97 215.087 147.813C215.098 147.657 215.038 147.513 214.906 147.38C214.811 147.285 214.706 147.223 214.592 147.194C214.478 147.166 214.362 147.171 214.244 147.212C214.127 147.253 214.015 147.327 213.908 147.434L212.862 148.48L212.586 148.204L214.351 146.439ZM215.875 152.679C215.746 152.55 215.647 152.411 215.578 152.262C215.509 152.112 215.475 151.965 215.476 151.819C215.478 151.673 215.516 151.541 215.592 151.424L215.868 151.7C215.825 151.816 215.827 151.939 215.875 152.069C215.922 152.201 215.999 152.321 216.107 152.429C216.22 152.541 216.341 152.617 216.471 152.655C216.601 152.695 216.729 152.697 216.857 152.662C216.985 152.626 217.102 152.555 217.209 152.448L217.281 152.375L217.464 152.203C217.297 152.232 217.133 152.22 216.972 152.167C216.813 152.115 216.669 152.026 216.542 151.898C216.392 151.749 216.293 151.578 216.243 151.386C216.195 151.193 216.2 150.999 216.257 150.804C216.316 150.607 216.425 150.429 216.585 150.269C216.744 150.109 216.923 150 217.119 149.942C217.315 149.883 217.51 149.878 217.703 149.926C217.896 149.974 218.068 150.073 218.217 150.223C218.347 150.353 218.437 150.5 218.488 150.666C218.539 150.83 218.548 150.998 218.515 151.169L218.798 150.886L219.065 151.153L217.484 152.724C217.332 152.876 217.162 152.978 216.974 153.027C216.786 153.077 216.596 153.073 216.405 153.013C216.215 152.953 216.038 152.842 215.875 152.679ZM216.874 150.559C216.763 150.67 216.685 150.795 216.642 150.933C216.599 151.072 216.594 151.21 216.628 151.346C216.661 151.483 216.731 151.604 216.836 151.71C216.941 151.815 217.061 151.883 217.197 151.915C217.333 151.949 217.472 151.945 217.612 151.903C217.752 151.862 217.878 151.785 217.989 151.674C218.102 151.561 218.179 151.435 218.22 151.295C218.262 151.155 218.266 151.016 218.232 150.879C218.201 150.743 218.134 150.622 218.029 150.517C217.923 150.412 217.802 150.343 217.664 150.311C217.527 150.277 217.389 150.282 217.25 150.324C217.112 150.368 216.987 150.446 216.874 150.559ZM220.366 155.399C220.193 155.439 220.021 155.433 219.851 155.38C219.683 155.327 219.529 155.23 219.387 155.088C219.223 154.924 219.115 154.739 219.063 154.533C219.014 154.328 219.023 154.119 219.091 153.906C219.16 153.695 219.284 153.499 219.465 153.318C219.645 153.138 219.841 153.013 220.053 152.944C220.265 152.876 220.474 152.868 220.678 152.918C220.885 152.969 221.071 153.076 221.235 153.241C221.376 153.382 221.473 153.537 221.525 153.706C221.579 153.875 221.585 154.046 221.545 154.22L222.486 153.279L222.762 153.554L220.349 155.967L220.073 155.692L220.366 155.399ZM219.754 153.608C219.622 153.74 219.53 153.882 219.479 154.035C219.428 154.187 219.419 154.337 219.453 154.485C219.487 154.632 219.563 154.764 219.68 154.882C219.788 154.99 219.909 155.063 220.042 155.102C220.178 155.141 220.315 155.144 220.454 155.111C220.595 155.077 220.73 155.01 220.857 154.907L221.054 154.711C221.156 154.583 221.223 154.45 221.256 154.309C221.29 154.169 221.287 154.032 221.247 153.897C221.209 153.763 221.136 153.642 221.028 153.534C220.911 153.417 220.778 153.341 220.63 153.308C220.483 153.273 220.333 153.282 220.18 153.334C220.028 153.384 219.887 153.476 219.754 153.608ZM221.618 157.319C221.453 157.154 221.344 156.966 221.291 156.754C221.238 156.543 221.244 156.33 221.31 156.115C221.378 155.9 221.501 155.703 221.679 155.525C221.852 155.352 222.046 155.232 222.261 155.167C222.477 155.102 222.691 155.097 222.902 155.149C223.115 155.201 223.303 155.309 223.466 155.472C223.633 155.638 223.739 155.824 223.785 156.028C223.832 156.234 223.819 156.441 223.747 156.649C223.676 156.858 223.552 157.051 223.375 157.228L223.307 157.295L221.889 155.877C221.78 156.009 221.706 156.149 221.667 156.296C221.628 156.443 221.626 156.586 221.661 156.725C221.697 156.864 221.769 156.987 221.877 157.095C221.993 157.211 222.116 157.292 222.247 157.338C222.378 157.384 222.501 157.391 222.615 157.357L222.89 157.633C222.796 157.686 222.679 157.716 222.539 157.723C222.4 157.731 222.249 157.703 222.085 157.638C221.923 157.575 221.768 157.469 221.618 157.319ZM223.249 156.782C223.387 156.598 223.455 156.412 223.454 156.225C223.454 156.039 223.378 155.87 223.226 155.718C223.124 155.616 223.011 155.545 222.887 155.506C222.764 155.466 222.636 155.459 222.504 155.486C222.373 155.511 222.246 155.568 222.123 155.656L223.249 156.782ZM223.502 159.203C223.369 159.07 223.27 158.928 223.204 158.778C223.14 158.628 223.113 158.484 223.125 158.343C223.139 158.203 223.192 158.083 223.283 157.981L223.564 158.262C223.516 158.32 223.49 158.389 223.487 158.471C223.485 158.551 223.504 158.636 223.544 158.724C223.584 158.813 223.644 158.897 223.723 158.976C223.803 159.056 223.887 159.114 223.975 159.148C224.063 159.184 224.148 159.195 224.228 159.181C224.31 159.168 224.38 159.132 224.44 159.072C224.504 159.008 224.54 158.936 224.547 158.855C224.556 158.775 224.534 158.697 224.481 158.621L224.133 158.118C224.023 157.957 223.972 157.796 223.98 157.637C223.989 157.476 224.059 157.331 224.188 157.201C224.281 157.108 224.392 157.05 224.521 157.027C224.652 157.004 224.788 157.018 224.93 157.07C225.071 157.121 225.204 157.209 225.328 157.333C225.451 157.456 225.541 157.587 225.6 157.726C225.659 157.865 225.682 158 225.669 158.13C225.656 158.26 225.609 158.37 225.526 158.462L225.245 158.181C225.287 158.132 225.31 158.072 225.312 158C225.316 157.93 225.299 157.857 225.264 157.78C225.228 157.703 225.175 157.629 225.105 157.559C225.034 157.488 224.959 157.437 224.88 157.406C224.8 157.375 224.724 157.365 224.65 157.377C224.579 157.388 224.517 157.42 224.464 157.473C224.404 157.533 224.372 157.599 224.366 157.671C224.36 157.744 224.384 157.818 224.437 157.894L224.795 158.407C224.869 158.513 224.914 158.621 224.931 158.733C224.95 158.846 224.94 158.954 224.904 159.057C224.868 159.162 224.809 159.255 224.726 159.338C224.623 159.441 224.5 159.505 224.357 159.528C224.216 159.552 224.07 159.536 223.919 159.479C223.769 159.423 223.63 159.331 223.502 159.203ZM225.395 161.096C225.228 160.929 225.118 160.739 225.064 160.524C225.01 160.309 225.014 160.093 225.078 159.876C225.143 159.658 225.263 159.463 225.436 159.29C225.61 159.116 225.804 158.997 226.02 158.933C226.239 158.868 226.455 158.863 226.67 158.917C226.885 158.971 227.076 159.082 227.242 159.248C227.456 159.462 227.581 159.696 227.616 159.95C227.653 160.203 227.589 160.452 227.423 160.698L227.148 160.422C227.237 160.259 227.265 160.096 227.23 159.932C227.198 159.769 227.119 159.625 226.993 159.498C226.879 159.384 226.748 159.311 226.6 159.278C226.452 159.245 226.303 159.255 226.15 159.307C225.997 159.359 225.856 159.449 225.726 159.579C225.597 159.708 225.507 159.849 225.455 160.001C225.403 160.154 225.393 160.305 225.424 160.453C225.457 160.601 225.531 160.732 225.645 160.846C225.771 160.972 225.915 161.052 226.077 161.086C226.242 161.119 226.405 161.091 226.569 161.001L226.844 161.277C226.685 161.384 226.519 161.446 226.346 161.465C226.174 161.483 226.006 161.46 225.843 161.396C225.68 161.331 225.53 161.231 225.395 161.096ZM228.48 160.569L228.756 160.845L228.463 161.138C228.619 161.094 228.769 161.09 228.911 161.127C229.055 161.163 229.185 161.239 229.301 161.355L229.363 161.417L229.075 161.705L229.003 161.632C228.898 161.528 228.787 161.456 228.668 161.419C228.55 161.381 228.432 161.378 228.315 161.41C228.2 161.442 228.093 161.508 227.993 161.608L226.991 162.61L226.715 162.334L228.48 160.569ZM229.728 161.816L230.004 162.092L228.239 163.857L227.963 163.581L229.728 161.816ZM230.676 161.468L230.348 161.796L230.024 161.472L230.352 161.144L230.676 161.468ZM230.891 162.979L230.579 163.291C230.757 163.247 230.933 163.249 231.108 163.3C231.283 163.351 231.443 163.449 231.589 163.595C231.753 163.759 231.86 163.944 231.91 164.15C231.961 164.355 231.953 164.564 231.884 164.775C231.816 164.988 231.692 165.184 231.511 165.365C231.331 165.545 231.135 165.669 230.922 165.737C230.711 165.806 230.501 165.815 230.295 165.765C230.09 165.714 229.906 165.607 229.741 165.442C229.598 165.299 229.5 165.141 229.448 164.97C229.397 164.799 229.391 164.626 229.433 164.451L228.578 165.306L228.302 165.03L230.622 162.711L230.891 162.979ZM230.015 163.869C229.883 164.001 229.791 164.143 229.74 164.296C229.69 164.449 229.683 164.6 229.717 164.75C229.753 164.898 229.83 165.031 229.948 165.149C230.065 165.267 230.197 165.342 230.345 165.377C230.493 165.41 230.643 165.402 230.794 165.351C230.947 165.299 231.09 165.207 231.222 165.075C231.354 164.943 231.445 164.801 231.496 164.65C231.548 164.497 231.556 164.347 231.522 164.2C231.488 164.051 231.413 163.919 231.296 163.802C231.178 163.683 231.044 163.607 230.894 163.572C230.746 163.537 230.595 163.544 230.441 163.595C230.289 163.645 230.148 163.737 230.015 163.869ZM231.665 167.283C231.581 167.199 231.522 167.105 231.489 167.001C231.458 166.896 231.455 166.793 231.479 166.69C231.504 166.587 231.556 166.496 231.634 166.418L232.735 165.313L232.425 165.003L232.671 164.76L232.863 164.951C232.906 164.995 232.955 165.016 233.009 165.015C233.064 165.015 233.113 164.994 233.156 164.951L233.44 164.667L233.688 164.915L233.257 165.346L233.683 165.772L233.437 166.015L233.011 165.589L231.927 166.677C231.873 166.731 231.845 166.794 231.844 166.866C231.845 166.939 231.873 167.002 231.927 167.056L232.161 167.29L231.916 167.535L231.665 167.283ZM234.178 166.266L234.453 166.542L232.688 168.307L232.413 168.031L234.178 166.266ZM235.126 165.918L234.798 166.245L234.474 165.921L234.802 165.594L235.126 165.918ZM234.015 169.716C233.847 169.549 233.734 169.356 233.676 169.139C233.619 168.922 233.622 168.703 233.683 168.484C233.746 168.265 233.865 168.067 234.039 167.893C234.214 167.718 234.411 167.6 234.629 167.538C234.849 167.476 235.068 167.474 235.286 167.533C235.504 167.59 235.697 167.703 235.865 167.87C236.032 168.038 236.144 168.231 236.201 168.448C236.258 168.664 236.256 168.881 236.194 169.099C236.133 169.319 236.015 169.516 235.839 169.692C235.663 169.868 235.465 169.986 235.246 170.047C235.028 170.109 234.81 170.112 234.593 170.056C234.377 169.998 234.184 169.885 234.015 169.716ZM234.329 168.182C234.197 168.314 234.106 168.458 234.057 168.613C234.009 168.768 234.004 168.921 234.041 169.07C234.079 169.221 234.155 169.353 234.27 169.468C234.385 169.583 234.517 169.658 234.665 169.694C234.813 169.73 234.964 169.723 235.118 169.675C235.273 169.626 235.417 169.535 235.549 169.403C235.681 169.271 235.772 169.127 235.822 168.972C235.871 168.817 235.877 168.664 235.84 168.515C235.805 168.367 235.73 168.235 235.615 168.12C235.5 168.005 235.368 167.93 235.218 167.893C235.069 167.856 234.916 167.862 234.76 167.91C234.605 167.959 234.461 168.05 234.329 168.182ZM237.191 169.28L237.457 169.545L237.171 169.831C237.336 169.785 237.496 169.784 237.651 169.826C237.808 169.87 237.951 169.957 238.082 170.088C238.209 170.215 238.294 170.354 238.337 170.505C238.381 170.657 238.378 170.813 238.327 170.974C238.279 171.135 238.181 171.289 238.034 171.436L236.926 172.544L236.65 172.268L237.731 171.188C237.884 171.035 237.963 170.876 237.969 170.712C237.974 170.548 237.908 170.396 237.769 170.257C237.67 170.158 237.561 170.093 237.441 170.061C237.322 170.028 237.201 170.031 237.079 170.067C236.96 170.104 236.849 170.173 236.748 170.274L235.702 171.32L235.426 171.045L237.191 169.28Z" fill="#19191C"/>
<rect x="79.5" y="39.5" width="63" height="73.875" transform="rotate(-30 79.5 39.5)" fill="#F4F4F4"/>
<rect x="84.6226" y="40.8726" width="55.5" height="55.5" transform="rotate(-30 84.6226 40.8726)" fill="#28B8A0"/>
<mask id="mask1_326_18277" style="mask-type:alpha" maskUnits="userSpaceOnUse" x="84" y="13" width="77" height="76">
<rect x="84.6226" y="40.8726" width="55.5" height="55.5" transform="rotate(-30 84.6226 40.8726)" fill="#19191C"/>
</mask>
<g mask="url(#mask1_326_18277)">
<path d="M142.074 67.3147C142.074 67.3147 162.029 84.0248 171.098 99.2896L190.165 132.316L180.359 137.978L162.218 106.557C162.218 106.557 148.733 89.8873 138.011 84.8512L132.692 76.9374L142.074 67.3147Z" fill="#010407"/>
<path d="M129.36 82.417L130.318 88.5511C130.657 90.7142 131.494 92.77 132.766 94.5521L148.156 114.977L166.166 146.172L176.14 140.414L135.973 70.8432L129.357 82.4164L129.36 82.417Z" fill="#010407"/>
<path d="M109.241 34.5485C109.013 35.8022 108.632 37.1926 107.711 38.5388C107.245 39.2215 104.731 40.81 106.268 46.078C106.462 46.7453 107.146 47.142 107.82 46.9709L130.49 41.5239C131.127 41.3615 131.541 40.7424 131.441 40.0912C131.135 38.0882 130.942 36.4872 126.855 33.7347C124.828 32.3696 124.656 32.571 123.21 31.0202C121.764 29.4694 119.282 26.5319 115.855 27.2447C112.002 28.0461 109.819 31.3846 109.243 34.5516L109.241 34.5485Z" fill="#010407"/>
<path d="M123.146 34.5839C124.012 36.7896 119.679 42.7655 116.963 43.147C114.01 43.5613 109.771 38.4796 110.315 36.3869C111.213 32.924 112.286 29.5675 115.829 29.0702C119.372 28.5729 121.838 31.2534 123.146 34.5839Z" fill="#EAC59F"/>
<path d="M125.309 37.6216C126.02 36.6778 125.949 35.4248 125.151 34.8231C124.352 34.2213 123.128 34.4986 122.417 35.4424C121.706 36.3862 121.776 37.6392 122.575 38.241C123.374 38.8427 124.597 38.5654 125.309 37.6216Z" fill="#EAC59F"/>
<path d="M112.982 36.8046C112.435 35.7572 111.272 35.2835 110.386 35.7466C109.5 36.2097 109.225 37.4343 109.773 38.4817C110.32 39.5291 111.482 40.0028 112.368 39.5397C113.255 39.0766 113.529 37.852 112.982 36.8046Z" fill="#EAC59F"/>
<path d="M114.042 35.6028L114.144 36.5658C114.171 36.8102 113.994 37.0288 113.751 37.0547C113.507 37.0814 113.288 36.9043 113.262 36.6615L113.16 35.6985C113.133 35.4542 113.31 35.2355 113.553 35.2097C113.797 35.1829 114.016 35.3601 114.042 35.6028Z" fill="black"/>
<path d="M117.596 35.1653L117.699 36.1283C117.726 36.3726 117.549 36.5913 117.306 36.6172C117.061 36.6439 116.843 36.4668 116.817 36.224L116.714 35.261C116.687 35.0167 116.864 34.798 117.107 34.7722C117.351 34.7454 117.57 34.9226 117.596 35.1653Z" fill="black"/>
<path d="M110.02 33.5479C110.02 33.5479 115.552 30.722 122.876 32.4078C122.876 32.4078 119.864 27.0751 117.181 27.8344C114.496 28.5946 112.834 29.5483 111.825 30.5756C110.815 31.6054 110.022 33.547 110.022 33.547L110.02 33.5479Z" fill="#010407"/>
<path d="M124.029 35.1671L123.124 33.3951L121.988 34.0511L122.031 35.3563L124.029 35.1671Z" fill="#EAC59F"/>
<path d="M120.447 31.3828C120.447 31.3828 121.316 32.4087 121.855 33.5043C122.178 34.1574 122.972 34.7758 123.718 34.5608L123.185 32.2296L120.447 31.3828Z" fill="#010407"/>
<path d="M112.809 32.6839C112.809 32.6839 112.746 30.455 113.842 29.1201C113.842 29.1201 112.98 31.76 113.943 32.794L112.809 32.6839Z" fill="#EAC59F"/>
<path d="M110.259 35.8187C110.259 35.8187 111.495 33.9416 111.639 32.0003L109.628 33.3611L110.259 35.8187Z" fill="#010407"/>
<path d="M133.488 52.1952L136.713 59.3502" stroke="white" stroke-width="0.17997" stroke-linecap="round" stroke-linejoin="round"/>
<path d="M116.875 61.7867L121.461 68.1561" stroke="white" stroke-width="0.17997" stroke-linecap="round" stroke-linejoin="round"/>
<path d="M154.826 58.5847L136.087 44.4704C134.333 43.1478 132.036 42.7801 129.955 43.4847L121.385 46.3922L118.046 48.3197L111.239 54.2885C109.586 55.7375 108.757 57.9118 109.025 60.0929L111.883 83.3757L122.956 82.0161L121.546 70.532L127.741 77.1983L141.544 69.2292L138.87 60.5301L148.11 67.4934L154.824 58.584L154.826 58.5847Z" fill="#6758F8"/>
<path d="M133.488 52.1952L136.713 59.3502" stroke="white" stroke-width="0.17997" stroke-linecap="round" stroke-linejoin="round"/>
<path d="M116.875 61.7867L121.461 68.1561" stroke="white" stroke-width="0.17997" stroke-linecap="round" stroke-linejoin="round"/>
<path d="M143.523 45.8092L138.253 48.8516C137.532 49.2682 137.007 49.9537 136.791 50.7576L133.401 63.4046L136.434 67.8218L141.343 52.7388L145.977 50.0635C147.152 49.385 147.72 48.1722 146.876 46.7077C146.198 45.5326 144.696 45.1301 143.52 45.8086L143.523 45.8092Z" fill="#EAC59F"/>
<path d="M154.883 71.274C160.299 68.1471 162.155 61.2216 159.028 55.8055C155.901 50.3895 148.976 48.5338 143.56 51.6608C138.144 54.7877 136.288 61.7132 139.415 67.1292C142.542 72.5453 149.467 74.401 154.883 71.274Z" fill="#6758F8"/>
<path d="M144.922 48.6295L140.476 51.1968C139.754 51.6134 139.229 52.2988 139.012 53.1036L135.624 65.7498L140.369 67.0212L143.567 55.083L148.019 52.513C149.252 51.8013 149.954 50.4295 149.1 49.052C148.049 47.3541 146.26 47.855 144.922 48.6279L144.922 48.6295Z" fill="#EAC59F"/>
<path d="M146.973 50.3303L141.703 53.3767C140.983 53.7924 140.458 54.4779 140.243 55.2818L137.573 65.2378L142.317 66.5091L144.796 57.2605L149.481 54.5556C150.409 53.8241 150.996 52.5335 150.328 51.2295C149.65 50.0543 148.148 49.6518 146.973 50.3303Z" fill="#EAC59F"/>
<path d="M148.45 55.1504L142.656 58.496C142.308 58.6967 142.001 58.9634 141.753 59.2791L133.257 70.1338L137.126 73.1574L145.38 62.5921L150.964 59.368C152.172 58.6706 152.564 57.0998 151.801 55.9111C151.086 54.7986 149.593 54.4867 148.447 55.1481L148.45 55.1504Z" fill="#EAC59F"/>
<path d="M149.477 50.3202C149.482 49.9119 149.367 49.4818 149.102 49.0511C148.051 47.3532 146.262 47.854 144.923 48.627L140.477 51.1943C139.755 51.6109 139.23 52.2963 139.013 53.1011L137.969 56.9978" stroke="#010407" stroke-width="0.17997" stroke-linecap="round" stroke-linejoin="round"/>
<path d="M144.796 57.2605L149.481 54.5555C150.409 53.8241 150.996 52.5335 150.328 51.2295C149.65 50.0543 148.148 49.6518 146.973 50.3303L141.703 53.3767C140.983 53.7924 140.458 54.4778 140.243 55.2817L139.22 59.0892" stroke="#010407" stroke-width="0.17997" stroke-linecap="round" stroke-linejoin="round"/>
<path d="M137.126 73.1574L144.944 63.1513C145.233 62.7832 145.589 62.4716 145.994 62.2376L150.964 59.368C152.172 58.6706 152.564 57.0998 151.801 55.9112C151.086 54.7987 149.593 54.4868 148.447 55.1482L142.652 58.4938C142.305 58.6945 141.997 58.9613 141.749 59.2769L140.484 60.8929" stroke="#010407" stroke-width="0.17997" stroke-linecap="round" stroke-linejoin="round"/>
<path d="M124.578 88.7707C129.994 85.6438 131.85 78.7183 128.723 73.3022C125.596 67.8862 118.671 66.0305 113.254 69.1575C107.838 72.2844 105.983 79.2099 109.11 84.6259C112.237 90.042 119.162 91.8977 124.578 88.7707Z" fill="#6758F8"/>
<path d="M108.536 76.4805L110.111 70.6023C110.327 69.7984 110.853 69.1121 111.573 68.6964L122.912 62.15L125.367 66.4034L114.665 72.5826L113.279 77.7527C112.928 79.063 111.903 79.9253 110.271 79.4894C108.962 79.1399 108.183 77.7917 108.535 76.4814L108.536 76.4805Z" fill="#EAC59F"/>
<path d="M111.621 77.1015L112.95 72.1429C113.165 71.339 113.692 70.6527 114.413 70.236L125.752 63.6896L128.208 67.943L117.505 74.1223L116.174 79.0883C115.806 80.4626 114.664 81.4963 113.112 81.0291C111.199 80.4521 111.221 78.5963 111.621 77.1015Z" fill="#EAC59F"/>
<path d="M127.302 86.5745L140.739 71.049C141.348 70.344 141.242 69.2724 140.507 68.6997L133.098 62.9375C132.43 62.4172 131.476 62.4962 130.902 63.1185L119.194 75.8068C118.615 76.4367 118.621 77.4079 119.21 78.0297L127.304 86.5736L127.302 86.5745Z" fill="#6758F8"/>
<path d="M113.796 78.6434L115.375 72.765C115.59 71.9611 116.116 71.2772 116.836 70.8615L125.168 66.0469L127.624 70.3003L119.924 74.7455L118.524 79.9721C118.058 81.058 116.964 81.9598 115.531 81.6523C114.22 81.3012 113.443 79.9546 113.794 78.6443L113.796 78.6434Z" fill="#EAC59F"/>
<path d="M118.833 78.8232L120.565 72.3599C120.669 71.9715 120.847 71.6069 121.087 71.2852L129.373 60.2689L133.332 63.1767L125.226 73.933L123.557 80.1627C123.196 81.5099 121.78 82.2939 120.435 81.8651C119.175 81.4642 118.488 80.1009 118.831 78.8241L118.833 78.8232Z" fill="#EAC59F"/>
<path d="M114.434 81.0634C114.041 81.174 113.597 81.1749 113.112 81.0291C111.199 80.4521 111.221 78.5963 111.621 77.1015L112.95 72.1429C113.165 71.339 113.692 70.6527 114.413 70.236L117.906 68.2195" stroke="#010407" stroke-width="0.17997" stroke-linecap="round" stroke-linejoin="round"/>
<path d="M119.926 74.7446L118.525 79.9712C118.059 81.0571 116.965 81.9589 115.532 81.6514C114.222 81.3003 113.445 79.9537 113.796 78.6433L115.375 72.765C115.59 71.9611 116.116 71.2772 116.836 70.8615L120.249 68.8868" stroke="#010407" stroke-width="0.17997" stroke-linecap="round" stroke-linejoin="round"/>
<path d="M122.912 62.1499L127.206 59.6709C129.377 58.4174 131.959 58.0777 134.381 58.7266L136.711 59.3511L135.069 63.7303L130.518 62.2763L125.365 66.4027L122.021 64.0272L122.909 62.1493L122.912 62.1499Z" fill="#EAC59F"/>
<path d="M133.297 63.2239L125.963 72.9567C125.479 73.6001 125.122 74.3319 124.913 75.1112L123.56 80.1609C123.199 81.5081 121.783 82.2921 120.438 81.8633C119.178 81.4624 118.491 80.0991 118.834 78.8222L120.566 72.359C120.67 71.9706 120.848 71.6059 121.089 71.2843L122.322 69.6452" stroke="#010407" stroke-width="0.17997" stroke-linecap="round" stroke-linejoin="round"/>
<path d="M111.544 79.559C111.184 79.6298 110.775 79.6164 110.316 79.4988C108.984 79.1603 108.188 77.781 108.543 76.4534L110.111 70.6024C110.327 69.7984 110.853 69.1121 111.573 68.6964L127.302 59.6151C129.196 58.5218 131.417 58.1394 133.567 58.5376L134.559 58.7216" stroke="#010407" stroke-width="0.17997" stroke-linecap="round" stroke-linejoin="round"/>
<path d="M116.495 47.2888L121.267 44.5335C121.765 44.2464 122.401 44.417 122.688 44.9142L124.556 48.1498L117.981 51.9463L116.113 48.7107C115.826 48.2135 115.996 47.5768 116.493 47.2897L116.495 47.2888Z" fill="#6758F8"/>
<path d="M147.275 47.9174C147.249 47.5401 147.123 47.1348 146.879 46.7084C146.2 45.5333 144.698 45.1308 143.523 45.8093L138.253 48.8516C137.532 49.2683 137.007 49.9537 136.791 50.7576L133.297 63.2239" stroke="#010407" stroke-width="0.17997" stroke-linecap="round" stroke-linejoin="round"/>
</g>
<path d="M123.272 87.9415L123.622 87.7392L125.329 90.6945L124.978 90.8968L123.272 87.9415ZM124.922 88.047L125.247 87.8593L125.458 88.2245C125.446 88.0534 125.476 87.8991 125.548 87.7615C125.622 87.6231 125.737 87.5092 125.891 87.4198C126.053 87.3264 126.216 87.2838 126.381 87.2922C126.545 87.3005 126.697 87.358 126.838 87.4646C126.825 87.2841 126.859 87.1193 126.938 86.9704C127.017 86.8215 127.138 86.7004 127.299 86.6069C127.453 86.5184 127.609 86.4751 127.768 86.4773C127.927 86.4772 128.077 86.522 128.217 86.6119C128.357 86.7018 128.476 86.8319 128.575 87.0022L129.362 88.3658L129.024 88.5608L128.245 87.2119C128.142 87.0332 128.016 86.9185 127.867 86.8677C127.719 86.8162 127.564 86.8371 127.402 86.9306C127.286 86.9972 127.201 87.0824 127.144 87.1863C127.087 87.2887 127.063 87.4023 127.071 87.5271C127.078 87.6504 127.12 87.7775 127.195 87.9084L127.935 89.1897L127.597 89.3847L126.818 88.0358C126.715 87.8571 126.589 87.7423 126.44 87.6916C126.292 87.6401 126.137 87.661 125.975 87.7545C125.858 87.8219 125.771 87.9068 125.714 88.0093C125.657 88.1117 125.632 88.2253 125.64 88.35C125.65 88.474 125.693 88.6014 125.768 88.7322L126.508 90.0136L126.17 90.2086L124.922 88.047ZM131.343 88.1901C131.186 88.2811 131.026 88.3405 130.864 88.3685C130.702 88.3964 130.55 88.3909 130.41 88.352C130.269 88.3132 130.152 88.2419 130.058 88.1383L130.396 87.9433C130.497 88.0144 130.616 88.044 130.754 88.0321C130.894 88.0208 131.03 87.977 131.162 87.9006C131.3 87.821 131.404 87.7234 131.474 87.6078C131.547 87.4928 131.582 87.3691 131.581 87.2366C131.58 87.1042 131.541 86.9726 131.466 86.8417L131.414 86.753L131.295 86.532C131.28 86.7003 131.226 86.8554 131.133 86.9971C131.042 87.138 130.918 87.2535 130.762 87.3437C130.579 87.4493 130.388 87.5012 130.19 87.4992C129.991 87.4959 129.805 87.4412 129.631 87.3351C129.456 87.2277 129.313 87.0761 129.2 86.8805C129.087 86.6849 129.027 86.4846 129.022 86.2797C129.016 86.0747 129.061 85.8852 129.158 85.7113C129.254 85.5373 129.394 85.3975 129.577 85.2919C129.736 85.2 129.902 85.1511 130.075 85.1451C130.247 85.1377 130.412 85.1722 130.568 85.2487L130.368 84.9026L130.696 84.7136L131.803 86.6467C131.911 86.8339 131.965 87.0243 131.964 87.218C131.964 87.4131 131.911 87.5951 131.804 87.7638C131.697 87.9326 131.543 88.0747 131.343 88.1901ZM129.554 86.6758C129.633 86.8123 129.733 86.9195 129.855 86.9973C129.979 87.0744 130.111 87.1145 130.251 87.1177C130.392 87.1209 130.527 87.0851 130.657 87.0104C130.785 86.9364 130.882 86.8382 130.948 86.7155C131.016 86.5921 131.048 86.4573 131.044 86.3112C131.04 86.165 130.999 86.0237 130.92 85.8872C130.84 85.7493 130.738 85.6422 130.614 85.566C130.489 85.4898 130.356 85.45 130.216 85.4468C130.075 85.4414 129.941 85.4757 129.813 85.5496C129.684 85.6244 129.586 85.7242 129.519 85.849C129.451 85.9725 129.42 86.1069 129.425 86.2522C129.432 86.3966 129.475 86.5378 129.554 86.6758ZM135.133 84.5554C135.127 84.7334 135.076 84.8977 134.981 85.0483C134.887 85.1966 134.753 85.3208 134.58 85.4207C134.379 85.5369 134.172 85.5934 133.96 85.5901C133.749 85.5846 133.549 85.5216 133.361 85.401C133.175 85.2797 133.018 85.1086 132.89 84.8877C132.763 84.6667 132.693 84.4452 132.681 84.2231C132.671 84.0003 132.716 83.7966 132.818 83.6121C132.92 83.4254 133.072 83.274 133.274 83.1578C133.447 83.0579 133.621 83.0048 133.798 82.9985C133.975 82.9901 134.142 83.0277 134.299 83.1115L133.634 81.9589L133.972 81.7639L135.678 84.7192L135.34 84.9142L135.133 84.5554ZM133.245 84.6829C133.338 84.8447 133.452 84.9704 133.586 85.0599C133.72 85.148 133.862 85.1951 134.014 85.2013C134.165 85.2061 134.313 85.167 134.456 85.0842C134.588 85.0078 134.691 84.9103 134.763 84.7916C134.836 84.6708 134.874 84.5389 134.878 84.396C134.882 84.2508 134.851 84.1034 134.786 83.9538L134.647 83.7131C134.55 83.5813 134.438 83.4818 134.311 83.4144C134.185 83.3448 134.051 83.312 133.911 83.3161C133.771 83.3179 133.635 83.357 133.503 83.4334C133.359 83.5163 133.252 83.625 133.182 83.7595C133.11 83.8927 133.08 84.0398 133.09 84.2008C133.1 84.3604 133.151 84.5211 133.245 84.6829ZM137.312 83.8431C137.11 83.9601 136.9 84.0168 136.682 84.0131C136.464 84.0095 136.26 83.9482 136.069 83.8293C135.879 83.7082 135.721 83.5386 135.595 83.3205C135.472 83.108 135.407 82.8895 135.399 82.665C135.393 82.4396 135.443 82.2317 135.549 82.0412C135.654 81.8492 135.806 81.6956 136.006 81.5802C136.21 81.4624 136.417 81.4077 136.626 81.4163C136.837 81.424 137.034 81.4898 137.216 81.6135C137.399 81.7364 137.554 81.9063 137.679 82.123L137.726 82.2053L135.989 83.2084C136.088 83.348 136.204 83.4557 136.336 83.5315C136.468 83.6073 136.606 83.646 136.749 83.6476C136.893 83.6492 137.031 83.6118 137.163 83.5354C137.305 83.4533 137.415 83.355 137.494 83.2404C137.572 83.1257 137.61 83.0092 137.607 82.8907L137.945 82.6957C137.971 82.8003 137.97 82.9213 137.94 83.0585C137.912 83.1949 137.846 83.3335 137.741 83.4745C137.638 83.6146 137.495 83.7375 137.312 83.8431ZM137.215 82.129C137.073 81.9482 136.912 81.8342 136.73 81.7868C136.551 81.7386 136.368 81.7682 136.182 81.8754C136.057 81.9477 135.959 82.0387 135.889 82.1485C135.819 82.2569 135.779 82.3783 135.77 82.5127C135.761 82.6458 135.783 82.7832 135.837 82.9248L137.215 82.129ZM139.62 82.5109C139.457 82.6051 139.294 82.6644 139.132 82.6887C138.971 82.7122 138.824 82.7003 138.692 82.6529C138.56 82.6033 138.457 82.521 138.383 82.406L138.727 82.2074C138.77 82.2689 138.83 82.3118 138.908 82.3363C138.985 82.3593 139.072 82.3629 139.168 82.3469C139.264 82.331 139.36 82.295 139.457 82.2389C139.556 82.182 139.633 82.1159 139.689 82.0405C139.746 81.9642 139.779 81.8855 139.786 81.8042C139.795 81.7221 139.778 81.6445 139.736 81.5713C139.691 81.4925 139.63 81.4394 139.554 81.4119C139.479 81.3822 139.398 81.3831 139.311 81.4145L138.734 81.6205C138.55 81.6854 138.382 81.6933 138.23 81.6442C138.077 81.5937 137.955 81.4889 137.863 81.3299C137.797 81.2159 137.77 81.0938 137.781 80.9636C137.793 80.8311 137.842 80.7033 137.928 80.5801C138.015 80.457 138.134 80.3516 138.286 80.2638C138.437 80.1769 138.587 80.1231 138.736 80.1025C138.886 80.0819 139.021 80.0945 139.144 80.1403C139.266 80.1861 139.36 80.2608 139.428 80.3645L139.084 80.5632C139.047 80.5093 138.995 80.4721 138.926 80.4514C138.859 80.43 138.784 80.4265 138.701 80.441C138.617 80.4554 138.532 80.4875 138.447 80.537C138.359 80.5874 138.29 80.6469 138.24 80.7154C138.189 80.784 138.16 80.8552 138.152 80.9292C138.145 81.001 138.16 81.0693 138.197 81.134C138.24 81.2072 138.295 81.2559 138.363 81.2802C138.432 81.3045 138.51 81.3009 138.596 81.2695L139.185 81.0562C139.307 81.0125 139.423 80.9968 139.535 81.009C139.649 81.0203 139.751 81.0572 139.841 81.1195C139.933 81.1809 140.008 81.2623 140.067 81.3637C140.14 81.4903 140.169 81.6254 140.154 81.769C140.141 81.9118 140.088 82.0486 139.994 82.1794C139.901 82.3102 139.776 82.4207 139.62 82.5109ZM141.938 81.1728C141.734 81.2906 141.521 81.3478 141.299 81.3443C141.078 81.3409 140.87 81.2805 140.677 81.1633C140.484 81.0438 140.326 80.8778 140.204 80.6653C140.081 80.4528 140.016 80.2339 140.01 80.0086C140.005 79.781 140.056 79.5705 140.163 79.3769C140.271 79.1833 140.427 79.0277 140.631 78.9098C140.893 78.7587 141.151 78.6988 141.406 78.7301C141.659 78.76 141.883 78.8867 142.078 79.1102L141.74 79.3052C141.606 79.1764 141.456 79.1075 141.289 79.0986C141.123 79.0874 140.963 79.1265 140.808 79.2159C140.669 79.2964 140.564 79.4039 140.493 79.5384C140.424 79.6721 140.395 79.8195 140.405 79.9805C140.415 80.1415 140.466 80.3015 140.558 80.4606C140.649 80.6182 140.762 80.7417 140.896 80.8312C141.03 80.9207 141.173 80.9697 141.324 80.9781C141.476 80.9842 141.622 80.9471 141.761 80.8667C141.916 80.7773 142.03 80.6587 142.104 80.5108C142.179 80.3607 142.194 80.1953 142.15 80.0145L142.488 79.8195C142.55 80.0014 142.567 80.178 142.54 80.3492C142.513 80.5205 142.448 80.6766 142.343 80.8175C142.239 80.9585 142.104 81.0769 141.938 81.1728ZM142.227 78.0559L142.565 77.8609L142.772 78.2198C142.77 78.0576 142.806 77.9124 142.878 77.7843C142.95 77.6547 143.057 77.549 143.199 77.4669L143.275 77.423L143.478 77.7755L143.39 77.8267C143.261 77.9007 143.164 77.9899 143.097 78.0944C143.029 78.1989 142.996 78.3119 142.997 78.4335C142.998 78.5528 143.034 78.6737 143.105 78.7961L143.813 80.0225L143.475 80.2175L142.227 78.0559ZM143.755 77.1738L144.093 76.9788L145.341 79.1404L145.003 79.3354L143.755 77.1738ZM143.664 76.168L143.896 76.5691L143.499 76.7982L143.267 76.3971L143.664 76.168ZM145.18 76.3514L145.4 76.7335C145.403 76.5498 145.451 76.3802 145.545 76.2246C145.639 76.069 145.776 75.9396 145.955 75.8364C146.156 75.7202 146.362 75.6649 146.574 75.6704C146.786 75.6737 146.985 75.736 147.171 75.8573C147.359 75.9778 147.517 76.1485 147.644 76.3694C147.772 76.5904 147.841 76.8123 147.851 77.0352C147.863 77.2572 147.818 77.4616 147.716 77.6483C147.614 77.8328 147.462 77.9831 147.261 78.0993C147.085 78.2009 146.908 78.2545 146.729 78.2601C146.55 78.2657 146.382 78.226 146.224 78.1408L146.828 79.1878L146.491 79.3828L144.85 76.5415L145.18 76.3514ZM145.812 77.4273C145.905 77.5892 146.019 77.7148 146.153 77.8043C146.288 77.8916 146.432 77.9379 146.586 77.9433C146.738 77.9472 146.887 77.9074 147.032 77.8237C147.175 77.7408 147.283 77.6328 147.354 77.4997C147.424 77.3651 147.455 77.218 147.445 77.0584C147.435 76.8974 147.383 76.736 147.29 76.5742C147.196 76.4123 147.083 76.2874 146.949 76.1993C146.815 76.1098 146.673 76.0627 146.522 76.0579C146.37 76.0517 146.222 76.0901 146.079 76.1729C145.934 76.2566 145.825 76.3661 145.753 76.5015C145.68 76.6355 145.648 76.7834 145.657 76.9452C145.667 77.1048 145.719 77.2655 145.812 77.4273ZM149.537 76.7177C149.434 76.7771 149.328 76.8093 149.218 76.8144C149.109 76.8173 149.009 76.7939 148.916 76.7441C148.823 76.6929 148.748 76.6195 148.693 76.5238L147.911 75.174L147.531 75.3934L147.36 75.0924L147.594 74.9571C147.648 74.9262 147.681 74.8846 147.694 74.8321C147.708 74.7788 147.7 74.7262 147.67 74.6741L147.469 74.3258L147.773 74.1503L148.078 74.678L148.599 74.377L148.77 74.678L148.249 74.979L149.019 76.3077C149.057 76.3738 149.111 76.4168 149.18 76.4366C149.251 76.4543 149.319 76.444 149.385 76.4058L149.672 76.2401L149.845 76.5398L149.537 76.7177ZM149.205 74.0273L149.543 73.8323L150.791 75.9939L150.453 76.1889L149.205 74.0273ZM149.114 73.0216L149.346 73.4226L148.949 73.6518L148.717 73.2507L149.114 73.0216ZM152.496 75.0772C152.29 75.1958 152.075 75.2553 151.85 75.2557C151.626 75.2539 151.415 75.1952 151.219 75.0795C151.023 74.9617 150.864 74.7958 150.74 74.5819C150.617 74.368 150.553 74.1476 150.55 73.9206C150.547 73.6915 150.602 73.4796 150.715 73.285C150.827 73.089 150.986 72.9317 151.191 72.813C151.397 72.6944 151.612 72.636 151.836 72.6378C152.059 72.6383 152.269 72.6967 152.463 72.8131C152.66 72.9287 152.82 73.0942 152.944 73.3095C153.068 73.5249 153.132 73.7464 153.134 73.9741C153.137 74.2011 153.084 74.4121 152.973 74.6073C152.862 74.8011 152.702 74.9577 152.496 75.0772ZM151.095 74.3772C151.188 74.539 151.304 74.6639 151.441 74.7517C151.578 74.8374 151.724 74.8818 151.878 74.8849C152.033 74.8873 152.181 74.8478 152.322 74.7666C152.463 74.6853 152.569 74.5777 152.642 74.4437C152.715 74.3098 152.748 74.1622 152.741 74.001C152.733 73.8384 152.683 73.6761 152.59 73.5143C152.496 73.3524 152.381 73.2276 152.244 73.1397C152.107 73.0518 151.961 73.0063 151.808 73.0032C151.655 72.9992 151.509 73.0379 151.368 73.1191C151.227 73.2004 151.12 73.3084 151.045 73.4432C150.971 73.5779 150.937 73.727 150.943 73.8905C150.951 74.0531 151.002 74.2153 151.095 74.3772ZM152.896 71.8964L153.221 71.7087L153.423 72.0591C153.422 71.8874 153.461 71.7321 153.543 71.5933C153.625 71.4536 153.747 71.3375 153.907 71.2449C154.062 71.1555 154.218 71.1093 154.376 71.1064C154.534 71.1035 154.684 71.1473 154.826 71.2378C154.969 71.326 155.093 71.4602 155.197 71.6403L155.98 72.9977L155.643 73.1927L154.878 71.8691C154.77 71.6819 154.638 71.5643 154.481 71.5162C154.323 71.4682 154.16 71.4933 153.989 71.5916C153.868 71.6615 153.777 71.75 153.715 71.8571C153.653 71.9642 153.624 72.0813 153.628 72.2085C153.632 72.3334 153.67 72.4578 153.742 72.5816L154.482 73.863L154.144 74.058L152.896 71.8964Z" fill="#19191C"/>
<rect x="55.6956" y="51.9323" width="190.5" height="151.5" fill="white"/>
<rect x="56.0706" y="52.3073" width="189.75" height="150.75" stroke="#19191C" stroke-opacity="0.2" stroke-width="0.75"/>
<rect x="54.1956" y="50.4323" width="190.5" height="151.5" fill="white"/>
<rect x="54.5706" y="50.8073" width="189.75" height="150.75" stroke="#19191C" stroke-opacity="0.2" stroke-width="0.75"/>
<rect x="234.188" y="10.5" width="63" height="73.875" transform="rotate(30 234.188 10.5)" fill="#F4F4F4"/>
<rect x="235.56" y="15.6226" width="55.5" height="55.5" transform="rotate(30 235.56 15.6226)" fill="#FC801D"/>
<mask id="mask2_326_18277" style="mask-type:alpha" maskUnits="userSpaceOnUse" x="207" y="15" width="77" height="77">
<rect x="235.56" y="15.6226" width="55.5" height="55.5" transform="rotate(30 235.56 15.6226)" fill="#19191C"/>
</mask>
<g mask="url(#mask2_326_18277)">
<path d="M247.846 61.6178L252.149 64.1022C254.775 65.6181 256.691 68.1146 257.477 71.0448L261.741 96.0692L226.386 75.657L238.732 54.2732L247.845 61.6152L247.846 61.6178Z" fill="#010407"/>
<path d="M237.715 55.7687L233.412 53.2843C230.786 51.7684 227.666 51.3568 224.736 52.1419L198.045 59.2938L236.287 81.3729L248.633 59.9891L237.718 55.768L237.715 55.7687Z" fill="#010407"/>
<path d="M241.235 109.788C247.812 113.586 256.222 111.332 260.02 104.755C263.817 98.1779 261.563 89.7678 254.986 85.9705C248.409 82.1732 239.999 84.4267 236.202 91.0038C232.404 97.5809 234.658 105.991 241.235 109.788Z" fill="#010407"/>
<path d="M250.599 58.5741L241.61 53.3841C241.126 53.1045 240.506 53.2704 240.227 53.7547L238.727 56.3527C238.447 56.837 238.613 57.4562 239.097 57.7358L248.087 62.9258C248.571 63.2054 249.19 63.0395 249.47 62.5552L250.97 59.9572C251.249 59.4729 251.083 58.8537 250.599 58.5741Z" fill="#010407"/>
<path d="M223.612 57.0768L256.463 76.0434L242.619 100.022C240.287 104.062 235.114 105.447 231.075 103.115L212.863 92.6002C208.823 90.2677 207.438 85.0948 209.77 81.0564L223.614 57.0778L223.612 57.0768Z" fill="#010407"/>
<path d="M247.073 54.3731C250.301 56.2371 254.43 55.1309 256.294 51.9024C258.158 48.674 257.051 44.5457 253.823 42.6818C250.594 40.8178 246.466 41.924 244.602 45.1524C242.738 48.3809 243.844 52.5091 247.073 54.3731Z" fill="#EAC59F"/>
<path d="M250.245 47.2064C250.551 46.6755 250.37 45.9968 249.839 45.6906C249.309 45.3843 248.631 45.5664 248.324 46.0973L247.281 47.9046C246.974 48.4355 247.156 49.1142 247.686 49.4204C248.216 49.7267 248.895 49.5446 249.202 49.0137L250.245 47.2064Z" fill="white"/>
<path d="M249.865 47.0845C250.063 46.741 249.946 46.3018 249.602 46.1035C249.259 45.9052 248.819 46.0229 248.621 46.3664L247.662 48.0275C247.464 48.371 247.582 48.8102 247.925 49.0085C248.268 49.2068 248.708 49.0891 248.906 48.7456L249.865 47.0845Z" fill="black"/>
<path d="M253.614 49.1517C253.921 48.6208 253.739 47.9421 253.209 47.6359C252.678 47.3296 252 47.5117 251.693 48.0426L250.65 49.8499C250.343 50.3808 250.525 51.0595 251.055 51.3658C251.586 51.672 252.264 51.4899 252.571 50.959L253.614 49.1517Z" fill="white"/>
<path d="M253.234 49.0298C253.433 48.6863 253.315 48.2471 252.972 48.0488C252.628 47.8505 252.189 47.9682 251.991 48.3117L251.031 49.9728C250.833 50.3163 250.951 50.7555 251.294 50.9538C251.638 51.1521 252.077 51.0344 252.275 50.6909L253.234 49.0298Z" fill="black"/>
<path d="M247.501 40.4349C249.508 41.5937 252.075 40.906 253.233 38.899C254.392 36.8919 253.705 34.3256 251.698 33.1668C249.69 32.008 247.124 32.6957 245.965 34.7027C244.807 36.7098 245.494 39.2761 247.501 40.4349Z" fill="#6BD48E"/>
<path d="M258.93 47.0331C260.937 48.1918 263.503 47.5042 264.662 45.4971C265.82 43.4901 265.133 40.9237 263.126 39.7649C261.119 38.6062 258.552 39.2938 257.394 41.3009C256.235 43.3079 256.923 45.8743 258.93 47.0331Z" fill="#6BD48E"/>
<path d="M258.13 50.477C258.13 50.477 257.21 45.1371 253.606 43.0568C250.414 41.2137 244.919 42.8495 244.919 42.8495L250.05 37.7108C250.05 37.7108 252.353 37.5247 255.689 39.4503C259.238 41.4997 260.014 43.4633 260.014 43.4633L258.13 50.477Z" fill="#6BD48E"/>
<path d="M242.89 46.3634C243.956 46.979 245.32 46.6137 245.935 45.5474C246.551 44.4811 246.185 43.1176 245.119 42.502C244.053 41.8864 242.689 42.2517 242.074 43.318C241.458 44.3843 241.824 45.7478 242.89 46.3634Z" fill="#EAC59F"/>
<path d="M256.101 53.9909C257.167 54.6065 258.531 54.2412 259.146 53.1749C259.762 52.1086 259.397 50.7451 258.33 50.1295C257.264 49.5139 255.901 49.8792 255.285 50.9455C254.669 52.0118 255.035 53.3753 256.101 53.9909Z" fill="#EAC59F"/>
<path d="M248.386 44.0094C249.244 44.5044 249.957 43.1797 250.157 42.8103C250.061 43.2355 250.055 43.7434 250.647 44.0695C251.323 44.4428 251.929 43.7315 252.096 43.408C251.873 43.8987 251.393 45.2173 252.098 45.62C252.706 45.9664 253.488 45.1322 253.664 44.8504C253.536 45.1292 253.219 45.8494 253.659 46.1202C254.243 46.4812 254.623 45.8933 254.879 45.4803C254.65 46.0495 254.496 46.8291 254.854 47.3277C255.211 47.8263 256.126 47.9476 256.629 47.5972C256.961 47.3668 257.124 46.954 257.167 46.55C257.246 45.8122 256.976 45.0652 256.529 44.4739C256.083 43.8825 255.47 43.4333 254.819 43.0792C253.377 42.2946 250.983 40.8362 249.349 40.9624C248.809 41.004 248.297 42.1241 248.05 42.7132C247.907 43.0549 247.949 43.7614 248.386 44.0136L248.386 44.0094Z" fill="#6BD48E"/>
<path d="M255.806 52.4434C255.806 52.4434 257.391 53.0233 258.274 52.0758" stroke="#010407" stroke-width="0.1875" stroke-linecap="round" stroke-linejoin="round"/>
<path d="M244.634 45.9935C244.634 45.9935 243.339 44.9102 243.718 43.6721" stroke="#010407" stroke-width="0.1875" stroke-linecap="round" stroke-linejoin="round"/>
<path d="M255.301 58.8378C255.454 59.2964 255.831 59.8172 256.207 59.6491C256.611 59.4683 256.405 58.4966 256.383 57.9577C256.32 56.3671 256.52 53.5507 257.375 51.78C257.735 51.033 258.257 50.1436 258.765 49.2979C259.818 47.5484 258.308 45.4769 258.308 45.4769C257.818 45.7113 257.184 46.1857 256.874 46.6064C255.653 48.2652 254.034 55.0622 255.298 58.8385L255.301 58.8378Z" fill="#6BD48E"/>
<path d="M239.068 49.4656C238.594 49.5624 237.955 49.4963 237.912 49.0863C237.867 48.6468 238.811 48.3389 239.289 48.0887C240.698 47.3475 243.037 45.7667 244.143 44.1403C244.61 43.4552 245.119 42.5584 245.598 41.6958C246.586 39.9087 249.135 40.181 249.135 40.181C249.177 40.7229 249.083 41.5085 248.874 41.9874C248.048 43.8749 242.971 48.6751 239.069 49.4682L239.068 49.4656Z" fill="#6BD48E"/>
<path d="M236.605 62.6408L236.926 58.3725C237.124 56.9731 238.416 55.9981 239.816 56.1955C241.215 56.3929 242.19 57.6854 241.993 59.0849L241.672 63.3531C241.474 64.7525 240.182 65.7275 238.782 65.5301C237.383 65.3327 236.408 64.0402 236.605 62.6408Z" fill="#EAC59F"/>
<path d="M236.605 62.6408L236.926 58.3725C237.124 56.9731 238.416 55.9981 239.816 56.1955C241.215 56.3929 242.19 57.6854 241.993 59.0849L241.672 63.3531C241.474 64.7525 240.182 65.7275 238.782 65.5301C237.383 65.3327 236.408 64.0402 236.605 62.6408Z" stroke="white" stroke-width="0.1875" stroke-miterlimit="10" stroke-linecap="round"/>
<path d="M221.126 56.5639L204.954 60.8972L207.854 71.7228L221.44 68.0811L221.126 56.5639Z" fill="#EAC59F"/>
<path d="M239.955 53.2701L237.454 52.9186L235.109 69.6089L237.61 69.9604L239.955 53.2701Z" fill="white"/>
<path d="M238.918 51.5788C239.609 51.6759 240.091 52.3154 239.994 53.0062L239.885 53.7786L237.384 53.4271L237.493 52.6547C237.59 51.9639 238.23 51.482 238.92 51.5791L238.918 51.5788Z" fill="#6BD48E"/>
<path d="M235.109 69.6097L237.61 69.9606L236.079 71.7806L235.109 69.6097Z" fill="#6BD48E"/>
<path d="M225.128 55.8843C226.496 55.5178 227.901 56.3313 228.264 57.7013L231.004 68.4007C231.37 69.7659 230.56 71.1688 229.195 71.5346C227.83 71.9004 226.427 71.0904 226.061 69.7253L223.318 59.0115C222.957 57.6491 223.767 56.2503 225.129 55.8852L225.128 55.8843Z" fill="#EAC59F"/>
<path d="M223.496 57.211C222.958 56.6084 221.924 56.3489 221.126 56.5639C219.838 56.9091 219.074 58.2325 219.42 59.5192L220.312 62.9699L219.198 64.8989C218.491 66.1233 218.91 67.6882 220.135 68.3951C221.359 69.102 222.924 68.6826 223.631 67.4583L224.231 66.4191C224.669 65.6608 224.791 64.7592 224.568 63.9116L223.887 61.3187" fill="#EAC59F"/>
<path d="M225.128 55.8843C226.496 55.5178 227.901 56.3313 228.264 57.7013L231.004 68.4007C231.37 69.7659 230.56 71.1688 229.195 71.5346C227.83 71.9004 226.427 71.0904 226.061 69.7253L223.318 59.0115C222.957 57.6491 223.767 56.2503 225.129 55.8852L225.128 55.8843Z" stroke="white" stroke-width="0.1875" stroke-miterlimit="10" stroke-linecap="round"/>
<path d="M219.42 59.5192L220.312 62.9698L219.198 64.8989C218.491 66.1232 218.91 67.6882 220.135 68.3951C221.359 69.1019 222.924 68.6826 223.631 67.4583L224.231 66.419C224.669 65.6607 224.791 64.7591 224.568 63.9116L223.887 61.3187" stroke="white" stroke-width="0.1875" stroke-miterlimit="10" stroke-linecap="round"/>
<path d="M236.914 55.8823C236.548 54.517 235.145 53.7066 233.78 54.0723C232.415 54.438 231.605 55.8413 231.971 57.2067L234.091 65.1176C234.457 66.4829 235.86 67.2933 237.225 66.9276C238.589 66.5619 239.399 65.1586 239.033 63.7933L236.914 55.8823Z" fill="#EAC59F" stroke="white" stroke-width="0.1875" stroke-miterlimit="10" stroke-linecap="round"/>
<path d="M231.857 56.8275C231.491 55.4622 230.088 54.6518 228.723 55.0175C227.358 55.3832 226.548 56.7865 226.914 58.1519L229.251 66.8723C229.617 68.2377 231.02 69.0481 232.385 68.6824C233.749 68.3166 234.559 66.9133 234.193 65.548L231.857 56.8275Z" fill="#EAC59F" stroke="white" stroke-width="0.1875" stroke-miterlimit="10" stroke-linecap="round"/>
<path d="M210.153 55.4592L214.937 58.2211L218.323 70.8585L214.57 77.3586L196.395 66.8652L210.153 55.4592Z" fill="#010407"/>
<path d="M197.126 79.6952C203.703 83.4925 212.113 81.239 215.91 74.6619C219.708 68.0848 217.454 59.6746 210.877 55.8773C204.3 52.08 195.89 54.3335 192.093 60.9106C188.295 67.4878 190.549 75.8979 197.126 79.6952Z" fill="#010407"/>
<path d="M220.014 92.4699L239.8 103.893L246.13 92.9295C246.13 92.9295 243.216 90.6671 242.086 90.2095C239.863 89.3117 237.861 89.7316 237.861 89.7316C237.861 89.7316 235.252 84.9086 231.592 84.536C228.101 84.1812 220.014 92.4699 220.014 92.4699Z" fill="#EAC59F"/>
<path d="M222.527 84.2062L223.802 89.5304C224.168 90.8956 223.358 92.2986 221.993 92.6644C220.628 93.0302 219.225 92.2202 218.859 90.855L217.583 85.5307C217.217 84.1656 218.027 82.7626 219.393 82.3968C220.758 82.031 222.161 82.841 222.527 84.2062Z" fill="#EAC59F"/>
<path d="M224.922 78.951C224.556 77.5857 223.153 76.7753 221.789 77.141C220.424 77.5068 219.614 78.91 219.98 80.2754L222.316 88.9959C222.682 90.3612 224.085 91.1716 225.45 90.8059C226.815 90.4402 227.625 89.0369 227.259 87.6715L224.922 78.951Z" fill="#EAC59F"/>
<path d="M228.082 76.3514C227.716 74.986 226.313 74.1757 224.948 74.5414C223.583 74.9071 222.773 76.3104 223.139 77.6757L225.476 86.3962C225.842 87.7616 227.245 88.5719 228.61 88.2062C229.974 87.8405 230.784 86.4372 230.418 85.0719L228.082 76.3514Z" fill="#EAC59F"/>
<path d="M233.781 81.2208L233.009 87.342C232.812 88.7414 231.519 89.7164 230.12 89.519C228.721 89.3216 227.746 88.0291 227.943 86.6296L228.517 82.616" fill="#EAC59F"/>
<path d="M220.538 82.3546C220.171 82.283 219.779 82.2931 219.393 82.3967C218.027 82.7625 217.217 84.1655 217.583 85.5306L218.859 90.8549C219.041 91.5362 219.484 92.0819 220.051 92.4091L239.837 103.833" stroke="white" stroke-width="0.1875" stroke-miterlimit="10" stroke-linecap="round"/>
<path d="M222.319 88.9945L219.982 80.2733C219.616 78.9081 220.426 77.5052 221.791 77.1394C222.204 77.0289 222.622 77.0254 223.013 77.1127" stroke="white" stroke-width="0.1875" stroke-miterlimit="10" stroke-linecap="round"/>
<path d="M225.994 88.3322L223.139 77.6747C222.773 76.3095 223.583 74.9065 224.948 74.5407C226.313 74.1749 227.716 74.9849 228.082 76.3501L229.12 80.2228" stroke="white" stroke-width="0.1875" stroke-miterlimit="10" stroke-linecap="round"/>
<path d="M232.483 79.4931L234.625 80.7296L230.643 84.3388L229.926 83.9253C229.051 83.42 228.587 82.4765 228.654 81.5321C228.681 81.1557 228.79 80.7792 228.991 80.4301C229.698 79.2058 231.263 78.7864 232.487 79.4933L232.483 79.4931Z" fill="#EAC59F"/>
<path d="M242.087 95.4607L238.35 87.2409C237.766 85.955 238.334 84.4384 239.621 83.852C240.907 83.2672 242.423 83.8354 243.01 85.1223L246.747 93.342C247.164 94.2609 246.994 95.299 246.392 96.0298C246.152 96.322 245.843 96.5639 245.477 96.7293C244.191 97.3141 242.675 96.7459 242.088 95.459L242.087 95.4607Z" fill="#EAC59F"/>
<path d="M239.211 89.5043L238.365 87.1863C237.78 85.9004 238.348 84.3838 239.635 83.7974C240.921 83.2126 242.437 83.7808 243.024 85.0676L246.761 93.2874C247.142 94.1268 247.128 95.16 246.651 95.874" stroke="white" stroke-width="0.1875" stroke-miterlimit="10" stroke-linecap="round"/>
<path d="M222.771 98.262L199.034 122.812L190.118 138.254C189.782 138.837 189.036 139.037 188.453 138.7L172.78 129.652C172.053 129.232 171.958 128.218 172.597 127.671L213.301 92.797L222.77 98.2636L222.771 98.262Z" fill="#6BD48E"/>
<path d="M230.118 89.5181C228.719 89.3207 227.744 88.0282 227.941 86.6287L228.651 81.5303C228.677 81.1539 228.786 80.7774 228.988 80.4283C229.695 79.2039 231.26 78.7846 232.484 79.4915L234.779 80.8162" stroke="white" stroke-width="0.1875" stroke-miterlimit="10" stroke-linecap="round"/>
</g>
<rect x="52.6956" y="48.9323" width="190.5" height="151.5" fill="white"/>
<rect x="53.0706" y="49.3073" width="189.75" height="150.75" stroke="#19191C" stroke-opacity="0.2" stroke-width="0.75"/>
<rect x="51.1956" y="47.4323" width="190.5" height="151.5" fill="white"/>
<rect x="51.5706" y="47.8073" width="189.75" height="150.75" stroke="#19191C" stroke-opacity="0.2" stroke-width="0.75"/>
<rect x="49.6956" y="45.9323" width="190.5" height="151.5" fill="white"/>
<rect x="50.0706" y="46.3073" width="189.75" height="150.75" stroke="#19191C" stroke-opacity="0.2" stroke-width="0.75"/>
<rect x="48.1956" y="44.4323" width="190.5" height="151.5" fill="white"/>
<rect x="48.5706" y="44.8073" width="189.75" height="150.75" stroke="#19191C" stroke-opacity="0.2" stroke-width="0.75"/>
<rect x="46.6956" y="41.4324" width="193.5" height="156" fill="#6B57FF"/>
<rect x="50.4456" y="45.1824" width="186" height="148.5" fill="#4E3BDF"/>
<rect x="50.8206" y="45.5574" width="185.25" height="147.75" stroke="white" stroke-opacity="0.2" stroke-width="0.75"/>
<rect x="52.5" y="47.2499" width="181.5" height="144" fill="#6B57FF"/>
<rect x="52.875" y="47.6249" width="180.75" height="143.25" stroke="white" stroke-opacity="0.2" stroke-width="0.75"/>
<path opacity="0.8" d="M108.881 111.5H114.866C115.841 111.5 116.7 111.687 117.442 112.062C118.185 112.43 118.759 112.951 119.164 113.626C119.569 114.294 119.771 115.07 119.771 115.955C119.771 116.84 119.565 117.624 119.152 118.306C118.747 118.981 118.17 119.506 117.42 119.881C116.67 120.249 115.8 120.432 114.81 120.432H110.074V127.25H108.881V111.5ZM114.866 119.307C115.586 119.307 116.22 119.169 116.767 118.891C117.315 118.614 117.739 118.224 118.039 117.721C118.346 117.211 118.5 116.622 118.5 115.955C118.5 115.295 118.346 114.714 118.039 114.211C117.739 113.709 117.315 113.319 116.767 113.041C116.22 112.764 115.586 112.625 114.866 112.625H110.074V119.307H114.866ZM122.646 111.5H123.771V117.957C124.146 117.162 124.678 116.547 125.368 116.112C126.058 115.677 126.861 115.46 127.776 115.46C128.601 115.46 129.336 115.644 129.981 116.011C130.626 116.371 131.128 116.896 131.488 117.586C131.856 118.269 132.04 119.079 132.04 120.016V127.25H130.892V120.14C130.892 119.39 130.75 118.741 130.465 118.194C130.18 117.639 129.778 117.215 129.261 116.922C128.751 116.63 128.162 116.484 127.495 116.484C126.775 116.484 126.133 116.652 125.571 116.99C125.016 117.327 124.581 117.804 124.266 118.419C123.958 119.026 123.805 119.731 123.805 120.534V127.25H122.646V111.5ZM140.828 127.52C139.763 127.52 138.791 127.261 137.914 126.744C137.044 126.219 136.358 125.499 135.855 124.584C135.353 123.661 135.101 122.63 135.101 121.49C135.101 120.35 135.353 119.322 135.855 118.407C136.358 117.485 137.048 116.765 137.925 116.247C138.803 115.722 139.778 115.46 140.85 115.46C141.915 115.46 142.886 115.722 143.764 116.247C144.641 116.765 145.331 117.485 145.834 118.407C146.336 119.322 146.588 120.35 146.588 121.49C146.588 122.63 146.333 123.661 145.823 124.584C145.32 125.499 144.63 126.219 143.753 126.744C142.875 127.261 141.9 127.52 140.828 127.52ZM136.305 121.49C136.305 122.442 136.504 123.297 136.901 124.055C137.299 124.812 137.843 125.405 138.533 125.832C139.223 126.252 139.991 126.462 140.839 126.462C141.686 126.462 142.455 126.252 143.145 125.832C143.835 125.405 144.379 124.812 144.776 124.055C145.174 123.297 145.373 122.442 145.373 121.49C145.373 120.537 145.174 119.682 144.776 118.925C144.379 118.167 143.835 117.579 143.145 117.159C142.463 116.731 141.698 116.517 140.85 116.517C139.995 116.517 139.223 116.731 138.533 117.159C137.843 117.579 137.299 118.167 136.901 118.925C136.504 119.682 136.305 120.537 136.305 121.49ZM153.32 127.25C152.81 127.25 152.352 127.141 151.947 126.924C151.542 126.706 151.227 126.406 151.002 126.024C150.777 125.634 150.665 125.195 150.665 124.707L150.654 116.776H148.584L148.595 115.73H149.844C150.121 115.73 150.346 115.644 150.519 115.471C150.691 115.291 150.777 115.062 150.777 114.785V112.884H151.812V115.73H154.681V116.776H151.812V124.651C151.812 125.109 151.959 125.484 152.251 125.776C152.544 126.061 152.919 126.204 153.376 126.204H154.681V127.25H153.32ZM162.91 127.52C161.845 127.52 160.874 127.261 159.996 126.744C159.126 126.219 158.44 125.499 157.938 124.584C157.435 123.661 157.184 122.63 157.184 121.49C157.184 120.35 157.435 119.322 157.938 118.407C158.44 117.485 159.13 116.765 160.008 116.247C160.885 115.722 161.86 115.46 162.933 115.46C163.998 115.46 164.969 115.722 165.846 116.247C166.724 116.765 167.414 117.485 167.916 118.407C168.419 119.322 168.67 120.35 168.67 121.49C168.67 122.63 168.415 123.661 167.905 124.584C167.403 125.499 166.713 126.219 165.835 126.744C164.958 127.261 163.983 127.52 162.91 127.52ZM158.388 121.49C158.388 122.442 158.586 123.297 158.984 124.055C159.381 124.812 159.925 125.405 160.615 125.832C161.305 126.252 162.074 126.462 162.921 126.462C163.769 126.462 164.538 126.252 165.228 125.832C165.918 125.405 166.461 124.812 166.859 124.055C167.256 123.297 167.455 122.442 167.455 121.49C167.455 120.537 167.256 119.682 166.859 118.925C166.461 118.167 165.918 117.579 165.228 117.159C164.545 116.731 163.78 116.517 162.933 116.517C162.078 116.517 161.305 116.731 160.615 117.159C159.925 117.579 159.381 118.167 158.984 118.925C158.586 119.682 158.388 120.537 158.388 121.49ZM175.481 127.52C174.649 127.52 173.902 127.381 173.242 127.104C172.582 126.819 172.061 126.429 171.679 125.934C171.304 125.431 171.101 124.869 171.071 124.246H172.241C172.271 124.681 172.425 125.075 172.702 125.427C172.98 125.772 173.355 126.046 173.827 126.249C174.307 126.451 174.855 126.552 175.47 126.552C176.085 126.552 176.621 126.451 177.079 126.249C177.536 126.039 177.889 125.746 178.136 125.371C178.391 124.989 178.519 124.55 178.519 124.055C178.519 123.575 178.372 123.159 178.08 122.806C177.787 122.446 177.401 122.221 176.921 122.131L173.929 121.569C173.171 121.426 172.567 121.096 172.117 120.579C171.667 120.061 171.442 119.435 171.442 118.7C171.442 118.077 171.611 117.522 171.949 117.035C172.286 116.54 172.755 116.154 173.355 115.876C173.955 115.599 174.634 115.46 175.391 115.46C176.164 115.46 176.854 115.595 177.461 115.865C178.076 116.127 178.56 116.491 178.912 116.956C179.265 117.414 179.452 117.927 179.475 118.497H178.305C178.29 118.115 178.159 117.766 177.911 117.451C177.664 117.136 177.322 116.889 176.887 116.709C176.452 116.521 175.954 116.427 175.391 116.427C174.859 116.427 174.379 116.525 173.951 116.72C173.524 116.907 173.19 117.174 172.95 117.519C172.71 117.864 172.59 118.257 172.59 118.7C172.59 119.15 172.725 119.536 172.995 119.859C173.272 120.181 173.647 120.387 174.12 120.477L177.124 121.051C177.634 121.141 178.08 121.329 178.462 121.614C178.845 121.899 179.141 122.251 179.351 122.671C179.561 123.091 179.666 123.541 179.666 124.021C179.666 124.704 179.49 125.311 179.137 125.844C178.785 126.369 178.29 126.781 177.652 127.081C177.022 127.374 176.299 127.52 175.481 127.52Z" fill="white"/>
</svg>
