<?xml version="1.0" encoding="utf-8"?>
<svg width="346" height="249" viewBox="0 0 346 249" fill="none" xmlns="http://www.w3.org/2000/svg">
  <defs/>
  <path d="M145.527 132.633C145.527 132.633 160.087 146.943 144.947 165.283C129.807 183.623 92.8271 171.953 91.8571 150.663C90.8871 129.373 101.187 122.723 116.067 121.093C130.947 119.463 138.437 125.293 145.527 132.633Z" fill="#CB1124"/>
  <path d="M144.477 133.683C146.347 135.523 147.847 138.043 148.877 140.703C151.247 146.823 150.547 153.363 147.397 159.083C144.247 164.803 139.767 169.173 133.657 171.293C128.447 173.103 122.747 173.313 117.347 172.313C107.547 170.503 96.5671 164.443 93.8771 154.123C93.0771 151.043 93.1771 147.713 93.3971 144.563C93.6171 141.413 94.1971 138.223 95.4071 135.283C97.3271 130.603 100.977 127.113 105.587 125.123C111.247 122.673 118.077 121.893 124.167 122.453C130.747 123.053 136.427 126.093 141.237 130.503C142.357 131.523 143.427 132.593 144.477 133.683C145.807 135.063 147.917 132.953 146.577 131.583C141.837 126.683 136.517 122.333 129.827 120.473C122.807 118.523 114.837 119.093 107.887 121.153C102.537 122.733 97.7071 125.713 94.6071 130.443C90.7371 136.333 89.9971 143.923 90.3771 150.793C91.0371 162.803 101.817 171.063 112.557 174.233C124.027 177.623 137.967 176.003 145.997 166.343C151.177 160.103 154.377 152.323 152.927 144.153C152.147 139.753 150.037 135.503 147.087 132.143C146.917 131.953 146.757 131.763 146.577 131.583C145.217 130.233 143.107 132.343 144.477 133.683Z" fill="black"/>
  <path d="M123.337 129.943C122.217 130.433 121.467 131.383 120.507 132.093C119.627 132.743 118.547 133.133 117.457 133.173C115.337 133.253 113.417 132.113 112.387 130.263C111.457 128.593 108.877 130.093 109.817 131.763C111.267 134.373 114.047 136.083 117.037 136.143C118.537 136.173 120.077 135.783 121.387 135.043C122.697 134.303 123.517 133.083 124.837 132.503C125.577 132.183 125.747 131.103 125.367 130.463C124.927 129.703 124.067 129.603 123.327 129.933L123.337 129.943Z" fill="black"/>
  <path d="M99.3571 129.663C99.3571 129.663 107.387 148.433 86.4171 159.653C65.4471 170.873 35.6671 146.023 42.8571 125.973C50.0471 105.913 62.0971 103.673 76.4871 107.813C90.8771 111.953 95.5871 120.193 99.3571 129.673V129.663Z" fill="#CB1124"/>
  <path d="M98.0671 130.413C97.7371 129.643 98.0471 130.383 98.1171 130.573C98.2771 131.013 98.4071 131.453 98.5371 131.903C98.9471 133.383 99.1971 134.813 99.3071 136.223C99.6771 140.933 98.5871 145.583 95.9671 149.543C92.3771 154.963 86.0971 159.173 79.7471 160.493C73.9071 161.713 67.7171 160.493 62.3871 157.973C52.3671 153.233 42.4671 142.803 43.3071 130.943C43.5371 127.703 44.8471 124.593 46.2271 121.693C47.6071 118.793 49.4471 115.723 51.7971 113.303C55.5171 109.463 60.4071 107.553 65.7271 107.563C72.0371 107.563 78.8071 109.483 84.2671 112.583C89.7771 115.703 93.5671 120.483 96.2471 126.143C96.8571 127.433 97.4071 128.743 97.9371 130.063C98.6371 131.823 101.517 131.053 100.807 129.273C98.3871 123.203 95.3671 117.323 90.2371 113.093C84.5071 108.363 77.0471 105.813 69.7371 104.863C64.0171 104.123 58.0571 104.893 53.2171 108.223C47.1971 112.363 43.3771 119.393 41.2171 126.223C37.1971 138.883 46.4471 151.663 56.6571 158.203C62.2271 161.773 68.8471 164.053 75.5171 163.933C82.8571 163.793 89.7871 160.403 94.9971 155.313C101.727 148.753 104.207 138.613 100.967 129.723C100.867 129.453 100.757 129.183 100.647 128.913C99.8971 127.153 97.3371 128.673 98.0771 130.413H98.0671Z" fill="black"/>
  <path d="M78.4671 120.733C77.9071 120.533 77.2871 120.483 76.6971 120.463C76.4371 120.463 76.1771 120.463 75.9271 120.453C75.7971 120.453 75.6671 120.443 75.5471 120.433C75.1671 120.413 75.8671 120.503 75.4971 120.433C75.2771 120.393 75.0571 120.343 74.8371 120.273C74.7271 120.243 74.6271 120.203 74.5171 120.163C74.1671 120.043 74.7971 120.303 74.4571 120.143C74.2571 120.043 74.0571 119.943 73.8571 119.823C73.7571 119.763 73.6671 119.703 73.5771 119.633C73.2671 119.423 73.7971 119.833 73.5171 119.593C73.3471 119.443 73.1771 119.293 73.0271 119.123C72.9571 119.043 72.8471 118.963 72.8071 118.863L72.8971 118.983C72.8471 118.923 72.8071 118.863 72.7671 118.793C72.6371 118.593 72.5171 118.393 72.4071 118.183C72.3671 118.103 72.1771 117.823 72.3671 118.103C72.3071 118.013 72.2771 117.873 72.2471 117.773C72.1771 117.543 72.1271 117.313 72.0771 117.083C72.0071 116.803 72.0771 117.253 72.0771 117.063C72.0771 116.943 72.0571 116.823 72.0471 116.713C72.0371 116.473 72.0471 116.243 72.0571 116.003C72.0571 115.943 72.0671 115.883 72.0771 115.823C72.0471 116.003 72.0471 116.033 72.0671 115.923C72.0971 115.793 72.1171 115.653 72.1571 115.513C72.3371 114.763 71.9171 113.863 71.1171 113.683C70.3171 113.503 69.4871 113.913 69.2871 114.723C68.6971 117.143 69.3971 119.833 71.2571 121.533C72.1371 122.333 73.2171 122.943 74.3871 123.223C74.9771 123.363 75.5971 123.413 76.2071 123.423C76.5071 123.423 76.8071 123.433 77.1071 123.443C77.5071 123.453 76.8271 123.363 77.2171 123.443C77.3871 123.483 77.5471 123.523 77.7071 123.573C78.4471 123.833 79.3671 123.283 79.5371 122.533C79.7271 121.703 79.2871 120.983 78.4971 120.703L78.4671 120.733Z" fill="black"/>
  <path d="M76.9171 116.853C87.0171 112.393 93.3271 102.853 97.1471 92.8533C100.767 83.3933 102.397 73.2733 103.407 63.2333C103.757 59.7733 103.917 56.2833 104.367 52.8433L101.447 53.2434C102.437 57.0934 104.017 60.7733 105.617 64.4033C107.557 68.7933 109.617 73.1434 111.497 77.5634C115.747 87.5334 119.137 98.0633 119.457 108.983C119.667 116.043 118.527 123.003 116.187 129.663C115.547 131.473 118.427 132.253 119.057 130.453C123.137 118.853 123.297 106.523 120.467 94.6234C118.027 84.3934 113.577 74.8534 109.277 65.3134C107.387 61.1334 105.467 56.9133 104.327 52.4533C103.877 50.6933 101.607 51.3033 101.407 52.8533C101.037 55.6933 100.887 58.5633 100.617 61.4133C100.217 65.7533 99.6971 70.0734 98.9571 74.3734C97.2071 84.5234 94.3371 94.9433 88.3371 103.473C85.0371 108.163 80.6771 111.973 75.4171 114.303C73.6671 115.073 75.1771 117.643 76.9171 116.873V116.853Z" fill="black"/>
  <path d="M59.0771 54.7332C83.2671 32.3032 101.727 52.1832 101.727 52.1832C97.4671 55.0632 84.7971 74.8032 59.0771 54.7332Z" fill="#4C8E13"/>
  <path d="M60.1371 55.7832C66.7171 49.7232 75.0071 44.9533 84.2271 45.6033C89.4171 45.9733 94.4171 48.1232 98.5071 51.2832C98.3071 51.1332 98.7671 51.4933 98.8371 51.5533C98.9871 51.6833 99.1471 51.8033 99.2971 51.9333C99.5571 52.1533 99.807 52.3733 100.057 52.6033C100.277 52.8033 100.487 53.0132 100.697 53.2232L100.997 50.8832C99.677 51.7932 98.5671 53.0133 97.4071 54.1133C95.7871 55.6533 94.0971 57.1233 92.2371 58.3633C87.0371 61.8133 80.9771 62.9533 74.8971 61.4233C69.4671 60.0633 64.5471 57.0633 60.1571 53.6633C58.6571 52.5033 56.537 54.5932 58.057 55.7632C65.187 61.2932 73.9471 66.1033 83.2871 64.9133C89.1571 64.1633 94.1871 61.1033 98.4871 57.1833C99.3071 56.4333 100.107 55.6532 100.907 54.8832C101.227 54.5732 101.557 54.2632 101.887 53.9632C102.027 53.8332 102.177 53.7132 102.317 53.5932C102.627 53.3332 102.107 53.7232 102.507 53.4532C103.307 52.9032 103.497 51.8533 102.807 51.1133C100.537 48.6733 97.487 46.7432 94.497 45.3332C87.897 42.2332 80.4671 41.7132 73.5271 44.0132C67.6771 45.9432 62.557 49.5233 58.057 53.6633C56.647 54.9633 58.7571 57.0632 60.1571 55.7632L60.1371 55.7832Z" fill="black"/>
  <path d="M67.7771 78.2732C75.0971 46.1032 101.567 52.1133 101.567 52.1133C99.6671 56.8933 100.337 80.3432 67.7771 78.2732Z" fill="#4C8E13"/>
  <path d="M69.2171 78.6633C71.2171 70.0033 75.2971 61.3333 83.2171 56.6633C87.8271 53.9433 92.9971 52.9232 98.2071 53.2032C98.6871 53.2332 99.1571 53.2633 99.6271 53.3133C99.7971 53.3333 99.9671 53.3533 100.127 53.3733C100.477 53.4133 99.7871 53.3132 100.297 53.3932C100.587 53.4432 100.877 53.4833 101.167 53.5433L100.127 51.7133C99.5771 53.1333 99.3871 54.7033 99.0671 56.1833C98.5771 58.4633 97.9671 60.7332 97.0771 62.8932C94.7771 68.4632 90.2471 72.8833 84.4171 74.9633C79.0971 76.8633 73.3671 77.1133 67.7771 76.7733C65.8671 76.6532 65.8671 79.6332 67.7771 79.7532C76.8171 80.3032 86.7371 79.1633 93.7371 72.8533C98.0371 68.9733 100.417 63.5833 101.707 58.0333C102.127 56.2133 102.317 54.2532 102.997 52.5032C103.277 51.7732 102.687 50.8333 101.957 50.6733C98.6371 49.9233 95.0471 50.0533 91.7171 50.5633C84.4771 51.6633 78.0671 55.5533 73.6171 61.3533C69.9171 66.1833 67.6971 71.9833 66.3371 77.8633C65.9071 79.7233 68.7771 80.5233 69.2071 78.6533L69.2171 78.6633Z" fill="black"/>
</svg>