<?xml version="1.0" encoding="utf-8"?>
<svg width="281" height="303" viewBox="0 0 281 303" fill="none" xmlns="http://www.w3.org/2000/svg">
  <defs/>
  <mask id="mask0_944_520" style="mask-type:alpha" maskUnits="userSpaceOnUse" x="44" y="83" width="197" height="83">
    <path d="M239.5 153.5C239.5 153.496 239.5 153.496 239.499 153.5C239.487 153.542 239.37 153.952 238.231 154.63C237.083 155.314 235.291 156.025 232.844 156.73C227.974 158.132 220.853 159.414 211.969 160.496C194.221 162.658 169.659 164 142.5 164C115.341 164 90.7794 162.658 73.0314 160.496C64.147 159.414 57.0265 158.132 52.1558 156.73C49.709 156.025 47.9173 155.314 46.7685 154.63C45.6298 153.952 45.5133 153.542 45.5014 153.5C45.5001 153.496 45.5 153.496 45.5 153.5C45.5 150.244 45.5062 132.977 55.6512 116.553C65.7204 100.251 85.955 84.5 127 84.5C175.642 84.5 203.736 100.336 219.672 116.808C227.657 125.061 232.625 133.512 235.595 140.29C237.08 143.68 238.062 146.646 238.671 148.951C239.29 151.294 239.5 152.868 239.5 153.5Z" fill="#D9D9D9" stroke="black" stroke-width="3"/>
  </mask>
  <g mask="url(#mask0_944_520)" transform="matrix(1, 0, 0, 1, 8.502864, 6.531229)">
    <path d="M89.9719 189.104C112.378 189.104 130.542 170.94 130.542 148.534C130.542 126.128 112.378 107.964 89.9719 107.964C67.5657 107.964 49.4019 126.128 49.4019 148.534C49.4019 170.94 67.5657 189.104 89.9719 189.104Z" fill="#C3EA78"/>
    <path d="M107.672 183.374C93.1818 190.704 75.1818 188.224 63.2918 177.114C51.4018 166.004 47.5618 147.964 54.1118 132.964C60.6618 117.964 76.4018 108.384 92.8118 109.554C109.222 110.724 123.332 122.434 127.672 138.214C132.012 153.994 126.012 170.734 113.022 180.114C111.322 181.334 109.542 182.424 107.682 183.374C105.982 184.254 107.482 186.824 109.182 185.944C124.652 177.964 133.892 160.754 131.722 143.424C129.552 126.094 116.322 111.264 99.0718 107.464C81.8218 103.664 63.5518 111.334 54.2318 126.364C44.9118 141.394 46.1918 160.934 57.0918 174.744C67.9918 188.554 86.6218 193.924 103.052 188.504C105.162 187.814 107.202 186.934 109.182 185.944C110.892 185.084 109.382 182.514 107.682 183.374H107.672Z" fill="black"/>
    <path d="M97.6119 139.764C97.4119 139.334 97.4319 138.984 97.6119 138.644C97.7919 138.304 97.8519 138.374 97.7219 138.474C97.7519 138.454 98.0719 138.244 97.8719 138.344C97.6719 138.444 97.4719 138.544 97.2719 138.624C97.0719 138.704 96.8619 138.804 96.6719 138.924C96.3519 139.124 96.1219 139.384 95.8519 139.624C95.8319 139.644 95.8019 139.664 95.7819 139.694C95.7019 139.764 95.7319 139.734 95.8919 139.614C95.8619 139.674 95.7419 139.724 95.6919 139.754C95.5519 139.844 95.4119 139.934 95.2619 140.014C94.9519 140.184 94.6219 140.344 94.2919 140.494C93.5319 140.854 92.7819 141.204 92.0219 141.564C91.3119 141.894 91.0819 142.964 91.4919 143.604C91.9619 144.334 92.7719 144.494 93.5319 144.134C94.3819 143.734 95.2419 143.334 96.0919 142.934C96.8619 142.564 97.6719 142.124 98.2419 141.474C98.4019 141.294 98.1319 141.584 98.0919 141.574C98.1119 141.574 98.2219 141.484 98.2519 141.474C98.3619 141.404 98.4919 141.344 98.6119 141.294C98.8519 141.184 99.0919 141.094 99.3219 140.974C99.6819 140.774 100.022 140.484 100.222 140.124C100.552 139.514 100.482 138.894 100.202 138.284C99.8719 137.574 98.7919 137.344 98.1619 137.754C97.4319 138.224 97.2819 139.034 97.6319 139.794L97.6119 139.764Z" fill="#69AA31"/>
    <path d="M102.042 149.284C101.062 149.324 100.092 149.304 99.1118 149.204C99.0018 149.194 98.8918 149.184 98.7718 149.164C98.7018 149.164 98.6218 149.144 98.5518 149.134L98.7218 149.154C98.4618 149.134 98.2018 149.074 97.9418 149.034C97.4618 148.944 96.9818 148.844 96.5118 148.724C95.7618 148.534 94.8618 148.974 94.6818 149.764C94.5018 150.554 94.9118 151.394 95.7218 151.594C97.7718 152.114 99.9118 152.344 102.032 152.254C102.812 152.224 103.562 151.594 103.522 150.764C103.492 149.984 102.862 149.244 102.032 149.274L102.042 149.284Z" fill="#69AA31"/>
    <path d="M78.7318 139.054C79.0318 139.234 79.3118 139.424 79.5918 139.634L79.2918 139.404C79.8918 139.864 80.4218 140.404 80.8818 140.994L80.6518 140.694C81.0518 141.214 81.3818 141.774 81.6618 142.364C81.8118 142.684 82.2218 142.954 82.5518 143.044C82.9118 143.144 83.3818 143.094 83.7018 142.894C84.0218 142.694 84.3018 142.384 84.3818 142.004C84.4718 141.594 84.4118 141.234 84.2318 140.854C83.3918 139.044 81.9518 137.504 80.2418 136.474C79.5718 136.074 78.5818 136.304 78.2018 137.004C77.8218 137.704 78.0218 138.614 78.7318 139.044V139.054Z" fill="#69AA31"/>
    <path d="M73.4718 147.374C75.2718 147.954 77.0918 148.414 78.9418 148.774C79.7018 148.924 80.5818 148.564 80.7718 147.734C80.9418 146.994 80.5518 146.064 79.7318 145.904C77.8818 145.544 76.0518 145.074 74.2618 144.504C73.5218 144.264 72.6018 144.784 72.4318 145.544C72.2418 146.354 72.6818 147.124 73.4718 147.374Z" fill="#69AA31"/>
    <path d="M82.7918 163.654C83.3918 161.494 83.9818 159.344 84.5818 157.184C84.7918 156.434 84.3218 155.534 83.5418 155.354C82.7618 155.174 81.9318 155.594 81.7118 156.394C81.1118 158.554 80.5218 160.704 79.9218 162.864C79.7118 163.614 80.1818 164.514 80.9618 164.694C81.7418 164.874 82.5718 164.454 82.7918 163.654Z" fill="#69AA31"/>
    <path d="M89.0818 158.004C89.0318 159.934 88.9818 161.864 88.9318 163.794C88.9118 164.574 89.6318 165.314 90.4218 165.284C91.2118 165.254 91.8918 164.634 91.9118 163.794C91.9618 161.864 92.0118 159.934 92.0618 158.004C92.0818 157.224 91.3618 156.484 90.5718 156.514C89.7818 156.544 89.1018 157.164 89.0818 158.004Z" fill="#69AA31"/>
  </g>
</svg>