<?xml version="1.0" encoding="utf-8"?>
<svg width="346" height="249" viewBox="0 0 346 249" fill="none" xmlns="http://www.w3.org/2000/svg">
  <defs/>
  <path d="M175.605 124.183C177.295 131.773 183.535 136.653 190.935 138.203C196.375 139.333 198.705 130.983 193.235 129.843C188.625 128.883 185.035 126.673 183.965 121.883C182.755 116.443 174.395 118.743 175.605 124.183Z" fill="black"/>
  <path d="M173.345 124.603C173.065 124.653 173.465 124.603 173.535 124.593C173.685 124.593 173.835 124.593 173.975 124.613C174.115 124.633 174.275 124.643 174.425 124.663C174.015 124.613 175.185 124.763 174.875 124.723C175.405 124.793 175.915 124.813 176.445 124.753C177.645 124.613 178.805 124.233 179.785 123.523C181.745 122.113 182.925 119.743 182.695 117.313C182.625 116.533 182.055 115.773 181.195 115.813C180.445 115.843 179.615 116.473 179.695 117.313C179.715 117.553 179.725 117.793 179.725 118.033C179.725 118.143 179.715 118.253 179.705 118.363C179.685 118.653 179.745 118.243 179.705 118.413C179.645 118.643 179.605 118.883 179.535 119.113C179.505 119.213 179.465 119.313 179.425 119.423C179.375 119.583 179.525 119.243 179.395 119.483C179.295 119.673 179.195 119.873 179.075 120.053C179.005 120.163 178.935 120.273 178.855 120.373C178.985 120.203 178.875 120.333 178.805 120.423C178.655 120.583 178.505 120.743 178.345 120.883C178.255 120.963 178.115 121.053 178.295 120.933C178.185 121.013 178.085 121.083 177.975 121.153C177.785 121.273 177.595 121.373 177.405 121.463C177.045 121.643 177.555 121.423 177.345 121.493C177.245 121.523 177.135 121.563 177.035 121.603C176.805 121.673 176.575 121.713 176.335 121.773C176.155 121.813 176.575 121.763 176.285 121.773C176.175 121.773 176.065 121.783 175.955 121.793C175.705 121.793 175.455 121.783 175.195 121.753L175.045 121.733C175.175 121.753 175.175 121.753 175.075 121.733C174.865 121.703 174.665 121.673 174.455 121.653C173.815 121.573 173.215 121.583 172.575 121.703C171.805 121.853 171.295 122.823 171.525 123.553C171.795 124.383 172.545 124.753 173.375 124.603H173.345Z" fill="black"/>
  <path d="M171.025 133.523C171.025 133.523 195.775 157.213 225.765 130.883C255.755 104.553 234.295 43.1234 198.535 42.5834C162.785 42.0534 152.145 59.6534 150.165 84.7034C148.185 109.743 158.345 122.013 171.025 133.523Z" fill="#FC751A"/>
  <path d="M169.975 134.573C173.795 138.213 178.855 140.853 183.775 142.593C194.885 146.513 206.835 144.853 216.985 139.053C227.205 133.213 235.225 124.533 238.935 113.283C242.085 103.723 242.125 93.2835 240.075 83.4835C238.025 73.6835 233.775 64.3135 227.485 56.5435C221.735 49.4435 213.895 43.6735 204.835 41.7935C199.115 40.6035 193.005 40.9335 187.235 41.6035C181.465 42.2735 176.125 43.5035 170.985 45.8535C162.465 49.7435 156.255 56.7035 152.775 65.3335C150.985 69.7835 149.935 74.5034 149.285 79.2534C148.395 85.7634 148.105 92.3835 148.965 98.9035C149.755 104.893 151.515 110.693 154.395 116.013C156.975 120.783 160.395 125.063 164.145 128.953C166.025 130.903 167.985 132.753 169.985 134.573C171.395 135.863 173.515 133.763 172.085 132.473C164.305 125.393 157.175 117.493 153.855 107.303C150.305 96.4234 150.765 84.0735 153.445 73.0335C155.445 64.8135 159.435 56.9834 166.425 51.9234C175.325 45.4834 186.815 44.0034 197.525 44.0634C206.335 44.1134 214.305 47.6735 220.725 53.6535C227.515 59.9835 232.335 68.3034 235.255 77.0634C238.255 86.0834 239.405 95.9134 237.825 105.323C236.275 114.583 232.075 123.233 225.035 129.553C215.735 137.913 203.465 143.533 190.775 141.343C186.705 140.643 182.775 139.263 179.135 137.303C177.775 136.573 176.465 135.773 175.195 134.903C174.135 134.173 173.725 133.863 172.905 133.173C172.625 132.943 172.355 132.713 172.085 132.463C170.695 131.143 168.595 133.243 169.985 134.563L169.975 134.573Z" fill="black"/>
  <path d="M234.605 84.7135C242.165 86.9535 249.325 84.0635 254.455 78.3335C258.165 74.1835 252.055 68.0334 248.325 72.2034C245.185 75.7034 241.625 77.7435 236.915 76.3535C231.555 74.7635 229.265 83.1335 234.615 84.7135H234.605Z" fill="black"/>
  <path d="M233.945 86.9435C234.095 86.5035 233.885 87.0335 234.005 86.7935C234.065 86.6735 234.135 86.5635 234.205 86.4535C234.355 86.2335 234.515 86.0235 234.675 85.8135C235.025 85.3635 235.335 84.9035 235.565 84.3835C236.085 83.2235 236.335 81.9535 236.185 80.6935C235.905 78.3335 234.445 76.1835 232.255 75.1835C231.515 74.8535 230.645 74.9735 230.205 75.7235C229.825 76.3635 230.005 77.4435 230.745 77.7735C230.945 77.8635 231.145 77.9635 231.335 78.0735C231.445 78.1335 231.545 78.2035 231.645 78.2735C231.715 78.3235 231.815 78.4035 231.695 78.3035C231.865 78.4435 232.025 78.5935 232.175 78.7535C232.245 78.8235 232.305 78.9035 232.375 78.9735C232.475 79.0835 232.315 78.8735 232.455 79.0735C232.585 79.2535 232.695 79.4435 232.805 79.6335C232.855 79.7235 232.895 79.8035 232.935 79.8935C233.005 80.0335 232.905 79.7635 232.985 80.0135C233.055 80.2335 233.125 80.4535 233.175 80.6835C233.175 80.7135 233.225 80.9835 233.215 80.8835C233.205 80.7835 233.235 81.1735 233.235 81.1635C233.275 82.0135 233.115 82.7235 232.685 83.4335C232.135 84.3635 231.415 85.0735 231.045 86.1235C230.785 86.8935 231.345 87.7635 232.095 87.9735C232.915 88.2035 233.675 87.6935 233.945 86.9235V86.9435Z" fill="black"/>
  <path d="M211.965 130.763C255.905 116.893 244.515 80.7434 244.515 80.7434C238.075 83.9334 205.355 85.6834 211.965 130.763Z" fill="#6BA534" stroke="black" stroke-width="2.83" stroke-miterlimit="10"/>
  <path d="M240.175 85.8334C238.115 88.4734 236.305 91.2534 234.805 94.2434C233.215 97.4234 231.785 100.653 229.985 103.723C228.325 106.553 226.695 109.433 224.525 111.903C222.355 114.373 219.955 116.303 217.195 117.923C215.535 118.903 217.035 121.493 218.705 120.513C221.485 118.883 224.035 116.873 226.215 114.503C228.395 112.133 230.185 109.273 231.865 106.433C235.475 100.333 237.895 93.5834 242.295 87.9534C243.465 86.4534 241.365 84.3134 240.175 85.8334Z" fill="#548C1E"/>
</svg>