<?xml version="1.0" encoding="utf-8"?>
<svg width="346" height="249" viewBox="0 0 346 249" fill="none" xmlns="http://www.w3.org/2000/svg">
  <defs/>
  <path d="M183.235 156.353C183.235 156.353 185.195 190.553 225.095 191.733C264.985 192.913 291.155 133.323 265.355 108.563C239.555 83.8034 219.775 89.4334 201.255 106.413C182.735 123.383 181.805 139.293 183.235 156.353Z" fill="#FC751A"/>
  <path d="M181.745 156.353C181.945 159.743 182.875 163.173 184.025 166.343C186.625 173.463 191.045 179.783 197.085 184.393C205.765 191.013 217.455 193.733 228.245 193.183C238.335 192.663 247.725 188.313 255.335 181.783C263.065 175.153 268.915 166.423 272.695 157.003C276.325 147.943 278.015 137.933 276.625 128.223C275.975 123.723 274.585 119.303 272.385 115.323C269.575 110.233 265.365 106.283 260.905 102.623C251.025 94.5133 238.885 88.5333 225.825 90.8833C220.325 91.8733 215.125 94.2734 210.455 97.2934C204.615 101.073 199.215 105.803 194.615 111.013C190.015 116.223 186.125 122.403 183.875 129.163C181.925 135.013 181.245 141.213 181.285 147.353C181.305 150.353 181.495 153.353 181.735 156.353C181.895 158.253 184.875 158.263 184.715 156.353C184.235 150.533 183.985 144.643 184.715 138.833C185.495 132.723 187.475 126.833 190.585 121.523C194.305 115.183 199.425 109.793 205.005 105.063C209.285 101.433 213.985 98.1634 219.175 95.9734C223.935 93.9634 229.085 93.0034 234.245 93.3934C240.125 93.8334 245.735 96.0733 250.775 99.0633C254.045 101.013 257.115 103.283 260.015 105.753C262.375 107.763 264.725 109.843 266.705 112.233C269.365 115.453 271.285 119.263 272.485 123.253C275.085 131.923 274.425 141.313 271.965 149.933C269.335 159.173 264.565 167.893 258.075 174.973C251.585 182.053 243.615 187.313 234.365 189.373C229.215 190.523 223.885 190.443 218.675 189.743C213.465 189.043 208.415 187.613 203.805 185.173C197.005 181.583 191.685 175.913 188.345 169.003C187.205 166.633 186.285 164.093 185.615 161.443C185.375 160.493 185.165 159.533 184.995 158.573C184.935 158.213 184.875 157.863 184.825 157.503C184.765 157.103 184.855 157.823 184.815 157.393C184.805 157.263 184.785 157.133 184.765 157.003C184.745 156.783 184.715 156.563 184.705 156.343C184.595 154.443 181.615 154.423 181.725 156.343L181.745 156.353Z" fill="black"/>
  <path d="M262.975 163.893C266.915 170.643 274.115 173.563 281.745 172.843C287.255 172.323 287.305 163.653 281.745 164.173C277.125 164.613 272.935 163.753 270.465 159.513C267.655 154.703 260.155 159.053 262.975 163.893Z" fill="black"/>
  <path d="M260.985 165.173C261.285 165.013 260.805 165.203 261.105 165.103C261.235 165.063 261.355 165.023 261.485 164.993C261.765 164.923 262.055 164.873 262.345 164.833C262.845 164.743 263.335 164.643 263.815 164.453C264.895 164.023 265.895 163.373 266.645 162.473C268.245 160.533 268.795 157.803 267.805 155.443C267.505 154.723 266.795 154.123 265.955 154.393C265.265 154.613 264.585 155.463 264.905 156.243C265.005 156.473 265.085 156.703 265.145 156.943C265.185 157.073 265.215 157.203 265.235 157.333C265.255 157.463 265.275 157.623 265.255 157.403C265.275 157.653 265.295 157.893 265.285 158.143C265.285 158.253 265.275 158.363 265.265 158.483C265.235 158.903 265.335 158.203 265.245 158.613C265.195 158.853 265.135 159.093 265.065 159.333C265.025 159.443 264.995 159.543 264.945 159.653C265.065 159.363 264.895 159.733 264.875 159.773C264.775 159.973 264.655 160.153 264.525 160.343C264.435 160.463 264.365 160.523 264.505 160.373C264.425 160.463 264.345 160.553 264.265 160.643C264.125 160.793 263.975 160.923 263.825 161.063C263.575 161.293 264.005 160.953 263.745 161.123C263.645 161.193 263.545 161.263 263.445 161.323C263.275 161.433 263.095 161.523 262.915 161.613C262.565 161.793 263.195 161.523 262.825 161.653C262.715 161.693 262.595 161.733 262.485 161.763C261.455 162.063 260.425 162.093 259.455 162.613C258.765 162.983 258.485 164.003 258.915 164.663C259.365 165.363 260.225 165.603 260.965 165.203L260.985 165.173Z" fill="black"/>
  <path d="M215.075 182.243C256.685 202.043 272.985 167.823 272.985 167.823C266.095 165.773 240.965 144.743 215.075 182.243Z" fill="#6BA534" stroke="black" stroke-width="2.83" stroke-miterlimit="10"/>
  <path d="M265.995 168.653C262.825 169.163 259.715 169.963 256.705 171.083C253.515 172.263 250.415 173.613 247.155 174.603C244.095 175.533 240.995 176.533 237.815 176.933C234.445 177.353 231.025 177.173 227.705 176.433C225.825 176.013 225.025 178.903 226.905 179.323C230.235 180.063 233.675 180.343 237.075 180.013C240.475 179.683 243.775 178.733 247.055 177.763C250.335 176.793 253.575 175.473 256.815 174.233C260.055 172.993 263.365 172.093 266.775 171.553C268.675 171.253 267.865 168.363 265.975 168.663L265.995 168.653Z" fill="#548C1E"/>
</svg>