<svg width="108" height="128" viewBox="0 0 108 128" fill="none" xmlns="http://www.w3.org/2000/svg">
<rect width="108" height="128" fill="#F4F4F4"/>
<g clip-path="url(#clip0_831_4101)">
<rect x="4" y="4" width="100" height="100" fill="#28B8A0"/>
<path d="M129.361 -43.5279C129.361 -43.5279 111.464 -0.57462 68.8748 37.6723C26.2855 75.9193 -18.3379 89.1118 -18.3379 89.1118L-38.8643 66.255C-38.8643 66.255 15.8034 44.0423 48.3485 14.8155C80.8936 -14.4113 108.835 -66.3848 108.835 -66.3848L119.191 -54.8525L129.361 -43.5279Z" fill="url(#paint0_radial_831_4101)"/>
<path d="M58.8802 22.4927C56.5902 25.1927 53.7402 28.0077 49.6552 29.9677C47.5852 30.9627 39.3302 31.2927 35.7102 46.1027C35.2502 47.9777 36.3452 49.8827 38.2052 50.4077L100.315 68.7927C102.075 69.2877 103.93 68.3727 104.595 66.6677C106.64 61.4227 108.4 57.3027 102.39 45.0027C99.4102 38.9027 98.7152 39.1477 97.3902 33.4077C96.0652 27.6677 94.1752 17.1527 84.9402 14.1077C74.5552 10.6827 64.6652 15.6827 58.8802 22.5027V22.4927Z" fill="black"/>
<path d="M92.2849 41.8927C91.3049 48.4028 72.5799 56.7628 65.5149 53.9078C57.8349 50.8028 54.6949 32.6878 58.9099 28.4078C65.8799 21.3228 73.1249 14.7378 82.3399 18.4628C91.5549 22.1878 93.7649 32.0627 92.2849 41.8927Z" fill="#EAC59F"/>
<path d="M93.2698 52.2064C96.2922 50.9235 97.8623 47.8106 96.7769 45.2534C95.6914 42.6963 92.3614 41.6632 89.3391 42.9461C86.3168 44.229 84.7466 47.3421 85.8321 49.8992C86.9175 52.4564 90.2475 53.4893 93.2698 52.2064Z" fill="#EAC59F"/>
<path d="M64.7464 33.1173C64.8845 29.8369 62.7464 27.0829 59.9709 26.9661C57.1953 26.8492 54.8334 29.4139 54.6953 32.6943C54.5572 35.9747 56.6954 38.7287 59.4709 38.8455C62.2464 38.9624 64.6083 36.3977 64.7464 33.1173Z" fill="#EAC59F"/>
<path d="M68.9653 31.6977L67.8753 34.1577C67.6003 34.7827 66.8703 35.0627 66.2503 34.7877C65.6253 34.5127 65.3453 33.7827 65.6203 33.1627L66.7103 30.7027C66.9853 30.0777 67.7153 29.7977 68.3353 30.0727C68.9603 30.3477 69.2403 31.0777 68.9653 31.6977Z" fill="black"/>
<path d="M78.125 35.5827L77.035 38.0426C76.76 38.6676 76.03 38.9477 75.41 38.6727C74.785 38.3977 74.505 37.6677 74.78 37.0477L75.87 34.5877C76.145 33.9627 76.875 33.6827 77.495 33.9577C78.12 34.2327 78.4 34.9627 78.125 35.5827Z" fill="black"/>
<path d="M62.145 21.1677C62.145 21.1677 79.38 22.0528 94.66 36.2828C94.66 36.2828 94.82 19.2678 87.31 17.3678C79.795 15.4678 74.47 15.4528 70.615 16.5228C66.755 17.5978 62.15 21.1677 62.15 21.1677H62.145Z" fill="black"/>
<path d="M93.6003 44.5227L93.8853 39.0027H90.2403L88.5303 42.2027L93.6003 44.5227Z" fill="#EAC59F"/>
<path d="M90.2402 30.4427C90.2402 30.4427 90.9052 34.1177 90.6802 37.5027C90.5502 39.5227 91.6002 42.1128 93.6952 42.6328L95.6502 36.2828L90.2402 30.4427Z" fill="black"/>
<path d="M70.0552 22.9628C70.0552 22.9628 73.0002 17.5128 77.4902 15.8228C77.4902 15.8228 71.7502 20.9777 72.6302 24.8027L70.0552 22.9628Z" fill="#EAC59F"/>
<path d="M59.5649 26.9628C59.5649 26.9628 65.1449 24.1627 68.1899 19.6927L61.4599 20.1727L59.5649 26.9628Z" fill="black"/>
<path d="M92.7049 98.6328L90.5249 120.328" stroke="white" stroke-width="0.5" stroke-linecap="round" stroke-linejoin="round"/>
<path d="M39.4102 98.6328L41.5952 120.328" stroke="white" stroke-width="0.5" stroke-linecap="round" stroke-linejoin="round"/>
<path d="M135.17 143.648L109.69 83.6577C107.305 78.0377 102.29 73.9627 96.3051 72.7677L71.6452 67.8577H60.9352L36.2652 72.7627C30.2752 73.9527 25.2602 78.0327 22.8752 83.6527L-2.58984 143.643L25.9402 155.753L38.5002 126.163L44.1452 150.808H88.4252L94.0751 126.163L106.635 155.753L135.165 143.643L135.17 143.648Z" fill="#F3C033"/>
<path d="M92.7049 98.6328L90.5249 120.328" stroke="black" stroke-width="0.25" stroke-linecap="round" stroke-linejoin="round"/>
<path d="M39.4102 98.6328L41.5952 120.328" stroke="white" stroke-width="0.5" stroke-linecap="round" stroke-linejoin="round"/>
<path d="M58.6352 63.2228H73.9452C75.5402 63.2228 76.8352 64.5177 76.8352 66.1127V76.4927H55.7402V66.1127C55.7402 64.5177 57.0352 63.2228 58.6302 63.2228H58.6352Z" fill="#F3C033"/>
<path d="M49.8578 61.1112C50.9622 66.1194 47.7937 71.0918 42.7924 72.2062L42.7698 72.2113L44.4185 79.6868L14.2253 86.2301L7.5881 56.1338C7.12965 54.0545 8.44812 51.9896 10.5277 51.531C12.607 51.0725 14.5294 52.4275 15.1303 54.4703C14.6238 52.7485 15.854 50.592 17.3292 50.1087C17.2769 50.1259 11.1415 41.0841 11.1415 41.0841C10.5582 40.2334 10.3412 39.2064 10.5302 38.1927C10.7195 37.1789 11.2921 36.2991 12.1429 35.7158C12.5539 35.434 13.0075 35.2371 13.4908 35.1307C15.0386 34.7893 16.6167 35.412 17.5116 36.7172L30.609 55.8194L31.8755 55.54L35.7238 32.7006C35.9869 31.1404 37.157 29.9114 38.7049 29.57C39.1881 29.4636 39.6821 29.4513 40.1734 29.5341C41.1891 29.7053 42.078 30.263 42.6768 31.1043C43.2757 31.9455 43.5109 32.9682 43.3399 33.9837L39.995 53.8366C44.6122 53.3905 48.8344 56.4691 49.8581 61.111L49.8578 61.1112ZM39.3204 53.9179C39.3204 53.9179 39.322 53.9175 39.3229 53.9177C39.3222 53.9178 39.3211 53.9178 39.3204 53.9179Z" fill="#EAC59F" stroke="black" stroke-width="0.25"/>
<path d="M15.1301 54.4711C14.6708 52.3882 15.9869 50.3276 18.0697 49.8683C20.1525 49.4089 22.2132 50.7251 22.6725 52.8079L25.1449 64.0195C25.6043 66.1023 24.2882 68.1629 22.2053 68.6223C20.1225 69.0816 18.0619 67.7655 17.6026 65.6827M15.1301 54.4711L17.6026 65.6827M15.1301 54.4711C14.6708 52.3882 12.6102 51.0721 10.5273 51.5315C8.44454 51.9908 7.1284 54.0514 7.58775 56.1342L8.92 62.1761L10.0602 67.3458C10.5195 69.4287 12.5801 70.7448 14.663 70.2854C16.7458 69.8261 18.0619 67.7655 17.6026 65.6827M17.6026 65.6827L16.4825 60.6032" stroke="#231F20" stroke-width="0.246119" stroke-linecap="round" stroke-linejoin="round"/>
<path d="M27.6558 75.5447C28.191 68.9617 32.9425 63.214 39.729 61.7177C39.961 61.6664 40.4209 61.5652 40.4209 61.5652" stroke="#231F20" stroke-width="0.246119" stroke-linecap="round" stroke-linejoin="round"/>
<path d="M40.4513 61.5582L29.1086 64.0597C27.0258 64.5191 24.9652 63.203 24.5058 61.1201C24.0465 59.0373 25.3626 56.9767 27.4454 56.5174L40.1616 53.6971" stroke="#231F20" stroke-width="0.246119" stroke-linecap="round" stroke-linejoin="round"/>
<path d="M15.3507 107.761C21.6359 116.928 34.1622 119.264 43.3291 112.978C52.496 106.693 84.3757 97.5042 78.0905 88.3373C76.3826 85.8464 59.553 76.8185 57.116 75.3724L14.2608 85.2763C11.3535 85.9481 9.52611 88.8337 10.1647 91.7486C11.3163 97.0063 13.2661 104.72 15.3508 107.761L15.3507 107.761Z" fill="#F3C033"/>
<path d="M42.7705 72.2116L48 94" stroke="black" stroke-width="0.246119" stroke-linecap="round" stroke-linejoin="round"/>
</g>
<path d="M6.27238 117.11C5.75171 117.11 5.30071 117.015 4.91938 116.824C4.53804 116.626 4.24104 116.351 4.02838 115.999C3.82304 115.64 3.72038 115.218 3.72038 114.734V111.236C3.72038 110.752 3.82304 110.334 4.02838 109.982C4.24104 109.623 4.53804 109.348 4.91938 109.157C5.30071 108.959 5.75171 108.86 6.27238 108.86C6.78571 108.86 7.23304 108.959 7.61438 109.157C7.99571 109.348 8.29271 109.623 8.50538 109.982C8.71804 110.334 8.82438 110.752 8.82438 111.236H7.43838C7.43838 110.862 7.33571 110.576 7.13038 110.378C6.93238 110.173 6.64638 110.07 6.27238 110.07C5.89838 110.07 5.60871 110.173 5.40338 110.378C5.19804 110.576 5.09538 110.862 5.09538 111.236V114.734C5.09538 115.108 5.19804 115.398 5.40338 115.603C5.60871 115.801 5.89838 115.9 6.27238 115.9C6.64638 115.9 6.93238 115.801 7.13038 115.603C7.33571 115.398 7.43838 115.108 7.43838 114.734H8.82438C8.82438 115.218 8.71804 115.64 8.50538 115.999C8.29271 116.351 7.99571 116.626 7.61438 116.824C7.23304 117.015 6.78571 117.11 6.27238 117.11ZM12.5601 117.099C11.7827 117.099 11.1667 116.883 10.7121 116.45C10.2574 116.01 10.0301 115.42 10.0301 114.679V113.271C10.0301 112.523 10.2574 111.933 10.7121 111.5C11.1667 111.067 11.7827 110.851 12.5601 110.851C13.3374 110.851 13.9534 111.067 14.4081 111.5C14.8627 111.933 15.0901 112.523 15.0901 113.271V114.679C15.0901 115.42 14.8627 116.01 14.4081 116.45C13.9534 116.883 13.3374 117.099 12.5601 117.099ZM12.5601 115.9C12.9267 115.9 13.2091 115.801 13.4071 115.603C13.6124 115.398 13.7151 115.104 13.7151 114.723V113.227C13.7151 112.846 13.6124 112.556 13.4071 112.358C13.2091 112.153 12.9267 112.05 12.5601 112.05C12.1934 112.05 11.9074 112.153 11.7021 112.358C11.5041 112.556 11.4051 112.846 11.4051 113.227V114.723C11.4051 115.104 11.5041 115.398 11.7021 115.603C11.9074 115.801 12.1934 115.9 12.5601 115.9ZM16.4828 117V110.95H17.8248V112.083C17.8981 111.702 18.0778 111.401 18.3638 111.181C18.6498 110.954 19.0128 110.84 19.4528 110.84C20.0468 110.84 20.5198 111.038 20.8718 111.434C21.2311 111.83 21.4108 112.362 21.4108 113.029V117H20.0358V113.194C20.0358 112.82 19.9368 112.534 19.7388 112.336C19.5481 112.131 19.2878 112.028 18.9578 112.028C18.6131 112.028 18.3418 112.131 18.1438 112.336C17.9531 112.541 17.8578 112.835 17.8578 113.216V117H16.4828ZM23.6835 118.98V117.836H25.3885C25.7112 117.836 25.9605 117.748 26.1365 117.572C26.3125 117.403 26.4005 117.172 26.4005 116.879V116.516L26.4225 115.57C26.2978 115.907 26.0962 116.171 25.8175 116.362C25.5462 116.545 25.2125 116.637 24.8165 116.637C24.2005 116.637 23.7092 116.432 23.3425 116.021C22.9832 115.603 22.8035 115.038 22.8035 114.327V113.15C22.8035 112.446 22.9832 111.885 23.3425 111.467C23.7092 111.049 24.2005 110.84 24.8165 110.84C25.2125 110.84 25.5462 110.935 25.8175 111.126C26.0962 111.309 26.2978 111.573 26.4225 111.918V110.95H27.7645V116.912C27.7645 117.55 27.5518 118.052 27.1265 118.419C26.7085 118.793 26.1365 118.98 25.4105 118.98H23.6835ZM25.2785 115.46C25.6305 115.46 25.9018 115.357 26.0925 115.152C26.2905 114.939 26.3895 114.646 26.3895 114.272V113.216C26.3895 112.842 26.2905 112.552 26.0925 112.347C25.9018 112.134 25.6305 112.028 25.2785 112.028C24.9265 112.028 24.6552 112.131 24.4645 112.336C24.2738 112.534 24.1785 112.813 24.1785 113.172V114.316C24.1785 114.675 24.2738 114.958 24.4645 115.163C24.6552 115.361 24.9265 115.46 25.2785 115.46ZM29.4542 117V110.95H30.7962V112.127C30.8695 111.731 31.0492 111.419 31.3352 111.192C31.6285 110.957 32.0062 110.84 32.4682 110.84C33.0842 110.84 33.5645 111.038 33.9092 111.434C34.2539 111.83 34.4262 112.384 34.4262 113.095V113.667H33.0512V113.161C33.0512 112.794 32.9559 112.516 32.7652 112.325C32.5745 112.127 32.3032 112.028 31.9512 112.028C31.5845 112.028 31.3059 112.138 31.1152 112.358C30.9245 112.578 30.8292 112.89 30.8292 113.293V117H29.4542ZM37.3919 117.11C36.7759 117.11 36.2882 116.938 35.9289 116.593C35.5769 116.241 35.4009 115.783 35.4009 115.218C35.4009 114.631 35.6026 114.166 36.0059 113.821C36.4092 113.469 36.9629 113.293 37.6669 113.293H39.1409V112.864C39.1409 112.255 38.7852 111.951 38.0739 111.951C37.7512 111.951 37.4946 112.013 37.3039 112.138C37.1132 112.263 37.0069 112.439 36.9849 112.666H35.6649C35.6942 112.123 35.9216 111.683 36.3469 111.346C36.7796 111.009 37.3589 110.84 38.0849 110.84C38.8549 110.84 39.4526 111.02 39.8779 111.379C40.3032 111.738 40.5159 112.244 40.5159 112.897V117H39.1739V115.867C39.1226 116.256 38.9392 116.56 38.6239 116.78C38.3086 117 37.8979 117.11 37.3919 117.11ZM37.8319 115.988C38.2352 115.988 38.5542 115.889 38.7889 115.691C39.0236 115.493 39.1409 115.229 39.1409 114.899V114.184H37.7329C37.4322 114.184 37.1939 114.268 37.0179 114.437C36.8419 114.606 36.7539 114.822 36.7539 115.086C36.7539 115.357 36.8456 115.577 37.0289 115.746C37.2196 115.907 37.4872 115.988 37.8319 115.988ZM45.0436 117C44.4789 117 44.0279 116.839 43.6906 116.516C43.3606 116.186 43.1956 115.742 43.1956 115.185V112.193H41.5236V110.95H43.1956V109.245H44.5816V110.95H46.9906V112.193H44.5816V115.152C44.5816 115.328 44.6293 115.475 44.7246 115.592C44.8273 115.702 44.9666 115.757 45.1426 115.757H46.9356V117H45.0436ZM50.8143 117.11C50.0443 117.11 49.4393 116.897 48.9993 116.472C48.5593 116.039 48.3393 115.453 48.3393 114.712V110.95H49.7143V114.701C49.7143 115.082 49.8096 115.379 50.0003 115.592C50.191 115.805 50.4623 115.911 50.8143 115.911C51.159 115.911 51.4266 115.805 51.6173 115.592C51.8153 115.379 51.9143 115.082 51.9143 114.701V110.95H53.2893V114.712C53.2893 115.453 53.0656 116.039 52.6183 116.472C52.171 116.897 51.5696 117.11 50.8143 117.11ZM58.169 117C57.5677 117 57.0837 116.82 56.717 116.461C56.3577 116.102 56.178 115.629 56.178 115.042V110.213H54.187V108.97H57.553V115.009C57.553 115.236 57.6153 115.42 57.74 115.559C57.872 115.691 58.048 115.757 58.268 115.757H60.039V117H58.169ZM62.8947 117.11C62.2787 117.11 61.791 116.938 61.4317 116.593C61.0797 116.241 60.9037 115.783 60.9037 115.218C60.9037 114.631 61.1054 114.166 61.5087 113.821C61.912 113.469 62.4657 113.293 63.1697 113.293H64.6437V112.864C64.6437 112.255 64.288 111.951 63.5767 111.951C63.254 111.951 62.9974 112.013 62.8067 112.138C62.616 112.263 62.5097 112.439 62.4877 112.666H61.1677C61.197 112.123 61.4244 111.683 61.8497 111.346C62.2824 111.009 62.8617 110.84 63.5877 110.84C64.3577 110.84 64.9554 111.02 65.3807 111.379C65.806 111.738 66.0187 112.244 66.0187 112.897V117H64.6767V115.867C64.6254 116.256 64.442 116.56 64.1267 116.78C63.8114 117 63.4007 117.11 62.8947 117.11ZM63.3347 115.988C63.738 115.988 64.057 115.889 64.2917 115.691C64.5264 115.493 64.6437 115.229 64.6437 114.899V114.184H63.2357C62.935 114.184 62.6967 114.268 62.5207 114.437C62.3447 114.606 62.2567 114.822 62.2567 115.086C62.2567 115.357 62.3484 115.577 62.5317 115.746C62.7224 115.907 62.99 115.988 63.3347 115.988ZM70.5464 117C69.9817 117 69.5307 116.839 69.1934 116.516C68.8634 116.186 68.6984 115.742 68.6984 115.185V112.193H67.0264V110.95H68.6984V109.245H70.0844V110.95H72.4934V112.193H70.0844V115.152C70.0844 115.328 70.1321 115.475 70.2274 115.592C70.3301 115.702 70.4694 115.757 70.6454 115.757H72.4384V117H70.5464ZM73.8531 117V115.757H75.9211V112.193H74.0731V110.95H77.2961V115.757H79.1551V117H73.8531ZM76.5151 109.938C76.2364 109.938 76.0164 109.868 75.8551 109.729C75.6938 109.582 75.6131 109.388 75.6131 109.146C75.6131 108.904 75.6938 108.713 75.8551 108.574C76.0164 108.427 76.2364 108.354 76.5151 108.354C76.7938 108.354 77.0138 108.427 77.1751 108.574C77.3364 108.713 77.4171 108.904 77.4171 109.146C77.4171 109.388 77.3364 109.582 77.1751 109.729C77.0138 109.868 76.7938 109.938 76.5151 109.938ZM82.6928 117.099C81.9155 117.099 81.2995 116.883 80.8448 116.45C80.3901 116.01 80.1628 115.42 80.1628 114.679V113.271C80.1628 112.523 80.3901 111.933 80.8448 111.5C81.2995 111.067 81.9155 110.851 82.6928 110.851C83.4701 110.851 84.0861 111.067 84.5408 111.5C84.9955 111.933 85.2228 112.523 85.2228 113.271V114.679C85.2228 115.42 84.9955 116.01 84.5408 116.45C84.0861 116.883 83.4701 117.099 82.6928 117.099ZM82.6928 115.9C83.0595 115.9 83.3418 115.801 83.5398 115.603C83.7451 115.398 83.8478 115.104 83.8478 114.723V113.227C83.8478 112.846 83.7451 112.556 83.5398 112.358C83.3418 112.153 83.0595 112.05 82.6928 112.05C82.3261 112.05 82.0401 112.153 81.8348 112.358C81.6368 112.556 81.5378 112.846 81.5378 113.227V114.723C81.5378 115.104 81.6368 115.398 81.8348 115.603C82.0401 115.801 82.3261 115.9 82.6928 115.9ZM86.6155 117V110.95H87.9575V112.083C88.0308 111.702 88.2105 111.401 88.4965 111.181C88.7825 110.954 89.1455 110.84 89.5855 110.84C90.1795 110.84 90.6525 111.038 91.0045 111.434C91.3639 111.83 91.5435 112.362 91.5435 113.029V117H90.1685V113.194C90.1685 112.82 90.0695 112.534 89.8715 112.336C89.6808 112.131 89.4205 112.028 89.0905 112.028C88.7459 112.028 88.4745 112.131 88.2765 112.336C88.0858 112.541 87.9905 112.835 87.9905 113.216V117H86.6155ZM95.1912 117.099C94.4726 117.099 93.9042 116.938 93.4862 116.615C93.0682 116.285 92.8592 115.841 92.8592 115.284H94.2122C94.2122 115.519 94.2966 115.698 94.4652 115.823C94.6412 115.948 94.8832 116.01 95.1912 116.01H95.6752C96.0052 116.01 96.2582 115.948 96.4342 115.823C96.6176 115.698 96.7092 115.519 96.7092 115.284C96.7092 115.064 96.6469 114.903 96.5222 114.8C96.3976 114.69 96.2069 114.617 95.9502 114.58L94.4432 114.382C93.9592 114.316 93.5852 114.129 93.3212 113.821C93.0646 113.513 92.9362 113.113 92.9362 112.622C92.9362 112.05 93.1269 111.614 93.5082 111.313C93.8896 111.005 94.4396 110.851 95.1582 110.851H95.6642C96.3389 110.851 96.8816 111.005 97.2922 111.313C97.7029 111.621 97.9156 112.032 97.9302 112.545H96.5662C96.5589 112.354 96.4746 112.204 96.3132 112.094C96.1519 111.977 95.9356 111.918 95.6642 111.918H95.1582C94.8649 111.918 94.6412 111.98 94.4872 112.105C94.3332 112.222 94.2562 112.384 94.2562 112.589C94.2562 112.772 94.3112 112.908 94.4212 112.996C94.5386 113.084 94.7072 113.139 94.9272 113.161L96.3462 113.359C96.9036 113.425 97.3216 113.623 97.6002 113.953C97.8862 114.276 98.0292 114.712 98.0292 115.262C98.0292 115.849 97.8276 116.303 97.4242 116.626C97.0282 116.941 96.4452 117.099 95.6752 117.099H95.1912ZM101.226 114.503L101.072 108.97H102.568L102.414 114.503H101.226ZM101.655 117.055C101.428 117.055 101.244 116.989 101.105 116.857C100.966 116.718 100.896 116.542 100.896 116.329C100.896 116.116 100.966 115.944 101.105 115.812C101.244 115.673 101.428 115.603 101.655 115.603H101.985C102.22 115.603 102.403 115.673 102.535 115.812C102.674 115.944 102.744 116.116 102.744 116.329C102.744 116.542 102.671 116.718 102.524 116.857C102.385 116.989 102.201 117.055 101.974 117.055H101.655Z" fill="black"/>
<defs>
<radialGradient id="paint0_radial_831_4101" cx="0" cy="0" r="1" gradientUnits="userSpaceOnUse" gradientTransform="translate(-5.95752 38.4338) rotate(-42.5641) scale(115.45 71.4745)">
<stop stop-color="#FE2857"/>
<stop offset="0.584224" stop-color="#AF1DF5"/>
<stop offset="1" stop-color="#6B57FF"/>
</radialGradient>
<clipPath id="clip0_831_4101">
<rect width="100" height="100" fill="white" transform="translate(4 4)"/>
</clipPath>
</defs>
</svg>
