<?xml version="1.0" encoding="utf-8"?>
<svg width="346" height="249" viewBox="0 0 346 249" fill="none" xmlns="http://www.w3.org/2000/svg">
  <defs/>
  <path d="M135.025 168.333C135.025 168.333 161.055 146.063 137.845 113.603C114.635 81.1434 51.3651 96.3834 47.2751 131.903C43.1851 167.423 59.6451 179.763 84.3651 184.223C109.085 188.693 122.305 179.803 135.025 168.333Z" fill="#FC751A"/>
  <path d="M136.075 169.383C139.855 166.143 142.875 161.613 145.015 157.173C149.875 147.103 150.095 135.703 146.005 125.313C141.705 114.413 134.175 104.893 123.575 99.6434C114.635 95.2134 104.425 93.6933 94.5251 94.4233C84.6251 95.1533 74.8051 98.0134 66.2651 103.093C58.3751 107.783 51.5351 114.533 48.0151 123.123C45.9351 128.203 45.4351 133.683 45.2251 139.123C44.9951 145.123 45.3952 151.243 46.9852 157.063C49.5152 166.303 55.3052 173.953 63.6052 178.753C67.7952 181.183 72.4051 182.883 77.0751 184.123C83.3751 185.793 89.9351 186.843 96.4551 186.873C102.975 186.903 109.135 185.853 115.025 183.503C120.365 181.373 125.185 178.313 129.705 174.773C131.895 173.053 134.005 171.233 136.075 169.363C137.505 168.083 135.395 165.983 133.975 167.263C125.775 174.653 116.775 181.033 105.715 183.103C98.9651 184.363 91.9551 184.033 85.2151 182.853C80.3851 182.013 75.5851 180.823 71.0251 179.023C62.9351 175.843 56.0051 170.383 52.1551 162.463C49.9651 157.963 48.8451 152.953 48.4051 147.993C47.8751 142.063 47.9551 135.723 49.0951 129.863C50.7451 121.433 55.9952 114.293 62.6952 109.093C69.9952 103.433 78.8752 99.9033 87.9252 98.2433C96.9752 96.5833 106.895 96.8534 115.865 99.7134C125.325 102.733 133.045 108.693 138.405 117.033C144.845 127.033 148.025 138.963 144.445 150.583C142.585 156.613 139.185 162.203 134.745 166.553C134.495 166.793 134.245 167.033 133.985 167.263C132.525 168.513 134.645 170.613 136.085 169.363L136.075 169.383Z" fill="black"/>
  <path d="M92.9252 99.7934C95.9052 92.4434 93.2551 85.1134 88.1351 79.5034C84.3651 75.3734 78.2452 81.5134 82.0052 85.6334C85.2452 89.1834 86.4152 92.9534 84.5652 97.4934C83.6752 99.6834 85.5352 102.233 87.5952 102.823C90.0652 103.533 92.0552 101.953 92.9252 99.7934Z" fill="black"/>
  <path d="M95.1651 101.193C95.0451 101.133 94.9252 101.083 94.8152 101.013C94.7652 100.983 94.5251 100.813 94.6751 100.933C94.4651 100.773 94.2751 100.583 94.0851 100.403C93.6251 99.9733 93.1351 99.5434 92.5851 99.2234C91.5051 98.5734 90.2251 98.2234 88.9651 98.2334C86.5151 98.2334 84.2251 99.6234 82.9951 101.733C82.0251 103.403 84.6151 104.913 85.5851 103.243C85.9751 102.573 86.4252 102.113 87.1252 101.723C87.2152 101.673 87.3051 101.623 87.3951 101.583C87.4351 101.563 87.7351 101.443 87.5251 101.523C87.7151 101.453 87.9051 101.393 88.1051 101.343C88.2051 101.323 88.3051 101.293 88.4051 101.273C88.8851 101.173 88.2952 101.273 88.5652 101.253C88.8052 101.233 89.0551 101.233 89.2951 101.253C89.6351 101.273 89.9251 101.333 90.4051 101.503C90.6751 101.593 90.5651 101.553 90.8651 101.713C91.0551 101.813 91.2451 101.933 91.4151 102.053C91.2751 101.953 91.5151 102.133 91.5551 102.173C91.6351 102.243 91.7151 102.313 91.7951 102.383C91.9751 102.543 92.1451 102.713 92.3251 102.873C92.7351 103.233 93.1651 103.583 93.6651 103.813C94.3951 104.153 95.2851 104.023 95.7151 103.273C96.0951 102.623 95.9151 101.563 95.1751 101.223L95.1651 101.193Z" fill="black"/>
  <path d="M136.355 127.313C126.925 82.2033 89.8251 89.9433 89.8251 89.9433C92.3551 96.6633 90.8352 129.403 136.355 127.313Z" fill="#6BA534" stroke="black" stroke-width="2.83" stroke-miterlimit="10"/>
  <path d="M94.5652 94.8833C96.9752 97.1833 99.6052 99.2534 102.425 101.043C105.425 102.943 108.505 104.683 111.375 106.783C114.035 108.713 116.705 110.643 118.945 113.063C121.185 115.483 122.845 118.083 124.175 120.973C124.975 122.723 127.565 121.203 126.765 119.463C125.415 116.533 123.645 113.823 121.495 111.413C119.345 109.003 116.655 106.963 114.005 105.013C108.285 100.803 101.855 97.7034 96.6852 92.7734C95.2852 91.4434 93.1652 93.5534 94.5652 94.8934V94.8833Z" fill="#548C1E"/>
</svg>