<?xml version="1.0" encoding="utf-8"?>
<svg width="346" height="249" viewBox="0 0 346 249" fill="none" xmlns="http://www.w3.org/2000/svg">
  <defs/>
  <path d="M172.737 144.473C172.467 143.763 172.487 143.303 172.457 142.463C172.427 141.683 172.357 140.903 172.147 140.143C171.767 138.773 171.027 137.493 170.037 136.463C167.917 134.263 164.657 133.443 161.737 134.233C160.987 134.433 160.447 135.303 160.697 136.063C160.947 136.823 161.717 137.323 162.527 137.103C163.547 136.833 164.527 136.833 165.597 137.143C165.737 137.183 165.877 137.233 166.017 137.283C166.087 137.303 166.157 137.333 166.227 137.363C166.097 137.313 166.117 137.313 166.277 137.393C166.537 137.523 166.797 137.663 167.047 137.823C167.167 137.903 167.287 137.983 167.397 138.063C167.197 137.913 167.497 138.153 167.537 138.183C167.747 138.373 167.947 138.563 168.137 138.783C168.137 138.783 168.427 139.133 168.257 138.913C168.347 139.023 168.427 139.143 168.497 139.253C168.657 139.483 168.797 139.733 168.927 139.983C168.987 140.103 169.057 140.233 169.107 140.363C168.997 140.093 169.157 140.513 169.157 140.533C169.247 140.803 169.327 141.073 169.377 141.343C169.407 141.483 169.437 141.623 169.447 141.753C169.407 141.433 169.447 141.893 169.447 141.963C169.467 142.293 169.477 142.623 169.487 142.943C169.517 143.723 169.587 144.513 169.857 145.243C170.127 145.973 170.877 146.543 171.687 146.283C172.397 146.053 173.017 145.233 172.727 144.453L172.737 144.473Z" fill="black"/>
  <path d="M165.457 164.783C165.377 164.813 165.287 164.833 165.197 164.853C165.047 164.883 165.027 164.883 165.137 164.873C165.247 164.863 165.227 164.873 165.067 164.873C164.977 164.873 164.887 164.883 164.797 164.883C164.527 164.883 164.257 164.883 163.987 164.883C163.347 164.873 162.717 164.913 162.097 165.043C160.917 165.293 159.827 165.893 158.917 166.683C157.027 168.333 156.307 170.983 156.817 173.403C156.977 174.163 157.917 174.683 158.647 174.443C159.457 174.183 159.857 173.433 159.687 172.613C159.667 172.503 159.617 172.363 159.617 172.253C159.617 172.613 159.617 172.233 159.617 172.163C159.607 171.943 159.607 171.713 159.617 171.493C159.617 171.443 159.677 171.053 159.637 171.263C159.597 171.473 159.667 171.143 159.677 171.103C159.727 170.863 159.787 170.633 159.877 170.403C159.897 170.343 160.057 170.003 159.907 170.303C159.957 170.193 160.007 170.083 160.067 169.973C160.177 169.773 160.307 169.593 160.417 169.403C160.507 169.253 160.257 169.573 160.437 169.373C160.517 169.283 160.597 169.193 160.677 169.113C160.837 168.943 161.017 168.783 161.197 168.633C160.997 168.793 161.167 168.653 161.277 168.583C161.357 168.533 161.447 168.473 161.527 168.423C161.717 168.313 161.907 168.213 162.107 168.123C161.787 168.273 162.107 168.123 162.197 168.093C162.307 168.053 162.427 168.023 162.537 167.983C162.647 167.943 162.767 167.923 162.887 167.903C162.977 167.883 163.327 167.793 162.957 167.883C163.407 167.773 163.937 167.853 164.397 167.863C165.017 167.863 165.657 167.833 166.247 167.643C166.987 167.413 167.537 166.593 167.287 165.813C167.037 165.033 166.257 164.523 165.457 164.773V164.783Z" fill="black"/>
  <path d="M205.637 161.133C207.557 161.133 207.557 158.153 205.637 158.153C203.717 158.153 203.717 161.133 205.637 161.133Z" fill="black"/>
  <path d="M163.737 174.233C165.657 174.233 165.657 171.253 163.737 171.253C161.817 171.253 161.817 174.233 163.737 174.233Z" fill="black"/>
  <path d="M 175.356 189.637 C 175.356 189.637 195.756 188.797 196.836 165.037 C 197.916 141.277 162.676 125.117 147.666 140.247 C 132.656 155.377 135.836 167.217 145.766 178.417 C 155.696 189.617 165.166 190.317 175.346 189.637 L 175.356 189.637 Z" fill="#CB1124" style="transform-box: fill-box; transform-origin: 50% 50%;" transform="matrix(-0.981627, 0.190809, -0.190809, -0.981627, -0.00003, -0.000004)"/>
  <path d="M 175.307 191.142 C 181.917 190.852 188.617 187.162 192.637 182.012 C 196.727 176.762 198.527 169.722 198.287 163.122 C 198.057 156.952 195.477 151.203 191.567 146.493 C 183.987 137.363 171.047 131.523 159.137 133.173 C 156.347 133.563 153.627 134.393 151.147 135.753 C 147.997 137.483 145.507 140.123 143.237 142.863 C 138.297 148.823 134.797 156.072 136.157 163.962 C 137.427 171.342 142.667 178.052 148.087 182.942 C 151.257 185.802 154.857 188.122 158.897 189.552 C 162.397 190.792 166.127 191.262 169.827 191.312 C 171.657 191.332 173.477 191.252 175.297 191.132 C 177.117 191.012 177.217 188.032 175.297 188.152 C 168.237 188.622 161.267 188.202 155.057 184.482 C 151.367 182.272 148.257 179.232 145.527 175.932 C 143.427 173.402 141.517 170.602 140.277 167.542 C 137.727 161.282 138.817 154.862 142.307 149.193 C 145.667 143.723 150.307 138.483 156.667 136.703 C 167.097 133.793 179.047 138.433 186.667 145.633 C 190.677 149.413 193.757 154.192 194.887 159.642 C 196.097 165.482 194.977 172.302 192.077 177.502 C 189.917 181.372 186.587 184.352 182.577 186.212 C 181.267 186.822 179.697 187.342 178.177 187.702 C 177.617 187.832 177.057 187.942 176.487 188.042 C 176.367 188.062 176.257 188.082 176.137 188.092 C 175.867 188.132 176.527 188.052 176.187 188.092 C 176.027 188.112 175.867 188.132 175.707 188.142 C 175.577 188.152 175.447 188.162 175.317 188.172 C 173.407 188.252 173.397 191.232 175.317 191.152 L 175.307 191.142 Z" fill="black" style="transform-box: fill-box; transform-origin: 50% 50%;" transform="matrix(-0.981627, 0.190809, -0.190809, -0.981627, -0.000009, -0.000017)"/>
  <path d="M 184.672 153.714 C 184.452 153.234 184.432 152.594 184.372 151.964 C 184.292 151.214 184.182 150.464 183.922 149.744 C 183.442 148.414 182.682 147.184 181.632 146.234 C 179.382 144.194 176.112 143.484 173.222 144.474 C 172.462 144.734 171.962 145.494 172.182 146.304 C 172.382 147.044 173.252 147.604 174.012 147.344 C 174.312 147.244 174.622 147.154 174.932 147.094 C 174.932 147.094 175.402 147.024 175.162 147.054 C 175.322 147.034 175.482 147.024 175.642 147.024 C 175.932 147.014 176.222 147.024 176.512 147.044 C 176.592 147.044 176.672 147.054 176.752 147.064 C 176.642 147.054 176.642 147.054 176.752 147.064 C 176.882 147.084 177.012 147.114 177.142 147.144 C 177.822 147.304 178.172 147.444 178.702 147.754 C 178.832 147.824 178.952 147.904 179.072 147.994 C 179.102 148.014 179.392 148.224 179.282 148.134 C 179.202 148.074 179.482 148.304 179.522 148.344 C 179.632 148.444 179.742 148.544 179.842 148.654 C 179.932 148.744 180.012 148.834 180.092 148.924 C 180.112 148.944 180.372 149.274 180.232 149.084 C 180.412 149.324 180.572 149.574 180.712 149.824 C 180.782 149.954 180.852 150.084 180.922 150.214 C 181.062 150.474 180.892 150.094 181.002 150.404 C 181.092 150.654 181.182 150.914 181.252 151.174 C 181.402 151.774 181.412 152.164 181.492 152.824 C 181.592 153.684 181.752 154.434 182.112 155.214 C 182.442 155.944 183.502 156.124 184.152 155.744 C 184.902 155.304 185.022 154.444 184.682 153.704 L 184.672 153.714 Z" fill="black" style="transform-box: fill-box; transform-origin: 50% 50%;" transform="matrix(-0.981627, 0.190809, -0.190809, -0.981627, -0.000012, 0.000012)"/>
  <path d="M 233.907 198.409 C 233.907 198.409 252.457 189.889 244.437 167.499 C 236.417 145.109 197.677 143.539 189.537 163.239 C 181.407 182.939 188.837 192.689 202.277 199.269 C 215.717 205.859 224.747 202.909 233.907 198.409 Z" fill="#CB1124" style="transform-box: fill-box; transform-origin: 50% 50%;" transform="matrix(-0.981627, 0.190809, -0.190809, -0.981627, -0.000002, 0.000003)"/>
  <path d="M 234.594 199.769 C 241.664 196.499 246.704 188.949 247.674 181.369 C 248.544 174.559 246.714 166.849 242.754 161.219 C 239.294 156.299 234.274 152.829 228.704 150.669 C 218.154 146.579 204.394 146.929 195.094 153.919 C 189.614 158.039 186.994 164.179 185.494 170.739 C 183.994 177.299 184.304 184.429 188.244 190.149 C 192.184 195.869 198.704 199.689 205.094 202.229 C 209.264 203.889 213.764 204.839 218.274 204.649 C 222.094 204.489 225.814 203.539 229.344 202.119 C 231.124 201.409 232.874 200.609 234.594 199.759 C 236.314 198.909 234.804 196.349 233.094 197.189 C 226.494 200.419 219.544 202.649 212.134 201.209 C 207.944 200.399 203.974 198.709 200.264 196.619 C 197.664 195.159 195.194 193.469 193.094 191.349 C 188.934 187.149 187.204 181.689 187.674 175.829 C 187.994 171.859 189.194 167.979 190.664 164.299 C 191.594 161.979 192.944 159.899 194.714 158.139 C 202.164 150.729 214.504 149.719 224.194 152.319 C 229.394 153.709 234.344 156.269 238.084 160.189 C 242.374 164.669 244.604 170.959 244.874 177.109 C 245.234 185.609 240.614 192.979 233.524 196.969 C 233.384 197.049 233.234 197.119 233.094 197.189 C 231.354 197.989 232.864 200.559 234.594 199.759 L 234.594 199.769 Z" fill="black" style="transform-box: fill-box; transform-origin: 50% 50%;" transform="matrix(-0.981627, 0.190809, -0.190809, -0.981627, 0.000008, -0.00002)"/>
  <path d="M 227.957 162.675 C 227.407 162.445 227.247 162.275 226.827 161.905 C 226.347 161.485 225.857 161.065 225.297 160.745 C 224.197 160.125 222.907 159.795 221.647 159.825 C 219.197 159.895 216.907 161.315 215.737 163.475 C 215.357 164.185 215.567 165.095 216.267 165.515 C 216.967 165.935 217.917 165.685 218.307 164.985 C 218.697 164.285 219.147 163.775 219.807 163.385 C 220.497 162.965 221.147 162.795 221.977 162.815 C 222.087 162.815 222.197 162.825 222.307 162.835 C 222.357 162.835 222.557 162.875 222.397 162.845 C 222.637 162.885 222.877 162.945 223.107 163.025 C 223.357 163.105 223.457 163.145 223.587 163.215 C 223.777 163.325 223.967 163.425 224.147 163.545 C 224.287 163.635 224.337 163.685 224.547 163.865 C 224.727 164.025 224.907 164.185 225.087 164.345 C 225.507 164.695 225.947 165.045 226.457 165.255 C 227.197 165.575 228.057 165.475 228.497 164.725 C 228.867 164.095 228.707 163.005 227.967 162.685 L 227.957 162.675 Z" fill="black" style="transform-box: fill-box; transform-origin: 50% 50%;" transform="matrix(-0.981627, 0.190809, -0.190809, -0.981627, 0.000023, -0.000008)"/>
  <path d="M 196.518 96.539 C 200.828 106.219 198.808 117.129 194.968 126.609 C 191.328 135.579 185.928 143.789 180.178 151.539 C 178.208 154.189 176.108 156.759 174.228 159.469 C 173.388 160.689 175.048 162.309 176.268 161.509 C 179.608 159.289 183.298 157.619 186.948 155.999 C 191.438 154.009 195.978 152.119 200.428 150.049 C 210.598 145.299 220.448 139.479 228.168 131.209 C 233.068 125.959 236.908 119.899 239.678 113.279 C 239.988 112.529 239.338 111.649 238.638 111.449 C 237.788 111.199 237.118 111.749 236.808 112.489 C 232.178 123.549 224.058 132.499 214.158 139.109 C 205.618 144.809 196.158 148.749 186.788 152.849 C 182.678 154.649 178.508 156.469 174.758 158.959 L 176.798 160.999 C 178.478 158.579 180.348 156.279 182.108 153.919 C 184.888 150.209 187.558 146.419 190.018 142.499 C 195.668 133.479 200.518 123.459 201.698 112.769 C 202.368 106.719 201.568 100.649 199.088 95.079 C 198.308 93.329 195.748 94.849 196.518 96.579 L 196.518 96.539 Z" fill="black" style="transform-box: fill-box; transform-origin: 50% 50%;" transform="matrix(-0.981627, 0.190809, -0.190809, -0.981627, -0.000012, -0.000014)"/>
  <path d="M 235.492 87.279 C 238.362 120.139 265.402 117.789 265.402 117.789 C 264.172 112.789 268.032 89.649 235.492 87.279 Z" fill="#4C8E13" style="transform-box: fill-box; transform-origin: 50% 50%;" transform="matrix(-0.981627, 0.190809, -0.190809, -0.981627, 0.000012, -0.000009)"/>
  <path d="M 234.007 87.272 C 234.867 96.782 237.977 106.622 245.657 112.822 C 250.287 116.572 255.977 118.682 261.897 119.202 C 263.057 119.302 264.247 119.372 265.407 119.272 C 266.387 119.192 267.077 118.392 266.847 117.392 C 266.817 117.252 266.787 117.122 266.767 116.982 C 266.677 116.502 266.787 117.222 266.737 116.822 C 266.697 116.442 266.657 116.062 266.637 115.682 C 266.567 114.722 266.507 113.752 266.437 112.792 C 266.227 110.232 265.877 107.662 265.167 105.182 C 263.277 98.562 258.847 93.202 252.707 90.062 C 247.387 87.342 241.427 86.232 235.507 85.782 C 233.597 85.632 233.607 88.612 235.507 88.762 C 243.857 89.402 253.097 91.612 258.557 98.492 C 261.767 102.532 263.017 107.712 263.437 112.512 C 263.597 114.382 263.547 116.342 263.987 118.172 L 265.427 116.292 C 262.267 116.562 259.647 116.082 256.657 115.222 C 250.407 113.432 245.077 109.342 241.757 103.642 C 238.867 98.672 237.527 92.942 237.017 87.262 C 236.847 85.372 233.867 85.352 234.037 87.262 L 234.007 87.272 Z" fill="black" style="transform-box: fill-box; transform-origin: 50% 50%;" transform="matrix(-0.981627, 0.190809, -0.190809, -0.981627, -0.000003, -0.000003)"/>
  <path d="M 235.897 89.479 C 219.737 118.239 243.387 131.539 243.387 131.539 C 245.187 126.719 261.427 109.789 235.897 89.479 Z" fill="#4C8E13" style="transform-box: fill-box; transform-origin: 50% 50%;" transform="matrix(-0.981627, 0.190809, -0.190809, -0.981627, 0.000003, -0.000006)"/>
  <path d="M 234.626 88.681 C 229.956 97.071 227.066 106.991 229.946 116.471 C 231.616 121.981 235.076 126.901 239.526 130.541 C 240.516 131.351 241.546 132.161 242.656 132.791 C 243.556 133.301 244.496 132.791 244.846 131.901 C 244.986 131.531 244.716 132.161 244.896 131.781 C 244.966 131.631 245.046 131.481 245.126 131.331 C 245.306 130.981 245.506 130.641 245.706 130.301 C 246.176 129.491 246.666 128.681 247.126 127.871 C 248.386 125.661 249.506 123.361 250.316 120.951 C 252.506 114.431 251.826 107.541 248.576 101.491 C 245.786 96.311 241.526 92.051 236.976 88.401 C 235.496 87.211 233.376 89.311 234.876 90.501 C 241.406 95.731 247.976 102.751 248.616 111.541 C 248.996 116.801 247.196 121.721 244.646 126.231 C 243.736 127.841 242.646 129.391 241.986 131.121 L 244.176 130.231 C 243.976 130.111 243.776 129.991 243.576 129.861 C 243.356 129.711 243.126 129.561 242.906 129.411 C 242.776 129.321 242.646 129.231 242.516 129.131 C 242.416 129.061 241.926 128.681 242.206 128.911 C 240.516 127.601 238.966 126.101 237.596 124.461 C 233.376 119.411 231.366 112.981 231.826 106.431 C 232.226 100.681 234.416 95.201 237.196 90.211 C 238.126 88.531 235.556 87.031 234.626 88.711 L 234.626 88.681 Z" fill="black" style="transform-box: fill-box; transform-origin: 50% 50%;" transform="matrix(-0.981627, 0.190809, -0.190809, -0.981627, 0.00001, 0.000003)"/>
</svg>