<svg width="188" height="52" viewBox="0 0 188 52" fill="none" xmlns="http://www.w3.org/2000/svg">
<g filter="url(#filter0_b_732_1856)">
<rect width="187" height="51" rx="25.5" fill="#19191C" fill-opacity="0.1"/>
<path d="M40.628 26.018H40.6328L36.5615 30.4594L32.499 26.016H35.565L35.5642 25.999C35.5611 24.4956 35.9576 23.0184 36.7131 21.7186C37.4686 20.4188 38.556 19.3432 39.8639 18.6019C41.1719 17.8606 42.6533 17.4802 44.1566 17.4997C45.6599 17.5193 47.131 17.938 48.4192 18.713L46.9492 20.183C45.9593 19.6884 44.8593 19.4552 43.7538 19.5058C42.6484 19.5563 41.5742 19.8889 40.6336 20.4718C39.6929 21.0547 38.9171 21.8686 38.3799 22.8361C37.8426 23.8036 37.5618 24.8924 37.5643 25.999L37.5652 26.016H40.6299L40.628 26.018Z" fill="#19191C"/>
<path d="M47.4172 26.0131H47.4123L51.4836 21.5718L55.5461 26.0151H52.4817C52.4826 27.5301 52.0778 29.0176 51.3093 30.3232C50.5408 31.6287 49.4367 32.7046 48.1117 33.4391C46.7867 34.1736 45.2892 34.5399 43.7748 34.4998C42.2604 34.4598 40.7843 34.0149 39.5 33.2114L40.9593 31.7521C41.9483 32.2742 43.0554 32.5318 44.1733 32.5002C45.2912 32.4686 46.382 32.1487 47.3399 31.5715C48.2978 30.9944 49.0904 30.1796 49.6409 29.2061C50.1913 28.2326 50.4809 27.1335 50.4817 26.0151H47.4152L47.4172 26.0131Z" fill="#19191C"/>
<path d="M72.7359 19H83.5359V20.55H78.9759V33H77.3159V20.55H72.7359V19ZM84.9492 22.76H86.5492V24.46C86.8759 23.88 87.2992 23.4367 87.8192 23.13C88.3392 22.8167 88.9359 22.66 89.6092 22.66H89.9692V24.33H89.5492C88.9426 24.33 88.4126 24.4467 87.9592 24.68C87.5059 24.9133 87.1559 25.2467 86.9092 25.68C86.6692 26.1067 86.5492 26.61 86.5492 27.19V33H84.9492V22.76ZM91.5577 34.78H92.8277C93.1277 34.78 93.3943 34.6967 93.6277 34.53C93.861 34.3633 94.041 34.1467 94.1677 33.88L94.8177 32.51L90.7677 22.76H92.4677L95.6277 30.47L98.5277 22.76H100.208L95.7677 33.98C95.4877 34.6933 95.1243 35.24 94.6777 35.62C94.231 36.0067 93.631 36.2 92.8777 36.2H91.5577V34.78ZM110.454 22.52C111.227 22.52 111.907 22.6633 112.494 22.95C113.08 23.23 113.534 23.6433 113.854 24.19C114.18 24.73 114.344 25.3733 114.344 26.12V33H112.784V31.33C112.497 31.95 112.077 32.4233 111.524 32.75C110.97 33.0767 110.314 33.24 109.554 33.24C108.9 33.24 108.31 33.1133 107.784 32.86C107.257 32.6067 106.844 32.2567 106.544 31.81C106.244 31.3633 106.094 30.8567 106.094 30.29C106.094 29.7567 106.23 29.2667 106.504 28.82C106.784 28.3667 107.167 27.9967 107.654 27.71C108.147 27.4233 108.7 27.2467 109.314 27.18L112.044 26.88C112.27 26.8533 112.447 26.76 112.574 26.6C112.7 26.44 112.764 26.2067 112.764 25.9C112.764 25.4933 112.667 25.1367 112.474 24.83C112.28 24.5233 112.007 24.2867 111.654 24.12C111.307 23.9467 110.904 23.86 110.444 23.86C109.984 23.86 109.57 23.94 109.204 24.1C108.837 24.2533 108.54 24.4633 108.314 24.73C108.094 24.99 107.96 25.2733 107.914 25.58H106.314C106.394 25 106.62 24.48 106.994 24.02C107.374 23.5533 107.864 23.1867 108.464 22.92C109.064 22.6533 109.727 22.52 110.454 22.52ZM107.754 30.2C107.754 30.5467 107.844 30.8533 108.024 31.12C108.21 31.3867 108.467 31.5967 108.794 31.75C109.12 31.8967 109.494 31.97 109.914 31.97C110.487 31.97 110.987 31.8533 111.414 31.62C111.847 31.3867 112.18 31.06 112.414 30.64C112.647 30.2133 112.764 29.7233 112.764 29.17V28L109.534 28.36C109 28.42 108.57 28.62 108.244 28.96C107.917 29.3 107.754 29.7133 107.754 30.2ZM121.657 36.44C120.91 36.44 120.22 36.3233 119.587 36.09C118.954 35.8567 118.427 35.5267 118.007 35.1C117.587 34.6733 117.317 34.18 117.197 33.62H118.797C119.01 34.08 119.374 34.43 119.887 34.67C120.407 34.9167 120.98 35.04 121.607 35.04C122.26 35.04 122.83 34.9067 123.317 34.64C123.81 34.38 124.19 34.0133 124.457 33.54C124.724 33.0667 124.857 32.52 124.857 31.9V31.48L124.887 30.45C124.487 31.0167 123.977 31.4567 123.357 31.77C122.744 32.0833 122.067 32.24 121.327 32.24C120.46 32.24 119.677 32.0333 118.977 31.62C118.277 31.2 117.727 30.6233 117.327 29.89C116.927 29.15 116.727 28.3167 116.727 27.39C116.727 26.4633 116.927 25.63 117.327 24.89C117.727 24.15 118.277 23.57 118.977 23.15C119.677 22.73 120.46 22.52 121.327 22.52C122.08 22.52 122.77 22.6867 123.397 23.02C124.024 23.3467 124.537 23.8067 124.937 24.4V22.76H126.487L126.457 31.9C126.457 32.7867 126.257 33.5733 125.857 34.26C125.457 34.9533 124.894 35.49 124.167 35.87C123.44 36.25 122.604 36.44 121.657 36.44ZM118.407 27.39C118.407 28.0367 118.544 28.6233 118.817 29.15C119.097 29.6767 119.484 30.09 119.977 30.39C120.47 30.69 121.024 30.84 121.637 30.84C122.244 30.84 122.79 30.69 123.277 30.39C123.77 30.09 124.16 29.6767 124.447 29.15C124.734 28.6233 124.877 28.0367 124.877 27.39C124.877 26.7367 124.734 26.1467 124.447 25.62C124.16 25.0933 123.77 24.68 123.277 24.38C122.79 24.0733 122.244 23.92 121.637 23.92C121.024 23.92 120.47 24.0733 119.977 24.38C119.484 24.68 119.097 25.0933 118.817 25.62C118.544 26.1467 118.407 26.7367 118.407 27.39ZM133.579 22.52C134.352 22.52 135.032 22.6633 135.619 22.95C136.205 23.23 136.659 23.6433 136.979 24.19C137.305 24.73 137.469 25.3733 137.469 26.12V33H135.909V31.33C135.622 31.95 135.202 32.4233 134.649 32.75C134.095 33.0767 133.439 33.24 132.679 33.24C132.025 33.24 131.435 33.1133 130.909 32.86C130.382 32.6067 129.969 32.2567 129.669 31.81C129.369 31.3633 129.219 30.8567 129.219 30.29C129.219 29.7567 129.355 29.2667 129.629 28.82C129.909 28.3667 130.292 27.9967 130.779 27.71C131.272 27.4233 131.825 27.2467 132.439 27.18L135.169 26.88C135.395 26.8533 135.572 26.76 135.699 26.6C135.825 26.44 135.889 26.2067 135.889 25.9C135.889 25.4933 135.792 25.1367 135.599 24.83C135.405 24.5233 135.132 24.2867 134.779 24.12C134.432 23.9467 134.029 23.86 133.569 23.86C133.109 23.86 132.695 23.94 132.329 24.1C131.962 24.2533 131.665 24.4633 131.439 24.73C131.219 24.99 131.085 25.2733 131.039 25.58H129.439C129.519 25 129.745 24.48 130.119 24.02C130.499 23.5533 130.989 23.1867 131.589 22.92C132.189 22.6533 132.852 22.52 133.579 22.52ZM130.879 30.2C130.879 30.5467 130.969 30.8533 131.149 31.12C131.335 31.3867 131.592 31.5967 131.919 31.75C132.245 31.8967 132.619 31.97 133.039 31.97C133.612 31.97 134.112 31.8533 134.539 31.62C134.972 31.3867 135.305 31.06 135.539 30.64C135.772 30.2133 135.889 29.7233 135.889 29.17V28L132.659 28.36C132.125 28.42 131.695 28.62 131.369 28.96C131.042 29.3 130.879 29.7133 130.879 30.2ZM140.672 22.76H142.272V33H140.672V22.76ZM142.412 19V20.9H140.532V19H142.412ZM145.77 22.76H147.31V24.42C147.656 23.8067 148.116 23.3367 148.69 23.01C149.27 22.6833 149.94 22.52 150.7 22.52C151.433 22.52 152.083 22.6767 152.65 22.99C153.216 23.3033 153.66 23.7667 153.98 24.38C154.306 24.9867 154.47 25.7167 154.47 26.57V33H152.87V26.73C152.87 25.8433 152.64 25.1533 152.18 24.66C151.72 24.1667 151.086 23.92 150.28 23.92C149.706 23.92 149.2 24.0467 148.76 24.3C148.32 24.5533 147.976 24.91 147.73 25.37C147.49 25.8233 147.37 26.3433 147.37 26.93V33H145.77V22.76Z" fill="#19191C"/>
<rect x="0.5" y="0.5" width="187" height="51" rx="25.5" stroke="#19191C" stroke-opacity="0.4"/>
</g>
<defs>
<filter id="filter0_b_732_1856" x="-8" y="-8" width="204" height="68" filterUnits="userSpaceOnUse" color-interpolation-filters="sRGB">
<feFlood flood-opacity="0" result="BackgroundImageFix"/>
<feGaussianBlur in="BackgroundImageFix" stdDeviation="4"/>
<feComposite in2="SourceAlpha" operator="in" result="effect1_backgroundBlur_732_1856"/>
<feBlend mode="normal" in="SourceGraphic" in2="effect1_backgroundBlur_732_1856" result="shape"/>
</filter>
</defs>
</svg>
