<svg width="147" height="52" viewBox="0 0 147 52" fill="none" xmlns="http://www.w3.org/2000/svg">
<g filter="url(#filter0_b_538_20002)">
<rect width="147" height="52" rx="26" fill="#19191C" fill-opacity="0.1"/>
<path d="M39.7148 28.8564L37.6385 35.3229C37.6053 35.4283 37.606 35.5414 37.6406 35.6463C37.6752 35.7512 37.742 35.8426 37.8315 35.9074C37.921 35.9722 38.0286 36.0072 38.1391 36.0074C38.2495 36.0076 38.3573 35.9731 38.447 35.9086L43.9988 31.9404L49.5505 35.9086C49.6403 35.9731 49.748 36.0076 49.8585 36.0074C49.969 36.0072 50.0766 35.9722 50.1661 35.9074C50.2555 35.8426 50.3223 35.7512 50.357 35.6463C50.3916 35.5414 50.3923 35.4283 50.359 35.3229L48.2828 28.8564L53.7842 24.8083C53.873 24.7429 53.939 24.6511 53.9726 24.5461C54.0062 24.441 54.0058 24.328 53.9715 24.2232C53.9372 24.1183 53.8706 24.027 53.7813 23.9622C53.692 23.8974 53.5846 23.8625 53.4742 23.8623L46.653 23.8246L44.4984 17.3683C44.4632 17.2636 44.396 17.1727 44.3064 17.1083C44.2167 17.0439 44.1092 17.0093 43.9988 17.0093C43.8884 17.0093 43.7808 17.0439 43.6912 17.1083C43.6015 17.1727 43.5344 17.2636 43.4991 17.3683L41.3446 23.8246L34.5233 23.8623C34.413 23.8624 34.3055 23.8974 34.2162 23.9622C34.127 24.027 34.0604 24.1183 34.026 24.2231C33.9917 24.328 33.9913 24.441 34.0249 24.546C34.0586 24.6511 34.1245 24.7429 34.2134 24.8083L39.7148 28.8564Z" fill="#19191C"/>
<path d="M74.3707 19H76.4407L81.4607 30.22L81.7207 30.93L81.9707 30.22L86.9007 19H89.0107V33H87.3507V21.68L82.4007 33H81.0107L76.0207 21.74V33H74.3707V19ZM96.526 22.52C97.2993 22.52 97.9793 22.6633 98.566 22.95C99.1527 23.23 99.606 23.6433 99.926 24.19C100.253 24.73 100.416 25.3733 100.416 26.12V33H98.856V31.33C98.5693 31.95 98.1493 32.4233 97.596 32.75C97.0427 33.0767 96.386 33.24 95.626 33.24C94.9727 33.24 94.3827 33.1133 93.856 32.86C93.3293 32.6067 92.916 32.2567 92.616 31.81C92.316 31.3633 92.166 30.8567 92.166 30.29C92.166 29.7567 92.3027 29.2667 92.576 28.82C92.856 28.3667 93.2393 27.9967 93.726 27.71C94.2193 27.4233 94.7727 27.2467 95.386 27.18L98.116 26.88C98.3427 26.8533 98.5193 26.76 98.646 26.6C98.7727 26.44 98.836 26.2067 98.836 25.9C98.836 25.4933 98.7393 25.1367 98.546 24.83C98.3527 24.5233 98.0793 24.2867 97.726 24.12C97.3793 23.9467 96.976 23.86 96.516 23.86C96.056 23.86 95.6427 23.94 95.276 24.1C94.9093 24.2533 94.6127 24.4633 94.386 24.73C94.166 24.99 94.0327 25.2733 93.986 25.58H92.386C92.466 25 92.6927 24.48 93.066 24.02C93.446 23.5533 93.936 23.1867 94.536 22.92C95.136 22.6533 95.7993 22.52 96.526 22.52ZM93.826 30.2C93.826 30.5467 93.916 30.8533 94.096 31.12C94.2827 31.3867 94.5393 31.5967 94.866 31.75C95.1927 31.8967 95.566 31.97 95.986 31.97C96.5593 31.97 97.0593 31.8533 97.486 31.62C97.9193 31.3867 98.2527 31.06 98.486 30.64C98.7193 30.2133 98.836 29.7233 98.836 29.17V28L95.606 28.36C95.0727 28.42 94.6427 28.62 94.316 28.96C93.9893 29.3 93.826 29.7133 93.826 30.2ZM105.179 22.76V24.57C105.566 23.9233 106.086 23.42 106.739 23.06C107.392 22.7 108.142 22.52 108.989 22.52C109.942 22.52 110.789 22.7467 111.529 23.2C112.276 23.6467 112.856 24.2767 113.269 25.09C113.689 25.9033 113.899 26.8333 113.899 27.88C113.899 28.9267 113.689 29.8567 113.269 30.67C112.856 31.4833 112.276 32.1167 111.529 32.57C110.789 33.0167 109.942 33.24 108.989 33.24C108.156 33.24 107.416 33.0667 106.769 32.72C106.122 32.3733 105.606 31.8867 105.219 31.26V36.22H103.619V22.76H105.179ZM105.219 27.88C105.219 28.6467 105.366 29.3267 105.659 29.92C105.959 30.5067 106.376 30.9667 106.909 31.3C107.442 31.6267 108.052 31.79 108.739 31.79C109.419 31.79 110.022 31.6267 110.549 31.3C111.076 30.9667 111.486 30.5067 111.779 29.92C112.072 29.3267 112.219 28.6467 112.219 27.88C112.219 27.1133 112.072 26.4367 111.779 25.85C111.486 25.2567 111.076 24.7967 110.549 24.47C110.022 24.1367 109.419 23.97 108.739 23.97C108.052 23.97 107.442 24.1367 106.909 24.47C106.376 24.7967 105.959 25.2567 105.659 25.85C105.366 26.4367 105.219 27.1133 105.219 27.88Z" fill="#19191C"/>
<rect x="1" y="1" width="146" height="50" rx="25" stroke="#19191C" stroke-width="2"/>
</g>
<defs>
<filter id="filter0_b_538_20002" x="-8" y="-8" width="163" height="68" filterUnits="userSpaceOnUse" color-interpolation-filters="sRGB">
<feFlood flood-opacity="0" result="BackgroundImageFix"/>
<feGaussianBlur in="BackgroundImageFix" stdDeviation="4"/>
<feComposite in2="SourceAlpha" operator="in" result="effect1_backgroundBlur_538_20002"/>
<feBlend mode="normal" in="SourceGraphic" in2="effect1_backgroundBlur_538_20002" result="shape"/>
</filter>
</defs>
</svg>
