<svg width="267" height="306" viewBox="5 -9 267 306" fill="none" xmlns="http://www.w3.org/2000/svg">
<path d="M237.499 156C237.499 156 237.499 156 237.499 156C237.499 156 237.499 156 237.499 156C237.487 156.042 237.37 156.452 236.231 157.13C235.083 157.814 233.291 158.525 230.844 159.23C225.974 160.632 218.853 161.914 209.969 162.996C192.221 165.158 167.659 166.5 140.5 166.5C113.341 166.5 88.7794 165.158 71.0314 162.996C62.147 161.914 55.0265 160.632 50.1558 159.23C47.709 158.525 45.9173 157.814 44.7685 157.13C43.6298 156.452 43.5133 156.042 43.5014 156C43.5013 156 43.5013 156 43.5012 156C43.5013 156 43.5013 156 43.5014 156C43.5133 155.958 43.6298 155.548 44.7685 154.87C45.9173 154.186 47.709 153.475 50.1558 152.77C55.0265 151.368 62.147 150.086 71.0314 149.004C88.7794 146.842 113.341 145.5 140.5 145.5C167.659 145.5 192.221 146.842 209.969 149.004C218.853 150.086 225.974 151.368 230.844 152.77C233.291 153.475 235.083 154.186 236.231 154.87C237.37 155.548 237.487 155.958 237.499 156Z" fill="#D9D9D9" stroke="black" stroke-width="3"/>
<ellipse cx="143" cy="163.5" rx="90" ry="13.5" fill="#E50A0A"/>
<path d="M113 159.5C119.322 159.5 122.893 161 122.893 158.447C122.893 152.125 117.768 147 111.447 147C105.125 147 100 152.125 100 158.447C100 164.768 106.678 159.5 113 159.5Z" fill="#FF8533"/>
<path d="M112 159.5C114.5 159 115.287 160 115.287 158.447C115.287 156.325 113.568 154.606 111.447 154.606C109.326 154.606 107 157.379 107 159.5C107 161.621 109.879 159.5 112 159.5Z" fill="#EA5F00"/>
<path d="M72.7225 176.848C78.8232 179.851 84.5858 178.112 85.3259 174.918C85.9037 172.425 85.677 169.208 86.1439 167.558C87.0091 164.501 87.6208 163.667 89.0547 161.302C90.8696 158.308 92.4284 156.715 91.6262 154.537C90.3226 150.999 80.5282 149.268 73.878 151.464C67.2278 153.661 65.1215 164.235 65.1029 166.18C65.0844 168.125 65.0967 173.094 72.7225 176.848Z" fill="#E50A0A"/>
<path d="M83.2475 162.645C82.25 163.175 81.2202 163.731 80.5728 164.615C79.9253 165.5 79.7861 166.818 80.5709 167.629C81.2048 168.284 82.3345 168.54 82.6417 169.371C82.8626 169.969 82.5422 170.613 82.1605 171.122C80.9122 172.776 78.8152 173.87 76.6356 173.853C74.4561 173.835 72.2671 172.648 71.274 170.807C70.3454 169.076 70.5044 167.036 70.8541 165.149C71.113 163.733 71.4695 162.323 72.1041 161.02C74.2622 156.577 79.8595 153.917 85.0181 154.873C85.5944 154.979 86.2084 155.153 86.5615 155.597C86.8572 155.968 86.9109 156.455 86.9299 156.914C86.9875 158.214 86.86 159.554 86.2588 160.714C85.6575 161.874 84.6213 162.477 83.2517 162.643L83.2475 162.645Z" fill="#BF0822"/>
<path d="M74.3925 166.767C74.6743 166.812 74.9584 166.86 75.2425 166.884C75.3293 166.891 75.4169 166.894 75.5027 166.904L75.3288 166.88C75.5571 166.913 75.7846 166.973 76.0106 167.027C76.1766 167.067 76.3542 167.053 76.5092 166.969C76.6482 166.892 76.7814 166.734 76.8194 166.575C76.8575 166.415 76.8509 166.226 76.7619 166.076C76.673 165.927 76.54 165.808 76.3675 165.766C76.065 165.695 75.7643 165.617 75.4573 165.586C75.2707 165.569 75.0864 165.556 74.9026 165.529L75.0766 165.553C74.9678 165.537 74.8623 165.521 74.7535 165.504C74.5739 165.475 74.4192 165.47 74.255 165.562C74.1159 165.639 73.9828 165.797 73.9447 165.956C73.9067 166.116 73.9132 166.305 74.0022 166.455C74.0874 166.592 74.2269 166.738 74.3967 166.765L74.3925 166.767Z" fill="#FC7E0B"/>
<path d="M75.256 162.689C75.7507 163.134 76.2752 163.548 76.8259 163.92C77.1091 164.111 77.562 164.001 77.7253 163.7C77.9017 163.377 77.808 163.007 77.5047 162.8C77.2014 162.594 76.9276 162.396 76.6496 162.175L76.783 162.281C76.5834 162.121 76.3866 161.952 76.1973 161.781C76.0643 161.662 75.9127 161.584 75.729 161.582C75.5734 161.58 75.38 161.649 75.2696 161.764C75.15 161.886 75.0637 162.053 75.0697 162.232C75.0762 162.397 75.1278 162.578 75.2518 162.691L75.256 162.689Z" fill="#FC7E0B"/>
<path d="M77.6498 159.895C77.9376 160.281 78.2264 160.664 78.5142 161.051C78.5734 161.117 78.6448 161.166 78.7259 161.192C78.8024 161.235 78.8887 161.256 78.9782 161.253C79.1338 161.254 79.3272 161.185 79.4376 161.071C79.5573 160.949 79.6436 160.782 79.6375 160.603L79.6179 160.434C79.589 160.323 79.5348 160.226 79.4554 160.143L78.5911 158.987C78.5318 158.921 78.4605 158.872 78.3793 158.846C78.3028 158.803 78.2165 158.782 78.127 158.785C77.9714 158.783 77.778 158.853 77.6677 158.967C77.548 159.089 77.4617 159.256 77.4677 159.435L77.4874 159.604C77.5162 159.715 77.5704 159.812 77.6498 159.895Z" fill="#FC7E0B"/>
<path d="M80.5938 158.075L81.0609 159.683C81.1072 159.845 81.2112 159.991 81.3567 160.078C81.5022 160.166 81.7015 160.201 81.8603 160.154C82.0191 160.106 82.1744 160.008 82.2561 159.858C82.3377 159.707 82.379 159.524 82.3312 159.354C82.1747 158.817 82.0173 158.283 81.8642 157.747C81.8178 157.585 81.7139 157.438 81.5683 157.351C81.4228 157.264 81.2235 157.229 81.0648 157.276C80.906 157.323 80.7506 157.421 80.669 157.572C80.5873 157.722 80.5461 157.906 80.5938 158.075Z" fill="#FC7E0B"/>
<path d="M84.2859 157.485C84.2204 157.917 84.1427 158.342 84.0772 158.774C84.0531 158.859 84.0462 158.946 84.0643 159.033C84.0682 159.119 84.0923 159.197 84.138 159.273C84.2157 159.412 84.373 159.546 84.5325 159.584C84.6919 159.622 84.8817 159.615 85.031 159.526C85.1686 159.441 85.3145 159.301 85.3413 159.132C85.4068 158.7 85.4844 158.275 85.5499 157.843C85.5741 157.758 85.5809 157.671 85.5629 157.584C85.5589 157.498 85.5348 157.42 85.4891 157.344C85.4115 157.205 85.2541 157.071 85.0947 157.033C84.9352 156.995 84.7454 157.002 84.5961 157.091C84.4585 157.176 84.3126 157.316 84.2859 157.485Z" fill="#FC7E0B"/>
<path d="M75.869 170.923L77.2291 170.34C77.3743 170.278 77.4976 170.093 77.5394 169.945C77.5831 169.791 77.5661 169.588 77.4819 169.447C77.3976 169.306 77.2567 169.177 77.0874 169.137L76.9135 169.112C76.8 169.112 76.689 169.141 76.5888 169.194L75.2287 169.777C75.0836 169.839 74.9603 170.024 74.9185 170.172C74.8748 170.326 74.8917 170.529 74.9759 170.67C75.0602 170.811 75.2011 170.94 75.3704 170.98L75.5444 171.005C75.6578 171.005 75.7688 170.976 75.869 170.923Z" fill="#FC7E0B"/>
<path d="M182.071 160.534C179.908 166.981 182.399 172.46 185.664 172.768C188.212 173.008 191.37 172.355 193.067 172.598C196.212 173.048 197.121 173.543 199.655 174.649C202.864 176.049 204.651 177.381 206.702 176.296C210.035 174.532 210.445 164.594 207.382 158.296C204.319 151.998 193.558 151.32 191.628 151.561C189.698 151.802 184.775 152.476 182.071 160.534Z" fill="#E50A0A"/>
<path d="M197.55 169.072C196.892 168.154 196.203 167.208 195.241 166.684C194.278 166.16 192.952 166.198 192.254 167.084C191.689 167.8 191.586 168.953 190.803 169.369C190.24 169.667 189.559 169.435 189.004 169.125C187.198 168.108 185.834 166.176 185.561 164.013C185.288 161.851 186.173 159.523 187.865 158.294C189.457 157.143 191.5 157.028 193.417 157.123C194.855 157.191 196.3 157.357 197.675 157.812C202.366 159.359 205.749 164.551 205.489 169.791C205.46 170.377 205.37 171.008 204.977 171.417C204.649 171.76 204.173 171.878 203.721 171.958C202.44 172.188 201.095 172.241 199.865 171.799C198.636 171.358 197.899 170.412 197.553 169.076L197.55 169.072Z" fill="#BF0822"/>
<path d="M192.284 160.846C192.278 161.131 192.268 161.419 192.282 161.704C192.287 161.791 192.295 161.878 192.296 161.965L192.297 161.789C192.295 162.02 192.265 162.253 192.243 162.484C192.225 162.654 192.262 162.828 192.366 162.971C192.462 163.098 192.635 163.209 192.798 163.226C192.962 163.242 193.149 163.21 193.285 163.102C193.421 162.994 193.521 162.847 193.54 162.67C193.57 162.361 193.607 162.052 193.596 161.744C193.589 161.557 193.577 161.372 193.58 161.187L193.579 161.362C193.581 161.252 193.582 161.146 193.584 161.035C193.589 160.854 193.574 160.7 193.461 160.549C193.365 160.422 193.191 160.311 193.028 160.294C192.865 160.278 192.678 160.31 192.542 160.418C192.417 160.52 192.291 160.678 192.287 160.85L192.284 160.846Z" fill="#FC7E0B"/>
<path d="M196.441 161.158C196.066 161.708 195.726 162.283 195.43 162.878C195.28 163.184 195.448 163.619 195.769 163.74C196.112 163.872 196.466 163.73 196.631 163.402C196.795 163.074 196.955 162.776 197.136 162.471L197.05 162.617C197.181 162.398 197.322 162.18 197.466 161.97C197.567 161.822 197.624 161.662 197.602 161.479C197.583 161.325 197.488 161.142 197.36 161.048C197.223 160.946 197.046 160.883 196.87 160.913C196.707 160.941 196.534 161.016 196.439 161.154L196.441 161.158Z" fill="#FC7E0B"/>
<path d="M199.53 163.158C199.185 163.495 198.844 163.832 198.499 164.169C198.441 164.236 198.403 164.314 198.387 164.398C198.355 164.479 198.346 164.567 198.361 164.656C198.38 164.81 198.474 164.993 198.602 165.087C198.739 165.189 198.916 165.252 199.093 165.222L199.258 165.181C199.364 165.137 199.453 165.071 199.524 164.981L200.554 163.97C200.612 163.902 200.651 163.825 200.666 163.741C200.699 163.66 200.708 163.571 200.693 163.483C200.674 163.329 200.579 163.146 200.451 163.052C200.314 162.95 200.137 162.887 199.961 162.916L199.796 162.958C199.69 163.002 199.601 163.068 199.53 163.158Z" fill="#FC7E0B"/>
<path d="M201.725 165.833L200.195 166.511C200.04 166.578 199.909 166.701 199.842 166.857C199.775 167.012 199.766 167.215 199.834 167.366C199.902 167.517 200.02 167.658 200.18 167.718C200.341 167.779 200.528 167.796 200.689 167.726C201.201 167.499 201.709 167.272 202.22 167.049C202.375 166.981 202.506 166.859 202.573 166.703C202.64 166.547 202.648 166.345 202.58 166.194C202.512 166.043 202.395 165.902 202.235 165.841C202.074 165.78 201.887 165.763 201.725 165.833Z" fill="#FC7E0B"/>
<path d="M202.802 169.414C202.365 169.407 201.934 169.386 201.497 169.379C201.409 169.366 201.323 169.371 201.239 169.4C201.154 169.416 201.08 169.45 201.01 169.506C200.883 169.601 200.772 169.775 200.755 169.938C200.739 170.101 200.771 170.288 200.879 170.424C200.982 170.549 201.139 170.675 201.311 170.679C201.748 170.687 202.179 170.707 202.616 170.714C202.704 170.727 202.791 170.722 202.874 170.693C202.959 170.677 203.033 170.643 203.103 170.588C203.23 170.492 203.341 170.318 203.358 170.155C203.374 169.992 203.342 169.805 203.234 169.669C203.132 169.544 202.974 169.418 202.802 169.414Z" fill="#FC7E0B"/>
<path d="M188.362 162.863L189.122 164.133C189.202 164.269 189.402 164.367 189.554 164.388C189.713 164.411 189.912 164.367 190.04 164.265C190.169 164.163 190.277 164.006 190.295 163.833L190.296 163.657C190.281 163.545 190.238 163.438 190.172 163.346L189.413 162.076C189.332 161.94 189.132 161.843 188.98 161.821C188.822 161.798 188.622 161.842 188.494 161.944C188.365 162.047 188.257 162.204 188.239 162.377L188.238 162.552C188.253 162.665 188.296 162.771 188.362 162.863Z" fill="#FC7E0B"/>
<path d="M165.05 160.03C172.248 160.03 179.05 163.03 179.05 160.03C179.05 152.831 173.234 148 166.035 148C158.836 148 153 153.836 153 161.035C153.55 162.53 157.851 160.03 165.05 160.03Z" fill="#C3EA78"/>
<path d="M168.489 158.217C168.425 158.079 168.432 157.966 168.489 157.857C168.547 157.748 168.567 157.77 168.525 157.803C168.534 157.796 168.637 157.729 168.573 157.761C168.509 157.793 168.444 157.825 168.38 157.851C168.316 157.876 168.248 157.909 168.187 157.947C168.085 158.011 168.011 158.095 167.924 158.172C167.917 158.178 167.908 158.185 167.901 158.195C167.876 158.217 167.885 158.207 167.937 158.169C167.927 158.188 167.889 158.204 167.873 158.214C167.828 158.243 167.783 158.272 167.734 158.297C167.635 158.352 167.529 158.403 167.423 158.452C167.179 158.567 166.938 158.68 166.693 158.795C166.465 158.901 166.391 159.245 166.523 159.451C166.674 159.685 166.934 159.737 167.179 159.621C167.452 159.493 167.728 159.364 168.001 159.236C168.248 159.117 168.509 158.975 168.692 158.766C168.743 158.709 168.656 158.802 168.644 158.799C168.65 158.799 168.685 158.77 168.695 158.766C168.73 158.744 168.772 158.725 168.811 158.709C168.888 158.673 168.965 158.644 169.039 158.606C169.154 158.542 169.264 158.448 169.328 158.333C169.434 158.137 169.412 157.938 169.322 157.742C169.216 157.513 168.869 157.44 168.666 157.571C168.432 157.722 168.383 157.983 168.496 158.227L168.489 158.217Z" fill="#69AA31"/>
<path d="M162.423 157.989C162.52 158.047 162.61 158.108 162.7 158.175L162.603 158.101C162.796 158.249 162.966 158.423 163.114 158.612L163.04 158.516C163.169 158.683 163.275 158.863 163.365 159.052C163.413 159.155 163.545 159.242 163.651 159.271C163.766 159.303 163.917 159.287 164.02 159.223C164.123 159.158 164.213 159.059 164.239 158.937C164.268 158.805 164.248 158.689 164.191 158.567C163.921 157.986 163.458 157.491 162.909 157.16C162.693 157.031 162.375 157.105 162.253 157.33C162.131 157.555 162.195 157.848 162.423 157.986V157.989Z" fill="#69AA31"/>
<path d="M24.7558 178.718C33.6658 178.718 42.5758 178.718 51.4958 178.718C52.7558 178.718 54.0158 178.718 55.2858 178.718L53.7958 177.228V188.128L55.2858 186.638C50.4458 186.638 45.6058 186.638 40.7758 186.638C35.4958 186.638 30.1758 186.828 24.8958 186.638C23.0258 186.568 22.0558 185.268 22.0458 183.478C22.0258 181.408 21.9958 178.828 24.7658 178.718C26.6758 178.638 26.6858 175.668 24.7658 175.738C21.7658 175.858 19.2958 178.038 19.0758 181.088C18.9458 182.868 18.8858 184.988 19.7358 186.598C21.3058 189.538 24.2158 189.608 27.0658 189.608C34.2858 189.608 41.5058 189.608 48.7258 189.608C50.9058 189.608 53.0958 189.608 55.2758 189.608C56.0758 189.608 56.7658 188.928 56.7658 188.118V177.218C56.7658 176.418 56.0858 175.728 55.2758 175.728C46.3658 175.728 37.4558 175.728 28.5358 175.728C27.2758 175.728 26.0158 175.728 24.7458 175.728C22.8258 175.728 22.8258 178.708 24.7458 178.708L24.7558 178.718Z" fill="black"/>
<path d="M256.096 186.638C247.186 186.638 238.276 186.638 229.356 186.638C228.096 186.638 226.836 186.638 225.566 186.638L227.056 188.128V177.228L225.566 178.718C230.406 178.718 235.246 178.718 240.076 178.718C245.356 178.718 250.676 178.528 255.956 178.718C257.826 178.788 258.796 180.088 258.806 181.878C258.826 183.948 258.856 186.528 256.086 186.638C254.176 186.718 254.166 189.688 256.086 189.618C259.086 189.498 261.556 187.318 261.776 184.268C261.906 182.488 261.966 180.368 261.116 178.758C259.546 175.818 256.636 175.748 253.786 175.748C246.566 175.748 239.346 175.748 232.126 175.748C229.946 175.748 227.756 175.748 225.576 175.748C224.776 175.748 224.086 176.428 224.086 177.238V188.138C224.086 188.938 224.766 189.628 225.576 189.628C234.486 189.628 243.396 189.628 252.316 189.628C253.576 189.628 254.836 189.628 256.106 189.628C258.026 189.628 258.026 186.648 256.106 186.648L256.096 186.638Z" fill="black"/>
<path d="M56.7757 255.838V255.741L56.7633 255.645L44.0964 157.648C45.3598 157.916 47.1753 158.287 49.4949 158.728C54.3309 159.649 61.3586 160.874 70.1412 162.1C87.7044 164.55 112.297 167 140.421 167C168.545 167 193.137 164.55 210.7 162.1C219.483 160.874 226.51 159.649 231.346 158.728C233.666 158.287 235.482 157.916 236.745 157.648L224.078 255.645L224.066 255.741V255.838C224.066 266.525 221.764 274.139 217.744 279.614C213.728 285.083 207.868 288.593 200.406 290.827C192.923 293.068 183.92 293.997 173.746 294.355C166.39 294.614 158.494 294.575 150.174 294.533C146.985 294.516 143.733 294.5 140.426 294.5C137.548 294.5 134.673 294.516 131.813 294.531C113.692 294.63 96.1755 294.725 82.5412 290.823C74.7015 288.58 68.301 285.051 63.8499 279.559C59.4095 274.079 56.7757 266.481 56.7757 255.838Z" fill="#BEBFC1" stroke="black" stroke-width="3"/>
<path d="M136 163.5C140.859 163.502 144 165 144.578 164.009C147.027 159.813 141.196 157.004 136.337 157.003C131.478 157.001 129.893 157.85 128.001 162.637C128.353 163.88 131.141 163.498 136 163.5Z" fill="#FF8533"/>
</svg>
