<svg width="267" height="306" viewBox="5 -9 267 306" fill="none" xmlns="http://www.w3.org/2000/svg">
<g clip-path="url(#clip0_912_3575)">
<path d="M56.1039 102.28C54.3374 95.0285 48.9084 89.1527 42.7388 84.9555C36.5744 80.7517 30.0962 81.2902 23.4618 77.8695C21.3573 76.7876 19.6354 75.0354 19.3578 72.6829C19.2246 71.5269 19.1317 68.9776 19.4656 68.2057C21.0847 64.4243 24.1296 63.3238 26.6626 63.1013C29.3568 62.8766 31.8263 61.3398 33.6449 63.3371C26.0507 61.9456 13.0729 61.5176 12.9466 53.7012C13.6761 47.2194 17.12 43.5796 20.8769 44.7651C23.0151 45.7351 24.6868 47.0867 25.4416 48.4279C22.273 42.2562 17.1352 41.8904 14.4421 35.5034C12.0705 29.8658 18.7522 26.0408 20.1619 25.4987C22.5877 24.5657 31.5856 29.9394 31.9619 32.5068C31.9093 29.4679 27.7405 21.7645 28.9214 18.9715C30.1023 16.1785 32.8482 13.7932 35.877 14.041C39.0987 14.3004 41.595 17.9299 40.6808 21.0364C44.7596 11.543 51.9146 16.0591 53.4152 18.2879C57.1688 23.8297 52.9282 28.7003 50.9439 35.1005C51.8876 32.2296 55.8073 31.1389 58.5047 32.5113C61.2021 33.8837 62.6524 36.9983 62.8464 40.0195C63.0405 43.0406 62.2058 46.0175 61.374 48.9222C62.6589 47.7197 66.8196 44.4028 69.2052 46.5324C75.6258 50.6801 72.3399 58.6738 70.5381 66.0981C68.7363 73.5224 65.1384 80.6997 65.4575 88.3363C65.648 92.8537 67.2206 97.2753 66.9428 101.78C66.665 106.284 63.5098 111.222 58.9995 111.089C56.0805 111 56.9694 111.17 55.8581 108.468C54.7467 105.765 55.6602 105.178 56.0936 102.293" fill="#8FC740"/>
<path d="M57.3411 102.124C56.1482 97.3918 53.6347 93.1961 50.2733 89.6813C46.9119 86.1664 43.0375 83.093 38.5336 81.3911C34.0298 79.6892 29.495 79.2177 25.2178 77.3198C23.1775 76.4153 20.9934 75.0801 20.6193 72.6739C20.3362 70.8487 20.2629 68.9312 21.3068 67.382C22.6075 65.4476 24.5635 64.5856 26.8181 64.3383C27.8983 64.2205 28.9275 63.9357 29.9907 63.7303C30.8786 63.5589 31.93 63.3551 32.6381 64.0858L33.8004 62.097C28.6821 61.1723 23.2071 60.9805 18.3967 58.8384C16.5582 58.0162 14.7092 56.7287 14.2779 54.6289C13.9788 53.1527 14.5204 51.4153 15.0409 50.0336C15.4982 48.8154 16.1403 47.5919 17.1508 46.729C19.642 44.6031 22.9739 46.7873 24.4282 49.1715C25.1587 50.3661 27.2507 49.2058 26.5916 47.9603C25.6038 46.0979 24.3782 44.4868 22.8391 43.0467C21.5777 41.8649 20.181 40.8436 18.9093 39.6751C16.6423 37.5845 14.1786 34.2142 15.6663 31.0535C16.5304 29.2158 18.4764 27.655 20.1916 26.8293C20.6031 26.628 20.4639 26.6155 20.8535 26.6205C20.9794 26.6226 21.5958 26.7187 21.8985 26.7943C23.0555 27.0977 24.1647 27.6405 25.2166 28.2024C26.5314 28.9049 27.7955 29.7274 28.9434 30.6721C29.3906 31.0408 29.8274 31.4227 30.2011 31.8724C30.3425 32.0461 30.4907 32.2249 30.6049 32.42C30.5821 32.381 30.7502 32.8624 30.7118 32.6519C31.014 34.2474 33.2494 33.9426 33.1858 32.3411C33.1042 30.1195 32.0572 27.8817 31.3416 25.8056C30.9286 24.6129 30.5089 23.4151 30.2224 22.1826C30.0378 21.3801 29.7898 20.3582 30.0131 19.5642C30.6789 17.2428 33.4536 14.9437 35.9633 15.2986C38.473 15.6535 40.0608 18.4816 39.4379 20.8574C39.0698 22.2619 41.2851 22.7495 41.8336 21.4959C42.6756 19.5772 43.8878 17.5102 45.9514 16.7424C47.2765 16.2409 48.6846 16.4948 49.9161 17.0581C50.9326 17.5287 51.8365 18.199 52.4121 19.0182C53.8618 21.0799 53.889 23.5356 53.1725 25.8814C52.2554 28.8686 50.7291 31.6272 49.7869 34.6056C49.3062 36.1139 51.5351 37.0905 52.0967 35.56C52.7003 33.9345 54.3463 33.1294 56.0237 33.146C57.9478 33.1736 59.5178 34.4782 60.4444 36.091C62.6286 39.9032 61.3383 44.493 60.2221 48.4207C59.9275 49.4569 61.1117 50.8339 62.1251 49.8989C63.4336 48.6934 65.2595 47.1776 67.1122 47.0645C68.1393 47.0013 69.0176 47.8005 69.7183 48.4724C70.5346 49.2553 71.114 50.2476 71.4298 51.3328C72.1249 53.7226 71.6486 56.3613 71.1265 58.7304C70.5038 61.585 69.7317 64.4403 68.9551 67.2603C67.1579 73.8164 64.2532 80.2245 64.2051 87.1294C64.1829 90.6205 65.0311 93.9903 65.4934 97.4325C65.9002 100.481 65.8933 103.569 64.3169 106.31C63.6093 107.536 62.5938 108.692 61.3085 109.321C60.6718 109.634 59.9922 109.797 59.278 109.827C58.873 109.842 58.4569 109.816 58.0475 109.796C57.9635 109.795 57.3493 109.668 57.6086 109.827C57.848 109.971 57.6624 109.826 57.6056 109.612C57.517 109.288 57.3982 108.962 57.281 108.648C57.0147 107.909 56.6358 107.179 56.5889 106.377C56.5152 105.076 57.1277 103.713 57.3324 102.437C57.5877 100.849 55.1111 100.52 54.8558 102.107C54.6438 103.421 54.1248 104.718 54.0954 106.056C54.0588 107.623 54.7644 109.096 55.2822 110.55C55.7469 111.868 56.6543 112.233 57.9835 112.287C59.6131 112.352 61.1078 112.248 62.572 111.471C65.3987 109.968 67.1383 107.003 67.8699 103.967C68.7565 100.307 67.8779 96.4568 67.2608 92.8306C66.5861 88.8407 66.5712 85.0551 67.4495 81.0915C68.3278 77.1279 69.6688 73.6087 70.7916 69.8776C71.7793 66.5944 72.6373 63.2316 73.421 59.8962C74.0798 57.091 74.6354 54.0355 73.9532 51.1774C73.5893 49.6614 72.911 48.2628 71.8455 47.1162C70.78 45.9696 69.4539 44.8437 67.9244 44.623C65.2438 44.2417 62.4917 46.197 60.6254 47.9153L62.5283 49.3935C63.9854 44.2742 65.4735 38.1158 61.7116 33.5564C60.1103 31.6215 57.8321 30.4896 55.3028 30.6936C52.9031 30.8814 50.6367 32.3209 49.7884 34.6174L52.0982 35.5718C53.901 29.8705 58.2832 23.9829 54.7377 18.05C52.9657 15.0894 48.9397 13.3334 45.592 14.2626C42.5801 15.1016 40.7114 17.8494 39.515 20.5665L41.9108 21.205C42.5676 18.7172 41.5137 16.0912 39.646 14.4171C37.6346 12.5995 34.6935 12.3348 32.3084 13.5439C30.1758 14.6195 27.9541 16.891 27.5248 19.3323C27.1498 21.4437 28.0239 23.7811 28.6841 25.7505C29.4159 27.9562 30.6287 30.3228 30.7148 32.6754L33.1887 32.3646C32.73 29.9033 29.8468 28.0995 27.8888 26.8975C25.8078 25.6212 22.8244 23.7821 20.2496 24.1953C19.3234 24.3475 18.4232 24.9452 17.6555 25.4545C16.4888 26.2174 15.4047 27.1613 14.5299 28.2465C13.5571 29.4577 12.8386 30.9301 12.7114 32.4898C12.5316 34.5826 13.3773 36.5047 14.4579 38.2478C17.062 42.4501 21.9298 44.4772 24.2749 48.9035L26.4383 47.6924C24.7504 44.9247 20.967 42.5279 17.679 43.5991C14.3911 44.6703 12.8807 48.0791 12.1381 51.0743C11.7216 52.7601 11.5282 54.364 12.0844 56.0293C12.513 57.2978 13.3443 58.3901 14.3455 59.2635C16.6375 61.2672 19.7985 62.1386 22.7046 62.7907C26.2565 63.5831 29.8848 63.9351 33.4661 64.5802C34.4456 64.7563 35.4027 63.3736 34.6283 62.5913C32.9064 60.8391 30.9765 60.9559 28.736 61.4587C26.7113 61.9164 24.6068 61.9295 22.7282 62.8835C20.6921 63.9171 18.7338 65.9043 18.163 68.1719C17.7252 69.9261 17.8438 72.3465 18.3772 74.0685C19.9443 79.1131 26.4311 80.6437 30.9074 81.7926C33.3002 82.4075 35.721 82.959 38.0263 83.8781C40.4886 84.8552 42.6455 86.3075 44.7017 87.9579C49.3511 91.6759 53.3746 96.5555 54.8487 102.431C55.234 103.975 57.7161 103.681 57.3227 102.121L57.3411 102.124Z" fill="black"/>
<path d="M57.6505 91.8719C57.6505 91.8719 31.0774 102.486 49.9252 139.973C67.3951 174.732 94.5864 219.052 112.934 232.124C114.833 233.471 117.491 232.294 117.715 229.98C121.025 196.075 103.864 124.39 92.9214 104.057C81.4493 82.7494 57.6505 91.8719 57.6505 91.8719Z" fill="#FC751A"/>
<path d="M57.1816 90.7102C53.257 92.2862 49.7149 95.4775 47.2332 98.8228C40.8659 107.389 41.0074 118.47 43.8919 128.334C46.1764 136.136 50.1541 143.319 53.9426 150.472C57.7975 157.772 61.8099 164.993 65.9717 172.117C73.9998 185.869 82.5351 199.42 92.2192 212.067C96.1413 217.187 100.267 222.167 104.827 226.74C106.655 228.575 108.556 230.329 110.588 231.928C111.649 232.752 112.724 233.694 114.096 233.899C115.718 234.138 117.411 233.369 118.296 231.983C119.056 230.799 119.032 229.324 119.131 227.965C119.219 226.715 119.278 225.464 119.317 224.208C119.404 221.373 119.383 218.54 119.291 215.715C119.092 209.457 118.548 203.219 117.821 197.01C116.211 183.235 113.703 169.561 110.646 156.034C107.89 143.815 104.71 131.649 100.695 119.78C99.2133 115.419 97.626 111.071 95.7118 106.884C93.3295 101.684 90.1874 96.8195 85.4359 93.4794C77.7318 88.0689 67.6861 87.6435 58.8484 90.1657C58.2881 90.3259 57.7227 90.4926 57.1868 90.7035C55.679 91.2759 56.6171 93.5993 58.1182 93.0218C60.128 92.2547 61.8265 91.9157 64.0339 91.5786C68.4318 90.9125 73.0473 90.9789 77.3279 92.284C83.1521 94.0654 87.8016 97.9749 90.9755 103.141C93.1263 106.64 94.6655 110.557 96.1221 114.389C100.127 124.931 103.193 135.861 105.913 146.798C109.159 159.823 111.85 173.001 113.858 186.277C115.67 198.22 117.095 210.372 116.885 222.467C116.842 224.89 116.846 227.402 116.49 229.805C116.274 231.232 114.843 231.842 113.64 231.078C112.71 230.483 111.838 229.731 110.988 229.018C106.731 225.466 102.974 221.325 99.4246 217.08C89.9201 205.721 81.7125 193.253 73.9774 180.642C65.708 167.16 57.9502 153.319 50.9115 139.155C45.7795 128.833 41.6539 115.9 46.6462 104.724C47.9779 101.751 50.1124 98.88 52.3872 96.8411C53.3064 96.0136 54.2934 95.2494 55.3261 94.5632C55.7405 94.2898 56.1512 94.0347 56.5804 93.7834C56.7247 93.6934 56.8262 93.6448 56.5958 93.7635C56.6857 93.7163 56.7637 93.6706 56.8483 93.63C56.9941 93.5519 57.1398 93.4738 57.2922 93.4008C57.5565 93.2659 57.8325 93.1295 58.1116 93.0166C59.6097 92.4156 58.6782 90.0973 57.1801 90.6984L57.1816 90.7102Z" fill="black"/>
<path d="M53.7821 127.522C56.7585 125.209 60.1105 124.124 63.8681 124.077C65.7444 124.057 67.0906 121.913 66.8812 120.198C66.6251 118.16 64.8838 117.158 63.0024 117.185C58.1513 117.244 53.4514 118.983 49.6308 121.958C46.1046 124.705 50.2559 130.269 53.7821 127.522Z" fill="#D66112"/>
<path d="M84.7401 142.002C84.7643 141.957 86.7514 141.343 87.0149 141.25C87.8292 140.968 88.6442 140.74 89.4835 140.563C91.3728 140.17 93.2784 140.002 95.2099 139.993C97.1413 139.984 98.4139 137.825 98.2229 136.114C97.9904 134.073 96.21 133.094 94.3441 133.101C89.1373 133.139 80.9239 134.201 78.3159 139.351C76.297 143.332 82.7263 145.977 84.7334 141.997L84.7401 142.002Z" fill="#D66112"/>
<path d="M76.4048 174.055C79.0276 171.404 82.4817 169.845 86.1462 169.343C90.575 168.733 89.7159 161.846 85.2805 162.451C79.6699 163.228 74.8822 165.792 70.9215 169.796C69.5888 171.142 70.1904 173.597 71.5327 174.661C73.1417 175.943 75.0927 175.375 76.3982 174.05L76.4048 174.055Z" fill="#D66112"/>
<path d="M98.0531 190.967C100.98 188.691 104.491 187.538 108.214 187.836C112.65 188.188 113.593 181.308 109.127 180.954C103.633 180.513 98.2803 182.011 93.9017 185.403C90.3689 188.145 94.5202 193.708 98.0531 190.967Z" fill="#D66112"/>
</g>
<defs>
<clipPath id="clip0_912_3575">
<rect width="281" height="303" fill="white"/>
</clipPath>
</defs>
</svg>
