<?xml version="1.0" encoding="utf-8"?>
<svg width="281" height="303" viewBox="0 0 281 303" fill="none" xmlns="http://www.w3.org/2000/svg">
  <defs/>
  <mask id="mask2_944_520" style="mask-type:alpha" maskUnits="userSpaceOnUse" x="44" y="83" width="197" height="83">
    <path d="M239.5 153.5C239.5 153.496 239.5 153.496 239.499 153.5C239.487 153.542 239.37 153.952 238.231 154.63C237.083 155.314 235.291 156.025 232.844 156.73C227.974 158.132 220.853 159.414 211.969 160.496C194.221 162.658 169.659 164 142.5 164C115.341 164 90.7794 162.658 73.0314 160.496C64.147 159.414 57.0265 158.132 52.1558 156.73C49.709 156.025 47.9173 155.314 46.7685 154.63C45.6298 153.952 45.5133 153.542 45.5014 153.5C45.5001 153.496 45.5 153.496 45.5 153.5C45.5 150.244 45.5062 132.977 55.6512 116.553C65.7204 100.251 85.955 84.5 127 84.5C175.642 84.5 203.736 100.336 219.672 116.808C227.657 125.061 232.625 133.512 235.595 140.29C237.08 143.68 238.062 146.646 238.671 148.951C239.29 151.294 239.5 152.868 239.5 153.5Z" fill="#D9D9D9" stroke="black" stroke-width="3"/>
  </mask>
  <g mask="url(#mask2_944_520)" transform="matrix(1, 0, 0, 1, -0.173247, 7.282474)">
    <path d="M120.988 185.809C137.154 185.809 150.259 172.704 150.259 156.538C150.259 140.372 137.154 127.267 120.988 127.267C104.822 127.267 91.7168 140.372 91.7168 156.538C91.7168 172.704 104.822 185.809 120.988 185.809Z" fill="#FF8533"/>
    <path d="M148.461 156.538C148.377 167.928 141.21 178.473 130.411 182.358C119.612 186.243 107.112 182.865 99.7041 173.924C92.2959 164.984 91.5599 152.122 97.472 142.337C103.384 132.551 115.1 127.339 126.309 129.583C139.098 132.141 148.364 143.543 148.461 156.538C148.473 158.842 152.069 158.854 152.057 156.538C151.96 143.543 143.78 131.815 131.557 127.327C119.359 122.851 105.073 126.808 96.9291 136.919C88.8089 147.006 87.6507 161.412 94.3832 172.561C101.116 183.709 114.472 189.537 127.274 186.967C141.608 184.083 151.96 171.053 152.057 156.55C152.069 154.233 148.485 154.233 148.461 156.55V156.538Z" fill="black"/>
    <path d="M120.988 166.359C126.412 166.359 130.809 161.962 130.809 156.538C130.809 151.114 126.412 146.716 120.988 146.716C115.564 146.716 111.167 151.114 111.167 156.538C111.167 161.962 115.564 166.359 120.988 166.359Z" fill="#EA5F00"/>
  </g>
</svg>