<svg width="267" height="306" viewBox="0 0 267 306" fill="none" xmlns="http://www.w3.org/2000/svg">
<path d="M19.7558 187.718C28.6658 187.718 37.5758 187.718 46.4958 187.718C47.7558 187.718 49.0158 187.718 50.2858 187.718L48.7958 186.228V197.128L50.2858 195.638C45.4458 195.638 40.6058 195.638 35.7758 195.638C30.4958 195.638 25.1758 195.828 19.8958 195.638C18.0258 195.568 17.0558 194.268 17.0458 192.478C17.0258 190.408 16.9958 187.828 19.7658 187.718C21.6758 187.638 21.6858 184.668 19.7658 184.738C16.7658 184.858 14.2958 187.038 14.0758 190.088C13.9458 191.868 13.8858 193.988 14.7358 195.598C16.3058 198.538 19.2158 198.608 22.0658 198.608C29.2858 198.608 36.5058 198.608 43.7258 198.608C45.9058 198.608 48.0958 198.608 50.2758 198.608C51.0758 198.608 51.7658 197.928 51.7658 197.118V186.218C51.7658 185.418 51.0858 184.728 50.2758 184.728C41.3658 184.728 32.4558 184.728 23.5358 184.728C22.2758 184.728 21.0158 184.728 19.7458 184.728C17.8258 184.728 17.8258 187.708 19.7458 187.708L19.7558 187.718Z" fill="black"/>
<path d="M251.096 195.638C242.186 195.638 233.276 195.638 224.356 195.638C223.096 195.638 221.836 195.638 220.566 195.638L222.056 197.128V186.228L220.566 187.718C225.406 187.718 230.246 187.718 235.076 187.718C240.356 187.718 245.676 187.528 250.956 187.718C252.826 187.788 253.796 189.088 253.806 190.878C253.826 192.948 253.856 195.528 251.086 195.638C249.176 195.718 249.166 198.688 251.086 198.618C254.086 198.498 256.556 196.318 256.776 193.268C256.906 191.488 256.966 189.368 256.116 187.758C254.546 184.818 251.636 184.748 248.786 184.748C241.566 184.748 234.346 184.748 227.126 184.748C224.946 184.748 222.756 184.748 220.576 184.748C219.776 184.748 219.086 185.428 219.086 186.238V197.138C219.086 197.938 219.766 198.628 220.576 198.628C229.486 198.628 238.396 198.628 247.316 198.628C248.576 198.628 249.836 198.628 251.106 198.628C253.026 198.628 253.026 195.648 251.106 195.648L251.096 195.638Z" fill="black"/>
<path d="M51.7757 264.838V264.741L51.7633 264.645L39.0964 166.648C40.3598 166.916 42.1753 167.287 44.4949 167.728C49.3309 168.649 56.3586 169.874 65.1412 171.1C82.7044 173.55 107.297 176 135.421 176C163.545 176 188.137 173.55 205.7 171.1C214.483 169.874 221.51 168.649 226.346 167.728C228.666 167.287 230.482 166.916 231.745 166.648L219.078 264.645L219.066 264.741V264.838C219.066 275.525 216.764 283.139 212.744 288.614C208.728 294.083 202.868 297.593 195.406 299.827C187.923 302.068 178.92 302.997 168.746 303.355C161.39 303.614 153.494 303.575 145.174 303.533C141.985 303.516 138.733 303.5 135.426 303.5C132.548 303.5 129.673 303.516 126.813 303.531C108.692 303.63 91.1755 303.725 77.5412 299.823C69.7015 297.58 63.301 294.051 58.8499 288.559C54.4095 283.079 51.7757 275.481 51.7757 264.838Z" fill="#BEBFC1" stroke="black" stroke-width="3"/>
</svg>
