<svg width="267" height="306" viewBox="0 0 267 306" fill="none" xmlns="http://www.w3.org/2000/svg">
3.026 198.628 253.026 195.648 251.106 195.648L251.096 195.638Z" fill="black"/>

<path d="M55.2632 92.0755C47.773 99.5658 46.0856 110.023 51.4943 115.431C56.9031 120.84 67.3598 119.153 74.8501 111.662C82.3403 104.172 84.0277 93.7154 78.6189 88.3067C73.2102 82.8979 62.7535 84.5853 55.2632 92.0755Z" fill="#D7DEE0"/>
<path d="M50.4408 116.485C55.8501 121.739 64.2293 120.544 70.2609 117.072C77.1764 113.084 82.805 105.617 83.2505 97.4637C83.4344 94.1262 82.5576 90.7462 80.4362 88.1158C78.3149 85.4853 75.1965 84.0924 71.9156 83.7388C63.9818 82.8903 56.2319 87.8966 51.6216 94.006C47.0113 100.115 44.3101 110.199 50.4266 116.485C51.763 117.864 53.8702 115.757 52.5338 114.378C48.1851 109.902 49.67 102.831 52.5267 97.9799C55.9279 92.1887 62.2565 87.1894 69.1367 86.6732C71.8237 86.4752 74.6521 86.9702 76.8017 88.6814C78.9513 90.3926 80.0685 92.9383 80.2453 95.6041C80.712 102.406 76.3916 108.99 71.1236 112.928C66.0678 116.711 57.7098 119.412 52.5196 114.378C51.1478 113.048 49.0407 115.141 50.4124 116.485H50.4408Z" fill="black"/>
<path d="M5.68074 72.8139L35.9944 42.5002C38.0945 40.4001 41.5452 40.598 43.3979 42.9173L79.6159 88.3277L51.5084 116.435L6.09798 80.2172C3.77866 78.3646 3.58063 74.914 5.68074 72.8139Z" fill="#D7DEE0"/>
<path d="M6.7343 73.8675L20.7492 59.8526C26.1091 54.4928 31.4265 49.0905 36.8288 43.773C38.1935 42.4225 40.2087 42.0478 41.7714 43.3559C42.2381 43.7519 42.6271 44.3104 43.0089 44.7913L48.2132 51.3108C54.1883 58.7991 60.1633 66.2873 66.1313 73.7685L74.1074 83.767C75.5146 85.5277 76.8298 87.4652 78.3713 89.1057C78.442 89.1764 78.5056 89.2683 78.5693 89.3461L78.5693 87.2389C70.381 95.4272 62.1857 103.623 53.9974 111.811C52.8165 112.992 51.6427 114.165 50.4618 115.346H52.569C46.9687 110.877 41.3613 106.401 35.754 101.94L10.8284 82.0629L7.62526 79.5102C5.808 78.0607 4.9312 75.7697 6.73432 73.8393C8.04247 72.4463 5.94236 70.332 4.62714 71.7321C2.06034 74.4827 2.14516 78.7961 5.07965 81.2639C5.67362 81.7589 6.29589 82.2397 6.904 82.7205C10.2486 85.3863 13.5933 88.0521 16.9379 90.7179C25.904 97.8738 34.8701 105.016 43.8362 112.172C46.0495 113.932 48.2485 115.693 50.4618 117.454C51.0911 117.956 51.9468 118.076 52.569 117.454C60.7573 109.265 68.9527 101.07 77.141 92.8816C78.3219 91.7007 79.4957 90.5269 80.6765 89.3461C81.2917 88.7309 81.1786 87.8682 80.6765 87.2389C77.1339 82.8053 73.6054 78.3718 70.0628 73.9383C63.9109 66.2308 57.7592 58.5092 51.6073 50.8017C49.5992 48.2844 47.598 45.7742 45.5898 43.2569C45.2221 42.7902 44.8686 42.3235 44.4868 41.8709C42.6412 39.6718 39.537 38.9294 36.8995 40.082C34.7569 41.0225 32.9609 43.3983 31.3417 45.0176L21.725 54.6342C16.1389 60.2203 10.4395 65.7217 4.95238 71.4068C4.84631 71.5129 4.74028 71.6189 4.63422 71.725C3.27657 73.0826 5.38376 75.1898 6.7414 73.8322L6.7343 73.8675Z" fill="black"/>
<path d="M53.6297 117.072L80.2594 90.4422C81.5755 89.1261 81.5755 86.9923 80.2594 85.6763L80.2523 85.6692C78.9362 84.3531 76.8025 84.3531 75.4864 85.6692L48.8568 112.299C47.5407 113.615 47.5407 115.749 48.8568 117.065L48.8638 117.072C50.1799 118.388 52.3137 118.388 53.6297 117.072Z" fill="#D7DEE0"/>
<path d="M49.9105 113.352C58.2756 104.987 66.6336 96.6292 74.9987 88.2641C75.4654 87.7974 75.925 87.2954 76.4129 86.8499C77.5372 85.8246 79.4888 86.0509 79.7433 87.7904C79.9626 89.2965 77.7068 90.8876 76.7876 91.8068L61.3798 107.215C58.9615 109.633 56.5361 112.058 54.1178 114.477C53.6299 114.965 53.1562 115.495 52.6329 115.962C50.7944 117.588 48.2134 115.219 49.9105 113.352C51.1904 111.931 49.0973 109.824 47.8033 111.245C45.7103 113.564 46.0073 117.227 48.7933 118.882C50.7803 120.063 53.1632 119.561 54.7825 118.026C56.4017 116.492 57.9008 114.908 59.4564 113.352C65.2194 107.589 70.9823 101.826 76.7452 96.0635C78.2443 94.5645 79.7999 93.1078 81.2424 91.5664C82.8971 89.8127 83.2506 87.1964 81.7798 85.2024C79.9908 82.777 76.5826 82.6356 74.4259 84.6367C70.1974 88.5541 66.2518 92.8109 62.1788 96.8838C57.4766 101.586 52.647 106.189 48.0649 110.998C47.9801 111.083 47.8952 111.167 47.8104 111.252C46.4527 112.61 48.5599 114.717 49.9175 113.359L49.9105 113.352Z" fill="black"/>
<path d="M76.8157 97.5485C75.352 99.0122 77.6219 101.282 79.0856 99.8184C80.5493 98.3547 78.2794 96.0848 76.8157 97.5485Z" fill="black"/>
<path d="M74.4681 103.587C73.0044 105.051 75.2742 107.321 76.7379 105.857C78.2016 104.393 75.9318 102.124 74.4681 103.587Z" fill="black"/>
<path d="M69.1507 105.214C67.687 106.677 69.9568 108.947 71.4205 107.483C72.8842 106.02 70.6144 103.75 69.1507 105.214Z" fill="black"/>
<path d="M66.7325 110.828C65.2688 112.292 67.5386 114.561 69.0023 113.098C70.466 111.634 68.1962 109.364 66.7325 110.828Z" fill="black"/>
<path d="M61.4644 112.9C60.0007 114.364 62.2705 116.633 63.7342 115.17C65.198 113.706 62.9281 111.436 61.4644 112.9Z" fill="black"/>
<mask id="mask1_912_3966" style="mask-type:luminance" maskUnits="userSpaceOnUse" x="5" y="41" width="73" height="74">
<path d="M6.56464 72.425L35.853 43.1366C37.8824 41.1072 41.2129 41.2981 43.0019 43.5396L77.9966 87.4156L50.8366 114.576L6.96062 79.5809C4.7191 77.792 4.53524 74.4544 6.55757 72.4321L6.56464 72.425Z" fill="white"/>
</mask>
<g mask="url(#mask1_912_3966)">
<path d="M56.8612 57.3424C56.8612 57.3424 59.4916 71.0744 49.981 82.9043C38.1724 97.598 24.1433 98.3617 24.1433 98.3617L-4.74198 77.9334L46.3465 29.7582L56.8612 57.3424Z" fill="#3F722D"/>
</g>
<circle cx="93" cy="117" r="2" fill="#3F722D"/>
<circle cx="90" cy="127" r="2" fill="#3F722D"/>
<circle cx="107" cy="143" r="2" fill="#3F722D"/>
<circle cx="81" cy="123" r="2" fill="#3F722D"/>
<circle cx="87" cy="141" r="2" fill="#3F722D"/>
<circle cx="93" cy="163" r="2" fill="#3F722D"/>
</svg>
