<svg width="267" height="306" viewBox="5 -9 267 306" fill="none" xmlns="http://www.w3.org/2000/svg">
<g clip-path="url(#clip0_912_3575)">
<path d="M145.02 141.339C141.235 136.684 131.751 127.427 112.834 128.175C104.178 128.521 94.6686 130.166 89.9076 137.405C86.9448 141.907 86.1688 147.482 85.9092 152.864C85.6937 157.36 85.7828 161.908 86.71 166.313C88.6447 175.491 94.1644 183.642 101.059 190.008C107.953 196.374 116.183 201.106 124.581 205.297C139.132 212.565 155.871 218.463 171.435 213.709C188.652 208.443 200.29 189.167 196.933 171.485C196.025 166.695 194.114 162.02 190.908 158.361C186.472 153.3 180.021 150.576 173.796 148.013C160.437 142.516 147.602 138.068 134.504 144.17" fill="#E50A0A"/>
<path d="M145.936 140.651C140.914 134.491 134.007 130.296 126.324 128.337C120.577 126.87 114.571 126.743 108.688 127.302C103.554 127.791 98.2741 128.929 93.9185 131.819C88.8472 135.179 86.3448 140.76 85.3725 146.605C84.8387 149.822 84.6796 153.103 84.6642 156.36C84.6488 159.617 84.8314 162.682 85.425 165.784C87.6254 177.308 95.1478 187.033 104.175 194.182C109.348 198.28 115.065 201.659 120.908 204.714C126.128 207.442 131.465 209.968 136.995 212.013C147.38 215.856 158.879 218.114 169.818 215.334C179.463 212.883 187.662 206.447 192.786 197.962C197.909 189.476 200.029 179.308 197.699 169.654C196.316 163.937 193.519 158.7 188.971 154.889C184.422 151.078 178.417 148.649 172.795 146.364C163.01 142.388 152.306 138.587 141.614 140.659C139.001 141.164 136.468 141.996 134.055 143.104C132.716 143.724 133.583 145.852 134.925 145.225C139.526 143.108 144.504 142.153 149.567 142.413C154.63 142.673 159.505 143.943 164.246 145.575C169.486 147.373 174.709 149.45 179.702 151.84C184.694 154.23 189.766 157.69 192.661 162.852C197.444 171.364 197.29 181.995 193.753 190.909C190.216 199.824 183.934 206.837 175.638 210.823C166.189 215.365 155.302 214.902 145.381 212.291C140.142 210.911 135.063 208.929 130.143 206.686C124.68 204.2 119.304 201.449 114.185 198.32C104.421 192.352 95.3379 184.518 90.4643 173.943C88.0517 168.707 87.0211 163.129 86.948 157.382C86.8748 151.276 87.2047 144.526 90.2242 139.069C92.6857 134.626 97.1709 132.067 101.953 130.778C107.078 129.391 112.698 129.039 117.981 129.374C126.822 129.926 135.34 133.13 141.711 139.386C142.56 140.218 143.35 141.109 144.102 142.034C145.037 143.179 146.871 141.795 145.936 140.651Z" fill="black"/>
<path d="M149.446 136.922C145.8 133.313 135.266 130.588 130.148 130.238C125.239 129.909 119.62 130.478 116.638 134.386C124.705 130.505 132.023 132.939 138.298 139.322C132.891 139.504 131.157 143.649 130.871 149.053C134.965 146.489 139.493 144.609 144.202 143.516C144.767 143.384 145.361 143.264 145.907 143.459C146.588 143.694 147.016 144.35 147.373 144.977C149.496 148.744 150.582 153.09 150.48 157.415C153.478 152.828 154.961 147.264 154.633 141.787C157.324 144.495 160.305 146.913 163.511 148.991C164.948 149.919 166.458 150.81 167.534 152.139C168.61 153.468 169.162 155.389 168.396 156.919C169.949 152.388 168.911 147.066 165.781 143.447C164.155 141.57 162.043 140.159 159.838 139.027C154.845 136.478 154.065 135.842 148.462 136.092" fill="#527F12"/>
<path d="M150.16 136.016C148.627 134.538 146.625 133.541 144.687 132.714C142.321 131.707 139.858 130.953 137.369 130.322C132.789 129.167 127.883 128.47 123.2 129.423C120.301 130.01 117.599 131.307 115.741 133.668C115.049 134.542 116.022 135.936 117.083 135.443C120.514 133.823 124.269 133.168 127.982 134.136C131.695 135.103 134.913 137.512 137.598 140.217L138.152 138.173C135.651 138.29 133.276 139.305 131.83 141.42C130.385 143.535 129.887 146.306 129.74 148.897C129.678 149.926 130.72 150.496 131.57 149.964C133.682 148.656 135.904 147.526 138.208 146.599C139.384 146.128 140.574 145.706 141.781 145.34C142.809 145.025 144.137 144.451 145.22 144.502C146.23 144.548 146.792 146.265 147.164 147.057C147.638 148.084 148.049 149.142 148.382 150.227C149.072 152.499 149.389 154.9 149.345 157.267C149.329 158.265 150.703 159.182 151.389 158.122C154.562 153.198 156.086 147.475 155.778 141.63L153.929 142.689C156.46 145.221 159.227 147.509 162.21 149.501C164.362 150.938 168.812 153.184 167.342 156.477L169.465 157.365C171.498 151.186 169.395 144.448 164.285 140.461C161.837 138.55 158.833 137.008 155.965 135.842C153.503 134.845 150.931 134.832 148.315 134.943C146.842 135.004 147.152 137.285 148.618 137.22C150.823 137.13 153.003 137.122 155.077 137.964C157.568 138.973 160.151 140.279 162.32 141.856C166.905 145.18 169.145 150.988 167.342 156.477C166.886 157.868 168.851 158.732 169.465 157.365C171.134 153.636 167.963 150.494 165.097 148.642C161.587 146.37 158.316 143.847 155.354 140.884C154.575 140.106 153.456 141.06 153.505 141.943C153.779 147.129 152.401 152.344 149.585 156.714L151.629 157.57C151.683 154.78 151.321 152.043 150.507 149.368C150.103 148.035 149.582 146.738 148.952 145.503C148.322 144.269 147.681 142.921 146.363 142.411C145.13 141.937 143.705 142.463 142.498 142.786C141.009 143.185 139.542 143.65 138.109 144.197C135.342 145.249 132.705 146.59 130.195 148.15L132.025 149.217C132.143 147.133 132.396 144.87 133.522 143.057C134.649 141.243 136.432 140.583 138.464 140.488C139.574 140.433 139.637 139.062 139.018 138.443C136.021 135.424 132.456 132.944 128.294 131.889C124.132 130.835 119.977 131.565 116.211 133.345L117.552 135.12C120.511 131.37 125.978 131.063 130.377 131.43C134.776 131.798 139.07 132.958 143.082 134.57C145.095 135.378 147.159 136.326 148.747 137.852C149.813 138.884 151.22 137.062 150.165 136.043L150.16 136.016Z" fill="black"/>
</g>
<defs>
<clipPath id="clip0_912_3575">
<rect width="281" height="303" fill="white"/>
</clipPath>
</defs>
</svg>
