<svg width="267" height="306" viewBox="0 0 267 306" fill="none" xmlns="http://www.w3.org/2000/svg">
<path d="M211.352 92.6052C203.862 85.115 193.405 83.4276 187.997 88.8364C182.588 94.2451 184.275 104.702 191.766 112.192C199.256 119.682 209.713 121.37 215.121 115.961C220.53 110.552 218.843 100.095 211.352 92.6052Z" fill="#D7DEE0"/>
<path d="M186.943 87.7827C181.689 93.1921 182.884 101.571 186.356 107.603C190.344 114.518 197.811 120.147 205.964 120.592C209.302 120.776 212.682 119.899 215.312 117.778C217.943 115.657 219.336 112.538 219.689 109.258C220.538 101.324 215.532 93.5739 209.422 88.9636C203.15 84.233 193.229 81.6521 186.943 87.7686C185.564 89.105 187.672 91.2122 189.05 89.8757C193.526 85.527 200.597 87.012 205.448 89.8687C211.239 93.2698 216.239 99.5984 216.755 106.479C216.953 109.166 216.458 111.994 214.747 114.144C213.035 116.293 210.49 117.41 207.824 117.587C201.022 118.054 194.439 113.733 190.5 108.466C186.561 103.198 184.016 95.0517 189.05 89.8616C190.38 88.4898 188.287 86.3826 186.943 87.7544L186.943 87.7827Z" fill="black"/>
<path d="M230.628 43.0229L260.942 73.3366C263.042 75.4367 262.844 78.8874 260.525 80.74L215.114 116.958L187.007 88.8505L223.225 43.4401C225.078 41.1208 228.528 40.9228 230.628 43.0229Z" fill="#D7DEE0"/>
<path d="M229.575 44.0765L243.59 58.0914C248.949 63.4512 254.352 68.7687 259.669 74.171C261.02 75.5357 261.395 77.5509 260.086 79.1136C259.69 79.5803 259.132 79.9693 258.651 80.3511L252.131 85.5554C244.643 91.5304 237.155 97.5055 229.674 103.473L219.675 111.45C217.915 112.857 215.977 114.172 214.337 115.714C214.266 115.784 214.174 115.848 214.096 115.911L216.203 115.911C208.015 107.723 199.82 99.5278 191.631 91.3395C190.451 90.1586 189.277 88.9848 188.096 87.804L188.096 89.9112C192.565 84.3109 197.041 78.7035 201.503 73.0962C208.128 64.7877 214.754 56.4791 221.379 48.1706L223.932 44.9675C225.382 43.1502 227.673 42.2734 229.603 44.0765C230.996 45.3847 233.11 43.2846 231.71 41.9693C228.96 39.4025 224.646 39.4874 222.178 42.4219C221.683 43.0159 221.203 43.6381 220.722 44.2462C218.056 47.5908 215.39 50.9354 212.724 54.2801C205.568 63.2462 198.427 72.2123 191.271 81.1784C189.51 83.3916 187.749 85.5907 185.989 87.804C185.487 88.4333 185.366 89.2889 185.989 89.9112C194.177 98.0995 202.372 106.295 210.561 114.483C211.741 115.664 212.915 116.838 214.096 118.019C214.711 118.634 215.574 118.521 216.203 118.019C220.637 114.476 225.07 110.948 229.504 107.405C237.211 101.253 244.933 95.1013 252.641 88.9495L260.185 82.932C260.652 82.5643 261.119 82.2108 261.571 81.8289C263.77 79.9834 264.513 76.8792 263.36 74.2417C262.42 72.0991 260.044 70.3031 258.425 68.6838L248.808 59.0672C243.222 53.481 237.721 47.7817 232.035 42.2946C231.929 42.1885 231.823 42.0824 231.717 41.9764C230.36 40.6187 228.252 42.7259 229.61 44.0836L229.575 44.0765Z" fill="black"/>
<path d="M186.363 90.9648L212.993 117.594C214.309 118.911 216.443 118.911 217.759 117.594L217.766 117.587C219.082 116.271 219.082 114.138 217.766 112.821L191.136 86.1918C189.82 84.8758 187.687 84.8758 186.37 86.1918L186.363 86.1989C185.047 87.515 185.047 89.6487 186.363 90.9648Z" fill="#D7DEE0"/>
<path d="M190.09 87.2525C198.455 95.6175 206.813 103.976 215.178 112.341C215.645 112.807 216.147 113.267 216.592 113.755C217.617 114.879 217.391 116.831 215.652 117.085C214.146 117.304 212.555 115.049 211.635 114.13L196.228 98.7217C193.809 96.3034 191.384 93.878 188.966 91.4597C188.478 90.9718 187.947 90.4981 187.481 89.9748C185.854 88.1363 188.223 85.5554 190.09 87.2525C191.511 88.5323 193.618 86.4393 192.197 85.1453C189.878 83.0522 186.215 83.3492 184.56 86.1352C183.379 88.1222 183.881 90.5052 185.416 92.1244C186.95 93.7437 188.534 95.2428 190.09 96.7984C195.853 102.561 201.616 108.324 207.379 114.087C208.878 115.586 210.334 117.142 211.876 118.584C213.629 120.239 216.246 120.593 218.24 119.122C220.665 117.333 220.807 113.925 218.805 111.768C214.888 107.539 210.631 103.594 206.558 99.5208C201.856 94.8185 197.253 89.9889 192.444 85.4069C192.36 85.322 192.275 85.2372 192.19 85.1523C190.832 83.7947 188.725 85.9019 190.083 87.2595L190.09 87.2525Z" fill="black"/>
<path d="M205.887 114.151C204.423 112.687 202.153 114.957 203.617 116.421C205.081 117.884 207.35 115.615 205.887 114.151Z" fill="black"/>
<path d="M199.841 111.81C198.377 110.347 196.107 112.616 197.571 114.08C199.035 115.544 201.304 113.274 199.841 111.81Z" fill="black"/>
<path d="M198.229 106.493C196.765 105.029 194.495 107.299 195.959 108.763C197.423 110.226 199.692 107.956 198.229 106.493Z" fill="black"/>
<path d="M192.607 104.067C191.143 102.604 188.874 104.874 190.337 106.337C191.801 107.801 194.071 105.531 192.607 104.067Z" fill="black"/>
<path d="M190.542 98.8066C189.079 97.3429 186.809 99.6127 188.273 101.076C189.736 102.54 192.006 100.27 190.542 98.8066Z" fill="black"/>
<mask id="mask2_912_3966" style="mask-type:luminance" maskUnits="userSpaceOnUse" x="188" y="42" width="74" height="74">
<path d="M230.671 43.6311L260.489 73.4498C262.554 75.5145 262.377 78.8874 260.129 80.6835L215.942 115.834L188.294 88.1859L223.444 43.9988C225.233 41.7431 228.613 41.5734 230.678 43.6381L230.671 43.6311Z" fill="white"/>
</mask>
<g mask="url(#mask2_912_3966)">
<path d="M246.057 94.4296C246.057 94.4296 233.16 95.6317 220.149 87.3161C203.949 76.9711 205.257 61.3653 205.257 61.3653L224.851 31.9709L273.91 83.9574L246.057 94.4296Z" fill="#3F362E"/>
</g>
<circle cx="176" cy="114" r="2" fill="#3F362E"/>
<circle cx="186" cy="130" r="2" fill="#3F362E"/>
<circle cx="195" cy="129" r="2" fill="#3F362E"/>
<circle cx="176" cy="134" r="2" fill="#3F362E"/>
<circle cx="161" cy="161" r="2" fill="#3F362E"/>
<circle cx="182" cy="149" r="2" fill="#3F362E"/>
</svg>
