<svg width="281" height="303" viewBox="0 0 281 303" fill="none" xmlns="http://www.w3.org/2000/svg">
<path d="M24.7558 178.718C33.6658 178.718 42.5758 178.718 51.4958 178.718C52.7558 178.718 54.0158 178.718 55.2858 178.718L53.7958 177.228V188.128L55.2858 186.638C50.4458 186.638 45.6058 186.638 40.7758 186.638C35.4958 186.638 30.1758 186.828 24.8958 186.638C23.0258 186.568 22.0558 185.268 22.0458 183.478C22.0258 181.408 21.9958 178.828 24.7658 178.718C26.6758 178.638 26.6858 175.668 24.7658 175.738C21.7658 175.858 19.2958 178.038 19.0758 181.088C18.9458 182.868 18.8858 184.988 19.7358 186.598C21.3058 189.538 24.2158 189.608 27.0658 189.608C34.2858 189.608 41.5058 189.608 48.7258 189.608C50.9058 189.608 53.0958 189.608 55.2758 189.608C56.0758 189.608 56.7658 188.928 56.7658 188.118V177.218C56.7658 176.418 56.0858 175.728 55.2758 175.728C46.3658 175.728 37.4558 175.728 28.5358 175.728C27.2758 175.728 26.0158 175.728 24.7458 175.728C22.8258 175.728 22.8258 178.708 24.7458 178.708L24.7558 178.718Z" fill="black"/>
<path d="M256.096 186.638C247.186 186.638 238.276 186.638 229.356 186.638C228.096 186.638 226.836 186.638 225.566 186.638L227.056 188.128V177.228L225.566 178.718C230.406 178.718 235.246 178.718 240.076 178.718C245.356 178.718 250.676 178.528 255.956 178.718C257.826 178.788 258.796 180.088 258.806 181.878C258.826 183.948 258.856 186.528 256.086 186.638C254.176 186.718 254.166 189.688 256.086 189.618C259.086 189.498 261.556 187.318 261.776 184.268C261.906 182.488 261.966 180.368 261.116 178.758C259.546 175.818 256.636 175.748 253.786 175.748C246.566 175.748 239.346 175.748 232.126 175.748C229.946 175.748 227.756 175.748 225.576 175.748C224.776 175.748 224.086 176.428 224.086 177.238V188.138C224.086 188.938 224.766 189.628 225.576 189.628C234.486 189.628 243.396 189.628 252.316 189.628C253.576 189.628 254.836 189.628 256.106 189.628C258.026 189.628 258.026 186.648 256.106 186.648L256.096 186.638Z" fill="black"/>
<path d="M56.7758 255.838V255.741L56.7634 255.645L44.0966 157.648C45.3599 157.916 47.1754 158.287 49.495 158.728C54.331 159.649 61.3587 160.874 70.1414 162.1C87.7045 164.55 112.297 167 140.421 167C168.545 167 193.137 164.55 210.7 162.1C219.483 160.874 226.511 159.649 231.347 158.728C233.666 158.287 235.482 157.916 236.745 157.648L224.078 255.645L224.066 255.741V255.838C224.066 266.525 221.764 274.139 217.744 279.614C213.728 285.083 207.868 288.593 200.406 290.827C192.923 293.068 183.92 293.997 173.746 294.355C166.39 294.614 158.494 294.575 150.174 294.533C146.985 294.516 143.733 294.5 140.426 294.5C137.549 294.5 134.673 294.516 131.813 294.531C113.692 294.63 96.1756 294.725 82.5413 290.823C74.7016 288.58 68.3011 285.051 63.85 279.559C59.4096 274.079 56.7758 266.481 56.7758 255.838Z" fill="#BEBFC1" stroke="black" stroke-width="3"/>
<path d="M237.499 156C237.499 156 237.499 156 237.499 156C237.499 156 237.499 156 237.499 156C237.487 156.042 237.37 156.452 236.231 157.13C235.083 157.814 233.291 158.525 230.844 159.23C225.974 160.632 218.853 161.914 209.969 162.996C192.221 165.158 167.659 166.5 140.5 166.5C113.341 166.5 88.7794 165.158 71.0314 162.996C62.147 161.914 55.0265 160.632 50.1558 159.23C47.709 158.525 45.9173 157.814 44.7685 157.13C43.6298 156.452 43.5133 156.042 43.5014 156C43.5013 156 43.5013 156 43.5012 156C43.5013 156 43.5013 156 43.5014 156C43.5133 155.958 43.6298 155.548 44.7685 154.87C45.9173 154.186 47.709 153.475 50.1558 152.77C55.0265 151.368 62.147 150.086 71.0314 149.004C88.7794 146.842 113.341 145.5 140.5 145.5C167.659 145.5 192.221 146.842 209.969 149.004C218.853 150.086 225.974 151.368 230.844 152.77C233.291 153.475 235.083 154.186 236.231 154.87C237.37 155.548 237.487 155.958 237.499 156Z" fill="#D9D9D9" stroke="black" stroke-width="3"/>
<mask id="mask0_944_520" style="mask-type:alpha" maskUnits="userSpaceOnUse" x="44" y="83" width="197" height="83">
<path d="M239.5 153.5C239.5 153.496 239.5 153.496 239.499 153.5C239.487 153.542 239.37 153.952 238.231 154.63C237.083 155.314 235.291 156.025 232.844 156.73C227.974 158.132 220.853 159.414 211.969 160.496C194.221 162.658 169.659 164 142.5 164C115.341 164 90.7794 162.658 73.0314 160.496C64.147 159.414 57.0265 158.132 52.1558 156.73C49.709 156.025 47.9173 155.314 46.7685 154.63C45.6298 153.952 45.5133 153.542 45.5014 153.5C45.5001 153.496 45.5 153.496 45.5 153.5C45.5 150.244 45.5062 132.977 55.6512 116.553C65.7204 100.251 85.955 84.5 127 84.5C175.642 84.5 203.736 100.336 219.672 116.808C227.657 125.061 232.625 133.512 235.595 140.29C237.08 143.68 238.062 146.646 238.671 148.951C239.29 151.294 239.5 152.868 239.5 153.5Z" fill="#D9D9D9" stroke="black" stroke-width="3"/>
</mask>
<g mask="url(#mask0_944_520)">
<path d="M89.9719 189.104C112.378 189.104 130.542 170.94 130.542 148.534C130.542 126.128 112.378 107.964 89.9719 107.964C67.5657 107.964 49.4019 126.128 49.4019 148.534C49.4019 170.94 67.5657 189.104 89.9719 189.104Z" fill="#C3EA78"/>
<path d="M107.672 183.374C93.1818 190.704 75.1818 188.224 63.2918 177.114C51.4018 166.004 47.5618 147.964 54.1118 132.964C60.6618 117.964 76.4018 108.384 92.8118 109.554C109.222 110.724 123.332 122.434 127.672 138.214C132.012 153.994 126.012 170.734 113.022 180.114C111.322 181.334 109.542 182.424 107.682 183.374C105.982 184.254 107.482 186.824 109.182 185.944C124.652 177.964 133.892 160.754 131.722 143.424C129.552 126.094 116.322 111.264 99.0718 107.464C81.8218 103.664 63.5518 111.334 54.2318 126.364C44.9118 141.394 46.1918 160.934 57.0918 174.744C67.9918 188.554 86.6218 193.924 103.052 188.504C105.162 187.814 107.202 186.934 109.182 185.944C110.892 185.084 109.382 182.514 107.682 183.374H107.672Z" fill="black"/>
<path d="M97.6119 139.764C97.4119 139.334 97.4319 138.984 97.6119 138.644C97.7919 138.304 97.8519 138.374 97.7219 138.474C97.7519 138.454 98.0719 138.244 97.8719 138.344C97.6719 138.444 97.4719 138.544 97.2719 138.624C97.0719 138.704 96.8619 138.804 96.6719 138.924C96.3519 139.124 96.1219 139.384 95.8519 139.624C95.8319 139.644 95.8019 139.664 95.7819 139.694C95.7019 139.764 95.7319 139.734 95.8919 139.614C95.8619 139.674 95.7419 139.724 95.6919 139.754C95.5519 139.844 95.4119 139.934 95.2619 140.014C94.9519 140.184 94.6219 140.344 94.2919 140.494C93.5319 140.854 92.7819 141.204 92.0219 141.564C91.3119 141.894 91.0819 142.964 91.4919 143.604C91.9619 144.334 92.7719 144.494 93.5319 144.134C94.3819 143.734 95.2419 143.334 96.0919 142.934C96.8619 142.564 97.6719 142.124 98.2419 141.474C98.4019 141.294 98.1319 141.584 98.0919 141.574C98.1119 141.574 98.2219 141.484 98.2519 141.474C98.3619 141.404 98.4919 141.344 98.6119 141.294C98.8519 141.184 99.0919 141.094 99.3219 140.974C99.6819 140.774 100.022 140.484 100.222 140.124C100.552 139.514 100.482 138.894 100.202 138.284C99.8719 137.574 98.7919 137.344 98.1619 137.754C97.4319 138.224 97.2819 139.034 97.6319 139.794L97.6119 139.764Z" fill="#69AA31"/>
<path d="M102.042 149.284C101.062 149.324 100.092 149.304 99.1118 149.204C99.0018 149.194 98.8918 149.184 98.7718 149.164C98.7018 149.164 98.6218 149.144 98.5518 149.134L98.7218 149.154C98.4618 149.134 98.2018 149.074 97.9418 149.034C97.4618 148.944 96.9818 148.844 96.5118 148.724C95.7618 148.534 94.8618 148.974 94.6818 149.764C94.5018 150.554 94.9118 151.394 95.7218 151.594C97.7718 152.114 99.9118 152.344 102.032 152.254C102.812 152.224 103.562 151.594 103.522 150.764C103.492 149.984 102.862 149.244 102.032 149.274L102.042 149.284Z" fill="#69AA31"/>
<path d="M78.7318 139.054C79.0318 139.234 79.3118 139.424 79.5918 139.634L79.2918 139.404C79.8918 139.864 80.4218 140.404 80.8818 140.994L80.6518 140.694C81.0518 141.214 81.3818 141.774 81.6618 142.364C81.8118 142.684 82.2218 142.954 82.5518 143.044C82.9118 143.144 83.3818 143.094 83.7018 142.894C84.0218 142.694 84.3018 142.384 84.3818 142.004C84.4718 141.594 84.4118 141.234 84.2318 140.854C83.3918 139.044 81.9518 137.504 80.2418 136.474C79.5718 136.074 78.5818 136.304 78.2018 137.004C77.8218 137.704 78.0218 138.614 78.7318 139.044V139.054Z" fill="#69AA31"/>
<path d="M73.4718 147.374C75.2718 147.954 77.0918 148.414 78.9418 148.774C79.7018 148.924 80.5818 148.564 80.7718 147.734C80.9418 146.994 80.5518 146.064 79.7318 145.904C77.8818 145.544 76.0518 145.074 74.2618 144.504C73.5218 144.264 72.6018 144.784 72.4318 145.544C72.2418 146.354 72.6818 147.124 73.4718 147.374Z" fill="#69AA31"/>
<path d="M82.7918 163.654C83.3918 161.494 83.9818 159.344 84.5818 157.184C84.7918 156.434 84.3218 155.534 83.5418 155.354C82.7618 155.174 81.9318 155.594 81.7118 156.394C81.1118 158.554 80.5218 160.704 79.9218 162.864C79.7118 163.614 80.1818 164.514 80.9618 164.694C81.7418 164.874 82.5718 164.454 82.7918 163.654Z" fill="#69AA31"/>
<path d="M89.0818 158.004C89.0318 159.934 88.9818 161.864 88.9318 163.794C88.9118 164.574 89.6318 165.314 90.4218 165.284C91.2118 165.254 91.8918 164.634 91.9118 163.794C91.9618 161.864 92.0118 159.934 92.0618 158.004C92.0818 157.224 91.3618 156.484 90.5718 156.514C89.7818 156.544 89.1018 157.164 89.0818 158.004Z" fill="#69AA31"/>
</g>
<mask id="mask1_944_520" style="mask-type:alpha" maskUnits="userSpaceOnUse" x="44" y="83" width="197" height="83">
<path d="M239.5 153.5C239.5 153.496 239.5 153.496 239.499 153.5C239.487 153.542 239.37 153.952 238.231 154.63C237.083 155.314 235.291 156.025 232.844 156.73C227.974 158.132 220.853 159.414 211.969 160.496C194.221 162.658 169.659 164 142.5 164C115.341 164 90.7794 162.658 73.0314 160.496C64.147 159.414 57.0265 158.132 52.1558 156.73C49.709 156.025 47.9173 155.314 46.7685 154.63C45.6298 153.952 45.5133 153.542 45.5014 153.5C45.5001 153.496 45.5 153.496 45.5 153.5C45.5 150.244 45.5062 132.977 55.6512 116.553C65.7204 100.251 85.955 84.5 127 84.5C175.642 84.5 203.736 100.336 219.672 116.808C227.657 125.061 232.625 133.512 235.595 140.29C237.08 143.68 238.062 146.646 238.671 148.951C239.29 151.294 239.5 152.868 239.5 153.5Z" fill="#D9D9D9" stroke="black" stroke-width="3"/>
</mask>
<g mask="url(#mask1_944_520)">
<path d="M221.247 132.86C209.447 109.167 187.505 100.953 177.676 109.095C170.005 115.451 163.116 125.945 157.778 129.951C147.886 137.374 144.023 138.513 134.005 142.451C121.323 147.436 112.737 148.691 110.083 157.325C105.769 171.356 132.008 199.823 157.778 208.715C183.547 217.608 215.019 189.841 219.666 183.863C224.313 177.885 235.997 162.475 221.247 132.86Z" fill="#E50A0A" stroke="black" stroke-width="3"/>
<path d="M155.153 151.994C159.491 152.707 163.991 153.415 168.082 152.206C172.172 150.996 175.715 147.242 175.199 142.88C174.781 139.358 171.887 135.9 172.898 132.6C173.626 130.228 176.136 128.992 178.518 128.317C186.285 126.142 195.36 127.702 202.066 132.899C208.772 138.096 212.748 146.935 211.477 154.979C210.268 162.529 204.962 168.47 199.427 173.487C195.284 177.26 190.854 180.783 185.815 183.319C168.652 191.98 145.046 187.01 131.332 171.877C129.799 170.188 128.308 168.202 128.263 165.994C128.222 164.148 129.205 162.514 130.23 161.048C133.119 156.887 136.675 153.04 141.273 150.868C145.871 148.697 150.503 149.272 155.134 151.991L155.153 151.994Z" fill="#BF0822"/>
<path d="M192.291 160.127C191.523 159.325 190.758 158.504 189.935 157.76C189.682 157.535 189.419 157.317 189.177 157.083L189.658 157.569C189.028 156.929 188.468 156.204 187.894 155.506C187.474 154.99 186.892 154.613 186.215 154.507C185.601 154.42 184.817 154.592 184.323 154.996C183.829 155.4 183.402 156.003 183.325 156.676C183.248 157.348 183.379 158.03 183.814 158.567C184.582 159.502 185.329 160.452 186.208 161.27C186.745 161.764 187.285 162.24 187.789 162.758L187.308 162.272C187.606 162.58 187.896 162.877 188.193 163.185C188.679 163.7 189.147 164.08 189.872 164.184C190.486 164.271 191.27 164.098 191.764 163.694C192.258 163.29 192.685 162.687 192.762 162.015C192.823 161.388 192.735 160.607 192.273 160.124L192.291 160.127Z" fill="#FC7E0B"/>
<path d="M179.995 170.715C179.513 168.171 178.867 165.65 178.041 163.198C177.613 161.942 175.952 161.212 174.736 161.759C173.429 162.341 172.845 163.71 173.297 165.064C173.749 166.419 174.129 167.678 174.469 169.017L174.304 168.377C174.546 169.341 174.756 170.329 174.94 171.304C175.07 171.986 175.355 172.587 175.918 173.028C176.396 173.399 177.158 173.641 177.769 173.548C178.428 173.452 179.09 173.138 179.493 172.57C179.862 172.044 180.13 171.361 180.013 170.718L179.995 170.715Z" fill="#FC7E0B"/>
<path d="M165.991 173.718C166.012 171.843 166.022 169.975 166.043 168.1C166.016 167.754 165.91 167.436 165.721 167.162C165.585 166.849 165.368 166.58 165.083 166.378C164.605 166.007 163.843 165.765 163.232 165.858C162.573 165.954 161.911 166.268 161.508 166.836L161.171 167.405C160.998 167.817 160.937 168.244 160.988 168.688L160.936 174.306C160.962 174.652 161.069 174.97 161.257 175.244C161.393 175.557 161.611 175.826 161.895 176.027C162.373 176.399 163.136 176.641 163.747 176.548C164.406 176.452 165.067 176.138 165.471 175.57L165.808 175.001C165.98 174.589 166.041 174.162 165.991 173.718Z" fill="#FC7E0B"/>
<path d="M152.584 172.404L154.931 166.325C155.169 165.714 155.193 165.016 154.949 164.402C154.704 163.788 154.17 163.209 153.567 162.981C152.964 162.753 152.252 162.689 151.644 162.963C151.035 163.237 150.475 163.707 150.223 164.345C149.44 166.377 148.667 168.401 147.876 170.423C147.637 171.034 147.613 171.733 147.858 172.346C148.102 172.96 148.637 173.539 149.24 173.767C149.843 173.996 150.555 174.059 151.163 173.785C151.771 173.512 152.331 173.041 152.584 172.404Z" fill="#FC7E0B"/>
<path d="M139.762 165.518C140.984 164.336 142.227 163.204 143.448 162.022C143.724 161.814 143.95 161.562 144.099 161.251C144.29 160.975 144.399 160.677 144.439 160.332C144.526 159.718 144.353 158.935 143.949 158.441C143.546 157.947 142.942 157.519 142.27 157.442C141.643 157.381 140.863 157.469 140.379 157.932C139.157 159.114 137.915 160.246 136.693 161.428C136.417 161.636 136.191 161.888 136.042 162.199C135.851 162.475 135.742 162.773 135.702 163.118C135.615 163.732 135.788 164.515 136.192 165.009C136.596 165.503 137.199 165.931 137.871 166.008C138.498 166.069 139.279 165.981 139.762 165.518Z" fill="#FC7E0B"/>
<path d="M197.526 143.778L191.939 142.374C191.344 142.223 190.526 142.505 190.048 142.863C189.548 143.238 189.121 143.908 189.049 144.542C188.978 145.177 189.111 145.908 189.539 146.434L190.02 146.92C190.37 147.188 190.782 147.361 191.218 147.432L196.805 148.836C197.4 148.987 198.218 148.705 198.696 148.347C199.195 147.972 199.623 147.303 199.694 146.668C199.766 146.033 199.633 145.302 199.205 144.776L198.724 144.29C198.373 144.022 197.961 143.85 197.526 143.778Z" fill="#FC7E0B"/>
</g>
<mask id="mask2_944_520" style="mask-type:alpha" maskUnits="userSpaceOnUse" x="44" y="83" width="197" height="83">
<path d="M239.5 153.5C239.5 153.496 239.5 153.496 239.499 153.5C239.487 153.542 239.37 153.952 238.231 154.63C237.083 155.314 235.291 156.025 232.844 156.73C227.974 158.132 220.853 159.414 211.969 160.496C194.221 162.658 169.659 164 142.5 164C115.341 164 90.7794 162.658 73.0314 160.496C64.147 159.414 57.0265 158.132 52.1558 156.73C49.709 156.025 47.9173 155.314 46.7685 154.63C45.6298 153.952 45.5133 153.542 45.5014 153.5C45.5001 153.496 45.5 153.496 45.5 153.5C45.5 150.244 45.5062 132.977 55.6512 116.553C65.7204 100.251 85.955 84.5 127 84.5C175.642 84.5 203.736 100.336 219.672 116.808C227.657 125.061 232.625 133.512 235.595 140.29C237.08 143.68 238.062 146.646 238.671 148.951C239.29 151.294 239.5 152.868 239.5 153.5Z" fill="#D9D9D9" stroke="black" stroke-width="3"/>
</mask>
<g mask="url(#mask2_944_520)">
<path d="M120.988 185.809C137.154 185.809 150.259 172.704 150.259 156.538C150.259 140.372 137.154 127.267 120.988 127.267C104.822 127.267 91.7168 140.372 91.7168 156.538C91.7168 172.704 104.822 185.809 120.988 185.809Z" fill="#FF8533"/>
<path d="M148.461 156.538C148.377 167.928 141.21 178.473 130.411 182.358C119.612 186.243 107.112 182.865 99.7041 173.924C92.2959 164.984 91.5599 152.122 97.472 142.337C103.384 132.551 115.1 127.339 126.309 129.583C139.098 132.141 148.364 143.543 148.461 156.538C148.473 158.842 152.069 158.854 152.057 156.538C151.96 143.543 143.78 131.815 131.557 127.327C119.359 122.851 105.073 126.808 96.9291 136.919C88.8089 147.006 87.6507 161.412 94.3832 172.561C101.116 183.709 114.472 189.537 127.274 186.967C141.608 184.083 151.96 171.053 152.057 156.55C152.069 154.233 148.485 154.233 148.461 156.55V156.538Z" fill="black"/>
<path d="M120.988 166.359C126.412 166.359 130.809 161.962 130.809 156.538C130.809 151.114 126.412 146.716 120.988 146.716C115.564 146.716 111.167 151.114 111.167 156.538C111.167 161.962 115.564 166.359 120.988 166.359Z" fill="#EA5F00"/>
</g>
</svg>
