<?xml version="1.0" encoding="utf-8"?>
<svg width="346" height="249" viewBox="0 0 346 249" fill="none" xmlns="http://www.w3.org/2000/svg">
  <defs/>
  <path d="M 196.222 121.671 C 196.022 121.241 196.042 120.891 196.222 120.551 C 196.402 120.211 196.462 120.281 196.332 120.381 C 196.362 120.361 196.682 120.151 196.482 120.251 C 196.282 120.351 196.082 120.451 195.882 120.531 C 195.682 120.611 195.472 120.711 195.282 120.831 C 194.962 121.031 194.732 121.291 194.462 121.531 C 194.442 121.551 194.412 121.571 194.392 121.601 C 194.312 121.671 194.342 121.641 194.502 121.521 C 194.472 121.581 194.352 121.631 194.302 121.661 C 194.162 121.751 194.022 121.841 193.872 121.921 C 193.562 122.091 193.232 122.251 192.902 122.401 C 192.142 122.761 191.392 123.111 190.632 123.471 C 189.922 123.801 189.692 124.871 190.102 125.511 C 190.572 126.241 191.382 126.401 192.142 126.041 C 192.992 125.641 193.852 125.241 194.702 124.841 C 195.472 124.471 196.282 124.031 196.852 123.381 C 197.012 123.201 196.742 123.491 196.702 123.481 C 196.722 123.481 196.832 123.391 196.862 123.381 C 196.972 123.311 197.102 123.251 197.222 123.201 C 197.462 123.091 197.702 123.001 197.932 122.881 C 198.292 122.681 198.632 122.391 198.832 122.031 C 199.162 121.421 199.092 120.801 198.812 120.191 C 198.482 119.481 197.402 119.251 196.772 119.661 C 196.042 120.131 195.892 120.941 196.242 121.701 L 196.222 121.671 Z" fill="#69AA31" style="transform-box: fill-box; transform-origin: 50% 50%;" transform="matrix(-1, 0, 0, -1, -0.000029, 0.000012)"/>
  <path d="M 194.219 112.108 C 193.239 112.148 192.269 112.128 191.289 112.028 C 191.179 112.018 191.069 112.008 190.949 111.988 C 190.879 111.988 190.799 111.968 190.729 111.958 L 190.899 111.978 C 190.639 111.958 190.379 111.898 190.119 111.858 C 189.639 111.768 189.159 111.668 188.689 111.548 C 187.939 111.358 187.039 111.798 186.859 112.588 C 186.679 113.378 187.089 114.218 187.899 114.418 C 189.949 114.938 192.089 115.168 194.209 115.078 C 194.989 115.048 195.739 114.418 195.699 113.588 C 195.669 112.808 195.039 112.068 194.209 112.098 L 194.219 112.108 Z" fill="#69AA31" style="transform-box: fill-box; transform-origin: 50% 50%;" transform="matrix(-1, 0, 0, -1, 0.000019, 0.000013)"/>
  <path d="M 208.63 107.383 C 209.23 105.223 209.82 103.073 210.42 100.913 C 210.63 100.163 210.16 99.263 209.38 99.083 C 208.6 98.903 207.77 99.323 207.55 100.123 C 206.95 102.283 206.36 104.433 205.76 106.593 C 205.55 107.343 206.02 108.243 206.8 108.423 C 207.58 108.603 208.41 108.183 208.63 107.383 Z" fill="#69AA31" style="transform-box: fill-box; transform-origin: 50% 50%;" transform="matrix(-1, 0, 0, -1, -0.000019, -0.000001)"/>
  <path d="M 198.43 99.983 C 198.38 101.913 198.33 103.843 198.28 105.773 C 198.26 106.553 198.98 107.293 199.77 107.263 C 200.56 107.233 201.24 106.613 201.26 105.773 C 201.31 103.843 201.36 101.913 201.41 99.983 C 201.43 99.203 200.71 98.463 199.92 98.493 C 199.13 98.523 198.45 99.143 198.43 99.983 Z" fill="#69AA31" style="transform-box: fill-box; transform-origin: 50% 50%;" transform="matrix(-1, 0, 0, -1, 0.000015, -0.000007)"/>
  <path d="M 187.354 127.51 C 203.52 127.51 216.625 114.405 216.625 98.239 C 216.625 82.073 203.52 68.968 187.354 68.968 C 171.188 68.968 158.083 82.073 158.083 98.239 C 158.083 114.405 171.188 127.51 187.354 127.51 Z" fill="#FF8533" style="transform-box: fill-box; transform-origin: 50% 50%;" transform="matrix(-1, 0, 0, -1, -0.000027, 0.000001)"/>
  <path d="M 214.745 98.247 C 214.661 109.637 207.494 120.182 196.695 124.067 C 185.896 127.952 173.396 124.574 165.988 115.633 C 158.58 106.693 157.844 93.831 163.756 84.046 C 169.668 74.26 181.384 69.048 192.593 71.292 C 205.382 73.85 214.648 85.252 214.745 98.247 C 214.757 100.551 218.353 100.563 218.341 98.247 C 218.244 85.252 210.064 73.524 197.841 69.036 C 185.643 64.56 171.357 68.517 163.213 78.628 C 155.093 88.715 153.935 103.121 160.667 114.27 C 167.4 125.418 180.756 131.246 193.558 128.676 C 207.892 125.792 218.244 112.762 218.341 98.259 C 218.353 95.942 214.769 95.942 214.745 98.259 L 214.745 98.247 Z" fill="black" style="transform-box: fill-box; transform-origin: 50% 50%;" transform="matrix(-1, 0, 0, -1, -0.000011, -0.000009)"/>
  <path d="M 187.353 108.061 C 192.777 108.061 197.174 103.664 197.174 98.24 C 197.174 92.816 192.777 88.418 187.353 88.418 C 181.929 88.418 177.532 92.816 177.532 98.24 C 177.532 103.664 181.929 108.061 187.353 108.061 Z" fill="#EA5F00" style="transform-box: fill-box; transform-origin: 50% 50%;" transform="matrix(-1, 0, 0, -1, 0.000019, -0.000002)"/>
  <path d="M 122.353 147.511 C 138.519 147.511 151.624 134.406 151.624 118.24 C 151.624 102.074 138.519 88.968 122.353 88.968 C 106.187 88.968 93.082 102.074 93.082 118.24 C 93.082 134.406 106.187 147.511 122.353 147.511 Z" fill="#FF8533" style="transform-box: fill-box; transform-origin: 50% 50%;" transform="matrix(-1, 0, 0, -1, 0.000008, -0.000007)"/>
  <path d="M 149.745 118.247 C 149.661 129.637 142.494 140.182 131.695 144.067 C 120.896 147.952 108.396 144.574 100.988 135.633 C 93.58 126.693 92.844 113.831 98.756 104.046 C 104.668 94.26 116.384 89.048 127.593 91.292 C 140.382 93.85 149.648 105.252 149.745 118.247 C 149.757 120.551 153.353 120.563 153.341 118.247 C 153.244 105.252 145.064 93.524 132.841 89.036 C 120.643 84.559 106.357 88.517 98.213 98.628 C 90.093 108.715 88.935 123.121 95.667 134.27 C 102.4 145.418 115.756 151.246 128.558 148.676 C 142.892 145.792 153.244 132.762 153.341 118.259 C 153.353 115.942 149.769 115.942 149.745 118.259 L 149.745 118.247 Z" fill="black" style="transform-box: fill-box; transform-origin: 50% 50%;" transform="matrix(-1, 0, 0, -1, -0.000002, -0.000004)"/>
  <path d="M 122.353 128.061 C 127.777 128.061 132.174 123.664 132.174 118.24 C 132.174 112.816 127.777 108.418 122.353 108.418 C 116.929 108.418 112.532 112.816 112.532 118.24 C 112.532 123.664 116.929 128.061 122.353 128.061 Z" fill="#EA5F00" style="transform-box: fill-box; transform-origin: 50% 50%;" transform="matrix(-1, 0, 0, -1, 0.000008, -0.000007)"/>
  <path d="M 146.354 126.51 C 162.52 126.51 175.625 113.405 175.625 97.239 C 175.625 81.073 162.52 67.968 146.354 67.968 C 130.188 67.968 117.083 81.073 117.083 97.239 C 117.083 113.405 130.188 126.51 146.354 126.51 Z" fill="#FF8533" style="transform-box: fill-box; transform-origin: 50% 50%;" transform="matrix(-1, 0, 0, -1, 0.000001, 0)"/>
  <path d="M 173.745 97.247 C 173.661 108.637 166.494 119.182 155.695 123.067 C 144.896 126.952 132.396 123.574 124.988 114.633 C 117.58 105.693 116.844 92.831 122.756 83.046 C 128.668 73.26 140.384 68.048 151.593 70.292 C 164.382 72.85 173.648 84.252 173.745 97.247 C 173.757 99.551 177.353 99.563 177.341 97.247 C 177.244 84.252 169.064 72.524 156.841 68.036 C 144.643 63.56 130.357 67.517 122.213 77.628 C 114.093 87.715 112.935 102.121 119.667 113.27 C 126.4 124.418 139.756 130.246 152.558 127.676 C 166.892 124.792 177.244 111.762 177.341 97.259 C 177.353 94.942 173.769 94.942 173.745 97.259 L 173.745 97.247 Z" fill="black" style="transform-box: fill-box; transform-origin: 50% 50%;" transform="matrix(-1, 0, 0, -1, -0.000003, 0.00001)"/>
  <path d="M 146.353 107.061 C 151.777 107.061 156.174 102.664 156.174 97.24 C 156.174 91.816 151.777 87.418 146.353 87.418 C 140.929 87.418 136.532 91.816 136.532 97.24 C 136.532 102.664 140.929 107.061 146.353 107.061 Z" fill="#EA5F00" style="transform-box: fill-box; transform-origin: 50% 50%;" transform="matrix(-1, 0, 0, -1, 0.000007, -0.000003)"/>
  <path d="M173.277 159.733C260.411 159.733 331.047 153.922 331.047 146.753C331.047 139.584 260.411 133.773 173.277 133.773C86.1431 133.773 15.5071 139.584 15.5071 146.753C15.5071 153.922 86.1431 159.733 173.277 159.733Z" fill="#512B11"/>
  <path d="M329.567 146.753C329.567 146.673 329.597 146.623 329.597 146.623C329.537 146.613 329.447 146.793 329.617 146.623C329.537 146.703 329.467 146.803 329.367 146.873C329.047 147.123 329.407 146.863 329.297 146.943C329.177 147.033 329.047 147.113 328.927 147.193C328.627 147.373 328.317 147.533 328.007 147.693C327.397 147.993 326.647 148.263 325.707 148.563C324.577 148.923 323.437 149.223 322.287 149.503C315.237 151.213 307.967 152.103 300.767 152.913C276.197 155.683 251.407 156.753 226.707 157.483C194.717 158.433 162.687 158.503 130.687 157.763C104.667 157.163 78.5871 156.153 52.6771 153.633C44.5371 152.843 36.3671 151.933 28.3271 150.373C25.7771 149.873 23.2171 149.323 20.7471 148.513C19.7771 148.193 19.1671 147.973 18.4871 147.643C18.2071 147.503 17.9371 147.353 17.6671 147.193C17.5371 147.123 17.4171 147.033 17.2971 146.943C17.2871 146.933 17.4771 147.093 17.1671 146.823C16.7471 146.453 17.2471 146.753 16.9871 146.613C17.0171 146.633 16.9871 146.773 17.0171 146.693C17.0971 146.513 16.8571 147.123 17.0171 146.803C17.0571 146.713 16.9171 146.863 16.9871 146.873C17.0371 146.883 17.0971 146.773 16.9671 146.873C17.0771 146.783 17.1571 146.663 17.2671 146.573C17.5571 146.343 17.0371 146.723 17.3171 146.533C17.4271 146.453 17.5371 146.373 17.6571 146.303C17.9971 146.113 18.3271 145.923 18.6871 145.753C19.2171 145.493 20.1371 145.163 21.0371 144.883C27.0271 142.993 33.3871 142.143 39.5971 141.333C62.6371 138.313 85.9671 137.213 109.177 136.363C140.937 135.203 172.727 134.973 204.497 135.503C231.707 135.953 258.957 136.873 286.087 139.153C295.177 139.913 304.267 140.803 313.277 142.243C316.357 142.733 319.447 143.293 322.477 144.033C323.607 144.313 324.737 144.613 325.857 144.973C326.317 145.123 326.767 145.283 327.227 145.453C327.597 145.593 327.597 145.583 328.117 145.843C328.427 145.993 328.717 146.163 329.017 146.343C329.127 146.413 329.237 146.493 329.347 146.573C329.267 146.513 329.147 146.433 329.387 146.613C329.477 146.683 329.547 146.793 329.637 146.863C329.397 146.683 329.587 146.873 329.617 146.863C329.617 146.863 329.587 146.783 329.587 146.733C329.637 148.643 332.607 148.653 332.567 146.733C332.487 143.283 326.897 142.103 324.377 141.443C317.447 139.613 310.247 138.723 303.137 137.873C278.257 134.913 253.127 133.833 228.107 133.073C195.167 132.073 162.187 131.993 129.247 132.783C102.967 133.413 76.6171 134.433 50.4471 137.103C42.2571 137.933 34.0271 138.873 25.9671 140.563C23.5671 141.063 21.1471 141.623 18.8371 142.493C17.4271 143.023 15.8371 143.643 14.8271 144.813C12.1371 147.903 16.6671 150.193 19.0371 151.053C24.7671 153.143 31.0571 153.943 37.0671 154.773C60.3971 158.013 84.0471 159.133 107.567 160.023C140.157 161.253 172.787 161.483 205.397 160.933C233.117 160.463 260.887 159.523 288.507 157.093C297.627 156.293 306.757 155.353 315.787 153.823C320.507 153.023 326.077 152.343 330.277 149.853C331.427 149.173 332.527 148.183 332.567 146.743C332.617 144.823 329.637 144.823 329.587 146.743L329.567 146.753Z" fill="black"/>
  <path d="M83.6214 106.024C79.2874 101.191 68.5308 91.6828 48.1068 93.4907C38.7665 94.3219 29.5719 98.7473 24.8077 106.828C21.8423 111.849 21.3015 117.928 21.2986 123.754C21.301 128.626 21.6376 133.544 22.8777 138.257C25.4586 148.082 30.8603 154.461 38.6562 160.983C46.4521 167.505 55.6044 172.189 64.9113 176.269C81.0406 183.361 95.5197 187.431 112.102 181.457C130.444 174.854 142.008 153.389 137.446 134.435C136.207 129.307 133.894 124.355 130.226 120.56C125.169 115.316 121.969 114.137 115.1 111.694C100.363 106.457 91.4371 104.439 83.6342 106.018" fill="#E50A0A"/>
  <path d="M84.7656 105.066C79.2866 98.9889 72.0104 94.7924 64.0407 92.9824C52.7028 90.4001 39.4251 91.4443 29.9855 98.7799C25.1352 102.544 21.9343 107.745 20.6774 113.746C19.3128 120.249 19.5033 127.422 20.4815 133.976C21.3525 139.768 23.3526 145.32 26.5649 150.226C29.576 154.836 33.5838 158.69 37.7807 162.197C43.1702 166.7 49.2118 170.311 55.4544 173.485C61.2882 176.436 67.3062 179.114 73.4431 181.345C84.1748 185.25 95.6169 187.221 106.889 184.548C117.36 182.062 126.323 176.043 132.34 167.086C138.357 158.129 140.904 148.065 139.56 137.848C138.799 132.106 136.715 126.375 133.188 121.749C129.662 117.123 125.284 114.029 120.126 111.971C114.393 109.683 108.452 107.703 102.488 106.109C98.0832 104.94 93.5271 103.983 88.9461 104.005C87.0699 104.017 85.1898 104.188 83.3492 104.543C81.5086 104.898 82.0061 107.843 83.8851 107.47C92.5866 105.759 101.653 108.71 109.821 111.443C114.83 113.117 120.331 114.608 124.697 117.677C129.384 120.978 132.843 125.612 134.829 130.968C141.654 149.4 131.207 171.717 113.345 179.344C103.473 183.556 92.4904 183.665 82.2117 180.977C76.7723 179.551 71.5037 177.506 66.3442 175.278C60.2682 172.643 54.2645 169.779 48.6152 166.288C39.428 160.613 30.2328 153.021 25.9563 142.828C23.6246 137.251 22.8489 131.196 22.7678 125.19C22.6867 119.184 23.027 112.161 26.5847 106.738C32.8119 97.2291 44.6607 94.2854 55.4 94.7899C64.3731 95.2083 73.0701 98.2706 79.8032 104.291C80.734 105.128 81.6128 106.02 82.4558 106.953C83.7387 108.374 86.0237 106.468 84.7408 105.046L84.7656 105.066Z" fill="black"/>
  <path d="M55.3774 117.157C56.1928 117.931 56.9015 118.793 57.507 119.736L57.3032 119.417C57.5832 119.848 57.8248 120.297 58.0503 120.762C58.3931 121.46 59.3036 121.853 60.0249 121.476C60.7463 121.099 61.1098 120.242 60.7395 119.502C59.9699 117.926 58.9253 116.463 57.6495 115.257C57.3501 114.968 57.0516 114.764 56.6192 114.725C56.2561 114.7 55.8197 114.818 55.551 115.061C55.2626 115.329 55.0385 115.684 55.0186 116.091C55.0063 116.449 55.0865 116.903 55.3551 117.16L55.3774 117.157Z" fill="#F44A4A"/>
  <path d="M66.6402 141.311C65.1304 138.989 63.5914 136.571 63.2575 133.908C62.9235 131.246 64.1953 128.26 66.8383 127.452C68.9775 126.801 71.6964 127.604 73.3491 126.181C74.536 125.164 74.6187 123.408 74.4018 121.862C73.6918 116.83 70.506 111.997 65.8202 109.43C61.1343 106.862 55.0307 106.801 50.7119 109.567C46.6569 112.162 44.5793 116.727 43.074 121.181C41.948 124.527 41.0315 127.971 40.837 131.506C40.1782 143.582 48.9862 155.947 61.1808 160.041C62.5357 160.5 64.0673 160.852 65.3523 160.328C66.4264 159.887 67.122 158.905 67.7126 157.949C69.3855 155.236 70.7025 152.214 70.7967 149.015C70.8908 145.816 69.3892 143.295 66.653 141.305L66.6402 141.311Z" fill="#BF0822"/>
  <path d="M51.7165 124.893C52.3653 125.128 53.0074 125.381 53.6358 125.673C54.2171 125.947 54.8778 126.09 55.4966 126.261C55.8829 126.369 56.2623 126.379 56.6337 126.205C56.9666 126.049 57.2882 125.718 57.4047 125.367C57.5212 125.016 57.5385 124.586 57.3483 124.23C57.1581 123.874 56.8842 123.573 56.5106 123.459C55.8918 123.288 55.244 123.139 54.6498 122.871C54.0214 122.579 53.3794 122.326 52.7305 122.091C51.9971 121.826 51.0698 122.213 50.8224 122.985C50.575 123.757 50.9266 124.607 51.7165 124.893Z" fill="#FC7E0B"/>
  <path d="M50.3186 134.692C51.7697 134.356 53.2465 134.125 54.7397 133.995C55.0916 133.963 55.485 133.669 55.682 133.39C55.8985 133.085 56.0114 132.626 55.9322 132.257C55.8531 131.888 55.6569 131.519 55.3268 131.315C54.9719 131.091 54.6223 131.028 54.1943 131.065C52.7045 131.185 51.2243 131.425 49.7732 131.762C49.4009 131.85 49.0543 132.044 48.831 132.367C48.6144 132.672 48.5015 133.131 48.5807 133.5C48.7544 134.254 49.5039 134.886 50.3186 134.692Z" fill="#FC7E0B"/>
  <path d="M52.4722 143.405L55.6978 141.956C56.0402 141.803 56.3429 141.466 56.4688 141.119C56.5947 140.771 56.5906 140.312 56.4124 139.981C56.2342 139.651 55.9449 139.334 55.5748 139.21C55.2046 139.087 54.8091 139.093 54.4377 139.267L51.2122 140.716C50.8699 140.868 50.5671 141.205 50.4412 141.553C50.3153 141.901 50.3194 142.36 50.4976 142.69C50.6758 143.021 50.9651 143.338 51.3352 143.461C51.7053 143.585 52.1009 143.579 52.4722 143.405Z" fill="#FC7E0B"/>
  <path d="M57.6328 150.186L60.5468 147.305C60.8326 147.015 61.0431 146.698 61.0792 146.275C61.1042 145.912 60.9857 145.476 60.7426 145.207C60.4748 144.918 60.1199 144.694 59.7123 144.674C59.3458 144.659 58.9196 144.749 58.644 145.011L55.73 147.891C55.4442 148.181 55.2337 148.499 55.1976 148.922C55.1725 149.285 55.2912 149.721 55.5342 149.99C55.8021 150.278 56.157 150.502 56.5645 150.522C56.9311 150.538 57.3572 150.448 57.6328 150.186Z" fill="#FC7E0B"/>
  <path d="M65.6756 154.468C66.0397 153.462 66.4004 152.465 66.7645 151.459C66.8938 151.102 66.8701 150.668 66.7081 150.322C66.5461 149.976 66.2217 149.668 65.8704 149.551C65.5191 149.435 65.0894 149.417 64.7334 149.607C64.3774 149.798 64.1078 150.072 63.9623 150.445C63.5982 151.451 63.2375 152.448 62.8734 153.454C62.7441 153.811 62.7678 154.245 62.9299 154.591C63.0919 154.937 63.4161 155.246 63.7675 155.362C64.1188 155.479 64.5486 155.496 64.9045 155.306C65.2605 155.116 65.5301 154.841 65.6756 154.468Z" fill="#FC7E0B"/>
  <path d="M58.1881 116.59C58.9261 117.548 59.6641 118.506 60.4054 119.455C60.6382 119.752 61.0632 119.959 61.4357 119.988C61.8083 120.016 62.2352 119.894 62.504 119.651C63.1225 119.088 63.2049 118.214 62.6998 117.552C61.9618 116.594 61.2239 115.636 60.4825 114.687C60.2497 114.39 59.8248 114.183 59.4522 114.155C59.0797 114.126 58.6527 114.248 58.3839 114.491C57.7654 115.054 57.683 115.928 58.1881 116.59Z" fill="#FC7E0B"/>
  <path d="M84.0597 146.307C86.5903 145.192 89.208 144.012 90.94 141.959C92.672 139.906 93.2531 136.713 91.4694 134.589C90.0357 132.879 87.3235 132.057 86.7188 129.967C86.2825 128.469 87.172 126.951 88.2048 125.772C91.5446 121.95 96.8577 119.641 102.184 120.058C107.509 120.475 112.658 123.763 114.753 128.435C116.726 132.828 115.973 137.788 114.794 142.339C113.91 145.751 112.793 149.133 111.022 152.204C104.966 162.678 90.8311 168.208 78.3807 164.968C76.9918 164.604 75.5249 164.073 74.738 162.927C74.0855 161.967 74.04 160.771 74.0656 159.642C74.147 156.449 74.6947 153.202 76.371 150.48C78.0473 147.758 80.687 146.458 84.0571 146.285L84.0597 146.307Z" fill="#BF0822"/>
  <path d="M106.389 137.883C105.722 137.726 105.046 137.567 104.363 137.458C104.152 137.424 103.937 137.399 103.729 137.356L104.123 137.445C103.569 137.33 103.023 137.133 102.487 136.97C102.113 136.856 101.711 136.849 101.349 137.027C101.017 137.183 100.695 137.513 100.578 137.864C100.341 138.608 100.682 139.518 101.473 139.772C102.188 139.999 102.9 140.236 103.64 140.365C104.09 140.443 104.535 140.508 104.991 140.599L104.598 140.51C104.866 140.564 105.12 140.625 105.384 140.688C105.787 140.781 106.134 140.821 106.521 140.632C106.854 140.476 107.176 140.145 107.292 139.794C107.409 139.443 107.426 139.013 107.236 138.657C107.067 138.33 106.769 137.978 106.398 137.886L106.389 137.883Z" fill="#FC7E0B"/>
  <path d="M103.508 147.666C102.389 146.496 101.181 145.399 99.9026 144.404C99.2884 143.927 98.2463 144.103 97.8279 144.76C97.3702 145.466 97.5287 146.321 98.1831 146.834C98.8375 147.348 99.5218 147.925 100.158 148.517L99.8709 148.253C100.331 148.686 100.779 149.124 101.21 149.578C101.487 149.87 101.827 150.078 102.24 150.111C102.604 150.136 103.04 150.017 103.309 149.774C103.875 149.266 104.074 148.275 103.504 147.675L103.508 147.666Z" fill="#FC7E0B"/>
  <path d="M97.1793 154.075C96.5404 153.078 95.9075 152.094 95.2686 151.097C95.0708 150.791 94.5792 150.592 94.2383 150.565C93.8752 150.54 93.4388 150.658 93.17 150.901C92.8817 151.169 92.6575 151.524 92.6376 151.932L92.6562 152.321C92.7036 152.572 92.8116 152.803 92.9742 153C93.6131 153.997 94.246 154.981 94.8849 155.978C95.0827 156.283 95.5743 156.482 95.9153 156.51C96.2784 156.535 96.7148 156.417 96.9835 156.174C97.2719 155.906 97.496 155.551 97.5159 155.143L97.4973 154.754C97.45 154.503 97.342 154.272 97.1793 154.075Z" fill="#FC7E0B"/>
  <path d="M89.6278 157.957L88.7587 153.952C88.6795 153.583 88.467 153.23 88.1531 153.01C87.8392 152.79 87.3897 152.68 87.0208 152.76C86.6518 152.839 86.283 153.035 86.0785 153.365C85.874 153.695 85.7498 154.097 85.8282 154.498L86.6973 158.502C86.7765 158.871 86.9889 159.225 87.3028 159.445C87.6167 159.665 88.0662 159.774 88.4352 159.695C88.8042 159.616 89.1729 159.419 89.3775 159.089C89.582 158.759 89.7061 158.357 89.6278 157.957Z" fill="#FC7E0B"/>
  <path d="M80.5145 158.69C80.753 157.649 81.0103 156.614 81.2488 155.573C81.3168 155.385 81.3566 155.187 81.3205 154.993C81.3253 154.804 81.2857 154.619 81.1923 154.436C81.0363 154.103 80.706 153.782 80.3547 153.665C80.0034 153.549 79.5736 153.532 79.2176 153.722C78.8907 153.891 78.5383 154.188 78.4466 154.559C78.2081 155.6 77.9509 156.635 77.7124 157.676C77.6443 157.864 77.6045 158.062 77.6407 158.256C77.6358 158.445 77.6754 158.63 77.7688 158.813C77.9248 159.146 78.2551 159.467 78.6065 159.584C78.9578 159.7 79.3875 159.717 79.7435 159.527C80.0704 159.358 80.4229 159.061 80.5145 158.69Z" fill="#FC7E0B"/>
  <path d="M103.586 127.467L100.168 128.655C99.8263 128.776 99.5125 129.173 99.3968 129.493C99.2709 129.84 99.275 130.299 99.4532 130.63C99.6314 130.96 99.9207 131.277 100.291 131.401L100.684 131.49C100.943 131.509 101.194 131.462 101.434 131.357L104.852 130.169C105.194 130.048 105.507 129.651 105.623 129.332C105.749 128.984 105.745 128.525 105.567 128.195C105.388 127.864 105.099 127.547 104.729 127.424L104.336 127.334C104.077 127.315 103.826 127.363 103.586 127.467Z" fill="#FC7E0B"/>
  <path d="M281.983 172.605C304.389 172.605 322.553 154.442 322.553 132.036C322.553 109.629 304.389 91.4655 281.983 91.4655C259.577 91.4655 241.413 109.629 241.413 132.036C241.413 154.442 259.577 172.605 281.983 172.605Z" fill="#C3EA78"/>
  <path d="M321.063 132.036C320.993 148.226 310.733 163.176 295.443 168.736C279.963 174.366 262.333 169.546 251.813 156.896C241.323 144.276 240.053 125.786 248.533 111.786C256.993 97.8256 273.773 90.4255 289.793 93.7255C305.593 96.9755 318.003 109.956 320.583 125.876C320.913 127.906 321.043 129.966 321.053 132.026C321.053 133.936 324.033 133.946 324.033 132.026C323.963 114.496 312.853 98.5655 296.393 92.5055C279.873 86.4255 260.643 91.6856 249.503 105.306C238.343 118.946 236.813 138.646 245.973 153.766C255.093 168.816 273.013 176.656 290.263 173.266C307.243 169.926 320.883 155.746 323.513 138.636C323.853 136.446 324.033 134.246 324.043 132.026C324.043 130.106 321.073 130.106 321.063 132.026V132.036Z" fill="black"/>
  <path d="M277.563 121.245C277.393 121.245 277.183 121.195 277.033 121.095C277.083 121.125 276.503 120.495 276.633 120.705C276.633 120.705 276.483 120.325 276.533 120.515C276.413 120.115 276.503 120.205 276.503 120.355C276.503 120.565 276.493 120.775 276.473 120.985C276.463 121.215 276.453 121.445 276.473 121.675C276.513 122.075 276.633 122.385 276.723 122.775C276.743 122.855 276.753 122.935 276.773 123.025C276.823 123.235 276.773 122.785 276.773 123.005C276.773 123.175 276.793 123.345 276.803 123.515C276.803 123.885 276.803 124.255 276.783 124.615C276.753 125.395 276.733 126.175 276.703 126.965C276.673 127.755 277.403 128.485 278.193 128.455C279.023 128.415 279.653 127.805 279.683 126.965C279.743 125.175 280.003 123.275 279.463 121.535C279.453 121.485 279.443 121.405 279.423 121.365C279.443 121.405 279.443 121.735 279.453 121.535C279.453 121.395 279.453 121.265 279.453 121.125C279.463 120.865 279.503 120.595 279.483 120.335C279.433 119.205 278.733 118.345 277.563 118.295C276.783 118.255 276.043 119.005 276.073 119.785C276.113 120.625 276.723 121.235 277.563 121.275V121.245Z" fill="#69AA31"/>
  <path d="M288.183 121.556C287.773 122.446 287.303 123.316 286.773 124.136C286.513 124.546 286.233 124.935 285.943 125.325C285.913 125.375 285.873 125.425 285.833 125.465C285.873 125.425 286.023 125.216 285.903 125.376C285.833 125.466 285.753 125.556 285.683 125.646C285.513 125.846 285.343 126.046 285.173 126.246C284.663 126.826 284.553 127.786 285.173 128.346C285.733 128.866 286.733 128.966 287.273 128.346C288.673 126.756 289.863 124.986 290.743 123.056C290.913 122.686 291.003 122.316 290.893 121.906C290.793 121.556 290.533 121.186 290.213 121.016C289.563 120.666 288.523 120.796 288.173 121.546L288.183 121.556Z" fill="#69AA31"/>
  <path d="M268.373 137.766C268.763 137.526 269.173 137.306 269.593 137.126L269.233 137.276C269.953 136.976 270.693 136.766 271.463 136.656L271.063 136.706C271.573 136.636 272.093 136.616 272.613 136.626C273.393 136.656 274.133 135.926 274.103 135.136C274.063 134.306 273.453 133.676 272.613 133.646C270.613 133.576 268.563 134.116 266.863 135.186C266.203 135.596 265.883 136.536 266.333 137.226C266.783 137.916 267.663 138.196 268.373 137.756V137.766Z" fill="#69AA31"/>
  <path d="M273.393 146.245C274.723 144.905 275.973 143.495 277.133 142.005C277.383 141.685 277.573 141.385 277.573 140.955C277.573 140.585 277.413 140.156 277.133 139.906C276.853 139.656 276.473 139.455 276.083 139.465C275.713 139.485 275.263 139.596 275.033 139.906C273.873 141.396 272.623 142.806 271.293 144.146C270.743 144.696 270.703 145.705 271.293 146.245C271.883 146.785 272.813 146.835 273.393 146.245Z" fill="#69AA31"/>
  <path d="M292.233 145.346C290.583 143.836 288.933 142.326 287.283 140.806C286.713 140.276 285.743 140.196 285.183 140.806C284.653 141.376 284.573 142.346 285.183 142.906C286.833 144.416 288.483 145.926 290.133 147.446C290.703 147.976 291.673 148.056 292.233 147.446C292.763 146.876 292.843 145.906 292.233 145.346Z" fill="#69AA31"/>
  <path d="M289.933 137.096C291.633 138.016 293.323 138.946 295.023 139.866C295.703 140.236 296.673 140.055 297.063 139.335C297.453 138.615 297.263 137.696 296.533 137.296C294.833 136.376 293.143 135.446 291.443 134.526C290.763 134.156 289.793 134.336 289.403 135.056C289.013 135.776 289.203 136.696 289.933 137.096Z" fill="#69AA31"/>
  <path d="M136.972 177.604C159.378 177.604 177.542 159.44 177.542 137.034C177.542 114.628 159.378 96.4637 136.972 96.4637C114.566 96.4637 96.4019 114.628 96.4019 137.034C96.4019 159.44 114.566 177.604 136.972 177.604Z" fill="#C3EA78"/>
  <path d="M154.672 171.874C140.182 179.204 122.182 176.724 110.292 165.614C98.4018 154.504 94.5618 136.464 101.112 121.464C107.662 106.464 123.402 96.8839 139.812 98.0539C156.222 99.2239 170.332 110.934 174.672 126.714C179.012 142.494 173.012 159.234 160.022 168.614C158.322 169.834 156.542 170.924 154.682 171.874C152.982 172.754 154.482 175.324 156.182 174.444C171.652 166.464 180.892 149.254 178.722 131.924C176.552 114.594 163.322 99.7638 146.072 95.9638C128.822 92.1638 110.552 99.8338 101.232 114.864C91.9118 129.894 93.1918 149.434 104.092 163.244C114.992 177.054 133.622 182.424 150.052 177.004C152.162 176.314 154.202 175.434 156.182 174.444C157.892 173.584 156.382 171.014 154.682 171.874H154.672Z" fill="black"/>
  <path d="M144.612 128.264C144.412 127.834 144.432 127.484 144.612 127.144C144.792 126.804 144.852 126.874 144.722 126.974C144.752 126.954 145.072 126.744 144.872 126.844C144.672 126.944 144.472 127.044 144.272 127.124C144.072 127.204 143.862 127.304 143.672 127.424C143.352 127.624 143.122 127.884 142.852 128.124C142.832 128.144 142.802 128.164 142.782 128.194C142.702 128.264 142.732 128.234 142.892 128.114C142.862 128.174 142.742 128.224 142.692 128.254C142.552 128.344 142.412 128.434 142.262 128.514C141.952 128.684 141.622 128.844 141.292 128.994C140.532 129.354 139.782 129.704 139.022 130.064C138.312 130.394 138.082 131.464 138.492 132.104C138.962 132.834 139.772 132.994 140.532 132.634C141.382 132.234 142.242 131.834 143.092 131.434C143.862 131.064 144.672 130.624 145.242 129.974C145.402 129.794 145.132 130.084 145.092 130.074C145.112 130.074 145.222 129.984 145.252 129.974C145.362 129.904 145.492 129.844 145.612 129.794C145.852 129.684 146.092 129.594 146.322 129.474C146.682 129.274 147.022 128.984 147.222 128.624C147.552 128.014 147.482 127.394 147.202 126.784C146.872 126.074 145.792 125.844 145.162 126.254C144.432 126.724 144.282 127.534 144.632 128.294L144.612 128.264Z" fill="#69AA31"/>
  <path d="M149.042 137.784C148.062 137.824 147.092 137.804 146.112 137.704C146.002 137.694 145.892 137.684 145.772 137.664C145.702 137.664 145.622 137.644 145.552 137.634L145.722 137.654C145.462 137.634 145.202 137.574 144.942 137.534C144.462 137.444 143.982 137.344 143.512 137.224C142.762 137.034 141.862 137.474 141.682 138.264C141.502 139.054 141.912 139.894 142.722 140.094C144.772 140.614 146.912 140.844 149.032 140.754C149.812 140.724 150.562 140.094 150.522 139.264C150.492 138.484 149.862 137.744 149.032 137.774L149.042 137.784Z" fill="#69AA31"/>
  <path d="M125.732 127.554C126.032 127.734 126.312 127.924 126.592 128.134L126.292 127.904C126.892 128.364 127.422 128.904 127.882 129.494L127.652 129.194C128.052 129.714 128.382 130.274 128.662 130.864C128.812 131.184 129.222 131.454 129.552 131.544C129.912 131.644 130.382 131.594 130.702 131.394C131.022 131.194 131.302 130.884 131.382 130.504C131.472 130.094 131.412 129.734 131.232 129.354C130.392 127.544 128.952 126.004 127.242 124.974C126.572 124.574 125.582 124.804 125.202 125.504C124.822 126.204 125.022 127.114 125.732 127.544V127.554Z" fill="#69AA31"/>
  <path d="M120.472 135.874C122.272 136.454 124.092 136.914 125.942 137.274C126.702 137.424 127.582 137.064 127.772 136.234C127.942 135.494 127.552 134.564 126.732 134.404C124.882 134.044 123.052 133.574 121.262 133.004C120.522 132.764 119.602 133.284 119.432 134.044C119.242 134.854 119.682 135.624 120.472 135.874Z" fill="#69AA31"/>
  <path d="M129.792 152.154C130.392 149.994 130.982 147.844 131.582 145.684C131.792 144.934 131.322 144.034 130.542 143.854C129.762 143.674 128.932 144.094 128.712 144.894C128.112 147.054 127.522 149.204 126.922 151.364C126.712 152.114 127.182 153.014 127.962 153.194C128.742 153.374 129.572 152.954 129.792 152.154Z" fill="#69AA31"/>
  <path d="M136.082 146.504C136.032 148.434 135.982 150.364 135.932 152.294C135.912 153.074 136.632 153.814 137.422 153.784C138.212 153.754 138.892 153.134 138.912 152.294C138.962 150.364 139.012 148.434 139.062 146.504C139.082 145.724 138.362 144.984 137.572 145.014C136.782 145.044 136.102 145.664 136.082 146.504Z" fill="#69AA31"/>
  <path d="M251.247 121.36C239.447 97.6673 217.505 89.4529 207.676 97.5953C200.005 103.951 193.116 114.445 187.778 118.451C177.886 125.874 174.024 127.013 164.005 130.951C151.323 135.936 142.737 137.191 140.083 145.825C135.769 159.856 162.008 188.323 187.778 197.215C213.547 206.108 245.019 178.341 249.666 172.363C254.313 166.385 265.998 150.975 251.247 121.36Z" fill="#E50A0A" stroke="black" stroke-width="3"/>
  <path d="M185.153 140.494C189.491 141.207 193.991 141.916 198.082 140.706C202.172 139.496 205.715 135.742 205.199 131.38C204.781 127.858 201.887 124.4 202.898 121.1C203.626 118.728 206.136 117.492 208.518 116.817C216.285 114.642 225.36 116.202 232.066 121.399C238.772 126.596 242.748 135.435 241.477 143.479C240.268 151.029 234.962 156.97 229.427 161.987C225.284 165.76 220.854 169.283 215.815 171.819C198.652 180.48 175.046 175.51 161.332 160.378C159.799 158.688 158.309 156.702 158.263 154.494C158.223 152.648 159.205 151.014 160.23 149.548C163.119 145.387 166.675 141.54 171.273 139.368C175.871 137.197 180.504 137.772 185.134 140.491L185.153 140.494Z" fill="#BF0822"/>
  <path d="M222.291 148.627C221.524 147.825 220.758 147.004 219.935 146.26C219.682 146.035 219.419 145.817 219.177 145.583L219.658 146.069C219.029 145.429 218.468 144.704 217.894 144.006C217.474 143.49 216.892 143.113 216.215 143.007C215.601 142.92 214.818 143.092 214.324 143.496C213.83 143.9 213.402 144.503 213.325 145.176C213.248 145.848 213.379 146.53 213.814 147.067C214.582 148.002 215.329 148.952 216.209 149.77C216.745 150.264 217.285 150.74 217.789 151.258L217.309 150.772C217.606 151.08 217.896 151.377 218.193 151.685C218.68 152.2 219.147 152.58 219.872 152.684C220.486 152.771 221.27 152.598 221.764 152.194C222.258 151.79 222.685 151.187 222.762 150.515C222.823 149.888 222.735 149.107 222.273 148.624L222.291 148.627Z" fill="#FC7E0B"/>
  <path d="M209.995 159.216C209.514 156.671 208.867 154.15 208.041 151.698C207.613 150.442 205.952 149.712 204.736 150.259C203.429 150.842 202.845 152.21 203.297 153.564C203.749 154.919 204.129 156.178 204.469 157.517L204.304 156.877C204.546 157.841 204.756 158.829 204.94 159.804C205.07 160.487 205.355 161.087 205.918 161.528C206.396 161.899 207.159 162.141 207.77 162.048C208.428 161.952 209.09 161.638 209.493 161.07C209.862 160.544 210.131 159.861 210.014 159.218L209.995 159.216Z" fill="#FC7E0B"/>
  <path d="M195.991 162.218C196.012 160.343 196.022 158.475 196.043 156.6C196.016 156.254 195.91 155.936 195.721 155.662C195.586 155.349 195.368 155.08 195.083 154.879C194.605 154.507 193.843 154.265 193.232 154.358C192.573 154.454 191.912 154.768 191.508 155.336L191.171 155.905C190.998 156.317 190.937 156.744 190.988 157.188L190.936 162.806C190.963 163.152 191.069 163.47 191.258 163.744C191.393 164.057 191.611 164.326 191.895 164.527C192.374 164.899 193.136 165.141 193.747 165.048C194.406 164.952 195.067 164.638 195.471 164.07L195.808 163.501C195.981 163.089 196.042 162.662 195.991 162.218Z" fill="#FC7E0B"/>
  <path d="M182.584 160.904L184.931 154.825C185.17 154.214 185.193 153.516 184.949 152.902C184.704 152.289 184.17 151.71 183.567 151.481C182.964 151.253 182.252 151.189 181.644 151.463C181.036 151.737 180.475 152.207 180.223 152.845C179.44 154.877 178.667 156.902 177.876 158.923C177.637 159.534 177.614 160.233 177.858 160.846C178.103 161.46 178.637 162.039 179.24 162.267C179.843 162.496 180.555 162.559 181.163 162.285C181.771 162.012 182.332 161.541 182.584 160.904Z" fill="#FC7E0B"/>
  <path d="M169.762 154.018C170.984 152.836 172.227 151.704 173.448 150.522C173.725 150.314 173.95 150.062 174.099 149.751C174.29 149.475 174.399 149.177 174.439 148.832C174.526 148.218 174.353 147.435 173.95 146.941C173.546 146.447 172.943 146.019 172.271 145.942C171.644 145.881 170.863 145.969 170.379 146.432C169.158 147.614 167.915 148.746 166.693 149.928C166.417 150.136 166.191 150.388 166.042 150.699C165.851 150.975 165.742 151.273 165.703 151.618C165.615 152.232 165.788 153.015 166.192 153.509C166.596 154.003 167.199 154.431 167.871 154.508C168.498 154.569 169.279 154.481 169.762 154.018Z" fill="#FC7E0B"/>
  <path d="M227.526 132.278L221.939 130.874C221.344 130.723 220.526 131.005 220.048 131.363C219.549 131.738 219.121 132.408 219.05 133.043C218.978 133.677 219.111 134.408 219.539 134.934L220.02 135.42C220.37 135.688 220.782 135.861 221.218 135.932L226.805 137.336C227.4 137.487 228.218 137.206 228.696 136.847C229.195 136.472 229.623 135.803 229.694 135.168C229.766 134.533 229.633 133.802 229.205 133.276L228.724 132.79C228.373 132.522 227.962 132.35 227.526 132.278Z" fill="#FC7E0B"/>
  <path d="M16.6871 150.933L20.6971 154.943C42.9471 177.193 73.1271 202.693 104.597 202.693H239.757C271.227 202.693 301.407 177.193 323.657 154.943L329.077 149.523C331.607 146.993 329.807 142.673 326.227 142.693C326.227 142.693 223.287 158.863 169.857 158.863C116.427 158.863 19.4971 144.103 19.4971 144.103C15.9371 144.123 14.1671 148.423 16.6871 150.933Z" fill="#8C4414"/>
  <path d="M15.6371 151.983C26.2671 162.613 37.0972 173.023 49.1872 182.023C63.2972 192.523 79.4272 201.523 97.1272 203.713C101.927 204.313 106.757 204.183 111.587 204.183H238.667C250.757 204.183 262.317 200.943 273.147 195.673C289.467 187.743 303.777 175.993 316.897 163.603C321.247 159.493 325.467 155.243 329.697 151.013C331.617 149.093 332.447 146.443 331.017 143.943C329.957 142.093 327.857 141.003 325.747 141.263C320.997 141.853 316.267 142.703 311.537 143.393C300.847 144.953 290.137 146.433 279.417 147.833C265.457 149.653 251.487 151.343 237.487 152.823C223.267 154.333 209.027 155.643 194.747 156.503C182.267 157.253 169.797 157.563 157.297 157.133C142.897 156.643 128.517 155.533 114.167 154.213C99.6671 152.873 85.1972 151.273 70.7472 149.523C59.2172 148.123 47.6971 146.623 36.1971 145.013C30.8471 144.263 25.4972 143.483 20.1572 142.703C14.8172 141.923 12.3172 148.343 15.6472 151.983C16.9472 153.403 19.0472 151.293 17.7472 149.883C16.4472 148.473 17.1972 145.683 19.2072 145.553C19.6472 145.523 20.1872 145.703 20.6172 145.763C23.0572 146.123 25.5071 146.483 27.9471 146.833C37.5271 148.203 47.1271 149.503 56.7271 150.743C70.1871 152.473 83.6772 154.083 97.1772 155.503C111.617 157.023 126.087 158.353 140.587 159.273C153.167 160.073 165.777 160.563 178.387 160.223C191.607 159.863 204.807 158.893 217.967 157.713C232.137 156.443 246.277 154.903 260.397 153.193C272.827 151.693 285.247 150.073 297.647 148.343C305.667 147.233 313.677 146.073 321.687 144.863C323.187 144.633 324.867 144.133 326.387 144.143C327.717 144.143 328.897 145.523 328.767 146.943C328.677 147.853 328.047 148.433 327.447 149.033L324.877 151.603C313.587 162.893 301.927 173.863 288.757 182.963C274.697 192.683 258.387 200.823 240.957 201.183C237.687 201.253 234.407 201.193 231.137 201.193H178.087C167.627 201.193 157.157 201.193 146.697 201.193C137.927 201.193 129.157 201.193 120.377 201.193H105.747C94.0772 201.193 82.9271 198.093 72.4771 192.983C56.4671 185.153 42.4472 173.663 29.5572 161.493C25.5372 157.693 21.6371 153.783 17.7271 149.873C16.3671 148.513 14.2672 150.623 15.6272 151.973L15.6371 151.983Z" fill="black"/>
</svg>