<svg width="64" height="32" viewBox="0 0 64 32" fill="none" xmlns="http://www.w3.org/2000/svg">
<g filter="url(#filter0_b_525_20319)">
<path d="M17.4519 11.9H23.2889V12.914H18.5309V16.0535H23.0289V17.0675H18.5309V21H17.4519V11.9ZM25.1215 14.344H26.1615V21H25.1215V14.344ZM26.2525 11.9V13.135H25.0305V11.9H26.2525ZM28.4935 11.9H29.5335V21H28.4935V11.9ZM34.004 21C33.6876 21 33.3995 20.9328 33.1395 20.7985C32.8838 20.6598 32.6823 20.4713 32.535 20.233C32.3876 19.9903 32.314 19.7217 32.314 19.427L32.3075 15.267H31.1375L31.144 14.344H31.8655C32.0301 14.344 32.1623 14.292 32.262 14.188C32.366 14.084 32.418 13.9518 32.418 13.7915V12.719H33.354V14.344H34.9595L34.953 15.267H33.3475L33.354 19.362C33.354 19.5657 33.4211 19.7368 33.5555 19.8755C33.6941 20.0098 33.8653 20.077 34.069 20.077H34.953V21H34.004ZM39.5284 21.156C38.9044 21.156 38.3432 21.0065 37.8449 20.7075C37.3465 20.4085 36.9565 19.9947 36.6749 19.466C36.3975 18.933 36.2589 18.3307 36.2589 17.659C36.2589 17.0047 36.3997 16.4132 36.6814 15.8845C36.9674 15.3558 37.3595 14.942 37.8579 14.643C38.3562 14.3397 38.913 14.188 39.5284 14.188C40.1567 14.188 40.707 14.3375 41.1794 14.6365C41.656 14.9355 42.0222 15.3493 42.2779 15.878C42.5379 16.4067 42.6679 17.0047 42.6679 17.672V17.9255H37.3184C37.3617 18.3805 37.4852 18.7835 37.6889 19.1345C37.8925 19.4855 38.159 19.7585 38.4884 19.9535C38.8177 20.1485 39.186 20.246 39.5934 20.246C40.031 20.246 40.4167 20.1658 40.7504 20.0055C41.084 19.8452 41.3267 19.6263 41.4784 19.349H42.5184C42.4404 19.6263 42.2757 19.9037 42.0244 20.181C41.7774 20.4583 41.4394 20.6902 41.0104 20.8765C40.5857 21.0628 40.0917 21.156 39.5284 21.156ZM41.5889 17.0675C41.5022 16.4608 41.2812 15.982 40.9259 15.631C40.5749 15.28 40.1134 15.1045 39.5414 15.1045C39.1557 15.1045 38.809 15.1847 38.5014 15.345C38.1937 15.501 37.9402 15.7285 37.7409 16.0275C37.5415 16.3222 37.4094 16.6688 37.3444 17.0675H41.5889ZM44.4366 14.344H45.4766V15.449C45.6889 15.072 45.9641 14.7838 46.3021 14.5845C46.6401 14.3808 47.0279 14.279 47.4656 14.279H47.6996V15.3645H47.4266C47.0322 15.3645 46.6877 15.4403 46.3931 15.592C46.0984 15.7437 45.8709 15.9603 45.7106 16.242C45.5546 16.5193 45.4766 16.8465 45.4766 17.2235V21H44.4366V14.344Z" fill="#19191C"/>
<rect x="0.5" y="0.5" width="63" height="31" rx="15.5" stroke="#19191C" stroke-opacity="0.3"/>
</g>
<defs>
<filter id="filter0_b_525_20319" x="-8" y="-8" width="80" height="48" filterUnits="userSpaceOnUse" color-interpolation-filters="sRGB">
<feFlood flood-opacity="0" result="BackgroundImageFix"/>
<feGaussianBlur in="BackgroundImageFix" stdDeviation="4"/>
<feComposite in2="SourceAlpha" operator="in" result="effect1_backgroundBlur_525_20319"/>
<feBlend mode="normal" in="SourceGraphic" in2="effect1_backgroundBlur_525_20319" result="shape"/>
</filter>
</defs>
</svg>
