<svg width="208" height="208" viewBox="0 0 208 208" fill="none" xmlns="http://www.w3.org/2000/svg">
<path d="M15.6352 190.171L16 190.013L206 190.013L206.365 190.855L191.365 206.855L191 207.013L0.999999 207.013L0.635231 206.171L15.6352 190.171Z" fill="#D1D1D2" stroke="#BABABB" stroke-linejoin="bevel"/>
<rect x="0.5" y="16.0134" width="191" height="191" stroke="#D1D1D2" stroke-linejoin="bevel"/>
<path d="M190.658 16.1487L190.5 16.5134V206.513L191.342 206.878L207.342 191.878L207.5 191.513V1.51343L206.658 1.14866L190.658 16.1487Z" fill="#E8E8E8" stroke="#D1D1D2" stroke-linejoin="bevel"/>
<path d="M0.658029 16.1487L0.5 16.5134V206.513L1.35355 206.867L17.3536 190.867L17.5 190.513V1.51343L16.658 1.14866L0.658029 16.1487Z" fill="#D1D1D2" stroke="#BABABB" stroke-linejoin="bevel"/>
<mask id="mask0_538_19984" style="mask-type:alpha" maskUnits="userSpaceOnUse" x="1" y="17" width="189" height="189">
<rect x="1" y="17.5134" width="189" height="188" fill="#E8E8E8"/>
</mask>
<g mask="url(#mask0_538_19984)">
<rect opacity="0.25" x="-12.8477" y="212.476" width="302.916" height="55.7128" transform="rotate(-45 -12.8477 212.476)" fill="white"/>
<rect opacity="0.25" x="-53" y="176.708" width="302.916" height="13.9649" transform="rotate(-45 -53 176.708)" fill="white"/>
</g>
<path d="M168 16.25L191 39.25L191 72.0134L135.5 16.25L168 16.25Z" fill="#1EC24C"/>
<path d="M166.368 24.3762C166.776 24.7837 167.067 25.2189 167.242 25.6815C167.416 26.1442 167.464 26.5931 167.384 27.0282C167.304 27.4633 167.101 27.8448 166.773 28.1727C166.436 28.5097 166.053 28.7089 165.624 28.7702C165.201 28.8315 164.787 28.7518 164.383 28.5312C164.643 28.9939 164.738 29.4719 164.668 29.9652C164.6 30.4616 164.372 30.9043 163.983 31.2935C163.637 31.6397 163.235 31.8542 162.779 31.937C162.322 32.0197 161.85 31.9707 161.363 31.7899C160.879 31.606 160.421 31.2981 159.989 30.866L157.079 27.9567L163.514 21.522L166.368 24.3762ZM160.848 29.5929C161.145 29.8901 161.458 30.0556 161.786 30.0893C162.12 30.123 162.413 30.0142 162.664 29.763C162.829 29.5975 162.933 29.4075 162.976 29.193C163.022 28.9816 163.005 28.7656 162.926 28.545C162.849 28.3213 162.714 28.1129 162.521 27.9199L161.184 26.5824L159.511 28.2554L160.848 29.5929ZM163.5 26.8306C163.77 27.1002 164.061 27.2442 164.374 27.2626C164.686 27.281 164.965 27.1676 165.21 26.9225C165.452 26.6804 165.561 26.4062 165.536 26.0998C165.515 25.7964 165.368 25.5084 165.095 25.2357L163.813 23.9534L162.218 25.5482L163.5 26.8306ZM169.75 27.7574L174.47 32.4777L173.266 33.6819L169.91 30.3267L168.518 31.7194L171.56 34.762L170.342 35.98L167.3 32.9373L165.884 34.353L169.331 37.8001L168.127 39.0043L163.315 34.1921L169.75 27.7574ZM171.24 42.3375C170.768 41.8656 170.431 41.36 170.228 40.8208C170.032 40.2815 169.983 39.7544 170.081 39.2397C170.182 38.7218 170.429 38.2607 170.821 37.8562L172.223 39.258C172.058 39.4235 171.955 39.615 171.915 39.8326C171.878 40.0532 171.903 40.2799 171.989 40.5128C172.081 40.7457 172.231 40.9663 172.439 41.1747C172.635 41.3708 172.839 41.5132 173.051 41.6021C173.265 41.6879 173.47 41.7155 173.666 41.6848C173.866 41.6511 174.04 41.5592 174.19 41.4091C174.377 41.2222 174.48 41.0031 174.498 40.7518C174.523 40.5006 174.455 40.2646 174.296 40.044L173.34 38.7111C173.083 38.3495 172.923 37.9696 172.862 37.5712C172.804 37.1698 172.841 36.7776 172.972 36.3946C173.104 36.0116 173.325 35.6654 173.634 35.3559C174.014 34.9759 174.449 34.7339 174.94 34.6297C175.436 34.5255 175.94 34.5638 176.452 34.7446C176.966 34.9223 177.446 35.2333 177.89 35.6776C178.341 36.128 178.659 36.6091 178.846 37.1208C179.036 37.6295 179.084 38.1274 178.989 38.6146C178.9 39.1018 178.673 39.5338 178.309 39.9107L176.911 38.5135C177.052 38.3725 177.14 38.2086 177.173 38.0217C177.207 37.8348 177.186 37.6417 177.109 37.4425C177.032 37.2434 176.905 37.0549 176.727 36.8772C176.458 36.6076 176.176 36.4544 175.882 36.4176C175.588 36.3808 175.336 36.4666 175.128 36.675C174.966 36.8374 174.877 37.0304 174.861 37.2541C174.849 37.4809 174.915 37.6938 175.059 37.893L175.969 39.1431C176.245 39.5231 176.416 39.9306 176.484 40.3657C176.554 40.8039 176.521 41.2298 176.383 41.6435C176.248 42.0602 176.021 42.4279 175.703 42.7466C175.316 43.1326 174.866 43.3778 174.351 43.4819C173.84 43.5831 173.311 43.5356 172.766 43.3395C172.223 43.1464 171.715 42.8124 171.24 42.3375ZM180.845 38.8524L186.066 44.0737L184.77 45.3698L182.858 43.4578L177.719 48.5964L176.336 47.2129L181.474 42.0744L179.548 40.1486L180.845 38.8524Z" fill="white"/>
<path d="M15.6464 1.15988L16 1.01343L207 1.01344L207.342 1.87821L191.342 16.8782L191 17.0134L0.999999 17.0134L0.646446 16.1599L15.6464 1.15988Z" fill="#E8E8E8" stroke="#D1D1D2" stroke-linejoin="bevel"/>
</svg>
