<?xml version="1.0" encoding="utf-8"?>
<svg width="346" height="249" viewBox="0 0 346 249" fill="none" xmlns="http://www.w3.org/2000/svg">
  <defs/>
  <path d="M187.207 159.323C187.207 159.323 207.617 159.863 210.297 136.233C212.977 112.603 178.907 94.1033 162.917 108.183C146.927 122.273 149.287 134.293 158.447 146.143C167.607 157.983 177.007 159.323 187.207 159.323Z" fill="#CB1124"/>
  <path d="M187.207 160.813C193.747 160.973 200.707 157.713 205.007 152.893C209.307 148.073 211.657 141.113 211.917 134.533C212.177 127.953 209.907 122.123 206.187 117.153C199.007 107.553 186.247 100.603 174.037 101.953C171.197 102.263 168.437 103.023 165.897 104.343C162.487 106.113 159.627 108.983 157.127 111.843C152.137 117.523 148.837 124.493 150.037 132.173C151.237 139.853 156.207 146.693 161.507 151.813C167.157 157.263 174.147 160.043 181.907 160.633C183.667 160.763 185.437 160.803 187.207 160.803C189.127 160.803 189.127 157.833 187.207 157.823C180.467 157.823 173.827 157.013 168.057 153.273C164.547 150.993 161.587 147.893 159.097 144.543C157.127 141.893 155.307 139.033 154.127 135.933C151.767 129.713 152.647 123.453 156.217 117.883C158.447 114.403 161.467 111.093 164.747 108.563C166.727 107.033 169.037 105.993 171.447 105.393C182.227 102.713 194.237 108.353 201.507 116.163C205.287 120.223 208.127 125.353 208.797 130.913C209.517 136.913 207.897 143.603 204.547 148.623C202.177 152.173 198.627 154.903 194.697 156.363C193.207 156.913 191.657 157.323 190.097 157.583C189.937 157.613 189.767 157.633 189.607 157.663C189.247 157.713 189.757 157.643 189.487 157.683C189.217 157.723 188.957 157.743 188.687 157.763C188.317 157.793 187.957 157.813 187.587 157.823C187.457 157.823 187.327 157.823 187.187 157.823C185.267 157.773 185.267 160.753 187.187 160.803L187.207 160.813Z" fill="black"/>
  <path d="M172.737 144.473C172.467 143.763 172.487 143.303 172.457 142.463C172.427 141.683 172.357 140.903 172.147 140.143C171.767 138.773 171.027 137.493 170.037 136.463C167.917 134.263 164.657 133.443 161.737 134.233C160.987 134.433 160.447 135.303 160.697 136.063C160.947 136.823 161.717 137.323 162.527 137.103C163.547 136.833 164.527 136.833 165.597 137.143C165.737 137.183 165.877 137.233 166.017 137.283C166.087 137.303 166.157 137.333 166.227 137.363C166.097 137.313 166.117 137.313 166.277 137.393C166.537 137.523 166.797 137.663 167.047 137.823C167.167 137.903 167.287 137.983 167.397 138.063C167.197 137.913 167.497 138.153 167.537 138.183C167.747 138.373 167.947 138.563 168.137 138.783C168.137 138.783 168.427 139.133 168.257 138.913C168.347 139.023 168.427 139.143 168.497 139.253C168.657 139.483 168.797 139.733 168.927 139.983C168.987 140.103 169.057 140.233 169.107 140.363C168.997 140.093 169.157 140.513 169.157 140.533C169.247 140.803 169.327 141.073 169.377 141.343C169.407 141.483 169.437 141.623 169.447 141.753C169.407 141.433 169.447 141.893 169.447 141.963C169.467 142.293 169.477 142.623 169.487 142.943C169.517 143.723 169.587 144.513 169.857 145.243C170.127 145.973 170.877 146.543 171.687 146.283C172.397 146.053 173.017 145.233 172.727 144.453L172.737 144.473Z" fill="black"/>
  <path d="M233.627 157.993C233.627 157.993 248.647 144.173 234.127 125.343C219.607 106.513 182.257 116.953 180.587 138.193C178.917 159.433 188.987 166.423 203.807 168.553C218.627 170.683 226.307 165.103 233.627 157.993Z" fill="#CB1124"/>
  <path d="M234.677 159.043C237.057 156.833 238.867 153.813 240.097 150.843C242.797 144.373 242.317 137.293 239.367 130.983C236.417 124.673 231.337 119.183 224.657 116.403C219.147 114.113 212.977 113.583 207.087 114.353C195.907 115.813 183.577 122.203 179.957 133.613C178.927 136.853 178.837 140.373 178.927 143.733C179.017 147.093 179.467 150.823 180.647 154.143C182.557 159.553 186.337 163.893 191.467 166.483C197.497 169.513 204.897 170.763 211.587 170.433C218.937 170.073 225.367 167.113 230.947 162.423C232.237 161.343 233.467 160.193 234.667 159.023C236.047 157.693 233.937 155.583 232.567 156.923C228.017 161.323 223.017 165.233 216.737 166.733C210.167 168.313 202.837 167.463 196.467 165.343C191.787 163.793 187.587 161.013 185.067 156.693C181.817 151.123 181.467 144.073 182.107 137.803C183.187 127.193 193.707 120.443 203.197 118.083C213.747 115.453 226.217 117.353 233.137 126.453C237.527 132.233 240.187 139.453 238.357 146.683C237.437 150.353 235.497 153.853 233.027 156.443C232.877 156.603 232.727 156.763 232.567 156.903C231.157 158.203 233.267 160.303 234.667 159.003L234.677 159.043Z" fill="black"/>
</svg>