<?xml version="1.0" encoding="utf-8"?>
<svg width="346" height="249" viewBox="0 0 346 249" fill="none" xmlns="http://www.w3.org/2000/svg">
  <defs/>
  <path d="M144.755 164.383C137.215 166.323 132.455 172.563 131.145 180.053C130.745 182.353 131.765 184.723 134.175 185.383C136.265 185.953 139.095 184.673 139.505 182.353C140.315 177.763 142.315 173.963 147.065 172.733C152.465 171.343 150.175 162.983 144.765 164.373L144.755 164.383Z" fill="black"/>
  <path d="M144.105 162.123C144.175 162.453 144.135 161.993 144.135 162.313C144.135 162.463 144.135 162.613 144.135 162.753C144.125 163.053 144.085 163.353 144.055 163.653C143.995 164.293 144.015 164.903 144.115 165.533C144.275 166.623 144.735 167.683 145.395 168.553C146.855 170.453 149.245 171.593 151.655 171.283C152.435 171.183 153.195 170.663 153.155 169.783C153.125 169.053 152.485 168.183 151.655 168.283C151.425 168.313 151.195 168.333 150.955 168.333C150.845 168.333 150.745 168.333 150.635 168.333C150.585 168.333 150.165 168.273 150.525 168.333C150.315 168.303 150.105 168.253 149.905 168.203C149.785 168.173 149.665 168.133 149.545 168.093C149.505 168.083 149.185 167.953 149.365 168.033C149.545 168.113 149.235 167.963 149.195 167.953C149.085 167.893 148.975 167.833 148.865 167.773C148.775 167.723 148.685 167.663 148.595 167.603C148.485 167.533 148.385 167.433 148.545 167.573C148.365 167.423 148.195 167.263 148.035 167.093C147.965 167.013 147.895 166.933 147.825 166.853C148.035 167.083 147.785 166.793 147.755 166.753C147.635 166.573 147.525 166.393 147.425 166.203C147.365 166.093 147.315 165.973 147.255 165.863C147.345 166.053 147.285 165.933 147.245 165.803C147.165 165.583 147.105 165.353 147.055 165.133C147.055 165.093 146.985 164.743 147.015 164.953C147.045 165.163 147.005 164.813 147.005 164.773C146.975 164.253 147.035 163.733 147.085 163.213C147.145 162.573 147.125 161.963 146.985 161.343C146.815 160.573 145.885 160.053 145.135 160.293C144.325 160.553 143.905 161.313 144.085 162.143L144.105 162.123Z" fill="black"/>
  <path d="M262.975 163.893C266.915 170.643 274.115 173.563 281.745 172.843C287.255 172.323 287.305 163.653 281.745 164.173C277.125 164.613 272.935 163.753 270.465 159.513C267.655 154.703 260.155 159.053 262.975 163.893Z" fill="black"/>
  <path d="M260.985 165.173C261.285 165.013 260.805 165.203 261.105 165.103C261.235 165.063 261.355 165.023 261.485 164.993C261.765 164.923 262.055 164.873 262.345 164.833C262.845 164.743 263.335 164.643 263.815 164.453C264.895 164.023 265.895 163.373 266.645 162.473C268.245 160.533 268.795 157.803 267.805 155.443C267.505 154.723 266.795 154.123 265.955 154.393C265.265 154.613 264.585 155.463 264.905 156.243C265.005 156.473 265.085 156.703 265.145 156.943C265.185 157.073 265.215 157.203 265.235 157.333C265.255 157.463 265.275 157.623 265.255 157.403C265.275 157.653 265.295 157.893 265.285 158.143C265.285 158.253 265.275 158.363 265.265 158.483C265.235 158.903 265.335 158.203 265.245 158.613C265.195 158.853 265.135 159.093 265.065 159.333C265.025 159.443 264.995 159.543 264.945 159.653C265.065 159.363 264.895 159.733 264.875 159.773C264.775 159.973 264.655 160.153 264.525 160.343C264.435 160.463 264.365 160.523 264.505 160.373C264.425 160.463 264.345 160.553 264.265 160.643C264.125 160.793 263.975 160.923 263.825 161.063C263.575 161.293 264.005 160.953 263.745 161.123C263.645 161.193 263.545 161.263 263.445 161.323C263.275 161.433 263.095 161.523 262.915 161.613C262.565 161.793 263.195 161.523 262.825 161.653C262.715 161.693 262.595 161.733 262.485 161.763C261.455 162.063 260.425 162.093 259.455 162.613C258.765 162.983 258.485 164.003 258.915 164.663C259.365 165.363 260.225 165.603 260.965 165.203L260.985 165.173Z" fill="black"/>
  <path d="M215.075 182.243C256.685 202.043 272.985 167.823 272.985 167.823C266.095 165.773 240.965 144.743 215.075 182.243Z" fill="#6BA534" stroke="black" stroke-width="2.83" stroke-miterlimit="10"/>
  <path d="M265.995 168.653C262.825 169.163 259.715 169.963 256.705 171.083C253.515 172.263 250.415 173.613 247.155 174.603C244.095 175.533 240.995 176.533 237.815 176.933C234.445 177.353 231.025 177.173 227.705 176.433C225.825 176.013 225.025 178.903 226.905 179.323C230.235 180.063 233.675 180.343 237.075 180.013C240.475 179.683 243.775 178.733 247.055 177.763C250.335 176.793 253.575 175.473 256.815 174.233C260.055 172.993 263.365 172.093 266.775 171.553C268.675 171.253 267.865 168.363 265.975 168.663L265.995 168.653Z" fill="#548C1E"/>
  <path d="M16.5552 153.023L20.5652 157.033C42.8152 179.283 72.9952 204.783 104.465 204.783H239.625C271.095 204.783 301.275 179.283 323.525 157.033L328.945 151.613C331.475 149.083 329.675 144.763 326.095 144.783C326.095 144.783 223.155 160.953 169.725 160.953C116.295 160.953 19.3652 146.193 19.3652 146.193C15.8052 146.213 14.0352 150.513 16.5552 153.023Z" fill="#8C4414"/>
  <path d="M15.5052 154.083C26.1352 164.713 36.9652 175.123 49.0552 184.123C63.1652 194.623 79.2952 203.623 96.9952 205.813C101.795 206.413 106.625 206.283 111.455 206.283H133.665C143.865 206.283 154.065 206.283 164.265 206.283H238.525C250.615 206.283 262.175 203.043 273.005 197.773C289.325 189.843 303.635 178.093 316.755 165.703C321.105 161.593 325.325 157.343 329.555 153.113C331.475 151.193 332.305 148.543 330.875 146.043C329.815 144.193 327.715 143.103 325.605 143.363C320.855 143.953 316.125 144.803 311.395 145.493C300.705 147.053 289.995 148.533 279.275 149.933C265.315 151.753 251.345 153.443 237.345 154.923C223.125 156.433 208.885 157.743 194.605 158.603C182.125 159.353 169.655 159.663 157.155 159.233C142.755 158.743 128.375 157.633 114.025 156.313C99.5252 154.973 85.0552 153.373 70.6052 151.623C59.0752 150.223 47.5552 148.723 36.0552 147.113C30.7052 146.363 25.3551 145.583 20.0151 144.803C14.6751 144.023 12.1752 150.443 15.5052 154.083C16.8052 155.503 18.9052 153.393 17.6052 151.983C16.3052 150.573 17.0552 147.783 19.0652 147.653C19.5052 147.623 20.0452 147.803 20.4752 147.863C22.9152 148.223 25.3652 148.583 27.8052 148.933C37.3852 150.303 46.9852 151.603 56.5852 152.843C70.0452 154.573 83.5352 156.183 97.0352 157.603C111.475 159.123 125.945 160.453 140.445 161.373C153.025 162.173 165.635 162.663 178.245 162.323C191.465 161.963 204.665 160.993 217.825 159.813C231.995 158.543 246.135 157.003 260.255 155.293C272.685 153.793 285.105 152.173 297.505 150.443C305.525 149.333 313.535 148.173 321.545 146.963C323.045 146.733 324.725 146.233 326.245 146.243C327.575 146.243 328.755 147.623 328.625 149.043C328.535 149.953 327.905 150.533 327.305 151.133L324.735 153.703C313.445 164.993 301.785 175.963 288.615 185.063C274.555 194.783 258.245 202.923 240.815 203.283C237.545 203.353 234.265 203.293 230.995 203.293H105.605C93.9352 203.293 82.7852 200.193 72.3352 195.083C56.3252 187.253 42.3052 175.763 29.4152 163.593C25.3952 159.793 21.4952 155.883 17.5852 151.973C16.2252 150.613 14.1252 152.723 15.4852 154.073L15.5052 154.083Z" fill="black"/>
</svg>