<?xml version="1.0" encoding="utf-8"?>
<svg width="346" height="249" viewBox="0 0 346 249" fill="none" xmlns="http://www.w3.org/2000/svg">
  <defs/>
  <path d="M211.097 142.183C211.097 142.183 199.287 158.833 217.427 174.223C235.557 189.613 269.907 171.603 267.107 150.473C264.307 129.353 252.997 124.613 238.067 125.633C223.127 126.643 216.787 133.703 211.107 142.183H211.097Z" fill="#CB1124"/>
  <path d="M209.817 141.433C208.087 143.893 206.977 146.993 206.367 149.903C205.017 156.423 206.437 163.073 210.217 168.553C214.407 174.613 220.507 179.323 227.797 180.833C234.017 182.123 240.567 181.363 246.497 179.193C257.507 175.173 268.817 165.483 268.757 152.813C268.737 149.173 267.887 145.383 266.817 141.923C265.847 138.813 264.507 135.753 262.557 133.123C259.217 128.613 254.397 125.753 248.907 124.673C242.237 123.353 234.727 123.813 228.277 125.903C221.827 127.993 216.627 132.243 212.517 137.623C211.577 138.853 210.687 140.133 209.817 141.413C208.747 143.003 211.327 144.503 212.387 142.913C215.667 138.033 219.417 133.463 224.667 130.633C230.527 127.473 237.577 126.653 244.147 127.043C249.037 127.333 253.987 128.713 257.667 132.093C262.207 136.253 264.217 142.383 265.267 148.293C265.767 151.113 265.987 153.903 265.347 156.723C264.767 159.273 263.677 161.653 262.237 163.823C259.127 168.533 254.497 172.153 249.487 174.663C244.477 177.173 238.467 178.693 232.657 178.433C226.387 178.153 220.877 175.633 216.407 171.263C211.557 166.503 208.387 160.313 208.847 153.403C209.087 149.843 210.207 146.373 212.047 143.393C212.147 143.223 212.257 143.063 212.367 142.903C213.477 141.333 210.897 139.843 209.797 141.403L209.817 141.433Z" fill="black"/>
  <path d="M231.567 138.453C232.217 138.613 232.747 138.963 233.307 139.313C233.977 139.733 234.667 140.083 235.407 140.343C236.877 140.853 238.497 140.893 239.997 140.563C242.897 139.933 245.187 137.673 246.137 134.913C246.397 134.153 245.837 133.283 245.097 133.083C244.277 132.863 243.527 133.363 243.267 134.123C242.617 136.013 240.887 137.473 238.897 137.763C237.857 137.913 236.737 137.763 235.787 137.303C234.617 136.743 233.647 135.893 232.357 135.583C230.497 135.133 229.707 138.003 231.567 138.453Z" fill="black"/>
  <path d="M256.027 131.113C256.027 131.113 251.427 151.003 274.047 158.353C296.667 165.703 321.597 136.003 310.987 117.523C300.377 99.0433 288.117 98.9632 274.687 105.573C261.257 112.183 258.067 121.123 256.027 131.123V131.113Z" fill="#CB1124"/>
  <path d="M254.597 130.723C253.047 137.493 255.077 145.183 259.337 150.543C263.597 155.903 270.297 159.443 276.877 160.593C283.487 161.743 290.187 160.173 295.977 156.903C306.737 150.833 316.137 138.123 314.907 125.253C314.617 122.183 313.707 119.253 312.167 116.573C310.017 112.853 307.457 109.243 304.287 106.323C299.477 101.893 293.327 99.5133 286.757 100.223C279.567 101.003 272.307 104.403 266.657 108.823C261.007 113.243 257.597 119.153 255.737 125.913C255.297 127.503 254.937 129.113 254.607 130.723C254.227 132.593 257.087 133.393 257.477 131.513C258.707 125.533 260.487 119.583 264.567 114.883C269.157 109.593 275.877 105.953 282.567 104.063C288.017 102.523 293.677 102.723 298.607 105.713C301.597 107.533 304.107 110.103 306.207 112.893C308.307 115.683 310.337 118.673 311.307 122.003C314.597 133.323 306.867 145.583 298.017 152.063C293.237 155.563 287.517 157.973 281.527 158.023C275.247 158.073 268.607 155.353 263.967 151.143C260.517 148.003 258.297 143.893 257.477 139.313C257.217 137.843 257.107 136.183 257.157 134.583C257.177 133.973 257.217 133.373 257.277 132.763C257.287 132.653 257.307 132.543 257.317 132.433C257.357 132.033 257.287 132.613 257.317 132.413C257.347 132.243 257.367 132.073 257.397 131.903C257.417 131.773 257.447 131.643 257.477 131.513C257.907 129.653 255.037 128.853 254.607 130.723H254.597Z" fill="black"/>
  <path d="M276.407 121.273C276.487 121.233 276.777 121.103 276.537 121.193C276.667 121.143 276.787 121.103 276.917 121.073C277.197 120.993 277.487 120.943 277.777 120.893C278.327 120.783 278.847 120.643 279.367 120.423C280.397 119.983 281.347 119.313 282.047 118.443C283.777 116.293 284.057 113.513 282.947 111.013C282.627 110.303 281.537 110.073 280.907 110.483C280.167 110.963 280.037 111.753 280.377 112.523C280.257 112.253 280.427 112.663 280.427 112.683C280.467 112.793 280.497 112.903 280.527 113.013C280.557 113.123 280.577 113.243 280.607 113.353C280.707 113.773 280.607 113.083 280.637 113.513C280.657 113.743 280.667 113.973 280.657 114.213C280.657 114.353 280.637 114.493 280.627 114.633C280.647 114.413 280.627 114.603 280.607 114.723C280.557 114.973 280.487 115.213 280.407 115.463C280.327 115.713 280.447 115.413 280.377 115.563C280.327 115.653 280.287 115.753 280.237 115.843C280.127 116.043 279.997 116.223 279.887 116.413C279.797 116.563 280.047 116.243 279.857 116.453C279.777 116.543 279.697 116.633 279.617 116.723C279.477 116.873 279.327 117.003 279.177 117.143C278.887 117.403 279.417 116.993 279.097 117.213C279.017 117.273 278.927 117.323 278.847 117.383C278.657 117.503 278.457 117.603 278.257 117.703C278.007 117.833 278.387 117.663 278.217 117.723C278.117 117.753 278.027 117.793 277.927 117.823C276.897 118.143 275.857 118.183 274.887 118.733C274.207 119.113 273.927 120.103 274.357 120.773C274.787 121.443 275.667 121.713 276.397 121.303L276.407 121.273Z" fill="black"/>
  <path d="M276.767 111.733C266.537 109.243 259.147 101.283 253.977 92.4932C249.027 84.0932 245.777 74.8032 243.137 65.4532C242.227 62.2232 241.477 58.9432 240.457 55.7432C239.937 54.1032 237.657 54.4732 237.537 56.1432C237.247 60.1132 236.297 64.0332 235.347 67.8932C234.167 72.6832 232.887 77.4332 231.807 82.2532C229.367 93.2132 228.017 104.493 229.817 115.663C230.947 122.643 233.367 129.343 236.847 135.493C237.787 137.163 240.367 135.663 239.417 133.993C233.417 123.393 231.277 111.483 232.127 99.4032C232.847 89.2032 235.557 79.3532 238.017 69.4732C239.107 65.0932 240.177 60.6632 240.517 56.1432L237.597 56.5432C238.487 59.3532 239.157 62.2332 239.947 65.0832C241.167 69.5032 242.517 73.8832 244.097 78.1932C247.787 88.2232 252.707 98.3432 260.507 105.843C264.847 110.023 270.097 113.193 275.977 114.623C277.837 115.073 278.627 112.203 276.767 111.753V111.733Z" fill="black"/>
  <path d="M282.467 50.2633C254.707 32.4433 240.037 55.2733 240.037 55.2733C244.747 57.3533 260.697 74.5633 282.467 50.2633Z" fill="#4C8E13"/>
  <path d="M283.217 48.9833C275.087 43.8133 265.367 40.4132 255.717 42.7532C250.127 44.1032 245.017 47.3133 241.137 51.5433C240.277 52.4733 239.437 53.4633 238.747 54.5333C238.347 55.1633 238.567 56.2432 239.277 56.5732C240.737 57.2332 242.037 58.2933 243.377 59.1633C245.527 60.5733 247.767 61.8133 250.147 62.7833C256.577 65.3933 263.497 65.0733 269.767 62.1633C275.097 59.6933 279.597 55.6532 283.507 51.3332C284.787 49.9132 282.687 47.8033 281.407 49.2333C275.797 55.4433 268.477 61.4732 259.697 61.6532C254.447 61.7633 249.637 59.6633 245.297 56.8733C243.817 55.9233 242.387 54.7432 240.777 54.0132L241.307 56.0533C241.437 55.8533 241.577 55.6632 241.717 55.4632C241.787 55.3632 241.867 55.2633 241.937 55.1733C241.727 55.4533 241.877 55.2433 241.997 55.0933C242.237 54.8033 242.467 54.5133 242.717 54.2333C244.087 52.6533 245.657 51.1832 247.327 49.9632C252.687 46.0532 259.207 44.3232 265.807 45.2132C271.537 45.9932 276.867 48.5032 281.697 51.5732C283.317 52.6032 284.817 50.0332 283.197 49.0032L283.217 48.9833Z" fill="black"/>
  <path d="M278.057 74.9733C265.177 44.6033 240.187 55.1833 240.187 55.1833C242.897 59.5533 246.367 82.7533 278.057 74.9733Z" fill="#4C8E13"/>
  <path d="M279.337 74.2233C275.557 65.4033 269.477 57.2733 260.277 53.7133C254.857 51.6233 248.787 51.4233 243.147 52.7233C242.017 52.9833 240.857 53.2833 239.787 53.7433C238.937 54.1033 238.347 55.0233 238.897 55.9333C239.057 56.1933 239.187 56.4633 239.317 56.7433C239.377 56.8833 239.437 57.0233 239.497 57.1533C239.527 57.2333 239.657 57.5433 239.497 57.1533C239.547 57.2833 239.607 57.4133 239.657 57.5333C240.007 58.4033 240.357 59.2833 240.717 60.1533C241.697 62.5133 242.797 64.8333 244.227 66.9633C248.077 72.7133 253.917 76.5233 260.777 77.6033C266.677 78.5333 272.667 77.7933 278.437 76.3933C280.297 75.9433 279.507 73.0733 277.647 73.5233C269.517 75.4933 260.147 76.2633 252.797 71.4833C248.377 68.6133 245.617 64.1432 243.597 59.3832C243.677 59.5732 243.407 58.9333 243.357 58.7933C243.257 58.5333 243.147 58.2833 243.047 58.0233C242.877 57.5933 242.707 57.1633 242.527 56.7333C242.207 55.9533 241.897 55.1433 241.457 54.4133L240.567 56.6033C243.367 55.4233 246.347 54.9933 249.187 54.8933C255.797 54.6533 262.177 56.9033 267.107 61.3533C271.447 65.2733 274.467 70.3733 276.757 75.7133C277.507 77.4733 280.077 75.9533 279.327 74.2133L279.337 74.2233Z" fill="black"/>
</svg>