<?xml version="1.0" encoding="utf-8"?>
<svg width="346" height="249" viewBox="0 0 346 249" fill="none" xmlns="http://www.w3.org/2000/svg">
  <defs/>
  <path d="M172.737 144.473C172.467 143.763 172.487 143.303 172.457 142.463C172.427 141.683 172.357 140.903 172.147 140.143C171.767 138.773 171.027 137.493 170.037 136.463C167.917 134.263 164.657 133.443 161.737 134.233C160.987 134.433 160.447 135.303 160.697 136.063C160.947 136.823 161.717 137.323 162.527 137.103C163.547 136.833 164.527 136.833 165.597 137.143C165.737 137.183 165.877 137.233 166.017 137.283C166.087 137.303 166.157 137.333 166.227 137.363C166.097 137.313 166.117 137.313 166.277 137.393C166.537 137.523 166.797 137.663 167.047 137.823C167.167 137.903 167.287 137.983 167.397 138.063C167.197 137.913 167.497 138.153 167.537 138.183C167.747 138.373 167.947 138.563 168.137 138.783C168.137 138.783 168.427 139.133 168.257 138.913C168.347 139.023 168.427 139.143 168.497 139.253C168.657 139.483 168.797 139.733 168.927 139.983C168.987 140.103 169.057 140.233 169.107 140.363C168.997 140.093 169.157 140.513 169.157 140.533C169.247 140.803 169.327 141.073 169.377 141.343C169.407 141.483 169.437 141.623 169.447 141.753C169.407 141.433 169.447 141.893 169.447 141.963C169.467 142.293 169.477 142.623 169.487 142.943C169.517 143.723 169.587 144.513 169.857 145.243C170.127 145.973 170.877 146.543 171.687 146.283C172.397 146.053 173.017 145.233 172.727 144.453L172.737 144.473Z" fill="black"/>
  <path d="M152.997 128.163C152.997 128.163 172.077 120.913 165.587 98.0332C159.097 75.1532 120.547 70.9732 111.107 90.0832C101.667 109.193 108.417 119.413 121.387 126.893C134.357 134.373 143.557 132.043 152.997 128.173V128.163Z" fill="#CB1124"/>
  <path d="M153.397 129.593C160.387 126.923 165.987 120.313 167.727 113.103C169.337 106.413 168.237 98.6432 164.987 92.5932C162.187 87.3832 157.537 83.3232 152.287 80.6832C142.067 75.5332 128.497 74.6032 118.347 80.4632C116.007 81.8132 113.867 83.5632 112.177 85.6832C109.857 88.5732 108.387 92.0932 107.167 95.5632C104.807 102.273 104.237 109.723 107.707 116.163C111.117 122.473 117.657 126.963 124.007 129.943C128.037 131.833 132.337 133.093 136.797 133.263C140.607 133.413 144.417 132.723 148.037 131.573C149.847 131.003 151.627 130.323 153.387 129.603C155.147 128.883 154.367 126.003 152.597 126.733C145.777 129.523 138.757 131.343 131.427 129.503C127.227 128.443 123.317 126.463 119.697 124.113C117.147 122.453 114.747 120.543 112.747 118.233C108.727 113.593 107.467 107.633 108.587 101.653C109.327 97.6832 110.787 93.7332 112.717 90.1932C113.877 88.0632 115.467 86.2032 117.367 84.6932C125.607 78.1532 137.987 78.3132 147.437 81.7932C152.407 83.6232 157.087 86.6832 160.357 90.9032C164.157 95.8132 165.767 102.403 165.407 108.543C164.937 116.693 159.817 123.233 152.727 126.663C152.237 126.903 153.007 126.563 152.607 126.713C150.837 127.393 151.607 130.273 153.397 129.583V129.593Z" fill="black"/>
  <path d="M133.577 116.763C133.137 116.533 132.937 116.323 132.517 115.903C132.067 115.443 131.597 115.023 131.057 114.663C129.997 113.963 128.717 113.603 127.457 113.553C124.987 113.463 122.667 114.823 121.357 116.883C120.927 117.563 121.217 118.523 121.887 118.923C122.607 119.343 123.487 119.073 123.927 118.393C123.977 118.303 124.037 118.223 124.097 118.133C124.357 117.743 124.017 118.213 124.197 118.013C124.327 117.863 124.467 117.713 124.617 117.573C124.707 117.483 124.807 117.403 124.907 117.323C124.787 117.413 124.927 117.313 124.977 117.283C125.167 117.163 125.367 117.033 125.567 116.933C125.587 116.923 125.837 116.803 125.737 116.843C125.637 116.893 125.987 116.753 125.987 116.753C126.177 116.693 126.377 116.643 126.577 116.593C126.637 116.573 126.807 116.543 126.647 116.573C126.777 116.553 126.917 116.543 127.057 116.543C127.297 116.543 127.547 116.543 127.787 116.563C127.627 116.543 127.827 116.563 127.877 116.583C127.987 116.603 128.087 116.623 128.197 116.653C128.377 116.693 128.717 116.803 128.797 116.833C128.877 116.863 129.197 117.033 129.347 117.123C129.437 117.183 129.527 117.243 129.627 117.303C129.647 117.313 129.827 117.453 129.717 117.363C130.537 118.003 131.127 118.863 132.077 119.353C132.797 119.723 133.687 119.543 134.117 118.823C134.507 118.163 134.297 117.153 133.587 116.783L133.577 116.763Z" fill="black"/>
  <path d="M125.327 121.653C128.977 131.633 126.477 142.293 121.977 151.553C117.737 160.273 111.867 168.113 105.597 175.473C103.457 177.983 101.177 180.403 99.1271 182.983C98.1271 184.233 99.3571 186.213 100.927 185.323C104.367 183.363 108.097 181.963 111.807 180.613C116.427 178.933 121.077 177.353 125.657 175.573C136.097 171.523 146.237 166.423 154.517 158.753C159.747 153.913 164.047 148.133 167.237 141.763C168.097 140.053 165.527 138.543 164.667 140.263C159.257 151.073 150.657 159.483 140.247 165.493C131.327 170.643 121.587 173.923 111.937 177.403C107.677 178.933 103.357 180.503 99.4171 182.743L101.217 185.083C103.057 182.773 105.077 180.613 106.997 178.383C110.037 174.853 112.967 171.233 115.707 167.463C121.927 158.913 127.547 149.253 129.437 138.723C130.507 132.753 130.277 126.593 128.177 120.863C127.527 119.083 124.647 119.853 125.307 121.653H125.327Z" fill="black"/>
  <path d="M71.1171 151.203C71.7671 184.183 98.8971 183.663 98.8971 183.663C98.0071 178.593 103.417 155.763 71.1171 151.203Z" fill="#4C8E13"/>
  <path d="M69.6271 151.203C69.8471 160.773 72.3671 170.763 79.6171 177.473C83.8671 181.413 89.3671 183.933 95.0871 184.803C96.3371 184.993 97.6271 185.173 98.8971 185.153C99.9371 185.133 100.497 184.223 100.337 183.273C100.277 182.933 100.357 183.663 100.327 183.173C100.327 183.013 100.307 182.843 100.297 182.683C100.277 182.293 100.277 181.913 100.267 181.523C100.267 180.573 100.267 179.613 100.267 178.663C100.227 176.093 100.027 173.523 99.4971 171.003C98.0671 164.293 93.9871 158.693 88.1171 155.153C83.0971 152.123 77.2871 150.603 71.5271 149.773C69.6571 149.503 68.8471 152.373 70.7371 152.643C79.0071 153.833 88.2271 156.553 93.2471 163.783C96.2971 168.183 97.1971 173.243 97.2971 178.393C97.3271 180.273 97.1771 182.203 97.4871 184.073L98.9271 182.193C98.0671 182.213 97.1971 182.113 96.3371 182.013C95.9071 181.953 96.2471 182.003 96.3371 182.013C96.2271 182.003 96.1271 181.983 96.0171 181.963C95.7971 181.923 95.5671 181.893 95.3471 181.853C94.8071 181.763 94.2671 181.653 93.7271 181.523C92.5671 181.253 91.4271 180.923 90.3171 180.523C84.2271 178.333 79.1271 173.773 76.1971 167.833C73.6671 162.693 72.7771 156.893 72.6471 151.213C72.6071 149.303 69.6271 149.293 69.6671 151.213L69.6271 151.203Z" fill="black"/>
  <path d="M94.0971 141.123C76.0371 168.733 98.7371 183.593 98.7371 183.593C100.857 178.903 118.197 163.103 94.0971 141.123Z" fill="#4C8E13"/>
  <path d="M92.8171 140.373C87.5971 148.413 84.1371 158.043 86.3271 167.673C87.6071 173.323 90.7871 178.503 95.0071 182.453C95.9371 183.323 96.927 184.183 97.997 184.883C98.627 185.293 99.7071 185.053 100.037 184.353C100.707 182.893 101.777 181.603 102.667 180.273C104.087 178.133 105.357 175.903 106.337 173.533C108.987 167.113 108.737 160.213 105.877 153.903C103.447 148.553 99.4571 144.013 95.1671 140.073C93.7571 138.783 91.6471 140.883 93.0671 142.173C99.2271 147.833 105.187 155.213 105.287 163.993C105.347 169.243 103.207 174.033 100.377 178.343C99.4171 179.813 98.2171 181.233 97.4771 182.843L99.5171 182.313C99.3171 182.183 99.1171 182.033 98.9271 181.893C98.6371 181.683 99.1671 182.083 98.9071 181.873C98.8071 181.793 98.6971 181.713 98.5971 181.623C98.2871 181.373 97.9871 181.123 97.6971 180.853C96.1171 179.453 94.6571 177.863 93.4471 176.163C89.6271 170.813 87.9571 164.303 88.9071 157.773C89.7371 152.023 92.2871 146.703 95.4171 141.873C96.4671 140.263 93.8871 138.763 92.8471 140.373H92.8171Z" fill="black"/>
  <path d="M187.377 159.433C187.377 159.433 196.027 140.943 175.437 129.033C154.847 117.123 124.267 140.973 130.787 161.253C137.307 181.543 149.277 184.183 163.797 180.523C178.317 176.863 183.297 168.783 187.377 159.433Z" fill="#CB1124"/>
  <path d="M188.667 160.183C192.017 152.973 191.147 143.803 186.767 137.263C182.777 131.313 176.097 126.513 169.067 124.983C162.497 123.553 155.707 124.743 149.627 127.443C138.527 132.363 127.597 143.823 128.457 156.783C128.697 160.443 130.017 163.913 131.477 167.243C132.937 170.573 134.767 173.663 137.197 176.333C141.227 180.753 146.717 183.123 152.657 183.383C159.517 183.693 166.967 181.823 173.027 178.693C179.077 175.573 183.517 170.523 186.617 164.533C187.357 163.113 188.017 161.653 188.657 160.193C189.417 158.453 186.857 156.943 186.087 158.693C183.707 164.143 180.827 169.403 176.107 173.193C170.887 177.383 163.897 179.543 157.297 180.253C152.117 180.803 146.877 180.163 142.517 177.123C137.107 173.363 133.987 166.743 132.127 160.613C128.647 149.133 137.527 137.883 146.817 132.263C151.977 129.143 157.957 127.183 164.027 127.363C170.727 127.563 176.907 130.823 181.547 135.563C187.657 141.813 189.077 150.583 186.127 158.563C185.937 159.093 186.247 158.323 186.077 158.693C185.277 160.423 187.837 161.933 188.647 160.193L188.667 160.183Z" fill="black"/>
</svg>