<svg width="58" height="32" viewBox="0 0 58 32" fill="none" xmlns="http://www.w3.org/2000/svg">
<g filter="url(#filter0_b_525_20323)">
<path d="M20.1023 11.9H21.2658L24.7628 21H23.6188L22.7413 18.582H18.7178L17.8988 21H16.7288L20.1023 11.9ZM22.3903 17.646L20.8368 13.4145L20.6808 12.862L20.5248 13.4145L19.0493 17.646H22.3903ZM31.132 19.895C30.8807 20.298 30.5448 20.61 30.1245 20.831C29.7085 21.0477 29.234 21.156 28.701 21.156C28.0813 21.156 27.5288 21.0108 27.0435 20.7205C26.5625 20.4258 26.1855 20.0142 25.9125 19.4855C25.6438 18.9568 25.5095 18.3523 25.5095 17.672C25.5095 16.9917 25.6438 16.3872 25.9125 15.8585C26.1855 15.3298 26.5625 14.9203 27.0435 14.63C27.5288 14.3353 28.0813 14.188 28.701 14.188C29.234 14.188 29.7085 14.2985 30.1245 14.5195C30.5448 14.7362 30.8807 15.046 31.132 15.449V11.9H32.172V21H31.132V19.895ZM26.6015 17.672C26.6015 18.1703 26.6968 18.6123 26.8875 18.998C27.0782 19.3793 27.3447 19.6783 27.687 19.895C28.0293 20.1073 28.4215 20.2135 28.8635 20.2135C29.2708 20.2135 29.637 20.1247 29.962 19.947C30.2913 19.765 30.5557 19.5115 30.755 19.1865C30.9587 18.8572 31.0843 18.4758 31.132 18.0425V17.3015C31.0843 16.8682 30.9587 16.489 30.755 16.164C30.5557 15.8347 30.2913 15.5812 29.962 15.4035C29.637 15.2215 29.2708 15.1305 28.8635 15.1305C28.4215 15.1305 28.0293 15.2388 27.687 15.4555C27.3447 15.6678 27.0782 15.9668 26.8875 16.3525C26.6968 16.7338 26.6015 17.1737 26.6015 17.672ZM39.4678 19.895C39.2165 20.298 38.8807 20.61 38.4603 20.831C38.0443 21.0477 37.5698 21.156 37.0368 21.156C36.4172 21.156 35.8647 21.0108 35.3793 20.7205C34.8983 20.4258 34.5213 20.0142 34.2483 19.4855C33.9797 18.9568 33.8453 18.3523 33.8453 17.672C33.8453 16.9917 33.9797 16.3872 34.2483 15.8585C34.5213 15.3298 34.8983 14.9203 35.3793 14.63C35.8647 14.3353 36.4172 14.188 37.0368 14.188C37.5698 14.188 38.0443 14.2985 38.4603 14.5195C38.8807 14.7362 39.2165 15.046 39.4678 15.449V11.9H40.5078V21H39.4678V19.895ZM34.9373 17.672C34.9373 18.1703 35.0327 18.6123 35.2233 18.998C35.414 19.3793 35.6805 19.6783 36.0228 19.895C36.3652 20.1073 36.7573 20.2135 37.1993 20.2135C37.6067 20.2135 37.9728 20.1247 38.2978 19.947C38.6272 19.765 38.8915 19.5115 39.0908 19.1865C39.2945 18.8572 39.4202 18.4758 39.4678 18.0425V17.3015C39.4202 16.8682 39.2945 16.489 39.0908 16.164C38.8915 15.8347 38.6272 15.5812 38.2978 15.4035C37.9728 15.2215 37.6067 15.1305 37.1993 15.1305C36.7573 15.1305 36.3652 15.2388 36.0228 15.4555C35.6805 15.6678 35.414 15.9668 35.2233 16.3525C35.0327 16.7338 34.9373 17.1737 34.9373 17.672Z" fill="#19191C"/>
<rect x="0.5" y="0.5" width="57" height="31" rx="15.5" stroke="#19191C" stroke-opacity="0.3"/>
</g>
<defs>
<filter id="filter0_b_525_20323" x="-8" y="-8" width="74" height="48" filterUnits="userSpaceOnUse" color-interpolation-filters="sRGB">
<feFlood flood-opacity="0" result="BackgroundImageFix"/>
<feGaussianBlur in="BackgroundImageFix" stdDeviation="4"/>
<feComposite in2="SourceAlpha" operator="in" result="effect1_backgroundBlur_525_20323"/>
<feBlend mode="normal" in="SourceGraphic" in2="effect1_backgroundBlur_525_20323" result="shape"/>
</filter>
</defs>
</svg>
