<svg width="139" height="52" viewBox="0 0 139 52" fill="none" xmlns="http://www.w3.org/2000/svg">
<g filter="url(#filter0_b_380_14121)">
<path d="M38.0039 20C38.0039 20.8284 37.3323 21.5 36.5039 21.5C35.6755 21.5 35.0039 20.8284 35.0039 20C35.0039 19.1716 35.6755 18.5 36.5039 18.5C37.3323 18.5 38.0039 19.1716 38.0039 20Z" fill="#19191C"/>
<path d="M38.0039 26C38.0039 26.8284 37.3323 27.5 36.5039 27.5C35.6755 27.5 35.0039 26.8284 35.0039 26C35.0039 25.1716 35.6755 24.5 36.5039 24.5C37.3323 24.5 38.0039 25.1716 38.0039 26Z" fill="#19191C"/>
<path d="M52.0039 25H40.0039V27H52.0039V25Z" fill="#19191C"/>
<path d="M38.0039 32C38.0039 32.8284 37.3323 33.5 36.5039 33.5C35.6755 33.5 35.0039 32.8284 35.0039 32C35.0039 31.1716 35.6755 30.5 36.5039 30.5C37.3323 30.5 38.0039 31.1716 38.0039 32Z" fill="#19191C"/>
<path d="M52.0039 31H40.0039V33H52.0039V31Z" fill="#19191C"/>
<path d="M40.0039 19H52.0039V21H40.0039V19Z" fill="#19191C"/>
<path d="M76.2197 19V31.45H83.3597V33H74.5797V19H76.2197ZM85.6641 22.76H87.2641V33H85.6641V22.76ZM87.4041 19V20.9H85.5241V19H87.4041ZM94.1417 33.24C93.3684 33.24 92.6684 33.1167 92.0417 32.87C91.4217 32.6233 90.9251 32.28 90.5517 31.84C90.1851 31.3933 89.9884 30.89 89.9617 30.33H91.5917C91.6184 30.6367 91.7451 30.9133 91.9717 31.16C92.1984 31.4 92.4984 31.59 92.8717 31.73C93.2451 31.87 93.6617 31.94 94.1217 31.94C94.5884 31.94 94.9984 31.8633 95.3517 31.71C95.7117 31.5567 95.9884 31.3433 96.1817 31.07C96.3817 30.7967 96.4817 30.4867 96.4817 30.14C96.4817 29.7667 96.3751 29.4533 96.1617 29.2C95.9551 28.94 95.6651 28.7767 95.2917 28.71L92.8217 28.26C92.0351 28.1133 91.4217 27.7967 90.9817 27.31C90.5417 26.8167 90.3217 26.1933 90.3217 25.44C90.3217 24.9 90.4751 24.41 90.7817 23.97C91.0951 23.5233 91.5317 23.17 92.0917 22.91C92.6517 22.65 93.2917 22.52 94.0117 22.52C94.7251 22.52 95.3684 22.6367 95.9417 22.87C96.5151 23.1033 96.9717 23.4267 97.3117 23.84C97.6517 24.2533 97.8351 24.7133 97.8617 25.22H96.2317C96.2117 24.9533 96.1017 24.7133 95.9017 24.5C95.7084 24.2867 95.4484 24.12 95.1217 24C94.7951 23.88 94.4284 23.82 94.0217 23.82C93.6084 23.82 93.2417 23.89 92.9217 24.03C92.6017 24.17 92.3517 24.3633 92.1717 24.61C91.9984 24.85 91.9117 25.1233 91.9117 25.43C91.9117 25.7767 92.0084 26.0633 92.2017 26.29C92.3951 26.5167 92.6784 26.6633 93.0517 26.73L95.5817 27.18C96.1017 27.2733 96.5484 27.4567 96.9217 27.73C97.3017 28.0033 97.5884 28.3433 97.7817 28.75C97.9817 29.1567 98.0817 29.6 98.0817 30.08C98.0817 30.68 97.9084 31.22 97.5617 31.7C97.2217 32.18 96.7517 32.5567 96.1517 32.83C95.5517 33.1033 94.8817 33.24 94.1417 33.24ZM104.071 33C103.585 33 103.141 32.8967 102.741 32.69C102.348 32.4767 102.038 32.1867 101.811 31.82C101.585 31.4467 101.471 31.0333 101.471 30.58L101.461 24.18H99.6613L99.6713 22.76H100.781C101.035 22.76 101.238 22.68 101.391 22.52C101.551 22.36 101.631 22.1567 101.631 21.91V20.26H103.071V22.76H105.541L105.531 24.18H103.061L103.071 30.48C103.071 30.7933 103.175 31.0567 103.381 31.27C103.595 31.4767 103.858 31.58 104.171 31.58H105.531V33H104.071Z" fill="#19191C"/>
<rect x="0.5" y="0.5" width="138" height="51" rx="25.5" stroke="#19191C" stroke-opacity="0.3"/>
</g>
<defs>
<filter id="filter0_b_380_14121" x="-8" y="-8" width="155" height="68" filterUnits="userSpaceOnUse" color-interpolation-filters="sRGB">
<feFlood flood-opacity="0" result="BackgroundImageFix"/>
<feGaussianBlur in="BackgroundImageFix" stdDeviation="4"/>
<feComposite in2="SourceAlpha" operator="in" result="effect1_backgroundBlur_380_14121"/>
<feBlend mode="normal" in="SourceGraphic" in2="effect1_backgroundBlur_380_14121" result="shape"/>
</filter>
</defs>
</svg>
