<svg width="48" height="48" viewBox="0 0 48 48" fill="none" xmlns="http://www.w3.org/2000/svg">
<circle cx="24" cy="24" r="24" fill="#B3C497"/>
<rect x="22" y="31" width="2" height="1" fill="#19191C" fill-opacity="0.7"/>
<rect x="27" y="32" width="1" height="1" fill="#19191C" fill-opacity="0.7"/>
<rect x="18" y="32" width="2" height="1" fill="#19191C" fill-opacity="0.7"/>
<rect x="24" y="31" width="1" height="1" fill="#19191C" fill-opacity="0.7"/>
<rect x="28" y="32" width="1" height="1" fill="#19191C" fill-opacity="0.7"/>
<rect x="20" y="32" width="1" height="1" fill="#19191C" fill-opacity="0.7"/>
<rect x="25" y="31" width="1" height="1" fill="#19191C" fill-opacity="0.7"/>
<rect x="26" y="31" width="1" height="1" fill="#19191C" fill-opacity="0.7"/>
<rect x="29" y="32" width="2" height="1" fill="#19191C" fill-opacity="0.7"/>
<rect x="30" y="28" width="1" height="1" fill="#19191C" fill-opacity="0.7"/>
<rect x="31" y="30" width="1" height="1" fill="#19191C" fill-opacity="0.7"/>
<rect x="31" y="31" width="1" height="1" fill="#19191C" fill-opacity="0.7"/>
<rect x="17" y="30" width="1" height="1" fill="#19191C" fill-opacity="0.7"/>
<rect x="17" y="31" width="1" height="1" fill="#19191C" fill-opacity="0.7"/>
<rect x="28" y="25" width="1" height="1" fill="#19191C" fill-opacity="0.7"/>
<rect x="20" y="25" width="1" height="1" fill="#19191C" fill-opacity="0.7"/>
<rect x="18" y="28" width="1" height="1" fill="#19191C" fill-opacity="0.7"/>
<rect x="30" y="27" width="1" height="1" fill="#19191C" fill-opacity="0.7"/>
<rect x="31" y="29" width="1" height="1" fill="#19191C" fill-opacity="0.7"/>
<rect x="17" y="29" width="1" height="1" fill="#19191C" fill-opacity="0.7"/>
<rect x="28" y="24" width="1" height="1" fill="#19191C" fill-opacity="0.7"/>
<rect x="20" y="24" width="1" height="1" fill="#19191C" fill-opacity="0.7"/>
<rect x="21" y="23" width="1" height="1" fill="#19191C" fill-opacity="0.7"/>
<rect x="27" y="23" width="1" height="1" fill="#19191C" fill-opacity="0.7"/>
<rect x="18" y="18" width="1" height="1" fill="#19191C" fill-opacity="0.7"/>
<rect x="22" y="18" width="1" height="1" fill="#19191C" fill-opacity="0.7"/>
<rect x="19" y="19" width="1" height="1" fill="#19191C" fill-opacity="0.7"/>
<rect x="19" y="15" width="1" height="1" fill="#19191C" fill-opacity="0.7"/>
<path d="M20 19H21V20H20V19Z" fill="#19191C" fill-opacity="0.7"/>
<rect x="20" y="15" width="1" height="1" fill="#19191C" fill-opacity="0.7"/>
<rect x="18" y="17" width="1" height="1" fill="#19191C" fill-opacity="0.7"/>
<rect x="18" y="16" width="1" height="1" fill="#19191C" fill-opacity="0.7"/>
<rect x="22" y="16" width="1" height="1" fill="#19191C" fill-opacity="0.7"/>
<rect x="21" y="15" width="1" height="1" fill="#19191C" fill-opacity="0.7"/>
<rect x="21" y="19" width="1" height="1" fill="#19191C" fill-opacity="0.7"/>
<rect x="22" y="17" width="1" height="1" fill="#19191C" fill-opacity="0.7"/>
<rect x="26" y="18" width="1" height="1" fill="#19191C" fill-opacity="0.7"/>
<rect x="30" y="18" width="1" height="1" fill="#19191C" fill-opacity="0.7"/>
<rect x="27" y="19" width="1" height="1" fill="#19191C" fill-opacity="0.7"/>
<rect x="27" y="15" width="1" height="1" fill="#19191C" fill-opacity="0.7"/>
<path d="M28 19H29V20H28V19Z" fill="#19191C" fill-opacity="0.7"/>
<rect x="28" y="15" width="1" height="1" fill="#19191C" fill-opacity="0.7"/>
<rect x="26" y="17" width="1" height="1" fill="#19191C" fill-opacity="0.7"/>
<rect x="26" y="16" width="1" height="1" fill="#19191C" fill-opacity="0.7"/>
<rect x="30" y="16" width="1" height="1" fill="#19191C" fill-opacity="0.7"/>
<rect x="29" y="15" width="1" height="1" fill="#19191C" fill-opacity="0.7"/>
<rect x="29" y="19" width="1" height="1" fill="#19191C" fill-opacity="0.7"/>
<rect x="30" y="17" width="1" height="1" fill="#19191C" fill-opacity="0.7"/>
<rect x="14" y="23" width="1" height="1" fill="#19191C" fill-opacity="0.7"/>
<rect x="15" y="24" width="1" height="1" fill="#19191C" fill-opacity="0.7"/>
<rect x="15" y="21" width="1" height="1" fill="#19191C" fill-opacity="0.7"/>
<rect x="16" y="24" width="1" height="1" fill="#19191C" fill-opacity="0.7"/>
<rect x="16" y="21" width="1" height="1" fill="#19191C" fill-opacity="0.7"/>
<rect x="17" y="23" width="1" height="1" fill="#19191C" fill-opacity="0.7"/>
<rect x="14" y="22" width="1" height="1" fill="#19191C" fill-opacity="0.7"/>
<rect x="17" y="22" width="1" height="1" fill="#19191C" fill-opacity="0.7"/>
<rect x="31" y="23" width="1" height="1" fill="#19191C" fill-opacity="0.7"/>
<rect x="32" y="24" width="1" height="1" fill="#19191C" fill-opacity="0.7"/>
<rect x="32" y="21" width="1" height="1" fill="#19191C" fill-opacity="0.7"/>
<rect x="33" y="24" width="1" height="1" fill="#19191C" fill-opacity="0.7"/>
<rect x="33" y="21" width="1" height="1" fill="#19191C" fill-opacity="0.7"/>
<rect x="34" y="23" width="1" height="1" fill="#19191C" fill-opacity="0.7"/>
<rect x="31" y="22" width="1" height="1" fill="#19191C" fill-opacity="0.7"/>
<rect x="34" y="22" width="1" height="1" fill="#19191C" fill-opacity="0.7"/>
<rect x="22" y="22" width="5" height="1" fill="#19191C" fill-opacity="0.7"/>
<rect x="18" y="27" width="1" height="1" fill="#19191C" fill-opacity="0.7"/>
<rect x="29" y="26" width="1" height="1" fill="#19191C" fill-opacity="0.7"/>
<rect x="19" y="26" width="1" height="1" fill="#19191C" fill-opacity="0.7"/>
<rect x="21" y="32" width="1" height="1" fill="#19191C" fill-opacity="0.7"/>
</svg>
