<svg width="157" height="52" viewBox="0 0 157 52" fill="none" xmlns="http://www.w3.org/2000/svg">
<g filter="url(#filter0_b_733_193)">
<path d="M42.9998 16.0029V28.4529H37.9657L44.0047 34.9999L50.1487 28.4529H45.0217H44.9998V16.0029H42.9998Z" fill="#19191C"/>
<path d="M78.4546 33.24C77.4946 33.24 76.6446 33.0633 75.9046 32.71C75.1713 32.3567 74.5979 31.8633 74.1846 31.23C73.7779 30.5967 73.5746 29.87 73.5746 29.05H75.2746C75.2746 29.5767 75.4079 30.0433 75.6746 30.45C75.9413 30.8567 76.3179 31.1733 76.8046 31.4C77.2913 31.6267 77.8479 31.74 78.4746 31.74C79.0946 31.74 79.6379 31.6367 80.1046 31.43C80.5779 31.2167 80.9413 30.92 81.1946 30.54C81.4546 30.1533 81.5846 29.71 81.5846 29.21C81.5846 28.5767 81.3946 28.0333 81.0146 27.58C80.6413 27.1267 80.1413 26.8467 79.5146 26.74L77.2546 26.35C76.5746 26.23 75.9846 25.9933 75.4846 25.64C74.9846 25.2867 74.6013 24.8467 74.3346 24.32C74.0679 23.7933 73.9346 23.22 73.9346 22.6C73.9346 21.8733 74.1246 21.22 74.5046 20.64C74.8913 20.0533 75.4246 19.5933 76.1046 19.26C76.7913 18.9267 77.5613 18.76 78.4146 18.76C79.2946 18.76 80.0779 18.9267 80.7646 19.26C81.4513 19.5867 81.9846 20.0433 82.3646 20.63C82.7446 21.2167 82.9346 21.8867 82.9346 22.64H81.2346C81.2346 22.18 81.1179 21.77 80.8846 21.41C80.6513 21.0433 80.3213 20.76 79.8946 20.56C79.4746 20.36 78.9879 20.26 78.4346 20.26C77.8813 20.26 77.3913 20.3567 76.9646 20.55C76.5379 20.7433 76.2046 21.0167 75.9646 21.37C75.7313 21.7233 75.6146 22.1333 75.6146 22.6C75.6146 23.1533 75.7913 23.63 76.1446 24.03C76.5046 24.43 76.9746 24.68 77.5546 24.78L79.8546 25.18C80.5213 25.3 81.1146 25.5567 81.6346 25.95C82.1546 26.3433 82.5579 26.8267 82.8446 27.4C83.1313 27.9667 83.2746 28.5633 83.2746 29.19C83.2746 29.9433 83.0713 30.63 82.6646 31.25C82.2579 31.8633 81.6879 32.35 80.9546 32.71C80.2213 33.0633 79.3879 33.24 78.4546 33.24ZM89.5263 33C89.0397 33 88.5963 32.8967 88.1963 32.69C87.803 32.4767 87.493 32.1867 87.2663 31.82C87.0397 31.4467 86.9263 31.0333 86.9263 30.58L86.9163 24.18H85.1163L85.1263 22.76H86.2363C86.4897 22.76 86.693 22.68 86.8463 22.52C87.0063 22.36 87.0863 22.1567 87.0863 21.91V20.26H88.5263V22.76H90.9963L90.9863 24.18H88.5163L88.5263 30.48C88.5263 30.7933 88.6297 31.0567 88.8363 31.27C89.0497 31.4767 89.313 31.58 89.6263 31.58H90.9863V33H89.5263ZM97.3854 22.52C98.1587 22.52 98.8387 22.6633 99.4254 22.95C100.012 23.23 100.465 23.6433 100.785 24.19C101.112 24.73 101.275 25.3733 101.275 26.12V33H99.7154V31.33C99.4287 31.95 99.0087 32.4233 98.4554 32.75C97.9021 33.0767 97.2454 33.24 96.4854 33.24C95.8321 33.24 95.2421 33.1133 94.7154 32.86C94.1887 32.6067 93.7754 32.2567 93.4754 31.81C93.1754 31.3633 93.0254 30.8567 93.0254 30.29C93.0254 29.7567 93.1621 29.2667 93.4354 28.82C93.7154 28.3667 94.0987 27.9967 94.5854 27.71C95.0787 27.4233 95.6321 27.2467 96.2454 27.18L98.9754 26.88C99.2021 26.8533 99.3787 26.76 99.5054 26.6C99.6321 26.44 99.6954 26.2067 99.6954 25.9C99.6954 25.4933 99.5987 25.1367 99.4054 24.83C99.2121 24.5233 98.9387 24.2867 98.5854 24.12C98.2387 23.9467 97.8354 23.86 97.3754 23.86C96.9154 23.86 96.5021 23.94 96.1354 24.1C95.7687 24.2533 95.4721 24.4633 95.2454 24.73C95.0254 24.99 94.8921 25.2733 94.8454 25.58H93.2454C93.3254 25 93.5521 24.48 93.9254 24.02C94.3054 23.5533 94.7954 23.1867 95.3954 22.92C95.9954 22.6533 96.6587 22.52 97.3854 22.52ZM94.6854 30.2C94.6854 30.5467 94.7754 30.8533 94.9554 31.12C95.1421 31.3867 95.3987 31.5967 95.7254 31.75C96.0521 31.8967 96.4254 31.97 96.8454 31.97C97.4187 31.97 97.9187 31.8533 98.3454 31.62C98.7787 31.3867 99.1121 31.06 99.3454 30.64C99.5787 30.2133 99.6954 29.7233 99.6954 29.17V28L96.4654 28.36C95.9321 28.42 95.5021 28.62 95.1754 28.96C94.8487 29.3 94.6854 29.7133 94.6854 30.2ZM108.729 33.24C107.762 33.24 106.889 33.0067 106.109 32.54C105.329 32.0733 104.715 31.4333 104.269 30.62C103.829 29.8 103.609 28.8867 103.609 27.88C103.609 26.8733 103.829 25.9633 104.269 25.15C104.715 24.33 105.329 23.6867 106.109 23.22C106.889 22.7533 107.762 22.52 108.729 22.52C109.969 22.52 111.009 22.8367 111.849 23.47C112.689 24.0967 113.225 25.0067 113.459 26.2H111.859C111.645 25.4667 111.252 24.9133 110.679 24.54C110.112 24.16 109.462 23.97 108.729 23.97C108.069 23.97 107.475 24.1367 106.949 24.47C106.429 24.8033 106.022 25.2667 105.729 25.86C105.435 26.4533 105.289 27.1267 105.289 27.88C105.289 28.6267 105.435 29.2967 105.729 29.89C106.022 30.4833 106.429 30.95 106.949 31.29C107.475 31.6233 108.069 31.79 108.729 31.79C109.462 31.79 110.112 31.6033 110.679 31.23C111.252 30.85 111.645 30.2933 111.859 29.56H113.459C113.305 30.3333 113.005 30.9967 112.559 31.55C112.112 32.1033 111.559 32.5233 110.899 32.81C110.239 33.0967 109.515 33.24 108.729 33.24ZM116.061 19H117.661V27.56L122.301 22.76H124.291L119.621 27.64L124.471 33H122.411L117.661 27.84V33H116.061V19Z" fill="#19191C"/>
<rect x="0.5" y="0.5" width="156" height="51" rx="25.5" stroke="#19191C" stroke-opacity="0.3"/>
</g>
<defs>
<filter id="filter0_b_733_193" x="-8" y="-8" width="173" height="68" filterUnits="userSpaceOnUse" color-interpolation-filters="sRGB">
<feFlood flood-opacity="0" result="BackgroundImageFix"/>
<feGaussianBlur in="BackgroundImageFix" stdDeviation="4"/>
<feComposite in2="SourceAlpha" operator="in" result="effect1_backgroundBlur_733_193"/>
<feBlend mode="normal" in="SourceGraphic" in2="effect1_backgroundBlur_733_193" result="shape"/>
</filter>
</defs>
</svg>
