<svg width="83" height="32" viewBox="0 0 83 32" fill="none" xmlns="http://www.w3.org/2000/svg">
<g filter="url(#filter0_b_525_20324)">
<rect width="82" height="31" rx="15.5" fill="#19191C" fill-opacity="0.1"/>
<path d="M20.8214 17.191H18.8649V21H17.7859V11.9H21.4649C22.0456 11.9 22.5548 12.0083 22.9924 12.225C23.4344 12.4417 23.7746 12.7493 24.0129 13.148C24.2556 13.5467 24.3769 14.0103 24.3769 14.539C24.3769 15.007 24.2794 15.4273 24.0844 15.8C23.8938 16.1683 23.6208 16.4695 23.2654 16.7035C22.9101 16.9332 22.4898 17.0827 22.0044 17.152L24.4029 21H23.1419L20.8214 17.191ZM21.4649 16.1835C21.8203 16.1835 22.1301 16.1163 22.3944 15.982C22.6631 15.8477 22.8689 15.657 23.0119 15.41C23.1593 15.163 23.2329 14.8727 23.2329 14.539C23.2329 14.2097 23.1593 13.9215 23.0119 13.6745C22.8689 13.4275 22.6631 13.239 22.3944 13.109C22.1301 12.9747 21.8203 12.9075 21.4649 12.9075H18.8649V16.1835H21.4649ZM28.7562 21.156C28.1322 21.156 27.571 21.0065 27.0727 20.7075C26.5744 20.4085 26.1844 19.9947 25.9027 19.466C25.6254 18.933 25.4867 18.3307 25.4867 17.659C25.4867 17.0047 25.6275 16.4132 25.9092 15.8845C26.1952 15.3558 26.5874 14.942 27.0857 14.643C27.584 14.3397 28.1409 14.188 28.7562 14.188C29.3845 14.188 29.9349 14.3375 30.4072 14.6365C30.8839 14.9355 31.25 15.3493 31.5057 15.878C31.7657 16.4067 31.8957 17.0047 31.8957 17.672V17.9255H26.5462C26.5895 18.3805 26.713 18.7835 26.9167 19.1345C27.1204 19.4855 27.3869 19.7585 27.7162 19.9535C28.0455 20.1485 28.4139 20.246 28.8212 20.246C29.2589 20.246 29.6445 20.1658 29.9782 20.0055C30.3119 19.8452 30.5545 19.6263 30.7062 19.349H31.7462C31.6682 19.6263 31.5035 19.9037 31.2522 20.181C31.0052 20.4583 30.6672 20.6902 30.2382 20.8765C29.8135 21.0628 29.3195 21.156 28.7562 21.156ZM30.8167 17.0675C30.73 16.4608 30.509 15.982 30.1537 15.631C29.8027 15.28 29.3412 15.1045 28.7692 15.1045C28.3835 15.1045 28.0369 15.1847 27.7292 15.345C27.4215 15.501 27.168 15.7285 26.9687 16.0275C26.7694 16.3222 26.6372 16.6688 26.5722 17.0675H30.8167ZM33.6644 14.344H34.6654V15.4685C34.8647 15.0568 35.1399 14.7405 35.4909 14.5195C35.8462 14.2985 36.2622 14.188 36.7389 14.188C37.2372 14.188 37.6706 14.3072 38.0389 14.5455C38.4072 14.7838 38.6824 15.1197 38.8644 15.553C39.0767 15.1197 39.3736 14.7838 39.7549 14.5455C40.1362 14.3072 40.5761 14.188 41.0744 14.188C41.5467 14.188 41.9649 14.2963 42.3289 14.513C42.6972 14.7253 42.9832 15.0287 43.1869 15.423C43.3906 15.8173 43.4924 16.2767 43.4924 16.801V21H42.4524V16.8465C42.4524 16.2962 42.3137 15.8628 42.0364 15.5465C41.7634 15.2302 41.3777 15.072 40.8794 15.072C40.5241 15.072 40.2121 15.1543 39.9434 15.319C39.6747 15.4793 39.4667 15.709 39.3194 16.008C39.1721 16.3027 39.0984 16.6515 39.0984 17.0545V21H38.0584V16.8465C38.0584 16.2962 37.9197 15.8628 37.6424 15.5465C37.3694 15.2302 36.9837 15.072 36.4854 15.072C36.1257 15.072 35.8116 15.1522 35.5429 15.3125C35.2742 15.4728 35.0662 15.7025 34.9189 16.0015C34.7759 16.3005 34.7044 16.6515 34.7044 17.0545V21H33.6644V14.344ZM48.4586 21.156C47.8259 21.156 47.2496 21.0065 46.7296 20.7075C46.2139 20.4042 45.8066 19.9882 45.5076 19.4595C45.2129 18.9265 45.0656 18.3307 45.0656 17.672C45.0656 17.0133 45.2129 16.4197 45.5076 15.891C45.8066 15.358 46.2161 14.942 46.7361 14.643C47.2561 14.3397 47.8324 14.188 48.4651 14.188C49.0978 14.188 49.6719 14.3397 50.1876 14.643C50.7033 14.942 51.1084 15.3558 51.4031 15.8845C51.7021 16.4132 51.8516 17.009 51.8516 17.672C51.8516 18.335 51.7021 18.9308 51.4031 19.4595C51.1084 19.9882 50.7033 20.4042 50.1876 20.7075C49.6719 21.0065 49.0956 21.156 48.4586 21.156ZM46.1576 17.672C46.1576 18.1703 46.2573 18.6123 46.4566 18.998C46.6603 19.3793 46.9376 19.6762 47.2886 19.8885C47.6439 20.1008 48.0383 20.207 48.4716 20.207C48.9049 20.207 49.2949 20.1008 49.6416 19.8885C49.9883 19.6762 50.2613 19.3793 50.4606 18.998C50.6599 18.6123 50.7596 18.1703 50.7596 17.672C50.7596 17.1737 50.6599 16.7317 50.4606 16.346C50.2613 15.9603 49.9861 15.6613 49.6351 15.449C49.2884 15.2367 48.8984 15.1305 48.4651 15.1305C48.0318 15.1305 47.6396 15.2367 47.2886 15.449C46.9376 15.6613 46.6603 15.9603 46.4566 16.346C46.2573 16.7317 46.1576 17.1737 46.1576 17.672ZM52.6327 14.344H53.7637L55.7917 19.609L57.7547 14.344H58.8597L56.2402 21H55.2652L52.6327 14.344ZM62.8994 21.156C62.2754 21.156 61.7142 21.0065 61.2159 20.7075C60.7175 20.4085 60.3275 19.9947 60.0459 19.466C59.7685 18.933 59.6299 18.3307 59.6299 17.659C59.6299 17.0047 59.7707 16.4132 60.0524 15.8845C60.3384 15.3558 60.7305 14.942 61.2289 14.643C61.7272 14.3397 62.284 14.188 62.8994 14.188C63.5277 14.188 64.078 14.3375 64.5504 14.6365C65.027 14.9355 65.3932 15.3493 65.6489 15.878C65.9089 16.4067 66.0389 17.0047 66.0389 17.672V17.9255H60.6894C60.7327 18.3805 60.8562 18.7835 61.0599 19.1345C61.2635 19.4855 61.53 19.7585 61.8594 19.9535C62.1887 20.1485 62.557 20.246 62.9644 20.246C63.402 20.246 63.7877 20.1658 64.1214 20.0055C64.455 19.8452 64.6977 19.6263 64.8494 19.349H65.8894C65.8114 19.6263 65.6467 19.9037 65.3954 20.181C65.1484 20.4583 64.8104 20.6902 64.3814 20.8765C63.9567 21.0628 63.4627 21.156 62.8994 21.156ZM64.9599 17.0675C64.8732 16.4608 64.6522 15.982 64.2969 15.631C63.9459 15.28 63.4844 15.1045 62.9124 15.1045C62.5267 15.1045 62.18 15.1847 61.8724 15.345C61.5647 15.501 61.3112 15.7285 61.1119 16.0275C60.9125 16.3222 60.7804 16.6688 60.7154 17.0675H64.9599Z" fill="#19191C"/>
<rect x="0.5" y="0.5" width="82" height="31" rx="15.5" stroke="#19191C" stroke-opacity="0.4"/>
</g>
<defs>
<filter id="filter0_b_525_20324" x="-8" y="-8" width="99" height="48" filterUnits="userSpaceOnUse" color-interpolation-filters="sRGB">
<feFlood flood-opacity="0" result="BackgroundImageFix"/>
<feGaussianBlur in="BackgroundImageFix" stdDeviation="4"/>
<feComposite in2="SourceAlpha" operator="in" result="effect1_backgroundBlur_525_20324"/>
<feBlend mode="normal" in="SourceGraphic" in2="effect1_backgroundBlur_525_20324" result="shape"/>
</filter>
</defs>
</svg>
