<svg width="214" height="269" viewBox="0 0 214 269" fill="none" xmlns="http://www.w3.org/2000/svg">
<path fill-rule="evenodd" clip-rule="evenodd" d="M111.836 16.5906C114.34 14.9924 116 12.1896 116 8.99902C116 4.02846 111.971 -0.000976562 107 -0.000976562C102.029 -0.000976562 98 4.02846 98 8.99902C98 12.2197 99.6917 15.0452 102.235 16.6355C35.0897 20.1781 0.125 93.175 0.125 172.223C0.125 237.057 37.5214 269.001 107.375 269.001C176.74 269.001 213.875 237.057 213.875 172.223C213.875 92.8077 183.626 19.4998 111.836 16.5906ZM111 8.99963C111 11.2088 109.209 12.9996 107 12.9996C104.791 12.9996 103 11.2088 103 8.99963C103 6.79049 104.791 4.99963 107 4.99963C109.209 4.99963 111 6.79049 111 8.99963Z" fill="#28B8A0"/>
<rect x="38.375" y="76.001" width="137.25" height="137.25" rx="9" fill="#9FB181" stroke="#FFCE1F" stroke-width="6"/>
<rect x="40.375" y="78.001" width="133.25" height="133.25" rx="7" fill="#9FB181" stroke="#425446" stroke-width="2"/>
<circle cx="107.375" cy="240.001" r="8.25" fill="#FC801D"/>
<circle cx="107.375" cy="240.001" r="7.25" stroke="black" stroke-opacity="0.6" stroke-width="2"/>
<circle cx="77.375" cy="236.251" r="8.25" fill="#FC801D"/>
<circle cx="77.375" cy="236.251" r="7.25" stroke="black" stroke-opacity="0.6" stroke-width="2"/>
<circle cx="137.375" cy="236.251" r="8.25" fill="#FC801D"/>
<circle cx="137.375" cy="236.251" r="7.25" stroke="black" stroke-opacity="0.6" stroke-width="2"/>
<rect x="78.875" y="189.251" width="3" height="3" fill="#425446"/>
<rect x="81.875" y="195.251" width="51" height="3" fill="#425446"/>
<rect x="82" y="198" width="51" height="7" fill="#425446"/>
<rect x="81.875" y="192.251" width="51" height="3" fill="#425446"/>
<rect x="78.875" y="186.251" width="3" height="3" fill="#425446"/>
<rect x="78.875" y="183.251" width="3" height="3" fill="#425446"/>
<rect x="75.875" y="180.251" width="3" height="3" fill="#425446"/>
<rect x="72.875" y="177.251" width="3" height="3" fill="#425446"/>
<rect x="72.875" y="174.251" width="3" height="3" fill="#425446"/>
<rect x="69.875" y="171.251" width="3" height="3" fill="#425446"/>
<rect x="75.875" y="183.251" width="3" height="3" fill="#425446"/>
<rect x="69.875" y="174.251" width="3" height="3" fill="#425446"/>
<rect x="66.875" y="171.251" width="3" height="3" fill="#425446"/>
<rect x="66.875" y="165.251" width="3" height="3" fill="#425446"/>
<rect x="66.875" y="159.251" width="3" height="3" fill="#425446"/>
<rect x="69.875" y="150.251" width="3" height="3" fill="#425446"/>
<rect x="69.875" y="144.251" width="3" height="3" fill="#425446"/>
<rect x="99.875" y="138.251" width="3" height="3" fill="#425446"/>
<rect x="110.375" y="138.251" width="3" height="3" fill="#425446"/>
<rect x="99.875" y="141.251" width="3" height="3" fill="#425446"/>
<rect x="110.375" y="141.251" width="3" height="3" fill="#425446"/>
<rect x="110.375" y="144.251" width="3" height="3" fill="#425446"/>
<rect x="113.375" y="147.251" width="3" height="3" fill="#425446"/>
<rect x="116.375" y="141.251" width="3" height="3" fill="#425446"/>
<rect width="3" height="3" transform="matrix(-1 0 0 1 96.875 141.251)" fill="#425446"/>
<rect x="119.375" y="141.251" width="3" height="3" fill="#425446"/>
<rect width="3" height="3" transform="matrix(-1 0 0 1 93.875 141.251)" fill="#425446"/>
<rect x="119.375" y="138.251" width="3" height="3" fill="#425446"/>
<rect width="3" height="3" transform="matrix(-1 0 0 1 93.875 138.251)" fill="#425446"/>
<rect x="122.375" y="138.251" width="3" height="3" fill="#425446"/>
<rect width="3" height="3" transform="matrix(-1 0 0 1 90.875 138.251)" fill="#425446"/>
<rect width="3" height="3" transform="matrix(-1 0 0 1 90.875 141.251)" fill="#425446"/>
<rect x="125.375" y="138.251" width="3" height="3" fill="#425446"/>
<rect width="3" height="3" transform="matrix(-1 0 0 1 87.875 138.251)" fill="#425446"/>
<rect x="125.375" y="141.251" width="3" height="3" fill="#425446"/>
<rect x="128.375" y="141.251" width="3" height="3" fill="#425446"/>
<rect width="3" height="3" transform="matrix(-1 0 0 1 87.875 141.251)" fill="#425446"/>
<rect width="3" height="3" transform="matrix(-1 0 0 1 84.875 141.251)" fill="#425446"/>
<rect x="125.375" y="144.251" width="3" height="3" fill="#425446"/>
<rect width="3" height="3" transform="matrix(-1 0 0 1 87.875 144.251)" fill="#425446"/>
<rect x="122.375" y="144.251" width="3" height="3" fill="#425446"/>
<rect x="122.375" y="141.251" width="3" height="3" fill="#425446"/>
<rect x="122.375" y="140.501" width="3" height="3" fill="#9FB181"/>
<rect x="87.875" y="140.501" width="3" height="3" fill="#9FB181"/>
<rect width="3" height="3" transform="matrix(-1 0 0 1 90.875 144.251)" fill="#425446"/>
<rect x="119.375" y="144.251" width="3" height="3" fill="#425446"/>
<rect width="3" height="3" transform="matrix(-1 0 0 1 93.875 144.251)" fill="#425446"/>
<rect x="99.875" y="144.251" width="3" height="3" fill="#425446"/>
<rect x="96.875" y="147.251" width="3" height="3" fill="#425446"/>
<rect x="93.875" y="150.251" width="3" height="3" fill="#425446"/>
<rect x="90.875" y="153.251" width="3" height="3" fill="#425446"/>
<rect x="116.375" y="150.251" width="3" height="3" fill="#425446"/>
<rect x="119.375" y="153.251" width="3" height="3" fill="#425446"/>
<rect x="122.375" y="156.251" width="3" height="3" fill="#425446"/>
<rect x="87.875" y="156.251" width="3" height="3" fill="#425446"/>
<rect x="122.375" y="159.251" width="3" height="3" fill="#425446"/>
<rect x="87.875" y="159.251" width="3" height="3" fill="#425446"/>
<rect x="122.375" y="162.251" width="3" height="3" fill="#425446"/>
<rect x="125.375" y="162.251" width="3" height="3" fill="#425446"/>
<rect x="81.875" y="159.251" width="3" height="3" fill="#425446"/>
<rect x="128.375" y="159.251" width="3" height="3" fill="#425446"/>
<rect x="84.875" y="162.251" width="3" height="3" fill="#425446"/>
<rect x="87.875" y="162.251" width="3" height="3" fill="#425446"/>
<rect x="122.375" y="165.251" width="3" height="3" fill="#425446"/>
<rect x="87.875" y="165.251" width="3" height="3" fill="#425446"/>
<rect x="119.375" y="168.251" width="3" height="3" fill="#425446"/>
<rect x="99.125" y="174.251" width="3" height="3" fill="#425446"/>
<rect x="99.125" y="177.251" width="3" height="3" fill="#425446"/>
<rect x="99.125" y="180.251" width="3" height="3" fill="#425446"/>
<rect x="114.125" y="180.251" width="3" height="3" fill="#425446"/>
<rect x="102.125" y="183.251" width="3" height="3" fill="#425446"/>
<rect x="105.125" y="183.251" width="3" height="3" fill="#425446"/>
<rect x="108.125" y="183.251" width="3" height="3" fill="#425446"/>
<rect x="111.125" y="183.251" width="3" height="3" fill="#425446"/>
<rect x="114.125" y="177.251" width="3" height="3" fill="#425446"/>
<rect x="114.125" y="174.251" width="3" height="3" fill="#425446"/>
<rect x="105.125" y="162.251" width="3" height="3" fill="#425446"/>
<rect x="105.125" y="165.251" width="3" height="3" fill="#425446"/>
<rect x="110" y="197" width="3" height="3" transform="rotate(90 110 197)" fill="#9FB181"/>
<rect x="107" y="194" width="9" height="3" transform="rotate(90 107 194)" fill="#9FB181"/>
<rect x="113" y="200" width="3" height="3" transform="rotate(90 113 200)" fill="#9FB181"/>
<rect x="113" y="194" width="3" height="3" transform="rotate(90 113 194)" fill="#9FB181"/>
<rect x="105.125" y="168.251" width="3" height="3" fill="#425446"/>
<rect x="107.125" y="174.251" width="3" height="3" fill="#425446"/>
<rect x="107.125" y="177.251" width="3" height="3" fill="#425446"/>
<rect x="108.125" y="162.251" width="3" height="3" fill="#425446"/>
<rect x="102.125" y="162.251" width="3" height="3" fill="#425446"/>
<rect x="99.125" y="159.251" width="3" height="3" fill="#425446"/>
<rect x="99.125" y="156.251" width="3" height="3" fill="#425446"/>
<rect x="102.125" y="156.251" width="9" height="6" fill="#425446"/>
<rect x="111.125" y="159.251" width="3" height="3" fill="#425446"/>
<rect x="111.125" y="156.251" width="3" height="3" fill="#425446"/>
<rect x="116.375" y="171.251" width="3" height="3" fill="#425446"/>
<rect x="90.875" y="168.251" width="3" height="3" fill="#425446"/>
<rect x="93.875" y="171.251" width="3" height="3" fill="#425446"/>
<rect x="96.875" y="171.251" width="19.5" height="3" fill="#425446"/>
<rect x="69.875" y="153.251" width="3" height="3" fill="#425446"/>
<rect x="66.875" y="168.251" width="3" height="3" fill="#425446"/>
<rect x="66.875" y="162.251" width="3" height="3" fill="#425446"/>
<rect x="66.875" y="156.251" width="3" height="3" fill="#425446"/>
<rect x="69.875" y="147.251" width="3" height="3" fill="#425446"/>
<rect x="69.875" y="141.251" width="3" height="3" fill="#425446"/>
<rect x="99.875" y="135.251" width="3" height="3" fill="#425446"/>
<rect x="110.375" y="135.251" width="3" height="3" fill="#425446"/>
<rect x="69.875" y="138.251" width="3" height="3" fill="#425446"/>
<rect x="99.875" y="132.251" width="3" height="3" fill="#425446"/>
<rect x="110.375" y="132.251" width="3" height="3" fill="#425446"/>
<rect x="72.875" y="135.251" width="3" height="3" fill="#425446"/>
<rect x="75.875" y="132.251" width="3" height="3" fill="#425446"/>
<rect x="78.875" y="129.251" width="3" height="3" fill="#425446"/>
<rect x="81.875" y="126.251" width="3" height="3" fill="#425446"/>
<rect x="81.875" y="123.251" width="3" height="3" fill="#425446"/>
<rect x="84.875" y="123.251" width="3" height="3" fill="#425446"/>
<rect x="87.875" y="120.251" width="3" height="3" fill="#425446"/>
<rect x="90.875" y="117.251" width="3" height="3" fill="#425446"/>
<rect x="120.875" y="117.251" width="3" height="3" fill="#425446"/>
<rect x="123.875" y="120.251" width="3" height="3" fill="#425446"/>
<rect x="126.875" y="123.251" width="3" height="3" fill="#425446"/>
<rect x="129.875" y="123.251" width="3" height="3" fill="#425446"/>
<rect x="129.875" y="126.251" width="3" height="3" fill="#425446"/>
<rect x="132.875" y="129.251" width="3" height="3" fill="#425446"/>
<rect x="135.875" y="132.251" width="3" height="3" fill="#425446"/>
<rect x="138.875" y="135.251" width="3" height="3" fill="#425446"/>
<rect x="141.875" y="138.251" width="3" height="3" fill="#425446"/>
<rect x="141.875" y="144.251" width="3" height="3" fill="#425446"/>
<rect x="144.875" y="156.251" width="3" height="3" fill="#425446"/>
<rect x="141.875" y="141.251" width="3" height="3" fill="#425446"/>
<rect x="141.875" y="147.251" width="3" height="3" fill="#425446"/>
<rect x="144.875" y="159.251" width="3" height="3" fill="#425446"/>
<rect x="141.875" y="150.251" width="3" height="3" fill="#425446"/>
<rect x="144.875" y="162.251" width="3" height="3" fill="#425446"/>
<rect x="141.875" y="153.251" width="3" height="3" fill="#425446"/>
<rect x="144.875" y="165.251" width="3" height="3" fill="#425446"/>
<rect x="141.875" y="168.251" width="3" height="3" fill="#425446"/>
<rect x="141.875" y="171.251" width="3" height="3" fill="#425446"/>
<rect x="138.875" y="174.251" width="3" height="3" fill="#425446"/>
<rect x="138.875" y="177.251" width="3" height="3" fill="#425446"/>
<rect x="135.875" y="180.251" width="3" height="3" fill="#425446"/>
<rect x="132.875" y="183.251" width="3" height="3" fill="#425446"/>
<rect x="132.875" y="186.251" width="3" height="3" fill="#425446"/>
<rect x="132.875" y="189.251" width="3" height="3" fill="#425446"/>
<rect x="93.875" y="114.251" width="3" height="3" fill="#425446"/>
<rect x="90.875" y="111.251" width="3" height="3" fill="#425446"/>
<rect x="90.875" y="114.251" width="3" height="3" fill="#425446"/>
<rect width="3" height="6" transform="matrix(-1 0 0 1 123.875 111.251)" fill="#425446"/>
<rect x="87.875" y="105.251" width="3" height="3" fill="#425446"/>
<rect x="87.875" y="108.251" width="3" height="12" fill="#425446"/>
<rect width="3" height="15" transform="matrix(-1 0 0 1 126.875 105.251)" fill="#425446"/>
<rect x="84.875" y="99.251" width="3" height="3" fill="#425446"/>
<rect width="3" height="3" transform="matrix(-1 0 0 1 129.875 99.251)" fill="#425446"/>
<rect x="81.875" y="93.251" width="3" height="3" fill="#425446"/>
<rect width="3" height="3" transform="matrix(-1 0 0 1 132.875 93.251)" fill="#425446"/>
<rect x="66.875" y="93.251" width="3" height="3" fill="#425446"/>
<rect width="3" height="3" transform="matrix(-1 0 0 1 147.875 93.251)" fill="#425446"/>
<rect x="63.875" y="99.251" width="3" height="3" fill="#425446"/>
<rect width="3" height="3" transform="matrix(-1 0 0 1 150.875 99.251)" fill="#425446"/>
<rect x="63.875" y="105.251" width="3" height="3" fill="#425446"/>
<rect width="3" height="3" transform="matrix(-1 0 0 1 150.875 105.251)" fill="#425446"/>
<rect x="63.875" y="111.251" width="3" height="3" fill="#425446"/>
<rect width="3" height="3" transform="matrix(-1 0 0 1 150.875 111.251)" fill="#425446"/>
<rect x="63.875" y="117.251" width="3" height="3" fill="#425446"/>
<rect width="3" height="3" transform="matrix(-1 0 0 1 150.875 117.251)" fill="#425446"/>
<rect x="63.875" y="123.251" width="3" height="3" fill="#425446"/>
<rect width="3" height="3" transform="matrix(-1 0 0 1 150.875 123.251)" fill="#425446"/>
<rect x="66.875" y="129.251" width="3" height="3" fill="#425446"/>
<rect width="3" height="3" transform="matrix(-1 0 0 1 147.875 129.251)" fill="#425446"/>
<rect x="66.875" y="132.251" width="3" height="3" fill="#425446"/>
<rect width="3" height="3" transform="matrix(-1 0 0 1 147.875 132.251)" fill="#425446"/>
<rect x="66.875" y="135.251" width="3" height="3" fill="#425446"/>
<rect width="3" height="3" transform="matrix(-1 0 0 1 147.875 135.251)" fill="#425446"/>
<rect x="90.875" y="108.251" width="3" height="3" fill="#425446"/>
<rect width="3" height="3" transform="matrix(-1 0 0 1 123.875 108.251)" fill="#425446"/>
<rect x="87.875" y="102.251" width="3" height="3" fill="#425446"/>
<rect width="3" height="3" transform="matrix(-1 0 0 1 126.875 102.251)" fill="#425446"/>
<rect x="84.875" y="96.251" width="3" height="3" fill="#425446"/>
<rect width="3" height="3" transform="matrix(-1 0 0 1 129.875 96.251)" fill="#425446"/>
<rect x="81.875" y="93.251" width="3" height="3" fill="#425446"/>
<rect width="3" height="3" transform="matrix(-1 0 0 1 132.875 93.251)" fill="#425446"/>
<rect x="66.875" y="93.251" width="3" height="3" fill="#425446"/>
<rect width="3" height="3" transform="matrix(-1 0 0 1 147.875 93.251)" fill="#425446"/>
<rect x="63.875" y="96.251" width="3" height="3" fill="#425446"/>
<rect width="3" height="3" transform="matrix(-1 0 0 1 150.875 96.251)" fill="#425446"/>
<rect x="63.875" y="102.251" width="3" height="3" fill="#425446"/>
<rect width="3" height="3" transform="matrix(-1 0 0 1 150.875 102.251)" fill="#425446"/>
<rect x="63.875" y="108.251" width="3" height="3" fill="#425446"/>
<rect width="3" height="3" transform="matrix(-1 0 0 1 150.875 108.251)" fill="#425446"/>
<rect x="63.875" y="114.251" width="3" height="3" fill="#425446"/>
<rect width="3" height="3" transform="matrix(-1 0 0 1 150.875 114.251)" fill="#425446"/>
<rect x="63.875" y="120.251" width="3" height="3" fill="#425446"/>
<rect width="3" height="3" transform="matrix(-1 0 0 1 150.875 120.251)" fill="#425446"/>
<rect x="66.875" y="126.251" width="3" height="3" fill="#425446"/>
<rect width="3" height="3" transform="matrix(-1 0 0 1 147.875 126.251)" fill="#425446"/>
<rect x="78.875" y="90.251" width="3" height="3" fill="#425446"/>
<rect width="3" height="3" transform="matrix(-1 0 0 1 135.875 90.251)" fill="#425446"/>
<rect x="75.875" y="90.251" width="3" height="3" fill="#425446"/>
<rect width="3" height="3" transform="matrix(-1 0 0 1 138.875 90.251)" fill="#425446"/>
<rect x="72.875" y="90.251" width="3" height="3" fill="#425446"/>
<rect width="3" height="3" transform="matrix(-1 0 0 1 141.875 90.251)" fill="#425446"/>
<rect x="69.875" y="90.251" width="3" height="3" fill="#425446"/>
<rect width="3" height="3" transform="matrix(-1 0 0 1 144.875 90.251)" fill="#425446"/>
<rect x="99.875" y="114.251" width="3" height="3" fill="#425446"/>
<rect x="105.875" y="114.251" width="3" height="3" fill="#425446"/>
<rect x="111.875" y="114.251" width="3" height="3" fill="#425446"/>
<rect x="96.875" y="114.251" width="3" height="3" fill="#425446"/>
<rect x="102.875" y="114.251" width="3" height="3" fill="#425446"/>
<rect x="108.875" y="114.251" width="3" height="3" fill="#425446"/>
<rect x="114.875" y="114.251" width="3" height="3" fill="#425446"/>
<rect x="117.875" y="114.251" width="3" height="3" fill="#425446"/>
</svg>
