<svg width="200" height="249" viewBox="0 0 200 249" fill="none" xmlns="http://www.w3.org/2000/svg">
<path d="M30.7939 157.112C30.7939 157.112 9.6839 177.132 30.7939 203.652C51.9039 230.172 104.894 214.472 106.804 184.172C108.724 153.862 94.2239 144.122 73.0539 141.422C51.8939 138.712 41.0639 146.832 30.7839 157.112H30.7939Z" fill="#CB1124"/>
<path d="M29.7439 156.062C26.4339 159.212 23.9739 163.502 22.2939 167.692C18.4939 177.142 19.5939 187.492 24.2739 196.432C28.8639 205.222 35.8439 212.162 45.1439 215.752C53.1339 218.832 61.9839 219.272 70.3839 217.942C85.8039 215.522 102.814 206.052 107.314 190.082C108.644 185.372 108.644 180.252 108.384 175.392C108.124 170.532 107.384 165.802 105.674 161.322C102.804 153.782 97.3139 147.872 90.0039 144.442C86.2539 142.682 82.2639 141.512 78.2039 140.732C72.7239 139.682 67.0739 139.122 61.4939 139.532C56.3039 139.912 51.2639 141.152 46.5439 143.362C42.2539 145.372 38.3839 148.162 34.8239 151.272C33.0739 152.802 31.3939 154.412 29.7439 156.062C28.3839 157.412 30.4939 159.522 31.8439 158.162C38.2439 151.782 45.3039 146.072 54.2039 143.722C63.6139 141.242 74.1539 142.232 83.4039 145.082C90.2839 147.202 96.5739 151.082 100.414 157.302C105.334 165.262 105.984 175.312 105.304 184.422C104.154 199.922 89.2539 210.102 75.4739 213.822C60.4739 217.872 42.5639 215.632 32.1939 203.032C25.4739 194.872 21.2339 184.252 23.5639 173.642C24.3239 170.182 25.6739 166.902 27.4939 163.862C28.6639 161.912 29.7239 160.442 31.1939 158.842C31.4039 158.612 31.6239 158.382 31.8539 158.162C33.2439 156.842 31.1339 154.732 29.7539 156.062H29.7439Z" fill="black"/>
<path d="M60.6339 156.942C62.4539 157.782 63.6439 159.532 65.3539 160.562C67.0639 161.592 69.2539 162.212 71.3439 162.212C75.3939 162.212 79.1639 159.902 81.1939 156.422C82.1639 154.752 79.5739 153.242 78.6039 154.912C76.9839 157.692 73.9839 159.382 70.7539 159.202C69.1439 159.112 67.5539 158.522 66.2539 157.572C64.8339 156.542 63.7839 155.102 62.1539 154.352C61.4239 154.012 60.5339 154.142 60.1039 154.892C59.7239 155.542 59.9039 156.602 60.6439 156.942H60.6339Z" fill="black"/>
<path d="M96.6639 154.042C96.6639 154.042 84.7439 180.582 114.334 197.102C143.934 213.622 186.994 178.972 177.254 150.212C167.514 121.452 150.404 117.942 129.804 123.472C109.204 129.002 102.274 140.622 96.6639 154.042Z" fill="#CB1124"/>
<path d="M95.3839 153.292C93.9239 156.552 93.2239 160.212 92.9339 163.752C92.3039 171.232 94.1739 178.832 98.4139 185.052C101.414 189.452 105.364 193.082 109.774 196.032C114.184 198.982 118.564 201.052 123.544 202.082C132.744 203.972 142.264 202.202 150.724 198.322C159.204 194.432 166.724 188.332 172.254 180.822C177.354 173.892 180.804 165.232 180.074 156.512C179.654 151.432 177.734 146.602 175.624 142.002C173.514 137.402 170.794 132.922 167.264 129.202C161.524 123.162 153.824 119.992 145.534 119.782C141.184 119.672 136.824 120.292 132.584 121.242C127.044 122.492 121.564 124.312 116.574 127.062C108.194 131.682 102.184 138.922 98.0139 147.422C97.0139 149.462 96.1139 151.532 95.2339 153.632C94.9239 154.382 95.5739 155.262 96.2739 155.462C97.1239 155.712 97.7939 155.162 98.1039 154.422C101.434 146.472 105.614 138.852 112.434 133.362C119.924 127.332 129.934 124.142 139.394 123.052C146.944 122.182 154.604 123.162 160.944 127.612C168.684 133.052 173.394 142.542 176.084 151.362C181.124 167.922 168.444 184.342 155.074 192.592C147.634 197.182 138.964 200.092 130.154 199.852C120.564 199.592 111.614 194.982 104.904 188.232C99.4239 182.732 96.0739 175.532 95.8139 167.732C95.6739 163.412 96.2839 159.182 97.8339 155.112C97.8939 154.942 97.9639 154.772 98.0339 154.602C98.1239 154.382 97.8439 155.042 97.9639 154.762C98.7439 153.032 96.1739 151.512 95.3939 153.262L95.3839 153.292Z" fill="black"/>
<path d="M127.584 145.352C128.334 145.102 129.014 145.132 129.834 145.142C130.654 145.152 131.514 145.092 132.334 144.902C133.904 144.552 135.354 143.762 136.554 142.692C139.064 140.452 140.034 136.902 139.304 133.662C139.124 132.872 138.214 132.402 137.454 132.612C136.644 132.832 136.224 133.662 136.404 134.462C136.654 135.582 136.594 136.752 136.204 137.942C135.834 139.062 135.164 140.002 134.174 140.792C133.374 141.432 132.304 141.902 131.124 142.092C131.014 142.112 131.014 142.112 131.124 142.092L130.964 142.112C130.784 142.122 130.594 142.132 130.414 142.142C130.024 142.152 129.644 142.142 129.254 142.142C128.424 142.142 127.574 142.202 126.784 142.462C125.994 142.722 125.514 143.502 125.734 144.312C125.944 145.062 126.804 145.612 127.584 145.362V145.352Z" fill="black"/>
<path d="M130.814 133.282C117.044 126.932 108.744 113.632 103.884 99.7618C99.2739 86.6118 97.2639 72.6818 96.1439 58.8418C95.7639 54.0718 95.6239 49.2718 95.0839 44.5118C94.9039 42.9418 92.6339 42.3818 92.1639 44.1118C90.6639 49.5718 88.3139 54.7718 85.9239 59.8918C82.9739 66.2218 79.8839 72.4818 77.0539 78.8818C70.6339 93.4118 65.5539 108.702 64.9239 124.702C64.5339 134.822 66.0039 144.952 69.2039 154.552C69.8039 156.362 72.6839 155.582 72.0739 153.762C66.6039 137.372 66.7939 120.122 71.2339 103.522C75.0439 89.2918 81.5539 76.1218 87.8039 62.8518C90.5439 57.0318 93.3239 51.1318 95.0239 44.9118L92.1039 44.5118C92.5839 48.6918 92.7139 52.9118 93.0339 57.1018C93.5339 63.6618 94.2139 70.2218 95.2339 76.7218C97.5639 91.5418 101.614 106.852 110.264 119.322C115.134 126.342 121.514 132.252 129.314 135.852C131.044 136.652 132.554 134.082 130.814 133.282Z" fill="black"/>
<path d="M155.954 48.3016C122.064 15.7216 95.2439 43.5816 95.2439 43.5816C101.244 47.7916 118.794 76.2516 155.954 48.3016Z" fill="#4C8E13"/>
<path d="M157.014 47.2517C147.244 37.9117 134.744 30.4517 120.804 31.0317C112.674 31.3717 104.744 34.3717 98.2139 39.1717C96.8239 40.2017 95.4039 41.2817 94.2039 42.5317C93.4939 43.2717 93.7239 44.3117 94.5039 44.8717C94.8839 45.1417 94.3639 44.7317 94.7439 45.0517C94.9139 45.2017 95.0939 45.3517 95.2639 45.5017C95.6639 45.8617 96.0539 46.2417 96.4439 46.6217C97.3939 47.5617 98.3339 48.5217 99.2939 49.4517C101.844 51.9317 104.544 54.2717 107.524 56.2317C115.644 61.5717 125.264 63.1417 134.704 60.8217C142.774 58.8417 150.124 54.5217 156.724 49.5817C158.244 48.4517 156.754 45.8617 155.224 47.0117C145.594 54.2217 133.474 60.7317 121.024 58.5517C113.514 57.2317 107.224 52.9617 101.824 47.7517C99.9239 45.9217 98.1739 43.8217 96.0239 42.2917L96.3239 44.6317C97.1739 43.7417 98.1439 42.9517 99.1139 42.2017C98.9139 42.3517 99.4939 41.9117 99.6139 41.8217C99.8939 41.6217 100.174 41.4117 100.454 41.2217C101.054 40.8017 101.674 40.3917 102.294 40.0017C103.754 39.0817 105.264 38.2517 106.824 37.5117C115.444 33.4417 125.194 32.9417 134.214 35.9917C142.094 38.6517 148.964 43.6617 154.924 49.3517C156.304 50.6717 158.414 48.5717 157.024 47.2517H157.014Z" fill="black"/>
<path d="M142.964 81.6217C133.344 35.6017 95.4839 43.4917 95.4839 43.4917C98.0739 50.3517 96.5139 83.7517 142.964 81.6217Z" fill="#4C8E13"/>
<path d="M144.394 81.2317C141.594 68.0017 135.424 54.8817 123.604 47.5017C116.694 43.1917 108.414 41.2317 100.304 41.5217C98.5739 41.5817 96.7939 41.7117 95.0839 42.0617C94.3439 42.2117 93.7739 43.1717 94.0439 43.8917C94.8339 46.0117 95.0539 48.3817 95.4939 50.5917C96.1839 54.0117 97.0639 57.4017 98.3939 60.6417C100.034 64.6417 102.274 68.3717 105.264 71.5217C108.854 75.3317 113.374 78.0917 118.254 79.9417C126.074 82.9117 134.684 83.4817 142.964 83.1117C144.874 83.0317 144.884 80.0517 142.964 80.1317C130.954 80.6617 117.434 79.1617 108.364 70.4117C102.814 65.0617 100.104 58.0417 98.5539 50.6517C98.0339 48.1617 97.8139 45.4817 96.9239 43.0917L95.8839 44.9217C96.2139 44.8517 96.5439 44.8117 96.8839 44.7617C97.2239 44.7117 96.7139 44.7817 96.7839 44.7717C96.8839 44.7617 96.9839 44.7417 97.0839 44.7317C97.2939 44.7117 97.5139 44.6817 97.7239 44.6617C98.2639 44.6117 98.8039 44.5617 99.3339 44.5317C102.384 44.3517 105.654 44.5317 108.424 44.9817C117.834 46.5417 126.264 51.5317 131.974 59.2117C136.954 65.9217 139.814 73.8917 141.524 82.0017C141.924 83.8717 144.794 83.0817 144.394 81.2117V81.2317Z" fill="black"/>
</svg>
