<svg width="346" height="249" viewBox="0 0 346 249" fill="none" xmlns="http://www.w3.org/2000/svg">
<path d="M173.287 161.403C260.421 161.403 331.057 155.592 331.057 148.423C331.057 141.255 260.421 135.443 173.287 135.443C86.1531 135.443 15.5171 141.255 15.5171 148.423C15.5171 155.592 86.1531 161.403 173.287 161.403Z" fill="#512B11"/>
<path d="M329.567 148.423C329.567 148.343 329.597 148.293 329.597 148.293C329.537 148.283 329.447 148.463 329.617 148.293C329.537 148.373 329.467 148.473 329.367 148.543C329.047 148.793 329.407 148.533 329.297 148.613C329.177 148.703 329.047 148.783 328.927 148.863C328.627 149.043 328.317 149.203 328.007 149.363C327.397 149.663 326.647 149.933 325.707 150.233C324.577 150.593 323.437 150.893 322.287 151.173C315.237 152.883 307.967 153.773 300.767 154.583C276.197 157.353 251.407 158.423 226.707 159.153C194.717 160.103 162.687 160.173 130.687 159.433C104.667 158.833 78.5871 157.823 52.6771 155.303C44.5371 154.513 36.3671 153.603 28.3271 152.043C25.7771 151.543 23.2171 150.993 20.7471 150.183C19.7771 149.863 19.1671 149.643 18.4871 149.313C18.2071 149.173 17.9371 149.023 17.6671 148.863C17.5371 148.793 17.4171 148.703 17.2971 148.613C17.2871 148.603 17.4771 148.763 17.1671 148.493C16.7471 148.123 17.2471 148.423 16.9871 148.283C17.0171 148.303 16.9871 148.443 17.0171 148.363C17.0971 148.183 16.8571 148.793 17.0171 148.473C17.0571 148.383 16.9171 148.533 16.9871 148.543C17.0371 148.553 17.0971 148.443 16.9671 148.543C17.0771 148.453 17.1571 148.333 17.2671 148.243C17.5571 148.013 17.0371 148.393 17.3171 148.203C17.4271 148.123 17.5371 148.043 17.6571 147.973C17.9971 147.783 18.3271 147.593 18.6871 147.423C19.2171 147.163 20.1371 146.833 21.0371 146.553C27.0271 144.663 33.3871 143.813 39.5971 143.003C62.6371 139.983 85.9671 138.883 109.177 138.033C140.937 136.873 172.727 136.643 204.497 137.173C231.707 137.623 258.957 138.543 286.087 140.823C295.177 141.583 304.267 142.473 313.277 143.913C316.357 144.403 319.447 144.963 322.477 145.703C323.607 145.983 324.737 146.283 325.857 146.643C326.317 146.793 326.767 146.953 327.227 147.123C327.597 147.263 327.597 147.253 328.117 147.513C328.427 147.663 328.717 147.833 329.017 148.013C329.127 148.083 329.237 148.163 329.347 148.243C329.267 148.183 329.147 148.103 329.387 148.283C329.477 148.353 329.547 148.463 329.637 148.533C329.397 148.353 329.587 148.543 329.617 148.533C329.617 148.533 329.587 148.453 329.587 148.403C329.637 150.313 332.607 150.323 332.567 148.403C332.487 144.953 326.897 143.773 324.377 143.113C317.447 141.283 310.247 140.393 303.137 139.543C278.257 136.583 253.127 135.503 228.107 134.743C195.167 133.743 162.187 133.663 129.247 134.453C102.967 135.083 76.6171 136.103 50.4471 138.773C42.2571 139.603 34.0271 140.543 25.9671 142.233C23.5671 142.733 21.1471 143.293 18.8371 144.163C17.4271 144.693 15.8371 145.313 14.8271 146.483C12.1371 149.573 16.6671 151.863 19.0371 152.723C24.7671 154.813 31.0571 155.613 37.0671 156.443C60.3971 159.683 84.0471 160.803 107.567 161.693C140.157 162.923 172.787 163.153 205.397 162.603C233.117 162.133 260.887 161.193 288.507 158.763C297.627 157.963 306.757 157.023 315.787 155.493C320.507 154.693 326.077 154.013 330.277 151.523C331.427 150.843 332.527 149.853 332.567 148.413C332.617 146.493 329.637 146.493 329.587 148.413L329.567 148.423Z" fill="black"/>
<path d="M145.527 132.633C145.527 132.633 160.087 146.943 144.947 165.283C129.807 183.623 92.8271 171.953 91.8571 150.663C90.8871 129.373 101.187 122.723 116.067 121.093C130.947 119.463 138.437 125.293 145.527 132.633Z" fill="#CB1124"/>
<path d="M144.477 133.683C146.347 135.523 147.847 138.043 148.877 140.703C151.247 146.823 150.547 153.363 147.397 159.083C144.247 164.803 139.767 169.173 133.657 171.293C128.447 173.103 122.747 173.313 117.347 172.313C107.547 170.503 96.5671 164.443 93.8771 154.123C93.0771 151.043 93.1771 147.713 93.3971 144.563C93.6171 141.413 94.1971 138.223 95.4071 135.283C97.3271 130.603 100.977 127.113 105.587 125.123C111.247 122.673 118.077 121.893 124.167 122.453C130.747 123.053 136.427 126.093 141.237 130.503C142.357 131.523 143.427 132.593 144.477 133.683C145.807 135.063 147.917 132.953 146.577 131.583C141.837 126.683 136.517 122.333 129.827 120.473C122.807 118.523 114.837 119.093 107.887 121.153C102.537 122.733 97.7071 125.713 94.6071 130.443C90.7371 136.333 89.9971 143.923 90.3771 150.793C91.0371 162.803 101.817 171.063 112.557 174.233C124.027 177.623 137.967 176.003 145.997 166.343C151.177 160.103 154.377 152.323 152.927 144.153C152.147 139.753 150.037 135.503 147.087 132.143C146.917 131.953 146.757 131.763 146.577 131.583C145.217 130.233 143.107 132.343 144.477 133.683Z" fill="black"/>
<path d="M123.337 129.943C122.217 130.433 121.467 131.383 120.507 132.093C119.627 132.743 118.547 133.133 117.457 133.173C115.337 133.253 113.417 132.113 112.387 130.263C111.457 128.593 108.877 130.093 109.817 131.763C111.267 134.373 114.047 136.083 117.037 136.143C118.537 136.173 120.077 135.783 121.387 135.043C122.697 134.303 123.517 133.083 124.837 132.503C125.577 132.183 125.747 131.103 125.367 130.463C124.927 129.703 124.067 129.603 123.327 129.933L123.337 129.943Z" fill="black"/>
<path d="M99.3571 129.663C99.3571 129.663 107.387 148.433 86.4171 159.653C65.4471 170.873 35.6671 146.023 42.8571 125.973C50.0471 105.913 62.0971 103.673 76.4871 107.813C90.8771 111.953 95.5871 120.193 99.3571 129.673V129.663Z" fill="#CB1124"/>
<path d="M98.0671 130.413C97.7371 129.643 98.0471 130.383 98.1171 130.573C98.2771 131.013 98.4071 131.453 98.5371 131.903C98.9471 133.383 99.1971 134.813 99.3071 136.223C99.6771 140.933 98.5871 145.583 95.9671 149.543C92.3771 154.963 86.0971 159.173 79.7471 160.493C73.9071 161.713 67.7171 160.493 62.3871 157.973C52.3671 153.233 42.4671 142.803 43.3071 130.943C43.5371 127.703 44.8471 124.593 46.2271 121.693C47.6071 118.793 49.4471 115.723 51.7971 113.303C55.5171 109.463 60.4071 107.553 65.7271 107.563C72.0371 107.563 78.8071 109.483 84.2671 112.583C89.7771 115.703 93.5671 120.483 96.2471 126.143C96.8571 127.433 97.4071 128.743 97.9371 130.063C98.6371 131.823 101.517 131.053 100.807 129.273C98.3871 123.203 95.3671 117.323 90.2371 113.093C84.5071 108.363 77.0471 105.813 69.7371 104.863C64.0171 104.123 58.0571 104.893 53.2171 108.223C47.1971 112.363 43.3771 119.393 41.2171 126.223C37.1971 138.883 46.4471 151.663 56.6571 158.203C62.2271 161.773 68.8471 164.053 75.5171 163.933C82.8571 163.793 89.7871 160.403 94.9971 155.313C101.727 148.753 104.207 138.613 100.967 129.723C100.867 129.453 100.757 129.183 100.647 128.913C99.8971 127.153 97.3371 128.673 98.0771 130.413H98.0671Z" fill="black"/>
<path d="M78.4671 120.733C77.9071 120.533 77.2871 120.483 76.6971 120.463C76.4371 120.463 76.1771 120.463 75.9271 120.453C75.7971 120.453 75.6671 120.443 75.5471 120.433C75.1671 120.413 75.8671 120.503 75.4971 120.433C75.2771 120.393 75.0571 120.343 74.8371 120.273C74.7271 120.243 74.6271 120.203 74.5171 120.163C74.1671 120.043 74.7971 120.303 74.4571 120.143C74.2571 120.043 74.0571 119.943 73.8571 119.823C73.7571 119.763 73.6671 119.703 73.5771 119.633C73.2671 119.423 73.7971 119.833 73.5171 119.593C73.3471 119.443 73.1771 119.293 73.0271 119.123C72.9571 119.043 72.8471 118.963 72.8071 118.863L72.8971 118.983C72.8471 118.923 72.8071 118.863 72.7671 118.793C72.6371 118.593 72.5171 118.393 72.4071 118.183C72.3671 118.103 72.1771 117.823 72.3671 118.103C72.3071 118.013 72.2771 117.873 72.2471 117.773C72.1771 117.543 72.1271 117.313 72.0771 117.083C72.0071 116.803 72.0771 117.253 72.0771 117.063C72.0771 116.943 72.0571 116.823 72.0471 116.713C72.0371 116.473 72.0471 116.243 72.0571 116.003C72.0571 115.943 72.0671 115.883 72.0771 115.823C72.0471 116.003 72.0471 116.033 72.0671 115.923C72.0971 115.793 72.1171 115.653 72.1571 115.513C72.3371 114.763 71.9171 113.863 71.1171 113.683C70.3171 113.503 69.4871 113.913 69.2871 114.723C68.6971 117.143 69.3971 119.833 71.2571 121.533C72.1371 122.333 73.2171 122.943 74.3871 123.223C74.9771 123.363 75.5971 123.413 76.2071 123.423C76.5071 123.423 76.8071 123.433 77.1071 123.443C77.5071 123.453 76.8271 123.363 77.2171 123.443C77.3871 123.483 77.5471 123.523 77.7071 123.573C78.4471 123.833 79.3671 123.283 79.5371 122.533C79.7271 121.703 79.2871 120.983 78.4971 120.703L78.4671 120.733Z" fill="black"/>
<path d="M76.9171 116.853C87.0171 112.393 93.3271 102.853 97.1471 92.8533C100.767 83.3933 102.397 73.2733 103.407 63.2333C103.757 59.7733 103.917 56.2833 104.367 52.8433L101.447 53.2434C102.437 57.0934 104.017 60.7733 105.617 64.4033C107.557 68.7933 109.617 73.1434 111.497 77.5634C115.747 87.5334 119.137 98.0633 119.457 108.983C119.667 116.043 118.527 123.003 116.187 129.663C115.547 131.473 118.427 132.253 119.057 130.453C123.137 118.853 123.297 106.523 120.467 94.6234C118.027 84.3934 113.577 74.8534 109.277 65.3134C107.387 61.1334 105.467 56.9133 104.327 52.4533C103.877 50.6933 101.607 51.3033 101.407 52.8533C101.037 55.6933 100.887 58.5633 100.617 61.4133C100.217 65.7533 99.6971 70.0734 98.9571 74.3734C97.2071 84.5234 94.3371 94.9433 88.3371 103.473C85.0371 108.163 80.6771 111.973 75.4171 114.303C73.6671 115.073 75.1771 117.643 76.9171 116.873V116.853Z" fill="black"/>
<path d="M59.0771 54.7332C83.2671 32.3032 101.727 52.1832 101.727 52.1832C97.4671 55.0632 84.7971 74.8032 59.0771 54.7332Z" fill="#4C8E13"/>
<path d="M60.1371 55.7832C66.7171 49.7232 75.0071 44.9533 84.2271 45.6033C89.4171 45.9733 94.4171 48.1232 98.5071 51.2832C98.3071 51.1332 98.7671 51.4933 98.8371 51.5533C98.9871 51.6833 99.1471 51.8033 99.2971 51.9333C99.5571 52.1533 99.807 52.3733 100.057 52.6033C100.277 52.8033 100.487 53.0132 100.697 53.2232L100.997 50.8832C99.677 51.7932 98.5671 53.0133 97.4071 54.1133C95.7871 55.6533 94.0971 57.1233 92.2371 58.3633C87.0371 61.8133 80.9771 62.9533 74.8971 61.4233C69.4671 60.0633 64.5471 57.0633 60.1571 53.6633C58.6571 52.5033 56.537 54.5932 58.057 55.7632C65.187 61.2932 73.9471 66.1033 83.2871 64.9133C89.1571 64.1633 94.1871 61.1033 98.4871 57.1833C99.3071 56.4333 100.107 55.6532 100.907 54.8832C101.227 54.5732 101.557 54.2632 101.887 53.9632C102.027 53.8332 102.177 53.7132 102.317 53.5932C102.627 53.3332 102.107 53.7232 102.507 53.4532C103.307 52.9032 103.497 51.8533 102.807 51.1133C100.537 48.6733 97.487 46.7432 94.497 45.3332C87.897 42.2332 80.4671 41.7132 73.5271 44.0132C67.6771 45.9432 62.557 49.5233 58.057 53.6633C56.647 54.9633 58.7571 57.0632 60.1571 55.7632L60.1371 55.7832Z" fill="black"/>
<path d="M67.7771 78.2732C75.0971 46.1032 101.567 52.1133 101.567 52.1133C99.6671 56.8933 100.337 80.3432 67.7771 78.2732Z" fill="#4C8E13"/>
<path d="M69.2171 78.6633C71.2171 70.0033 75.2971 61.3333 83.2171 56.6633C87.8271 53.9433 92.9971 52.9232 98.2071 53.2032C98.6871 53.2332 99.1571 53.2633 99.6271 53.3133C99.7971 53.3333 99.9671 53.3533 100.127 53.3733C100.477 53.4133 99.7871 53.3132 100.297 53.3932C100.587 53.4432 100.877 53.4833 101.167 53.5433L100.127 51.7133C99.5771 53.1333 99.3871 54.7033 99.0671 56.1833C98.5771 58.4633 97.9671 60.7332 97.0771 62.8932C94.7771 68.4632 90.2471 72.8833 84.4171 74.9633C79.0971 76.8633 73.3671 77.1133 67.7771 76.7733C65.8671 76.6532 65.8671 79.6332 67.7771 79.7532C76.8171 80.3032 86.7371 79.1633 93.7371 72.8533C98.0371 68.9733 100.417 63.5833 101.707 58.0333C102.127 56.2133 102.317 54.2532 102.997 52.5032C103.277 51.7732 102.687 50.8333 101.957 50.6733C98.6371 49.9233 95.0471 50.0533 91.7171 50.5633C84.4771 51.6633 78.0671 55.5533 73.6171 61.3533C69.9171 66.1833 67.6971 71.9833 66.3371 77.8633C65.9071 79.7233 68.7771 80.5233 69.2071 78.6533L69.2171 78.6633Z" fill="black"/>
<path d="M187.207 159.323C187.207 159.323 207.617 159.863 210.297 136.233C212.977 112.603 178.907 94.1033 162.917 108.183C146.927 122.273 149.287 134.293 158.447 146.143C167.607 157.983 177.007 159.323 187.207 159.323Z" fill="#CB1124"/>
<path d="M187.207 160.813C193.747 160.973 200.707 157.713 205.007 152.893C209.307 148.073 211.657 141.113 211.917 134.533C212.177 127.953 209.907 122.123 206.187 117.153C199.007 107.553 186.247 100.603 174.037 101.953C171.197 102.263 168.437 103.023 165.897 104.343C162.487 106.113 159.627 108.983 157.127 111.843C152.137 117.523 148.837 124.493 150.037 132.173C151.237 139.853 156.207 146.693 161.507 151.813C167.157 157.263 174.147 160.043 181.907 160.633C183.667 160.763 185.437 160.803 187.207 160.803C189.127 160.803 189.127 157.833 187.207 157.823C180.467 157.823 173.827 157.013 168.057 153.273C164.547 150.993 161.587 147.893 159.097 144.543C157.127 141.893 155.307 139.033 154.127 135.933C151.767 129.713 152.647 123.453 156.217 117.883C158.447 114.403 161.467 111.093 164.747 108.563C166.727 107.033 169.037 105.993 171.447 105.393C182.227 102.713 194.237 108.353 201.507 116.163C205.287 120.223 208.127 125.353 208.797 130.913C209.517 136.913 207.897 143.603 204.547 148.623C202.177 152.173 198.627 154.903 194.697 156.363C193.207 156.913 191.657 157.323 190.097 157.583C189.937 157.613 189.767 157.633 189.607 157.663C189.247 157.713 189.757 157.643 189.487 157.683C189.217 157.723 188.957 157.743 188.687 157.763C188.317 157.793 187.957 157.813 187.587 157.823C187.457 157.823 187.327 157.823 187.187 157.823C185.267 157.773 185.267 160.753 187.187 160.803L187.207 160.813Z" fill="black"/>
<path d="M172.737 144.473C172.467 143.763 172.487 143.303 172.457 142.463C172.427 141.683 172.357 140.903 172.147 140.143C171.767 138.773 171.027 137.493 170.037 136.463C167.917 134.263 164.657 133.443 161.737 134.233C160.987 134.433 160.447 135.303 160.697 136.063C160.947 136.823 161.717 137.323 162.527 137.103C163.547 136.833 164.527 136.833 165.597 137.143C165.737 137.183 165.877 137.233 166.017 137.283C166.087 137.303 166.157 137.333 166.227 137.363C166.097 137.313 166.117 137.313 166.277 137.393C166.537 137.523 166.797 137.663 167.047 137.823C167.167 137.903 167.287 137.983 167.397 138.063C167.197 137.913 167.497 138.153 167.537 138.183C167.747 138.373 167.947 138.563 168.137 138.783C168.137 138.783 168.427 139.133 168.257 138.913C168.347 139.023 168.427 139.143 168.497 139.253C168.657 139.483 168.797 139.733 168.927 139.983C168.987 140.103 169.057 140.233 169.107 140.363C168.997 140.093 169.157 140.513 169.157 140.533C169.247 140.803 169.327 141.073 169.377 141.343C169.407 141.483 169.437 141.623 169.447 141.753C169.407 141.433 169.447 141.893 169.447 141.963C169.467 142.293 169.477 142.623 169.487 142.943C169.517 143.723 169.587 144.513 169.857 145.243C170.127 145.973 170.877 146.543 171.687 146.283C172.397 146.053 173.017 145.233 172.727 144.453L172.737 144.473Z" fill="black"/>
<path d="M152.997 128.163C152.997 128.163 172.077 120.913 165.587 98.0332C159.097 75.1532 120.547 70.9732 111.107 90.0832C101.667 109.193 108.417 119.413 121.387 126.893C134.357 134.373 143.557 132.043 152.997 128.173V128.163Z" fill="#CB1124"/>
<path d="M153.397 129.593C160.387 126.923 165.987 120.313 167.727 113.103C169.337 106.413 168.237 98.6432 164.987 92.5932C162.187 87.3832 157.537 83.3232 152.287 80.6832C142.067 75.5332 128.497 74.6032 118.347 80.4632C116.007 81.8132 113.867 83.5632 112.177 85.6832C109.857 88.5732 108.387 92.0932 107.167 95.5632C104.807 102.273 104.237 109.723 107.707 116.163C111.117 122.473 117.657 126.963 124.007 129.943C128.037 131.833 132.337 133.093 136.797 133.263C140.607 133.413 144.417 132.723 148.037 131.573C149.847 131.003 151.627 130.323 153.387 129.603C155.147 128.883 154.367 126.003 152.597 126.733C145.777 129.523 138.757 131.343 131.427 129.503C127.227 128.443 123.317 126.463 119.697 124.113C117.147 122.453 114.747 120.543 112.747 118.233C108.727 113.593 107.467 107.633 108.587 101.653C109.327 97.6832 110.787 93.7332 112.717 90.1932C113.877 88.0632 115.467 86.2032 117.367 84.6932C125.607 78.1532 137.987 78.3132 147.437 81.7932C152.407 83.6232 157.087 86.6832 160.357 90.9032C164.157 95.8132 165.767 102.403 165.407 108.543C164.937 116.693 159.817 123.233 152.727 126.663C152.237 126.903 153.007 126.563 152.607 126.713C150.837 127.393 151.607 130.273 153.397 129.583V129.593Z" fill="black"/>
<path d="M133.577 116.763C133.137 116.533 132.937 116.323 132.517 115.903C132.067 115.443 131.597 115.023 131.057 114.663C129.997 113.963 128.717 113.603 127.457 113.553C124.987 113.463 122.667 114.823 121.357 116.883C120.927 117.563 121.217 118.523 121.887 118.923C122.607 119.343 123.487 119.073 123.927 118.393C123.977 118.303 124.037 118.223 124.097 118.133C124.357 117.743 124.017 118.213 124.197 118.013C124.327 117.863 124.467 117.713 124.617 117.573C124.707 117.483 124.807 117.403 124.907 117.323C124.787 117.413 124.927 117.313 124.977 117.283C125.167 117.163 125.367 117.033 125.567 116.933C125.587 116.923 125.837 116.803 125.737 116.843C125.637 116.893 125.987 116.753 125.987 116.753C126.177 116.693 126.377 116.643 126.577 116.593C126.637 116.573 126.807 116.543 126.647 116.573C126.777 116.553 126.917 116.543 127.057 116.543C127.297 116.543 127.547 116.543 127.787 116.563C127.627 116.543 127.827 116.563 127.877 116.583C127.987 116.603 128.087 116.623 128.197 116.653C128.377 116.693 128.717 116.803 128.797 116.833C128.877 116.863 129.197 117.033 129.347 117.123C129.437 117.183 129.527 117.243 129.627 117.303C129.647 117.313 129.827 117.453 129.717 117.363C130.537 118.003 131.127 118.863 132.077 119.353C132.797 119.723 133.687 119.543 134.117 118.823C134.507 118.163 134.297 117.153 133.587 116.783L133.577 116.763Z" fill="black"/>
<path d="M125.327 121.653C128.977 131.633 126.477 142.293 121.977 151.553C117.737 160.273 111.867 168.113 105.597 175.473C103.457 177.983 101.177 180.403 99.1271 182.983C98.1271 184.233 99.3571 186.213 100.927 185.323C104.367 183.363 108.097 181.963 111.807 180.613C116.427 178.933 121.077 177.353 125.657 175.573C136.097 171.523 146.237 166.423 154.517 158.753C159.747 153.913 164.047 148.133 167.237 141.763C168.097 140.053 165.527 138.543 164.667 140.263C159.257 151.073 150.657 159.483 140.247 165.493C131.327 170.643 121.587 173.923 111.937 177.403C107.677 178.933 103.357 180.503 99.4171 182.743L101.217 185.083C103.057 182.773 105.077 180.613 106.997 178.383C110.037 174.853 112.967 171.233 115.707 167.463C121.927 158.913 127.547 149.253 129.437 138.723C130.507 132.753 130.277 126.593 128.177 120.863C127.527 119.083 124.647 119.853 125.307 121.653H125.327Z" fill="black"/>
<path d="M71.1171 151.203C71.7671 184.183 98.8971 183.663 98.8971 183.663C98.0071 178.593 103.417 155.763 71.1171 151.203Z" fill="#4C8E13"/>
<path d="M69.6271 151.203C69.8471 160.773 72.3671 170.763 79.6171 177.473C83.8671 181.413 89.3671 183.933 95.0871 184.803C96.3371 184.993 97.6271 185.173 98.8971 185.153C99.9371 185.133 100.497 184.223 100.337 183.273C100.277 182.933 100.357 183.663 100.327 183.173C100.327 183.013 100.307 182.843 100.297 182.683C100.277 182.293 100.277 181.913 100.267 181.523C100.267 180.573 100.267 179.613 100.267 178.663C100.227 176.093 100.027 173.523 99.4971 171.003C98.0671 164.293 93.9871 158.693 88.1171 155.153C83.0971 152.123 77.2871 150.603 71.5271 149.773C69.6571 149.503 68.8471 152.373 70.7371 152.643C79.0071 153.833 88.2271 156.553 93.2471 163.783C96.2971 168.183 97.1971 173.243 97.2971 178.393C97.3271 180.273 97.1771 182.203 97.4871 184.073L98.9271 182.193C98.0671 182.213 97.1971 182.113 96.3371 182.013C95.9071 181.953 96.2471 182.003 96.3371 182.013C96.2271 182.003 96.1271 181.983 96.0171 181.963C95.7971 181.923 95.5671 181.893 95.3471 181.853C94.8071 181.763 94.2671 181.653 93.7271 181.523C92.5671 181.253 91.4271 180.923 90.3171 180.523C84.2271 178.333 79.1271 173.773 76.1971 167.833C73.6671 162.693 72.7771 156.893 72.6471 151.213C72.6071 149.303 69.6271 149.293 69.6671 151.213L69.6271 151.203Z" fill="black"/>
<path d="M94.0971 141.123C76.0371 168.733 98.7371 183.593 98.7371 183.593C100.857 178.903 118.197 163.103 94.0971 141.123Z" fill="#4C8E13"/>
<path d="M92.8171 140.373C87.5971 148.413 84.1371 158.043 86.3271 167.673C87.6071 173.323 90.7871 178.503 95.0071 182.453C95.9371 183.323 96.927 184.183 97.997 184.883C98.627 185.293 99.7071 185.053 100.037 184.353C100.707 182.893 101.777 181.603 102.667 180.273C104.087 178.133 105.357 175.903 106.337 173.533C108.987 167.113 108.737 160.213 105.877 153.903C103.447 148.553 99.4571 144.013 95.1671 140.073C93.7571 138.783 91.6471 140.883 93.0671 142.173C99.2271 147.833 105.187 155.213 105.287 163.993C105.347 169.243 103.207 174.033 100.377 178.343C99.4171 179.813 98.2171 181.233 97.4771 182.843L99.5171 182.313C99.3171 182.183 99.1171 182.033 98.9271 181.893C98.6371 181.683 99.1671 182.083 98.9071 181.873C98.8071 181.793 98.6971 181.713 98.5971 181.623C98.2871 181.373 97.9871 181.123 97.6971 180.853C96.1171 179.453 94.6571 177.863 93.4471 176.163C89.6271 170.813 87.9571 164.303 88.9071 157.773C89.7371 152.023 92.2871 146.703 95.4171 141.873C96.4671 140.263 93.8871 138.763 92.8471 140.373H92.8171Z" fill="black"/>
<path d="M233.627 157.993C233.627 157.993 248.647 144.173 234.127 125.343C219.607 106.513 182.257 116.953 180.587 138.193C178.917 159.433 188.987 166.423 203.807 168.553C218.627 170.683 226.307 165.103 233.627 157.993Z" fill="#CB1124"/>
<path d="M234.677 159.043C237.057 156.833 238.867 153.813 240.097 150.843C242.797 144.373 242.317 137.293 239.367 130.983C236.417 124.673 231.337 119.183 224.657 116.403C219.147 114.113 212.977 113.583 207.087 114.353C195.907 115.813 183.577 122.203 179.957 133.613C178.927 136.853 178.837 140.373 178.927 143.733C179.017 147.093 179.467 150.823 180.647 154.143C182.557 159.553 186.337 163.893 191.467 166.483C197.497 169.513 204.897 170.763 211.587 170.433C218.937 170.073 225.367 167.113 230.947 162.423C232.237 161.343 233.467 160.193 234.667 159.023C236.047 157.693 233.937 155.583 232.567 156.923C228.017 161.323 223.017 165.233 216.737 166.733C210.167 168.313 202.837 167.463 196.467 165.343C191.787 163.793 187.587 161.013 185.067 156.693C181.817 151.123 181.467 144.073 182.107 137.803C183.187 127.193 193.707 120.443 203.197 118.083C213.747 115.453 226.217 117.353 233.137 126.453C237.527 132.233 240.187 139.453 238.357 146.683C237.437 150.353 235.497 153.853 233.027 156.443C232.877 156.603 232.727 156.763 232.567 156.903C231.157 158.203 233.267 160.303 234.667 159.003L234.677 159.043Z" fill="black"/>
<path d="M187.377 159.433C187.377 159.433 196.027 140.943 175.437 129.033C154.847 117.123 124.267 140.973 130.787 161.253C137.307 181.543 149.277 184.183 163.797 180.523C178.317 176.863 183.297 168.783 187.377 159.433Z" fill="#CB1124"/>
<path d="M188.667 160.183C192.017 152.973 191.147 143.803 186.767 137.263C182.777 131.313 176.097 126.513 169.067 124.983C162.497 123.553 155.707 124.743 149.627 127.443C138.527 132.363 127.597 143.823 128.457 156.783C128.697 160.443 130.017 163.913 131.477 167.243C132.937 170.573 134.767 173.663 137.197 176.333C141.227 180.753 146.717 183.123 152.657 183.383C159.517 183.693 166.967 181.823 173.027 178.693C179.077 175.573 183.517 170.523 186.617 164.533C187.357 163.113 188.017 161.653 188.657 160.193C189.417 158.453 186.857 156.943 186.087 158.693C183.707 164.143 180.827 169.403 176.107 173.193C170.887 177.383 163.897 179.543 157.297 180.253C152.117 180.803 146.877 180.163 142.517 177.123C137.107 173.363 133.987 166.743 132.127 160.613C128.647 149.133 137.527 137.883 146.817 132.263C151.977 129.143 157.957 127.183 164.027 127.363C170.727 127.563 176.907 130.823 181.547 135.563C187.657 141.813 189.077 150.583 186.127 158.563C185.937 159.093 186.247 158.323 186.077 158.693C185.277 160.423 187.837 161.933 188.647 160.193L188.667 160.183Z" fill="black"/>
<path d="M165.457 164.783C165.377 164.813 165.287 164.833 165.197 164.853C165.047 164.883 165.027 164.883 165.137 164.873C165.247 164.863 165.227 164.873 165.067 164.873C164.977 164.873 164.887 164.883 164.797 164.883C164.527 164.883 164.257 164.883 163.987 164.883C163.347 164.873 162.717 164.913 162.097 165.043C160.917 165.293 159.827 165.893 158.917 166.683C157.027 168.333 156.307 170.983 156.817 173.403C156.977 174.163 157.917 174.683 158.647 174.443C159.457 174.183 159.857 173.433 159.687 172.613C159.667 172.503 159.617 172.363 159.617 172.253C159.617 172.613 159.617 172.233 159.617 172.163C159.607 171.943 159.607 171.713 159.617 171.493C159.617 171.443 159.677 171.053 159.637 171.263C159.597 171.473 159.667 171.143 159.677 171.103C159.727 170.863 159.787 170.633 159.877 170.403C159.897 170.343 160.057 170.003 159.907 170.303C159.957 170.193 160.007 170.083 160.067 169.973C160.177 169.773 160.307 169.593 160.417 169.403C160.507 169.253 160.257 169.573 160.437 169.373C160.517 169.283 160.597 169.193 160.677 169.113C160.837 168.943 161.017 168.783 161.197 168.633C160.997 168.793 161.167 168.653 161.277 168.583C161.357 168.533 161.447 168.473 161.527 168.423C161.717 168.313 161.907 168.213 162.107 168.123C161.787 168.273 162.107 168.123 162.197 168.093C162.307 168.053 162.427 168.023 162.537 167.983C162.647 167.943 162.767 167.923 162.887 167.903C162.977 167.883 163.327 167.793 162.957 167.883C163.407 167.773 163.937 167.853 164.397 167.863C165.017 167.863 165.657 167.833 166.247 167.643C166.987 167.413 167.537 166.593 167.287 165.813C167.037 165.033 166.257 164.523 165.457 164.773V164.783Z" fill="black"/>
<path d="M205.637 161.133C207.557 161.133 207.557 158.153 205.637 158.153C203.717 158.153 203.717 161.133 205.637 161.133Z" fill="black"/>
<path d="M163.737 174.233C165.657 174.233 165.657 171.253 163.737 171.253C161.817 171.253 161.817 174.233 163.737 174.233Z" fill="black"/>
<path d="M211.097 142.183C211.097 142.183 199.287 158.833 217.427 174.223C235.557 189.613 269.907 171.603 267.107 150.473C264.307 129.353 252.997 124.613 238.067 125.633C223.127 126.643 216.787 133.703 211.107 142.183H211.097Z" fill="#CB1124"/>
<path d="M209.817 141.433C208.087 143.893 206.977 146.993 206.367 149.903C205.017 156.423 206.437 163.073 210.217 168.553C214.407 174.613 220.507 179.323 227.797 180.833C234.017 182.123 240.567 181.363 246.497 179.193C257.507 175.173 268.817 165.483 268.757 152.813C268.737 149.173 267.887 145.383 266.817 141.923C265.847 138.813 264.507 135.753 262.557 133.123C259.217 128.613 254.397 125.753 248.907 124.673C242.237 123.353 234.727 123.813 228.277 125.903C221.827 127.993 216.627 132.243 212.517 137.623C211.577 138.853 210.687 140.133 209.817 141.413C208.747 143.003 211.327 144.503 212.387 142.913C215.667 138.033 219.417 133.463 224.667 130.633C230.527 127.473 237.577 126.653 244.147 127.043C249.037 127.333 253.987 128.713 257.667 132.093C262.207 136.253 264.217 142.383 265.267 148.293C265.767 151.113 265.987 153.903 265.347 156.723C264.767 159.273 263.677 161.653 262.237 163.823C259.127 168.533 254.497 172.153 249.487 174.663C244.477 177.173 238.467 178.693 232.657 178.433C226.387 178.153 220.877 175.633 216.407 171.263C211.557 166.503 208.387 160.313 208.847 153.403C209.087 149.843 210.207 146.373 212.047 143.393C212.147 143.223 212.257 143.063 212.367 142.903C213.477 141.333 210.897 139.843 209.797 141.403L209.817 141.433Z" fill="black"/>
<path d="M231.567 138.453C232.217 138.613 232.747 138.963 233.307 139.313C233.977 139.733 234.667 140.083 235.407 140.343C236.877 140.853 238.497 140.893 239.997 140.563C242.897 139.933 245.187 137.673 246.137 134.913C246.397 134.153 245.837 133.283 245.097 133.083C244.277 132.863 243.527 133.363 243.267 134.123C242.617 136.013 240.887 137.473 238.897 137.763C237.857 137.913 236.737 137.763 235.787 137.303C234.617 136.743 233.647 135.893 232.357 135.583C230.497 135.133 229.707 138.003 231.567 138.453Z" fill="black"/>
<path d="M256.027 131.113C256.027 131.113 251.427 151.003 274.047 158.353C296.667 165.703 321.597 136.003 310.987 117.523C300.377 99.0433 288.117 98.9632 274.687 105.573C261.257 112.183 258.067 121.123 256.027 131.123V131.113Z" fill="#CB1124"/>
<path d="M254.597 130.723C253.047 137.493 255.077 145.183 259.337 150.543C263.597 155.903 270.297 159.443 276.877 160.593C283.487 161.743 290.187 160.173 295.977 156.903C306.737 150.833 316.137 138.123 314.907 125.253C314.617 122.183 313.707 119.253 312.167 116.573C310.017 112.853 307.457 109.243 304.287 106.323C299.477 101.893 293.327 99.5133 286.757 100.223C279.567 101.003 272.307 104.403 266.657 108.823C261.007 113.243 257.597 119.153 255.737 125.913C255.297 127.503 254.937 129.113 254.607 130.723C254.227 132.593 257.087 133.393 257.477 131.513C258.707 125.533 260.487 119.583 264.567 114.883C269.157 109.593 275.877 105.953 282.567 104.063C288.017 102.523 293.677 102.723 298.607 105.713C301.597 107.533 304.107 110.103 306.207 112.893C308.307 115.683 310.337 118.673 311.307 122.003C314.597 133.323 306.867 145.583 298.017 152.063C293.237 155.563 287.517 157.973 281.527 158.023C275.247 158.073 268.607 155.353 263.967 151.143C260.517 148.003 258.297 143.893 257.477 139.313C257.217 137.843 257.107 136.183 257.157 134.583C257.177 133.973 257.217 133.373 257.277 132.763C257.287 132.653 257.307 132.543 257.317 132.433C257.357 132.033 257.287 132.613 257.317 132.413C257.347 132.243 257.367 132.073 257.397 131.903C257.417 131.773 257.447 131.643 257.477 131.513C257.907 129.653 255.037 128.853 254.607 130.723H254.597Z" fill="black"/>
<path d="M276.407 121.273C276.487 121.233 276.777 121.103 276.537 121.193C276.667 121.143 276.787 121.103 276.917 121.073C277.197 120.993 277.487 120.943 277.777 120.893C278.327 120.783 278.847 120.643 279.367 120.423C280.397 119.983 281.347 119.313 282.047 118.443C283.777 116.293 284.057 113.513 282.947 111.013C282.627 110.303 281.537 110.073 280.907 110.483C280.167 110.963 280.037 111.753 280.377 112.523C280.257 112.253 280.427 112.663 280.427 112.683C280.467 112.793 280.497 112.903 280.527 113.013C280.557 113.123 280.577 113.243 280.607 113.353C280.707 113.773 280.607 113.083 280.637 113.513C280.657 113.743 280.667 113.973 280.657 114.213C280.657 114.353 280.637 114.493 280.627 114.633C280.647 114.413 280.627 114.603 280.607 114.723C280.557 114.973 280.487 115.213 280.407 115.463C280.327 115.713 280.447 115.413 280.377 115.563C280.327 115.653 280.287 115.753 280.237 115.843C280.127 116.043 279.997 116.223 279.887 116.413C279.797 116.563 280.047 116.243 279.857 116.453C279.777 116.543 279.697 116.633 279.617 116.723C279.477 116.873 279.327 117.003 279.177 117.143C278.887 117.403 279.417 116.993 279.097 117.213C279.017 117.273 278.927 117.323 278.847 117.383C278.657 117.503 278.457 117.603 278.257 117.703C278.007 117.833 278.387 117.663 278.217 117.723C278.117 117.753 278.027 117.793 277.927 117.823C276.897 118.143 275.857 118.183 274.887 118.733C274.207 119.113 273.927 120.103 274.357 120.773C274.787 121.443 275.667 121.713 276.397 121.303L276.407 121.273Z" fill="black"/>
<path d="M276.767 111.733C266.537 109.243 259.147 101.283 253.977 92.4932C249.027 84.0932 245.777 74.8032 243.137 65.4532C242.227 62.2232 241.477 58.9432 240.457 55.7432C239.937 54.1032 237.657 54.4732 237.537 56.1432C237.247 60.1132 236.297 64.0332 235.347 67.8932C234.167 72.6832 232.887 77.4332 231.807 82.2532C229.367 93.2132 228.017 104.493 229.817 115.663C230.947 122.643 233.367 129.343 236.847 135.493C237.787 137.163 240.367 135.663 239.417 133.993C233.417 123.393 231.277 111.483 232.127 99.4032C232.847 89.2032 235.557 79.3532 238.017 69.4732C239.107 65.0932 240.177 60.6632 240.517 56.1432L237.597 56.5432C238.487 59.3532 239.157 62.2332 239.947 65.0832C241.167 69.5032 242.517 73.8832 244.097 78.1932C247.787 88.2232 252.707 98.3432 260.507 105.843C264.847 110.023 270.097 113.193 275.977 114.623C277.837 115.073 278.627 112.203 276.767 111.753V111.733Z" fill="black"/>
<path d="M282.467 50.2633C254.707 32.4433 240.037 55.2733 240.037 55.2733C244.747 57.3533 260.697 74.5633 282.467 50.2633Z" fill="#4C8E13"/>
<path d="M283.217 48.9833C275.087 43.8133 265.367 40.4132 255.717 42.7532C250.127 44.1032 245.017 47.3133 241.137 51.5433C240.277 52.4733 239.437 53.4633 238.747 54.5333C238.347 55.1633 238.567 56.2432 239.277 56.5732C240.737 57.2332 242.037 58.2933 243.377 59.1633C245.527 60.5733 247.767 61.8133 250.147 62.7833C256.577 65.3933 263.497 65.0733 269.767 62.1633C275.097 59.6933 279.597 55.6532 283.507 51.3332C284.787 49.9132 282.687 47.8033 281.407 49.2333C275.797 55.4433 268.477 61.4732 259.697 61.6532C254.447 61.7633 249.637 59.6633 245.297 56.8733C243.817 55.9233 242.387 54.7432 240.777 54.0132L241.307 56.0533C241.437 55.8533 241.577 55.6632 241.717 55.4632C241.787 55.3632 241.867 55.2633 241.937 55.1733C241.727 55.4533 241.877 55.2433 241.997 55.0933C242.237 54.8033 242.467 54.5133 242.717 54.2333C244.087 52.6533 245.657 51.1832 247.327 49.9632C252.687 46.0532 259.207 44.3232 265.807 45.2132C271.537 45.9932 276.867 48.5032 281.697 51.5732C283.317 52.6032 284.817 50.0332 283.197 49.0032L283.217 48.9833Z" fill="black"/>
<path d="M278.057 74.9733C265.177 44.6033 240.187 55.1833 240.187 55.1833C242.897 59.5533 246.367 82.7533 278.057 74.9733Z" fill="#4C8E13"/>
<path d="M279.337 74.2233C275.557 65.4033 269.477 57.2733 260.277 53.7133C254.857 51.6233 248.787 51.4233 243.147 52.7233C242.017 52.9833 240.857 53.2833 239.787 53.7433C238.937 54.1033 238.347 55.0233 238.897 55.9333C239.057 56.1933 239.187 56.4633 239.317 56.7433C239.377 56.8833 239.437 57.0233 239.497 57.1533C239.527 57.2333 239.657 57.5433 239.497 57.1533C239.547 57.2833 239.607 57.4133 239.657 57.5333C240.007 58.4033 240.357 59.2833 240.717 60.1533C241.697 62.5133 242.797 64.8333 244.227 66.9633C248.077 72.7133 253.917 76.5233 260.777 77.6033C266.677 78.5333 272.667 77.7933 278.437 76.3933C280.297 75.9433 279.507 73.0733 277.647 73.5233C269.517 75.4933 260.147 76.2633 252.797 71.4833C248.377 68.6133 245.617 64.1432 243.597 59.3832C243.677 59.5732 243.407 58.9333 243.357 58.7933C243.257 58.5333 243.147 58.2833 243.047 58.0233C242.877 57.5933 242.707 57.1633 242.527 56.7333C242.207 55.9533 241.897 55.1433 241.457 54.4133L240.567 56.6033C243.367 55.4233 246.347 54.9933 249.187 54.8933C255.797 54.6533 262.177 56.9033 267.107 61.3533C271.447 65.2733 274.467 70.3733 276.757 75.7133C277.507 77.4733 280.077 75.9533 279.327 74.2133L279.337 74.2233Z" fill="black"/>
<path d="M230.607 127.043C230.607 127.043 251.007 126.203 252.087 102.443C253.167 78.6832 217.927 62.5232 202.917 77.6532C187.907 92.7832 191.087 104.623 201.017 115.823C210.947 127.023 220.417 127.723 230.597 127.043H230.607Z" fill="#CB1124"/>
<path d="M230.607 128.533C237.217 128.243 243.917 124.553 247.937 119.403C252.027 114.153 253.827 107.113 253.587 100.513C253.357 94.3431 250.777 88.5931 246.867 83.8831C239.287 74.7531 226.347 68.9132 214.437 70.5632C211.647 70.9532 208.927 71.7831 206.447 73.1431C203.297 74.8731 200.807 77.5131 198.537 80.2531C193.597 86.2131 190.097 93.4632 191.457 101.353C192.727 108.733 197.967 115.443 203.387 120.333C206.557 123.193 210.157 125.513 214.197 126.943C217.697 128.183 221.427 128.653 225.127 128.703C226.957 128.723 228.777 128.643 230.597 128.523C232.417 128.403 232.517 125.423 230.597 125.543C223.537 126.013 216.567 125.593 210.357 121.873C206.667 119.663 203.557 116.623 200.827 113.323C198.727 110.793 196.817 107.993 195.577 104.933C193.027 98.6732 194.117 92.2531 197.607 86.5831C200.967 81.1131 205.607 75.8731 211.967 74.0931C222.397 71.1831 234.347 75.8231 241.967 83.0231C245.977 86.8031 249.057 91.5831 250.187 97.0331C251.397 102.873 250.277 109.693 247.377 114.893C245.217 118.763 241.887 121.743 237.877 123.603C236.567 124.213 234.997 124.733 233.477 125.093C232.917 125.223 232.357 125.333 231.787 125.433C231.667 125.453 231.557 125.473 231.437 125.483C231.167 125.523 231.827 125.443 231.487 125.483C231.327 125.503 231.167 125.523 231.007 125.533C230.877 125.543 230.747 125.553 230.617 125.563C228.707 125.643 228.697 128.623 230.617 128.543L230.607 128.533Z" fill="black"/>
<path d="M215.047 112.943C214.827 112.463 214.807 111.823 214.747 111.193C214.667 110.443 214.557 109.693 214.297 108.973C213.817 107.643 213.057 106.413 212.007 105.463C209.757 103.423 206.487 102.713 203.597 103.703C202.837 103.963 202.337 104.723 202.557 105.533C202.757 106.273 203.627 106.833 204.387 106.573C204.687 106.473 204.997 106.383 205.307 106.323C205.307 106.323 205.777 106.253 205.537 106.283C205.697 106.263 205.857 106.253 206.017 106.253C206.307 106.243 206.597 106.253 206.887 106.273C206.967 106.273 207.047 106.283 207.127 106.293C207.017 106.283 207.017 106.283 207.127 106.293C207.257 106.313 207.387 106.343 207.517 106.373C208.197 106.533 208.547 106.673 209.077 106.983C209.207 107.053 209.327 107.133 209.447 107.223C209.477 107.243 209.767 107.453 209.657 107.363C209.577 107.303 209.857 107.533 209.897 107.573C210.007 107.673 210.117 107.773 210.217 107.883C210.307 107.973 210.387 108.063 210.467 108.153C210.487 108.173 210.747 108.503 210.607 108.313C210.787 108.553 210.947 108.803 211.087 109.053C211.157 109.183 211.227 109.313 211.297 109.443C211.437 109.703 211.267 109.323 211.377 109.633C211.467 109.883 211.557 110.143 211.627 110.403C211.777 111.003 211.787 111.393 211.867 112.053C211.967 112.913 212.127 113.663 212.487 114.443C212.817 115.173 213.877 115.353 214.527 114.973C215.277 114.533 215.397 113.673 215.057 112.933L215.047 112.943Z" fill="black"/>
<path d="M194.387 98.2532C194.387 98.2532 212.937 89.7332 204.917 67.3432C196.897 44.9532 158.157 43.3832 150.017 63.0832C141.887 82.7832 149.317 92.5332 162.757 99.1132C176.197 105.703 185.227 102.753 194.387 98.2532Z" fill="#CB1124"/>
<path d="M195.137 99.5431C202.207 96.2731 207.247 88.7231 208.217 81.1431C209.087 74.3331 207.257 66.6232 203.297 60.9932C199.837 56.0732 194.817 52.6031 189.247 50.4431C178.697 46.3531 164.937 46.7031 155.637 53.6931C150.157 57.8131 147.537 63.9531 146.037 70.5131C144.537 77.0731 144.847 84.2032 148.787 89.9232C152.727 95.6432 159.247 99.4631 165.637 102.003C169.807 103.663 174.307 104.613 178.817 104.423C182.637 104.263 186.357 103.313 189.887 101.893C191.667 101.183 193.417 100.383 195.137 99.5331C196.857 98.6831 195.347 96.1231 193.637 96.9631C187.037 100.193 180.087 102.423 172.677 100.983C168.487 100.173 164.517 98.4831 160.807 96.3931C158.207 94.9331 155.737 93.2432 153.637 91.1232C149.477 86.9232 147.747 81.4631 148.217 75.6031C148.537 71.6331 149.737 67.7531 151.207 64.0731C152.137 61.7531 153.487 59.6731 155.257 57.9131C162.707 50.5031 175.047 49.4931 184.737 52.0931C189.937 53.4831 194.887 56.0431 198.627 59.9631C202.917 64.4431 205.147 70.7331 205.417 76.8831C205.777 85.3831 201.157 92.7532 194.067 96.7432C193.927 96.8232 193.777 96.8931 193.637 96.9631C191.897 97.7631 193.407 100.333 195.137 99.5331V99.5431Z" fill="black"/>
<path d="M174.327 88.2432C173.777 88.0132 173.617 87.8431 173.197 87.4731C172.717 87.0531 172.227 86.6332 171.667 86.3132C170.567 85.6932 169.277 85.3631 168.017 85.3931C165.567 85.4631 163.277 86.8831 162.107 89.0431C161.727 89.7531 161.937 90.6631 162.637 91.0831C163.337 91.5031 164.287 91.2531 164.677 90.5531C165.067 89.8531 165.517 89.3431 166.177 88.9531C166.867 88.5331 167.517 88.3631 168.347 88.3831C168.457 88.3831 168.567 88.3931 168.677 88.4031C168.727 88.4031 168.927 88.4431 168.767 88.4131C169.007 88.4531 169.247 88.5131 169.477 88.5931C169.727 88.6731 169.827 88.7131 169.957 88.7831C170.147 88.8931 170.337 88.9931 170.517 89.1131C170.657 89.2031 170.707 89.2532 170.917 89.4332C171.097 89.5932 171.277 89.7531 171.457 89.9131C171.877 90.2631 172.317 90.6131 172.827 90.8231C173.567 91.1431 174.427 91.0431 174.867 90.2931C175.237 89.6631 175.077 88.5731 174.337 88.2531L174.327 88.2432Z" fill="black"/>
<path d="M166.457 93.8932C170.767 103.573 168.747 114.483 164.907 123.963C161.267 132.933 155.867 141.143 150.117 148.893C148.147 151.543 146.047 154.113 144.167 156.823C143.327 158.043 144.987 159.663 146.207 158.863C149.547 156.643 153.237 154.973 156.887 153.353C161.377 151.363 165.917 149.473 170.367 147.403C180.537 142.653 190.387 136.833 198.107 128.563C203.007 123.313 206.847 117.253 209.617 110.633C209.927 109.883 209.277 109.003 208.577 108.803C207.727 108.553 207.057 109.103 206.747 109.843C202.117 120.903 193.997 129.853 184.097 136.463C175.557 142.163 166.097 146.103 156.727 150.203C152.617 152.003 148.447 153.823 144.697 156.313L146.737 158.353C148.417 155.933 150.287 153.633 152.047 151.273C154.827 147.563 157.497 143.773 159.957 139.853C165.607 130.833 170.457 120.813 171.637 110.123C172.307 104.073 171.507 98.0032 169.027 92.4332C168.247 90.6832 165.687 92.2032 166.457 93.9332V93.8932Z" fill="black"/>
<path d="M114.237 126.773C117.107 159.633 144.147 157.283 144.147 157.283C142.917 152.283 146.777 129.143 114.237 126.773Z" fill="#4C8E13"/>
<path d="M112.747 126.773C113.607 136.283 116.717 146.123 124.397 152.323C129.027 156.073 134.717 158.183 140.637 158.703C141.797 158.803 142.987 158.873 144.147 158.773C145.127 158.693 145.817 157.893 145.587 156.893C145.557 156.753 145.527 156.623 145.507 156.483C145.417 156.003 145.527 156.723 145.477 156.323C145.437 155.943 145.397 155.563 145.377 155.183C145.307 154.223 145.247 153.253 145.177 152.293C144.967 149.733 144.617 147.163 143.907 144.683C142.017 138.063 137.587 132.703 131.447 129.563C126.127 126.843 120.167 125.733 114.247 125.283C112.337 125.133 112.347 128.113 114.247 128.263C122.597 128.903 131.837 131.113 137.297 137.993C140.507 142.033 141.757 147.213 142.177 152.013C142.337 153.883 142.287 155.843 142.727 157.673L144.167 155.793C141.007 156.063 138.387 155.583 135.397 154.723C129.147 152.933 123.817 148.843 120.497 143.143C117.607 138.173 116.267 132.443 115.757 126.763C115.587 124.873 112.607 124.853 112.777 126.763L112.747 126.773Z" fill="black"/>
<path d="M136.487 115.163C120.327 143.923 143.977 157.223 143.977 157.223C145.777 152.403 162.017 135.473 136.487 115.163Z" fill="#4C8E13"/>
<path d="M135.207 114.413C130.537 122.803 127.647 132.723 130.527 142.203C132.197 147.713 135.657 152.633 140.107 156.273C141.097 157.083 142.127 157.893 143.237 158.523C144.137 159.033 145.077 158.523 145.427 157.633C145.567 157.263 145.297 157.893 145.477 157.513C145.547 157.363 145.627 157.213 145.707 157.063C145.887 156.713 146.087 156.373 146.287 156.033C146.757 155.223 147.247 154.413 147.707 153.603C148.967 151.393 150.087 149.093 150.897 146.683C153.087 140.163 152.407 133.273 149.157 127.223C146.367 122.043 142.107 117.783 137.557 114.133C136.077 112.943 133.957 115.043 135.457 116.233C141.987 121.463 148.557 128.483 149.197 137.273C149.577 142.533 147.777 147.453 145.227 151.963C144.317 153.573 143.227 155.123 142.567 156.853L144.757 155.963C144.557 155.843 144.357 155.723 144.157 155.593C143.937 155.443 143.707 155.293 143.487 155.143C143.357 155.053 143.227 154.963 143.097 154.863C142.997 154.793 142.507 154.413 142.787 154.643C141.097 153.333 139.547 151.833 138.177 150.193C133.957 145.143 131.947 138.713 132.407 132.163C132.807 126.413 134.997 120.933 137.777 115.943C138.707 114.263 136.137 112.763 135.207 114.443V114.413Z" fill="black"/>
<path d="M16.6971 152.603L20.7071 156.613C42.9571 178.863 73.1371 204.363 104.607 204.363H239.767C271.237 204.363 301.417 178.863 323.667 156.613L329.087 151.193C331.617 148.663 329.817 144.343 326.237 144.363C326.237 144.363 223.297 160.533 169.867 160.533C116.437 160.533 19.5071 145.773 19.5071 145.773C15.9471 145.793 14.1771 150.093 16.6971 152.603Z" fill="#8C4414"/>
<path d="M15.6471 153.663C26.2771 164.293 37.1071 174.703 49.1971 183.703C63.3071 194.203 79.4371 203.203 97.1371 205.393C101.937 205.993 106.767 205.863 111.597 205.863H133.807C144.007 205.863 154.207 205.863 164.407 205.863H238.667C250.757 205.863 262.317 202.623 273.147 197.353C289.467 189.423 303.777 177.673 316.897 165.283C321.247 161.173 325.467 156.923 329.697 152.693C331.617 150.773 332.447 148.123 331.017 145.623C329.957 143.773 327.857 142.683 325.747 142.943C320.997 143.533 316.267 144.383 311.537 145.073C300.847 146.633 290.137 148.113 279.417 149.513C265.457 151.333 251.487 153.023 237.487 154.503C223.487 155.983 209.027 157.323 194.747 158.183C182.267 158.933 169.797 159.243 157.297 158.813C142.897 158.323 128.517 157.213 114.167 155.893C99.6671 154.553 85.1971 152.953 70.7471 151.203C59.2171 149.803 47.6971 148.303 36.1971 146.693C30.8471 145.943 25.4971 145.163 20.1571 144.383C14.8171 143.603 12.3171 150.023 15.6471 153.663C16.9471 155.083 19.0471 152.973 17.7471 151.563C16.4471 150.153 17.1971 147.363 19.2071 147.233C19.6471 147.203 20.1871 147.383 20.6171 147.443C23.0571 147.803 25.5071 148.163 27.9471 148.513C37.5271 149.883 47.1271 151.183 56.7271 152.423C70.1871 154.153 83.6771 155.763 97.1771 157.183C111.617 158.703 126.087 160.033 140.587 160.953C153.167 161.753 165.777 162.243 178.387 161.903C191.607 161.543 204.807 160.573 217.967 159.393C232.137 158.123 246.277 156.583 260.397 154.873C272.827 153.373 285.247 151.753 297.647 150.023C305.667 148.913 313.677 147.753 321.687 146.543C323.187 146.313 324.867 145.813 326.387 145.823C327.717 145.823 328.897 147.203 328.767 148.623C328.677 149.533 328.047 150.113 327.447 150.713L324.877 153.283C313.587 164.573 301.927 175.543 288.757 184.643C274.697 194.363 258.387 202.503 240.957 202.863C237.687 202.933 234.407 202.873 231.137 202.873H105.747C94.0771 202.873 82.9271 199.773 72.4771 194.663C56.4671 186.833 42.4471 175.343 29.5571 163.173C25.5371 159.373 21.6371 155.463 17.7271 151.553C16.3671 150.193 14.2671 152.303 15.6271 153.653L15.6471 153.663Z" fill="black"/>
</svg>
