<svg width="259" height="322" viewBox="0 0 259 322" fill="none" xmlns="http://www.w3.org/2000/svg">
<g clip-path="url(#clip0_912_3919)">
<path d="M187.933 181.539C176.439 181.539 164.945 181.539 153.438 181.539C151.813 181.539 150.187 181.539 148.549 181.539L150.407 183.964C151.258 180.107 152.11 176.25 152.961 172.393C155.025 163.066 157.076 153.753 159.14 144.426C161.617 133.19 164.094 121.967 166.583 110.731C168.738 100.979 170.892 91.2134 173.046 81.461L175.162 71.9021C175.484 70.4444 176.091 68.8061 176.181 67.3097C176.181 67.2452 176.207 67.1678 176.22 67.1033L174.362 68.5094C185.675 68.5094 196.976 68.5094 208.289 68.5094C210.031 68.5094 211.772 68.4836 213.514 68.5094C215.255 68.5352 217.371 70.0058 217.255 71.7473C217.203 72.5729 216.829 73.4759 216.635 74.2757L215.423 79.2422C212.482 91.3166 209.54 103.391 206.599 115.465C203.232 129.32 199.852 143.175 196.486 157.042C195.299 161.918 194.112 166.782 192.925 171.658C192.448 173.593 191.854 175.541 191.506 177.514C191.132 179.643 190.448 181.449 187.92 181.552C185.392 181.655 185.443 185.487 187.92 185.396C190.693 185.28 193.248 183.861 194.499 181.32C194.989 180.34 195.105 179.217 195.247 178.392C195.389 177.566 195.66 176.715 195.853 175.889C196.86 171.748 197.866 167.62 198.872 163.479C202.239 149.638 205.606 135.783 208.986 121.941C212.172 108.848 215.358 95.7542 218.545 82.6478L220.828 73.2695C221.305 71.2958 220.854 69.2963 219.615 67.6451C217.783 65.1941 215.139 64.6652 212.301 64.6652C200.007 64.6652 187.701 64.6652 175.407 64.6652H174.349C173.536 64.6652 172.672 65.2586 172.492 66.0713C171.64 69.9284 170.789 73.7855 169.937 77.6426C167.873 86.9693 165.822 96.2831 163.758 105.61C161.281 116.846 158.805 128.069 156.315 139.305C154.161 149.057 152.006 158.822 149.852 168.575C148.807 173.283 147.633 177.992 146.73 182.739C146.717 182.803 146.704 182.868 146.692 182.945C146.421 184.158 147.246 185.371 148.549 185.371C160.043 185.371 171.537 185.371 183.044 185.371C184.669 185.371 186.295 185.371 187.933 185.371C190.41 185.371 190.41 181.526 187.933 181.526V181.539Z" fill="black"/>
<path d="M72.4262 118.961H111.797L85.997 66.5873H46.6262C43.6205 66.5873 41.1953 69.0254 41.1953 72.0182L66.9953 113.53C66.9953 116.536 69.4334 118.961 72.4262 118.961Z" fill="#D7DEE0"/>
<path d="M72.4262 120.883C83.9201 120.883 95.414 120.883 106.921 120.883C108.546 120.883 110.172 120.883 111.81 120.883C113.345 120.883 114.093 119.271 113.474 117.994C110.571 112.111 107.669 106.216 104.779 100.334C100.148 90.9424 95.5172 81.5383 90.899 72.1471C89.8283 69.967 88.7576 67.7998 87.6869 65.6197C87.3902 65.0263 86.6678 64.6651 86.0228 64.6651C79.5728 64.6651 73.1099 64.6651 66.6599 64.6651C60.2099 64.6651 53.3084 64.42 46.6649 64.6651C43.6076 64.7812 40.9244 66.4969 39.7892 69.3994C39.2345 70.8184 39.1055 72.2116 39.8795 73.5145C41.2082 75.7333 42.6143 77.9134 43.9817 80.1064C48.8321 87.898 53.6696 95.7025 58.52 103.494L64.4282 113.001C64.7378 113.492 65.099 113.982 65.357 114.498C64.7765 113.337 65.1764 114.575 65.2409 114.924C65.3441 115.44 65.486 115.904 65.6924 116.381C66.0665 117.258 66.5825 118.058 67.2533 118.729C68.6465 120.122 70.5041 120.806 72.452 120.883C74.9288 120.987 74.9159 117.142 72.452 117.039C70.9685 116.975 69.6785 116.149 69.1496 114.73C68.8658 113.982 68.9819 113.195 68.6207 112.473C68.3627 111.944 67.9886 111.453 67.679 110.95L62.8802 103.223C58.2491 95.767 53.6051 88.3108 48.974 80.8546L44.0204 72.8953C43.6721 72.3406 43.3625 71.6827 42.9497 71.1667C42.9239 71.1409 42.8981 71.0893 42.8852 71.0635C43.2722 72.1213 43.2593 70.9732 43.4915 70.4959C44.0849 69.2446 45.3104 68.5738 46.6649 68.5093C52.6634 68.2126 58.7393 68.5093 64.7507 68.5093C71.8457 68.5093 78.9407 68.5093 86.0357 68.5093L84.3716 67.5547C87.2741 73.4371 90.1766 79.3324 93.0662 85.2148C97.6973 94.606 102.328 104.01 106.947 113.401C108.017 115.581 109.088 117.749 110.159 119.929L111.823 117.039C100.329 117.039 88.835 117.039 77.3282 117.039C75.7028 117.039 74.0774 117.039 72.4391 117.039C69.9623 117.039 69.9623 120.883 72.4391 120.883H72.4262Z" fill="black"/>
<path d="M177.407 228.082H74.6839L61.7839 45.4442H190.307L177.407 228.082Z" fill="#D7DEE0"/>
<path d="M177.407 226.173H74.6839L76.606 228.095C76.1803 222.032 75.7546 215.956 75.316 209.893C74.284 195.329 73.2649 180.765 72.2329 166.201C70.9945 148.644 69.7561 131.087 68.5177 113.53L65.3056 67.9805L64.2349 52.8746C64.0672 50.5784 64.1962 48.0242 63.7318 45.7538C63.706 45.6506 63.7189 45.5474 63.706 45.4442L61.7839 47.3663H185.031C186.656 47.3663 188.475 47.5985 190.087 47.3663C190.165 47.3663 190.242 47.3663 190.307 47.3663L188.385 45.4442C187.959 51.5072 187.533 57.5831 187.095 63.6461C186.063 78.2102 185.043 92.7743 184.011 107.338C182.773 124.895 181.535 142.452 180.296 160.009L177.084 205.559L176.013 220.665C175.846 223.026 175.549 225.412 175.51 227.786C175.51 227.889 175.497 227.992 175.485 228.095C175.304 230.559 179.148 230.546 179.329 228.095C179.754 222.032 180.18 215.956 180.619 209.893C181.651 195.329 182.67 180.765 183.702 166.201C184.94 148.644 186.179 131.087 187.417 113.53L190.629 67.9805L191.7 52.8746C191.868 50.5139 192.164 48.1274 192.203 45.7538C192.203 45.6506 192.216 45.5474 192.229 45.4442C192.306 44.4122 191.287 43.5221 190.307 43.5221H77.5864C72.4135 43.5221 67.1761 43.3028 62.0032 43.5221C61.9258 43.5221 61.8484 43.5221 61.7839 43.5221C60.8035 43.5221 59.7844 44.3993 59.8618 45.4442C60.2875 51.5072 60.7132 57.5831 61.1518 63.6461C62.1838 78.2102 63.2029 92.7743 64.2349 107.338C65.4733 124.895 66.7117 142.452 67.9501 160.009L71.1622 205.559C71.6911 212.964 72.0781 220.381 72.736 227.786C72.736 227.889 72.7489 227.992 72.7618 228.095C72.8392 229.127 73.5874 230.017 74.6839 230.017H177.407C179.883 230.017 179.883 226.173 177.407 226.173Z" fill="black"/>
<path d="M76.2318 226.109L67.4082 101.108C67.4082 101.108 94.0725 92.4904 120.427 106.074C146.782 119.671 184.747 100.501 184.747 100.501L175.871 226.109H76.2318Z" fill="#FC431A"/>
<path d="M82.7463 293.911H70.2333C68.1387 293.911 66.4407 295.609 66.4407 297.704V300.98C66.4407 303.075 68.1387 304.773 70.2333 304.773H82.7463C84.8409 304.773 86.5389 303.075 86.5389 300.98V297.704C86.5389 295.609 84.8409 293.911 82.7463 293.911Z" fill="black"/>
<path d="M82.7465 302.851C79.8182 302.851 76.8899 302.851 73.9616 302.851C72.749 302.851 71.5235 302.902 70.3238 302.851C68.6468 302.773 68.363 301.509 68.363 300.09C68.363 298.761 67.9502 296.659 69.4595 295.988C70.3238 295.601 71.6783 295.833 72.5942 295.833C75.8837 295.833 79.1732 295.82 82.4756 295.833C83.0948 295.833 83.6366 295.936 84.0881 296.388C84.6815 296.981 84.6428 297.717 84.6428 298.503C84.6428 300.103 85.0814 302.773 82.7594 302.864C80.2955 302.954 80.2826 306.785 82.7594 306.708C86.2295 306.592 88.4741 303.883 88.4741 300.516C88.4741 298.039 88.6934 295.459 86.7068 293.589C85.1072 292.079 83.198 292.002 81.1598 292.002H74.9162C73.3811 292.002 71.846 291.963 70.3109 292.002C67.0988 292.079 64.622 294.517 64.5317 297.729C64.4672 299.845 64.2608 302.322 65.4992 304.154C66.8537 306.153 68.9435 306.695 71.2139 306.695C75.0581 306.695 78.9023 306.695 82.7594 306.695C85.2362 306.695 85.2362 302.851 82.7594 302.851H82.7465Z" fill="black"/>
<path d="M181.857 293.911H169.344C167.249 293.911 165.551 295.609 165.551 297.704V300.98C165.551 303.075 167.249 304.773 169.344 304.773H181.857C183.951 304.773 185.649 303.075 185.649 300.98V297.704C185.649 295.609 183.951 293.911 181.857 293.911Z" fill="black"/>
<path d="M181.857 302.851C178.929 302.851 176 302.851 173.072 302.851C171.859 302.851 170.634 302.902 169.434 302.851C167.757 302.773 167.473 301.509 167.473 300.09C167.473 298.761 167.061 296.659 168.57 295.988C169.434 295.601 170.789 295.833 171.705 295.833C174.994 295.833 178.284 295.82 181.586 295.833C182.205 295.833 182.747 295.936 183.198 296.388C183.792 296.981 183.753 297.717 183.753 298.503C183.753 300.103 184.192 302.773 181.87 302.864C179.406 302.954 179.393 306.785 181.87 306.708C185.34 306.592 187.584 303.883 187.584 300.516C187.584 298.039 187.804 295.459 185.817 293.589C184.218 292.079 182.308 292.002 180.27 292.002H174.027C172.491 292.002 170.956 291.963 169.421 292.002C166.209 292.079 163.732 294.517 163.642 297.729C163.578 299.845 163.371 302.322 164.61 304.154C165.964 306.153 168.054 306.695 170.324 306.695C174.168 306.695 178.013 306.695 181.87 306.695C184.347 306.695 184.347 302.851 181.87 302.851H181.857Z" fill="black"/>
<path d="M192.035 296.762H60.0682C55.9789 296.762 52.9087 293.047 53.6569 289.035L64.093 233.642C64.6735 230.559 67.3696 228.328 70.5043 228.328H181.586C184.721 228.328 187.417 230.559 187.998 233.642L198.434 289.035C199.195 293.047 196.112 296.762 192.022 296.762H192.035Z" fill="#BEBFC1"/>
<path d="M192.035 294.84H70.6849C67.318 294.84 63.964 294.853 60.5971 294.84C57.7978 294.827 55.2565 292.982 55.4629 289.912C55.5532 288.583 55.9402 287.229 56.1853 285.913C59.0749 270.601 61.9516 255.289 64.8412 239.976C65.1895 238.119 65.5249 236.261 65.8861 234.416C66.3892 231.875 68.1565 230.25 70.7881 230.237C74.3098 230.198 77.8315 230.237 81.3532 230.237H179.948C181.16 230.237 182.399 230.134 183.534 230.662C185.856 231.746 186.127 234.068 186.54 236.261L188.101 244.569C190.861 259.223 193.622 273.877 196.382 288.532C196.963 291.602 195.57 294.711 192.009 294.827C189.545 294.904 189.533 298.749 192.009 298.671C197.569 298.478 201.181 293.653 200.227 288.274C199.891 286.403 199.517 284.533 199.169 282.662C197.621 274.484 196.086 266.305 194.538 258.127C193.145 250.761 191.764 243.382 190.371 236.016C189.997 234.042 189.778 231.978 188.655 230.25C186.888 227.541 183.986 226.393 180.877 226.393C168.97 226.393 157.076 226.393 145.169 226.393H74.5162C73.2778 226.393 72.0523 226.393 70.8139 226.393C66.6988 226.431 63.1384 229.024 62.2354 233.126C61.1905 237.912 60.4165 242.763 59.5135 247.574L54.5212 274.058C53.6182 278.87 52.612 283.681 51.7993 288.506C50.8963 293.834 54.7018 298.529 60.1198 298.671C60.9712 298.697 61.8355 298.671 62.6869 298.671H192.022C194.499 298.671 194.499 294.827 192.022 294.827L192.035 294.84Z" fill="black"/>
<path d="M126.052 276.432C133.718 276.432 139.932 270.217 139.932 262.551C139.932 254.885 133.718 248.671 126.052 248.671C118.386 248.671 112.171 254.885 112.171 262.551C112.171 270.217 118.386 276.432 126.052 276.432Z" fill="#D88521"/>
<path d="M141.854 262.551C141.764 255.946 137.713 250.09 131.534 247.729C125.381 245.394 118.067 247.355 113.9 252.438C109.733 257.52 109.037 264.899 112.455 270.627C115.874 276.354 122.53 279.231 129.032 278.057C136.462 276.715 141.751 269.969 141.854 262.538C141.893 260.061 138.049 260.061 138.01 262.538C137.946 267.492 134.888 272.084 130.167 273.774C125.445 275.464 119.95 274.006 116.725 270.059C113.5 266.112 113.229 260.629 115.77 256.385C118.312 252.141 123.343 249.819 128.193 250.748C133.869 251.831 137.933 256.772 138.01 262.525C138.049 264.989 141.88 265.002 141.854 262.525V262.551Z" fill="black"/>
<path d="M134.991 15.1808H117.293C114.906 15.1808 112.971 17.1156 112.971 19.5023V20.4827C112.971 22.8694 114.906 24.8042 117.293 24.8042H134.991C137.378 24.8042 139.313 22.8694 139.313 20.4827V19.5023C139.313 17.1156 137.378 15.1808 134.991 15.1808Z" fill="#939393"/>
<path d="M134.991 22.8821C131.869 22.8821 128.735 22.8821 125.613 22.8821H119.434C118.415 22.8821 117.034 23.0885 116.119 22.5854C114.287 21.5663 114.39 18.1091 116.338 17.2835C117.267 16.8836 118.634 17.1029 119.614 17.1029H132.166C133.276 17.1029 134.94 16.832 135.997 17.3222C138.384 18.4445 137.713 22.7789 134.978 22.895C132.514 22.9982 132.502 26.8295 134.978 26.7392C138.977 26.5715 141.325 23.411 141.222 19.5797C141.119 16.0322 138.448 13.3619 134.901 13.2716C130.67 13.1555 126.413 13.2716 122.182 13.2716C120.582 13.2716 118.957 13.2329 117.357 13.2716C113.809 13.3748 111.139 16.0322 111.036 19.5797C110.933 23.3852 113.281 26.5844 117.28 26.7392C118.608 26.7908 119.937 26.7392 121.266 26.7392C125.845 26.7392 130.412 26.7392 134.991 26.7392C137.468 26.7392 137.468 22.895 134.991 22.895V22.8821Z" fill="black"/>
<path d="M126.142 24.8042C63.1253 24.8042 61.2161 42.89 61.2161 42.89C61.2161 45.0443 62.9705 46.7987 65.1248 46.7987H187.159C189.313 46.7987 191.067 45.0443 191.067 42.89C191.067 42.89 189.158 24.8042 126.142 24.8042Z" fill="#999999"/>
<path d="M126.142 22.8821C115.899 22.8821 105.644 23.3336 95.4915 24.7139C88.9383 25.604 82.3851 26.8811 76.1415 29.0999C70.401 31.1381 63.822 34.1567 60.5196 39.5876C60.0165 40.4132 59.5392 41.3678 59.3715 42.3224C58.8039 45.5216 61.6419 48.4112 64.6992 48.6821C65.1507 48.7208 65.6022 48.7079 66.0408 48.7079H183.586C185.056 48.7079 186.617 48.8498 188.075 48.6176C191.287 48.1016 193.764 44.6702 192.667 41.5226C191.068 36.9689 186.437 33.8213 182.334 31.7315C170.324 25.6169 155.98 24.1463 142.744 23.3465C137.21 23.0111 131.663 22.8821 126.116 22.8692C123.639 22.8692 123.639 26.7005 126.116 26.7134C142.138 26.7263 159.05 27.3068 174.362 32.5442C177.923 33.7697 181.367 35.2661 184.501 37.5236C184.643 37.6268 184.772 37.73 184.914 37.8332C185.198 38.0396 184.656 37.6139 185.03 37.9235C185.288 38.1299 185.546 38.3363 185.791 38.5556C186.217 38.9297 186.63 39.3167 187.017 39.7295C187.352 40.0778 187.662 40.439 187.959 40.8131C187.546 40.2842 188.23 41.213 188.372 41.4323C188.539 41.7032 188.681 41.987 188.836 42.2708C189.21 42.9416 188.81 41.9741 188.952 42.5417C189.016 42.7997 189.107 43.0706 189.171 43.3286C189.236 43.5608 188.991 43.0835 189.107 42.8771C188.849 43.3157 188.952 43.8446 188.526 44.2832C188.101 44.7218 187.585 44.8379 187.017 44.8637C186.514 44.8895 185.985 44.8637 185.482 44.8637H69.8205C68.2983 44.8637 66.7374 44.9669 65.2152 44.8637C64.5831 44.825 64.0026 44.6573 63.5769 44.1413C63.0867 43.535 63.2931 42.374 63.0738 43.3157C63.1383 43.0448 63.2286 42.7868 63.306 42.5288C63.4092 42.1676 63.3447 42.4385 63.2544 42.632C63.3189 42.503 63.3576 42.374 63.435 42.2579C63.5898 41.9741 63.7446 41.6903 63.9123 41.4065C64.0155 41.2517 64.1187 41.0969 64.2219 40.955C64.467 40.5938 64.5057 40.5809 64.3638 40.7486C64.6734 40.3745 64.983 40.0004 65.3184 39.6521C65.7183 39.2393 66.1311 38.8523 66.5697 38.4782C66.8019 38.2718 67.047 38.0783 67.2921 37.8848C67.5759 37.6655 67.047 38.0654 67.3437 37.8461C67.5243 37.7171 67.692 37.5881 67.8726 37.4591C69.2142 36.5045 70.659 35.6789 72.1296 34.9436C76.4769 32.7764 81.4047 31.3316 86.268 30.248C94.1499 28.4807 102.225 27.6293 110.288 27.1649C115.564 26.8553 120.853 26.7392 126.142 26.7392C128.619 26.7392 128.619 22.895 126.142 22.895V22.8821Z" fill="black"/>
<path d="M154.689 152.398H136.139C135.092 152.398 134.243 153.247 134.243 154.294C134.243 155.342 135.092 156.191 136.139 156.191H154.689C155.736 156.191 156.585 155.342 156.585 154.294C156.585 153.247 155.736 152.398 154.689 152.398Z" fill="black"/>
<path d="M154.664 154.294C154.664 154.217 154.612 154.269 154.664 154.269C154.599 154.269 154.522 154.269 154.457 154.269C154.07 154.294 153.67 154.269 153.283 154.269H148.678C145.169 154.269 141.648 154.269 138.139 154.269C137.597 154.269 136.552 154.191 136.191 154.294C136.217 154.294 136.075 154.294 136.152 154.294C136.346 154.294 136.023 154.294 136.204 154.294C136.526 154.294 136.849 154.294 137.171 154.294H147.066C148.91 154.294 150.755 154.294 152.6 154.294C153.154 154.294 153.709 154.307 154.264 154.294C154.38 154.294 154.496 154.294 154.612 154.294C154.664 154.294 154.651 154.333 154.651 154.269C154.844 156.72 158.688 156.732 158.495 154.269C158.327 152.217 156.96 150.592 154.831 150.463C154.535 150.45 154.238 150.463 153.941 150.463H148.988C145.027 150.463 141.08 150.463 137.12 150.463C135.133 150.463 133.147 151.005 132.476 153.172C131.934 154.939 132.811 156.849 134.424 157.687C135.094 158.035 135.804 158.1 136.539 158.1C140.229 158.139 143.918 158.1 147.607 158.1H153.632C153.98 158.1 154.328 158.113 154.677 158.1C156.741 158.01 158.495 156.423 158.495 154.281C158.495 151.805 154.651 151.805 154.651 154.281L154.664 154.294Z" fill="black"/>
<path d="M154.689 126.598H136.139C135.092 126.598 134.243 127.447 134.243 128.494C134.243 129.542 135.092 130.391 136.139 130.391H154.689C155.736 130.391 156.585 129.542 156.585 128.494C156.585 127.447 155.736 126.598 154.689 126.598Z" fill="black"/>
<path d="M154.664 128.494C154.664 128.417 154.612 128.469 154.664 128.469C154.599 128.469 154.522 128.469 154.457 128.469C154.07 128.494 153.67 128.469 153.283 128.469H148.678C145.169 128.469 141.648 128.469 138.139 128.469C137.597 128.469 136.552 128.391 136.191 128.494C136.217 128.494 136.075 128.494 136.152 128.494C136.346 128.494 136.023 128.494 136.204 128.494C136.526 128.494 136.849 128.494 137.171 128.494H147.066C148.91 128.494 150.755 128.494 152.6 128.494C153.154 128.494 153.709 128.507 154.264 128.494C154.38 128.494 154.496 128.494 154.612 128.494C154.664 128.494 154.651 128.533 154.651 128.469C154.844 130.92 158.688 130.932 158.495 128.469C158.327 126.417 156.96 124.792 154.831 124.663C154.535 124.65 154.238 124.663 153.941 124.663H148.988C145.027 124.663 141.08 124.663 137.12 124.663C135.133 124.663 133.147 125.205 132.476 127.372C131.934 129.139 132.811 131.049 134.424 131.887C135.094 132.235 135.804 132.3 136.539 132.3C140.229 132.339 143.918 132.3 147.607 132.3H153.632C153.98 132.3 154.328 132.313 154.677 132.3C156.741 132.21 158.495 130.623 158.495 128.481C158.495 126.005 154.651 126.005 154.651 128.481L154.664 128.494Z" fill="black"/>
</g>
<defs>
<clipPath id="clip0_912_3919">
<rect width="181.709" height="293.488" fill="white" transform="translate(39.312 13.2071)"/>
</clipPath>
</defs>
</svg>
