<svg width="200" height="249" viewBox="0 0 200 249" fill="none" xmlns="http://www.w3.org/2000/svg">
<path d="M93.7661 111.201C99.2961 104.241 100.856 94.8415 100.296 85.9715C99.7461 77.1015 94.5061 71.4015 92.8761 62.6615C92.3561 59.8915 92.7461 56.9915 94.7561 55.0115C95.7461 54.0415 98.0761 52.0915 99.0461 51.8415C103.786 50.6015 107.046 52.6615 109.106 54.8815C111.286 57.2515 114.536 58.4515 113.986 61.6215C109.746 53.4615 100.666 40.9415 107.926 35.1115C114.556 31.0615 120.496 31.6415 122.126 36.0415C122.776 38.7615 122.726 41.3215 122.016 43.0115C125.506 35.5215 122.096 30.4215 126.136 23.2215C129.706 16.8715 138.186 20.3615 139.726 21.2915C142.376 22.8915 143.896 35.2815 141.756 37.5115C144.576 35.2415 148.776 25.6915 152.266 24.7615C155.756 23.8315 160.006 24.6715 161.986 27.7015C164.096 30.9215 162.506 35.9215 158.916 37.3315C170.826 34.2315 171.806 44.2615 170.806 47.3015C168.336 54.8815 160.656 54.4515 153.186 57.2615C156.576 56.0515 160.466 58.9415 161.146 62.4815C161.826 66.0215 159.956 69.6615 157.256 72.0515C154.556 74.4415 151.146 75.8315 147.806 77.1715C149.876 77.5015 156.036 78.9915 155.776 82.7915C156.566 91.8615 146.646 94.6115 138.346 98.3415C130.046 102.072 120.666 103.932 113.716 109.812C109.606 113.292 106.596 118.002 102.156 121.032C97.716 124.062 90.766 124.701 87.596 120.361C85.546 117.551 86.0361 118.511 87.7661 115.491C89.4961 112.471 90.7161 112.901 93.7461 111.201" fill="#8FC740"/>
<path d="M94.8261 112.252C98.4061 107.672 100.516 102.242 101.366 96.5115C102.216 90.7815 102.276 84.8915 100.586 79.4115C98.8961 73.9315 96.0261 69.3215 94.6861 63.9115C94.0461 61.3315 93.7061 58.3015 95.6961 56.1915C97.2061 54.5915 98.9561 53.1215 101.176 52.9715C103.946 52.7815 106.186 53.9916 108.066 55.9316C108.966 56.8616 109.986 57.6215 110.956 58.4715C111.766 59.1815 112.726 60.0215 112.556 61.2215L115.276 60.8615C112.406 55.3715 108.586 50.0816 107.086 43.9916C106.516 41.6616 106.376 38.9815 108.036 37.0415C109.206 35.6815 111.236 34.9216 112.916 34.4016C114.396 33.9416 116.016 33.6515 117.566 33.9715C121.386 34.7615 121.766 39.4915 120.586 42.6015C119.996 44.1615 122.616 45.2816 123.306 43.7516C124.336 41.4616 124.956 39.1315 125.186 36.6315C125.376 34.5815 125.316 32.5215 125.486 30.4715C125.796 26.8115 127.166 22.0316 131.226 21.1216C133.586 20.5916 136.476 21.2815 138.506 22.2915C138.996 22.5315 138.906 22.3915 139.186 22.7615C139.276 22.8815 139.636 23.5316 139.786 23.8716C140.346 25.1816 140.646 26.6216 140.886 28.0216C141.186 29.7716 141.336 31.5615 141.286 33.3315C141.266 34.0215 141.226 34.7115 141.076 35.3915C141.016 35.6515 140.956 35.9215 140.856 36.1715C140.876 36.1215 140.546 36.6315 140.716 36.4415C139.436 37.8915 141.356 39.7715 142.816 38.5415C144.846 36.8415 146.186 34.2216 147.616 32.0316C148.436 30.7716 149.256 29.5015 150.206 28.3315C150.826 27.5715 151.606 26.5915 152.516 26.2215C155.186 25.1515 159.376 26.0815 160.876 28.7015C162.376 31.3215 160.876 34.8816 158.186 36.0316C156.596 36.7116 157.756 39.1516 159.336 38.7516C161.756 38.1416 164.586 37.7716 166.816 39.1516C168.256 40.0316 169.046 41.5415 169.416 43.1115C169.716 44.4115 169.746 45.7515 169.396 46.8915C168.516 49.7615 166.226 51.5816 163.496 52.6216C160.016 53.9416 156.306 54.5216 152.816 55.8116C151.046 56.4616 151.756 59.2716 153.606 58.6816C155.576 58.0616 157.536 59.0215 158.746 60.6115C160.126 62.4415 160.046 64.8715 159.206 66.9215C157.216 71.7615 151.956 73.9015 147.446 75.7215C146.256 76.2015 145.826 78.3216 147.446 78.5916C149.536 78.9416 152.296 79.5516 153.756 81.2116C154.566 82.1316 154.456 83.5415 154.336 84.6915C154.196 86.0315 153.686 87.3016 152.896 88.3915C151.156 90.7915 148.326 92.2715 145.716 93.5115C142.576 95.0115 139.326 96.3715 136.106 97.7015C128.626 100.802 120.476 102.752 113.946 107.752C110.646 110.282 108.096 113.542 105.196 116.492C102.626 119.102 99.7161 121.352 95.9861 121.872C94.3161 122.102 92.4861 121.992 90.9561 121.242C90.1961 120.872 89.5461 120.352 88.9961 119.702C88.6861 119.332 88.4061 118.922 88.1261 118.522C88.0661 118.442 87.7361 117.772 87.7761 118.132C87.8161 118.462 87.8161 118.182 87.9761 117.972C88.2161 117.652 88.4361 117.302 88.6461 116.962C89.1461 116.172 89.5561 115.282 90.2761 114.652C91.4461 113.632 93.1761 113.212 94.5261 112.472C96.2061 111.552 94.7061 108.982 93.0261 109.902C91.6361 110.662 90.0361 111.122 88.7561 112.072C87.2561 113.182 86.3861 114.922 85.3961 116.472C84.4961 117.872 84.8161 118.992 85.7361 120.282C86.8661 121.862 88.0561 123.192 89.8561 124.002C93.3361 125.562 97.3961 125.032 100.786 123.502C104.876 121.662 107.856 118.022 110.816 114.792C114.076 111.242 117.626 108.462 121.996 106.392C126.366 104.322 130.656 103.012 134.986 101.342C138.796 99.8716 142.586 98.2215 146.296 96.5216C149.416 95.0916 152.696 93.3816 154.886 90.6516C156.046 89.2016 156.866 87.5415 157.166 85.7015C157.466 83.8615 157.556 81.7915 156.646 80.1915C155.046 77.3915 151.196 76.2315 148.216 75.7315V78.6015C154.096 76.2315 160.976 73.1315 162.516 66.2615C163.166 63.3415 162.566 60.3715 160.526 58.1415C158.596 56.0215 155.586 54.9415 152.806 55.8215L153.596 58.6915C160.276 56.2215 169.016 56.0416 172.006 48.3716C173.496 44.5416 172.206 39.4716 168.886 37.0016C165.896 34.7816 161.946 35.0315 158.516 35.8915L159.666 38.6115C162.486 37.4115 164.186 34.5016 164.396 31.5216C164.636 28.3016 162.736 25.3415 159.856 23.9815C157.286 22.7615 153.526 22.3316 150.916 23.7116C148.656 24.9016 147.096 27.4316 145.726 29.4916C144.186 31.7916 142.846 34.6616 140.696 36.4616L142.796 38.5616C144.776 36.3316 144.366 32.3015 144.066 29.5815C143.746 26.6915 143.296 22.5415 141.026 20.4215C140.206 19.6615 138.986 19.2516 137.946 18.9016C136.376 18.3616 134.696 18.0316 133.036 18.0016C131.186 17.9716 129.276 18.3715 127.716 19.3915C125.616 20.7515 124.426 22.9516 123.576 25.2416C121.526 30.7616 123.176 36.8215 120.726 42.2615L123.446 43.4115C124.816 39.8015 124.306 34.4916 120.896 32.1816C117.486 29.8716 113.176 30.9416 109.816 32.4316C107.926 33.2716 106.276 34.2616 105.116 36.0016C104.236 37.3316 103.816 38.9116 103.726 40.4916C103.516 44.1116 105.006 47.7216 106.516 50.9316C108.366 54.8516 110.686 58.5215 112.696 62.3615C113.246 63.4115 115.246 63.3016 115.416 62.0016C115.806 59.1016 114.286 57.3715 112.176 55.6315C110.266 54.0615 108.716 52.0915 106.446 51.0215C103.986 49.8615 100.686 49.4716 98.1361 50.5916C96.1661 51.4616 93.9761 53.3415 92.7461 55.1015C89.1461 60.2615 92.4461 67.4816 94.6361 72.5316C95.8061 75.2316 97.0561 77.9116 97.8761 80.7516C98.7561 83.7816 98.9661 86.8715 98.9161 90.0115C98.8161 97.1015 97.1661 104.452 92.7161 110.132C91.5461 111.622 93.6361 113.742 94.8161 112.232L94.8261 112.252Z" fill="black"/>
<path d="M104.686 105.042C104.686 105.042 75.2861 87.8016 53.7961 132.922C47.0561 147.072 40.0961 163.072 33.8861 179.082C27.3661 195.872 49.3861 179.832 60.1061 185.522C69.3761 190.442 66.3961 219.122 75.1261 208.922C95.5561 185.052 113.216 160.202 119.006 147.112C130.666 120.752 104.696 105.032 104.696 105.032L104.686 105.042Z" fill="#FC751A"/>
<path d="M105.436 103.761C102.296 101.931 98.5061 101.012 94.9461 100.562C86.7861 99.5415 78.6161 101.992 71.9861 106.772C59.6461 115.682 53.3761 129.992 47.2861 143.432C43.3761 152.062 39.6361 160.772 36.0761 169.562C35.1561 171.842 34.2461 174.121 33.3461 176.411C32.7061 178.041 32.0061 179.672 31.5761 181.372C31.1461 183.072 30.8961 185.272 32.0761 186.822C34.3661 189.812 39.5961 188.212 42.5961 187.562C47.0961 186.582 52.0461 185.072 56.6861 185.942C58.5961 186.302 60.1661 187.042 61.3561 188.552C62.5461 190.062 63.3561 192.041 63.9761 193.911C65.3961 198.161 66.0261 202.611 67.2961 206.901C68.0561 209.481 69.6361 213.642 73.1261 212.372C75.5661 211.492 77.2761 208.711 78.8461 206.851C81.9261 203.201 84.9561 199.502 87.9461 195.762C97.8561 183.352 107.546 170.551 115.586 156.832C118.576 151.722 121.486 146.362 122.746 140.532C124.006 134.702 123.666 128.731 121.576 123.201C118.726 115.631 113.186 109.182 106.616 104.562C106.226 104.292 105.846 104.022 105.436 103.772C103.796 102.772 102.296 105.352 103.936 106.342C105.486 107.282 106.506 108.112 107.786 109.212C110.736 111.722 113.406 114.611 115.536 117.851C118.266 122.021 120.116 126.791 120.456 131.791C120.866 137.781 119.206 143.512 116.566 148.842C113.926 154.172 110.796 159.171 107.546 164.101C103.276 170.591 98.7261 176.912 94.0461 183.122C88.6261 190.302 82.996 197.331 77.206 204.211C75.996 205.651 74.8261 207.171 73.5061 208.531C73.3061 208.731 72.826 209.181 72.776 209.211C72.576 209.361 71.9861 209.671 72.1661 209.591C72.0661 209.631 71.8861 209.622 71.8061 209.682C71.9361 209.582 71.9761 209.551 71.8061 209.651C71.9961 209.531 72.0461 209.762 71.7961 209.622C71.9161 209.682 71.9261 209.732 71.7261 209.562C72.0461 209.832 71.4061 209.222 71.4961 209.322C71.5061 209.342 71.1761 208.812 71.0661 208.612C70.4261 207.392 69.966 205.562 69.586 204.002C69.066 201.902 68.6261 199.782 68.1161 197.672C67.1261 193.652 65.956 189.171 63.086 186.041C60.066 182.741 55.1461 182.491 50.9961 182.961C46.5361 183.471 42.2161 184.952 37.7861 185.452C37.0661 185.532 36.0361 185.582 35.4961 185.502C35.5261 185.502 34.786 185.311 34.836 185.341C34.686 185.281 34.5361 185.182 34.4361 185.062C34.4661 185.092 34.2761 184.771 34.3061 184.841C34.1361 184.401 34.1761 184.452 34.1761 184.002C34.1761 183.002 34.4561 182.022 34.7561 181.062C36.0561 176.972 37.8661 172.982 39.4861 169.012C41.2461 164.682 43.0561 160.382 44.9161 156.092C48.4361 147.952 52.006 139.802 55.966 131.862C59.136 125.522 62.9461 119.402 67.8861 114.282C73.9061 108.042 81.776 103.512 90.526 103.332C93.506 103.272 95.9261 103.571 98.7561 104.351C99.7561 104.621 100.736 104.941 101.706 105.321C101.896 105.391 102.086 105.472 102.276 105.552C101.976 105.422 102.296 105.551 102.526 105.661C102.786 105.781 103.036 105.892 103.296 106.022C103.506 106.132 103.726 106.231 103.926 106.351C105.586 107.321 107.086 104.752 105.426 103.782L105.436 103.761Z" fill="black"/>
<path d="M68.3261 127.452C72.6761 128.562 76.1461 130.922 78.9361 134.422C80.3261 136.172 83.326 135.872 84.786 134.422C86.516 132.692 86.186 130.322 84.786 128.572C81.186 124.052 76.116 120.902 70.526 119.482C65.366 118.172 63.1661 126.142 68.3261 127.452Z" fill="#D66112"/>
<path d="M77.3261 167.152C77.3861 167.142 79.4161 168.562 79.6961 168.742C80.5561 169.302 81.3661 169.902 82.1461 170.562C83.8961 172.052 85.4461 173.722 86.8661 175.532C88.2861 177.342 91.2461 176.962 92.7161 175.532C94.4661 173.822 94.0861 171.432 92.7161 169.682C88.8761 164.812 81.8761 157.862 75.1261 159.172C69.9061 160.182 72.1161 168.162 77.3261 167.142V167.152Z" fill="#D66112"/>
<path d="M41.086 182.742C45.496 183.272 49.4861 185.382 52.6361 188.462C56.4461 192.182 62.2961 186.342 58.4861 182.612C53.6561 177.902 47.746 175.272 41.086 174.472C38.846 174.202 36.976 176.562 36.956 178.602C36.926 181.052 38.886 182.472 41.086 182.732V182.742Z" fill="#D66112"/>
<path d="M77.4158 206.719C80.9315 200.637 73.9206 190.006 61.7566 182.975C49.5925 175.944 36.8815 175.174 33.3658 181.256C29.8501 187.338 36.8609 197.969 49.025 205C61.1891 212.031 73.9001 212.801 77.4158 206.719Z" fill="#FF8533"/>
<path d="M76.1161 205.912C74.5661 208.492 71.2861 209.192 68.4861 209.272C64.1561 209.402 59.8261 208.232 55.8261 206.642C47.9461 203.502 39.6761 197.882 35.5461 190.252C34.3361 188.012 33.3061 185.092 34.3161 182.582C35.3261 180.072 38.2661 178.982 40.8161 178.702C44.9461 178.242 49.1861 179.192 53.0761 180.552C57.7961 182.202 62.2761 184.672 66.2361 187.712C69.7561 190.412 73.0661 193.702 75.1861 197.632C76.5161 200.092 77.566 203.292 76.106 205.922C75.176 207.602 77.7461 209.102 78.6761 207.422C82.5361 200.482 75.9261 192.312 71.0661 187.892C67.0261 184.202 62.306 181.202 57.286 179.032C52.676 177.042 47.6461 175.562 42.5761 175.622C39.0661 175.672 35.1461 176.532 32.8161 179.372C30.6761 181.972 30.5661 185.472 31.5761 188.562C32.8461 192.442 35.436 195.832 38.286 198.692C42.056 202.472 46.566 205.562 51.356 207.902C56.476 210.412 62.206 212.292 67.966 212.262C72.006 212.242 76.446 211.102 78.666 207.422C79.656 205.782 77.086 204.282 76.096 205.922L76.1161 205.912Z" fill="black"/>
<path d="M62.7844 198.261C63.9646 196.22 61.6111 192.651 57.5277 190.291C53.4443 187.93 49.1774 187.672 47.9972 189.714C46.817 191.755 49.1704 195.324 53.2538 197.684C57.3372 200.045 61.6042 200.303 62.7844 198.261Z" fill="#EA5F00"/>
<path d="M88.6261 229.882C102.025 229.882 112.886 219.02 112.886 205.622C112.886 192.223 102.025 181.362 88.6261 181.362C75.2277 181.362 64.3661 192.223 64.3661 205.622C64.3661 219.02 75.2277 229.882 88.6261 229.882Z" fill="#FF8533"/>
<path d="M111.396 205.622C111.326 215.062 105.386 223.802 96.4361 227.022C87.4861 230.242 77.1261 227.442 70.9861 220.032C64.8461 212.622 64.2361 201.962 69.1361 193.852C74.0361 185.742 83.746 181.422 93.036 183.282C103.636 185.402 111.316 194.852 111.396 205.622C111.406 207.532 114.386 207.542 114.376 205.622C114.296 194.852 107.516 185.132 97.3861 181.412C87.2761 177.702 75.4361 180.982 68.6861 189.362C61.9561 197.722 60.9961 209.662 66.5761 218.902C72.1561 228.142 83.226 232.972 93.836 230.842C105.716 228.452 114.296 217.652 114.376 205.632C114.386 203.712 111.416 203.712 111.396 205.632V205.622Z" fill="black"/>
<path d="M88.6261 213.762C93.1217 213.762 96.7661 210.117 96.7661 205.622C96.7661 201.126 93.1217 197.482 88.6261 197.482C84.1305 197.482 80.4861 201.126 80.4861 205.622C80.4861 210.117 84.1305 213.762 88.6261 213.762Z" fill="#EA5F00"/>
</svg>
