<svg width="200" height="249" viewBox="0 0 200 249" fill="none" xmlns="http://www.w3.org/2000/svg">
<path d="M102.144 94.2016C107.674 87.2416 109.234 77.8416 108.674 68.9716C108.124 60.1016 102.884 54.4016 101.254 45.6616C100.734 42.8916 101.124 39.9916 103.134 38.0116C104.124 37.0416 106.454 35.0916 107.424 34.8416C112.164 33.6016 115.424 35.6616 117.484 37.8816C119.664 40.2516 122.914 41.4516 122.364 44.6216C118.124 36.4616 109.044 23.9416 116.304 18.1116C122.934 14.0616 128.874 14.6416 130.504 19.0416C131.154 21.7616 131.104 24.3216 130.394 26.0116C133.884 18.5216 130.474 13.4216 134.514 6.2216C138.084 -0.1284 146.564 3.36161 148.104 4.29161C150.754 5.89161 152.274 18.2816 150.134 20.5116C152.954 18.2416 157.154 8.69161 160.644 7.76161C164.134 6.83161 168.384 7.67161 170.364 10.7016C172.474 13.9216 170.884 18.9216 167.294 20.3316C179.204 17.2316 180.184 27.2616 179.184 30.3016C176.714 37.8816 169.034 37.4516 161.564 40.2616C164.954 39.0516 168.844 41.9416 169.524 45.4816C170.204 49.0216 168.334 52.6616 165.634 55.0516C162.934 57.4416 159.524 58.8316 156.184 60.1716C158.254 60.5016 164.414 61.9916 164.154 65.7916C164.944 74.8616 155.024 77.6116 146.724 81.3416C138.424 85.0716 129.044 86.9316 122.094 92.8116C117.984 96.2916 114.974 101.002 110.534 104.032C106.094 107.062 99.1439 107.702 95.9739 103.362C93.9239 100.552 94.4139 101.512 96.1439 98.4916C97.8739 95.4716 99.0939 95.9016 102.124 94.2016" fill="#8FC740"/>
<path d="M103.194 95.2516C106.774 90.6716 108.884 85.2416 109.734 79.5116C110.584 73.7816 110.644 67.8916 108.954 62.4116C107.264 56.9316 104.394 52.3216 103.054 46.9116C102.414 44.3316 102.074 41.3016 104.064 39.1916C105.574 37.5916 107.324 36.1216 109.544 35.9716C112.314 35.7816 114.554 36.9916 116.434 38.9316C117.334 39.8616 118.354 40.6216 119.324 41.4716C120.134 42.1816 121.094 43.0216 120.924 44.2216L123.644 43.8616C120.774 38.3716 116.954 33.0816 115.454 26.9916C114.884 24.6616 114.744 21.9816 116.404 20.0416C117.574 18.6816 119.604 17.9216 121.284 17.4016C122.764 16.9416 124.384 16.6516 125.934 16.9716C129.754 17.7616 130.134 22.4916 128.954 25.6016C128.364 27.1616 130.984 28.2816 131.674 26.7516C132.704 24.4616 133.324 22.1316 133.554 19.6316C133.744 17.5816 133.684 15.5216 133.854 13.4716C134.164 9.81156 135.534 5.03156 139.594 4.12156C141.954 3.59156 144.844 4.28157 146.874 5.29157C147.364 5.53157 147.274 5.39157 147.554 5.76157C147.644 5.88157 148.004 6.53156 148.154 6.87156C148.714 8.18156 149.014 9.62155 149.254 11.0216C149.554 12.7716 149.704 14.5616 149.654 16.3316C149.634 17.0216 149.594 17.7116 149.444 18.3916C149.384 18.6516 149.324 18.9216 149.224 19.1716C149.244 19.1216 148.914 19.6316 149.084 19.4416C147.804 20.8916 149.724 22.7716 151.184 21.5416C153.214 19.8416 154.554 17.2216 155.984 15.0316C156.804 13.7716 157.624 12.5016 158.574 11.3316C159.194 10.5716 159.974 9.59156 160.884 9.22156C163.554 8.15156 167.744 9.08157 169.244 11.7016C170.744 14.3216 169.244 17.8816 166.554 19.0316C164.964 19.7116 166.124 22.1516 167.704 21.7516C170.124 21.1416 172.954 20.7716 175.184 22.1516C176.624 23.0316 177.414 24.5416 177.784 26.1116C178.084 27.4116 178.114 28.7516 177.764 29.8916C176.884 32.7616 174.594 34.5816 171.864 35.6216C168.384 36.9416 164.674 37.5216 161.184 38.8116C159.414 39.4616 160.124 42.2716 161.974 41.6816C163.944 41.0616 165.904 42.0216 167.114 43.6116C168.494 45.4416 168.414 47.8716 167.574 49.9216C165.584 54.7616 160.324 56.9016 155.814 58.7216C154.624 59.2016 154.194 61.3216 155.814 61.5916C157.904 61.9416 160.664 62.5516 162.124 64.2116C162.934 65.1316 162.824 66.5416 162.704 67.6916C162.564 69.0316 162.054 70.3016 161.264 71.3916C159.524 73.7916 156.694 75.2716 154.084 76.5116C150.944 78.0116 147.694 79.3716 144.474 80.7016C136.994 83.8016 128.844 85.7516 122.314 90.7516C119.014 93.2816 116.464 96.5416 113.564 99.4916C110.994 102.102 108.084 104.352 104.354 104.872C102.684 105.102 100.854 104.992 99.3239 104.242C98.5639 103.872 97.9139 103.352 97.3639 102.702C97.0539 102.332 96.7739 101.922 96.4939 101.522C96.4339 101.442 96.1039 100.772 96.1439 101.132C96.1839 101.462 96.1839 101.182 96.3439 100.972C96.5839 100.652 96.8039 100.302 97.0139 99.9616C97.5139 99.1716 97.9239 98.2816 98.6439 97.6516C99.8139 96.6316 101.544 96.2116 102.894 95.4716C104.574 94.5516 103.074 91.9816 101.394 92.9016C100.004 93.6616 98.4039 94.1216 97.1239 95.0716C95.6239 96.1816 94.7539 97.9216 93.7639 99.4716C92.8639 100.872 93.1839 101.992 94.1039 103.282C95.2339 104.862 96.4239 106.192 98.2239 107.002C101.704 108.562 105.764 108.032 109.154 106.502C113.244 104.662 116.224 101.022 119.184 97.7916C122.444 94.2416 125.994 91.4616 130.364 89.3916C134.734 87.3216 139.024 86.0116 143.354 84.3416C147.164 82.8716 150.954 81.2215 154.664 79.5216C157.784 78.0916 161.064 76.3816 163.254 73.6516C164.414 72.2016 165.234 70.5416 165.534 68.7016C165.834 66.8616 165.924 64.7916 165.014 63.1916C163.414 60.3916 159.564 59.2316 156.584 58.7316V61.6016C162.464 59.2316 169.344 56.1316 170.884 49.2616C171.534 46.3416 170.934 43.3716 168.894 41.1416C166.964 39.0216 163.954 37.9416 161.174 38.8216L161.964 41.6916C168.644 39.2216 177.384 39.0416 180.374 31.3716C181.864 27.5416 180.574 22.4716 177.254 20.0016C174.264 17.7816 170.314 18.0316 166.884 18.8916L168.034 21.6116C170.854 20.4116 172.554 17.5016 172.764 14.5216C173.004 11.3016 171.104 8.34157 168.224 6.98157C165.654 5.76157 161.894 5.33155 159.284 6.71155C157.024 7.90155 155.464 10.4316 154.094 12.4916C152.554 14.7916 151.214 17.6616 149.064 19.4616L151.164 21.5616C153.144 19.3316 152.734 15.3016 152.434 12.5816C152.114 9.69158 151.664 5.54157 149.394 3.42158C148.574 2.66158 147.354 2.25156 146.314 1.90156C144.744 1.36156 143.064 1.03156 141.404 1.00156C139.554 0.971562 137.644 1.37158 136.084 2.39158C133.984 3.75158 132.794 5.95155 131.944 8.24155C129.894 13.7616 131.544 19.8216 129.094 25.2616L131.814 26.4116C133.184 22.8016 132.674 17.4916 129.264 15.1816C125.854 12.8716 121.544 13.9416 118.184 15.4316C116.294 16.2716 114.644 17.2616 113.484 19.0016C112.604 20.3316 112.184 21.9116 112.094 23.4916C111.884 27.1116 113.374 30.7216 114.884 33.9316C116.734 37.8516 119.054 41.5216 121.064 45.3616C121.614 46.4116 123.614 46.3016 123.784 45.0016C124.174 42.1016 122.654 40.3716 120.544 38.6316C118.634 37.0616 117.084 35.0915 114.814 34.0215C112.354 32.8615 109.054 32.4716 106.504 33.5916C104.534 34.4616 102.344 36.3416 101.114 38.1016C97.5139 43.2616 100.814 50.4816 103.004 55.5316C104.174 58.2316 105.424 60.9116 106.244 63.7516C107.124 66.7816 107.334 69.8716 107.284 73.0116C107.184 80.1016 105.534 87.4516 101.084 93.1316C99.9139 94.6216 102.004 96.7416 103.184 95.2316L103.194 95.2516Z" fill="black"/>
<path d="M113.064 88.0516C113.064 88.0516 83.6639 70.8116 62.1739 115.932C42.2439 157.762 20.4239 215.722 21.5339 242.532C21.6539 245.302 24.7039 246.942 27.0439 245.462C61.354 223.802 116.244 155.282 127.374 130.132C139.034 103.772 113.064 88.0516 113.064 88.0516Z" fill="#FC751A"/>
<path d="M113.814 86.7616C109.464 84.2216 103.874 83.2216 98.9139 83.3316C86.2039 83.6016 75.8839 91.8316 68.7139 101.752C63.0439 109.602 59.1939 118.592 55.2339 127.382C51.1839 136.342 47.3239 145.392 43.6639 154.512C36.5939 172.112 30.0839 190.042 25.2639 208.392C23.3139 215.822 21.6439 223.342 20.6739 230.972C20.2839 234.032 20.0239 237.102 20.0039 240.182C20.0039 241.782 19.9039 243.482 20.7139 244.922C21.6739 246.622 23.6339 247.652 25.5839 247.472C27.2539 247.322 28.6239 246.222 29.9739 245.322C31.2139 244.492 32.4339 243.632 33.6439 242.752C36.3739 240.762 39.0239 238.672 41.6139 236.522C47.3539 231.762 52.8239 226.692 58.1339 221.472C69.9139 209.892 80.9439 197.542 91.4339 184.782C100.914 173.262 110.034 161.382 118.264 148.932C121.284 144.352 124.214 139.682 126.754 134.822C129.904 128.782 132.184 122.272 131.854 115.362C131.314 104.162 124.374 94.4016 115.544 87.9316C114.984 87.5216 114.414 87.1116 113.824 86.7616C112.184 85.7616 110.684 88.3416 112.324 89.3316C114.514 90.6616 116.074 92.0116 118.004 93.8416C121.844 97.4916 125.154 101.882 127.054 106.862C129.634 113.642 129.354 120.872 126.814 127.632C125.094 132.212 122.534 136.522 119.994 140.692C113.004 152.162 104.964 163.032 96.6639 173.582C86.7839 186.152 76.3539 198.312 65.3339 209.902C55.4239 220.332 45.0339 230.552 33.5039 239.192C31.1939 240.922 28.8339 242.762 26.3139 244.182C24.8139 245.022 23.1939 244.122 23.0339 242.432C22.9139 241.122 22.9839 239.752 23.0339 238.432C23.2639 231.832 24.4139 225.272 25.8139 218.832C29.5539 201.592 35.2839 184.762 41.4939 168.272C48.1339 150.642 55.4839 133.232 63.6639 116.262C69.6239 103.892 78.7739 90.5616 92.9339 87.0916C96.7039 86.1716 100.964 86.0816 104.544 86.7316C105.994 86.9916 107.434 87.3616 108.834 87.8316C109.394 88.0216 109.934 88.2216 110.484 88.4416C110.674 88.5116 110.794 88.5716 110.514 88.4416C110.624 88.4916 110.724 88.5316 110.824 88.5816C111.004 88.6616 111.184 88.7416 111.364 88.8316C111.684 88.9816 112.014 89.1416 112.324 89.3216C113.984 90.2916 115.484 87.7216 113.824 86.7516L113.814 86.7616Z" fill="black"/>
<path d="M76.7039 110.462C81.0539 111.572 84.5239 113.932 87.3139 117.432C88.7039 119.182 91.7039 118.882 93.1639 117.432C94.8939 115.702 94.5639 113.332 93.1639 111.582C89.5639 107.062 84.4939 103.912 78.9039 102.492C73.7439 101.182 71.5439 109.152 76.7039 110.462Z" fill="#D66112"/>
<path d="M85.7039 150.162C85.7639 150.152 87.7939 151.572 88.0739 151.752C88.9339 152.312 89.7439 152.912 90.5239 153.572C92.2739 155.062 93.8239 156.732 95.2439 158.542C96.6639 160.352 99.6239 159.972 101.094 158.542C102.844 156.832 102.464 154.442 101.094 152.692C97.2539 147.822 90.2539 140.872 83.5039 142.182C78.2839 143.192 80.4939 151.172 85.7039 150.152V150.162Z" fill="#D66112"/>
<path d="M49.4639 165.742C53.8739 166.272 57.8639 168.382 61.0139 171.462C64.8239 175.182 70.6739 169.342 66.8639 165.612C62.0339 160.902 56.1239 158.272 49.4639 157.472C47.2239 157.202 45.3539 159.562 45.3339 161.602C45.3039 164.052 47.2639 165.472 49.4639 165.732V165.742Z" fill="#D66112"/>
<path d="M49.3739 198.462C53.6539 199.552 57.3039 202.012 59.7439 205.732C62.6539 210.162 69.8139 206.022 66.8839 201.562C63.2839 196.072 57.9639 192.132 51.5739 190.492C46.4139 189.172 44.2139 197.142 49.3739 198.462Z" fill="#D66112"/>
</svg>
