<svg width="200" height="249" viewBox="0 0 200 249" fill="none" xmlns="http://www.w3.org/2000/svg">
<path d="M154.037 174.331C154.037 174.331 191.246 142.51 158.074 96.1121C124.901 49.7146 34.4797 71.4964 28.6322 122.266C22.7847 173.035 46.3075 190.664 81.6423 197.05C116.977 203.428 135.87 190.726 154.037 174.339V174.331Z" fill="#FC751A"/>
<path d="M154.865 175.151C156.411 173.832 157.793 172.286 159.104 170.74C162.344 166.93 165.131 162.722 167.333 158.233C170.339 152.105 172.251 145.484 172.821 138.669C173.547 130.073 172.025 121.399 168.902 113.389C165.475 104.591 160.385 96.042 153.842 89.1952C149.072 84.1986 143.381 80.0999 137.198 77.0317C131.014 73.9635 124.347 71.8712 117.539 70.7002C110.732 69.5291 103.408 69.1778 96.3275 69.6853C89.223 70.2005 82.1576 71.5043 75.342 73.5888C68.7294 75.6108 62.312 78.3667 56.363 81.8877C50.6716 85.2526 45.3628 89.3513 40.8581 94.2073C36.5174 98.8759 32.9651 104.239 30.5449 110.142C27.6251 117.285 26.938 125.006 26.6492 132.649C26.3291 141.128 26.8834 149.747 29.124 157.96C30.9275 164.58 33.8942 170.842 38.149 176.244C42.076 181.233 47.0569 185.316 52.5375 188.47C58.4553 191.882 64.943 194.263 71.5243 196.012C80.4713 198.385 89.7851 199.868 99.0521 199.892C108.319 199.915 116.938 198.416 125.253 195.083C132.755 192.077 139.571 187.736 145.91 182.755C148.986 180.335 151.945 177.774 154.849 175.159C155.966 174.16 154.319 172.52 153.21 173.52C147.401 178.75 141.359 183.762 134.652 187.807C127.743 191.975 120.217 194.958 112.277 196.426C102.503 198.237 92.4005 197.761 82.6416 196.059C75.6699 194.841 68.7372 193.131 62.148 190.523C56.3552 188.236 50.7887 185.16 46.042 181.1C41.2953 177.041 37.462 172.052 34.7295 166.431C31.552 159.881 29.9204 152.643 29.2646 145.422C28.8586 140.987 28.8118 136.522 28.9991 132.072C29.1865 127.622 29.4519 123.414 30.2717 119.19C32.6528 106.933 40.2882 96.5494 50.0158 88.9844C60.5944 80.7557 73.4995 75.6186 86.6311 73.2375C99.7626 70.8563 114.167 71.2545 127.181 75.4625C133.52 77.5157 139.548 80.4981 144.927 84.4406C151.024 88.9063 155.872 94.5742 159.916 100.921C165.1 109.056 169.035 118.167 170.261 127.793C171.182 135.031 170.549 142.385 168.395 149.357C165.701 158.046 160.775 166.173 154.326 172.497C153.967 172.848 153.608 173.199 153.226 173.527C152.086 174.503 153.741 176.143 154.865 175.167V175.151Z" fill="black"/>
<path d="M91.1591 75.6264C95.0861 66.094 91.7369 56.6474 85.0306 49.3555C82.0795 46.139 77.3016 50.9404 80.2448 54.1413C85.46 59.817 87.646 66.5077 84.6324 73.823C82.9773 77.8436 89.5196 79.6002 91.1591 75.6186V75.6264Z" fill="black"/>
<path d="M96.5773 79.2177C95.1564 78.5619 94.2273 77.1957 92.8923 76.3915C91.5573 75.5874 89.8476 75.1034 88.2159 75.1034C85.054 75.1034 82.1107 76.9068 80.5259 79.6237C79.7686 80.9275 81.7907 82.1063 82.5479 80.8026C83.8127 78.6322 86.1548 77.3128 88.6765 77.4533C89.9334 77.5236 91.1748 77.9842 92.1897 78.7258C93.2983 79.53 94.1181 80.6542 95.3906 81.2398C95.9605 81.5052 96.6553 81.4037 96.9911 80.8181C97.2877 80.3107 97.1472 79.4831 96.5695 79.2177H96.5773Z" fill="black"/>
<path d="M155.942 115.708C142.467 51.2448 89.4338 62.2996 89.4338 62.2996C93.0563 71.9102 90.8781 118.698 155.942 115.708Z" fill="#6BA534"/>
<path d="M157.067 115.403C154.842 104.833 151.211 94.379 145.208 85.3305C140.781 78.6633 135.082 72.8704 128.266 68.639C122.848 65.2741 116.79 62.932 110.544 61.6594C105.813 60.6914 100.957 60.2854 96.1401 60.4572C93.9073 60.5352 91.409 60.5743 89.2308 61.1598C89.1996 61.1676 89.1684 61.1754 89.1371 61.1754C88.5594 61.2925 88.1144 62.042 88.3252 62.6041C89.426 65.5474 89.7305 68.842 90.3394 71.9102C91.2919 76.6881 92.5176 81.4192 94.3601 85.9317C96.6007 91.4279 99.6845 96.5415 103.768 100.874C108.749 106.152 115.018 110.001 121.786 112.53C131.163 116.044 141.359 117.098 151.313 116.996C152.859 116.98 154.404 116.934 155.95 116.863C157.496 116.793 157.449 114.474 155.95 114.537C145.653 114.997 135.137 114.396 125.253 111.266C118.445 109.111 112.028 105.652 106.859 100.679C102.667 96.6508 99.4425 91.7636 97.0926 86.4548C95.1876 82.1453 93.8448 77.3361 92.8611 72.6284C92.1741 69.3494 91.7837 65.9534 90.8235 62.7446C90.7454 62.487 90.6595 62.2293 90.5658 61.9795L89.7539 63.4082C90.2145 63.3145 90.6829 63.2443 91.1514 63.174C91.5105 63.1194 91.1514 63.174 91.2373 63.1584C91.3778 63.1428 91.5105 63.1194 91.651 63.1037C91.9555 63.0647 92.26 63.0335 92.5645 63.0023C93.3061 62.9242 94.0478 62.8695 94.7895 62.8227C99.1614 62.5651 103.721 62.8071 107.851 63.4941C113.753 64.4778 119.499 66.3749 124.753 69.2635C131.288 72.8548 136.948 77.9138 141.382 83.9018C147.44 92.0759 151.305 101.647 153.78 111.469C154.162 112.975 154.506 114.49 154.826 116.005C155.146 117.519 157.371 116.848 157.067 115.388V115.403Z" fill="black"/>
<path d="M96.8974 68.6702C99.6065 71.27 102.519 73.6512 105.61 75.7825C108.702 77.9139 112.262 79.8812 115.564 81.9735C118.867 84.0658 121.88 86.3221 124.94 88.633C128.001 90.9439 130.671 93.3094 133.075 96.1434C135.636 99.1647 137.728 102.553 139.368 106.152C139.993 107.518 142.015 106.332 141.39 104.973C138.4 98.4152 133.864 92.7395 128.235 88.2504C125.222 85.8458 122.091 83.5427 118.906 81.3724C115.72 79.202 112.106 77.219 108.749 75.0642C105.087 72.7221 101.683 70.0209 98.5525 67.0151C97.4673 65.969 95.8044 67.6241 96.8974 68.6702Z" fill="#548C1E"/>
</svg>
