<svg width="346" height="249" viewBox="0 0 346 249" fill="none" xmlns="http://www.w3.org/2000/svg">
<path d="M173.145 161.823C260.279 161.823 330.915 156.012 330.915 148.843C330.915 141.675 260.279 135.863 173.145 135.863C86.0112 135.863 15.3752 141.675 15.3752 148.843C15.3752 156.012 86.0112 161.823 173.145 161.823Z" fill="#512B11" stroke="black" stroke-width="2.83" stroke-miterlimit="10"/>
<path d="M101.725 92.9434C101.725 92.9434 93.3651 126.163 131.075 139.223C168.785 152.283 211.585 103.253 194.375 71.9134C177.165 40.5634 156.605 40.0234 133.855 50.6834C111.105 61.3334 105.465 76.2334 101.725 92.9434Z" fill="#FC751A"/>
<path d="M100.295 92.5433C99.4252 96.0033 99.3152 99.7833 99.5252 103.323C99.9952 111.203 102.635 118.823 107.485 125.083C110.735 129.283 114.855 132.753 119.405 135.483C124.615 138.603 130.515 141.093 136.505 142.173C147.295 144.133 158.305 141.603 167.825 136.373C177.435 131.093 185.665 123.183 191.505 113.923C196.945 105.293 200.535 94.9333 199.665 84.6233C199.225 79.4633 197.645 74.6533 195.115 70.1533C191.645 63.9933 187.525 58.0533 182.345 53.2033C178.365 49.4733 173.735 46.4533 168.545 44.6933C163.845 43.1033 158.805 42.6533 153.875 43.1333C148.495 43.6533 143.275 45.1533 138.265 47.1533C131.985 49.6633 125.905 52.7933 120.525 56.9233C115.835 60.5333 111.775 64.8833 108.645 69.9233C105.805 74.5033 103.795 79.5633 102.275 84.7233C101.515 87.3033 100.875 89.9133 100.285 92.5333C99.8652 94.4033 102.735 95.1933 103.155 93.3233C105.435 83.1833 108.715 73.1833 115.785 65.3033C120.015 60.5833 125.195 56.8533 130.765 53.8733C135.825 51.1633 141.205 48.9033 146.755 47.4333C156.145 44.9533 165.875 45.4633 174.255 50.6833C179.175 53.7433 183.295 58.0233 186.735 62.6533C190.175 67.2833 193.865 72.8233 195.555 78.6333C198.205 87.7833 196.375 97.6533 192.375 106.133C187.945 115.533 180.955 123.803 172.535 129.873C164.115 135.943 154.355 139.873 144.045 139.883C138.545 139.883 133.295 138.623 128.215 136.553C123.135 134.483 118.145 131.603 114.045 127.833C108.065 122.343 104.225 115.103 102.915 107.113C102.475 104.463 102.345 101.563 102.475 98.7933C102.525 97.7633 102.615 96.7333 102.735 95.7133C102.775 95.3633 102.735 95.7133 102.735 95.6733C102.745 95.5833 102.755 95.4933 102.775 95.4033C102.805 95.2133 102.835 95.0233 102.865 94.8333C102.915 94.5533 102.955 94.2833 103.015 94.0033C103.055 93.7733 103.105 93.5533 103.165 93.3233C103.635 91.4633 100.765 90.6733 100.295 92.5333V92.5433Z" fill="black"/>
<path d="M175.605 124.183C177.295 131.773 183.535 136.653 190.935 138.203C196.375 139.333 198.705 130.983 193.235 129.843C188.625 128.883 185.035 126.673 183.965 121.883C182.755 116.443 174.395 118.743 175.605 124.183Z" fill="black"/>
<path d="M173.345 124.603C173.065 124.653 173.465 124.603 173.535 124.593C173.685 124.593 173.835 124.593 173.975 124.613C174.115 124.633 174.275 124.643 174.425 124.663C174.015 124.613 175.185 124.763 174.875 124.723C175.405 124.793 175.915 124.813 176.445 124.753C177.645 124.613 178.805 124.233 179.785 123.523C181.745 122.113 182.925 119.743 182.695 117.313C182.625 116.533 182.055 115.773 181.195 115.813C180.445 115.843 179.615 116.473 179.695 117.313C179.715 117.553 179.725 117.793 179.725 118.033C179.725 118.143 179.715 118.253 179.705 118.363C179.685 118.653 179.745 118.243 179.705 118.413C179.645 118.643 179.605 118.883 179.535 119.113C179.505 119.213 179.465 119.313 179.425 119.423C179.375 119.583 179.525 119.243 179.395 119.483C179.295 119.673 179.195 119.873 179.075 120.053C179.005 120.163 178.935 120.273 178.855 120.373C178.985 120.203 178.875 120.333 178.805 120.423C178.655 120.583 178.505 120.743 178.345 120.883C178.255 120.963 178.115 121.053 178.295 120.933C178.185 121.013 178.085 121.083 177.975 121.153C177.785 121.273 177.595 121.373 177.405 121.463C177.045 121.643 177.555 121.423 177.345 121.493C177.245 121.523 177.135 121.563 177.035 121.603C176.805 121.673 176.575 121.713 176.335 121.773C176.155 121.813 176.575 121.763 176.285 121.773C176.175 121.773 176.065 121.783 175.955 121.793C175.705 121.793 175.455 121.783 175.195 121.753L175.045 121.733C175.175 121.753 175.175 121.753 175.075 121.733C174.865 121.703 174.665 121.673 174.455 121.653C173.815 121.573 173.215 121.583 172.575 121.703C171.805 121.853 171.295 122.823 171.525 123.553C171.795 124.383 172.545 124.753 173.375 124.603H173.345Z" fill="black"/>
<path d="M124.365 127.173C158.145 158.513 183.935 130.743 183.935 130.743C177.975 126.723 160.285 99.1333 124.365 127.173Z" fill="#6BA534" stroke="black" stroke-width="2.83" stroke-miterlimit="10"/>
<path d="M177.365 129.483C173.975 128.983 170.565 128.793 167.135 128.983C163.705 129.173 160.385 129.503 156.985 129.473C153.585 129.443 150.325 129.453 147.075 128.793C143.825 128.133 140.905 126.993 138.105 125.373C136.425 124.403 134.915 126.993 136.595 127.963C139.345 129.553 142.325 130.773 145.425 131.493C148.765 132.273 152.175 132.393 155.595 132.453C162.605 132.573 169.575 131.363 176.565 132.383C178.455 132.663 179.265 129.773 177.365 129.493V129.483Z" fill="#548C1E"/>
<path d="M135.025 168.333C135.025 168.333 161.055 146.063 137.845 113.603C114.635 81.1434 51.3651 96.3834 47.2751 131.903C43.1851 167.423 59.6451 179.763 84.3651 184.223C109.085 188.693 122.305 179.803 135.025 168.333Z" fill="#FC751A"/>
<path d="M136.075 169.383C139.855 166.143 142.875 161.613 145.015 157.173C149.875 147.103 150.095 135.703 146.005 125.313C141.705 114.413 134.175 104.893 123.575 99.6434C114.635 95.2134 104.425 93.6933 94.5251 94.4233C84.6251 95.1533 74.8051 98.0134 66.2651 103.093C58.3751 107.783 51.5351 114.533 48.0151 123.123C45.9351 128.203 45.4351 133.683 45.2251 139.123C44.9951 145.123 45.3952 151.243 46.9852 157.063C49.5152 166.303 55.3052 173.953 63.6052 178.753C67.7952 181.183 72.4051 182.883 77.0751 184.123C83.3751 185.793 89.9351 186.843 96.4551 186.873C102.975 186.903 109.135 185.853 115.025 183.503C120.365 181.373 125.185 178.313 129.705 174.773C131.895 173.053 134.005 171.233 136.075 169.363C137.505 168.083 135.395 165.983 133.975 167.263C125.775 174.653 116.775 181.033 105.715 183.103C98.9651 184.363 91.9551 184.033 85.2151 182.853C80.3851 182.013 75.5851 180.823 71.0251 179.023C62.9351 175.843 56.0051 170.383 52.1551 162.463C49.9651 157.963 48.8451 152.953 48.4051 147.993C47.8751 142.063 47.9551 135.723 49.0951 129.863C50.7451 121.433 55.9952 114.293 62.6952 109.093C69.9952 103.433 78.8752 99.9033 87.9252 98.2433C96.9752 96.5833 106.895 96.8534 115.865 99.7134C125.325 102.733 133.045 108.693 138.405 117.033C144.845 127.033 148.025 138.963 144.445 150.583C142.585 156.613 139.185 162.203 134.745 166.553C134.495 166.793 134.245 167.033 133.985 167.263C132.525 168.513 134.645 170.613 136.085 169.363L136.075 169.383Z" fill="black"/>
<path d="M92.9252 99.7934C95.9052 92.4434 93.2551 85.1134 88.1351 79.5034C84.3651 75.3734 78.2452 81.5134 82.0052 85.6334C85.2452 89.1834 86.4152 92.9534 84.5652 97.4934C83.6752 99.6834 85.5352 102.233 87.5952 102.823C90.0652 103.533 92.0552 101.953 92.9252 99.7934Z" fill="black"/>
<path d="M95.1651 101.193C95.0451 101.133 94.9252 101.083 94.8152 101.013C94.7652 100.983 94.5251 100.813 94.6751 100.933C94.4651 100.773 94.2751 100.583 94.0851 100.403C93.6251 99.9733 93.1351 99.5434 92.5851 99.2234C91.5051 98.5734 90.2251 98.2234 88.9651 98.2334C86.5151 98.2334 84.2251 99.6234 82.9951 101.733C82.0251 103.403 84.6151 104.913 85.5851 103.243C85.9751 102.573 86.4252 102.113 87.1252 101.723C87.2152 101.673 87.3051 101.623 87.3951 101.583C87.4351 101.563 87.7351 101.443 87.5251 101.523C87.7151 101.453 87.9051 101.393 88.1051 101.343C88.2051 101.323 88.3051 101.293 88.4051 101.273C88.8851 101.173 88.2952 101.273 88.5652 101.253C88.8052 101.233 89.0551 101.233 89.2951 101.253C89.6351 101.273 89.9251 101.333 90.4051 101.503C90.6751 101.593 90.5651 101.553 90.8651 101.713C91.0551 101.813 91.2451 101.933 91.4151 102.053C91.2751 101.953 91.5151 102.133 91.5551 102.173C91.6351 102.243 91.7151 102.313 91.7951 102.383C91.9751 102.543 92.1451 102.713 92.3251 102.873C92.7351 103.233 93.1651 103.583 93.6651 103.813C94.3951 104.153 95.2851 104.023 95.7151 103.273C96.0951 102.623 95.9151 101.563 95.1751 101.223L95.1651 101.193Z" fill="black"/>
<path d="M136.355 127.313C126.925 82.2033 89.8251 89.9433 89.8251 89.9433C92.3551 96.6633 90.8352 129.403 136.355 127.313Z" fill="#6BA534" stroke="black" stroke-width="2.83" stroke-miterlimit="10"/>
<path d="M94.5652 94.8833C96.9752 97.1833 99.6052 99.2534 102.425 101.043C105.425 102.943 108.505 104.683 111.375 106.783C114.035 108.713 116.705 110.643 118.945 113.063C121.185 115.483 122.845 118.083 124.175 120.973C124.975 122.723 127.565 121.203 126.765 119.463C125.415 116.533 123.645 113.823 121.495 111.413C119.345 109.003 116.655 106.963 114.005 105.013C108.285 100.803 101.855 97.7034 96.6852 92.7734C95.2852 91.4434 93.1652 93.5534 94.5652 94.8934V94.8833Z" fill="#548C1E"/>
<path d="M171.025 133.523C171.025 133.523 195.775 157.213 225.765 130.883C255.755 104.553 234.295 43.1234 198.535 42.5834C162.785 42.0534 152.145 59.6534 150.165 84.7034C148.185 109.743 158.345 122.013 171.025 133.523Z" fill="#FC751A"/>
<path d="M169.975 134.573C173.795 138.213 178.855 140.853 183.775 142.593C194.885 146.513 206.835 144.853 216.985 139.053C227.205 133.213 235.225 124.533 238.935 113.283C242.085 103.723 242.125 93.2835 240.075 83.4835C238.025 73.6835 233.775 64.3135 227.485 56.5435C221.735 49.4435 213.895 43.6735 204.835 41.7935C199.115 40.6035 193.005 40.9335 187.235 41.6035C181.465 42.2735 176.125 43.5035 170.985 45.8535C162.465 49.7435 156.255 56.7035 152.775 65.3335C150.985 69.7835 149.935 74.5034 149.285 79.2534C148.395 85.7634 148.105 92.3835 148.965 98.9035C149.755 104.893 151.515 110.693 154.395 116.013C156.975 120.783 160.395 125.063 164.145 128.953C166.025 130.903 167.985 132.753 169.985 134.573C171.395 135.863 173.515 133.763 172.085 132.473C164.305 125.393 157.175 117.493 153.855 107.303C150.305 96.4234 150.765 84.0735 153.445 73.0335C155.445 64.8135 159.435 56.9834 166.425 51.9234C175.325 45.4834 186.815 44.0034 197.525 44.0634C206.335 44.1134 214.305 47.6735 220.725 53.6535C227.515 59.9835 232.335 68.3034 235.255 77.0634C238.255 86.0834 239.405 95.9134 237.825 105.323C236.275 114.583 232.075 123.233 225.035 129.553C215.735 137.913 203.465 143.533 190.775 141.343C186.705 140.643 182.775 139.263 179.135 137.303C177.775 136.573 176.465 135.773 175.195 134.903C174.135 134.173 173.725 133.863 172.905 133.173C172.625 132.943 172.355 132.713 172.085 132.463C170.695 131.143 168.595 133.243 169.985 134.563L169.975 134.573Z" fill="black"/>
<path d="M234.605 84.7135C242.165 86.9535 249.325 84.0635 254.455 78.3335C258.165 74.1835 252.055 68.0334 248.325 72.2034C245.185 75.7034 241.625 77.7435 236.915 76.3535C231.555 74.7635 229.265 83.1335 234.615 84.7135H234.605Z" fill="black"/>
<path d="M233.945 86.9435C234.095 86.5035 233.885 87.0335 234.005 86.7935C234.065 86.6735 234.135 86.5635 234.205 86.4535C234.355 86.2335 234.515 86.0235 234.675 85.8135C235.025 85.3635 235.335 84.9035 235.565 84.3835C236.085 83.2235 236.335 81.9535 236.185 80.6935C235.905 78.3335 234.445 76.1835 232.255 75.1835C231.515 74.8535 230.645 74.9735 230.205 75.7235C229.825 76.3635 230.005 77.4435 230.745 77.7735C230.945 77.8635 231.145 77.9635 231.335 78.0735C231.445 78.1335 231.545 78.2035 231.645 78.2735C231.715 78.3235 231.815 78.4035 231.695 78.3035C231.865 78.4435 232.025 78.5935 232.175 78.7535C232.245 78.8235 232.305 78.9035 232.375 78.9735C232.475 79.0835 232.315 78.8735 232.455 79.0735C232.585 79.2535 232.695 79.4435 232.805 79.6335C232.855 79.7235 232.895 79.8035 232.935 79.8935C233.005 80.0335 232.905 79.7635 232.985 80.0135C233.055 80.2335 233.125 80.4535 233.175 80.6835C233.175 80.7135 233.225 80.9835 233.215 80.8835C233.205 80.7835 233.235 81.1735 233.235 81.1635C233.275 82.0135 233.115 82.7235 232.685 83.4335C232.135 84.3635 231.415 85.0735 231.045 86.1235C230.785 86.8935 231.345 87.7635 232.095 87.9735C232.915 88.2035 233.675 87.6935 233.945 86.9235V86.9435Z" fill="black"/>
<path d="M211.965 130.763C255.905 116.893 244.515 80.7434 244.515 80.7434C238.075 83.9334 205.355 85.6834 211.965 130.763Z" fill="#6BA534" stroke="black" stroke-width="2.83" stroke-miterlimit="10"/>
<path d="M240.175 85.8334C238.115 88.4734 236.305 91.2534 234.805 94.2434C233.215 97.4234 231.785 100.653 229.985 103.723C228.325 106.553 226.695 109.433 224.525 111.903C222.355 114.373 219.955 116.303 217.195 117.923C215.535 118.903 217.035 121.493 218.705 120.513C221.485 118.883 224.035 116.873 226.215 114.503C228.395 112.133 230.185 109.273 231.865 106.433C235.475 100.333 237.895 93.5834 242.295 87.9534C243.465 86.4534 241.365 84.3134 240.175 85.8334Z" fill="#548C1E"/>
<path d="M173.475 89.5735C173.475 89.5735 140.005 82.2835 128.155 120.393C116.315 158.503 166.685 199.703 197.465 181.503C228.245 163.303 228.125 142.733 216.745 120.333C205.365 97.9335 190.295 92.7735 173.475 89.5735Z" fill="#FC751A"/>
<path d="M173.865 88.1434C170.455 87.4034 166.785 87.3934 163.325 87.6834C155.515 88.3534 148.065 91.1334 141.915 96.0334C137.915 99.2234 134.615 103.273 132.035 107.683C128.975 112.913 126.595 118.853 125.545 124.833C123.655 135.583 126.235 146.523 131.545 155.953C136.925 165.513 144.975 173.623 154.315 179.343C163.045 184.693 173.475 188.193 183.815 187.293C188.755 186.863 193.565 185.463 197.865 182.993C204.075 179.433 210.065 175.073 214.935 169.793C218.735 165.673 221.835 160.893 223.595 155.553C225.175 150.763 225.575 145.623 224.985 140.623C224.345 135.193 222.705 129.993 220.555 124.973C217.885 118.733 214.535 112.743 210.265 107.443C206.505 102.773 201.925 98.7634 196.725 95.7634C192.025 93.0534 186.875 91.1934 181.635 89.8334C179.065 89.1734 176.465 88.6234 173.855 88.1234C171.985 87.7634 171.185 90.6334 173.065 90.9934C183.335 92.9534 193.515 95.9334 201.635 102.823C206.465 106.923 210.345 111.983 213.495 117.453C216.385 122.483 218.845 127.843 220.475 133.413C221.835 138.063 222.545 142.903 222.155 147.753C221.765 152.603 220.115 157.303 217.565 161.463C214.415 166.593 210.005 170.903 205.225 174.523C200.445 178.143 195.405 181.593 189.665 183.223C180.535 185.813 170.655 184.033 162.155 180.143C152.745 175.843 144.375 169.023 138.195 160.723C132.015 152.423 127.945 142.693 127.865 132.393C127.825 126.813 129.115 121.483 131.145 116.313C133.175 111.143 135.845 106.463 139.465 102.433C144.755 96.5334 151.755 92.6534 159.525 91.1734C162.165 90.6734 164.905 90.4534 167.695 90.5034C168.725 90.5234 169.755 90.5734 170.785 90.6734C171.165 90.7134 171.535 90.7534 171.915 90.8034C171.455 90.7434 172.175 90.8434 172.415 90.8834C172.635 90.9234 172.865 90.9534 173.085 91.0034C174.955 91.4034 175.755 88.5434 173.875 88.1334L173.865 88.1434Z" fill="black"/>
<path d="M144.755 164.383C137.215 166.323 132.455 172.563 131.145 180.053C130.745 182.353 131.765 184.723 134.175 185.383C136.265 185.953 139.095 184.673 139.505 182.353C140.315 177.763 142.315 173.963 147.065 172.733C152.465 171.343 150.175 162.983 144.765 164.373L144.755 164.383Z" fill="black"/>
<path d="M144.105 162.123C144.175 162.453 144.135 161.993 144.135 162.313C144.135 162.463 144.135 162.613 144.135 162.753C144.125 163.053 144.085 163.353 144.055 163.653C143.995 164.293 144.015 164.903 144.115 165.533C144.275 166.623 144.735 167.683 145.395 168.553C146.855 170.453 149.245 171.593 151.655 171.283C152.435 171.183 153.195 170.663 153.155 169.783C153.125 169.053 152.485 168.183 151.655 168.283C151.425 168.313 151.195 168.333 150.955 168.333C150.845 168.333 150.745 168.333 150.635 168.333C150.585 168.333 150.165 168.273 150.525 168.333C150.315 168.303 150.105 168.253 149.905 168.203C149.785 168.173 149.665 168.133 149.545 168.093C149.505 168.083 149.185 167.953 149.365 168.033C149.545 168.113 149.235 167.963 149.195 167.953C149.085 167.893 148.975 167.833 148.865 167.773C148.775 167.723 148.685 167.663 148.595 167.603C148.485 167.533 148.385 167.433 148.545 167.573C148.365 167.423 148.195 167.263 148.035 167.093C147.965 167.013 147.895 166.933 147.825 166.853C148.035 167.083 147.785 166.793 147.755 166.753C147.635 166.573 147.525 166.393 147.425 166.203C147.365 166.093 147.315 165.973 147.255 165.863C147.345 166.053 147.285 165.933 147.245 165.803C147.165 165.583 147.105 165.353 147.055 165.133C147.055 165.093 146.985 164.743 147.015 164.953C147.045 165.163 147.005 164.813 147.005 164.773C146.975 164.253 147.035 163.733 147.085 163.213C147.145 162.573 147.125 161.963 146.985 161.343C146.815 160.573 145.885 160.053 145.135 160.293C144.325 160.553 143.905 161.313 144.085 162.143L144.105 162.123Z" fill="black"/>
<path d="M139.985 113.293C109.745 148.063 138.325 172.953 138.325 172.953C142.155 166.873 169.155 148.303 139.985 113.293Z" fill="#6BA534" stroke="black" stroke-width="2.83" stroke-miterlimit="10"/>
<path d="M139.415 165.993C139.795 162.643 139.835 159.283 139.525 155.923C139.215 152.563 138.805 149.353 138.735 146.033C138.665 142.713 138.525 139.463 139.065 136.243C139.605 133.023 140.665 129.923 142.205 127.033C143.115 125.333 140.525 123.813 139.615 125.523C138.065 128.423 136.905 131.543 136.295 134.783C135.645 138.203 135.665 141.653 135.725 145.113C135.835 152.123 137.225 158.983 136.425 166.003C136.205 167.923 139.205 167.903 139.425 166.003L139.415 165.993Z" fill="#548C1E"/>
<path d="M183.235 156.353C183.235 156.353 185.195 190.553 225.095 191.733C264.985 192.913 291.155 133.323 265.355 108.563C239.555 83.8034 219.775 89.4334 201.255 106.413C182.735 123.383 181.805 139.293 183.235 156.353Z" fill="#FC751A"/>
<path d="M181.745 156.353C181.945 159.743 182.875 163.173 184.025 166.343C186.625 173.463 191.045 179.783 197.085 184.393C205.765 191.013 217.455 193.733 228.245 193.183C238.335 192.663 247.725 188.313 255.335 181.783C263.065 175.153 268.915 166.423 272.695 157.003C276.325 147.943 278.015 137.933 276.625 128.223C275.975 123.723 274.585 119.303 272.385 115.323C269.575 110.233 265.365 106.283 260.905 102.623C251.025 94.5133 238.885 88.5333 225.825 90.8833C220.325 91.8733 215.125 94.2734 210.455 97.2934C204.615 101.073 199.215 105.803 194.615 111.013C190.015 116.223 186.125 122.403 183.875 129.163C181.925 135.013 181.245 141.213 181.285 147.353C181.305 150.353 181.495 153.353 181.735 156.353C181.895 158.253 184.875 158.263 184.715 156.353C184.235 150.533 183.985 144.643 184.715 138.833C185.495 132.723 187.475 126.833 190.585 121.523C194.305 115.183 199.425 109.793 205.005 105.063C209.285 101.433 213.985 98.1634 219.175 95.9734C223.935 93.9634 229.085 93.0034 234.245 93.3934C240.125 93.8334 245.735 96.0733 250.775 99.0633C254.045 101.013 257.115 103.283 260.015 105.753C262.375 107.763 264.725 109.843 266.705 112.233C269.365 115.453 271.285 119.263 272.485 123.253C275.085 131.923 274.425 141.313 271.965 149.933C269.335 159.173 264.565 167.893 258.075 174.973C251.585 182.053 243.615 187.313 234.365 189.373C229.215 190.523 223.885 190.443 218.675 189.743C213.465 189.043 208.415 187.613 203.805 185.173C197.005 181.583 191.685 175.913 188.345 169.003C187.205 166.633 186.285 164.093 185.615 161.443C185.375 160.493 185.165 159.533 184.995 158.573C184.935 158.213 184.875 157.863 184.825 157.503C184.765 157.103 184.855 157.823 184.815 157.393C184.805 157.263 184.785 157.133 184.765 157.003C184.745 156.783 184.715 156.563 184.705 156.343C184.595 154.443 181.615 154.423 181.725 156.343L181.745 156.353Z" fill="black"/>
<path d="M262.975 163.893C266.915 170.643 274.115 173.563 281.745 172.843C287.255 172.323 287.305 163.653 281.745 164.173C277.125 164.613 272.935 163.753 270.465 159.513C267.655 154.703 260.155 159.053 262.975 163.893Z" fill="black"/>
<path d="M260.985 165.173C261.285 165.013 260.805 165.203 261.105 165.103C261.235 165.063 261.355 165.023 261.485 164.993C261.765 164.923 262.055 164.873 262.345 164.833C262.845 164.743 263.335 164.643 263.815 164.453C264.895 164.023 265.895 163.373 266.645 162.473C268.245 160.533 268.795 157.803 267.805 155.443C267.505 154.723 266.795 154.123 265.955 154.393C265.265 154.613 264.585 155.463 264.905 156.243C265.005 156.473 265.085 156.703 265.145 156.943C265.185 157.073 265.215 157.203 265.235 157.333C265.255 157.463 265.275 157.623 265.255 157.403C265.275 157.653 265.295 157.893 265.285 158.143C265.285 158.253 265.275 158.363 265.265 158.483C265.235 158.903 265.335 158.203 265.245 158.613C265.195 158.853 265.135 159.093 265.065 159.333C265.025 159.443 264.995 159.543 264.945 159.653C265.065 159.363 264.895 159.733 264.875 159.773C264.775 159.973 264.655 160.153 264.525 160.343C264.435 160.463 264.365 160.523 264.505 160.373C264.425 160.463 264.345 160.553 264.265 160.643C264.125 160.793 263.975 160.923 263.825 161.063C263.575 161.293 264.005 160.953 263.745 161.123C263.645 161.193 263.545 161.263 263.445 161.323C263.275 161.433 263.095 161.523 262.915 161.613C262.565 161.793 263.195 161.523 262.825 161.653C262.715 161.693 262.595 161.733 262.485 161.763C261.455 162.063 260.425 162.093 259.455 162.613C258.765 162.983 258.485 164.003 258.915 164.663C259.365 165.363 260.225 165.603 260.965 165.203L260.985 165.173Z" fill="black"/>
<path d="M215.075 182.243C256.685 202.043 272.985 167.823 272.985 167.823C266.095 165.773 240.965 144.743 215.075 182.243Z" fill="#6BA534" stroke="black" stroke-width="2.83" stroke-miterlimit="10"/>
<path d="M265.995 168.653C262.825 169.163 259.715 169.963 256.705 171.083C253.515 172.263 250.415 173.613 247.155 174.603C244.095 175.533 240.995 176.533 237.815 176.933C234.445 177.353 231.025 177.173 227.705 176.433C225.825 176.013 225.025 178.903 226.905 179.323C230.235 180.063 233.675 180.343 237.075 180.013C240.475 179.683 243.775 178.733 247.055 177.763C250.335 176.793 253.575 175.473 256.815 174.233C260.055 172.993 263.365 172.093 266.775 171.553C268.675 171.253 267.865 168.363 265.975 168.663L265.995 168.653Z" fill="#548C1E"/>
<path d="M16.5552 153.023L20.5652 157.033C42.8152 179.283 72.9952 204.783 104.465 204.783H239.625C271.095 204.783 301.275 179.283 323.525 157.033L328.945 151.613C331.475 149.083 329.675 144.763 326.095 144.783C326.095 144.783 223.155 160.953 169.725 160.953C116.295 160.953 19.3652 146.193 19.3652 146.193C15.8052 146.213 14.0352 150.513 16.5552 153.023Z" fill="#8C4414"/>
<path d="M15.5052 154.083C26.1352 164.713 36.9652 175.123 49.0552 184.123C63.1652 194.623 79.2952 203.623 96.9952 205.813C101.795 206.413 106.625 206.283 111.455 206.283H133.665C143.865 206.283 154.065 206.283 164.265 206.283H238.525C250.615 206.283 262.175 203.043 273.005 197.773C289.325 189.843 303.635 178.093 316.755 165.703C321.105 161.593 325.325 157.343 329.555 153.113C331.475 151.193 332.305 148.543 330.875 146.043C329.815 144.193 327.715 143.103 325.605 143.363C320.855 143.953 316.125 144.803 311.395 145.493C300.705 147.053 289.995 148.533 279.275 149.933C265.315 151.753 251.345 153.443 237.345 154.923C223.125 156.433 208.885 157.743 194.605 158.603C182.125 159.353 169.655 159.663 157.155 159.233C142.755 158.743 128.375 157.633 114.025 156.313C99.5252 154.973 85.0552 153.373 70.6052 151.623C59.0752 150.223 47.5552 148.723 36.0552 147.113C30.7052 146.363 25.3551 145.583 20.0151 144.803C14.6751 144.023 12.1752 150.443 15.5052 154.083C16.8052 155.503 18.9052 153.393 17.6052 151.983C16.3052 150.573 17.0552 147.783 19.0652 147.653C19.5052 147.623 20.0452 147.803 20.4752 147.863C22.9152 148.223 25.3652 148.583 27.8052 148.933C37.3852 150.303 46.9852 151.603 56.5852 152.843C70.0452 154.573 83.5352 156.183 97.0352 157.603C111.475 159.123 125.945 160.453 140.445 161.373C153.025 162.173 165.635 162.663 178.245 162.323C191.465 161.963 204.665 160.993 217.825 159.813C231.995 158.543 246.135 157.003 260.255 155.293C272.685 153.793 285.105 152.173 297.505 150.443C305.525 149.333 313.535 148.173 321.545 146.963C323.045 146.733 324.725 146.233 326.245 146.243C327.575 146.243 328.755 147.623 328.625 149.043C328.535 149.953 327.905 150.533 327.305 151.133L324.735 153.703C313.445 164.993 301.785 175.963 288.615 185.063C274.555 194.783 258.245 202.923 240.815 203.283C237.545 203.353 234.265 203.293 230.995 203.293H105.605C93.9352 203.293 82.7852 200.193 72.3352 195.083C56.3252 187.253 42.3052 175.763 29.4152 163.593C25.3952 159.793 21.4952 155.883 17.5852 151.973C16.2252 150.613 14.1252 152.723 15.4852 154.073L15.5052 154.083Z" fill="black"/>
</svg>
