<svg width="308" height="383" viewBox="0 0 308 383" fill="none" xmlns="http://www.w3.org/2000/svg">
<path d="M53.1762 205.575C53.3162 198.835 53.3762 192.095 53.3962 185.355C53.4062 182.185 53.4062 179.005 53.3962 175.835C53.3862 172.665 53.2262 169.375 53.3662 166.155C53.4262 164.875 53.4862 164.245 53.6662 163.275C53.8662 162.165 54.1562 161.075 54.5262 160.015C54.5962 159.835 54.6663 159.655 54.7263 159.475C55.0463 158.605 54.4363 160.005 54.8563 159.195C55.0663 158.785 55.2662 158.375 55.4962 157.975C55.7262 157.575 55.9563 157.205 56.2163 156.845C56.3163 156.705 56.4162 156.555 56.5262 156.415C56.1062 156.985 56.5762 156.365 56.6862 156.245C57.2562 155.585 57.8762 155.015 58.5262 154.435C59.1762 153.855 57.9963 154.775 58.6963 154.305C58.8363 154.205 58.9762 154.105 59.1162 154.005C59.5462 153.715 59.9963 153.445 60.4463 153.195C60.8363 152.985 61.2362 152.795 61.6262 152.605C62.4162 152.215 61.0163 152.815 61.8563 152.505C62.0263 152.445 62.1962 152.375 62.3662 152.315C63.3262 151.965 64.3163 151.685 65.3163 151.465C65.7863 151.365 66.2663 151.265 66.7363 151.185C66.9263 151.155 67.1263 151.125 67.3163 151.095C66.5963 151.205 67.5862 151.065 67.6562 151.055C68.7862 150.935 69.9263 150.865 71.0663 150.855C72.2063 150.845 73.2862 150.865 74.3962 150.965C74.6062 150.985 74.8162 151.005 75.0262 151.025C76.0362 151.105 74.4262 150.905 75.4062 151.075C75.9362 151.165 76.4762 151.255 76.9962 151.375C77.8862 151.575 78.7762 151.825 79.6362 152.135C79.8562 152.215 80.8562 152.655 80.1862 152.335C80.6362 152.545 81.0762 152.755 81.5162 152.985C82.2062 153.365 82.8362 153.805 83.4962 154.235C84.1562 154.665 82.9963 153.775 83.5662 154.285C83.6763 154.385 83.7962 154.475 83.9062 154.575C84.2362 154.865 84.5562 155.155 84.8662 155.465C85.1162 155.715 85.3563 155.975 85.5963 156.245C85.7263 156.395 86.4562 157.345 85.8962 156.575C86.3362 157.175 86.7662 157.795 87.1462 158.445C87.4762 159.015 87.7863 159.605 88.0662 160.205C88.1162 160.325 88.1663 160.445 88.2263 160.555C88.5263 161.185 87.9663 159.855 88.2063 160.505C88.3263 160.835 88.4563 161.155 88.5763 161.485C89.0363 162.795 89.3862 164.145 89.6262 165.515C89.6762 165.805 89.7262 166.095 89.7762 166.395C89.9262 167.325 89.7162 165.755 89.7962 166.535C89.8462 167.085 89.9063 167.635 89.9463 168.185C90.0163 169.275 90.0563 170.395 89.9563 171.485C89.8063 173.205 91.5262 174.675 93.1462 174.675C94.9962 174.675 96.1863 173.205 96.3363 171.485C96.6263 168.065 96.0962 164.385 95.1462 161.115C93.1262 154.115 88.3763 148.555 81.4763 146.025C77.1363 144.435 72.2362 144.195 67.6762 144.685C63.1162 145.175 58.9662 146.285 55.3862 148.885C51.8062 151.485 49.1563 155.355 47.9563 159.765C46.3363 165.695 47.0362 172.145 47.0462 178.215C47.0662 187.345 47.0163 196.475 46.8263 205.605C46.7363 209.715 53.1163 209.715 53.2063 205.605L53.1762 205.575Z" fill="black"/>
<path d="M162.846 338.495H29.3763C25.0663 338.495 21.5663 334.995 21.5663 330.685V212.115C21.5663 207.805 25.0663 204.305 29.3763 204.305H162.846C167.156 204.305 170.656 207.805 170.656 212.115V330.685C170.656 334.995 167.156 338.495 162.846 338.495Z" fill="#CCA789"/>
<path d="M162.846 337.005H149.946C139.576 337.005 129.196 337.005 118.826 337.005H80.8662C69.7562 337.005 58.6463 337.005 47.5463 337.005C41.6963 337.005 35.8563 337.005 30.0063 337.005C26.1963 337.005 23.0963 334.495 23.0663 330.505C23.0463 328.215 23.0663 325.925 23.0663 323.645V241.705C23.0663 231.885 22.9263 222.045 23.0663 212.225C23.1163 208.685 25.8163 205.865 29.3863 205.805C29.6963 205.805 29.9963 205.805 30.3063 205.805H160.016C161.716 205.805 163.646 205.615 165.246 206.265C167.716 207.275 169.156 209.665 169.176 212.275C169.176 212.855 169.176 213.445 169.176 214.025C169.176 221.465 169.176 228.915 169.176 236.355C169.176 243.795 169.176 260.555 169.176 272.655V308.485C169.176 315.475 169.176 322.465 169.176 329.445C169.176 329.845 169.176 330.255 169.176 330.665C169.116 334.185 166.376 336.935 162.856 337.015C160.946 337.055 160.936 340.035 162.856 339.995C167.376 339.895 171.346 336.665 172.026 332.125C172.146 331.365 172.146 330.625 172.146 329.865V322.615C172.146 312.605 172.146 302.595 172.146 292.585V254.145C172.146 243.605 172.146 233.075 172.146 222.535V213.925C172.146 213.365 172.146 212.795 172.146 212.235C172.106 209.175 170.746 206.385 168.266 204.575C165.936 202.865 163.346 202.825 160.646 202.825H30.2163C29.7063 202.825 29.1963 202.815 28.6963 202.855C24.1363 203.235 20.5063 206.865 20.1263 211.425C20.0263 212.665 20.0963 213.925 20.0963 215.165V223.025C20.0963 230.585 20.0963 238.145 20.0963 245.715C20.0963 253.285 20.0963 262.955 20.0963 271.565V309.255C20.0963 316.355 19.9963 323.455 20.0963 330.555C20.1763 335.935 24.3763 339.965 29.7163 339.985C31.5563 339.985 33.3863 339.985 35.2263 339.985C44.0863 339.985 52.9363 339.985 61.7963 339.985C74.2763 339.985 86.7662 339.985 99.2462 339.985C111.726 339.985 123.586 339.985 135.756 339.985H162.856C164.776 339.985 164.776 337.005 162.856 337.005H162.846Z" fill="black"/>
<path d="M46.6763 233.855H46.6663C45.0425 233.855 43.7263 235.171 43.7263 236.795V257.695C43.7263 259.319 45.0425 260.635 46.6663 260.635H46.6763C48.3 260.635 49.6162 259.319 49.6162 257.695V236.795C49.6162 235.171 48.3 233.855 46.6763 233.855Z" fill="black"/>
<path d="M46.6663 259.145C45.0763 259.145 45.2064 257.505 45.2064 256.405V238.705C45.2064 237.805 44.9464 236.325 45.7364 235.685C46.7264 234.865 48.0263 235.625 48.1263 236.815C48.1463 237.095 48.1263 237.395 48.1263 237.675V255.785C48.1263 257.035 48.4663 259.045 46.6663 259.155C44.7663 259.265 44.7463 262.245 46.6663 262.135C49.5363 261.965 51.0964 259.795 51.0964 257.085V237.685C51.0964 235.365 50.2264 233.155 47.7364 232.515C44.7364 231.745 42.2764 234.205 42.2364 237.095C42.1764 241.345 42.2364 245.605 42.2364 249.855V256.785C42.2364 257.345 42.2163 257.895 42.3063 258.445C42.6563 260.545 44.5363 262.135 46.6663 262.135C48.5863 262.135 48.5863 259.155 46.6663 259.155V259.145Z" fill="black"/>
<path d="M150.886 126.765H28.7162C24.7662 126.765 21.5663 123.265 21.5663 118.955V50.385C21.5663 46.075 24.7662 42.575 28.7162 42.575H150.886C154.836 42.575 158.036 46.075 158.036 50.385V118.955C158.036 123.265 154.836 126.765 150.886 126.765Z" fill="#CCA789"/>
<path d="M150.886 125.275H93.1662C83.6162 125.275 74.0762 125.275 64.5262 125.275C56.7262 125.275 48.9262 125.275 41.1262 125.275C37.1462 125.275 33.1663 125.275 29.1863 125.275C25.6063 125.275 23.1062 122.515 23.0462 118.945C23.0062 116.675 23.0462 114.405 23.0462 112.125V57.255C23.0462 54.855 22.9462 52.4251 23.0462 50.0151C23.2062 46.4951 25.8762 44.0551 29.2962 44.0551H133.526C138.636 44.0551 143.736 44.0551 148.846 44.0551C149.756 44.0551 150.736 43.965 151.636 44.105C154.656 44.565 156.476 47.495 156.526 50.375C156.526 50.755 156.526 51.1351 156.526 51.5151V99.445C156.526 105.665 156.526 111.885 156.526 118.105C156.526 118.505 156.536 118.905 156.526 119.305C156.386 122.395 154.076 125.185 150.876 125.265C148.966 125.315 148.956 128.285 150.876 128.245C156.136 128.115 159.496 123.565 159.506 118.565C159.506 116.545 159.506 114.525 159.506 112.505V51.6651C159.506 48.1551 158.636 44.795 155.616 42.625C152.596 40.455 147.716 41.085 144.086 41.085H29.2362C25.4062 41.085 22.1763 43.1951 20.7463 46.7951C19.6863 49.4551 20.0663 52.765 20.0663 55.575C20.0663 64.135 20.0663 72.695 20.0663 81.255C20.0663 89.815 20.0663 91.995 20.0663 97.365C20.0663 104.555 19.9463 111.745 20.0663 118.935C20.1463 123.895 23.7462 128.175 28.8562 128.255C29.9962 128.275 31.1362 128.255 32.2762 128.255H106.696C115.366 128.255 124.046 128.255 132.716 128.255C138.046 128.255 143.376 128.255 148.706 128.255H150.876C152.796 128.255 152.796 125.275 150.876 125.275H150.886Z" fill="black"/>
<path d="M46.6763 72.125H46.6663C45.0425 72.125 43.7263 73.4413 43.7263 75.0651V95.965C43.7263 97.5887 45.0425 98.905 46.6663 98.905H46.6763C48.3 98.905 49.6162 97.5887 49.6162 95.965V75.0651C49.6162 73.4413 48.3 72.125 46.6763 72.125Z" fill="black"/>
<path d="M46.6663 97.415C45.0763 97.415 45.2064 95.7751 45.2064 94.6751V76.975C45.2064 76.075 44.9464 74.595 45.7364 73.955C46.7264 73.135 48.0263 73.895 48.1263 75.085C48.1463 75.365 48.1263 75.6649 48.1263 75.9449V94.0551C48.1263 95.3051 48.4663 97.3151 46.6663 97.4251C44.7663 97.5351 44.7463 100.515 46.6663 100.405C49.5363 100.235 51.0964 98.065 51.0964 95.355V75.955C51.0964 73.635 50.2264 71.425 47.7364 70.785C44.7364 70.015 42.2764 72.475 42.2364 75.365C42.1764 79.615 42.2364 83.875 42.2364 88.125V95.0551C42.2364 95.6151 42.2163 96.165 42.3063 96.715C42.6563 98.815 44.5363 100.405 46.6663 100.405C48.5863 100.405 48.5863 97.4251 46.6663 97.4251V97.415Z" fill="black"/>
<path d="M279.306 338.495H158.036V204.305H279.306C283.616 204.305 287.116 207.805 287.116 212.115V330.685C287.116 334.995 283.616 338.495 279.306 338.495Z" fill="#E3E5E5"/>
<path d="M279.306 337.005H162.976C161.446 337.005 159.766 336.805 158.246 337.005C158.176 337.005 158.106 337.005 158.036 337.005L159.526 338.495V204.305L158.036 205.795H170.876C181.006 205.795 191.146 205.795 201.276 205.795C213.316 205.795 225.346 205.795 237.386 205.795H276.336C277.816 205.795 279.506 205.625 280.936 206.005C283.766 206.765 285.586 209.315 285.626 212.195C285.626 212.675 285.626 213.145 285.626 213.625V249.745C285.626 261.745 285.626 273.755 285.626 285.755C285.626 297.755 285.626 306.545 285.626 316.945C285.626 321.515 285.706 326.095 285.626 330.665C285.566 334.175 282.816 336.925 279.306 337.005C277.396 337.045 277.386 340.025 279.306 339.985C283.606 339.895 287.536 336.925 288.396 332.615C288.566 331.735 288.606 330.875 288.606 329.995V323.595C288.606 314.385 288.606 305.175 288.606 295.965C288.606 286.755 288.606 271.655 288.606 259.495V227.225C288.606 222.215 288.686 217.205 288.606 212.195C288.516 206.855 284.286 202.855 278.996 202.835C277.176 202.835 275.356 202.835 273.536 202.835H247.346C235.296 202.835 223.246 202.835 211.186 202.835C199.976 202.835 188.756 202.835 177.546 202.835H158.036C157.236 202.835 156.546 203.515 156.546 204.325V316.605C156.546 323.795 156.346 331.015 156.546 338.195C156.546 338.295 156.546 338.405 156.546 338.505C156.546 339.305 157.226 339.995 158.036 339.995H264.396C269.286 339.995 274.216 340.185 279.106 339.995C279.176 339.995 279.246 339.995 279.316 339.995C281.236 339.995 281.236 337.015 279.316 337.015L279.306 337.005Z" fill="black"/>
<path d="M267.336 161.055C263.516 161.055 259.696 161.055 255.876 161.055L257.366 162.545V158.285L255.876 159.775C259.656 159.775 263.446 159.725 267.226 159.775C268.176 159.785 268.186 161.025 267.326 161.065C265.416 161.145 265.406 164.125 267.326 164.045C270.076 163.925 271.916 160.935 270.386 158.505C269.536 157.155 268.136 156.815 266.666 156.815C263.926 156.815 261.186 156.815 258.446 156.815C257.586 156.815 256.726 156.815 255.866 156.815C255.066 156.815 254.376 157.495 254.376 158.305V162.565C254.376 163.365 255.056 164.055 255.866 164.055C259.686 164.055 263.506 164.055 267.326 164.055C269.246 164.055 269.246 161.075 267.326 161.075L267.336 161.055Z" fill="black"/>
<path d="M177.806 159.765C181.626 159.765 185.446 159.765 189.266 159.765L187.776 158.275V162.535L189.266 161.045C185.486 161.045 181.696 161.095 177.916 161.045C176.966 161.035 176.956 159.795 177.816 159.755C179.726 159.675 179.736 156.695 177.816 156.775C175.066 156.895 173.226 159.885 174.756 162.315C175.606 163.665 177.006 164.005 178.476 164.005H186.696C187.556 164.005 188.416 164.005 189.276 164.005C190.076 164.005 190.766 163.325 190.766 162.515V158.255C190.766 157.455 190.086 156.765 189.276 156.765C185.456 156.765 181.636 156.765 177.816 156.765C175.896 156.765 175.896 159.745 177.816 159.745L177.806 159.765Z" fill="black"/>
<path d="M267.336 161.055C263.516 161.055 259.696 161.055 255.876 161.055L257.366 162.545V158.285L255.876 159.775C259.656 159.775 263.446 159.725 267.226 159.775C268.176 159.785 268.186 161.025 267.326 161.065C265.416 161.145 265.406 164.125 267.326 164.045C270.076 163.925 271.916 160.935 270.386 158.505C269.536 157.155 268.136 156.815 266.666 156.815C263.926 156.815 261.186 156.815 258.446 156.815C257.586 156.815 256.726 156.815 255.866 156.815C255.066 156.815 254.376 157.495 254.376 158.305V162.565C254.376 163.365 255.056 164.055 255.866 164.055C259.686 164.055 263.506 164.055 267.326 164.055C269.246 164.055 269.246 161.075 267.326 161.075L267.336 161.055Z" fill="black"/>
<path d="M241.556 203.355H203.586C195.676 203.355 189.266 196.945 189.266 189.035L184.206 149.875H260.946L255.886 189.035C255.886 196.945 249.476 203.355 241.566 203.355H241.556Z" fill="#BEBFC1"/>
<path d="M241.556 201.865H204.626C201.056 201.865 197.686 201.025 194.976 198.555C192.886 196.645 191.486 194.135 190.956 191.355C190.766 190.365 190.796 189.355 190.666 188.345C189.816 181.795 188.976 175.245 188.126 168.705C187.616 164.765 187.106 160.835 186.596 156.895C186.316 154.705 186.226 152.365 185.736 150.215C185.706 150.105 185.706 149.985 185.696 149.875L184.206 151.365H260.946L259.456 149.875C258.636 156.235 257.816 162.595 256.986 168.955L255.246 182.395C254.966 184.585 254.566 186.795 254.396 188.995C254.136 192.245 253.336 195.165 251.076 197.635C248.616 200.335 245.196 201.815 241.556 201.865C239.646 201.885 239.636 204.865 241.556 204.845C248.516 204.765 254.776 200.175 256.746 193.445C257.226 191.795 257.226 190.135 257.446 188.455L257.896 184.945C259.066 175.895 260.236 166.845 261.406 157.795C261.746 155.155 262.086 152.515 262.426 149.875C262.526 149.075 261.656 148.385 260.936 148.385H184.196C183.466 148.385 182.606 149.075 182.706 149.875C183.406 155.295 184.106 160.705 184.806 166.125C185.736 173.305 186.666 180.495 187.596 187.675C187.656 188.125 187.736 188.585 187.776 189.035C188.026 192.045 188.526 194.775 190.156 197.385C193.066 202.025 198.166 204.795 203.626 204.845C209.566 204.905 215.506 204.845 221.446 204.845C228.026 204.845 234.626 205.005 241.196 204.845C241.316 204.845 241.436 204.845 241.556 204.845C243.476 204.845 243.476 201.865 241.556 201.865Z" fill="black"/>
<path d="M224.896 130.225H220.246C218.606 130.225 217.276 131.555 217.276 133.195V133.205C217.276 134.845 218.606 136.175 220.246 136.175H224.896C226.537 136.175 227.866 134.845 227.866 133.205V133.195C227.866 131.555 226.537 130.225 224.896 130.225Z" fill="#939393"/>
<path d="M224.896 134.675C223.646 134.675 222.396 134.675 221.146 134.675C220.896 134.675 220.646 134.675 220.406 134.675C220.356 134.675 220.316 134.675 220.266 134.675C220.216 134.675 220.156 134.675 220.106 134.675C219.926 134.665 219.906 134.665 220.066 134.675C219.976 134.655 219.876 134.635 219.786 134.605C219.426 134.535 219.936 134.725 219.626 134.545C219.506 134.475 219.386 134.415 219.276 134.325C219.546 134.525 218.926 133.915 219.126 134.175C219.046 134.065 218.976 133.945 218.906 133.825C218.726 133.515 218.916 134.015 218.846 133.665C218.846 133.635 218.746 133.185 218.786 133.495C218.766 133.345 218.776 133.205 218.776 133.055C218.776 132.755 218.796 132.945 218.776 133.015C218.806 132.875 218.846 132.735 218.886 132.605C218.786 132.885 218.956 132.485 218.976 132.455C218.996 132.425 219.256 132.085 219.066 132.305C219.156 132.205 219.256 132.105 219.356 132.015C219.136 132.205 219.476 131.945 219.506 131.925C219.586 131.875 219.666 131.835 219.756 131.795C219.496 131.905 220.016 131.735 220.076 131.725C219.796 131.785 220.226 131.725 220.286 131.725C220.336 131.725 220.396 131.725 220.446 131.725C220.756 131.725 221.066 131.725 221.366 131.725H223.696C224.186 131.725 224.706 131.675 225.196 131.735C224.886 131.695 225.336 131.785 225.366 131.795C225.686 131.865 225.256 131.695 225.526 131.855C225.646 131.925 225.766 131.985 225.876 132.075C225.656 131.905 226.046 132.265 226.086 132.305C225.896 132.085 226.156 132.425 226.176 132.455C226.226 132.535 226.266 132.615 226.306 132.705C226.246 132.565 226.246 132.575 226.306 132.745C226.326 132.835 226.356 132.925 226.376 133.025C226.306 132.725 226.376 133.165 226.376 133.215C226.376 134.055 225.706 134.675 224.896 134.695C224.086 134.715 223.406 135.365 223.406 136.185C223.406 137.005 224.086 137.695 224.896 137.675C226.576 137.635 228.196 136.705 228.906 135.155C229.616 133.605 229.456 131.825 228.396 130.465C227.516 129.345 226.196 128.755 224.786 128.745C224.016 128.745 223.236 128.745 222.466 128.745C221.736 128.745 221.016 128.735 220.286 128.745C218.746 128.775 217.366 129.495 216.506 130.775C215.586 132.145 215.566 134.035 216.396 135.455C217.226 136.875 218.686 137.635 220.256 137.665C221.826 137.695 223.346 137.665 224.886 137.665C225.686 137.665 226.376 136.985 226.376 136.175C226.376 135.365 225.696 134.685 224.886 134.685L224.896 134.675Z" fill="black"/>
<path d="M222.576 136.165C183.656 136.165 182.476 147.345 182.476 147.345C182.476 148.675 183.556 149.755 184.886 149.755H260.266C261.596 149.755 262.676 148.675 262.676 147.345C262.676 147.345 261.496 136.165 222.576 136.165Z" fill="#999999"/>
<path d="M222.576 134.675C216.116 134.675 209.656 134.975 203.246 135.865C199.256 136.425 195.256 137.215 191.466 138.585C187.896 139.875 183.806 141.775 181.766 145.175C181.446 145.705 181.156 146.305 181.046 146.915C180.556 149.575 183.066 151.235 185.406 151.235H258.136C259.136 151.235 260.316 151.365 261.306 151.095C263.276 150.555 264.646 148.365 263.976 146.405C262.986 143.535 260.096 141.535 257.526 140.215C250.106 136.405 241.236 135.485 233.046 134.975C229.566 134.755 226.076 134.675 222.586 134.665C220.666 134.665 220.666 137.635 222.586 137.645C232.476 137.655 242.896 138.005 252.346 141.245C254.536 141.995 256.566 142.935 258.516 144.295C258.606 144.355 258.696 144.425 258.786 144.495C258.756 144.465 258.536 144.295 258.746 144.465C258.906 144.595 259.066 144.725 259.216 144.855C259.486 145.095 259.756 145.345 260.006 145.605C260.196 145.815 260.386 146.025 260.556 146.245C260.216 145.825 260.696 146.465 260.796 146.625C260.896 146.785 260.976 146.955 261.066 147.115C261.316 147.555 261.026 146.855 261.106 147.215C261.146 147.375 261.206 147.525 261.236 147.685C261.066 146.955 261.276 147.625 260.916 147.985C260.696 148.205 260.456 148.225 260.176 148.255C259.856 148.285 259.516 148.255 259.186 148.255H187.836C186.896 148.255 185.896 148.355 184.956 148.255C184.726 148.225 184.516 148.215 184.316 148.055C183.866 147.705 184.076 146.935 183.906 147.685C183.946 147.525 184.006 147.365 184.046 147.195C184.126 146.875 183.836 147.545 184.086 147.115C184.186 146.935 184.276 146.755 184.386 146.575C184.476 146.425 184.926 145.835 184.596 146.245C184.786 146.005 184.986 145.765 185.206 145.545C186.436 144.255 187.596 143.545 189.406 142.645C196.336 139.195 204.976 138.355 212.706 137.905C215.996 137.715 219.286 137.635 222.576 137.635C224.496 137.635 224.496 134.655 222.576 134.655V134.675Z" fill="black"/>
<path d="M273.126 255.405H172.026C169.364 255.405 167.206 257.563 167.206 260.225V300.795C167.206 303.457 169.364 305.615 172.026 305.615H273.126C275.788 305.615 277.946 303.457 277.946 300.795V260.225C277.946 257.563 275.788 255.405 273.126 255.405Z" fill="#767C7C"/>
<path d="M273.126 304.125H253.166C239.456 304.125 225.736 304.125 212.026 304.125H177.786C175.876 304.125 173.946 304.205 172.026 304.125C170.106 304.045 168.766 302.665 168.696 300.775C168.686 300.415 168.696 300.055 168.696 299.695V272.705C168.696 268.565 168.546 264.385 168.696 260.245C168.836 256.395 172.686 256.885 175.356 256.885H264.446C267.196 256.885 269.956 256.875 272.706 256.885C274.716 256.895 276.376 258.075 276.466 260.235C276.516 261.485 276.466 262.745 276.466 263.995V299.595C276.466 299.985 276.476 300.365 276.466 300.755C276.396 302.635 275.036 304.055 273.136 304.115C271.236 304.175 271.216 307.155 273.136 307.095C276.946 306.965 279.446 303.985 279.446 300.285V273.875C279.446 269.355 279.556 264.805 279.446 260.285C279.356 256.705 276.646 253.995 273.076 253.905C272.376 253.885 271.666 253.905 270.966 253.905H240.366C226.086 253.905 211.806 253.905 197.526 253.905C189.156 253.905 180.776 253.855 172.406 253.905C169.596 253.925 167.036 255.425 166.086 258.165C165.576 259.625 165.746 261.325 165.746 262.855V281.745C165.746 287.595 165.746 293.455 165.746 299.305C165.746 301.655 165.996 303.905 167.956 305.565C169.366 306.765 171.066 307.085 172.846 307.085H273.156C275.076 307.085 275.076 304.105 273.156 304.105L273.126 304.125Z" fill="black"/>
<path d="M170.646 224.195C172.85 224.195 174.636 222.409 174.636 220.205C174.636 218.001 172.85 216.215 170.646 216.215C168.443 216.215 166.656 218.001 166.656 220.205C166.656 222.409 168.443 224.195 170.646 224.195Z" fill="black"/>
<path d="M176.126 220.205C176.096 217.865 174.646 215.865 172.476 215.045C170.426 214.275 167.886 214.945 166.496 216.645C165.026 218.435 164.726 220.975 165.936 223.005C167.146 225.035 169.466 225.985 171.756 225.575C174.296 225.115 176.096 222.735 176.126 220.215C176.136 219.435 175.436 218.695 174.636 218.725C173.836 218.755 173.156 219.375 173.146 220.215C173.146 220.325 173.146 220.435 173.136 220.545C173.126 220.845 173.156 220.485 173.146 220.475C173.186 220.585 173.056 220.875 173.026 220.995C172.996 221.075 172.976 221.225 172.916 221.295C172.936 221.275 173.076 220.985 172.936 221.225C172.836 221.405 172.726 221.585 172.616 221.765C172.436 222.035 172.786 221.635 172.616 221.755C172.556 221.805 172.496 221.885 172.446 221.945C172.396 221.995 172.346 222.045 172.296 222.085C172.226 222.145 172.036 222.395 172.276 222.115C172.176 222.235 171.976 222.325 171.836 222.395C171.776 222.425 171.716 222.455 171.646 222.495C171.396 222.635 171.926 222.415 171.566 222.525C171.396 222.575 171.226 222.635 171.056 222.665C170.916 222.695 170.796 222.795 171.076 222.665C171.006 222.695 170.876 222.685 170.806 222.685C170.616 222.685 170.436 222.685 170.256 222.665C170.026 222.665 170.616 222.745 170.276 222.665C170.166 222.645 170.066 222.615 169.966 222.595C169.866 222.575 169.766 222.525 169.666 222.495C169.496 222.445 169.596 222.535 169.726 222.525C169.606 222.525 169.366 222.345 169.266 222.275C169.196 222.225 169.126 222.175 169.046 222.125C168.866 222.025 169.296 222.365 169.066 222.125C168.966 222.025 168.656 221.815 168.636 221.675C168.656 221.795 168.776 221.885 168.676 221.725C168.616 221.635 168.556 221.555 168.506 221.465C168.466 221.405 168.436 221.345 168.406 221.285C168.356 221.185 168.166 220.985 168.376 221.255C168.286 221.135 168.246 220.895 168.216 220.745C168.196 220.675 168.186 220.605 168.166 220.535C168.096 220.235 168.186 220.845 168.156 220.445C168.146 220.275 168.146 220.115 168.156 219.945V219.835C168.186 219.665 168.176 219.685 168.156 219.905C168.176 219.885 168.186 219.735 168.196 219.695C168.236 219.525 168.296 219.355 168.346 219.185C168.456 218.845 168.186 219.455 168.366 219.155C168.416 219.065 168.466 218.965 168.516 218.875C168.556 218.805 168.606 218.725 168.656 218.655L168.686 218.615C168.786 218.485 168.766 218.505 168.646 218.665C168.666 218.565 168.936 218.355 169.006 218.285C169.026 218.265 169.266 218.025 169.096 218.195C168.926 218.365 169.166 218.145 169.196 218.125C169.316 218.045 169.606 217.805 169.746 217.815C169.736 217.815 169.406 217.935 169.686 217.845C169.786 217.815 169.886 217.775 169.986 217.745C170.056 217.725 170.126 217.705 170.196 217.695C170.216 217.695 170.566 217.625 170.316 217.665C170.066 217.705 170.416 217.665 170.446 217.665C170.536 217.665 170.636 217.665 170.726 217.665C170.816 217.665 170.906 217.665 171.006 217.675C171.336 217.685 170.746 217.605 171.046 217.675C171.256 217.725 171.456 217.785 171.666 217.845C171.986 217.945 171.496 217.715 171.646 217.845C171.736 217.915 171.866 217.955 171.966 218.015C172.026 218.055 172.086 218.085 172.146 218.125C172.206 218.165 172.256 218.205 172.316 218.245C172.156 218.115 172.136 218.105 172.256 218.205C172.376 218.325 172.496 218.455 172.626 218.575C172.876 218.825 172.466 218.305 172.656 218.605C172.716 218.695 172.776 218.775 172.826 218.865C172.876 218.955 172.926 219.045 172.976 219.145C173.126 219.405 172.896 218.865 172.996 219.175C173.066 219.385 173.116 219.585 173.166 219.795C173.196 219.925 173.266 219.945 173.166 219.725C173.216 219.835 173.186 220.045 173.186 220.165C173.196 220.945 173.866 221.685 174.676 221.655C175.486 221.625 176.176 221.005 176.166 220.165L176.126 220.205Z" fill="black"/>
<path d="M186.466 224.195C188.67 224.195 190.456 222.409 190.456 220.205C190.456 218.001 188.67 216.215 186.466 216.215C184.263 216.215 182.476 218.001 182.476 220.205C182.476 222.409 184.263 224.195 186.466 224.195Z" fill="black"/>
<path d="M191.946 220.205C191.916 217.865 190.466 215.865 188.296 215.045C186.246 214.275 183.706 214.945 182.316 216.645C180.846 218.435 180.546 220.975 181.756 223.005C182.966 225.035 185.286 225.985 187.576 225.575C190.116 225.115 191.916 222.735 191.946 220.215C191.956 219.435 191.256 218.695 190.456 218.725C189.656 218.755 188.976 219.375 188.966 220.215C188.966 220.325 188.966 220.435 188.956 220.545C188.946 220.845 188.976 220.485 188.966 220.475C189.006 220.585 188.876 220.875 188.846 220.995C188.816 221.075 188.796 221.225 188.736 221.295C188.756 221.275 188.896 220.985 188.756 221.225C188.656 221.405 188.546 221.585 188.436 221.765C188.256 222.035 188.606 221.635 188.436 221.755C188.376 221.805 188.316 221.885 188.266 221.945C188.216 221.995 188.166 222.045 188.116 222.085C188.046 222.145 187.856 222.395 188.096 222.115C187.996 222.235 187.796 222.325 187.656 222.395C187.596 222.425 187.536 222.455 187.466 222.495C187.216 222.635 187.746 222.415 187.386 222.525C187.216 222.575 187.046 222.635 186.876 222.665C186.736 222.695 186.616 222.795 186.896 222.665C186.826 222.695 186.696 222.685 186.626 222.685C186.436 222.685 186.256 222.685 186.076 222.665C185.846 222.665 186.436 222.745 186.096 222.665C185.986 222.645 185.886 222.615 185.786 222.595C185.686 222.575 185.586 222.525 185.486 222.495C185.316 222.445 185.416 222.535 185.546 222.525C185.426 222.525 185.186 222.345 185.086 222.275C185.016 222.225 184.946 222.175 184.866 222.125C184.686 222.025 185.116 222.365 184.886 222.125C184.786 222.025 184.476 221.815 184.456 221.675C184.476 221.795 184.596 221.885 184.496 221.725C184.436 221.635 184.376 221.555 184.326 221.465C184.286 221.405 184.256 221.345 184.226 221.285C184.176 221.185 183.986 220.985 184.196 221.255C184.106 221.135 184.066 220.895 184.036 220.745C184.016 220.675 184.006 220.605 183.986 220.535C183.916 220.235 184.006 220.845 183.976 220.445C183.966 220.275 183.966 220.115 183.976 219.945V219.835C184.006 219.665 183.996 219.685 183.976 219.905C183.996 219.885 184.006 219.735 184.016 219.695C184.056 219.525 184.116 219.355 184.166 219.185C184.276 218.845 184.006 219.455 184.186 219.155C184.236 219.065 184.286 218.965 184.336 218.875C184.376 218.805 184.426 218.725 184.476 218.655L184.506 218.615C184.606 218.485 184.586 218.505 184.466 218.665C184.486 218.565 184.756 218.355 184.826 218.285C184.846 218.265 185.086 218.025 184.916 218.195C184.746 218.365 184.986 218.145 185.016 218.125C185.136 218.045 185.426 217.805 185.566 217.815C185.556 217.815 185.226 217.935 185.506 217.845C185.606 217.815 185.706 217.775 185.806 217.745C185.876 217.725 185.946 217.705 186.016 217.695C186.036 217.695 186.386 217.625 186.136 217.665C185.886 217.705 186.236 217.665 186.266 217.665C186.356 217.665 186.456 217.665 186.546 217.665C186.636 217.665 186.726 217.665 186.826 217.675C187.156 217.685 186.566 217.605 186.866 217.675C187.076 217.725 187.276 217.785 187.486 217.845C187.806 217.945 187.316 217.715 187.466 217.845C187.556 217.915 187.686 217.955 187.786 218.015C187.846 218.055 187.906 218.085 187.966 218.125C188.026 218.165 188.076 218.205 188.136 218.245C187.976 218.115 187.956 218.105 188.076 218.205C188.196 218.325 188.316 218.455 188.446 218.575C188.696 218.825 188.286 218.305 188.476 218.605C188.536 218.695 188.596 218.775 188.646 218.865C188.696 218.955 188.746 219.045 188.796 219.145C188.946 219.405 188.716 218.865 188.816 219.175C188.886 219.385 188.936 219.585 188.986 219.795C189.016 219.925 189.086 219.945 188.986 219.725C189.036 219.835 189.006 220.045 189.006 220.165C189.016 220.945 189.686 221.685 190.496 221.655C191.306 221.625 191.996 221.005 191.986 220.165L191.946 220.205Z" fill="black"/>
<path d="M201.576 224.195C203.78 224.195 205.566 222.409 205.566 220.205C205.566 218.001 203.78 216.215 201.576 216.215C199.373 216.215 197.586 218.001 197.586 220.205C197.586 222.409 199.373 224.195 201.576 224.195Z" fill="black"/>
<path d="M207.056 220.205C207.026 217.865 205.576 215.865 203.406 215.045C201.356 214.275 198.816 214.945 197.426 216.645C195.956 218.435 195.656 220.975 196.866 223.005C198.076 225.035 200.396 225.985 202.686 225.575C205.226 225.115 207.026 222.735 207.056 220.215C207.066 219.435 206.366 218.695 205.566 218.725C204.766 218.755 204.086 219.375 204.076 220.215C204.076 220.325 204.076 220.435 204.066 220.545C204.056 220.845 204.086 220.485 204.076 220.475C204.116 220.585 203.986 220.875 203.956 220.995C203.926 221.075 203.906 221.225 203.846 221.295C203.866 221.275 204.006 220.985 203.866 221.225C203.766 221.405 203.656 221.585 203.546 221.765C203.366 222.035 203.716 221.635 203.546 221.755C203.486 221.805 203.426 221.885 203.376 221.945C203.326 221.995 203.276 222.045 203.226 222.085C203.156 222.145 202.966 222.395 203.206 222.115C203.106 222.235 202.906 222.325 202.766 222.395C202.706 222.425 202.646 222.455 202.576 222.495C202.326 222.635 202.856 222.415 202.496 222.525C202.326 222.575 202.156 222.635 201.986 222.665C201.846 222.695 201.726 222.795 202.006 222.665C201.936 222.695 201.806 222.685 201.736 222.685C201.546 222.685 201.366 222.685 201.186 222.665C200.956 222.665 201.546 222.745 201.206 222.665C201.096 222.645 200.996 222.615 200.896 222.595C200.796 222.575 200.696 222.525 200.596 222.495C200.426 222.445 200.526 222.535 200.656 222.525C200.536 222.525 200.296 222.345 200.196 222.275C200.126 222.225 200.056 222.175 199.976 222.125C199.796 222.025 200.226 222.365 199.996 222.125C199.896 222.025 199.586 221.815 199.566 221.675C199.586 221.795 199.706 221.885 199.606 221.725C199.546 221.635 199.486 221.555 199.436 221.465C199.396 221.405 199.366 221.345 199.336 221.285C199.286 221.185 199.096 220.985 199.306 221.255C199.216 221.135 199.176 220.895 199.146 220.745C199.126 220.675 199.116 220.605 199.096 220.535C199.026 220.235 199.116 220.845 199.086 220.445C199.076 220.275 199.076 220.115 199.086 219.945V219.835C199.116 219.665 199.106 219.685 199.086 219.905C199.106 219.885 199.116 219.735 199.126 219.695C199.166 219.525 199.226 219.355 199.276 219.185C199.386 218.845 199.116 219.455 199.296 219.155C199.346 219.065 199.396 218.965 199.446 218.875C199.486 218.805 199.536 218.725 199.586 218.655L199.616 218.615C199.716 218.485 199.696 218.505 199.576 218.665C199.596 218.565 199.866 218.355 199.936 218.285C199.956 218.265 200.196 218.025 200.026 218.195C199.856 218.365 200.096 218.145 200.126 218.125C200.246 218.045 200.536 217.805 200.676 217.815C200.666 217.815 200.336 217.935 200.616 217.845C200.716 217.815 200.816 217.775 200.916 217.745C200.986 217.725 201.056 217.705 201.126 217.695C201.146 217.695 201.496 217.625 201.246 217.665C200.996 217.705 201.346 217.665 201.376 217.665C201.466 217.665 201.566 217.665 201.656 217.665C201.746 217.665 201.836 217.665 201.936 217.675C202.266 217.685 201.676 217.605 201.976 217.675C202.186 217.725 202.386 217.785 202.596 217.845C202.916 217.945 202.426 217.715 202.576 217.845C202.666 217.915 202.796 217.955 202.896 218.015C202.956 218.055 203.016 218.085 203.076 218.125C203.136 218.165 203.186 218.205 203.246 218.245C203.086 218.115 203.066 218.105 203.186 218.205C203.306 218.325 203.426 218.455 203.556 218.575C203.806 218.825 203.396 218.305 203.586 218.605C203.646 218.695 203.706 218.775 203.756 218.865C203.806 218.955 203.856 219.045 203.906 219.145C204.056 219.405 203.826 218.865 203.926 219.175C203.996 219.385 204.046 219.585 204.096 219.795C204.126 219.925 204.196 219.945 204.096 219.725C204.146 219.835 204.116 220.045 204.116 220.165C204.126 220.945 204.796 221.685 205.606 221.655C206.416 221.625 207.106 221.005 207.096 220.165L207.056 220.205Z" fill="black"/>
<path d="M256.706 224.195C258.91 224.195 260.696 222.409 260.696 220.205C260.696 218.001 258.91 216.215 256.706 216.215C254.503 216.215 252.716 218.001 252.716 220.205C252.716 222.409 254.503 224.195 256.706 224.195Z" fill="black"/>
<path d="M262.186 220.205C262.156 217.865 260.706 215.865 258.536 215.045C256.486 214.275 253.946 214.945 252.556 216.645C251.086 218.435 250.786 220.975 251.996 223.005C253.206 225.035 255.526 225.985 257.816 225.575C260.356 225.115 262.156 222.735 262.186 220.215C262.196 219.435 261.496 218.695 260.696 218.725C259.896 218.755 259.216 219.375 259.206 220.215C259.206 220.325 259.206 220.435 259.196 220.545C259.186 220.845 259.216 220.485 259.206 220.475C259.246 220.585 259.116 220.875 259.086 220.995C259.056 221.075 259.036 221.225 258.976 221.295C258.996 221.275 259.136 220.985 258.996 221.225C258.896 221.405 258.786 221.585 258.676 221.765C258.496 222.035 258.846 221.635 258.676 221.755C258.616 221.805 258.556 221.885 258.506 221.945C258.456 221.995 258.406 222.045 258.356 222.085C258.286 222.145 258.096 222.395 258.336 222.115C258.236 222.235 258.036 222.325 257.896 222.395C257.836 222.425 257.776 222.455 257.706 222.495C257.456 222.635 257.986 222.415 257.626 222.525C257.456 222.575 257.286 222.635 257.116 222.665C256.976 222.695 256.856 222.795 257.136 222.665C257.066 222.695 256.936 222.685 256.866 222.685C256.676 222.685 256.496 222.685 256.316 222.665C256.086 222.665 256.676 222.745 256.336 222.665C256.226 222.645 256.126 222.615 256.026 222.595C255.926 222.575 255.826 222.525 255.726 222.495C255.556 222.445 255.656 222.535 255.786 222.525C255.666 222.525 255.426 222.345 255.326 222.275C255.256 222.225 255.186 222.175 255.106 222.125C254.926 222.025 255.356 222.365 255.126 222.125C255.026 222.025 254.716 221.815 254.696 221.675C254.716 221.795 254.836 221.885 254.736 221.725C254.676 221.635 254.616 221.555 254.566 221.465C254.526 221.405 254.496 221.345 254.466 221.285C254.416 221.185 254.226 220.985 254.436 221.255C254.346 221.135 254.306 220.895 254.276 220.745C254.256 220.675 254.246 220.605 254.226 220.535C254.156 220.235 254.246 220.845 254.216 220.445C254.206 220.275 254.206 220.115 254.216 219.945V219.835C254.246 219.665 254.236 219.685 254.216 219.905C254.236 219.885 254.246 219.735 254.256 219.695C254.296 219.525 254.356 219.355 254.406 219.185C254.516 218.845 254.246 219.455 254.426 219.155C254.476 219.065 254.526 218.965 254.576 218.875C254.616 218.805 254.666 218.725 254.716 218.655L254.746 218.615C254.846 218.485 254.826 218.505 254.706 218.665C254.726 218.565 254.996 218.355 255.066 218.285C255.086 218.265 255.326 218.025 255.156 218.195C254.986 218.365 255.226 218.145 255.256 218.125C255.376 218.045 255.666 217.805 255.806 217.815C255.796 217.815 255.466 217.935 255.746 217.845C255.846 217.815 255.946 217.775 256.046 217.745C256.116 217.725 256.186 217.705 256.256 217.695C256.276 217.695 256.626 217.625 256.376 217.665C256.126 217.705 256.476 217.665 256.506 217.665C256.596 217.665 256.696 217.665 256.786 217.665C256.876 217.665 256.966 217.665 257.066 217.675C257.396 217.685 256.806 217.605 257.106 217.675C257.316 217.725 257.516 217.785 257.726 217.845C258.046 217.945 257.556 217.715 257.706 217.845C257.796 217.915 257.926 217.955 258.026 218.015C258.086 218.055 258.146 218.085 258.206 218.125C258.266 218.165 258.316 218.205 258.376 218.245C258.216 218.115 258.196 218.105 258.316 218.205C258.436 218.325 258.556 218.455 258.686 218.575C258.936 218.825 258.526 218.305 258.716 218.605C258.776 218.695 258.836 218.775 258.886 218.865C258.936 218.955 258.986 219.045 259.036 219.145C259.186 219.405 258.956 218.865 259.056 219.175C259.126 219.385 259.176 219.585 259.226 219.795C259.256 219.925 259.326 219.945 259.226 219.725C259.276 219.835 259.246 220.045 259.246 220.165C259.256 220.945 259.926 221.685 260.736 221.655C261.546 221.625 262.236 221.005 262.226 220.165L262.186 220.205Z" fill="black"/>
<path d="M271.816 224.195C274.02 224.195 275.806 222.409 275.806 220.205C275.806 218.001 274.02 216.215 271.816 216.215C269.613 216.215 267.826 218.001 267.826 220.205C267.826 222.409 269.613 224.195 271.816 224.195Z" fill="black"/>
<path d="M277.296 220.205C277.266 217.865 275.816 215.865 273.646 215.045C271.596 214.275 269.056 214.945 267.666 216.645C266.196 218.435 265.896 220.975 267.106 223.005C268.316 225.035 270.636 225.985 272.926 225.575C275.466 225.115 277.266 222.735 277.296 220.215C277.306 219.435 276.606 218.695 275.806 218.725C275.006 218.755 274.326 219.375 274.316 220.215C274.316 220.325 274.316 220.435 274.306 220.545C274.296 220.845 274.326 220.485 274.316 220.475C274.356 220.585 274.226 220.875 274.196 220.995C274.166 221.075 274.146 221.225 274.086 221.295C274.106 221.275 274.246 220.985 274.106 221.225C274.006 221.405 273.896 221.585 273.786 221.765C273.606 222.035 273.956 221.635 273.786 221.755C273.726 221.805 273.666 221.885 273.616 221.945C273.566 221.995 273.516 222.045 273.466 222.085C273.396 222.145 273.206 222.395 273.446 222.115C273.346 222.235 273.146 222.325 273.006 222.395C272.946 222.425 272.886 222.455 272.816 222.495C272.566 222.635 273.096 222.415 272.736 222.525C272.566 222.575 272.396 222.635 272.226 222.665C272.086 222.695 271.966 222.795 272.246 222.665C272.176 222.695 272.046 222.685 271.976 222.685C271.786 222.685 271.606 222.685 271.426 222.665C271.196 222.665 271.786 222.745 271.446 222.665C271.336 222.645 271.236 222.615 271.136 222.595C271.036 222.575 270.936 222.525 270.836 222.495C270.666 222.445 270.766 222.535 270.896 222.525C270.776 222.525 270.536 222.345 270.436 222.275C270.366 222.225 270.296 222.175 270.216 222.125C270.036 222.025 270.466 222.365 270.236 222.125C270.136 222.025 269.826 221.815 269.806 221.675C269.826 221.795 269.946 221.885 269.846 221.725C269.786 221.635 269.726 221.555 269.676 221.465C269.636 221.405 269.606 221.345 269.576 221.285C269.526 221.185 269.336 220.985 269.546 221.255C269.456 221.135 269.416 220.895 269.386 220.745C269.366 220.675 269.356 220.605 269.336 220.535C269.266 220.235 269.356 220.845 269.326 220.445C269.316 220.275 269.316 220.115 269.326 219.945V219.835C269.356 219.665 269.346 219.685 269.326 219.905C269.346 219.885 269.356 219.735 269.366 219.695C269.406 219.525 269.466 219.355 269.516 219.185C269.626 218.845 269.356 219.455 269.536 219.155C269.586 219.065 269.636 218.965 269.686 218.875C269.726 218.805 269.776 218.725 269.826 218.655L269.856 218.615C269.956 218.485 269.936 218.505 269.816 218.665C269.836 218.565 270.106 218.355 270.176 218.285C270.196 218.265 270.436 218.025 270.266 218.195C270.096 218.365 270.336 218.145 270.366 218.125C270.486 218.045 270.776 217.805 270.916 217.815C270.906 217.815 270.576 217.935 270.856 217.845C270.956 217.815 271.056 217.775 271.156 217.745C271.226 217.725 271.296 217.705 271.366 217.695C271.386 217.695 271.736 217.625 271.486 217.665C271.236 217.705 271.586 217.665 271.616 217.665C271.706 217.665 271.806 217.665 271.896 217.665C271.986 217.665 272.076 217.665 272.176 217.675C272.506 217.685 271.916 217.605 272.216 217.675C272.426 217.725 272.626 217.785 272.836 217.845C273.156 217.945 272.666 217.715 272.816 217.845C272.906 217.915 273.036 217.955 273.136 218.015C273.196 218.055 273.256 218.085 273.316 218.125C273.376 218.165 273.426 218.205 273.486 218.245C273.326 218.115 273.306 218.105 273.426 218.205C273.546 218.325 273.666 218.455 273.796 218.575C274.046 218.825 273.636 218.305 273.826 218.605C273.886 218.695 273.946 218.775 273.996 218.865C274.046 218.955 274.096 219.045 274.146 219.145C274.296 219.405 274.066 218.865 274.166 219.175C274.236 219.385 274.286 219.585 274.336 219.795C274.366 219.925 274.436 219.945 274.336 219.725C274.386 219.835 274.356 220.045 274.356 220.165C274.366 220.945 275.036 221.685 275.846 221.655C276.656 221.625 277.346 221.005 277.336 220.165L277.296 220.205Z" fill="black"/>
</svg>
