<svg width="200" height="200" viewBox="0 0 200 200" fill="none" xmlns="http://www.w3.org/2000/svg">
<path d="M69.7791 71.6166C60.8791 81.1966 51.969 90.7866 43.069 100.367C35.179 108.857 99.369 155.617 104.449 150.867C119.679 136.617 133.029 120.297 145.949 103.857C151.789 96.4266 157.619 88.8766 161.799 80.3966C166.869 70.1266 169.389 58.6166 169.099 47.1666C168.999 43.2566 168.539 39.2366 166.669 35.7966C162.319 27.7866 151.929 25.3966 142.819 25.4866C130.589 25.5966 117.829 27.6766 107.569 34.3266C93.529 43.4366 86.2491 53.6466 66.0491 75.6366" fill="#527F12"/>
<path d="M68.7291 70.5666C61.9691 77.8466 55.199 85.1266 48.439 92.3966L43.369 97.8566C42.689 98.5866 41.859 99.2966 41.379 100.197C40.859 101.187 40.8291 102.307 41.0391 103.387C41.5191 105.917 43.1891 108.197 44.7291 110.187C47.0891 113.237 49.789 116.007 52.579 118.667C59.569 125.327 67.189 131.357 75.009 137.007C81.749 141.877 88.7291 146.717 96.2291 150.357C98.3191 151.377 100.699 152.577 103.069 152.687C104.099 152.737 104.889 152.447 105.659 151.767C109.119 148.697 112.339 145.307 115.539 141.967C128.299 128.647 139.959 114.197 151.159 99.5466C156.699 92.2966 161.799 84.7366 165.259 76.2566C168.719 67.7766 170.469 58.8866 170.589 49.8766C170.649 45.6366 170.489 41.1566 168.909 37.1666C167.579 33.8066 165.339 31.0466 162.389 28.9666C156.609 24.9066 149.059 23.9066 142.169 24.0066C133.789 24.1266 125.279 25.1466 117.339 27.9466C110.839 30.2366 105.109 33.8666 99.749 38.1366C90.049 45.8766 82.069 55.6266 73.819 64.8266C70.889 68.0966 67.9491 71.3466 64.9791 74.5866C63.6891 75.9966 65.789 78.1066 67.079 76.6866C72.479 70.7966 77.779 64.8166 83.119 58.8666C86.999 54.5366 90.9091 50.2166 95.0991 46.1766C98.7391 42.6666 102.609 39.4366 106.799 36.5966C113.329 32.1766 120.619 29.5166 128.369 28.1666C132.429 27.4566 136.559 27.1166 140.679 26.9966C144.139 26.8966 147.609 26.9866 151.029 27.6366C157.619 28.8866 164.179 32.1866 166.399 38.9566C167.729 43.0066 167.719 47.4566 167.559 51.6666C167.399 55.8766 166.819 60.2666 165.849 64.4666C163.879 73.0366 160.269 80.9766 155.489 88.3366C150.679 95.7566 145.039 102.627 139.529 109.537C133.959 116.507 128.289 123.407 122.379 130.087C116.469 136.767 110.359 143.217 103.879 149.317C103.709 149.477 103.549 149.647 103.369 149.797C103.239 149.907 103.579 149.647 103.569 149.647C103.539 149.647 103.459 149.717 103.429 149.727C104.019 149.447 103.419 149.777 103.379 149.707C103.349 149.657 103.709 149.687 103.519 149.687C103.449 149.687 103.369 149.707 103.299 149.687C103.139 149.667 102.969 149.667 102.809 149.657C103.339 149.697 102.719 149.637 102.559 149.607C102.329 149.557 102.099 149.497 101.879 149.437C101.369 149.297 100.869 149.117 100.369 148.937C99.629 148.657 99.5791 148.627 98.8491 148.297C98.1891 147.997 97.529 147.677 96.879 147.347C95.379 146.587 93.9191 145.777 92.4691 144.937C88.8991 142.867 85.429 140.617 82.009 138.287C74.289 133.027 66.8391 127.337 59.7991 121.197C56.6591 118.457 53.5891 115.617 50.7191 112.587C48.5491 110.287 46.5991 108.107 45.0391 105.407C44.7991 104.987 44.389 104.187 44.309 103.997C44.359 104.117 44.169 103.627 44.119 103.487C44.039 103.257 43.989 103.027 43.929 102.797C43.899 102.697 43.889 102.587 43.869 102.487C43.819 102.227 43.889 102.827 43.869 102.497C43.869 102.297 43.869 102.097 43.869 101.897C43.869 101.647 43.799 102.267 43.869 101.957C43.889 101.877 43.909 101.787 43.929 101.707C44.039 101.297 43.789 101.947 44.019 101.507C44.249 101.067 43.7791 101.717 44.2791 101.197C45.1391 100.297 45.969 99.3766 46.819 98.4666L51.5491 93.3766L61.3591 82.8266L70.829 72.6366C72.129 71.2366 70.0291 69.1266 68.7291 70.5366V70.5666Z" fill="black"/>
<path d="M120.229 53.7065C122.449 54.2565 124.719 53.4965 126.889 53.9765C129.449 54.5465 129.759 57.5965 127.589 58.8865C125.419 60.1765 127.389 63.7366 129.639 62.3966C132.889 60.4566 134.229 56.2965 132.119 52.9865C131.179 51.5265 129.659 50.4465 127.969 50.0565C125.759 49.5465 123.489 50.3266 121.309 49.7866C118.769 49.1566 117.689 53.0765 120.229 53.7065Z" fill="#306605"/>
<path d="M120.819 77.1366C121.759 76.9066 123.949 76.2766 124.479 77.4166C124.819 78.1466 124.529 79.4566 124.529 80.2566C124.529 81.5666 124.529 82.8766 124.519 84.1866C124.519 86.8066 128.579 86.8066 128.579 84.1866C128.579 82.1966 128.649 80.1966 128.599 78.2066C128.569 76.7666 128.279 75.3266 127.229 74.2666C125.289 72.3066 122.189 72.6266 119.749 73.2266C117.309 73.8266 118.289 77.7666 120.829 77.1466L120.819 77.1366Z" fill="#306605"/>
<path d="M91.7991 79.8367C94.5891 80.0667 96.2091 83.2667 95.3491 85.7467C94.4891 88.2267 98.409 89.2867 99.269 86.8267C101.069 81.6767 97.0591 76.2167 91.7991 75.7767C89.1891 75.5567 89.2091 79.6267 91.7991 79.8367Z" fill="#306605"/>
<path d="M89.619 103.867C91.219 103.697 92.8091 103.607 94.4191 103.677C95.7491 103.727 97.859 103.617 99.039 104.307C101.359 105.667 98.929 110.647 98.839 112.787C98.729 115.407 102.789 115.397 102.899 112.787C103.059 108.987 105.729 104.597 102.139 101.477C99.149 98.8866 93.2091 99.4166 89.6091 99.7966C87.0391 100.077 87.0091 104.137 89.6091 103.857L89.619 103.867Z" fill="#306605"/>
<path d="M59.7391 111.927C62.6691 111.187 61.929 116.527 61.699 117.847C61.249 120.407 65.169 121.507 65.619 118.927C66.099 116.177 66.549 113.107 64.919 110.637C63.529 108.537 61.149 107.387 58.659 108.017C56.169 108.647 57.1991 112.577 59.7391 111.937V111.927Z" fill="#306605"/>
<path d="M67.5391 133.577C70.8391 132.557 71.8991 137.437 72.3991 139.647C72.9791 142.197 76.899 141.117 76.319 138.567C75.739 136.017 75.0291 133.337 73.1091 131.467C71.3491 129.757 68.8491 128.917 66.4591 129.657C64.0691 130.397 65.0291 134.357 67.5391 133.577Z" fill="#306605"/>
<path d="M104.264 151.162C110.453 143.235 101.354 125.788 83.9414 112.193C66.5284 98.5983 47.3952 94.0039 41.2062 101.931C35.0172 109.858 44.116 127.306 61.529 140.9C78.942 154.495 98.0753 159.089 104.264 151.162Z" fill="#C3EA78"/>
<path d="M82.869 113.197C88.649 117.727 94.019 122.937 98.249 128.967C101.239 133.227 104.189 138.297 104.649 143.597C104.969 147.407 103.639 150.997 99.919 152.557C95.279 154.507 89.589 153.337 84.969 151.947C77.799 149.777 71.109 146.027 65.049 141.667C58.989 137.307 53.209 131.987 48.589 125.967C45.189 121.527 42.039 116.427 40.989 110.857C40.299 107.257 40.879 103.197 44.239 101.117C48.319 98.5866 53.879 99.3666 58.279 100.457C65.259 102.197 71.799 105.557 77.759 109.527C79.509 110.687 81.209 111.917 82.869 113.197C84.359 114.357 86.489 112.267 84.969 111.097C78.399 105.997 71.189 101.627 63.319 98.8766C57.889 96.9766 51.449 95.5266 45.769 97.2266C41.229 98.5766 38.249 102.177 37.799 106.887C37.279 112.397 39.879 118.027 42.669 122.617C46.699 129.237 52.119 135.017 58.029 139.977C64.469 145.377 71.639 149.977 79.449 153.147C85.169 155.477 91.649 157.237 97.859 156.217C102.429 155.467 106.369 152.497 107.369 147.827C108.489 142.607 106.429 137.127 103.989 132.587C100.449 125.987 95.369 120.197 89.839 115.197C88.269 113.777 86.639 112.417 84.969 111.107C83.479 109.937 81.359 112.027 82.869 113.207V113.197Z" fill="black"/>
<path d="M63.189 124.827L63.279 124.777L61.389 125.027C61.219 124.997 60.889 124.637 61.079 124.877C61.189 125.017 61.379 125.127 61.519 125.237C62.019 125.637 62.509 125.947 63.039 126.287C64.079 126.957 65.019 127.817 65.979 128.587C67.009 129.417 68.449 129.597 69.459 128.587C70.319 127.727 70.499 125.947 69.459 125.107C67.979 123.917 66.529 122.707 64.929 121.677C63.739 120.917 62.549 119.597 60.719 120.577C57.929 122.067 60.409 126.317 63.199 124.817L63.189 124.827Z" fill="#69AA31"/>
<path d="M65.479 119.687C66.449 120.837 67.309 122.057 68.079 123.367C69.679 126.087 73.929 123.617 72.319 120.887C71.339 119.227 70.189 117.687 68.949 116.217C68.089 115.197 66.359 115.337 65.469 116.217C64.459 117.227 64.609 118.677 65.469 119.697L65.479 119.687Z" fill="#69AA31"/>
<path d="M74.569 133.627C74.539 133.507 74.509 133.387 74.479 133.267C74.429 132.987 74.429 133.037 74.489 133.417C74.489 133.417 74.489 132.957 74.489 132.947C74.429 133.327 74.419 133.427 74.459 133.237C74.469 133.167 74.489 133.097 74.509 133.037C74.339 133.407 74.309 133.487 74.429 133.257C74.569 133.047 74.519 133.107 74.279 133.437C75.119 132.467 75.299 130.897 74.279 129.957C73.349 129.107 71.709 128.917 70.799 129.957C69.559 131.377 69.339 133.137 69.819 134.927C70.159 136.167 71.579 137.047 72.839 136.647C74.099 136.247 74.919 134.957 74.559 133.627H74.569Z" fill="#69AA31"/>
<path d="M82.399 136.657C81.699 135.327 80.939 134.037 80.139 132.767C79.449 131.677 77.919 131.147 76.779 131.887C75.639 132.627 75.159 134.087 75.899 135.247C76.699 136.517 77.459 137.817 78.159 139.137C78.759 140.277 80.439 140.717 81.519 140.017C82.679 139.267 83.039 137.877 82.399 136.657Z" fill="#69AA31"/>
<path d="M87.0791 129.597L82.1891 128.597C80.8891 128.327 79.5391 128.977 79.1691 130.317C78.8391 131.527 79.5791 133.077 80.8891 133.337L85.7791 134.337C87.0791 134.607 88.4291 133.957 88.7991 132.617C89.1291 131.407 88.3891 129.857 87.0791 129.597Z" fill="#69AA31"/>
<path d="M78.0491 128.167L81.6091 128.047C82.8891 128.007 84.129 126.947 84.069 125.587C84.009 124.227 82.9891 123.087 81.6091 123.127L78.0491 123.247C76.7691 123.287 75.5291 124.347 75.5891 125.707C75.6491 127.067 76.6691 128.207 78.0491 128.167Z" fill="#69AA31"/>
<path d="M116.729 174.847C139.135 174.847 157.299 156.683 157.299 134.277C157.299 111.87 139.135 93.7065 116.729 93.7065C94.3229 93.7065 76.1591 111.87 76.1591 134.277C76.1591 156.683 94.3229 174.847 116.729 174.847Z" fill="#C3EA78"/>
<path d="M155.809 134.277C155.739 150.467 145.479 165.417 130.189 170.977C114.709 176.607 97.079 171.787 86.559 159.137C76.039 146.487 74.799 128.027 83.279 114.027C91.759 100.027 108.519 92.6666 124.539 95.9666C140.559 99.2666 152.749 112.197 155.329 128.117C155.659 130.147 155.789 132.207 155.799 134.267C155.799 136.177 158.779 136.187 158.779 134.267C158.709 116.737 147.599 100.807 131.139 94.7466C114.679 88.6866 95.389 93.9266 84.249 107.547C73.109 121.167 71.559 140.887 80.719 156.007C89.879 171.127 107.759 178.897 125.009 175.507C141.989 172.167 155.629 157.987 158.259 140.877C158.599 138.687 158.779 136.487 158.789 134.267C158.789 132.347 155.819 132.347 155.809 134.267V134.277Z" fill="black"/>
<path d="M111.489 124.967L111.709 125.017L110.349 124.227L110.479 124.367L109.689 123.007C109.459 122.267 109.619 123.347 109.619 123.617C109.619 124.277 109.869 124.847 109.949 125.467C110.109 126.657 109.899 127.997 109.859 129.197C109.729 133.147 115.879 133.147 115.999 129.197C116.029 128.167 116.099 127.127 116.099 126.087C116.099 125.487 116.059 124.907 115.949 124.307C115.949 124.307 115.699 122.907 115.759 123.617C115.699 122.817 115.859 122.187 115.609 121.377C115.249 120.217 114.309 119.317 113.109 119.047C109.259 118.167 107.619 124.087 111.479 124.967H111.489Z" fill="#69AA31"/>
<path d="M121.549 122.997C120.789 124.637 119.839 126.157 118.799 127.367C117.759 128.577 117.569 130.477 118.799 131.707C119.909 132.817 122.049 132.967 123.139 131.707C124.619 129.997 125.899 128.147 126.849 126.097C127.549 124.597 127.269 122.787 125.749 121.897C124.419 121.117 122.249 121.487 121.549 122.997Z" fill="#69AA31"/>
<path d="M103.919 141.377C104.689 140.917 104.679 140.877 105.579 140.647C105.579 140.647 106.549 140.437 106.049 140.517C106.479 140.457 106.929 140.457 107.359 140.467C108.969 140.507 110.499 139.027 110.429 137.397C110.359 135.767 109.079 134.367 107.359 134.327C105.059 134.277 102.779 134.887 100.809 136.077C99.389 136.937 98.859 138.837 99.709 140.277C100.559 141.717 102.489 142.237 103.909 141.377H103.919Z" fill="#69AA31"/>
<path d="M109.249 149.617C110.579 148.277 111.819 146.867 112.989 145.377C113.979 144.117 114.309 142.247 112.989 141.037C111.879 140.017 109.709 139.687 108.649 141.037C107.479 142.517 106.239 143.937 104.909 145.277C103.779 146.417 103.679 148.497 104.909 149.617C106.139 150.737 108.049 150.837 109.249 149.617Z" fill="#69AA31"/>
<path d="M128.089 146.477L123.139 141.937C121.919 140.817 119.999 140.727 118.799 141.937C117.659 143.077 117.569 145.157 118.799 146.277L123.749 150.817C124.969 151.937 126.889 152.027 128.089 150.817C129.229 149.677 129.319 147.597 128.089 146.477Z" fill="#69AA31"/>
<path d="M123.879 140.707C125.579 141.627 127.269 142.557 128.969 143.477C130.429 144.267 132.319 143.837 133.169 142.377C134.019 140.917 133.529 138.967 132.069 138.177C130.369 137.257 128.679 136.327 126.979 135.407C125.519 134.617 123.629 135.047 122.779 136.507C121.929 137.967 122.419 139.917 123.879 140.707Z" fill="#69AA31"/>
</svg>
