<svg width="308" height="383" viewBox="0 0 308 383" fill="none" xmlns="http://www.w3.org/2000/svg">
<path d="M249.894 33.6489H57.6344C54.7791 33.6489 52.4645 36.18 52.4645 39.3022V329.48C52.4645 332.602 54.7791 335.134 57.6344 335.134H249.894C252.75 335.134 255.064 332.602 255.064 329.48V39.3022C255.064 36.18 252.75 33.6489 249.894 33.6489Z" fill="#B0E2EA"/>
<path d="M249.904 333.493H222.955C213.625 333.493 204.294 333.493 194.974 333.493C184.044 333.493 173.104 333.493 162.174 333.493H59.5645C58.9245 333.493 58.2845 333.515 57.6545 333.493C55.0545 333.384 53.9844 331.088 53.9844 328.616V271.351C53.9844 260.405 53.9844 249.459 53.9844 238.513C53.9844 226.54 53.9844 214.566 53.9844 202.581C53.9844 190.597 53.9844 177.825 53.9844 165.447C53.9844 153.068 53.9844 141.521 53.9844 129.558V40.0677C53.9844 37.6183 55.1145 35.3876 57.6545 35.2782C58.3445 35.2454 59.0344 35.2782 59.7244 35.2782C64.4344 35.2782 69.1544 35.2782 73.8644 35.2782C81.9944 35.2782 90.1144 35.2782 98.2444 35.2782C108.574 35.2782 118.914 35.2782 129.244 35.2782C140.454 35.2782 151.664 35.2782 162.864 35.2782C174.064 35.2782 184.694 35.2782 195.614 35.2782C204.894 35.2782 214.185 35.2782 223.465 35.2782C229.915 35.2782 236.365 35.2782 242.814 35.2782H248.164C248.974 35.2782 249.864 35.1797 250.664 35.3547C254.324 36.142 253.594 41.0408 253.594 44.037V83.5009C253.594 93.6265 253.594 103.763 253.594 113.889C253.594 124.014 253.594 136.983 253.594 148.53V325.238C253.594 328.452 254.214 333.297 249.924 333.471C248.004 333.548 247.994 336.828 249.924 336.752C253.894 336.588 256.574 333.22 256.594 328.988C256.594 327.906 256.594 326.823 256.594 325.752V287.687C256.594 277.583 256.594 267.48 256.594 257.387C256.594 247.294 256.594 234.172 256.594 222.559C256.594 210.947 256.594 197.912 256.594 185.589V148.399C256.594 136.721 256.594 125.042 256.594 113.364C256.594 101.686 256.594 93.0142 256.594 82.8339C256.594 72.6535 256.594 66.8034 256.594 58.7881V43.5887C256.594 39.4006 256.984 34.8189 252.695 32.6757C251.285 31.965 249.894 32.0086 248.414 32.0086H243.314C236.895 32.0086 230.474 32.0086 224.054 32.0086C214.704 32.0086 205.344 32.0086 195.994 32.0086C185.004 32.0086 174.004 32.0086 163.014 32.0086C151.714 32.0086 140.414 32.0086 129.124 32.0086C118.724 32.0086 108.314 32.0086 97.9145 32.0086H73.4045C68.7645 32.0086 64.1344 32.0086 59.4944 32.0086C58.6344 32.0086 57.7645 31.9649 56.9045 32.0742C53.2145 32.5444 51.0144 35.989 51.0044 39.849C50.9944 43.0091 51.0044 46.1584 51.0044 49.3185V96.076C51.0044 107.055 51.0044 118.022 51.0044 129.001C51.0044 139.979 51.0044 153.101 51.0044 165.151C51.0044 177.202 51.0044 190.105 51.0044 202.581C51.0044 215.058 51.0044 226.813 51.0044 238.929C51.0044 251.045 51.0044 260.875 51.0044 271.843C51.0044 282.81 51.0044 290.18 51.0044 299.355C51.0044 308.529 51.0044 312.52 51.0044 319.092C51.0044 322.34 51.0044 325.587 51.0044 328.835C51.0044 332.083 52.5444 335.265 55.6044 336.402C56.7944 336.839 58.0545 336.763 59.2845 336.763H97.2244C107.594 336.763 117.955 336.763 128.325 336.763C139.615 336.763 150.905 336.763 162.195 336.763C173.485 336.763 184.234 336.763 195.254 336.763C204.664 336.763 214.074 336.763 223.484 336.763C229.974 336.763 236.454 336.763 242.945 336.763H249.945C251.874 336.763 251.874 333.482 249.945 333.482L249.904 333.493Z" fill="black"/>
<path d="M51.6945 245.403H254.294" stroke="black" stroke-width="2.83" stroke-miterlimit="10"/>
<path d="M76.8044 126.493H76.7944C75.1707 126.493 73.8544 127.81 73.8544 129.433V150.333C73.8544 151.957 75.1707 153.273 76.7944 153.273H76.8044C78.4282 153.273 79.7444 151.957 79.7444 150.333V129.433C79.7444 127.81 78.4282 126.493 76.8044 126.493Z" fill="black"/>
<path d="M76.8044 276.693H76.7944C75.1707 276.693 73.8544 278.01 73.8544 279.633V300.533C73.8544 302.157 75.1707 303.473 76.7944 303.473H76.8044C78.4282 303.473 79.7444 302.157 79.7444 300.533V279.633C79.7444 278.01 78.4282 276.693 76.8044 276.693Z" fill="black"/>
<path d="M90.1444 334.033H74.6344C73.0107 334.033 71.6945 335.35 71.6945 336.973V347.933C71.6945 349.557 73.0107 350.873 74.6344 350.873H90.1444C91.7681 350.873 93.0845 349.557 93.0845 347.933V336.973C93.0845 335.35 91.7681 334.033 90.1444 334.033Z" fill="black"/>
<path d="M231.354 334.033H215.844C214.221 334.033 212.904 335.35 212.904 336.973V347.933C212.904 349.557 214.221 350.873 215.844 350.873H231.354C232.978 350.873 234.294 349.557 234.294 347.933V336.973C234.294 335.35 232.978 334.033 231.354 334.033Z" fill="black"/>
</svg>
