<svg width="200" height="249" viewBox="0 0 200 249" fill="none" xmlns="http://www.w3.org/2000/svg">
<path d="M99.5347 97.8779C126.431 97.8779 148.235 82.1317 148.235 62.7079C148.235 43.284 126.431 27.5378 99.5347 27.5378C72.6384 27.5378 50.8347 43.284 50.8347 62.7079C50.8347 82.1317 72.6384 97.8779 99.5347 97.8779Z" fill="#D7DEE0"/>
<path d="M149.715 62.7079C149.615 44.5779 132.725 32.5179 116.755 28.2579C98.0947 23.2879 75.5947 26.3179 60.7747 39.3879C54.7747 44.6779 50.4047 51.7879 49.4947 59.8279C48.5847 67.8679 51.5747 75.6879 56.6747 81.8279C62.3647 88.6779 70.4147 93.3279 78.7847 96.1079C88.6347 99.3879 99.2947 100.108 109.545 98.6279C126.095 96.2279 145.265 86.3179 149.085 68.5279C149.495 66.6179 149.705 64.6579 149.715 62.7079C149.725 60.7579 146.745 60.7879 146.735 62.7079C146.645 79.6079 130.375 90.5479 115.605 94.3779C98.1947 98.8979 77.0447 96.2179 63.1147 84.1279C57.5647 79.3079 53.1947 72.7579 52.4447 65.3079C51.6947 57.8579 54.3548 50.8979 59.0747 45.3479C70.8947 31.4879 91.5747 27.1279 108.945 29.6879C124.355 31.9579 142.405 40.8179 146.155 57.3979C146.545 59.1479 146.725 60.9179 146.735 62.7079C146.745 64.6179 149.725 64.6279 149.715 62.7079Z" fill="black"/>
<path d="M153.945 221.478H45.1047C37.5747 221.478 31.7247 214.928 32.5647 207.448L49.0647 60.908H149.985L166.485 207.448C167.325 214.928 161.475 221.478 153.945 221.478Z" fill="#D7DEE0"/>
<path d="M153.945 219.988H45.7747C44.5347 219.988 43.3247 219.918 42.1147 219.578C38.0147 218.438 34.8947 214.968 34.1347 210.788C33.7847 208.868 34.1147 206.898 34.3347 204.978L36.6847 184.118L40.5547 149.708C41.9847 136.978 43.4247 124.258 44.8547 111.528C46.0747 100.668 47.3047 89.7979 48.5247 78.9379L50.4647 61.6879L50.5547 60.8979L49.0647 62.3879C52.4247 62.3879 55.7747 62.3879 59.1347 62.3879C67.1547 62.3879 75.1647 62.3879 83.1847 62.3879C92.9247 62.3879 102.655 62.3879 112.395 62.3879H137.545C140.315 62.3879 143.075 62.3879 145.845 62.3879C147.125 62.3879 148.555 62.5679 149.825 62.3879C149.875 62.3879 149.945 62.3879 149.995 62.3879L148.505 60.8979C149.115 66.3579 149.735 71.8079 150.345 77.2679C151.795 90.1279 153.245 102.978 154.685 115.838C156.375 130.828 158.065 145.818 159.745 160.808C161.075 172.668 162.415 184.518 163.745 196.378L164.795 205.698C164.855 206.258 164.925 206.818 164.985 207.378C165.385 211.268 163.985 215.068 160.895 217.558C158.915 219.158 156.465 219.958 153.935 219.988C152.025 220.018 152.015 222.988 153.935 222.968C162.375 222.858 168.845 215.508 167.925 207.128C167.685 204.898 167.425 202.668 167.175 200.438C165.945 189.518 164.715 178.598 163.485 167.678L158.415 122.668C156.875 108.968 155.325 95.2679 153.785 81.5579C153.025 74.7679 152.295 67.9779 151.495 61.1879C151.485 61.0879 151.475 60.9979 151.465 60.8979C151.375 60.0979 150.855 59.4079 149.975 59.4079C146.615 59.4079 143.265 59.4079 139.905 59.4079C131.885 59.4079 123.875 59.4079 115.855 59.4079C106.115 59.4079 96.3847 59.4079 86.6447 59.4079C78.2647 59.4079 69.8747 59.4079 61.4947 59.4079C57.4147 59.4079 53.2947 59.2279 49.2147 59.4079C49.1547 59.4079 49.1047 59.4079 49.0447 59.4079C48.1747 59.4079 47.6447 60.0979 47.5547 60.8979C47.0947 64.9679 46.6347 69.0279 46.1847 73.0979C45.0547 83.1179 43.9247 93.1279 42.8047 103.148C41.3747 115.888 39.9347 128.618 38.5047 141.358C37.0747 154.098 35.7847 165.548 34.4147 177.638C33.4847 185.858 32.5647 194.078 31.6347 202.288C31.4547 203.918 31.2647 205.548 31.0847 207.188C30.3547 213.858 34.4047 220.228 40.8247 222.298C43.2247 223.068 45.7047 222.958 48.1847 222.958H130.665C138.065 222.958 145.465 222.958 152.865 222.958H153.925C155.845 222.958 155.845 219.978 153.925 219.978L153.945 219.988Z" fill="black"/>
<path d="M147.325 55.938H51.7347C47.0017 55.938 43.1647 59.7727 43.1647 64.503C43.1647 69.2333 47.0017 73.068 51.7347 73.068H147.325C152.058 73.068 155.895 69.2333 155.895 64.503C155.895 59.7727 152.058 55.938 147.325 55.938Z" fill="#D7DEE0"/>
<path d="M147.325 71.5879C143.395 71.5879 139.465 71.5879 135.525 71.5879H108.225C98.0047 71.5879 87.7747 71.5879 77.5547 71.5879C70.2547 71.5879 62.9547 71.5879 55.6447 71.5879C54.3547 71.5879 53.0647 71.6079 51.7647 71.5879C49.1547 71.5479 46.7747 70.198 45.5047 67.898C43.8647 64.928 44.6647 61.0779 47.3147 58.9679C49.2147 57.4579 51.3347 57.438 53.5847 57.438H60.9947C69.6747 57.438 78.3547 57.438 87.0447 57.438C97.3447 57.438 107.655 57.438 117.955 57.438C125.835 57.438 133.715 57.438 141.595 57.438C143.365 57.438 145.125 57.438 146.895 57.438C151.365 57.448 155.165 61.1579 154.295 65.808C153.665 69.1779 150.715 71.5279 147.325 71.5979C145.415 71.6379 145.405 74.608 147.325 74.578C151.045 74.508 154.565 72.488 156.265 69.128C157.965 65.768 157.725 61.948 155.695 58.948C153.485 55.688 150.015 54.4679 146.245 54.4679H127.865C117.585 54.4679 107.315 54.4679 97.0347 54.4679C87.1047 54.4679 77.1747 54.4679 67.2347 54.4679C62.1447 54.4679 57.0447 54.4379 51.9547 54.4679C46.2447 54.4979 41.3447 59.1779 41.6947 65.0379C42.0247 70.5779 46.6347 74.558 52.0747 74.578C57.5147 74.598 62.6947 74.578 68.0047 74.578C78.0147 74.578 88.0247 74.578 98.0347 74.578C108.255 74.578 118.465 74.578 128.685 74.578C134.615 74.578 140.545 74.578 146.475 74.578C146.765 74.578 147.045 74.578 147.335 74.578C149.255 74.578 149.255 71.5979 147.335 71.5979L147.325 71.5879Z" fill="black"/>
<path d="M70.6647 49.958C73.4047 49.958 73.4047 45.708 70.6647 45.708C67.9247 45.708 67.9247 49.958 70.6647 49.958Z" fill="black"/>
<path d="M88.2447 38.2279C90.9847 38.2279 90.9847 33.9779 88.2447 33.9779C85.5047 33.9779 85.5047 38.2279 88.2447 38.2279Z" fill="black"/>
<path d="M98.1647 50.7579C100.905 50.7579 100.905 46.5079 98.1647 46.5079C95.4247 46.5079 95.4247 50.7579 98.1647 50.7579Z" fill="black"/>
<path d="M112.595 39.1379C115.335 39.1379 115.335 34.8879 112.595 34.8879C109.855 34.8879 109.855 39.1379 112.595 39.1379Z" fill="black"/>
<path d="M125.775 50.8579C128.515 50.8579 128.515 46.6079 125.775 46.6079C123.035 46.6079 123.035 50.8579 125.775 50.8579Z" fill="black"/>
<mask id="mask0_842_108" style="mask-type:luminance" maskUnits="userSpaceOnUse" x="33" y="64" width="133" height="157">
<path d="M152.765 220.478H45.7147C38.3047 220.478 32.5547 214.108 33.3847 206.838L49.6147 64.418H148.885L165.115 206.838C165.945 214.108 160.185 220.478 152.785 220.478H152.765Z" fill="white"/>
</mask>
<g mask="url(#mask0_842_108)">
<path d="M4.51474 156.888C4.51474 156.888 29.6147 131.588 75.4247 123.148C132.425 112.648 163.115 142.998 163.115 142.998L184.175 230.948L-32.7953 225.688L4.51474 156.888Z" fill="#3F722D"/>
</g>
</svg>
