<svg width="200" height="249" viewBox="0 0 200 249" fill="none" xmlns="http://www.w3.org/2000/svg">
<path d="M99.5247 97.8779C126.421 97.8779 148.225 82.1317 148.225 62.7079C148.225 43.284 126.421 27.5378 99.5247 27.5378C72.6284 27.5378 50.8247 43.284 50.8247 62.7079C50.8247 82.1317 72.6284 97.8779 99.5247 97.8779Z" fill="#D7DEE0"/>
<path d="M149.705 62.7079C149.605 44.5779 132.715 32.5179 116.745 28.2579C98.0847 23.2879 75.5847 26.3179 60.7647 39.3879C54.7647 44.6779 50.3947 51.7879 49.4847 59.8279C48.5747 67.8679 51.5647 75.6879 56.6647 81.8279C62.3547 88.6779 70.4047 93.3279 78.7747 96.1079C88.6247 99.3879 99.2847 100.108 109.535 98.6279C126.085 96.2279 145.255 86.3179 149.075 68.5279C149.485 66.6179 149.695 64.6579 149.705 62.7079C149.715 60.7579 146.735 60.7879 146.725 62.7079C146.635 79.6079 130.365 90.5479 115.595 94.3779C98.1847 98.8979 77.0347 96.2179 63.1047 84.1279C57.5547 79.3079 53.1847 72.7579 52.4347 65.3079C51.6847 57.8579 54.3447 50.8979 59.0647 45.3479C70.8847 31.4879 91.5647 27.1279 108.935 29.6879C124.345 31.9579 142.395 40.8179 146.145 57.3979C146.535 59.1479 146.715 60.9179 146.725 62.7079C146.735 64.6179 149.715 64.6279 149.705 62.7079Z" fill="black"/>
<path d="M153.945 221.478H45.1047C37.5747 221.478 31.7247 214.928 32.5647 207.448L49.0647 60.908H149.985L166.485 207.448C167.325 214.928 161.475 221.478 153.945 221.478Z" fill="#D7DEE0"/>
<path d="M153.945 219.988H45.7747C44.5347 219.988 43.3247 219.918 42.1147 219.578C38.0147 218.438 34.8947 214.968 34.1347 210.788C33.7847 208.868 34.1147 206.898 34.3347 204.978L36.6847 184.118C37.9747 172.648 39.2647 161.178 40.5547 149.708C41.9847 136.978 43.4247 124.258 44.8547 111.528C46.0747 100.668 47.3047 89.7979 48.5247 78.9379L50.4647 61.6879L50.5547 60.8979L49.0647 62.3879C52.4247 62.3879 55.7747 62.3879 59.1347 62.3879C67.1547 62.3879 75.1647 62.3879 83.1847 62.3879C92.9247 62.3879 102.655 62.3879 112.395 62.3879H137.545C140.315 62.3879 143.075 62.3879 145.845 62.3879C147.125 62.3879 148.555 62.5679 149.825 62.3879C149.875 62.3879 149.945 62.3879 149.995 62.3879L148.505 60.8979C149.115 66.3579 149.735 71.8079 150.345 77.2679C151.795 90.1279 153.245 102.978 154.685 115.838C156.375 130.828 158.065 145.818 159.745 160.808L163.745 196.378L164.795 205.698C164.855 206.258 164.925 206.818 164.985 207.378C165.385 211.268 163.985 215.068 160.895 217.558C158.915 219.158 156.465 219.958 153.935 219.988C152.025 220.018 152.015 222.988 153.935 222.968C162.375 222.858 168.845 215.508 167.925 207.128C167.685 204.898 167.425 202.668 167.175 200.438C165.945 189.518 164.715 178.598 163.485 167.678C161.795 152.678 160.105 137.678 158.415 122.668C156.875 108.968 155.325 95.2679 153.785 81.5579C153.025 74.7679 152.295 67.9779 151.495 61.1879C151.485 61.0879 151.475 60.9979 151.465 60.8979C151.375 60.0979 150.855 59.4079 149.975 59.4079C146.615 59.4079 143.265 59.4079 139.905 59.4079C131.885 59.4079 123.875 59.4079 115.855 59.4079C106.115 59.4079 96.3847 59.4079 86.6447 59.4079C78.2647 59.4079 69.8747 59.4079 61.4947 59.4079C57.4147 59.4079 53.2947 59.2279 49.2147 59.4079C49.1547 59.4079 49.1047 59.4079 49.0447 59.4079C48.1747 59.4079 47.6447 60.0979 47.5547 60.8979C47.0947 64.9679 46.6347 69.0279 46.1847 73.0979C45.0547 83.1179 43.9247 93.1279 42.8047 103.148C41.3747 115.888 39.9347 128.618 38.5047 141.358C37.0747 154.098 35.7847 165.548 34.4147 177.638L31.6347 202.288C31.4547 203.918 31.2647 205.548 31.0847 207.188C30.3547 213.858 34.4047 220.228 40.8247 222.298C43.2247 223.068 45.7047 222.958 48.1847 222.958H130.665C138.065 222.958 145.465 222.958 152.865 222.958H153.925C155.845 222.958 155.845 219.978 153.925 219.978L153.945 219.988Z" fill="black"/>
<path d="M147.325 55.938H51.7347C47.0017 55.938 43.1647 59.7727 43.1647 64.503C43.1647 69.2333 47.0017 73.068 51.7347 73.068H147.325C152.058 73.068 155.895 69.2333 155.895 64.503C155.895 59.7727 152.058 55.938 147.325 55.938Z" fill="#D7DEE0"/>
<path d="M147.315 71.5879C143.385 71.5879 139.455 71.5879 135.515 71.5879H108.215C97.9947 71.5879 87.7647 71.5879 77.5447 71.5879C70.2447 71.5879 62.9447 71.5879 55.6347 71.5879C54.3447 71.5879 53.0547 71.6079 51.7547 71.5879C49.1447 71.5479 46.7647 70.198 45.4947 67.898C43.8547 64.928 44.6547 61.0779 47.3047 58.9679C49.2047 57.4579 51.3247 57.438 53.5747 57.438H60.9847C69.6647 57.438 78.3447 57.438 87.0347 57.438C97.3347 57.438 107.645 57.438 117.945 57.438C125.825 57.438 133.705 57.438 141.585 57.438C143.355 57.438 145.115 57.438 146.885 57.438C151.355 57.448 155.155 61.1579 154.285 65.808C153.655 69.1779 150.705 71.5279 147.315 71.5979C145.405 71.6379 145.395 74.608 147.315 74.578C151.035 74.508 154.555 72.488 156.255 69.128C157.955 65.768 157.715 61.948 155.685 58.948C153.475 55.688 150.005 54.4679 146.235 54.4679H127.855C117.575 54.4679 107.305 54.4679 97.0247 54.4679C87.0947 54.4679 77.1647 54.4679 67.2247 54.4679C62.1347 54.4679 57.0347 54.4379 51.9447 54.4679C46.2347 54.4979 41.3347 59.1779 41.6847 65.0379C42.0147 70.5779 46.6247 74.558 52.0647 74.578C57.5047 74.598 62.6847 74.578 67.9947 74.578C78.0047 74.578 88.0147 74.578 98.0247 74.578C108.245 74.578 118.455 74.578 128.675 74.578C134.605 74.578 140.535 74.578 146.465 74.578C146.755 74.578 147.035 74.578 147.325 74.578C149.245 74.578 149.245 71.5979 147.325 71.5979L147.315 71.5879Z" fill="black"/>
<path d="M70.6547 49.958C73.3947 49.958 73.3947 45.708 70.6547 45.708C67.9147 45.708 67.9147 49.958 70.6547 49.958Z" fill="black"/>
<path d="M88.2447 38.2279C90.9847 38.2279 90.9847 33.9779 88.2447 33.9779C85.5047 33.9779 85.5047 38.2279 88.2447 38.2279Z" fill="black"/>
<path d="M98.1647 50.7579C100.905 50.7579 100.905 46.5079 98.1647 46.5079C95.4247 46.5079 95.4247 50.7579 98.1647 50.7579Z" fill="black"/>
<path d="M112.595 39.1379C115.335 39.1379 115.335 34.8879 112.595 34.8879C109.855 34.8879 109.855 39.1379 112.595 39.1379Z" fill="black"/>
<path d="M125.765 50.8579C128.505 50.8579 128.505 46.6079 125.765 46.6079C123.025 46.6079 123.025 50.8579 125.765 50.8579Z" fill="black"/>
<mask id="mask0_842_87" style="mask-type:luminance" maskUnits="userSpaceOnUse" x="33" y="64" width="133" height="157">
<path d="M152.765 220.478H45.7147C38.3047 220.478 32.5547 214.108 33.3847 206.838L49.6147 64.418H148.885L165.115 206.838C165.945 214.108 160.185 220.478 152.785 220.478H152.765Z" fill="white"/>
</mask>
<g mask="url(#mask0_842_87)">
<path d="M33.9547 156.888C33.9547 156.888 54.9447 131.588 93.2447 123.148C140.895 112.648 166.565 142.998 166.565 142.998L184.175 230.948L2.77472 225.688L33.9647 156.888H33.9547Z" fill="#3F362E"/>
</g>
</svg>
