<svg width="267" height="306" viewBox="0 0 267 306" fill="none" xmlns="http://www.w3.org/2000/svg">
<path d="M232.499 165C232.499 165 232.499 165 232.499 165C232.499 165 232.499 165 232.499 165C232.487 165.042 232.37 165.452 231.231 166.13C230.083 166.814 228.291 167.525 225.844 168.23C220.974 169.632 213.853 170.914 204.969 171.996C187.221 174.158 162.659 175.5 135.5 175.5C108.341 175.5 83.7794 174.158 66.0314 171.996C57.147 170.914 50.0265 169.632 45.1558 168.23C42.709 167.525 40.9173 166.814 39.7685 166.13C38.6298 165.452 38.5133 165.042 38.5014 165C38.5013 165 38.5013 165 38.5012 165C38.5013 165 38.5013 165 38.5014 165C38.5133 164.958 38.6298 164.548 39.7685 163.87C40.9173 163.186 42.709 162.475 45.1558 161.77C50.0265 160.368 57.147 159.086 66.0314 158.004C83.7794 155.842 108.341 154.5 135.5 154.5C162.659 154.5 187.221 155.842 204.969 158.004C213.853 159.086 220.974 160.368 225.844 161.77C228.291 162.475 230.083 163.186 231.231 163.87C232.37 164.548 232.487 164.958 232.499 165Z" fill="#D9D9D9" stroke="black" stroke-width="3"/>
<ellipse cx="138" cy="172.5" rx="90" ry="13.5" fill="#7E8CA6"/>
</svg>
