<svg width="267" height="306" viewBox="5 -9 267 306" fill="none" xmlns="http://www.w3.org/2000/svg">
<g clip-path="url(#clip0_912_3575)">
<path d="M166.069 142.845C161.76 152.385 157.445 161.934 153.136 171.473C149.314 179.928 145.463 188.494 143.871 197.627C141.733 209.907 143.915 222.905 149.955 233.813C151.417 236.455 153.158 239.045 155.638 240.77C159.774 243.653 165.414 243.649 170.133 241.885C174.853 240.122 178.829 236.826 182.524 233.396C190.575 225.918 197.786 217.523 203.952 208.432C216.484 189.964 224.599 168.91 232.082 147.882C234.618 140.755 237.116 133.539 238.125 126.038C239.352 116.952 238.329 107.576 235.188 98.9617C234.115 96.0203 232.74 93.0873 230.444 90.9541C225.1 85.9858 216.607 86.8225 209.717 89.2145C200.465 92.4175 191.314 97.2505 185.225 104.913C176.895 115.407 173.975 125.011 164.257 146.85" fill="#527F12"/>
<path d="M165.005 142.316C161.815 149.385 158.616 156.448 155.427 163.516C152.449 170.108 149.306 176.662 146.726 183.433C144.146 190.204 142.456 196.481 142 203.365C141.544 210.249 142.353 216.902 144.278 223.358C145.236 226.557 146.489 229.658 147.99 232.641C149.491 235.624 151.177 238.529 153.666 240.732C158.164 244.718 164.742 245.066 170.225 243.113C176.922 240.726 182.271 235.458 187.202 230.531C192.133 225.605 196.841 220.189 201.067 214.52C209.387 203.371 215.983 191.061 221.553 178.337C224.319 172.019 226.847 165.595 229.253 159.137C231.659 152.678 234.166 145.966 236.255 139.267C238.344 132.569 239.82 125.527 239.812 118.394C239.804 111.26 238.538 104.305 236 97.7596C234.805 94.6819 233.205 91.6305 230.6 89.5082C228.565 87.8527 226.077 86.8313 223.491 86.3999C217.856 85.4649 212.177 86.9602 206.942 88.9481C200.779 91.2901 194.764 94.3507 189.71 98.6341C185.767 101.978 182.618 106.052 179.869 110.413C174.676 118.653 171.17 127.897 167.335 136.812C165.971 139.99 164.587 143.158 163.182 146.316C162.563 147.714 164.695 148.78 165.311 147.373C169.721 137.454 173.586 127.22 178.541 117.565C180.337 114.064 182.351 110.685 184.7 107.522C188.27 102.716 192.644 98.8722 197.811 95.8518C202.977 92.8313 208.728 90.3156 214.562 89.0806C219.442 88.048 225.237 88.0763 229.235 91.4786C231.721 93.5987 233.089 96.6608 234.162 99.6781C235.302 102.867 236.166 106.166 236.701 109.516C237.771 116.242 237.614 123.085 236.269 129.761C234.924 136.438 232.581 142.934 230.276 149.368C227.971 155.801 225.681 162.001 223.183 168.237C218.245 180.555 212.608 192.652 205.497 203.885C201.884 209.592 197.871 215.037 193.494 220.182C189.118 225.327 184.291 230.438 179.074 234.868C174.363 238.867 168.583 242.474 162.147 241.842C159.273 241.559 156.667 240.416 154.612 238.371C152.378 236.149 150.822 233.176 149.486 230.356C143.851 218.417 142.829 204.851 146.31 192.145C148.078 185.698 150.784 179.552 153.52 173.472C156.544 166.764 159.585 160.058 162.615 153.347L167.119 143.379C167.748 141.985 165.616 140.92 164.99 142.321L165.005 142.316Z" fill="black"/>
<path d="M199.782 116.387C201.607 116.238 203.135 115.082 204.904 114.893C206.992 114.673 208.005 116.908 206.688 118.44C205.37 119.972 207.773 122.171 209.139 120.581C211.11 118.28 211.065 114.781 208.62 112.808C207.534 111.94 206.106 111.508 204.724 111.643C202.917 111.82 201.393 112.991 199.601 113.137C197.513 113.307 197.694 116.557 199.782 116.387Z" fill="#306605"/>
<path d="M206.211 134.005C206.865 133.59 208.366 132.554 209.059 133.284C209.504 133.751 209.618 134.819 209.822 135.426C210.156 136.42 210.49 137.414 210.817 138.41C211.485 140.398 214.566 139.363 213.897 137.375C213.39 135.865 212.933 134.329 212.387 132.832C211.997 131.747 211.41 130.728 210.343 130.192C208.371 129.2 206.1 130.233 204.402 131.311C202.703 132.388 204.452 135.128 206.221 134.01L206.211 134.005Z" fill="#306605"/>
<path d="M184.874 143.466C187.05 142.929 189.096 144.944 189.076 147.045C189.056 149.146 192.301 148.95 192.326 146.864C192.378 142.497 187.942 139.377 183.839 140.385C181.802 140.884 182.856 143.967 184.874 143.466Z" fill="#306605"/>
<path d="M189.35 162.255C190.52 161.718 191.704 161.244 192.943 160.887C193.965 160.586 195.538 159.964 196.61 160.186C198.717 160.627 198.143 165.025 198.621 166.672C199.206 168.688 202.284 167.645 201.702 165.636C200.854 162.712 201.76 158.7 198.24 157.248C195.311 156.046 190.939 157.963 188.304 159.17C186.425 160.038 187.438 163.126 189.34 162.25L189.35 162.255Z" fill="#306605"/>
<path d="M168.733 175.993C170.768 174.684 171.568 178.925 171.73 179.985C172.042 182.042 175.297 181.877 174.98 179.805C174.643 177.595 174.202 175.151 172.335 173.693C170.744 172.454 168.645 172.188 166.916 173.302C165.188 174.415 166.972 177.134 168.736 176L168.733 175.993Z" fill="#306605"/>
<path d="M180.171 190.423C182.415 188.808 184.464 192.24 185.407 193.79C186.498 195.577 189.197 193.757 188.106 191.97C187.016 190.183 185.794 188.331 183.86 187.402C182.088 186.553 179.977 186.553 178.352 187.724C176.727 188.896 178.466 191.655 180.171 190.423Z" fill="#306605"/>
<path d="M159.04 205.719C160.355 205.159 161.673 204.758 163.092 204.559L161.653 203.844C163.099 206.187 164.467 208.573 165.759 211.01C166.741 212.851 169.43 211.026 168.458 209.191C167.166 206.754 165.798 204.368 164.352 202.025C164.074 201.577 163.446 201.24 162.912 201.309C161.209 201.544 159.582 201.956 158.002 202.631C156.09 203.451 157.11 206.536 159.037 205.711L159.04 205.719Z" fill="#306605"/>
<path d="M167.524 223.043L169.716 222.078C170.047 221.933 170.379 221.788 170.717 221.64C170.884 221.559 171.061 221.482 171.241 221.413C171.726 221.25 171.392 221.134 170.227 221.061C170.066 221.285 170.655 222.936 170.727 223.25C170.926 224.12 171.121 225.001 171.32 225.871C171.779 227.913 174.862 226.859 174.401 224.835C174.135 223.667 173.871 222.505 173.613 221.334C173.392 220.352 173.286 219.231 172.411 218.588C171.536 217.944 170.61 218.154 169.687 218.549C168.617 219.01 167.56 219.484 166.493 219.952C164.594 220.785 165.61 223.881 167.529 223.033L167.524 223.043Z" fill="#306605"/>
</g>
<defs>
<clipPath id="clip0_912_3575">
<rect width="281" height="303" fill="white"/>
</clipPath>
</defs>
</svg>
