<svg width="267" height="306" viewBox="0 0 267 306" fill="none" xmlns="http://www.w3.org/2000/svg">
<path d="M134.855 50.2989C124.262 50.2989 115.675 56.4998 115.675 64.1489C115.675 71.798 124.262 77.9989 134.855 77.9989C145.448 77.9989 154.035 71.798 154.035 64.1489C154.035 56.4998 145.448 50.2989 134.855 50.2989Z" fill="#D7DEE0"/>
<path d="M114.185 64.1489C114.295 71.6889 121.065 76.7688 127.785 78.5788C135.495 80.6488 144.755 79.3489 150.835 73.8988C153.325 71.6688 155.095 68.6588 155.455 65.2988C155.815 61.9388 154.595 58.7488 152.525 56.1788C147.515 49.9688 138.495 48.0289 130.915 49.0889C123.335 50.1489 114.295 55.3688 114.175 64.1388C114.145 66.0588 117.125 66.0588 117.155 64.1388C117.245 57.8988 123.295 53.9488 128.745 52.5388C135.245 50.8488 143.255 51.7888 148.485 56.2888C150.525 58.0488 152.175 60.3988 152.485 63.1288C152.795 65.8588 151.785 68.4488 150.025 70.4588C145.545 75.5988 137.835 77.1988 131.325 76.2588C125.075 75.3588 117.255 71.3588 117.145 64.1288C117.115 62.2188 114.145 62.2088 114.165 64.1288L114.185 64.1489Z" fill="black"/>
<path d="M113.425 1.60889L156.295 1.60889C159.265 1.60889 161.565 4.18888 161.235 7.13889L154.735 64.8589L114.985 64.8589L108.485 7.13889C108.155 4.18889 110.455 1.60889 113.425 1.60889Z" fill="#D7DEE0"/>
<path d="M113.425 3.09885L133.245 3.09885C140.825 3.09885 148.405 3.03885 155.985 3.09885C157.905 3.10885 159.595 4.26886 159.775 6.29886C159.825 6.90886 159.705 7.57887 159.635 8.18887L158.705 16.4789C157.635 25.9989 156.565 35.5189 155.495 45.0289L154.065 57.7389C153.815 59.9789 153.375 62.2789 153.305 64.5289C153.305 64.6289 153.285 64.7389 153.275 64.8389L154.765 63.3488C143.185 63.3488 131.595 63.3488 120.015 63.3489C118.345 63.3489 116.685 63.3489 115.015 63.3489L116.505 64.8389C115.705 57.7189 114.905 50.5889 114.095 43.4689L110.525 11.7889L110.065 7.71888C109.805 5.40888 110.805 3.16886 113.445 3.07886C115.355 3.01886 115.365 0.038853 113.445 0.0988507C109.685 0.228848 106.695 3.33888 107.025 7.15888C107.095 7.92888 107.195 8.70886 107.285 9.47886C107.765 13.7289 108.245 17.9789 108.725 22.2289C110.005 33.6289 111.295 45.0189 112.575 56.4189C112.895 59.2289 113.205 62.0289 113.525 64.8389C113.615 65.6389 114.135 66.3289 115.015 66.3289C126.595 66.3289 138.185 66.3289 149.765 66.3289C151.435 66.3289 153.095 66.3289 154.765 66.3289C155.635 66.3289 156.165 65.6389 156.255 64.8389C156.885 59.1989 157.525 53.5689 158.155 47.9289C159.255 38.1289 160.365 28.3189 161.465 18.5189C161.825 15.3189 162.185 12.1289 162.545 8.92886C162.615 8.33886 162.695 7.75885 162.745 7.16885C162.995 4.30885 161.325 1.58885 158.645 0.538849C156.465 -0.311149 153.515 0.0988472 151.225 0.0988474L137.625 0.0988486C129.725 0.0988493 121.805 -0.0411494 113.905 0.0988507C113.755 0.0988507 113.605 0.0988507 113.455 0.0988507C111.535 0.0988509 111.535 3.07886 113.455 3.07886L113.425 3.09885Z" fill="black"/>
<path d="M116.025 66.8088L153.685 66.8088C155.546 66.8088 157.055 65.3 157.055 63.4388L157.055 63.4288C157.055 61.5676 155.546 60.0588 153.685 60.0588L116.025 60.0588C114.164 60.0588 112.655 61.5676 112.655 63.4288L112.655 63.4388C112.655 65.3 114.164 66.8088 116.025 66.8088Z" fill="#D7DEE0"/>
<path d="M116.025 61.5488C127.855 61.5488 139.675 61.5488 151.505 61.5488C152.165 61.5488 152.845 61.5188 153.505 61.5488C155.025 61.6188 156.245 63.1588 155.195 64.5688C154.285 65.7888 151.565 65.3188 150.265 65.3188L128.475 65.3188C125.055 65.3188 121.625 65.3188 118.205 65.3188C117.515 65.3188 116.805 65.3588 116.105 65.3188C113.655 65.1688 113.505 61.6688 116.025 61.5488C117.935 61.4488 117.945 58.4788 116.025 58.5688C112.905 58.7288 110.525 61.5288 111.325 64.6688C111.895 66.9088 113.935 68.2388 116.165 68.2988C118.395 68.3588 120.575 68.2988 122.775 68.2988C130.925 68.2988 139.075 68.2988 147.225 68.2988C149.345 68.2988 151.475 68.3688 153.585 68.2988C155.995 68.2288 158.095 66.6288 158.465 64.1788C158.915 61.1988 156.605 58.6888 153.665 58.5788C147.905 58.3588 142.105 58.5788 136.345 58.5788C129.695 58.5788 123.025 58.4188 116.385 58.5788C116.265 58.5788 116.145 58.5788 116.025 58.5788C114.105 58.5788 114.105 61.5589 116.025 61.5589L116.025 61.5488Z" fill="black"/>
<path d="M146.225 69.3989C144.155 69.3989 144.155 72.6089 146.225 72.6089C148.295 72.6089 148.295 69.3989 146.225 69.3989Z" fill="black"/>
<path d="M140.295 72.0189C138.225 72.0189 138.225 75.2289 140.295 75.2289C142.365 75.2289 142.365 72.0189 140.295 72.0189Z" fill="black"/>
<path d="M135.395 69.3989C133.325 69.3989 133.325 72.6089 135.395 72.6089C137.465 72.6089 137.465 69.3989 135.395 69.3989Z" fill="black"/>
<path d="M129.705 71.6589C127.635 71.6589 127.635 74.8689 129.705 74.8689C131.775 74.8689 131.775 71.6589 129.705 71.6589Z" fill="black"/>
<path d="M124.515 69.3989C122.445 69.3989 122.445 72.6089 124.515 72.6089C126.585 72.6089 126.585 69.3989 124.515 69.3989Z" fill="black"/>
<mask id="mask0_912_3966" style="mask-type:luminance" maskUnits="userSpaceOnUse" x="109" y="1" width="52" height="63">
<path d="M114.325 1.96888L155.745 1.96887C158.615 1.96887 160.835 4.45887 160.515 7.30887L154.235 63.0789L115.825 63.0789L109.545 7.30887C109.225 4.45887 111.455 1.96888 114.315 1.96888L114.325 1.96888Z" fill="white"/>
</mask>
<g mask="url(#mask0_912_3966)">
<path d="M160.545 26.8688C160.545 26.8688 152.695 38.4388 137.605 40.0788C118.865 42.1188 108.405 32.7388 108.405 32.7388L102.425 -2.13115L172.615 -0.0711555L160.545 26.8688Z" fill="white"/>
</g>
<circle cx="129" cy="96" r="2" fill="white"/>
<circle cx="144" cy="90" r="2" fill="white"/>
<circle cx="138" cy="112" r="2" fill="white"/>
<circle cx="126" cy="136" r="2" fill="white"/>
<circle cx="148" cy="130" r="2" fill="white"/>
<circle cx="138" cy="145" r="2" fill="white"/>
</svg>
