<svg width="346" height="249" viewBox="0 0 346 249" fill="none" xmlns="http://www.w3.org/2000/svg">
<path d="M186.367 133.293C192.507 126.863 194.907 117.643 195.167 108.753C195.417 99.8631 190.727 93.7131 189.897 84.8631C189.627 82.0531 190.277 79.2031 192.467 77.4131C193.537 76.5331 196.037 74.8131 197.027 74.6431C201.857 73.8431 204.927 76.1832 206.767 78.5832C208.727 81.1432 211.847 82.6231 211.017 85.7431C207.537 77.2331 199.637 63.9331 207.387 58.7931C214.357 55.3531 220.217 56.4731 221.437 61.0031C221.837 63.7731 221.547 66.3132 220.697 67.9332C224.847 60.7932 221.917 55.4032 226.597 48.5932C230.727 42.5932 238.857 46.8431 240.307 47.9031C242.797 49.7431 243.187 62.2131 240.857 64.2431C243.867 62.2431 248.917 53.1131 252.487 52.5031C256.057 51.8931 260.197 53.1232 261.897 56.3132C263.707 59.7132 261.677 64.5431 257.967 65.6231C270.107 63.6131 270.167 73.6931 268.907 76.6331C265.757 83.9631 258.147 82.8232 250.457 84.9432C253.947 84.0532 257.557 87.2731 257.907 90.8631C258.257 94.4531 256.067 97.9031 253.167 100.043C250.267 102.183 246.737 103.253 243.287 104.293C245.327 104.813 251.317 106.853 250.717 110.613C250.677 119.713 240.547 121.553 231.947 124.513C223.337 127.473 213.827 128.473 206.377 133.703C201.977 136.793 198.547 141.213 193.847 143.833C189.147 146.453 182.167 146.453 179.407 141.843C177.627 138.863 178.027 139.853 180.017 137.013C182.007 134.173 183.187 134.703 186.357 133.283" fill="#8FC740"/>
<path d="M187.417 134.343C191.327 130.183 193.867 124.983 195.237 119.463C196.607 113.943 197.187 108.003 196.057 102.413C194.927 96.8231 192.377 91.7731 191.537 86.1831C191.137 83.5131 191.167 80.5232 193.367 78.6032C195.017 77.1632 196.847 75.9431 199.087 75.9931C201.747 76.0531 203.887 77.4232 205.527 79.4432C206.367 80.4732 207.287 81.3732 208.207 82.3232C209.057 83.1932 209.847 84.0831 209.557 85.3731H212.427C210.027 79.5431 206.547 73.7331 205.677 67.4031C205.347 64.9831 205.567 62.3032 207.497 60.5832C208.837 59.3932 210.997 58.8631 212.717 58.5131C214.167 58.2231 215.717 58.1732 217.147 58.6032C218.357 58.9732 219.427 59.8031 219.857 61.0231C220.487 62.8031 220.217 65.5232 219.387 67.2132C218.557 68.9032 221.007 70.4032 221.957 68.7132C223.147 66.6132 223.957 64.3632 224.387 61.9832C224.747 59.9632 224.877 57.9031 225.237 55.8831C225.887 52.2931 227.637 47.4931 231.827 47.0031C234.377 46.7131 237.067 47.6831 239.217 49.0031C239.557 49.2131 239.367 48.9931 239.627 49.4331C239.887 49.8731 240.037 50.3531 240.187 50.8731C240.567 52.2331 240.747 53.6431 240.837 55.0531C240.947 56.7631 240.947 58.5132 240.727 60.2232C240.637 60.9032 240.507 61.5931 240.297 62.2531C240.157 62.7031 239.987 63.0332 239.787 63.2232C238.577 64.3532 240.187 66.5332 241.587 65.5632C243.797 64.0332 245.357 61.6432 246.997 59.5632C247.947 58.3532 248.917 57.1531 249.977 56.0431C250.677 55.3131 251.467 54.4632 252.427 54.0932C253.727 53.5932 255.517 53.8631 256.827 54.2431C258.367 54.6931 259.847 55.6332 260.587 57.1032C261.917 59.7332 260.327 63.3332 257.547 64.2232C255.687 64.8232 256.477 67.3832 258.337 67.0932C260.707 66.7232 263.587 66.6531 265.607 68.1831C266.957 69.2031 267.637 70.7731 267.867 72.4031C268.047 73.6731 267.987 74.9531 267.487 76.1831C266.367 78.9531 263.887 80.5131 261.117 81.3031C257.487 82.3331 253.687 82.5731 250.037 83.5531C248.177 84.0531 248.967 86.8331 250.827 86.4231C252.847 85.9831 254.757 87.3131 255.727 89.0131C256.857 90.9831 256.497 93.3631 255.447 95.2831C252.927 99.8831 247.567 101.483 242.867 102.893C241.487 103.303 241.417 105.383 242.867 105.763C244.917 106.293 247.677 107.193 248.887 109.053C249.537 110.063 249.237 111.623 248.967 112.723C248.657 114.013 248.027 115.173 247.117 116.143C245.097 118.303 242.217 119.503 239.487 120.493C236.217 121.673 232.877 122.743 229.547 123.763C221.717 126.183 213.257 127.403 206.277 131.993C200.157 136.013 195.297 143.963 187.307 144.143C185.607 144.183 183.887 143.873 182.437 142.953C181.747 142.513 181.187 141.933 180.747 141.253C180.477 140.833 180.217 140.403 179.977 139.973C179.927 139.883 179.827 139.653 179.767 139.603C179.387 139.293 180.407 139.593 179.707 139.803C179.627 139.823 179.817 139.683 179.937 139.533C180.227 139.193 180.497 138.843 180.777 138.483C181.317 137.773 181.807 136.973 182.537 136.443C183.807 135.513 185.647 135.223 187.087 134.603C188.837 133.843 187.327 131.273 185.587 132.033C184.137 132.663 182.477 132.943 181.137 133.803C179.617 134.793 178.637 136.393 177.537 137.793C176.437 139.193 176.737 140.333 177.567 141.763C178.527 143.403 179.627 144.813 181.317 145.753C184.527 147.543 188.607 147.463 192.007 146.283C196.237 144.823 199.537 141.593 202.777 138.633C206.377 135.353 210.177 132.813 214.767 131.133C219.357 129.453 223.817 128.513 228.347 127.223C232.247 126.113 236.147 124.833 239.967 123.473C243.197 122.323 246.577 120.933 249.027 118.443C250.307 117.153 251.267 115.553 251.757 113.793C252.247 112.033 252.527 109.863 251.787 108.203C250.437 105.183 246.647 103.673 243.657 102.893V105.763C249.807 103.913 256.737 101.403 258.927 94.6731C259.857 91.8031 259.387 88.6932 257.477 86.3332C255.567 83.9732 252.877 82.9231 250.037 83.5431L250.827 86.4131C257.757 84.5431 266.777 85.1531 270.167 77.4131C271.737 73.8131 270.877 68.8132 267.887 66.2132C264.897 63.6132 261.107 63.6632 257.547 64.2232L258.337 67.0932C261.227 66.1632 263.367 63.6231 263.887 60.6331C264.447 57.3731 263.037 54.3331 260.267 52.5531C257.887 51.0231 254.177 50.2931 251.457 51.2831C249.047 52.1631 247.237 54.5432 245.687 56.4632C244.677 57.7132 243.707 58.9931 242.687 60.2431C241.907 61.1931 241.097 62.2931 240.077 62.9931L241.877 65.3332C244.007 63.3332 243.917 59.1132 243.857 56.4632C243.797 53.6232 243.687 49.5331 241.697 47.2631C240.977 46.4431 239.887 45.9331 238.907 45.4931C237.257 44.7531 235.557 44.2331 233.757 44.0531C229.017 43.5731 225.657 46.3931 223.777 50.5531C221.357 55.9031 222.327 62.0132 219.387 67.2132L221.957 68.7132C223.597 65.3732 223.867 60.1231 220.927 57.4031C217.987 54.6831 213.687 55.0032 210.207 56.0732C208.237 56.6832 206.197 57.4631 204.807 59.0531C203.767 60.2431 203.057 61.7031 202.777 63.2631C202.137 66.8331 203.117 70.5331 204.317 73.8831C205.817 78.0831 207.857 82.0431 209.547 86.1631C210.057 87.3931 212.057 87.7531 212.417 86.1631C213.087 83.2331 211.407 81.3131 209.457 79.3831C207.707 77.6431 206.377 75.6131 204.167 74.3831C201.957 73.1531 198.767 72.5232 196.247 73.3432C194.167 74.0132 191.707 75.7832 190.347 77.4632C186.377 82.3832 189.037 89.8831 190.807 95.1831C191.757 98.0231 192.747 100.863 193.287 103.813C193.827 106.763 193.707 110.063 193.357 113.173C192.577 120.133 190.167 127.103 185.297 132.263C183.987 133.653 186.087 135.763 187.397 134.363L187.417 134.343Z" fill="black"/>
<path d="M173.277 159.733C260.411 159.733 331.047 153.922 331.047 146.753C331.047 139.584 260.411 133.773 173.277 133.773C86.1431 133.773 15.5071 139.584 15.5071 146.753C15.5071 153.922 86.1431 159.733 173.277 159.733Z" fill="#512B11"/>
<path d="M329.567 146.753C329.567 146.673 329.597 146.623 329.597 146.623C329.537 146.613 329.447 146.793 329.617 146.623C329.537 146.703 329.467 146.803 329.367 146.873C329.047 147.123 329.407 146.863 329.297 146.943C329.177 147.033 329.047 147.113 328.927 147.193C328.627 147.373 328.317 147.533 328.007 147.693C327.397 147.993 326.647 148.263 325.707 148.563C324.577 148.923 323.437 149.223 322.287 149.503C315.237 151.213 307.967 152.103 300.767 152.913C276.197 155.683 251.407 156.753 226.707 157.483C194.717 158.433 162.687 158.503 130.687 157.763C104.667 157.163 78.5871 156.153 52.6771 153.633C44.5371 152.843 36.3671 151.933 28.3271 150.373C25.7771 149.873 23.2171 149.323 20.7471 148.513C19.7771 148.193 19.1671 147.973 18.4871 147.643C18.2071 147.503 17.9371 147.353 17.6671 147.193C17.5371 147.123 17.4171 147.033 17.2971 146.943C17.2871 146.933 17.4771 147.093 17.1671 146.823C16.7471 146.453 17.2471 146.753 16.9871 146.613C17.0171 146.633 16.9871 146.773 17.0171 146.693C17.0971 146.513 16.8571 147.123 17.0171 146.803C17.0571 146.713 16.9171 146.863 16.9871 146.873C17.0371 146.883 17.0971 146.773 16.9671 146.873C17.0771 146.783 17.1571 146.663 17.2671 146.573C17.5571 146.343 17.0371 146.723 17.3171 146.533C17.4271 146.453 17.5371 146.373 17.6571 146.303C17.9971 146.113 18.3271 145.923 18.6871 145.753C19.2171 145.493 20.1371 145.163 21.0371 144.883C27.0271 142.993 33.3871 142.143 39.5971 141.333C62.6371 138.313 85.9671 137.213 109.177 136.363C140.937 135.203 172.727 134.973 204.497 135.503C231.707 135.953 258.957 136.873 286.087 139.153C295.177 139.913 304.267 140.803 313.277 142.243C316.357 142.733 319.447 143.293 322.477 144.033C323.607 144.313 324.737 144.613 325.857 144.973C326.317 145.123 326.767 145.283 327.227 145.453C327.597 145.593 327.597 145.583 328.117 145.843C328.427 145.993 328.717 146.163 329.017 146.343C329.127 146.413 329.237 146.493 329.347 146.573C329.267 146.513 329.147 146.433 329.387 146.613C329.477 146.683 329.547 146.793 329.637 146.863C329.397 146.683 329.587 146.873 329.617 146.863C329.617 146.863 329.587 146.783 329.587 146.733C329.637 148.643 332.607 148.653 332.567 146.733C332.487 143.283 326.897 142.103 324.377 141.443C317.447 139.613 310.247 138.723 303.137 137.873C278.257 134.913 253.127 133.833 228.107 133.073C195.167 132.073 162.187 131.993 129.247 132.783C102.967 133.413 76.6171 134.433 50.4471 137.103C42.2571 137.933 34.0271 138.873 25.9671 140.563C23.5671 141.063 21.1471 141.623 18.8371 142.493C17.4271 143.023 15.8371 143.643 14.8271 144.813C12.1371 147.903 16.6671 150.193 19.0371 151.053C24.7671 153.143 31.0571 153.943 37.0671 154.773C60.3971 158.013 84.0471 159.133 107.567 160.023C140.157 161.253 172.787 161.483 205.397 160.933C233.117 160.463 260.887 159.523 288.507 157.093C297.627 156.293 306.757 155.353 315.787 153.823C320.507 153.023 326.077 152.343 330.277 149.853C331.427 149.173 332.527 148.183 332.567 146.743C332.617 144.823 329.637 144.823 329.587 146.743L329.567 146.753Z" fill="black"/>
<path d="M201.517 151.113C197.377 143.243 189.387 138.043 181.047 134.973C172.697 131.913 165.377 134.403 156.727 132.383C153.977 131.743 151.477 130.223 150.487 127.583C149.997 126.283 149.157 123.363 149.307 122.383C150.077 117.543 153.277 115.383 156.137 114.403C159.187 113.353 161.587 110.863 164.267 112.653C155.087 113.253 139.977 116.523 137.557 107.533C136.517 99.8331 139.437 94.6331 144.117 94.9131C146.867 95.4131 149.187 96.4932 150.457 97.8132C145.007 91.6032 138.957 92.6732 133.997 86.0732C129.617 80.2532 136.227 73.8931 137.697 72.8631C140.227 71.0831 152.187 74.6731 153.367 77.5331C152.427 74.0431 145.377 66.3531 145.927 62.7731C146.477 59.1931 148.957 55.6531 152.527 55.0531C156.327 54.4131 160.267 57.8832 160.107 61.7332C162.057 49.5832 171.637 52.7232 174.017 54.8532C179.967 60.1732 176.477 67.0232 176.037 74.9832C176.297 71.3932 180.507 68.9931 184.017 69.7931C187.527 70.5931 190.107 73.7732 191.217 77.2032C192.327 80.6332 192.217 84.3131 192.107 87.9131C193.247 86.1431 197.087 81.1131 200.467 82.8731C209.087 85.8031 207.617 95.9932 207.687 105.093C207.757 114.193 205.687 123.533 208.277 132.253C209.807 137.413 212.907 142.063 213.897 147.353C214.887 152.643 212.677 159.253 207.417 160.413C204.027 161.153 205.097 161.093 203.027 158.293C200.957 155.493 201.847 154.553 201.497 151.093" fill="#8FC740"/>
<path d="M202.807 150.363C200.247 145.583 196.357 141.723 191.877 138.733C187.397 135.743 181.747 133.053 176.197 132.243C170.177 131.363 164.027 132.353 158.047 131.163C155.517 130.663 152.927 129.653 151.877 127.093C151.087 125.153 150.497 123.093 151.157 121.063C151.907 118.743 153.677 117.023 155.897 116.093C157.207 115.543 158.487 115.023 159.757 114.393C161.027 113.763 162.207 113.163 163.517 113.953L164.267 111.183C158.037 111.603 151.467 113.073 145.247 111.883C142.867 111.423 140.377 110.453 139.317 108.103C138.607 106.533 138.737 104.413 138.917 102.723C139.077 101.183 139.497 99.5931 140.387 98.3031C142.547 95.1431 147.087 96.5831 149.407 98.8831C150.777 100.243 152.787 98.1931 151.507 96.7831C148.577 93.5331 144.877 91.953 141.087 89.993C137.867 88.333 133.517 85.253 134.047 81.113C134.387 78.463 136.337 75.8031 138.417 74.1931C138.397 74.2131 138.357 74.1831 138.617 74.0731C138.567 74.0931 138.727 74.0232 138.957 73.9832C139.367 73.9032 139.897 73.8931 140.417 73.9131C141.857 73.9731 143.287 74.2831 144.687 74.6431C146.347 75.0831 148.007 75.6331 149.547 76.4031C150.497 76.8731 151.737 77.5331 152.097 78.3131C152.807 79.8631 155.277 78.7631 154.817 77.1631C154.097 74.6931 152.387 72.5131 150.997 70.3931C150.197 69.1831 149.407 67.9631 148.707 66.6931C148.177 65.7431 147.547 64.6431 147.417 63.5331C147.267 62.2331 148.027 60.6531 148.687 59.5831C149.507 58.2531 150.727 57.1031 152.267 56.6731C155.427 55.7831 158.667 58.5931 158.637 61.7631C158.617 63.3931 161.277 63.8531 161.557 62.1631C161.967 59.7631 162.687 57.0131 164.727 55.4531C166.057 54.4431 167.807 54.2031 169.307 54.4431C169.957 54.5431 170.927 54.8331 171.337 55.0031C171.657 55.1331 171.977 55.2932 172.277 55.4732C172.437 55.5632 173.037 55.9831 172.817 55.8031C175.207 57.7131 176.057 60.5031 175.967 63.4631C175.857 67.3431 174.797 71.1431 174.567 75.0231C174.447 76.9631 177.347 76.8931 177.547 75.0231C177.747 73.1531 179.527 71.7931 181.267 71.3431C183.357 70.8031 185.447 71.6531 186.977 73.0931C190.997 76.8931 190.797 82.8631 190.627 87.9531C190.577 89.5031 192.627 89.8831 193.397 88.7031C194.517 86.9931 196.777 83.8331 199.117 84.0431C200.327 84.1531 201.817 85.0531 202.727 85.8131C203.727 86.6531 204.477 87.7531 204.987 88.9631C206.097 91.6231 206.217 94.6432 206.247 97.4832C206.287 101.033 206.277 104.613 206.157 108.153C205.857 116.903 204.337 125.883 207.397 134.353C209.757 140.893 215.117 148.363 211.387 155.433C210.657 156.813 209.597 158.053 208.137 158.673C207.407 158.993 206.577 159.133 205.797 159.283C205.697 159.303 205.247 159.353 205.247 159.363C205.267 159.313 205.507 159.453 205.537 159.463C205.777 159.513 205.527 159.583 205.577 159.463C205.567 159.493 205.637 159.573 205.537 159.393C205.477 159.283 205.397 159.163 205.327 159.053C205.137 158.753 204.947 158.443 204.747 158.153C204.227 157.403 203.617 156.673 203.317 155.793C202.827 154.353 203.147 152.623 203.017 151.123C202.847 149.233 199.877 149.213 200.037 151.123C200.187 152.803 199.937 154.563 200.337 156.213C200.737 157.863 201.867 159.153 202.757 160.553C203.407 161.563 204.097 162.363 205.397 162.323C206.937 162.273 208.707 161.753 210.047 161.033C213.157 159.343 214.897 155.843 215.417 152.463C216.087 148.093 214.737 144.023 213.027 140.043C211.047 135.433 209.067 131.063 208.627 125.993C208.187 120.923 208.737 115.793 209.017 110.713C209.257 106.483 209.257 102.223 209.237 97.9832C209.217 94.5332 209.037 90.9332 207.667 87.7232C206.967 86.0632 205.917 84.5731 204.507 83.4431C203.097 82.3131 201.097 81.1931 199.257 81.0831C195.617 80.8531 192.617 84.4731 190.827 87.2131L193.597 87.9631C193.807 81.4131 193.537 73.6131 187.377 69.6631C182.547 66.5631 175.207 68.8931 174.557 75.0231H177.537C177.967 67.9031 181.477 59.2831 174.997 53.7631C172.007 51.2231 167.057 50.5131 163.657 52.5931C160.607 54.4531 159.247 58.0031 158.677 61.3731L161.597 61.7731C161.627 58.5731 159.617 55.6031 156.717 54.2831C153.667 52.8931 150.287 53.6131 147.867 55.8931C145.857 57.7831 144.087 61.1031 144.467 63.9331C144.797 66.4331 146.377 68.7631 147.707 70.8331C149.137 73.0531 151.177 75.3831 151.927 77.9631L154.647 76.8131C154.107 75.6531 152.857 74.8432 151.787 74.2332C150.237 73.3632 148.537 72.7131 146.847 72.1831C144.147 71.3331 140.437 70.2431 137.647 71.2731C136.497 71.6931 135.547 72.723 134.747 73.613C133.477 75.023 132.407 76.6131 131.717 78.3931C129.917 83.0131 132.177 87.1931 135.797 90.1331C137.847 91.7931 140.187 92.8731 142.537 94.0031C145.137 95.2631 147.447 96.7331 149.397 98.8931L151.497 96.7931C148.777 94.0931 143.657 92.2431 140.157 94.4631C136.657 96.6831 135.807 101.023 135.847 104.753C135.867 106.803 136.097 108.813 137.267 110.543C138.157 111.853 139.387 112.883 140.807 113.573C144.047 115.163 147.857 115.313 151.397 115.223C155.697 115.103 159.967 114.463 164.257 114.173C165.697 114.073 166.327 112.193 165.007 111.403C162.267 109.753 159.767 111.103 157.197 112.363C154.987 113.453 152.787 114.043 150.977 115.823C149.167 117.603 147.787 120.273 147.787 122.793C147.787 124.943 148.657 127.853 149.837 129.653C153.317 134.973 161.257 134.803 166.867 134.813C170.147 134.813 173.457 134.743 176.687 135.353C179.917 135.963 182.807 137.173 185.637 138.593C191.637 141.593 197.007 145.903 200.217 151.893C201.127 153.583 203.697 152.083 202.787 150.393L202.807 150.363Z" fill="black"/>
<path d="M114.137 122.213C108.417 119.143 95.0671 113.863 76.4771 122.513C67.9771 126.473 60.8371 133.763 59.1071 142.983C58.0271 148.713 59.5871 154.613 61.5671 160.093C63.2271 164.673 65.2171 169.183 67.9871 173.193C73.7571 181.553 81.0071 185.713 90.5571 189.193C100.107 192.673 110.307 193.963 120.447 194.633C138.027 195.813 153.027 194.713 166.587 183.453C181.587 171.003 185.157 146.883 174.417 130.613C171.507 126.213 167.647 122.343 162.907 120.023C156.367 116.813 152.957 116.793 145.667 116.833C130.027 116.923 120.947 118.063 114.147 122.203" fill="#E50A0A"/>
<path d="M114.887 120.923C107.667 117.073 99.3971 115.603 91.2871 116.613C79.7471 118.043 67.6171 123.543 61.2371 133.653C57.9571 138.843 56.7171 144.823 57.5771 150.893C58.5071 157.473 61.1271 164.153 64.2771 169.983C67.0671 175.133 70.8371 179.673 75.5271 183.193C79.9271 186.503 85.0071 188.763 90.1471 190.633C96.7471 193.033 103.657 194.373 110.607 195.233C117.097 196.023 123.667 196.493 130.197 196.503C141.617 196.523 153.047 194.483 162.737 188.133C171.737 182.233 178.117 173.523 180.727 163.053C183.337 152.583 182.307 142.253 177.567 133.103C174.897 127.963 170.987 123.283 166.097 120.133C161.207 116.983 156.037 115.563 150.487 115.383C144.317 115.183 138.057 115.343 131.907 115.873C127.367 116.273 122.757 116.923 118.457 118.503C116.697 119.153 114.987 119.953 113.377 120.913C111.767 121.873 113.237 124.473 114.877 123.483C122.477 118.913 132.007 118.603 140.617 118.393C145.897 118.263 151.577 117.793 156.727 119.193C162.257 120.703 167.087 123.883 170.777 128.243C183.467 143.253 181.237 167.793 167.037 181.043C159.187 188.363 148.897 192.203 138.317 193.173C132.717 193.683 127.067 193.553 121.457 193.213C114.847 192.803 108.227 192.153 101.727 190.793C91.1571 188.583 79.9271 184.573 72.4371 176.443C68.3471 171.993 65.5571 166.563 63.4371 160.943C61.3171 155.323 59.2471 148.603 60.7471 142.293C63.3671 131.233 73.5071 124.433 83.7771 121.253C92.3571 118.593 101.577 118.513 109.957 121.883C111.117 122.353 112.247 122.893 113.357 123.483C115.047 124.383 116.547 121.813 114.857 120.913L114.887 120.923Z" fill="black"/>
<path d="M91.3671 142.293C92.3971 142.743 93.3571 143.313 94.2471 143.993L93.9471 143.763C94.3571 144.073 94.7371 144.413 95.1071 144.773C95.6671 145.313 96.6571 145.373 97.2071 144.773C97.7571 144.173 97.8071 143.243 97.2071 142.673C95.9471 141.453 94.4671 140.433 92.8571 139.733C92.4771 139.563 92.1271 139.473 91.7071 139.583C91.3571 139.683 90.9871 139.943 90.8171 140.263C90.6371 140.613 90.5471 141.023 90.6671 141.413C90.7771 141.753 91.0071 142.153 91.3471 142.303L91.3671 142.293Z" fill="#F44A4A"/>
<path d="M110.177 161.173C107.967 159.503 105.697 157.753 104.477 155.363C103.257 152.973 103.437 149.733 105.647 148.073C107.437 146.733 110.267 146.563 111.337 144.663C112.107 143.303 111.587 141.623 110.857 140.243C108.477 135.753 103.837 132.293 98.5571 131.473C93.2771 130.653 87.5171 132.673 84.3971 136.743C81.4671 140.563 81.0671 145.563 81.1671 150.263C81.2471 153.793 81.5571 157.343 82.5771 160.733C86.0671 172.313 98.5571 180.943 111.417 180.643C112.847 180.613 114.407 180.423 115.437 179.493C116.297 178.713 116.617 177.553 116.847 176.453C117.497 173.333 117.707 170.043 116.707 167.003C115.707 163.963 113.437 162.103 110.187 161.163L110.177 161.173Z" fill="#BF0822"/>
<path d="M110.927 159.883C108.807 158.273 106.177 156.393 105.417 153.703C104.767 151.403 105.657 149.513 107.807 148.553C109.807 147.663 112.127 147.003 112.927 144.703C113.827 142.123 112.257 139.353 110.757 137.333C107.757 133.303 103.187 130.533 98.1771 129.923C93.1671 129.313 87.7971 130.973 84.2771 134.603C80.3971 138.603 79.6071 144.313 79.6671 149.653C79.7271 155.293 80.4671 160.963 83.1671 165.983C87.8371 174.663 97.1071 180.573 106.787 181.863C109.427 182.213 112.757 182.603 115.227 181.393C118.167 179.953 118.547 176.193 118.797 173.293C119.057 170.223 118.707 166.743 116.947 164.123C115.427 161.863 113.127 160.503 110.567 159.733C108.727 159.173 107.947 162.043 109.777 162.603C111.607 163.163 113.487 164.163 114.557 165.903C115.887 168.073 116.037 170.823 115.827 173.293C115.717 174.523 115.527 175.793 115.177 176.983C114.787 178.323 113.957 178.893 112.597 179.083C110.437 179.393 108.057 179.123 105.927 178.733C97.5871 177.203 89.7971 172.013 85.7371 164.483C83.3171 159.993 82.7271 154.883 82.6471 149.853C82.5771 145.143 83.0771 139.923 86.6371 136.453C93.3971 129.863 104.847 132.753 109.297 140.503C109.837 141.443 110.657 142.923 109.987 143.993C109.477 144.813 108.277 145.153 107.437 145.503C105.247 146.393 103.377 147.553 102.597 149.913C100.777 155.393 105.547 159.513 109.417 162.453C110.947 163.613 112.427 161.023 110.917 159.883H110.927Z" fill="black"/>
<path d="M90.5571 150.813C91.2471 150.813 91.9371 150.833 92.6271 150.893C93.2671 150.953 93.9371 150.863 94.5771 150.813C94.9771 150.783 95.3371 150.663 95.6271 150.373C95.8871 150.113 96.077 149.693 96.067 149.323C96.057 148.953 95.9271 148.543 95.6271 148.273C95.3271 148.003 94.9671 147.813 94.5771 147.833C93.9371 147.883 93.2771 147.963 92.6271 147.913C91.9371 147.853 91.2471 147.833 90.5571 147.833C89.7771 147.833 89.037 148.513 89.067 149.323C89.097 150.133 89.7171 150.813 90.5571 150.813Z" fill="#FC7E0B"/>
<path d="M92.5771 160.503C93.8271 159.693 95.1371 158.973 96.4971 158.343C96.8171 158.193 97.0871 157.783 97.1771 157.453C97.2771 157.093 97.2271 156.623 97.0271 156.303C96.8271 155.983 96.5171 155.703 96.1371 155.623C95.7271 155.533 95.3771 155.593 94.9871 155.773C93.6271 156.393 92.3171 157.123 91.0671 157.933C90.7471 158.143 90.4871 158.443 90.3871 158.823C90.2871 159.183 90.3371 159.653 90.5371 159.973C90.9571 160.623 91.8771 160.963 92.5771 160.503Z" fill="#FC7E0B"/>
<path d="M97.5671 167.963L100.107 165.503C100.377 165.243 100.547 164.823 100.547 164.453C100.547 164.083 100.387 163.653 100.107 163.403C99.8271 163.153 99.4471 162.953 99.0571 162.963C98.6671 162.973 98.2971 163.113 98.0071 163.403L95.4671 165.863C95.1971 166.123 95.0271 166.543 95.0271 166.913C95.0271 167.283 95.1871 167.713 95.4671 167.963C95.7471 168.213 96.1271 168.413 96.5171 168.403C96.9071 168.393 97.2771 168.253 97.5671 167.963Z" fill="#FC7E0B"/>
<path d="M104.727 172.583L106.487 168.883C106.657 168.513 106.747 168.143 106.637 167.733C106.537 167.383 106.277 167.013 105.957 166.843C105.607 166.663 105.197 166.573 104.807 166.693C104.457 166.803 104.087 167.033 103.917 167.373L102.157 171.073C101.987 171.443 101.897 171.813 102.007 172.223C102.107 172.573 102.367 172.943 102.687 173.113C103.037 173.293 103.447 173.383 103.837 173.263C104.187 173.153 104.557 172.923 104.727 172.583Z" fill="#FC7E0B"/>
<path d="M113.747 173.873C113.747 172.803 113.747 171.743 113.747 170.673C113.747 170.293 113.577 169.893 113.307 169.623C113.037 169.353 112.627 169.173 112.257 169.183C111.887 169.193 111.477 169.323 111.207 169.623C110.937 169.923 110.777 170.273 110.767 170.673C110.767 171.743 110.767 172.803 110.767 173.873C110.767 174.253 110.937 174.653 111.207 174.923C111.477 175.193 111.887 175.373 112.257 175.363C112.627 175.353 113.037 175.223 113.307 174.923C113.577 174.623 113.737 174.273 113.747 173.873Z" fill="#FC7E0B"/>
<path d="M93.8171 140.803C94.8371 141.453 95.8571 142.103 96.8771 142.743C97.1971 142.943 97.6671 142.993 98.0271 142.893C98.3871 142.793 98.7471 142.533 98.9171 142.213C99.3071 141.473 99.0871 140.623 98.3871 140.173C97.3671 139.523 96.3471 138.873 95.3271 138.233C95.0071 138.033 94.5371 137.983 94.1771 138.083C93.8171 138.183 93.4571 138.443 93.2871 138.763C92.8971 139.503 93.1171 140.353 93.8171 140.803Z" fill="#FC7E0B"/>
<path d="M128.257 159.943C130.257 158.033 132.317 156.033 133.247 153.513C134.177 150.993 133.637 147.793 131.237 146.403C129.307 145.283 126.477 145.433 125.197 143.673C124.277 142.413 124.597 140.683 125.167 139.223C127.007 134.493 131.217 130.513 136.367 129.093C141.517 127.673 147.477 129.013 151.037 132.693C154.387 136.153 155.367 141.073 155.807 145.753C156.137 149.263 156.237 152.823 155.617 156.313C153.487 168.223 142.077 178.233 129.267 179.423C127.837 179.553 126.277 179.553 125.147 178.743C124.207 178.063 123.757 176.953 123.397 175.883C122.387 172.853 121.797 169.613 122.447 166.483C123.097 163.353 125.137 161.233 128.247 159.923L128.257 159.943Z" fill="#BF0822"/>
<path d="M129.307 160.993C132.537 157.893 136.137 154.003 134.927 149.133C134.407 147.063 132.997 145.463 131.037 144.663C129.537 144.043 126.307 143.973 126.117 141.903C125.927 139.833 127.537 137.503 128.697 136.003C130.067 134.233 131.817 132.773 133.797 131.713C137.667 129.643 142.497 129.433 146.497 131.293C150.927 133.353 152.987 137.633 153.847 142.233C154.807 147.293 155.087 152.943 153.737 157.953C151.537 166.113 144.907 172.783 137.187 175.953C134.947 176.873 132.577 177.533 130.177 177.843C128.997 178.003 127.517 178.243 126.397 177.743C125.177 177.203 124.847 175.573 124.507 174.413C123.707 171.653 123.217 168.503 124.217 165.723C125.027 163.493 126.907 162.143 129.017 161.223C130.767 160.463 129.257 157.893 127.517 158.653C125.317 159.613 123.317 161.103 122.117 163.223C120.797 165.553 120.527 168.393 120.807 171.013C121.087 173.633 121.647 176.903 123.317 179.003C125.147 181.303 128.157 181.113 130.777 180.743C140.387 179.413 149.367 173.353 154.097 164.863C156.757 160.083 157.727 154.803 157.547 149.363C157.367 143.923 156.787 137.973 153.597 133.473C150.607 129.243 145.567 127.013 140.437 127.053C135.307 127.093 130.397 129.473 127.057 133.333C125.277 135.393 123.637 138.003 123.227 140.733C122.757 143.913 124.717 145.853 127.587 146.703C128.737 147.043 130.077 147.223 131.007 148.043C131.937 148.863 132.277 150.283 132.187 151.523C131.947 154.563 129.267 156.913 127.217 158.883C125.827 160.213 127.937 162.313 129.317 160.983L129.307 160.993Z" fill="black"/>
<path d="M146.387 144.423C145.707 144.503 145.017 144.583 144.337 144.713C144.127 144.753 143.917 144.803 143.707 144.833L144.107 144.783C143.547 144.863 142.967 144.863 142.407 144.893C142.017 144.913 141.637 145.043 141.357 145.333C141.097 145.593 140.907 146.013 140.917 146.383C140.947 147.163 141.577 147.903 142.407 147.873C143.157 147.843 143.907 147.823 144.647 147.693C145.097 147.613 145.537 147.523 145.997 147.453L145.597 147.503C145.867 147.463 146.127 147.433 146.397 147.403C146.807 147.353 147.147 147.273 147.447 146.963C147.707 146.703 147.897 146.283 147.887 145.913C147.877 145.543 147.747 145.133 147.447 144.863C147.177 144.613 146.777 144.383 146.397 144.423H146.387Z" fill="#FC7E0B"/>
<path d="M147.007 154.603C145.557 153.883 144.047 153.263 142.507 152.763C141.767 152.523 140.847 153.043 140.677 153.803C140.487 154.623 140.927 155.373 141.717 155.633C142.507 155.893 143.347 156.203 144.147 156.543L143.787 156.393C144.367 156.643 144.937 156.903 145.497 157.183C145.857 157.363 146.247 157.443 146.647 157.333C146.997 157.233 147.367 156.973 147.537 156.653C147.897 155.983 147.747 154.983 147.007 154.613V154.603Z" fill="#FC7E0B"/>
<path d="M143.237 162.783C142.297 162.063 141.367 161.353 140.427 160.633C140.137 160.413 139.607 160.393 139.277 160.483C138.927 160.583 138.557 160.843 138.387 161.163C138.207 161.513 138.117 161.923 138.237 162.313L138.387 162.673C138.517 162.893 138.697 163.073 138.917 163.203C139.857 163.923 140.787 164.633 141.727 165.353C142.017 165.573 142.547 165.593 142.877 165.503C143.227 165.403 143.597 165.143 143.767 164.823C143.947 164.473 144.037 164.063 143.917 163.673L143.767 163.313C143.637 163.093 143.457 162.913 143.237 162.783Z" fill="#FC7E0B"/>
<path d="M137.457 169.003L135.277 165.533C135.077 165.213 134.757 164.953 134.387 164.853C134.017 164.753 133.557 164.803 133.237 165.003C132.917 165.203 132.637 165.513 132.557 165.893C132.477 166.273 132.497 166.693 132.707 167.043L134.887 170.513C135.087 170.833 135.407 171.093 135.777 171.193C136.147 171.293 136.607 171.243 136.927 171.043C137.247 170.843 137.527 170.533 137.607 170.153C137.687 169.773 137.667 169.353 137.457 169.003Z" fill="#FC7E0B"/>
<path d="M129.137 172.793C129.007 171.733 128.897 170.673 128.767 169.613C128.767 169.413 128.737 169.213 128.637 169.043C128.577 168.863 128.477 168.703 128.327 168.563C128.067 168.303 127.647 168.113 127.277 168.123C126.907 168.133 126.497 168.263 126.227 168.563C125.977 168.833 125.747 169.233 125.787 169.613C125.917 170.673 126.027 171.733 126.157 172.793C126.157 172.993 126.187 173.193 126.287 173.363C126.347 173.543 126.447 173.703 126.597 173.843C126.857 174.103 127.277 174.293 127.647 174.283C128.017 174.273 128.427 174.143 128.697 173.843C128.947 173.573 129.177 173.173 129.137 172.793Z" fill="#FC7E0B"/>
<path d="M140.207 135.583L137.397 137.863C137.117 138.093 136.957 138.573 136.957 138.913C136.957 139.283 137.117 139.713 137.397 139.963C137.677 140.213 138.057 140.413 138.447 140.403L138.847 140.353C139.097 140.283 139.317 140.153 139.507 139.973L142.317 137.693C142.597 137.463 142.757 136.983 142.757 136.643C142.757 136.273 142.597 135.843 142.317 135.593C142.037 135.343 141.657 135.143 141.267 135.153L140.867 135.203C140.617 135.273 140.397 135.403 140.207 135.583Z" fill="#FC7E0B"/>
<path d="M213.707 83.9732C222.237 140.663 269.657 132.933 269.657 132.933C266.957 124.423 271.327 83.7132 213.707 83.9732Z" fill="#3A9324"/>
<path d="M212.277 84.363C214.757 100.633 221.487 116.923 235.537 126.443C243.757 132.013 253.767 134.703 263.657 134.773C265.787 134.783 267.947 134.703 270.057 134.363C270.837 134.233 271.317 133.233 271.097 132.533C270.757 131.433 270.597 130.273 270.437 129.123C270.427 129.023 270.347 128.463 270.407 128.903C270.387 128.723 270.357 128.543 270.337 128.363C270.287 127.953 270.227 127.533 270.177 127.113C270.057 126.153 269.927 125.193 269.787 124.243C269.187 120.023 268.337 115.823 266.917 111.793C265.187 106.893 262.677 102.313 259.277 98.373C255.097 93.523 249.677 89.943 243.797 87.493C234.337 83.543 223.867 82.4431 213.697 82.4731C211.787 82.4731 211.777 85.4531 213.697 85.4531C228.607 85.4131 245.367 87.9331 256.107 99.3131C262.527 106.113 265.377 114.913 266.757 123.983C266.837 124.483 266.907 124.993 266.977 125.493C267.037 125.953 267.047 125.993 267.127 126.653C267.247 127.603 267.367 128.563 267.497 129.513C267.667 130.793 267.827 132.093 268.217 133.323L269.257 131.493C268.887 131.553 269.157 131.503 269.287 131.493C268.977 131.523 268.657 131.563 268.347 131.603C267.187 131.713 266.017 131.773 264.847 131.793C260.907 131.863 257.247 131.513 253.567 130.753C241.997 128.363 231.857 121.773 225.257 111.903C219.607 103.453 216.667 93.5431 215.147 83.5731C214.857 81.6831 211.987 82.483 212.277 84.363Z" fill="black"/>
<path d="M226.787 93.4832C229.527 96.6732 232.587 99.5232 235.917 102.083C239.247 104.643 242.727 107.103 245.917 109.913C249.107 112.723 252.177 115.373 254.697 118.653C257.217 121.933 259.007 125.383 260.277 129.153C260.887 130.963 263.757 130.183 263.147 128.363C261.837 124.473 259.977 120.793 257.527 117.493C255.077 114.193 251.867 111.243 248.707 108.413C245.547 105.583 242.007 102.953 238.537 100.353C235.067 97.7532 231.787 94.7231 228.907 91.3731C227.657 89.9231 225.557 92.0332 226.807 93.4732L226.787 93.4832Z" fill="#237C13"/>
<path d="M202.347 112.093C230.127 177.153 283.657 154.323 283.657 154.323C277.817 144.963 270.247 95.2332 202.347 112.093Z" fill="#3A9324"/>
<path d="M201.057 112.843C209.027 131.413 221.927 148.783 241.427 156.083C252.787 160.333 265.417 160.683 277.157 157.883C279.617 157.293 282.077 156.593 284.407 155.603C285.137 155.293 285.327 154.183 284.937 153.563C284.607 153.023 284.317 152.463 284.047 151.893C283.897 151.563 283.747 151.233 283.597 150.903C283.517 150.723 283.447 150.543 283.367 150.363C283.537 150.773 283.247 150.083 283.197 149.963C282.417 148.083 281.687 146.193 280.897 144.323C278.857 139.443 276.567 134.663 273.627 130.243C270.057 124.873 265.647 120.113 260.367 116.393C254.077 111.953 246.687 109.223 239.107 108.013C226.717 106.033 214.027 107.673 201.927 110.663C200.067 111.123 200.857 113.993 202.717 113.533C220.487 109.143 241.007 107.503 257.147 117.813C266.927 124.063 273.187 133.843 277.677 144.323C277.907 144.853 278.037 145.163 278.327 145.873C278.557 146.433 278.787 146.993 279.007 147.553C279.397 148.523 279.787 149.503 280.187 150.473C280.827 152.033 281.447 153.643 282.337 155.083L282.867 153.043C283.607 152.723 282.987 152.993 282.807 153.063C282.447 153.203 282.087 153.333 281.727 153.463C280.387 153.933 279.037 154.333 277.667 154.693C273.007 155.913 268.717 156.533 263.957 156.693C249.397 157.183 235.367 152.133 224.527 142.343C215.157 133.883 208.537 122.863 203.597 111.353C202.847 109.593 200.277 111.113 201.027 112.853L201.057 112.843Z" fill="black"/>
<path d="M274.507 148.943C271.147 146.813 267.637 144.943 263.987 143.373C260.337 141.803 256.297 140.503 252.447 139.043C248.597 137.583 244.677 135.733 240.877 133.893C237.317 132.173 233.857 130.223 230.757 127.753C227.507 125.153 224.597 122.123 222.157 118.743C221.047 117.203 218.467 118.693 219.587 120.243C224.117 126.513 229.977 131.593 236.827 135.183C240.567 137.143 244.447 138.923 248.337 140.573C252.227 142.223 256.427 143.553 260.447 145.113C264.837 146.813 269.027 148.983 272.997 151.503C274.617 152.533 276.117 149.963 274.497 148.933L274.507 148.943Z" fill="#237C13"/>
<path d="M261.117 157.693C326.667 134.873 302.397 76.6031 302.397 76.6031C293.007 81.8131 242.617 84.9531 261.117 157.693Z" fill="#43A52F"/>
<path d="M261.517 159.123C272.257 155.363 282.627 150.043 290.967 142.183C297.187 136.323 302.007 129.123 304.917 121.083C307.327 114.433 308.357 107.303 308.277 100.243C308.207 94.7131 307.477 89.1631 306.177 83.7931C305.567 81.2931 304.927 78.6631 303.877 76.3031C303.857 76.2731 303.847 76.2331 303.837 76.2031C303.467 75.3131 302.577 74.8031 301.647 75.3131C301.397 75.4531 301.137 75.5731 300.887 75.6931C300.647 75.8031 300.477 75.8731 300.737 75.7631C300.577 75.8231 300.427 75.8931 300.267 75.9531C299.527 76.2431 298.777 76.5031 298.027 76.7531C296.157 77.3731 294.277 77.9632 292.407 78.5932C287.497 80.2532 282.657 82.2231 278.197 84.8831C272.797 88.1031 268.037 92.3031 264.377 97.4331C259.857 103.773 257.307 111.313 256.247 118.973C254.687 130.263 256.017 141.793 258.437 152.873C258.817 154.623 259.237 156.363 259.677 158.093C260.147 159.953 263.017 159.163 262.547 157.303C259.687 146.003 257.807 134.243 258.817 122.563C259.487 114.843 261.607 107.183 265.807 100.613C269.047 95.5531 273.457 91.3932 278.437 88.2232C282.857 85.4132 287.267 83.5232 292.087 81.8432C295.497 80.6532 299.087 79.7831 302.377 78.2731C302.637 78.1531 302.887 78.0331 303.137 77.8931L300.947 77.0031C301.727 78.8831 302.307 80.8631 302.837 82.8231C304.167 87.7531 304.927 92.4631 305.197 97.4631C305.547 104.043 304.947 110.673 303.107 117.013C300.917 124.583 296.947 131.553 291.597 137.333C284.377 145.123 275.037 150.683 265.227 154.583C263.737 155.173 262.227 155.733 260.717 156.263C258.917 156.893 259.697 159.773 261.507 159.133L261.517 159.123Z" fill="black"/>
<path d="M297.157 85.8232C295.057 89.1332 293.247 92.6131 291.737 96.2431C290.137 100.083 288.947 104.063 287.537 107.973C286.127 111.883 284.337 115.783 282.547 119.593C280.877 123.123 278.987 126.553 276.507 129.593C274.027 132.633 270.917 135.483 267.527 137.713C265.937 138.763 267.427 141.343 269.027 140.283C275.357 136.113 280.397 130.383 283.867 123.643C285.787 119.913 287.497 116.033 289.097 112.153C290.697 108.273 291.977 103.943 293.487 99.8532C295.117 95.4632 297.217 91.2732 299.727 87.3232C300.757 85.7032 298.177 84.2032 297.157 85.8232Z" fill="#2C891F"/>
<path d="M262.117 75.9832C219.917 124.183 262.977 156.513 262.977 156.513C268.227 148.143 306.597 121.933 262.117 75.9832Z" fill="#3A9324"/>
<path d="M261.067 74.9331C249.227 88.5131 239.997 105.683 242.557 124.213C244.057 135.063 249.507 145.073 256.977 152.983C258.607 154.703 260.327 156.373 262.227 157.803C262.887 158.303 263.877 157.883 264.267 157.273C264.397 157.063 264.547 156.863 264.687 156.653C264.747 156.573 265.067 156.163 264.787 156.513C264.887 156.383 264.997 156.253 265.097 156.123C265.557 155.563 266.037 155.013 266.527 154.473C267.757 153.103 269.017 151.753 270.237 150.373C273.427 146.783 276.437 142.993 278.857 138.833C281.737 133.903 283.747 128.493 284.497 122.823C285.387 116.053 284.367 109.173 281.997 102.793C278.047 92.183 270.947 83.0231 263.157 74.9431C261.827 73.5631 259.717 75.663 261.057 77.043C272.347 88.753 283.237 104.033 281.707 121.163C280.797 131.333 275.257 140.163 268.677 147.653C266.357 150.303 263.577 152.783 261.677 155.773L263.717 155.243C263.717 155.243 264.067 155.533 263.697 155.223C263.427 154.993 263.147 154.773 262.877 154.543C261.907 153.713 260.977 152.833 260.077 151.933C257.087 148.923 254.487 145.663 252.257 142.063C245.507 131.193 243.357 118.343 246.657 105.933C249.537 95.0731 255.857 85.4431 263.167 77.0631C264.417 75.6231 262.327 73.5131 261.067 74.9631V74.9331Z" fill="black"/>
<path d="M263.477 147.143C263.857 142.633 263.707 138.133 263.097 133.653C262.487 129.173 261.647 124.563 261.367 119.943C261.087 115.323 260.727 110.883 261.397 106.403C262.067 101.923 263.427 97.9931 265.457 94.1731C266.357 92.4831 263.787 90.9731 262.887 92.6731C260.847 96.5131 259.367 100.653 258.637 104.943C257.847 109.603 258.067 114.263 258.337 118.963C258.607 123.663 259.297 128.173 259.997 132.783C260.697 137.393 260.907 142.333 260.507 147.133C260.347 149.043 263.327 149.033 263.487 147.133L263.477 147.143Z" fill="#237C13"/>
<path d="M325.857 103.573C259.387 104.903 261.487 159.703 261.487 159.703C271.667 157.903 317.897 168.823 325.857 103.573Z" fill="#43A52F"/>
<path d="M325.857 102.083C314.897 102.323 303.857 103.973 293.717 108.273C286.347 111.403 279.577 115.983 274.217 121.953C269.857 126.813 266.487 132.443 264.107 138.503C262.307 143.083 261.107 147.883 260.467 152.753C260.167 154.983 259.857 157.333 259.997 159.593C259.997 159.623 259.997 159.663 259.997 159.693C260.037 160.733 260.917 161.293 261.877 161.133C262.007 161.113 262.517 161.043 261.947 161.113C262.097 161.093 262.237 161.073 262.387 161.063C262.707 161.033 263.037 161.013 263.357 160.993C264.117 160.953 264.887 160.943 265.647 160.933C267.537 160.913 269.427 160.933 271.317 160.913C276.337 160.853 281.377 160.483 286.297 159.453C292.057 158.253 297.667 156.083 302.597 152.833C308.727 148.793 313.667 143.233 317.327 136.893C323.197 126.743 325.917 115.083 327.337 103.553C327.567 101.653 324.597 101.673 324.357 103.553C322.277 120.413 316.817 139.133 302.267 149.463C293.397 155.753 282.847 157.713 272.277 157.913C268.587 157.983 264.737 157.613 261.077 158.243L262.957 159.683C262.887 157.893 263.047 156.083 263.237 154.313C263.367 153.113 263.387 152.973 263.557 151.883C263.727 150.793 263.917 149.793 264.127 148.753C264.637 146.333 265.297 143.933 266.107 141.593C270.487 128.883 279.677 118.393 291.867 112.353C302.367 107.153 314.227 105.293 325.847 105.033C327.757 104.993 327.767 102.013 325.847 102.053L325.857 102.083Z" fill="black"/>
<path d="M269.147 153.783C273.107 150.903 276.747 147.663 280.027 144.033C283.307 140.403 286.407 136.683 289.937 133.283C293.467 129.883 296.807 126.593 300.847 124.013C304.887 121.433 309.027 119.703 313.537 118.583C315.397 118.123 314.607 115.253 312.747 115.713C308.297 116.823 303.997 118.593 300.077 120.993C295.927 123.533 292.397 126.843 288.887 130.183C285.377 133.523 281.917 137.453 278.547 141.243C275.177 145.033 271.657 148.313 267.657 151.223C266.127 152.343 267.607 154.923 269.157 153.793L269.147 153.783Z" fill="#2C891F"/>
<path d="M225.447 120.923C258.127 123.493 267.577 142.313 270.247 154.513C271.407 159.813 267.057 164.723 261.657 164.193C248.667 162.913 228.437 157.353 225.447 120.923Z" fill="#84A304"/>
<path d="M225.447 122.413C236.227 123.283 247.397 126.173 255.867 133.213C261.437 137.833 265.507 143.973 267.717 150.853C268.147 152.183 268.547 153.543 268.807 154.923C269.317 157.533 268.227 160.263 265.967 161.713C263.057 163.583 259.177 162.523 256.087 161.873C249.627 160.513 243.607 157.653 238.947 152.903C230.727 144.513 227.887 132.263 226.937 120.933C226.777 119.043 223.797 119.023 223.957 120.933C224.907 132.293 227.617 144.133 235.087 153.073C239.897 158.833 246.557 162.623 253.797 164.403C255.297 164.773 256.827 165.063 258.357 165.283C260.307 165.573 262.297 165.903 264.257 165.543C267.097 165.023 269.667 163.033 270.917 160.443C272.167 157.853 272.027 155.483 271.377 152.883C269.567 145.603 265.907 138.793 260.577 133.483C252.647 125.563 241.747 121.553 230.817 120.023C229.027 119.773 227.227 119.573 225.427 119.433C223.517 119.283 223.527 122.253 225.427 122.413H225.447Z" fill="black"/>
<path d="M267.397 158.363C261.527 153.613 257.447 147.343 252.277 141.913C249.757 139.273 247.237 136.673 244.227 134.583C241.217 132.493 238.157 131.083 234.817 130.043C232.987 129.473 232.197 132.343 234.027 132.913C237.267 133.923 240.307 135.423 243.067 137.403C245.827 139.383 248.367 142.113 250.797 144.683C253.227 147.253 255.477 150.223 257.797 153.033C260.117 155.843 262.547 158.253 265.297 160.483C266.777 161.673 268.887 159.583 267.397 158.383V158.363Z" fill="#699328"/>
<path d="M307.467 132.423C275.537 124.973 260.837 140.033 254.597 150.863C251.887 155.563 254.537 161.563 259.847 162.693C272.617 165.403 293.587 166.243 307.467 132.423Z" fill="#84A304"/>
<path d="M307.867 130.983C296.247 128.303 283.777 127.793 272.617 132.593C265.287 135.743 259.157 141.133 254.767 147.753C253.637 149.463 252.507 151.233 252.167 153.293C251.747 155.903 252.417 158.583 254.037 160.673C256.637 164.043 260.887 164.533 264.827 165.013C272.047 165.893 279.407 164.953 285.927 161.613C295.557 156.683 302.157 147.353 306.697 137.803C307.477 136.163 308.207 134.483 308.897 132.803C309.627 131.033 306.747 130.263 306.027 132.013C302.027 141.683 296.317 151.543 287.327 157.363C281.547 161.103 274.857 162.653 268.017 162.313C265.197 162.173 262.347 161.893 259.607 161.083C257.317 160.403 255.637 158.463 255.137 156.153C254.687 154.073 255.457 152.263 256.527 150.523C260.167 144.603 265.267 139.653 271.437 136.433C282.397 130.713 295.327 131.143 307.067 133.853C308.927 134.283 309.727 131.413 307.857 130.983H307.867Z" fill="black"/>
<path d="M257.227 158.143C260.497 156.863 263.637 155.313 266.607 153.413C269.577 151.513 272.487 149.403 275.597 147.653C278.707 145.903 281.667 144.173 284.947 143.023C288.417 141.803 292.037 141.213 295.717 141.233C297.637 141.233 297.637 138.263 295.717 138.253C292.027 138.233 288.317 138.773 284.807 139.923C281.297 141.073 278.357 142.723 275.267 144.423C268.887 147.933 263.267 152.593 256.427 155.263C254.667 155.953 255.427 158.833 257.217 158.133L257.227 158.143Z" fill="#699328"/>
<path d="M87.8371 46.2631C43.9271 108.673 96.6771 144.833 96.6771 144.833C101.907 134.163 143.537 98.9931 87.8371 46.2631Z" fill="#3A9324"/>
<path d="M86.5571 45.5131C74.0671 63.3231 65.5471 85.0531 70.2471 106.993C73.0071 119.873 80.1271 131.633 89.5571 140.743C91.5471 142.663 93.6471 144.553 95.9271 146.123C96.5571 146.553 97.6271 146.273 97.9671 145.593C99.5971 142.303 102.167 139.433 104.287 136.463C107.577 131.873 110.607 127.083 112.947 121.923C115.797 115.643 117.617 108.943 117.957 102.033C118.367 93.6031 116.477 85.2731 113.117 77.5731C107.697 65.1231 98.6471 54.4831 88.8871 45.2131C87.4971 43.8931 85.3871 45.9931 86.7871 47.3131C101.237 61.0331 115.097 78.9431 115.037 99.8331C114.997 112.353 109.627 123.693 102.567 133.753C100.197 137.133 97.2271 140.363 95.3871 144.083L97.4271 143.553C97.3071 143.473 97.1771 143.393 97.0671 143.293C96.9471 143.193 96.8071 143.103 96.6771 143.003C96.5871 142.933 96.4971 142.863 96.4071 142.803C96.5371 142.903 96.5771 142.933 96.2971 142.713C95.0971 141.753 93.9271 140.753 92.7871 139.713C89.0071 136.223 85.5971 132.313 82.6871 128.093C73.7271 115.053 70.0271 99.2631 72.7771 83.6231C75.1171 70.2831 81.3971 58.0231 89.1071 47.0231C90.2071 45.4531 87.6271 43.9631 86.5371 45.5231L86.5571 45.5131Z" fill="black"/>
<path d="M92.1871 67.3931C91.9571 71.7031 92.0671 76.0231 92.5571 80.3131C93.0471 84.6031 93.917 88.8432 94.597 93.1032C95.277 97.3632 95.6171 101.983 95.9271 106.433C96.2371 110.883 96.2971 114.983 95.6671 119.223C94.9671 123.903 93.5971 128.473 91.5871 132.753C90.7771 134.473 93.3471 135.993 94.1571 134.253C97.7871 126.513 99.4171 118.133 99.0771 109.603C98.8971 105.013 98.5271 100.393 97.9571 95.8331C97.3871 91.2731 96.467 86.9831 95.817 82.5331C95.087 77.5231 94.8971 72.4331 95.1671 67.3831C95.2671 65.4731 92.2871 65.4731 92.1871 67.3831V67.3931Z" fill="#237C13"/>
<path d="M51.0471 62.8831C17.9671 151.043 90.4771 178.293 90.4771 178.293C93.4571 163.913 131.897 109.083 51.0471 62.8831Z" fill="#3A9324"/>
<path d="M49.6171 62.4832C44.2071 76.9532 40.6071 92.353 40.9371 107.873C41.1871 119.303 43.6671 130.633 48.6671 140.943C52.6271 149.113 58.1371 156.523 64.6671 162.823C69.6271 167.603 75.1771 171.793 81.1171 175.263C82.9871 176.353 84.8971 177.383 86.8471 178.303C87.8471 178.773 88.8871 179.343 89.9471 179.663C89.9871 179.673 90.0371 179.693 90.0771 179.713C90.7971 179.983 91.7571 179.403 91.9071 178.673C92.8371 174.263 94.9971 170.043 96.6071 165.863C99.1071 159.383 101.247 152.743 102.467 145.893C103.967 137.553 104.127 129.023 102.507 120.683C100.557 110.613 95.9871 101.203 89.7971 93.0531C81.1171 81.6231 69.6971 72.5431 57.5571 65.0131C55.6571 63.8331 53.7271 62.6931 51.7771 61.5731C50.1171 60.6231 48.6071 63.1931 50.2771 64.1431C63.0571 71.4631 75.2771 80.2431 84.8171 91.5631C91.4371 99.4131 96.5471 108.563 98.9971 118.583C100.957 126.583 101.157 134.973 99.9171 143.103C98.8571 150.023 96.8471 156.743 94.3971 163.283C92.7171 167.763 90.5871 172.163 89.2971 176.783C89.1971 177.143 89.1071 177.513 89.0271 177.883L90.8571 176.843C90.6971 176.783 90.5371 176.713 90.3771 176.653C90.2871 176.623 90.2071 176.583 90.1171 176.543C90.7171 176.793 90.2271 176.593 90.0771 176.523C89.8071 176.403 89.5371 176.283 89.2671 176.163C87.5671 175.393 85.8971 174.543 84.2671 173.633C78.7071 170.553 73.6671 166.973 69.0071 162.803C62.6071 157.083 57.1271 150.373 52.9771 142.843C47.8171 133.483 44.8871 123.013 44.1071 112.363C43.0371 97.833 45.7171 83.2831 50.2571 69.5131C50.9471 67.4131 51.6871 65.323 52.4671 63.243C53.1371 61.443 50.2671 60.6731 49.5971 62.4531L49.6171 62.4832Z" fill="black"/>
<path d="M86.1471 164.863C84.8871 159.763 83.2371 154.773 81.1871 149.933C79.1371 145.093 76.6071 140.413 74.3071 135.653C72.0071 130.893 70.0671 125.883 68.1671 120.913C66.2671 115.943 64.5671 110.743 63.6971 105.393C62.7371 99.483 62.6871 93.3831 63.5071 87.4531C63.7671 85.5831 60.8971 84.773 60.6371 86.663C59.1371 97.503 60.4271 108.263 64.1171 118.543C65.9571 123.653 67.9271 128.743 70.1271 133.703C72.3271 138.663 74.9971 143.473 77.2871 148.433C79.8371 153.963 81.8171 159.743 83.2771 165.653C83.7371 167.513 86.6071 166.723 86.1471 164.863Z" fill="#237C13"/>
<path d="M65.6871 160.813C149.767 199.123 179.977 120.713 179.977 120.713C166.137 117.093 114.757 73.7731 65.6871 160.813Z" fill="#43A52F"/>
<path d="M64.9371 162.093C78.6971 168.343 93.5371 172.763 108.747 172.833C120.067 172.893 131.277 170.403 141.407 165.333C149.777 161.143 157.277 155.253 163.637 148.403C168.607 143.053 172.957 137.103 176.597 130.773C177.767 128.753 178.857 126.683 179.867 124.583C180.377 123.503 180.997 122.373 181.347 121.233C181.357 121.183 181.387 121.143 181.407 121.093C181.697 120.343 181.087 119.453 180.367 119.263C179.577 119.053 178.807 118.763 178.047 118.453C177.947 118.413 177.847 118.373 177.737 118.323C177.727 118.323 177.967 118.423 177.687 118.303C177.437 118.193 177.187 118.083 176.947 117.973C176.447 117.753 175.947 117.523 175.457 117.283C173.087 116.163 170.737 114.993 168.357 113.883C162.127 110.973 155.707 108.433 148.997 106.893C140.927 105.043 132.577 104.693 124.417 106.243C114.217 108.183 104.887 113.113 96.7971 119.503C85.0271 128.803 75.7871 141.083 68.0371 153.813C66.7871 155.863 65.5771 157.943 64.3971 160.033C63.4571 161.703 66.0271 163.203 66.9671 161.533C74.6271 147.973 83.6771 134.843 95.4371 124.503C103.217 117.663 112.327 112.193 122.457 109.713C130.257 107.803 138.407 107.793 146.247 109.343C152.917 110.663 159.387 113.043 165.407 115.783C169.757 117.763 173.987 120.223 178.507 121.793C178.857 121.913 179.207 122.023 179.567 122.113L178.527 120.283C178.457 120.463 178.387 120.633 178.307 120.813C178.207 121.073 178.497 120.373 178.327 120.773C178.277 120.893 178.227 121.013 178.167 121.133C178.037 121.433 177.907 121.733 177.767 122.023C176.927 123.853 176.017 125.653 175.047 127.413C171.827 133.293 168.037 138.803 163.727 143.813C157.967 150.493 151.227 156.343 143.577 160.753C134.447 166.023 124.167 169.073 113.647 169.693C99.4971 170.533 85.4371 167.253 72.3571 162.033C70.3571 161.233 68.3771 160.383 66.4171 159.493C64.6871 158.703 63.1671 161.273 64.9171 162.063L64.9371 162.093Z" fill="black"/>
<path d="M166.607 125.233C161.617 126.463 156.757 128.123 152.037 130.173C147.317 132.223 142.527 134.913 137.787 137.303C133.027 139.703 128.097 141.693 123.147 143.653C118.197 145.613 113.197 147.333 107.937 148.173C102.067 149.113 96.0171 149.023 90.1671 147.953C88.2971 147.613 87.4871 150.483 89.3771 150.823C100.147 152.793 110.837 151.463 121.047 147.643C126.047 145.773 131.037 143.783 135.877 141.543C140.717 139.303 145.477 136.543 150.357 134.203C155.817 131.583 161.537 129.553 167.417 128.103C169.277 127.643 168.487 124.773 166.627 125.233H166.607Z" fill="#2C891F"/>
<path d="M141.777 83.0831C56.8371 90.6731 68.5571 161.393 68.5571 161.393C81.3071 158.163 142.337 168.213 141.777 83.0831Z" fill="#3A9324"/>
<path d="M141.777 81.5932C127.937 82.8432 114.047 85.8731 101.667 92.3831C92.7071 97.0931 84.8171 103.683 78.8971 111.913C74.1571 118.513 70.8071 126.083 68.8271 133.943C67.2971 140.013 66.5371 146.293 66.5171 152.543C66.5171 154.523 66.5771 156.493 66.7371 158.463C66.8171 159.493 66.8371 160.653 67.0971 161.653C67.1071 161.693 67.1071 161.733 67.1171 161.773C67.2471 162.583 68.2371 162.993 68.9471 162.813C69.2871 162.723 69.6271 162.653 69.9771 162.593C70.1671 162.563 70.3471 162.533 70.5371 162.503C70.6371 162.483 70.7471 162.473 70.8471 162.463C70.5471 162.503 70.6271 162.493 70.8571 162.463C71.8071 162.353 72.7671 162.263 73.7271 162.183C76.1571 161.993 78.5871 161.853 81.0071 161.663C87.3171 161.153 93.6271 160.293 99.7271 158.563C106.957 156.513 113.797 153.233 119.707 148.563C126.837 142.923 132.207 135.333 135.797 127.023C140.927 115.123 142.807 102.063 143.197 89.1932C143.257 87.1532 143.277 85.1132 143.267 83.0732C143.257 81.1632 140.277 81.1532 140.287 83.0732C140.357 96.3732 139.087 109.953 134.427 122.513C131.287 130.973 126.417 138.793 119.617 144.783C114.137 149.613 107.597 153.013 100.717 155.163C94.6471 157.073 88.6171 158.013 82.4871 158.563C78.0671 158.963 73.5371 158.953 69.1571 159.733C68.8271 159.793 68.4971 159.863 68.1671 159.943L69.9971 160.983C69.9771 160.833 69.9171 160.653 69.9271 160.503C69.8771 161.163 69.9271 160.533 69.8971 160.273C69.8671 160.003 69.8371 159.733 69.8071 159.463C69.6371 157.743 69.5471 156.023 69.5071 154.293C69.3871 148.493 69.8971 143.003 71.0571 137.513C72.6371 130.003 75.3671 122.873 79.4571 116.393C84.4571 108.473 91.3671 101.933 99.3571 97.0932C110.377 90.4132 123.087 86.8932 135.797 85.2132C137.787 84.9532 139.777 84.7331 141.767 84.5531C143.657 84.3831 143.677 81.4032 141.767 81.5732L141.777 81.5932Z" fill="black"/>
<path d="M77.2771 152.513C80.7171 149.473 83.9071 146.143 86.7671 142.553C89.8171 138.723 92.4571 134.593 95.3171 130.633C98.1771 126.673 101.447 122.903 104.697 119.203C107.707 115.773 110.937 112.573 114.677 109.943C118.797 107.043 123.317 104.783 128.107 103.203C129.917 102.603 129.147 99.7331 127.317 100.333C118.607 103.203 110.857 108.183 104.597 114.883C101.177 118.543 97.9071 122.403 94.8371 126.353C91.7671 130.303 89.0871 134.563 86.0971 138.583C82.8871 142.893 79.1971 146.843 75.1771 150.403C73.7371 151.673 75.8471 153.773 77.2771 152.503V152.513Z" fill="#237C13"/>
<path d="M48.9171 151.893C91.5971 142.783 110.777 163.213 118.807 177.773C122.297 184.103 118.607 192.013 111.517 193.383C94.4571 196.673 66.5271 197.243 48.9171 151.893Z" fill="#84A304"/>
<path d="M49.3071 153.323C63.7271 150.273 79.4371 149.753 93.1871 155.833C102.167 159.813 109.737 166.373 115.137 174.563C116.327 176.373 117.717 178.343 118.307 180.443C119.167 183.473 118.357 186.843 116.207 189.153C113.147 192.443 107.767 192.663 103.637 193.003C94.8071 193.743 85.9071 192.373 78.0971 188.043C66.3671 181.553 58.5671 169.893 53.0871 157.983C52.1071 155.843 51.1971 153.683 50.3471 151.493C49.6571 149.733 46.7771 150.493 47.4771 152.283C52.9271 166.243 60.7671 180.253 73.5271 188.743C81.7871 194.243 91.6171 196.583 101.487 196.123C103.607 196.023 105.717 195.803 107.817 195.503C110.167 195.173 112.597 194.873 114.767 193.863C117.907 192.393 120.287 189.453 121.207 186.123C122.127 182.793 121.407 179.293 119.667 176.253C114.727 167.613 107.617 160.213 98.8871 155.363C85.7671 148.063 70.3471 147.053 55.7271 149.163C53.3071 149.513 50.9071 149.953 48.5271 150.463C46.6571 150.863 47.4471 153.733 49.3171 153.333L49.3071 153.323Z" fill="black"/>
<path d="M238.207 187.983C260.613 187.983 278.777 169.819 278.777 147.413C278.777 125.007 260.613 106.843 238.207 106.843C215.801 106.843 197.637 125.007 197.637 147.413C197.637 169.819 215.801 187.983 238.207 187.983Z" fill="#C3EA78"/>
<path d="M277.287 147.413C277.217 163.603 266.957 178.553 251.667 184.113C236.187 189.743 218.557 184.923 208.037 172.273C197.547 159.653 196.277 141.163 204.757 127.163C213.217 113.203 229.997 105.803 246.017 109.103C261.817 112.353 274.227 125.333 276.807 141.253C277.137 143.283 277.267 145.343 277.277 147.403C277.277 149.313 280.257 149.323 280.257 147.403C280.187 129.873 269.077 113.943 252.617 107.883C236.097 101.803 216.867 107.063 205.727 120.683C194.567 134.323 193.037 154.023 202.197 169.143C211.357 184.263 229.237 192.033 246.487 188.643C263.467 185.303 277.107 171.123 279.737 154.013C280.077 151.823 280.257 149.623 280.267 147.403C280.267 145.483 277.297 145.483 277.287 147.403V147.413Z" fill="black"/>
<path d="M233.797 136.623C233.627 136.623 233.417 136.573 233.267 136.473C233.317 136.503 232.737 135.873 232.867 136.083C232.867 136.083 232.717 135.703 232.767 135.893C232.647 135.493 232.737 135.583 232.737 135.733C232.737 135.943 232.727 136.153 232.707 136.363C232.697 136.593 232.687 136.823 232.707 137.053C232.747 137.453 232.867 137.763 232.957 138.153C232.977 138.233 232.987 138.313 233.007 138.403C233.057 138.613 233.007 138.163 233.007 138.383C233.007 138.553 233.027 138.723 233.037 138.893C233.037 139.263 233.037 139.633 233.017 139.993C232.987 140.773 232.967 141.553 232.937 142.343C232.907 143.133 233.637 143.863 234.427 143.833C235.257 143.793 235.887 143.183 235.917 142.343C235.977 140.553 236.237 138.653 235.697 136.913C235.687 136.863 235.677 136.783 235.657 136.743C235.677 136.783 235.677 137.113 235.687 136.913C235.687 136.773 235.687 136.643 235.687 136.503C235.697 136.243 235.737 135.973 235.717 135.713C235.667 134.583 234.967 133.723 233.797 133.673C233.017 133.633 232.277 134.383 232.307 135.163C232.347 136.003 232.957 136.613 233.797 136.653V136.623Z" fill="#69AA31"/>
<path d="M244.407 136.933C243.997 137.823 243.527 138.693 242.997 139.513C242.737 139.923 242.457 140.313 242.167 140.703C242.137 140.753 242.097 140.803 242.057 140.843C242.097 140.803 242.247 140.593 242.127 140.753C242.057 140.843 241.977 140.933 241.907 141.023C241.737 141.223 241.567 141.423 241.397 141.623C240.887 142.203 240.777 143.163 241.397 143.723C241.957 144.243 242.957 144.343 243.497 143.723C244.897 142.133 246.087 140.363 246.967 138.433C247.137 138.063 247.227 137.693 247.117 137.283C247.017 136.933 246.757 136.563 246.437 136.393C245.787 136.043 244.747 136.173 244.397 136.923L244.407 136.933Z" fill="#69AA31"/>
<path d="M224.597 153.143C224.987 152.903 225.397 152.683 225.817 152.503L225.457 152.653C226.177 152.353 226.917 152.143 227.687 152.033L227.287 152.083C227.797 152.013 228.317 151.993 228.837 152.003C229.617 152.033 230.357 151.303 230.327 150.513C230.287 149.683 229.677 149.053 228.837 149.023C226.837 148.953 224.787 149.493 223.087 150.563C222.427 150.973 222.107 151.913 222.557 152.603C223.007 153.293 223.887 153.573 224.597 153.133V153.143Z" fill="#69AA31"/>
<path d="M229.617 161.623C230.947 160.283 232.197 158.873 233.357 157.383C233.607 157.063 233.797 156.763 233.797 156.333C233.797 155.963 233.637 155.533 233.357 155.283C233.077 155.033 232.697 154.833 232.307 154.843C231.937 154.863 231.487 154.973 231.257 155.283C230.097 156.773 228.847 158.183 227.517 159.523C226.967 160.073 226.927 161.083 227.517 161.623C228.107 162.163 229.037 162.213 229.617 161.623Z" fill="#69AA31"/>
<path d="M248.457 160.723C246.807 159.213 245.157 157.703 243.507 156.183C242.937 155.653 241.967 155.573 241.407 156.183C240.877 156.753 240.797 157.723 241.407 158.283C243.057 159.793 244.707 161.303 246.357 162.823C246.927 163.353 247.897 163.433 248.457 162.823C248.987 162.253 249.067 161.283 248.457 160.723Z" fill="#69AA31"/>
<path d="M246.157 152.473C247.857 153.393 249.547 154.323 251.247 155.243C251.927 155.613 252.897 155.433 253.287 154.713C253.677 153.993 253.487 153.073 252.757 152.673C251.057 151.753 249.367 150.823 247.667 149.903C246.987 149.533 246.017 149.713 245.627 150.433C245.237 151.153 245.427 152.073 246.157 152.473Z" fill="#69AA31"/>
<path d="M108.477 151.893C130.883 151.893 149.047 133.729 149.047 111.323C149.047 88.9169 130.883 70.7531 108.477 70.7531C86.0709 70.7531 67.9071 88.9169 67.9071 111.323C67.9071 133.729 86.0709 151.893 108.477 151.893Z" fill="#C3EA78"/>
<path d="M147.557 111.323C147.487 127.513 137.227 142.463 121.937 148.023C106.457 153.653 88.8271 148.833 78.3071 136.183C67.8171 123.563 66.5471 105.073 75.0271 91.0732C83.4871 77.1132 100.267 69.7131 116.287 73.0131C132.087 76.2631 144.497 89.2431 147.077 105.163C147.407 107.193 147.537 109.253 147.547 111.313C147.547 113.223 150.527 113.233 150.527 111.313C150.457 93.7832 139.347 77.8531 122.887 71.7931C106.367 65.7131 87.1371 70.9732 75.9971 84.5932C64.8371 98.2332 63.3071 117.933 72.4671 133.053C81.5871 148.103 99.5071 155.943 116.757 152.553C133.737 149.213 147.377 135.033 150.007 117.923C150.347 115.733 150.527 113.533 150.537 111.313C150.537 109.393 147.567 109.393 147.557 111.313V111.323Z" fill="black"/>
<path d="M104.057 100.533C103.887 100.533 103.677 100.483 103.527 100.383C103.577 100.413 102.997 99.783 103.127 99.993C103.127 99.993 102.977 99.613 103.027 99.803C102.907 99.403 102.997 99.493 102.997 99.643C102.997 99.853 102.987 100.063 102.967 100.273C102.957 100.503 102.947 100.733 102.967 100.963C103.007 101.363 103.127 101.673 103.217 102.063C103.237 102.143 103.247 102.223 103.267 102.313C103.317 102.523 103.267 102.073 103.267 102.293C103.267 102.463 103.287 102.633 103.297 102.803C103.297 103.173 103.297 103.543 103.277 103.903C103.247 104.683 103.227 105.463 103.197 106.253C103.167 107.043 103.897 107.773 104.687 107.743C105.517 107.703 106.147 107.093 106.177 106.253C106.237 104.463 106.497 102.563 105.957 100.823C105.947 100.773 105.937 100.693 105.917 100.653C105.937 100.693 105.937 101.023 105.947 100.823C105.947 100.683 105.947 100.553 105.947 100.413C105.957 100.153 105.997 99.883 105.977 99.623C105.927 98.493 105.227 97.6331 104.057 97.5831C103.277 97.5431 102.537 98.2931 102.567 99.0731C102.607 99.9131 103.217 100.523 104.057 100.563V100.533Z" fill="#69AA31"/>
<path d="M114.677 100.843C114.267 101.733 113.797 102.603 113.267 103.423C113.007 103.833 112.727 104.223 112.437 104.613C112.407 104.663 112.367 104.713 112.327 104.753C112.367 104.713 112.517 104.503 112.397 104.663C112.327 104.753 112.247 104.843 112.177 104.933C112.007 105.133 111.837 105.333 111.667 105.533C111.157 106.113 111.047 107.073 111.667 107.633C112.227 108.153 113.227 108.253 113.767 107.633C115.167 106.043 116.357 104.273 117.237 102.343C117.407 101.973 117.497 101.603 117.387 101.193C117.287 100.843 117.027 100.473 116.707 100.303C116.057 99.9531 115.017 100.083 114.667 100.833L114.677 100.843Z" fill="#69AA31"/>
<path d="M94.8671 117.053C95.2571 116.813 95.6671 116.593 96.0871 116.413L95.7271 116.563C96.4471 116.263 97.1871 116.053 97.9571 115.943L97.5571 115.993C98.0671 115.923 98.5871 115.903 99.1071 115.913C99.8871 115.943 100.627 115.213 100.597 114.423C100.557 113.593 99.9471 112.963 99.1071 112.933C97.1071 112.863 95.0571 113.403 93.3571 114.473C92.6971 114.883 92.3771 115.823 92.8271 116.513C93.2771 117.203 94.1571 117.483 94.8671 117.043V117.053Z" fill="#69AA31"/>
<path d="M99.8871 125.533C101.217 124.193 102.467 122.783 103.627 121.293C103.877 120.973 104.067 120.673 104.067 120.243C104.067 119.873 103.907 119.443 103.627 119.193C103.347 118.943 102.967 118.743 102.577 118.753C102.207 118.773 101.757 118.883 101.527 119.193C100.367 120.683 99.1171 122.093 97.7871 123.433C97.2371 123.983 97.1971 124.993 97.7871 125.533C98.3771 126.073 99.3071 126.123 99.8871 125.533Z" fill="#69AA31"/>
<path d="M118.727 124.633C117.077 123.123 115.427 121.613 113.777 120.093C113.207 119.563 112.237 119.483 111.677 120.093C111.147 120.663 111.067 121.633 111.677 122.193C113.327 123.703 114.977 125.213 116.627 126.733C117.197 127.263 118.167 127.343 118.727 126.733C119.257 126.163 119.337 125.193 118.727 124.633Z" fill="#69AA31"/>
<path d="M116.427 116.383C118.127 117.303 119.817 118.233 121.517 119.153C122.197 119.523 123.167 119.343 123.557 118.623C123.947 117.903 123.757 116.983 123.027 116.583C121.327 115.663 119.637 114.733 117.937 113.813C117.257 113.443 116.287 113.623 115.897 114.343C115.507 115.063 115.697 115.983 116.427 116.383Z" fill="#69AA31"/>
<path d="M172.887 185.133C195.293 185.133 213.457 166.969 213.457 144.563C213.457 122.157 195.293 103.993 172.887 103.993C150.481 103.993 132.317 122.157 132.317 144.563C132.317 166.969 150.481 185.133 172.887 185.133Z" fill="#C3EA78"/>
<path d="M190.587 179.403C176.097 186.733 158.097 184.253 146.207 173.143C134.317 162.033 130.477 143.993 137.027 128.993C143.577 113.993 159.317 104.413 175.727 105.583C192.137 106.753 206.247 118.463 210.587 134.243C214.927 150.023 208.927 166.763 195.937 176.143C194.237 177.363 192.457 178.453 190.597 179.403C188.897 180.283 190.397 182.853 192.097 181.973C207.567 173.993 216.807 156.783 214.637 139.453C212.467 122.123 199.237 107.293 181.987 103.493C164.737 99.6931 146.467 107.363 137.147 122.393C127.827 137.423 129.107 156.963 140.007 170.773C150.907 184.583 169.537 189.953 185.967 184.533C188.077 183.843 190.117 182.963 192.097 181.973C193.807 181.113 192.297 178.543 190.597 179.403H190.587Z" fill="black"/>
<path d="M180.527 135.793C180.327 135.363 180.347 135.013 180.527 134.673C180.707 134.333 180.767 134.403 180.637 134.503C180.667 134.483 180.987 134.273 180.787 134.373C180.587 134.473 180.387 134.573 180.187 134.653C179.987 134.733 179.777 134.833 179.587 134.953C179.267 135.153 179.037 135.413 178.767 135.653C178.747 135.673 178.717 135.693 178.697 135.723C178.617 135.793 178.647 135.763 178.807 135.643C178.777 135.703 178.657 135.753 178.607 135.783C178.467 135.873 178.327 135.963 178.177 136.043C177.867 136.213 177.537 136.373 177.207 136.523C176.447 136.883 175.697 137.233 174.937 137.593C174.227 137.923 173.997 138.993 174.407 139.633C174.877 140.363 175.687 140.523 176.447 140.163C177.297 139.763 178.157 139.363 179.007 138.963C179.777 138.593 180.587 138.153 181.157 137.503C181.317 137.323 181.047 137.613 181.007 137.603C181.027 137.603 181.137 137.513 181.167 137.503C181.277 137.433 181.407 137.373 181.527 137.323C181.767 137.213 182.007 137.123 182.237 137.003C182.597 136.803 182.937 136.513 183.137 136.153C183.467 135.543 183.397 134.923 183.117 134.313C182.787 133.603 181.707 133.373 181.077 133.783C180.347 134.253 180.197 135.063 180.547 135.823L180.527 135.793Z" fill="#69AA31"/>
<path d="M184.957 145.313C183.977 145.353 183.007 145.333 182.027 145.233C181.917 145.223 181.807 145.213 181.687 145.193C181.617 145.193 181.537 145.173 181.467 145.163L181.637 145.183C181.377 145.163 181.117 145.103 180.857 145.063C180.377 144.973 179.897 144.873 179.427 144.753C178.677 144.563 177.777 145.003 177.597 145.793C177.417 146.583 177.827 147.423 178.637 147.623C180.687 148.143 182.827 148.373 184.947 148.283C185.727 148.253 186.477 147.623 186.437 146.793C186.407 146.013 185.777 145.273 184.947 145.303L184.957 145.313Z" fill="#69AA31"/>
<path d="M161.647 135.083C161.947 135.263 162.227 135.453 162.507 135.663L162.207 135.433C162.807 135.893 163.337 136.433 163.797 137.023L163.567 136.723C163.967 137.243 164.297 137.803 164.577 138.393C164.727 138.713 165.137 138.983 165.467 139.073C165.827 139.173 166.297 139.123 166.617 138.923C166.937 138.723 167.217 138.413 167.297 138.033C167.387 137.623 167.327 137.263 167.147 136.883C166.307 135.073 164.867 133.533 163.157 132.503C162.487 132.103 161.497 132.333 161.117 133.033C160.737 133.733 160.937 134.643 161.647 135.073V135.083Z" fill="#69AA31"/>
<path d="M156.387 143.403C158.187 143.983 160.007 144.443 161.857 144.803C162.617 144.953 163.497 144.593 163.687 143.763C163.857 143.023 163.467 142.093 162.647 141.933C160.797 141.573 158.967 141.103 157.177 140.533C156.437 140.293 155.517 140.813 155.347 141.573C155.157 142.383 155.597 143.153 156.387 143.403Z" fill="#69AA31"/>
<path d="M165.707 159.683C166.307 157.523 166.897 155.373 167.497 153.213C167.707 152.463 167.237 151.563 166.457 151.383C165.677 151.203 164.847 151.623 164.627 152.423C164.027 154.583 163.437 156.733 162.837 158.893C162.627 159.643 163.097 160.543 163.877 160.723C164.657 160.903 165.487 160.483 165.707 159.683Z" fill="#69AA31"/>
<path d="M171.997 154.033C171.947 155.963 171.897 157.893 171.847 159.823C171.827 160.603 172.547 161.343 173.337 161.313C174.127 161.283 174.807 160.663 174.827 159.823C174.877 157.893 174.927 155.963 174.977 154.033C174.997 153.253 174.277 152.513 173.487 152.543C172.697 152.573 172.017 153.193 171.997 154.033Z" fill="#69AA31"/>
<path d="M109.717 144.193C117.897 147.663 127.377 146.643 135.777 143.733C144.177 140.823 148.267 134.253 156.247 130.343C158.777 129.103 161.677 128.693 164.117 130.113C165.317 130.803 167.817 132.533 168.317 133.393C170.777 137.623 169.677 141.323 168.077 143.893C166.377 146.633 166.097 150.083 162.887 150.403C169.617 144.133 179.247 132.033 186.807 137.463C192.487 142.763 193.517 148.643 189.717 151.393C187.267 152.753 184.787 153.383 182.967 153.163C191.117 154.513 195.117 149.863 203.137 151.833C210.217 153.573 209.117 162.673 208.637 164.403C207.797 167.383 196.277 172.173 193.547 170.703C196.487 172.813 206.807 174.303 208.647 177.423C210.487 180.543 210.807 184.853 208.417 187.573C205.877 190.473 200.637 190.283 198.317 187.203C204.497 197.843 195.097 201.473 191.897 201.333C183.927 200.983 182.297 193.463 177.587 187.023C179.657 189.973 177.917 194.483 174.697 196.093C171.477 197.703 167.467 196.863 164.437 194.913C161.407 192.963 159.157 190.043 156.967 187.183C157.207 189.273 157.417 195.593 153.687 196.373C145.167 199.563 139.847 190.743 134.037 183.743C128.217 176.743 123.917 168.203 116.387 163.093C111.937 160.073 106.587 158.433 102.477 154.963C98.3671 151.493 95.8871 144.973 99.2271 140.753C101.387 138.033 100.597 138.753 103.967 139.613C107.337 140.473 107.257 141.763 109.707 144.223" fill="#8FC740"/>
<path d="M109.317 145.623C114.987 147.973 121.197 148.273 127.207 147.383C132.807 146.553 138.387 144.843 143.077 141.613C147.457 138.603 151.197 134.733 155.897 132.183C158.297 130.883 161.037 130.013 163.567 131.503C164.437 132.013 165.287 132.593 166.067 133.223C167.087 134.053 167.587 134.963 167.957 136.243C168.777 139.043 167.777 141.293 166.467 143.703C165.447 145.583 164.977 148.613 162.497 148.953L163.947 151.443C168.527 147.153 172.677 141.903 178.277 138.883C180.387 137.743 182.947 137.003 185.197 138.193C186.797 139.043 188.087 140.863 189.007 142.383C189.767 143.633 190.397 145.043 190.477 146.523C190.687 150.353 186.217 151.943 182.967 151.643C181.317 151.493 180.907 154.313 182.567 154.563C184.937 154.933 187.227 154.923 189.587 154.533C191.607 154.203 193.567 153.593 195.567 153.183C198.937 152.493 203.927 152.263 206.117 155.503C207.557 157.633 207.697 160.513 207.387 162.993C207.307 163.643 207.197 164.103 206.717 164.593C205.737 165.573 204.457 166.263 203.237 166.893C201.517 167.773 199.697 168.493 197.827 168.993C197.117 169.183 196.387 169.363 195.647 169.433C195.327 169.463 195.007 169.483 194.687 169.453C194.657 169.453 194.117 169.303 194.287 169.393C192.557 168.553 191.207 170.873 192.787 171.963C194.897 173.413 197.667 174.003 200.077 174.763C202.287 175.463 205.407 176.093 207.087 177.823C209.107 179.903 209.227 184.573 207.147 186.723C205.067 188.873 201.187 188.403 199.367 186.123C198.287 184.773 196.217 186.503 197.027 187.923C198.307 190.173 199.507 193.003 198.547 195.593C197.947 197.203 196.577 198.343 195.057 199.063C193.537 199.783 192.277 199.993 190.587 199.663C187.907 199.143 185.957 197.363 184.447 195.173C182.447 192.283 180.937 189.093 178.877 186.243C177.777 184.723 175.237 186.123 176.307 187.743C177.377 189.363 177.107 191.283 176.087 192.853C174.817 194.823 172.547 195.543 170.287 195.393C164.917 195.033 161.267 190.323 158.257 186.393C157.487 185.383 155.307 185.483 155.487 187.143C155.717 189.233 155.827 191.863 154.747 193.753C154.127 194.853 152.947 195.093 151.777 195.343C150.307 195.663 148.787 195.513 147.377 194.973C144.357 193.793 142.037 191.143 140.007 188.733C137.567 185.833 135.147 182.863 132.877 179.823C128.217 173.573 124.087 166.703 117.627 162.103C111.617 157.823 102.167 156.043 99.6471 148.193C99.1071 146.523 98.9171 144.663 99.5971 143.003C99.9371 142.163 100.517 141.433 101.097 140.743C101.147 140.673 101.647 140.143 101.647 140.133C101.697 140.223 101.127 140.333 101.127 140.263C101.127 140.343 102.917 140.823 103.037 140.863C103.887 141.103 104.777 141.283 105.527 141.793C106.767 142.653 107.617 144.153 108.667 145.233C110.007 146.603 112.107 144.503 110.767 143.133C109.657 141.993 108.787 140.593 107.537 139.603C106.107 138.473 104.317 138.163 102.617 137.613C101.417 137.223 100.377 137.213 99.4271 138.153C98.1871 139.383 97.0971 140.983 96.5871 142.653C95.4471 146.383 96.8871 150.533 99.1571 153.533C101.907 157.163 106.077 159.193 110.047 161.203C114.017 163.213 117.787 165.623 120.927 169.023C124.067 172.423 126.487 176.103 129.127 179.743C131.767 183.383 134.437 186.643 137.197 190.003C139.597 192.923 142.277 195.993 145.817 197.543C147.707 198.373 149.717 198.683 151.757 198.383C153.477 198.133 155.437 197.623 156.617 196.263C158.677 193.903 158.787 190.123 158.467 187.163L155.697 187.913C159.627 193.043 164.657 199.063 171.877 198.363C174.817 198.083 177.467 196.593 178.917 193.963C180.237 191.573 180.427 188.593 178.887 186.263L176.317 187.763C180.117 193.023 182.597 201.133 189.807 202.553C194.207 203.423 199.297 201.333 201.157 197.073C202.717 193.513 201.427 189.633 199.607 186.433L197.267 188.233C199.177 190.633 202.437 191.503 205.377 190.913C208.647 190.263 210.967 187.523 211.467 184.273C211.897 181.473 211.247 177.603 209.057 175.593C207.167 173.853 204.437 173.053 202.047 172.283C199.517 171.463 196.517 170.933 194.287 169.403L192.787 171.973C195.737 173.413 199.927 171.603 202.677 170.433C205.247 169.333 209.297 167.623 210.107 164.613C210.817 161.953 210.637 158.663 209.697 156.093C208.087 151.673 204.097 149.963 199.597 149.833C194.047 149.673 188.957 152.573 183.347 151.703L182.947 154.623C186.737 154.973 191.667 153.103 193.037 149.293C194.337 145.683 192.417 141.753 190.207 138.963C188.887 137.293 187.467 135.813 185.437 135.073C183.927 134.523 182.307 134.503 180.737 134.793C177.147 135.463 174.007 137.893 171.307 140.213C167.967 143.073 165.017 146.333 161.807 149.343C160.607 150.473 161.917 152.013 163.257 151.833C165.807 151.483 167.077 149.443 168.037 147.283C169.057 144.983 170.587 142.883 171.037 140.353C171.517 137.663 171.017 134.363 169.247 132.193C167.867 130.503 165.427 128.863 163.357 128.153C157.547 126.173 151.607 131.083 147.397 134.483C145.177 136.273 143.017 138.143 140.617 139.683C137.937 141.403 135.057 142.503 131.997 143.343C124.797 145.313 117.087 145.663 110.077 142.763C108.307 142.033 107.537 144.913 109.287 145.633L109.317 145.623Z" fill="black"/>
<path d="M156.937 179.143C139.677 96.5731 71.7471 110.733 71.7471 110.733C76.3871 123.043 73.5971 182.973 156.937 179.143Z" fill="#6BA534"/>
<path d="M158.367 178.743C155.517 165.203 150.867 151.813 143.177 140.223C137.507 131.683 130.207 124.263 121.477 118.843C114.537 114.533 106.777 111.533 98.7771 109.903C92.7171 108.663 86.4971 108.143 80.3271 108.363C77.4671 108.463 74.2671 108.513 71.4771 109.263C71.4371 109.273 71.3971 109.283 71.3571 109.283C70.6171 109.433 70.0471 110.393 70.3171 111.113C71.7271 114.883 72.1171 119.103 72.8971 123.033C74.1171 129.153 75.6871 135.213 78.0471 140.993C80.9171 148.033 84.8671 154.583 90.0971 160.133C96.4771 166.893 104.507 171.823 113.177 175.063C125.187 179.563 138.247 180.913 150.997 180.783C152.977 180.763 154.957 180.703 156.937 180.613C158.917 180.523 158.857 177.553 156.937 177.633C143.747 178.223 130.277 177.453 117.617 173.443C108.897 170.683 100.677 166.253 94.0571 159.883C88.6871 154.723 84.5571 148.463 81.5471 141.663C79.1071 136.143 77.3871 129.983 76.1271 123.953C75.2471 119.753 74.7471 115.403 73.5171 111.293C73.4171 110.963 73.3071 110.633 73.1871 110.313L72.1471 112.143C72.7371 112.023 73.3371 111.933 73.9371 111.843C74.3971 111.773 73.9371 111.843 74.0471 111.823C74.2271 111.803 74.3971 111.773 74.5771 111.753C74.9671 111.703 75.3571 111.663 75.7471 111.623C76.6971 111.523 77.6471 111.453 78.5971 111.393C84.1971 111.063 90.0371 111.373 95.3271 112.253C102.887 113.513 110.247 115.943 116.977 119.643C125.347 124.243 132.597 130.723 138.277 138.393C146.037 148.863 150.987 161.123 154.157 173.703C154.647 175.633 155.087 177.573 155.497 179.513C155.907 181.453 158.757 180.593 158.367 178.723V178.743Z" fill="black"/>
<path d="M81.3071 118.883C84.7771 122.213 88.5071 125.263 92.4671 127.993C96.4271 130.723 100.987 133.243 105.217 135.923C109.447 138.603 113.307 141.493 117.227 144.453C121.147 147.413 124.577 150.443 127.647 154.083C130.927 157.953 133.607 162.293 135.707 166.903C136.497 168.643 139.067 167.133 138.277 165.403C134.447 157.003 128.637 149.733 121.427 143.983C117.567 140.903 113.557 137.963 109.477 135.173C105.397 132.383 100.767 129.853 96.4671 127.093C91.7771 124.093 87.4171 120.633 83.4071 116.783C82.0271 115.453 79.9171 117.563 81.3071 118.883Z" fill="#548C1E"/>
<path d="M16.6871 150.933L20.6971 154.943C42.9471 177.193 73.1271 202.693 104.597 202.693H239.757C271.227 202.693 301.407 177.193 323.657 154.943L329.077 149.523C331.607 146.993 329.807 142.673 326.227 142.693C326.227 142.693 223.287 158.863 169.857 158.863C116.427 158.863 19.4971 144.103 19.4971 144.103C15.9371 144.123 14.1671 148.423 16.6871 150.933Z" fill="#8C4414"/>
<path d="M15.6371 151.983C26.2671 162.613 37.0971 173.023 49.1871 182.023C63.2971 192.523 79.4271 201.523 97.1271 203.713C101.927 204.313 106.757 204.183 111.587 204.183H238.667C250.757 204.183 262.317 200.943 273.147 195.673C289.467 187.743 303.777 175.993 316.897 163.603C321.247 159.493 325.467 155.243 329.697 151.013C331.617 149.093 332.447 146.443 331.017 143.943C329.957 142.093 327.857 141.003 325.747 141.263C320.997 141.853 316.267 142.703 311.537 143.393C300.847 144.953 290.137 146.433 279.417 147.833C265.457 149.653 251.487 151.343 237.487 152.823C223.267 154.333 209.027 155.643 194.747 156.503C182.267 157.253 169.797 157.563 157.297 157.133C142.897 156.643 128.517 155.533 114.167 154.213C99.6671 152.873 85.1971 151.273 70.7471 149.523C59.2171 148.123 47.6971 146.623 36.1971 145.013C30.8471 144.263 25.4971 143.483 20.1571 142.703C14.8171 141.923 12.3171 148.343 15.6471 151.983C16.9471 153.403 19.0471 151.293 17.7471 149.883C16.4471 148.473 17.1971 145.683 19.2071 145.553C19.6471 145.523 20.1871 145.703 20.6171 145.763C23.0571 146.123 25.5071 146.483 27.9471 146.833C37.5271 148.203 47.1271 149.503 56.7271 150.743C70.1871 152.473 83.6771 154.083 97.1771 155.503C111.617 157.023 126.087 158.353 140.587 159.273C153.167 160.073 165.777 160.563 178.387 160.223C191.607 159.863 204.807 158.893 217.967 157.713C232.137 156.443 246.277 154.903 260.397 153.193C272.827 151.693 285.247 150.073 297.647 148.343C305.667 147.233 313.677 146.073 321.687 144.863C323.187 144.633 324.867 144.133 326.387 144.143C327.717 144.143 328.897 145.523 328.767 146.943C328.677 147.853 328.047 148.433 327.447 149.033L324.877 151.603C313.587 162.893 301.927 173.863 288.757 182.963C274.697 192.683 258.387 200.823 240.957 201.183C237.687 201.253 234.407 201.193 231.137 201.193H178.087C167.627 201.193 157.157 201.193 146.697 201.193C137.927 201.193 129.157 201.193 120.377 201.193H105.747C94.0771 201.193 82.9271 198.093 72.4771 192.983C56.4671 185.153 42.4471 173.663 29.5571 161.493C25.5371 157.693 21.6371 153.783 17.7271 149.873C16.3671 148.513 14.2671 150.623 15.6271 151.973L15.6371 151.983Z" fill="black"/>
</svg>
