<svg width="241" height="249" viewBox="0 0 241 249" fill="none" xmlns="http://www.w3.org/2000/svg">
<path d="M119.093 156.123C129.686 156.123 138.273 149.922 138.273 142.273C138.273 134.624 129.686 128.423 119.093 128.423C108.501 128.423 99.9134 134.624 99.9134 142.273C99.9134 149.922 108.501 156.123 119.093 156.123Z" fill="#D7DEE0"/>
<path d="M139.763 142.273C139.653 134.733 132.883 129.653 126.163 127.843C118.453 125.773 109.193 127.073 103.113 132.523C100.623 134.753 98.8534 137.763 98.4934 141.123C98.1334 144.483 99.3534 147.673 101.423 150.243C106.433 156.453 115.453 158.393 123.033 157.333C130.613 156.273 139.653 151.053 139.773 142.283C139.803 140.363 136.823 140.363 136.793 142.283C136.703 148.523 130.653 152.473 125.203 153.883C118.703 155.573 110.693 154.633 105.463 150.133C103.423 148.373 101.773 146.023 101.463 143.293C101.153 140.563 102.163 137.973 103.923 135.963C108.403 130.823 116.113 129.223 122.623 130.163C128.873 131.063 136.693 135.063 136.803 142.293C136.833 144.203 139.803 144.213 139.783 142.293L139.763 142.273Z" fill="black"/>
<path d="M140.523 204.813H97.6534C94.6834 204.813 92.3834 202.233 92.7134 199.283L99.2134 141.563H138.963L145.463 199.283C145.793 202.233 143.493 204.813 140.523 204.813Z" fill="#D7DEE0"/>
<path d="M140.523 203.323H120.703C113.123 203.323 105.543 203.383 97.9634 203.323C96.0434 203.313 94.3534 202.153 94.1734 200.123C94.1234 199.513 94.2434 198.843 94.3134 198.233L95.2434 189.943C96.3134 180.423 97.3834 170.903 98.4534 161.393L99.8834 148.683C100.133 146.443 100.573 144.143 100.643 141.893C100.643 141.793 100.663 141.683 100.673 141.583L99.1834 143.073C110.763 143.073 122.353 143.073 133.933 143.073C135.603 143.073 137.263 143.073 138.933 143.073L137.443 141.583C138.243 148.703 139.043 155.833 139.853 162.953L143.423 194.633L143.883 198.703C144.143 201.013 143.143 203.253 140.503 203.343C138.593 203.403 138.583 206.383 140.503 206.323C144.263 206.193 147.253 203.083 146.923 199.263C146.853 198.493 146.753 197.713 146.663 196.943C146.183 192.693 145.703 188.443 145.223 184.193C143.943 172.793 142.653 161.403 141.373 150.003C141.053 147.193 140.743 144.393 140.423 141.583C140.333 140.783 139.813 140.093 138.933 140.093C127.353 140.093 115.763 140.093 104.183 140.093C102.513 140.093 100.853 140.093 99.1834 140.093C98.3134 140.093 97.7834 140.783 97.6934 141.583C97.0634 147.223 96.4234 152.853 95.7934 158.493C94.6934 168.293 93.5834 178.103 92.4834 187.903C92.1234 191.103 91.7634 194.293 91.4034 197.493C91.3334 198.083 91.2534 198.663 91.2034 199.253C90.9534 202.113 92.6234 204.833 95.3034 205.883C97.4834 206.733 100.433 206.323 102.723 206.323H116.323C124.223 206.323 132.143 206.463 140.043 206.323C140.193 206.323 140.343 206.323 140.493 206.323C142.413 206.323 142.413 203.343 140.493 203.343L140.523 203.323Z" fill="black"/>
<path d="M137.923 139.613H100.263C98.4022 139.613 96.8934 141.122 96.8934 142.983V142.993C96.8934 144.854 98.4022 146.363 100.263 146.363H137.923C139.785 146.363 141.293 144.854 141.293 142.993V142.983C141.293 141.122 139.785 139.613 137.923 139.613Z" fill="#D7DEE0"/>
<path d="M137.923 144.873C126.093 144.873 114.273 144.873 102.443 144.873C101.783 144.873 101.103 144.903 100.443 144.873C98.9234 144.803 97.7034 143.263 98.7534 141.853C99.6634 140.633 102.383 141.103 103.683 141.103H125.473C128.893 141.103 132.323 141.103 135.743 141.103C136.433 141.103 137.143 141.063 137.843 141.103C140.293 141.253 140.443 144.753 137.923 144.873C136.013 144.973 136.003 147.943 137.923 147.853C141.043 147.693 143.423 144.893 142.623 141.753C142.053 139.513 140.013 138.183 137.783 138.123C135.553 138.063 133.373 138.123 131.173 138.123C123.023 138.123 114.873 138.123 106.723 138.123C104.603 138.123 102.473 138.053 100.363 138.123C97.9534 138.193 95.8534 139.793 95.4834 142.243C95.0334 145.223 97.3434 147.733 100.283 147.843C106.043 148.063 111.843 147.843 117.603 147.843C124.253 147.843 130.923 148.003 137.563 147.843C137.683 147.843 137.803 147.843 137.923 147.843C139.843 147.843 139.843 144.863 137.923 144.863V144.873Z" fill="black"/>
<path d="M107.723 137.023C109.793 137.023 109.793 133.813 107.723 133.813C105.653 133.813 105.653 137.023 107.723 137.023Z" fill="black"/>
<path d="M113.653 134.403C115.723 134.403 115.723 131.193 113.653 131.193C111.583 131.193 111.583 134.403 113.653 134.403Z" fill="black"/>
<path d="M118.553 137.023C120.623 137.023 120.623 133.813 118.553 133.813C116.483 133.813 116.483 137.023 118.553 137.023Z" fill="black"/>
<path d="M124.243 134.763C126.313 134.763 126.313 131.553 124.243 131.553C122.173 131.553 122.173 134.763 124.243 134.763Z" fill="black"/>
<path d="M129.433 137.023C131.503 137.023 131.503 133.813 129.433 133.813C127.363 133.813 127.363 137.023 129.433 137.023Z" fill="black"/>
<mask id="mask0_842_129" style="mask-type:luminance" maskUnits="userSpaceOnUse" x="93" y="143" width="52" height="62">
<path d="M139.623 204.453H98.2035C95.3335 204.453 93.1134 201.963 93.4334 199.113L99.7134 143.343H138.123L144.403 199.113C144.723 201.963 142.493 204.453 139.633 204.453H139.623Z" fill="white"/>
</mask>
<g mask="url(#mask0_842_129)">
<path d="M93.4034 179.553C93.4034 179.553 101.253 167.983 116.343 166.343C135.083 164.303 145.543 173.683 145.543 173.683L151.523 208.553L81.3334 206.493L93.4034 179.553Z" fill="white"/>
</g>
<path d="M177.143 59.2434C187.736 59.2434 196.323 53.0426 196.323 45.3934C196.323 37.7443 187.736 31.5435 177.143 31.5435C166.551 31.5435 157.963 37.7443 157.963 45.3934C157.963 53.0426 166.551 59.2434 177.143 59.2434Z" fill="#D7DEE0"/>
<path d="M197.813 45.3934C197.703 37.8534 190.933 32.7734 184.213 30.9634C176.503 28.8934 167.243 30.1934 161.163 35.6434C158.673 37.8734 156.903 40.8834 156.543 44.2434C156.183 47.6034 157.403 50.7934 159.473 53.3634C164.483 59.5734 173.503 61.5134 181.083 60.4534C188.663 59.3934 197.703 54.1734 197.823 45.4034C197.853 43.4834 194.873 43.4834 194.843 45.4034C194.753 51.6434 188.703 55.5934 183.253 57.0034C176.753 58.6934 168.743 57.7534 163.513 53.2534C161.473 51.4934 159.823 49.1434 159.513 46.4134C159.203 43.6834 160.213 41.0934 161.973 39.0834C166.453 33.9434 174.163 32.3434 180.673 33.2834C186.923 34.1834 194.743 38.1834 194.853 45.4134C194.883 47.3234 197.853 47.3334 197.833 45.4134L197.813 45.3934Z" fill="black"/>
<path d="M198.583 107.923H155.713C152.743 107.923 150.443 105.343 150.773 102.393L157.273 44.6733H197.023L203.523 102.393C203.853 105.343 201.553 107.923 198.583 107.923Z" fill="#D7DEE0"/>
<path d="M198.583 106.433H178.763C171.183 106.433 163.603 106.493 156.023 106.433C154.103 106.423 152.413 105.263 152.233 103.233C152.183 102.623 152.303 101.953 152.373 101.343L153.303 93.0534C154.373 83.5334 155.443 74.0134 156.513 64.5034L157.943 51.7934C158.193 49.5534 158.633 47.2534 158.703 45.0034C158.703 44.9034 158.723 44.7934 158.733 44.6934L157.243 46.1834C168.823 46.1834 180.413 46.1834 191.993 46.1834C193.663 46.1834 195.323 46.1834 196.993 46.1834L195.503 44.6934C196.303 51.8134 197.103 58.9434 197.913 66.0634L201.483 97.7434L201.943 101.813C202.203 104.123 201.203 106.363 198.563 106.453C196.653 106.513 196.643 109.493 198.563 109.433C202.323 109.303 205.313 106.193 204.983 102.373C204.913 101.603 204.813 100.823 204.723 100.053C204.243 95.8034 203.763 91.5534 203.283 87.3034C202.003 75.9034 200.713 64.5134 199.433 53.1134C199.113 50.3034 198.803 47.5034 198.483 44.6934C198.393 43.8934 197.873 43.2034 196.993 43.2034C185.413 43.2034 173.823 43.2034 162.243 43.2034C160.573 43.2034 158.913 43.2034 157.243 43.2034C156.373 43.2034 155.843 43.8934 155.753 44.6934C155.123 50.3334 154.483 55.9634 153.853 61.6034C152.753 71.4034 151.643 81.2134 150.543 91.0134C150.183 94.2134 149.823 97.4034 149.463 100.603C149.393 101.193 149.313 101.773 149.263 102.363C149.013 105.223 150.683 107.943 153.363 108.993C155.543 109.843 158.493 109.433 160.783 109.433H174.383C182.283 109.433 190.203 109.573 198.103 109.433C198.253 109.433 198.403 109.433 198.553 109.433C200.473 109.433 200.473 106.453 198.553 106.453L198.583 106.433Z" fill="black"/>
<path d="M195.973 42.7234H158.313C156.452 42.7234 154.943 44.2322 154.943 46.0934V46.1034C154.943 47.9646 156.452 49.4734 158.313 49.4734H195.973C197.835 49.4734 199.343 47.9646 199.343 46.1034V46.0934C199.343 44.2322 197.835 42.7234 195.973 42.7234Z" fill="#D7DEE0"/>
<path d="M195.973 47.9834C184.143 47.9834 172.323 47.9834 160.493 47.9834C159.833 47.9834 159.153 48.0134 158.493 47.9834C156.973 47.9134 155.753 46.3734 156.803 44.9634C157.713 43.7434 160.433 44.2134 161.733 44.2134H183.523C186.943 44.2134 190.373 44.2134 193.793 44.2134C194.483 44.2134 195.193 44.1734 195.893 44.2134C198.343 44.3634 198.493 47.8634 195.973 47.9834C194.063 48.0834 194.053 51.0534 195.973 50.9634C199.093 50.8034 201.473 48.0034 200.673 44.8634C200.103 42.6234 198.063 41.2934 195.833 41.2334C193.603 41.1734 191.423 41.2334 189.223 41.2334C181.073 41.2334 172.923 41.2334 164.773 41.2334C162.653 41.2334 160.523 41.1634 158.413 41.2334C156.003 41.3034 153.903 42.9034 153.533 45.3534C153.083 48.3334 155.393 50.8434 158.333 50.9534C164.093 51.1734 169.893 50.9534 175.653 50.9534C182.303 50.9534 188.973 51.1134 195.613 50.9534C195.733 50.9534 195.853 50.9534 195.973 50.9534C197.893 50.9534 197.893 47.9734 195.973 47.9734V47.9834Z" fill="black"/>
<path d="M165.773 40.1334C167.843 40.1334 167.843 36.9233 165.773 36.9233C163.703 36.9233 163.703 40.1334 165.773 40.1334Z" fill="black"/>
<path d="M171.703 37.5233C173.773 37.5233 173.773 34.3134 171.703 34.3134C169.633 34.3134 169.633 37.5233 171.703 37.5233Z" fill="black"/>
<path d="M176.613 40.1334C178.683 40.1334 178.683 36.9233 176.613 36.9233C174.543 36.9233 174.543 40.1334 176.613 40.1334Z" fill="black"/>
<path d="M182.293 37.8733C184.363 37.8733 184.363 34.6633 182.293 34.6633C180.223 34.6633 180.223 37.8733 182.293 37.8733Z" fill="black"/>
<path d="M187.483 40.1334C189.553 40.1334 189.553 36.9233 187.483 36.9233C185.413 36.9233 185.413 40.1334 187.483 40.1334Z" fill="black"/>
<mask id="mask1_842_129" style="mask-type:luminance" maskUnits="userSpaceOnUse" x="151" y="46" width="52" height="62">
<path d="M197.683 107.573H156.263C153.393 107.573 151.173 105.083 151.493 102.233L157.773 46.4634H196.183L202.463 102.233C202.783 105.083 200.553 107.573 197.693 107.573H197.683Z" fill="white"/>
</mask>
<g mask="url(#mask1_842_129)">
<path d="M151.453 82.6734C151.453 82.6734 159.303 71.1034 174.393 69.4634C193.133 67.4234 203.593 76.8034 203.593 76.8034L209.573 111.673L139.383 109.613L151.453 82.6734Z" fill="#3F722D"/>
</g>
<path d="M62.3034 156.123C72.8962 156.123 81.4834 149.922 81.4834 142.273C81.4834 134.624 72.8962 128.423 62.3034 128.423C51.7106 128.423 43.1234 134.624 43.1234 142.273C43.1234 149.922 51.7106 156.123 62.3034 156.123Z" fill="#D7DEE0"/>
<path d="M82.9734 142.273C82.8634 134.733 76.0934 129.653 69.3734 127.843C61.6634 125.773 52.4034 127.073 46.3234 132.523C43.8334 134.753 42.0635 137.763 41.7035 141.123C41.3435 144.483 42.5634 147.673 44.6334 150.243C49.6434 156.453 58.6634 158.393 66.2434 157.333C74.0234 156.243 82.8634 151.053 82.9834 142.283C83.0134 140.363 80.0334 140.363 80.0034 142.283C79.9134 148.523 73.8634 152.473 68.4134 153.883C61.9134 155.573 53.9034 154.633 48.6734 150.133C46.6334 148.373 44.9834 146.023 44.6734 143.293C44.3634 140.563 45.3734 137.973 47.1334 135.963C51.6134 130.823 59.3235 129.223 65.8335 130.163C72.3435 131.103 79.9035 135.063 80.0135 142.293C80.0434 144.203 83.0134 144.213 82.9934 142.293L82.9734 142.273Z" fill="black"/>
<path d="M83.7334 204.813H40.8634C37.8934 204.813 35.5934 202.233 35.9234 199.283L42.4234 141.563H82.1734L88.6734 199.283C89.0034 202.233 86.7034 204.813 83.7334 204.813Z" fill="#D7DEE0"/>
<path d="M83.7334 203.323H63.9134C56.3334 203.323 48.7534 203.383 41.1734 203.323C39.2534 203.313 37.5634 202.153 37.3834 200.123C37.3334 199.513 37.4534 198.843 37.5234 198.233L38.4534 189.943C39.5234 180.423 40.5934 170.903 41.6634 161.393L43.0934 148.683C43.3434 146.443 43.7834 144.143 43.8534 141.893C43.8534 141.793 43.8734 141.683 43.8834 141.583L42.3934 143.073C53.9734 143.073 65.5634 143.073 77.1434 143.073C78.8134 143.073 80.4734 143.073 82.1434 143.073L80.6534 141.583C81.4534 148.703 82.2534 155.833 83.0634 162.953C84.2534 173.513 85.4434 184.073 86.6334 194.633L87.0934 198.703C87.3534 201.013 86.3534 203.253 83.7134 203.343C81.8034 203.403 81.7934 206.383 83.7134 206.323C87.4734 206.193 90.4634 203.083 90.1334 199.263C90.0634 198.493 89.9634 197.713 89.8734 196.943C89.3934 192.693 88.9134 188.443 88.4334 184.193C87.1534 172.793 85.8634 161.403 84.5834 150.003C84.2634 147.193 83.9534 144.393 83.6334 141.583C83.5434 140.783 83.0234 140.093 82.1434 140.093C70.5634 140.093 58.9734 140.093 47.3934 140.093C45.7234 140.093 44.0634 140.093 42.3934 140.093C41.5234 140.093 40.9934 140.783 40.9034 141.583C40.2734 147.223 39.6334 152.853 39.0034 158.493C37.9034 168.293 36.7934 178.103 35.6934 187.903L34.6134 197.493C34.5434 198.083 34.4634 198.663 34.4134 199.253C34.1634 202.113 35.8334 204.833 38.5134 205.883C40.6934 206.733 43.6434 206.323 45.9334 206.323H59.5334C67.4334 206.323 75.3534 206.463 83.2534 206.323C83.4034 206.323 83.5534 206.323 83.7034 206.323C85.6234 206.323 85.6234 203.343 83.7034 203.343L83.7334 203.323Z" fill="black"/>
<path d="M81.1334 139.613H43.4734C41.6122 139.613 40.1034 141.122 40.1034 142.983V142.993C40.1034 144.854 41.6122 146.363 43.4734 146.363H81.1334C82.9946 146.363 84.5034 144.854 84.5034 142.993V142.983C84.5034 141.122 82.9946 139.613 81.1334 139.613Z" fill="#D7DEE0"/>
<path d="M81.1234 144.873C69.2934 144.873 57.4735 144.873 45.6435 144.873C44.9835 144.873 44.3035 144.903 43.6435 144.873C42.1235 144.803 40.9035 143.263 41.9535 141.853C42.8635 140.633 45.5834 141.103 46.8834 141.103H68.6734C72.0934 141.103 75.5234 141.103 78.9434 141.103C79.6334 141.103 80.3434 141.063 81.0434 141.103C83.4934 141.253 83.6434 144.753 81.1234 144.873C79.2134 144.973 79.2034 147.943 81.1234 147.853C84.2434 147.693 86.6235 144.893 85.8235 141.753C85.2535 139.513 83.2134 138.183 80.9834 138.123C78.7534 138.063 76.5734 138.123 74.3734 138.123C66.2234 138.123 58.0734 138.123 49.9234 138.123C47.8034 138.123 45.6734 138.053 43.5634 138.123C41.1534 138.193 39.0534 139.793 38.6834 142.243C38.2334 145.223 40.5434 147.733 43.4834 147.843C49.2434 148.063 55.0434 147.843 60.8034 147.843C67.4534 147.843 74.1235 148.003 80.7635 147.843C80.8835 147.843 81.0034 147.843 81.1234 147.843C83.0434 147.843 83.0434 144.863 81.1234 144.863V144.873Z" fill="black"/>
<path d="M50.9334 137.023C53.0034 137.023 53.0034 133.813 50.9334 133.813C48.8634 133.813 48.8634 137.023 50.9334 137.023Z" fill="black"/>
<path d="M56.8634 134.403C58.9334 134.403 58.9334 131.193 56.8634 131.193C54.7934 131.193 54.7934 134.403 56.8634 134.403Z" fill="black"/>
<path d="M61.7634 137.023C63.8334 137.023 63.8334 133.813 61.7634 133.813C59.6934 133.813 59.6934 137.023 61.7634 137.023Z" fill="black"/>
<path d="M67.4534 134.763C69.5234 134.763 69.5234 131.553 67.4534 131.553C65.3834 131.553 65.3834 134.763 67.4534 134.763Z" fill="black"/>
<path d="M72.6334 137.023C74.7034 137.023 74.7034 133.813 72.6334 133.813C70.5634 133.813 70.5634 137.023 72.6334 137.023Z" fill="black"/>
<mask id="mask2_842_129" style="mask-type:luminance" maskUnits="userSpaceOnUse" x="36" y="142" width="53" height="63">
<path d="M83.2734 204.413H41.1034C38.1834 204.413 35.9234 201.903 36.2434 199.043L42.6335 142.943H81.7334L88.1234 199.043C88.4534 201.903 86.1835 204.413 83.2635 204.413H83.2734Z" fill="white"/>
</mask>
<g mask="url(#mask2_842_129)">
<path d="M36.4734 179.373C36.4734 179.373 44.7434 169.403 59.8234 166.083C78.5934 161.943 88.7034 173.903 88.7034 173.903L95.6334 208.543L24.1834 206.473L36.4734 179.373Z" fill="#3F362E"/>
</g>
<path d="M17.1234 20.2534V220.143C17.1234 222.853 17.0734 225.563 17.1234 228.273C17.1234 228.393 17.1234 228.513 17.1234 228.623C17.1234 230.843 19.0834 232.973 21.3734 232.873C23.6634 232.773 25.6234 231.003 25.6234 228.623V28.7334C25.6234 26.0234 25.6734 23.3134 25.6234 20.6034C25.6234 20.4834 25.6234 20.3634 25.6234 20.2534C25.6234 18.0334 23.6634 15.9034 21.3734 16.0034C19.0834 16.1034 17.1234 17.8734 17.1234 20.2534Z" fill="#8C4414"/>
<path d="M215.153 20.2534V220.143C215.153 222.853 215.103 225.563 215.153 228.273C215.153 228.393 215.153 228.513 215.153 228.623C215.153 230.843 217.113 232.973 219.403 232.873C221.693 232.773 223.653 231.003 223.653 228.623V28.7334C223.653 26.0234 223.703 23.3134 223.653 20.6034C223.653 20.4834 223.653 20.3634 223.653 20.2534C223.653 18.0334 221.693 15.9034 219.403 16.0034C217.113 16.1034 215.153 17.8734 215.153 20.2534Z" fill="#8C4414"/>
<path d="M224.623 206.143H24.7334C22.0234 206.143 19.3134 206.093 16.6034 206.143C16.4834 206.143 16.3634 206.143 16.2534 206.143C14.0334 206.143 11.9034 208.103 12.0034 210.393C12.1034 212.683 13.8734 214.643 16.2534 214.643H216.143C218.853 214.643 221.563 214.693 224.273 214.643C224.393 214.643 224.513 214.643 224.623 214.643C226.843 214.643 228.973 212.683 228.873 210.393C228.773 208.103 227.003 206.143 224.623 206.143Z" fill="#8C4414"/>
<path d="M224.623 109.483H24.7334C22.0234 109.483 19.3134 109.433 16.6034 109.483C16.4834 109.483 16.3634 109.483 16.2534 109.483C14.0334 109.483 11.9034 111.443 12.0034 113.733C12.1034 116.023 13.8734 117.983 16.2534 117.983H216.143C218.853 117.983 221.563 118.033 224.273 117.983C224.393 117.983 224.513 117.983 224.623 117.983C226.843 117.983 228.973 116.023 228.873 113.733C228.773 111.443 227.003 109.483 224.623 109.483Z" fill="#8C4414"/>
</svg>
