<svg width="200" height="200" viewBox="0 0 200 200" fill="none" xmlns="http://www.w3.org/2000/svg">
<path d="M93.6744 59.9602C86.8244 56.2902 70.8644 49.9702 48.6344 60.3202C38.4644 65.0602 29.9244 73.7802 27.8544 84.8102C26.5644 91.6702 28.4243 98.7202 30.8043 105.28C32.7943 110.76 35.1744 116.15 38.4844 120.95C45.3844 130.95 54.0544 135.93 65.4744 140.09C76.8944 144.25 89.0944 145.79 101.224 146.6C122.244 148.01 140.194 146.69 156.414 133.23C174.354 118.33 178.624 89.4802 165.774 70.0302C162.294 64.7602 157.674 60.1302 152.014 57.3602C144.184 53.5302 140.114 53.5002 131.394 53.5502C112.684 53.6602 101.824 55.0202 93.6944 59.9702" fill="#E50A0A"/>
<path d="M94.4244 58.6802C85.8444 54.1002 75.9944 52.3602 66.3544 53.5602C52.6944 55.2602 38.3543 61.7402 30.7443 73.6602C26.8043 79.8202 25.2943 86.9402 26.3043 94.1802C26.8843 98.3503 28.1444 102.37 29.5944 106.31C30.9544 110.01 32.4943 113.66 34.3843 117.12C37.7143 123.23 42.2243 128.62 47.8143 132.78C53.0743 136.7 59.1444 139.39 65.2944 141.61C73.1244 144.43 81.3243 146.02 89.5643 147.03C97.2843 147.97 105.104 148.53 112.874 148.54C126.524 148.56 140.164 146.14 151.734 138.54C157.184 134.96 161.974 130.58 165.694 125.21C169.154 120.21 171.644 114.51 173.104 108.61C176.034 96.7602 174.914 83.8302 169.214 72.9602C166.024 66.8802 161.374 61.3502 155.544 57.6502C149.714 53.9502 143.694 52.3102 137.164 52.1002C129.834 51.8602 122.394 52.0502 115.084 52.6802C109.624 53.1502 104.074 53.9302 98.9044 55.8402C96.8244 56.6102 94.8144 57.5502 92.9144 58.6902C91.2744 59.6802 92.7744 62.2502 94.4144 61.2602C103.494 55.7902 114.884 55.4002 125.194 55.1402C128.874 55.0502 132.574 54.9902 136.254 55.0602C139.094 55.1202 141.904 55.3402 144.644 56.0902C151.144 57.8502 156.874 61.5202 161.284 66.5902C169.134 75.6202 172.424 87.8002 171.544 99.6102C170.664 111.42 165.844 122.3 157.504 130.25C148.084 139.23 135.584 143.94 122.774 145.14C116.024 145.77 109.214 145.62 102.454 145.2C94.6244 144.71 86.7844 143.94 79.0944 142.36C66.3244 139.73 52.7044 134.91 43.6544 125.1C38.7444 119.78 35.3944 113.3 32.8444 106.58C30.1044 99.3802 27.7144 91.5002 29.5844 83.7802C32.7844 70.6202 44.8143 62.4802 57.0543 58.6302C67.4643 55.3602 78.6444 55.2302 88.8344 59.3302C90.2344 59.8902 91.5844 60.5502 92.9144 61.2602C94.6044 62.1602 96.1044 59.5902 94.4144 58.6902L94.4244 58.6802Z" fill="black"/>
<path d="M66.3644 84.1002C67.5944 84.6402 68.7443 85.3202 69.8143 86.1402L69.4244 85.8402C69.9144 86.2202 70.3743 86.6202 70.8143 87.0402C71.1743 87.3902 71.6744 87.6002 72.1744 87.6002C72.6444 87.6002 73.2044 87.3902 73.5344 87.0402C74.2244 86.2902 74.3044 85.0702 73.5344 84.3302C72.0144 82.8602 70.2443 81.6302 68.3043 80.7902C67.8143 80.5802 67.3643 80.4502 66.8243 80.6002C66.3843 80.7202 65.8944 81.0702 65.6744 81.4802C65.4344 81.9202 65.3244 82.4602 65.4844 82.9602C65.6244 83.4002 65.9144 83.9102 66.3644 84.1102V84.1002Z" fill="#F44A4A"/>
<path d="M88.9343 106.56C86.2943 104.56 83.5744 102.47 82.1144 99.6102C80.6544 96.7502 80.8643 92.8702 83.5143 90.8902C85.6543 89.2902 89.0343 89.0802 90.3143 86.8102C91.2343 85.1802 90.6144 83.1702 89.7344 81.5202C86.8944 76.1502 81.3443 72.0102 75.0243 71.0302C68.7043 70.0502 61.8143 72.4702 58.0943 77.3402C54.5943 81.9102 54.1044 87.8902 54.2344 93.5202C54.3244 97.7402 54.6944 101.98 55.9144 106.05C60.0844 119.91 75.0243 130.23 90.4043 129.87C92.1243 129.83 93.9743 129.61 95.2043 128.49C96.2343 127.55 96.6143 126.17 96.8843 124.86C97.6643 121.12 97.9143 117.19 96.7143 113.56C95.5143 109.93 92.8043 107.7 88.9143 106.57L88.9343 106.56Z" fill="#BF0822"/>
<path d="M65.4643 94.3103C66.2943 94.3103 67.1143 94.3303 67.9343 94.4003C68.7043 94.4703 69.4943 94.3603 70.2643 94.3103C70.7743 94.2703 71.2443 94.1203 71.6243 93.7503C71.9543 93.4203 72.2043 92.8703 72.1843 92.3903C72.1643 91.9103 71.9943 91.3803 71.6243 91.0303C71.2543 90.6803 70.7743 90.4303 70.2643 90.4703C69.4943 90.5303 68.7043 90.6303 67.9343 90.5603C67.1143 90.4903 66.2843 90.4703 65.4643 90.4703C64.4643 90.4703 63.5044 91.3503 63.5444 92.3903C63.5844 93.4303 64.3843 94.3103 65.4643 94.3103Z" fill="#FC7E0B"/>
<path d="M67.9543 105.89C69.4543 104.92 71.0243 104.06 72.6443 103.31C73.0543 103.12 73.4143 102.58 73.5243 102.16C73.6543 101.7 73.5943 101.09 73.3343 100.68C73.0743 100.27 72.6743 99.9102 72.1843 99.8002L71.6743 99.7302C71.3243 99.7302 71.0043 99.8202 70.7043 99.9902C69.0843 100.74 67.5143 101.6 66.0143 102.57C65.5943 102.84 65.2643 103.23 65.1343 103.72C65.0043 104.18 65.0643 104.79 65.3243 105.2C65.5843 105.61 65.9843 105.97 66.4743 106.08C66.9643 106.19 67.5143 106.17 67.9543 105.89Z" fill="#FC7E0B"/>
<path d="M73.9543 114.79C74.9643 113.81 75.9843 112.83 76.9943 111.85C77.3443 111.51 77.5543 110.98 77.5543 110.49C77.5543 110 77.3443 109.46 76.9943 109.13C76.6443 108.8 76.1443 108.55 75.6343 108.57C75.1243 108.59 74.6544 108.77 74.2744 109.13C73.2644 110.11 72.2444 111.09 71.2344 112.07C70.8844 112.41 70.6744 112.94 70.6744 113.43C70.6744 113.92 70.8844 114.46 71.2344 114.79C71.5844 115.12 72.0844 115.37 72.5944 115.35C73.1044 115.33 73.5743 115.15 73.9543 114.79Z" fill="#FC7E0B"/>
<path d="M82.5344 120.28C83.2344 118.8 83.9344 117.33 84.6444 115.85C84.8744 115.38 84.9844 114.89 84.8344 114.37C84.7144 113.93 84.3643 113.44 83.9543 113.22C83.5143 112.98 82.9744 112.87 82.4744 113.03C82.0244 113.18 81.5443 113.47 81.3243 113.91C80.6243 115.39 79.9244 116.86 79.2144 118.34C78.9844 118.81 78.8744 119.3 79.0244 119.82C79.1444 120.26 79.4944 120.75 79.9044 120.97C80.3444 121.21 80.8843 121.32 81.3843 121.16C81.8343 121.01 82.3144 120.72 82.5344 120.28Z" fill="#FC7E0B"/>
<path d="M93.3444 121.75C93.3444 120.47 93.3444 119.2 93.3444 117.92C93.3444 117.43 93.1244 116.91 92.7844 116.56C92.4444 116.21 91.9044 115.98 91.4244 116C90.3744 116.05 89.5143 116.84 89.5043 117.92C89.5043 119.2 89.5043 120.47 89.5043 121.75C89.5043 122.24 89.7243 122.76 90.0643 123.11C90.4043 123.46 90.9444 123.69 91.4244 123.67C92.4744 123.62 93.3344 122.83 93.3444 121.75Z" fill="#FC7E0B"/>
<path d="M69.2944 82.3202L72.9543 84.6502C73.3643 84.9102 73.9743 84.9702 74.4343 84.8402C74.8943 84.7102 75.3643 84.3702 75.5843 83.9602C75.8243 83.5202 75.9343 82.9802 75.7743 82.4802C75.6143 81.9802 75.3243 81.6102 74.8943 81.3302L71.2344 79.0002C70.8244 78.7402 70.2143 78.6802 69.7543 78.8102C69.2943 78.9402 68.8244 79.2802 68.6044 79.6902C68.3644 80.1302 68.2544 80.6702 68.4144 81.1702C68.5744 81.6702 68.8644 82.0402 69.2944 82.3202Z" fill="#FC7E0B"/>
<path d="M110.564 105.09C112.954 102.8 115.414 100.41 116.534 97.4002C117.654 94.3902 116.994 90.5602 114.134 88.9002C111.824 87.5602 108.434 87.7402 106.904 85.6402C105.804 84.1302 106.194 82.0602 106.864 80.3202C109.064 74.6602 114.104 69.9002 120.264 68.2102C126.424 66.5202 133.544 68.1202 137.814 72.5202C141.814 76.6602 142.994 82.5402 143.514 88.1402C143.914 92.3402 144.034 96.6002 143.284 100.78C140.744 115.03 127.084 127 111.774 128.42C110.064 128.58 108.194 128.58 106.844 127.61C105.714 126.8 105.174 125.47 104.754 124.19C103.554 120.57 102.844 116.69 103.614 112.94C104.384 109.19 106.824 106.66 110.554 105.1L110.564 105.09Z" fill="#BF0822"/>
<path d="M132.244 86.4001C131.414 86.5001 130.574 86.5901 129.754 86.7501C129.504 86.8001 129.254 86.8601 129.004 86.9001L129.514 86.8301C128.844 86.9201 128.154 86.9301 127.474 86.9601C126.974 86.9801 126.484 87.1601 126.114 87.5201C125.784 87.8501 125.534 88.4001 125.554 88.8801C125.574 89.3601 125.744 89.8901 126.114 90.2401C126.484 90.5901 126.954 90.8201 127.474 90.8001C128.384 90.7601 129.294 90.7401 130.184 90.5801C130.724 90.4801 131.254 90.3701 131.794 90.3001L131.284 90.3701C131.604 90.3301 131.914 90.2901 132.234 90.2501C132.764 90.1901 133.204 90.0801 133.594 89.6901C133.924 89.3601 134.174 88.8101 134.154 88.3301C134.134 87.8501 133.964 87.3201 133.594 86.9701C133.244 86.6501 132.734 86.3501 132.234 86.4101L132.244 86.4001Z" fill="#FC7E0B"/>
<path d="M133.064 98.5901C131.314 97.7301 129.504 96.9801 127.654 96.3701C126.704 96.0601 125.514 96.7301 125.294 97.7101C125.054 98.7601 125.614 99.7301 126.634 100.07C127.654 100.41 128.584 100.75 129.544 101.15L129.084 100.96C129.774 101.25 130.464 101.57 131.134 101.9C131.604 102.13 132.094 102.23 132.614 102.09C133.054 101.97 133.544 101.62 133.764 101.21C134.004 100.77 134.114 100.23 133.954 99.7301C133.804 99.2701 133.514 98.8001 133.074 98.5801L133.064 98.5901Z" fill="#FC7E0B"/>
<path d="M128.544 108.38C127.424 107.52 126.304 106.67 125.184 105.81C124.964 105.67 124.724 105.59 124.474 105.58C124.224 105.52 123.964 105.53 123.714 105.61C123.274 105.73 122.784 106.08 122.564 106.49C122.324 106.93 122.214 107.47 122.374 107.97L122.564 108.43C122.734 108.72 122.964 108.95 123.254 109.12L126.614 111.69C126.834 111.83 127.074 111.91 127.324 111.92C127.574 111.98 127.834 111.97 128.084 111.89C128.524 111.77 129.014 111.42 129.234 111.01C129.474 110.57 129.584 110.03 129.424 109.53L129.234 109.07C129.064 108.78 128.834 108.55 128.544 108.38Z" fill="#FC7E0B"/>
<path d="M121.694 115.86L119.094 111.7C118.834 111.28 118.424 110.95 117.944 110.82C117.464 110.69 116.874 110.75 116.464 111.01C116.054 111.27 115.694 111.67 115.584 112.16C115.474 112.65 115.504 113.2 115.774 113.64C116.644 115.03 117.514 116.41 118.374 117.8C118.634 118.22 119.044 118.55 119.524 118.68C120.004 118.81 120.594 118.75 121.004 118.49C121.414 118.23 121.774 117.83 121.884 117.34C121.994 116.85 121.964 116.3 121.694 115.86Z" fill="#FC7E0B"/>
<path d="M111.754 120.47C111.594 119.2 111.474 117.94 111.314 116.67C111.314 116.41 111.264 116.16 111.144 115.93C111.064 115.69 110.934 115.49 110.744 115.31C110.414 114.98 109.864 114.73 109.384 114.75C108.904 114.77 108.374 114.94 108.024 115.31C107.704 115.66 107.404 116.17 107.464 116.67C107.624 117.94 107.744 119.2 107.904 120.47C107.904 120.73 107.954 120.98 108.074 121.21C108.154 121.45 108.284 121.65 108.474 121.83C108.804 122.16 109.354 122.41 109.834 122.39C110.314 122.37 110.844 122.2 111.194 121.83C111.514 121.48 111.814 120.97 111.754 120.47Z" fill="#FC7E0B"/>
<path d="M124.764 75.8602L121.394 78.5902C121.034 78.8802 120.834 79.5002 120.834 79.9502C120.834 80.4202 121.044 80.9802 121.394 81.3102C121.744 81.6402 122.244 81.8902 122.754 81.8702L123.264 81.8002C123.584 81.7102 123.874 81.5402 124.114 81.3102L127.484 78.5802C127.844 78.2902 128.044 77.6702 128.044 77.2202C128.044 76.7502 127.834 76.1902 127.484 75.8602C127.134 75.5302 126.634 75.2802 126.124 75.3002L125.614 75.3702C125.294 75.4602 125.004 75.6302 124.764 75.8602Z" fill="#FC7E0B"/>
</svg>
