<svg width="200" height="200" viewBox="0 0 200 200" fill="none" xmlns="http://www.w3.org/2000/svg">
<path d="M89.4975 62.0347C82.6475 58.3647 66.6875 52.0447 44.4575 62.3947C34.2875 67.1347 34.1275 79.9047 32.0575 90.9347C30.7675 97.7947 26.0875 102.395 26.4975 109.525C26.8375 115.345 28.9875 116.215 32.2975 121.015C39.1975 131.015 49.8675 137.995 61.2875 142.155C72.7075 146.315 84.9075 147.855 97.0375 148.665C118.058 150.075 141.008 148.755 157.228 135.295C175.168 120.395 179.438 91.5447 166.588 72.0947C163.108 66.8247 154.548 70.5547 149.988 64.9847C144.468 58.2447 135.918 55.5547 127.208 55.6047C108.498 55.7147 90.9375 56.8147 78.3375 70.6547" fill="#9E4343"/>
<path d="M90.2475 60.7547C80.7575 55.6847 69.8876 54.2147 59.3176 56.0647C55.3076 56.7647 51.3875 57.9247 47.6075 59.4347C44.3075 60.7547 41.0775 62.1647 38.6275 64.8247C34.3375 69.4947 32.9975 76.0347 31.9975 82.1047C31.4475 85.4247 31.1375 88.8447 30.2675 92.0947C29.3275 95.5847 27.4775 98.7247 26.2375 102.105C24.9975 105.485 24.6175 109.145 25.4275 112.685C26.0875 115.555 27.8975 117.655 29.6475 119.915C31.9375 122.885 34.0075 125.915 36.6575 128.595C39.3075 131.275 42.2176 133.635 45.3176 135.745C51.8076 140.165 59.1275 143.305 66.6575 145.465C75.2575 147.925 84.1675 149.135 93.0676 149.865C100.838 150.505 108.648 150.835 116.438 150.425C131.338 149.655 146.568 146.085 158.268 136.355C168.338 127.975 174.148 115.285 175.288 102.355C175.858 95.8447 175.218 89.1647 173.278 82.9147C172.318 79.8147 171.038 76.8047 169.458 73.9747C167.878 71.1447 166.368 69.0247 163.278 68.0247C160.538 67.1347 157.588 67.2547 154.828 66.4147C151.578 65.4247 149.908 62.3647 147.338 60.3447C141.498 55.7547 134.098 54.0847 126.788 54.1247C112.728 54.2047 97.5475 54.7847 85.3875 62.7047C82.3975 64.6547 79.6775 66.9847 77.2675 69.6047C75.9775 71.0147 78.0775 73.1247 79.3675 71.7047C83.9775 66.6847 89.6875 62.9947 96.1375 60.7847C102.588 58.5747 109.238 57.7447 115.928 57.3747C122.618 57.0047 130.288 56.4147 137.048 58.3947C140.278 59.3347 143.378 60.8547 145.958 63.0347C147.308 64.1747 148.338 65.5647 149.598 66.7747C150.658 67.7947 151.938 68.5147 153.308 69.0247C155.898 69.9947 158.708 69.9747 161.378 70.5847C162.528 70.8447 163.678 71.2247 164.578 72.0247C165.618 72.9647 166.298 74.4047 166.968 75.6047C169.948 80.9747 171.728 87.0147 172.298 93.1247C173.428 105.325 170.068 118.095 162.448 127.775C153.808 138.745 140.438 144.245 126.958 146.375C119.768 147.515 112.448 147.745 105.178 147.555C97.1475 147.345 89.0676 146.735 81.1275 145.515C66.0275 143.195 50.7875 138.125 39.5976 127.305C36.9976 124.795 34.8975 121.995 32.7475 119.105C31.1575 116.965 29.1175 114.975 28.3975 112.335C26.4975 105.325 31.1775 99.6347 33.0175 93.2347C33.9175 90.1047 34.2275 86.7747 34.7475 83.5647C35.2375 80.5247 35.7775 77.4747 36.6875 74.5347C37.5075 71.8847 38.6675 69.2447 40.5175 67.1447C42.8475 64.5047 46.0276 63.1847 49.2576 61.9447C60.5476 57.6147 72.9776 56.7847 84.3475 61.2647C85.8475 61.8547 87.3075 62.5547 88.7375 63.3147C90.4275 64.2147 91.9275 61.6447 90.2375 60.7447L90.2475 60.7547Z" fill="black"/>
<mask id="mask0_840_2085" style="mask-type:luminance" maskUnits="userSpaceOnUse" x="26" y="57" width="146" height="91">
<path d="M89.7575 63.3147C83.1275 59.7647 67.6675 53.6447 46.1375 63.6647C36.2875 68.2547 34.0575 80.2647 32.0575 90.9347C30.8075 97.5747 24.6375 98.9047 26.9375 105.255C28.8575 110.565 31.1675 115.775 34.3675 120.425C41.0475 130.115 51.3775 136.865 62.4375 140.895C73.4975 144.925 85.3075 146.415 97.0475 147.205C117.408 148.575 139.628 147.295 155.328 134.255C172.698 119.835 176.838 91.8947 164.398 73.0547C161.028 67.9547 156.558 63.4747 151.068 60.7847C143.488 57.0747 134.698 57.0447 126.258 57.0947C108.138 57.1947 91.1375 58.2647 78.9375 71.6647L89.7575 63.3047V63.3147Z" fill="white"/>
</mask>
<g mask="url(#mask0_840_2085)">
<g opacity="0.4">
<path d="M34.4174 127.685C39.7674 132.295 45.4275 136.095 52.0175 138.705C57.4575 140.865 63.9274 141.865 68.4174 145.855C75.2974 151.965 85.4775 141.855 78.5575 135.715C73.5675 131.285 67.7875 128.995 61.5275 126.905C55.2675 124.815 49.6675 121.945 44.5575 117.545C37.5975 111.555 27.4074 121.655 34.4174 127.685Z" fill="#49270F"/>
<path d="M98.5275 80.6645C102.628 79.4345 106.768 78.3445 110.968 77.5045C113.878 76.9145 118.598 75.2045 121.038 76.6645C123.478 78.1245 123.188 81.0445 124.188 83.0045C124.848 84.2945 123.958 82.5745 124.948 83.2345C126.508 84.8745 127.188 84.6245 126.998 82.4745C127.208 81.2945 127.428 80.1045 127.638 78.9245C128.628 73.3945 124.448 68.9645 118.818 70.1045C114.348 71.0045 110.208 72.5145 106.048 74.3945C102.668 75.9245 101.478 81.2445 103.478 84.2045C106.248 88.3145 109.668 91.6045 114.228 93.6245C117.798 95.2045 121.888 94.6345 124.038 91.0545C125.898 87.9445 124.948 82.9145 121.468 81.2445C116.568 78.9045 113.438 75.7345 109.478 72.1945C107.588 70.5045 105.428 69.4545 102.868 69.2145C100.878 69.0345 99.3875 69.5445 97.8075 68.0245C91.1875 61.5845 81.0375 71.7145 87.6675 78.1645C89.8075 80.2545 92.2175 81.9145 95.1075 82.7945C96.3975 83.1845 97.8075 83.4545 99.1675 83.5345C99.8475 83.5945 100.528 83.5845 101.198 83.5245C102.438 83.5145 101.978 83.2445 99.7975 82.7345C99.6975 82.7945 105.088 87.8245 105.568 88.2045C108.278 90.3545 111.108 92.1445 114.228 93.6345L121.468 81.2545C119.148 80.2245 117.298 79.1045 115.858 76.9745L113.288 86.7845C116.278 85.4345 119.418 84.5845 122.628 83.9445L113.808 75.1245C112.928 80.0145 111.318 85.3245 113.228 90.1445C114.678 93.7845 117.938 96.2545 121.688 97.1845C130.788 99.4245 138.288 91.7445 138.508 82.9945C138.698 75.4045 132.588 64.4345 124.988 62.1145C120.588 60.7745 115.158 62.2645 110.748 63.0245C105.318 63.9645 99.9775 65.2845 94.6975 66.8645C85.8775 69.5045 89.6375 83.3445 98.5075 80.6945L98.5275 80.6645Z" fill="#49270F"/>
<path d="M161.277 105.485C155.657 107.415 148.628 108.665 146.628 115.175C144.888 120.825 147.238 127.515 148.288 133.145C149.208 138.105 154.988 139.175 158.818 137.425C167.458 133.475 181.717 123.845 175.218 112.485C172.398 107.555 165.787 108.155 162.837 112.485C161.057 115.105 159.668 118.025 158.788 121.075C158.618 121.635 158.467 122.215 158.357 122.795C160.187 121.215 160.267 120.995 158.587 122.135C156.917 122.825 155.328 123.925 153.688 124.705C150.198 126.375 149.277 131.375 151.117 134.515C153.207 138.085 157.417 138.765 160.927 137.085C164.437 135.405 168.997 133.405 171.047 129.715C172.867 126.445 173.027 122.925 175.207 119.725H162.827L163.318 120.585L162.337 116.965C162.587 120.825 154.158 123.855 151.568 125.045L162.098 129.325C161.688 127.095 161.267 124.865 160.857 122.635C160.577 121.145 160.067 119.895 160.637 118.505L158.797 121.665C159.497 120.785 163.457 119.865 165.087 119.305C173.767 116.325 170.037 102.475 161.277 105.475V105.485Z" fill="#49270F"/>
<path d="M51.7275 84.7046C51.6575 84.5246 58.2575 80.2046 59.2475 78.7746C62.0975 74.6846 61.8575 69.6846 59.0475 65.6246C56.2375 61.5646 51.4975 59.1446 46.8775 60.7546C42.4975 62.2746 39.6975 67.4946 36.4275 70.6146C33.4075 73.5046 28.3675 75.9746 26.7675 79.9446C24.8975 84.5846 28.0275 89.2246 31.5975 92.0146C39.2375 97.9946 49.4175 96.4046 57.0275 91.2846C60.7375 88.7946 62.0075 83.3746 58.4775 80.0246C56.6875 78.3346 54.9575 76.5946 53.2775 74.8046L46.2975 86.7846L47.8875 87.3346C56.6175 90.3746 60.3775 76.5246 51.6975 73.5046L50.1075 72.9546C43.0175 70.4846 38.5075 80.0246 43.1275 84.9346C44.8175 86.7246 46.5475 88.4646 48.3275 90.1546L49.7775 78.8946C47.8575 80.1846 45.7675 81.5646 43.3775 81.6146C42.2575 81.6446 40.2175 80.7946 40.2175 80.7846L38.3775 87.7646C40.6175 85.1146 44.0075 83.1746 46.5575 80.7446C49.1075 78.3146 51.3775 75.3846 53.8375 72.7246L50.6775 74.5646L51.6475 74.1846H47.8375C48.5775 70.5746 48.0375 69.5246 46.2075 71.0346C45.4375 71.4746 44.7075 71.9546 43.9975 72.4746C42.2675 73.7246 40.7375 75.0746 39.5375 76.8446C37.2175 80.2746 36.4375 84.5846 37.8875 88.5046C39.2275 92.1346 42.7475 94.6046 46.7075 93.5146C50.1975 92.5546 53.0675 88.3446 51.7175 84.6946L51.7275 84.7046Z" fill="#49270F"/>
<path d="M95.3875 115.975C95.5775 116.175 94.8475 119.065 94.8075 119.535C94.6775 121.445 94.8475 123.175 95.6675 124.935C97.3975 128.655 101.057 130.655 105.087 130.865C112.057 131.225 122.858 130.435 125.688 122.875C128.518 115.315 122.857 108.705 115.987 106.235C109.117 103.765 100.858 102.405 98.3475 94.7646C96.2975 88.5146 88.8975 88.1346 85.2475 93.0546C81.5975 97.9746 79.8275 104.155 83.2775 109.935C84.7175 112.345 86.7275 114.615 88.8275 116.465C89.9675 117.475 93.8275 119.545 94.1175 121.015C94.5975 123.465 96.8575 125.325 99.1275 126.025L100.077 126.315C108.917 129.045 112.697 115.205 103.887 112.485L102.938 112.195L107.947 117.205C107.137 113.115 104.488 110.475 101.258 108.085C99.7575 106.975 98.4675 105.805 97.0975 104.535C95.0875 102.665 96.0475 102.435 97.6275 100.295L84.5275 98.5846C88.0975 109.435 97.2775 115.415 107.767 118.735C108.717 119.035 109.788 119.485 110.778 119.615C111.318 120.165 111.818 120.295 112.288 120.025C113.588 119.385 113.837 117.985 113.017 115.825C112.527 115.495 109.978 116.185 109.348 116.255C106.728 116.545 105.668 115.795 107.788 118.315C110.158 121.125 109.717 119.025 109.837 116.755C109.907 115.475 109.838 114.175 109.538 112.915C108.888 110.115 107.538 107.925 105.538 105.865C99.1175 99.2146 88.9875 109.365 95.3975 116.005L95.3875 115.975Z" fill="#49270F"/>
</g>
</g>
<path d="M94.4475 54.5447C88.2875 52.0547 74.3375 54.0647 68.0475 56.2047C62.0175 58.2647 55.5875 61.7547 53.9775 67.9147C61.6775 59.2447 71.6375 58.4947 82.3275 62.9847C75.9575 65.9047 75.9575 71.7247 78.3175 78.3247C81.9275 73.2147 86.3975 68.7047 91.4775 65.0447C92.0875 64.6047 92.7375 64.1647 93.4875 64.1247C94.4175 64.0647 95.2575 64.6347 95.9975 65.2047C100.418 68.6447 103.888 73.2947 105.928 78.5147C107.218 71.5347 106.208 64.1447 103.078 57.7647C107.648 59.6547 112.418 61.0547 117.288 61.9347C119.468 62.3247 121.718 62.6347 123.668 63.6847C125.618 64.7347 127.238 66.7547 127.088 68.9647C126.678 62.7747 122.778 56.9347 117.228 54.1747C114.348 52.7447 111.118 52.1147 107.918 51.8647C100.678 51.3147 99.4275 50.9447 92.8575 54.0447" fill="#A58641"/>
<path d="M94.8476 53.1047C92.2776 52.1047 89.3876 51.9147 86.6576 51.8947C83.3276 51.8747 80.0076 52.2047 76.7176 52.6947C70.6676 53.6047 64.4576 55.2247 59.3376 58.7047C56.1676 60.8547 53.5875 63.7547 52.5475 67.5047C52.1575 68.8947 54.0176 70.0747 55.0376 68.9547C58.3276 65.3047 62.4876 62.6447 67.4076 61.9447C72.3276 61.2447 77.3776 62.5147 81.9376 64.4047L81.5775 61.6847C78.6475 63.0747 76.3176 65.4747 75.6476 68.7247C74.9776 71.9747 75.7675 75.5347 76.8875 78.7047C77.3275 79.9647 78.8575 80.1247 79.6075 79.0647C81.4775 76.4447 83.5675 73.9847 85.8575 71.7247C87.0275 70.5747 88.2376 69.4747 89.4976 68.4347C90.5676 67.5447 91.8676 66.1947 93.1876 65.7147C94.4176 65.2647 95.9476 67.0347 96.7876 67.7947C97.8676 68.7847 98.8875 69.8447 99.8275 70.9747C101.788 73.3447 103.368 76.0547 104.498 78.9047C104.978 80.1047 107.078 80.5147 107.368 78.9047C108.698 71.4347 107.658 63.8347 104.368 57.0047L102.688 59.1947C106.978 60.9547 111.428 62.3047 115.988 63.1947C119.278 63.8347 125.718 64.2947 125.608 68.9647H128.588C127.928 60.5647 122.048 53.5647 113.948 51.3547C110.078 50.2947 105.718 49.9547 101.708 50.0047C98.2675 50.0447 95.1875 51.3147 92.1175 52.7547C90.3876 53.5647 91.8975 56.1347 93.6175 55.3247C96.2076 54.1147 98.8075 53.0147 101.708 52.9847C105.188 52.9447 108.928 53.2147 112.308 54.0147C119.448 55.6947 125.028 61.5147 125.618 68.9747C125.768 70.8647 128.548 70.9147 128.598 68.9747C128.728 63.6847 123.368 61.5147 119.018 60.7347C113.688 59.7747 108.518 58.3947 103.498 56.3347C102.178 55.7947 101.318 57.4947 101.818 58.5247C104.738 64.5847 105.698 71.5047 104.518 78.1347H107.388C106.058 74.7747 104.258 71.6847 101.948 68.8947C100.798 67.5047 99.5276 66.2147 98.1576 65.0547C96.7876 63.8947 95.3475 62.6047 93.5175 62.6547C91.8075 62.7047 90.3675 64.0447 89.0876 65.0347C87.5075 66.2547 85.9875 67.5447 84.5475 68.9147C81.7675 71.5547 79.2876 74.4747 77.0676 77.5947L79.7876 77.9547C78.8876 75.4047 78.0576 72.5747 78.4976 69.8447C78.9376 67.1147 80.7376 65.4347 83.1176 64.3047C84.4176 63.6847 83.8076 62.0147 82.7576 61.5847C77.6676 59.4747 72.1675 58.2947 66.6675 59.1147C61.1675 59.9347 56.5675 62.8847 52.9575 66.8947L55.4475 68.3447C57.1075 62.3847 63.4875 59.2847 68.9275 57.5247C74.3675 55.7647 80.0775 55.0047 85.6775 54.9247C88.4875 54.8847 91.4276 54.9847 94.0876 56.0147C95.8776 56.7147 96.6476 53.8347 94.8776 53.1447L94.8476 53.1047Z" fill="black"/>
</svg>
