<svg width="77" height="32" viewBox="0 0 77 32" fill="none" xmlns="http://www.w3.org/2000/svg">
<g filter="url(#filter0_b_525_20320)">
<rect width="76" height="31" rx="15.5" fill="#19191C" fill-opacity="0.1"/>
<path d="M20.1661 21.156C19.5421 21.156 18.9896 21.0412 18.5086 20.8115C18.0319 20.5818 17.6593 20.2612 17.3906 19.8495C17.1263 19.4378 16.9941 18.9655 16.9941 18.4325H18.0991C18.0991 18.7748 18.1858 19.0782 18.3591 19.3425C18.5324 19.6068 18.7773 19.8127 19.0936 19.96C19.4099 20.1073 19.7718 20.181 20.1791 20.181C20.5821 20.181 20.9353 20.1138 21.2386 19.9795C21.5463 19.8408 21.7824 19.648 21.9471 19.401C22.1161 19.1497 22.2006 18.8615 22.2006 18.5365C22.2006 18.1248 22.0771 17.7717 21.8301 17.477C21.5874 17.1823 21.2624 17.0003 20.8551 16.931L19.3861 16.6775C18.9441 16.5995 18.5606 16.4457 18.2356 16.216C17.9106 15.9863 17.6614 15.7003 17.4881 15.358C17.3148 15.0157 17.2281 14.643 17.2281 14.24C17.2281 13.7677 17.3516 13.343 17.5986 12.966C17.8499 12.5847 18.1966 12.2857 18.6386 12.069C19.0849 11.8523 19.5854 11.744 20.1401 11.744C20.7121 11.744 21.2213 11.8523 21.6676 12.069C22.1139 12.2813 22.4606 12.5782 22.7076 12.9595C22.9546 13.3408 23.0781 13.7763 23.0781 14.266H21.9731C21.9731 13.967 21.8973 13.7005 21.7456 13.4665C21.5939 13.2282 21.3794 13.044 21.1021 12.914C20.8291 12.784 20.5128 12.719 20.1531 12.719C19.7934 12.719 19.4749 12.7818 19.1976 12.9075C18.9203 13.0332 18.7036 13.2108 18.5476 13.4405C18.3959 13.6702 18.3201 13.9367 18.3201 14.24C18.3201 14.5997 18.4349 14.9095 18.6646 15.1695C18.8986 15.4295 19.2041 15.592 19.5811 15.657L21.0761 15.917C21.5094 15.995 21.8951 16.1618 22.2331 16.4175C22.5711 16.6732 22.8333 16.9873 23.0196 17.36C23.2059 17.7283 23.2991 18.1162 23.2991 18.5235C23.2991 19.0132 23.1669 19.4595 22.9026 19.8625C22.6383 20.2612 22.2678 20.5775 21.7911 20.8115C21.3144 21.0412 20.7728 21.156 20.1661 21.156ZM25.2827 11.9H26.2837V15.423C26.509 15.0243 26.808 14.7188 27.1807 14.5065C27.5577 14.2942 27.9932 14.188 28.4872 14.188C28.9639 14.188 29.3864 14.2898 29.7547 14.4935C30.123 14.6972 30.4112 14.9983 30.6192 15.397C30.8315 15.7913 30.9377 16.2658 30.9377 16.8205V21H29.8977V16.9245C29.8977 16.3482 29.7482 15.8997 29.4492 15.579C29.1502 15.2583 28.7385 15.098 28.2142 15.098C27.8415 15.098 27.5122 15.1803 27.2262 15.345C26.9402 15.5097 26.717 15.7415 26.5567 16.0405C26.4007 16.3352 26.3227 16.6732 26.3227 17.0545V21H25.2827V11.9ZM38.5327 21H37.5317V19.921C37.3063 20.3197 37.0052 20.6252 36.6282 20.8375C36.2555 21.0498 35.8222 21.156 35.3282 21.156C34.8515 21.156 34.429 21.0542 34.0607 20.8505C33.6923 20.6468 33.402 20.3478 33.1897 19.9535C32.9817 19.5548 32.8777 19.0782 32.8777 18.5235V14.344H33.9177V18.4195C33.9177 18.9958 34.0672 19.4443 34.3662 19.765C34.6652 20.0857 35.0768 20.246 35.6012 20.246C35.9738 20.246 36.3032 20.1637 36.5892 19.999C36.8752 19.8343 37.0962 19.6047 37.2522 19.31C37.4125 19.011 37.4927 18.6708 37.4927 18.2895V14.344H38.5327V21ZM41.3826 15.267H40.2126V14.344H41.3826V13.473C41.3826 13.1653 41.4541 12.8923 41.5971 12.654C41.7401 12.4157 41.9394 12.2315 42.1951 12.1015C42.4508 11.9672 42.7433 11.9 43.0726 11.9H44.1386V12.823H43.1376C42.9253 12.823 42.7519 12.8902 42.6176 13.0245C42.4876 13.1545 42.4226 13.3257 42.4226 13.538V14.344H44.0736V15.267H42.4226V21H41.3826V15.267ZM46.4177 15.267H45.2477V14.344H46.4177V13.473C46.4177 13.1653 46.4892 12.8923 46.6322 12.654C46.7752 12.4157 46.9745 12.2315 47.2302 12.1015C47.4858 11.9672 47.7783 11.9 48.1077 11.9H49.1737V12.823H48.1727C47.9603 12.823 47.787 12.8902 47.6527 13.0245C47.5227 13.1545 47.4577 13.3257 47.4577 13.538V14.344H49.1087V15.267H47.4577V21H46.4177V15.267ZM50.9327 11.9H51.9727V21H50.9327V11.9ZM57.0087 21.156C56.3847 21.156 55.8235 21.0065 55.3252 20.7075C54.8269 20.4085 54.4369 19.9947 54.1552 19.466C53.8779 18.933 53.7392 18.3307 53.7392 17.659C53.7392 17.0047 53.88 16.4132 54.1617 15.8845C54.4477 15.3558 54.8399 14.942 55.3382 14.643C55.8365 14.3397 56.3934 14.188 57.0087 14.188C57.637 14.188 58.1874 14.3375 58.6597 14.6365C59.1364 14.9355 59.5025 15.3493 59.7582 15.878C60.0182 16.4067 60.1482 17.0047 60.1482 17.672V17.9255H54.7987C54.842 18.3805 54.9655 18.7835 55.1692 19.1345C55.3729 19.4855 55.6394 19.7585 55.9687 19.9535C56.298 20.1485 56.6664 20.246 57.0737 20.246C57.5114 20.246 57.897 20.1658 58.2307 20.0055C58.5644 19.8452 58.807 19.6263 58.9587 19.349H59.9987C59.9207 19.6263 59.756 19.9037 59.5047 20.181C59.2577 20.4583 58.9197 20.6902 58.4907 20.8765C58.066 21.0628 57.572 21.156 57.0087 21.156ZM59.0692 17.0675C58.9825 16.4608 58.7615 15.982 58.4062 15.631C58.0552 15.28 57.5937 15.1045 57.0217 15.1045C56.636 15.1045 56.2894 15.1847 55.9817 15.345C55.674 15.501 55.4205 15.7285 55.2212 16.0275C55.0219 16.3222 54.8897 16.6688 54.8247 17.0675H59.0692Z" fill="#19191C"/>
<rect x="0.5" y="0.5" width="76" height="31" rx="15.5" stroke="#19191C" stroke-opacity="0.4"/>
</g>
<defs>
<filter id="filter0_b_525_20320" x="-8" y="-8" width="93" height="48" filterUnits="userSpaceOnUse" color-interpolation-filters="sRGB">
<feFlood flood-opacity="0" result="BackgroundImageFix"/>
<feGaussianBlur in="BackgroundImageFix" stdDeviation="4"/>
<feComposite in2="SourceAlpha" operator="in" result="effect1_backgroundBlur_525_20320"/>
<feBlend mode="normal" in="SourceGraphic" in2="effect1_backgroundBlur_525_20320" result="shape"/>
</filter>
</defs>
</svg>
