<svg width="108" height="108" viewBox="0 0 108 108" fill="none" xmlns="http://www.w3.org/2000/svg">
<g clip-path="url(#clip0_438_20038)">
<rect width="108" height="108" fill="#F4F4F4"/>
<g clip-path="url(#clip1_438_20038)">
<path d="M54.84 68.525C68.7493 68.525 80.025 63.683 80.025 57.71C80.025 51.7371 68.7493 46.895 54.84 46.895C40.9307 46.895 29.655 51.7371 29.655 57.71C29.655 63.683 40.9307 68.525 54.84 68.525Z" fill="#6B57FF"/>
<path d="M41.72 66.5649H75.825L97.68 75.8449C108.675 80.7349 115.16 92.2549 113.635 104.19L97.51 222.855L42.225 198.725L41.725 66.5649H41.72Z" fill="#6B57FF"/>
<path d="M113.7 97.905L124.665 153.22C126.645 164.14 126.015 175.38 122.825 186.01L109.525 231.62L83.215 219.01L72.895 101.75L113.705 97.905H113.7Z" fill="#6B57FF"/>
<path d="M66.84 66.5649H32.735L10.88 75.8449C-0.115022 80.7349 -6.60003 92.2549 -5.07503 104.19L11.05 222.855L66.335 198.725L66.835 66.5649H66.84Z" fill="#6B57FF"/>
<path d="M-4.98001 96.635L-16.1 153.22C-18.08 164.14 -17.45 175.38 -14.26 186.01L3.71499 245.98L47.085 228.27L35.67 101.75L-4.98001 96.635Z" fill="#6B57FF"/>
<path d="M54.575 67.3599C66.0239 67.3599 75.305 63.7267 75.305 59.2449C75.305 54.7631 66.0239 51.1299 54.575 51.1299C43.1261 51.1299 33.845 54.7631 33.845 59.2449C33.845 63.7267 43.1261 67.3599 54.575 67.3599Z" stroke="white" stroke-width="0.5" stroke-miterlimit="10" stroke-linecap="round"/>
<path d="M71.3 66.5649H41.72V72.7649H71.3V66.5649Z" fill="white"/>
<path d="M56.805 73.74L29.655 56.8V73.74H56.805Z" fill="#6B57FF"/>
<path d="M52.875 73.74L80.025 56.8V73.74H52.875Z" fill="#6B57FF"/>
<path d="M75.305 59.2451C75.305 63.7251 66.025 67.3601 54.575 67.3601C43.125 67.3601 33.845 63.7251 33.845 59.2451" stroke="white" stroke-width="0.5" stroke-miterlimit="10" stroke-linecap="round"/>
<path d="M74.145 26.415H72.375V28.955H74.145V26.415Z" fill="#EA8638"/>
<path d="M69.11 19.345C69.11 27.24 62.71 33.64 54.815 33.64C46.92 33.64 40.52 27.24 40.52 19.345C40.52 16.335 41.015 14.18 42.11 11.605C43.16 9.135 46.105 8.39 48.15 7.31C50.14 6.26 51.175 4 54.81 4C62.705 4 69.105 11.45 69.105 19.345H69.11Z" fill="#19191C"/>
<path d="M72.84 28.48V42.24C72.84 44.125 72.165 45.945 70.94 47.38C67.51 51.4 60.305 58.82 56.79 58.82H52.84C49.345 58.82 42.155 51.4 38.735 47.375C37.515 45.94 36.84 44.125 36.84 42.24V28.475C36.84 18.535 44.9 19.475 54.84 19.475C64.78 19.475 72.84 18.535 72.84 28.475V28.48Z" fill="#EAC59F"/>
<path d="M59.03 32.0599V34.75C59.03 35.43 59.585 35.9799 60.265 35.9799C60.945 35.9799 61.5 35.425 61.5 34.745V32.055C61.5 31.375 60.945 30.825 60.265 30.825C59.585 30.825 59.03 31.3799 59.03 32.0599Z" fill="black"/>
<path d="M48.155 32.0599V34.75C48.155 35.43 48.71 35.9799 49.39 35.9799C50.07 35.9799 50.625 35.425 50.625 34.745V32.055C50.625 31.375 50.07 30.825 49.39 30.825C48.71 30.825 48.155 31.3799 48.155 32.0599Z" fill="black"/>
<path d="M38.0654 39.8526C40.7487 39.3014 42.3883 36.2472 41.7275 33.0311C41.0667 29.8149 38.3558 27.6546 35.6725 28.2059C32.9893 28.7572 31.3497 31.8113 32.0105 35.0275C32.6712 38.2436 35.3821 40.4039 38.0654 39.8526Z" fill="#EAC59F"/>
<path d="M77.6683 35.0265C78.329 31.8104 76.6894 28.7563 74.0062 28.205C71.3229 27.6537 68.612 29.814 67.9512 33.0301C67.2904 36.2463 68.93 39.3004 71.6133 39.8517C74.2966 40.403 77.0075 38.2427 77.6683 35.0265Z" fill="#EAC59F"/>
<path d="M66.835 20.735C66.835 20.735 70.505 26.995 71.885 31.63C72.125 32.43 72.835 32.14 72.835 31.245V21.8L66.83 20.73L66.835 20.735Z" fill="#EA8638"/>
<path d="M42.845 20.735C42.845 20.735 39.175 26.995 37.795 31.63C37.555 32.43 36.845 32.14 36.845 31.245V21.8L42.85 20.73L42.845 20.735Z" fill="#EA8638"/>
<path d="M34.6899 19.9049V25.8149C34.6899 27.0349 35.9849 27.7149 36.8749 26.9699C40.5099 23.9349 48.0799 20.6049 54.9349 20.7299C62.0099 20.8549 69.2799 23.9799 72.8099 26.9449C73.6999 27.6899 74.9899 27.0049 74.9899 25.7849V19.6349C74.9899 17.1849 73.8449 14.8999 71.9299 13.5849C68.4149 11.1749 62.1849 8.87988 54.9349 8.87988C48.5399 8.87988 41.8649 11.2699 38.0049 13.6849C35.9499 14.9699 34.6899 17.3399 34.6899 19.8999V19.9049Z" fill="#19191C"/>
<path d="M72.84 42.2401C72.84 44.1251 72.165 45.9451 70.94 47.3801C67.51 51.4001 60.305 58.8201 56.79 58.8201H52.84C49.345 58.8201 42.155 51.4001 38.735 47.3751C37.515 45.9401 36.84 44.1251 36.84 42.2401L54.84 49.7001L72.84 42.2351V42.2401Z" fill="#EA8638"/>
<path d="M64.485 48.9851H45.195L51.215 43.1601C51.525 42.8601 51.935 42.6951 52.365 42.6951H57.315C57.745 42.6951 58.16 42.8601 58.465 43.1601L64.485 48.9851Z" stroke="#EA8638" stroke-width="3" stroke-miterlimit="10"/>
<path d="M66.45 72.7649C66.45 72.7649 70.22 80.1299 66.84 92.4449C63.46 104.76 66.655 115.54 66.655 115.54" stroke="white" stroke-width="0.5" stroke-miterlimit="10" stroke-linecap="round"/>
<path d="M44.395 72.7649C44.395 72.7649 40.625 80.1299 44.005 92.4449C47.385 104.76 44.19 115.54 44.19 115.54" stroke="white" stroke-width="0.5" stroke-miterlimit="10" stroke-linecap="round"/>
</g>
</g>
<defs>
<clipPath id="clip0_438_20038">
<rect width="108" height="108" fill="white"/>
</clipPath>
<clipPath id="clip1_438_20038">
<rect width="158.795" height="461.955" fill="white" transform="translate(-33 4)"/>
</clipPath>
</defs>
</svg>
