<svg width="92" height="40" viewBox="0 0 92 40" fill="none" xmlns="http://www.w3.org/2000/svg">
<g filter="url(#filter0_b_525_21268)">
<path d="M30.4608 26.192C29.4368 26.192 28.5061 25.9413 27.6688 25.44C26.8368 24.9333 26.1835 24.24 25.7088 23.36C25.2341 22.4747 24.9968 21.488 24.9968 20.4C24.9968 19.312 25.2341 18.328 25.7088 17.448C26.1835 16.5627 26.8368 15.8693 27.6688 15.368C28.5061 14.8613 29.4368 14.608 30.4608 14.608C31.3035 14.608 32.0901 14.7893 32.8208 15.152C33.5568 15.5093 34.1621 15.984 34.6368 16.576C35.1115 17.168 35.3995 17.7973 35.5008 18.464H34.1728C34.0661 18.0107 33.8341 17.5813 33.4768 17.176C33.1195 16.7707 32.6741 16.4453 32.1408 16.2C31.6128 15.9493 31.0528 15.824 30.4608 15.824C29.6821 15.824 28.9808 16.0213 28.3568 16.416C27.7381 16.8053 27.2528 17.3493 26.9008 18.048C26.5488 18.7413 26.3728 19.5253 26.3728 20.4C26.3728 21.2747 26.5488 22.0613 26.9008 22.76C27.2528 23.4533 27.7381 23.9973 28.3568 24.392C28.9808 24.7813 29.6821 24.976 30.4608 24.976C31.0528 24.976 31.6128 24.8533 32.1408 24.608C32.6741 24.3573 33.1195 24.0293 33.4768 23.624C33.8341 23.2187 34.0661 22.7893 34.1728 22.336H35.5008C35.3995 23.0027 35.1115 23.632 34.6368 24.224C34.1621 24.816 33.5568 25.2933 32.8208 25.656C32.0901 26.0133 31.3035 26.192 30.4608 26.192ZM37.7901 14.8H39.0701V26H37.7901V14.8ZM45.2202 26.192C44.4522 26.192 43.7615 26.008 43.1482 25.64C42.5349 25.272 42.0549 24.7627 41.7082 24.112C41.3669 23.456 41.1962 22.7147 41.1962 21.888C41.1962 21.0827 41.3695 20.3547 41.7162 19.704C42.0682 19.0533 42.5509 18.544 43.1642 18.176C43.7775 17.8027 44.4629 17.616 45.2202 17.616C45.9935 17.616 46.6709 17.8 47.2522 18.168C47.8389 18.536 48.2895 19.0453 48.6042 19.696C48.9242 20.3467 49.0842 21.0827 49.0842 21.904V22.216H42.5002C42.5535 22.776 42.7055 23.272 42.9562 23.704C43.2069 24.136 43.5349 24.472 43.9402 24.712C44.3455 24.952 44.7989 25.072 45.3002 25.072C45.8389 25.072 46.3135 24.9733 46.7242 24.776C47.1349 24.5787 47.4335 24.3093 47.6202 23.968H48.9002C48.8042 24.3093 48.6015 24.6507 48.2922 24.992C47.9882 25.3333 47.5722 25.6187 47.0442 25.848C46.5215 26.0773 45.9135 26.192 45.2202 26.192ZM47.7562 21.16C47.6495 20.4133 47.3775 19.824 46.9402 19.392C46.5082 18.96 45.9402 18.744 45.2362 18.744C44.7615 18.744 44.3349 18.8427 43.9562 19.04C43.5775 19.232 43.2655 19.512 43.0202 19.88C42.7749 20.2427 42.6122 20.6693 42.5322 21.16H47.7562ZM54.1011 17.616C54.7197 17.616 55.2637 17.7307 55.7331 17.96C56.2024 18.184 56.5651 18.5147 56.8211 18.952C57.0824 19.384 57.2131 19.8987 57.2131 20.496V26H55.9651V24.664C55.7357 25.16 55.3997 25.5387 54.9571 25.8C54.5144 26.0613 53.9891 26.192 53.3811 26.192C52.8584 26.192 52.3864 26.0907 51.9651 25.888C51.5437 25.6853 51.2131 25.4053 50.9731 25.048C50.7331 24.6907 50.6131 24.2853 50.6131 23.832C50.6131 23.4053 50.7224 23.0133 50.9411 22.656C51.1651 22.2933 51.4717 21.9973 51.8611 21.768C52.2557 21.5387 52.6984 21.3973 53.1891 21.344L55.3731 21.104C55.5544 21.0827 55.6957 21.008 55.7971 20.88C55.8984 20.752 55.9491 20.5653 55.9491 20.32C55.9491 19.9947 55.8717 19.7093 55.7171 19.464C55.5624 19.2187 55.3437 19.0293 55.0611 18.896C54.7837 18.7573 54.4611 18.688 54.0931 18.688C53.7251 18.688 53.3944 18.752 53.1011 18.88C52.8077 19.0027 52.5704 19.1707 52.3891 19.384C52.2131 19.592 52.1064 19.8187 52.0691 20.064H50.7891C50.8531 19.6 51.0344 19.184 51.3331 18.816C51.6371 18.4427 52.0291 18.1493 52.5091 17.936C52.9891 17.7227 53.5197 17.616 54.1011 17.616ZM51.9411 23.76C51.9411 24.0373 52.0131 24.2827 52.1571 24.496C52.3064 24.7093 52.5117 24.8773 52.7731 25C53.0344 25.1173 53.3331 25.176 53.6691 25.176C54.1277 25.176 54.5277 25.0827 54.8691 24.896C55.2157 24.7093 55.4824 24.448 55.6691 24.112C55.8557 23.7707 55.9491 23.3787 55.9491 22.936V22L53.3651 22.288C52.9384 22.336 52.5944 22.496 52.3331 22.768C52.0717 23.04 51.9411 23.3707 51.9411 23.76ZM59.7996 17.808H61.0316V19.136C61.3089 18.6453 61.6769 18.2693 62.1356 18.008C62.5996 17.7467 63.1356 17.616 63.7436 17.616C64.3302 17.616 64.8502 17.7413 65.3036 17.992C65.7569 18.2427 66.1116 18.6133 66.3676 19.104C66.6289 19.5893 66.7596 20.1733 66.7596 20.856V26H65.4796V20.984C65.4796 20.2747 65.2956 19.7227 64.9276 19.328C64.5596 18.9333 64.0529 18.736 63.4076 18.736C62.9489 18.736 62.5436 18.8373 62.1916 19.04C61.8396 19.2427 61.5649 19.528 61.3676 19.896C61.1756 20.2587 61.0796 20.6747 61.0796 21.144V26H59.7996V17.808Z" fill="#19191C"/>
<rect x="0.5" y="0.5" width="91" height="39" rx="19.5" stroke="#19191C" stroke-opacity="0.3"/>
</g>
<defs>
<filter id="filter0_b_525_21268" x="-8" y="-8" width="108" height="56" filterUnits="userSpaceOnUse" color-interpolation-filters="sRGB">
<feFlood flood-opacity="0" result="BackgroundImageFix"/>
<feGaussianBlur in="BackgroundImageFix" stdDeviation="4"/>
<feComposite in2="SourceAlpha" operator="in" result="effect1_backgroundBlur_525_21268"/>
<feBlend mode="normal" in="SourceGraphic" in2="effect1_backgroundBlur_525_21268" result="shape"/>
</filter>
</defs>
</svg>
