<svg width="42" height="77" viewBox="0 0 42 77" fill="none" xmlns="http://www.w3.org/2000/svg">
<rect x="17" y="2" width="2" height="2" fill="#19191C" fill-opacity="0.7"/>
<rect x="17" y="4" width="2" height="59" fill="#19191C" fill-opacity="0.7"/>
<rect x="19" width="2" height="2" fill="#19191C" fill-opacity="0.7"/>
<rect x="38" y="67" width="2" height="2" fill="#19191C" fill-opacity="0.7"/>
<rect x="4" y="71" width="2" height="4" fill="#19191C" fill-opacity="0.7"/>
<rect x="8" y="71" width="2" height="4" fill="#19191C" fill-opacity="0.7"/>
<rect x="12" y="71" width="2" height="4" fill="#19191C" fill-opacity="0.7"/>
<rect x="16" y="71" width="2" height="4" fill="#19191C" fill-opacity="0.7"/>
<rect x="20" y="71" width="2" height="4" fill="#19191C" fill-opacity="0.7"/>
<rect x="24" y="71" width="2" height="4" fill="#19191C" fill-opacity="0.7"/>
<rect x="28" y="71" width="2" height="4" fill="#19191C" fill-opacity="0.7"/>
<rect x="32" y="71" width="2" height="4" fill="#19191C" fill-opacity="0.7"/>
<rect x="36" y="71" width="2" height="4" fill="#19191C" fill-opacity="0.7"/>
<rect x="40" y="73" width="2" height="2" fill="#19191C" fill-opacity="0.7"/>
<rect x="2" y="67" width="2" height="2" fill="#19191C" fill-opacity="0.7"/>
<rect x="4" y="65" width="2" height="2" fill="#19191C" fill-opacity="0.7"/>
<rect x="36" y="65" width="2" height="2" fill="#19191C" fill-opacity="0.7"/>
<rect y="73" width="2" height="2" fill="#19191C" fill-opacity="0.7"/>
<rect x="2" y="75" width="38" height="2" fill="#19191C" fill-opacity="0.7"/>
<rect x="40" y="69" width="2" height="2" fill="#19191C" fill-opacity="0.7"/>
<rect y="69" width="2" height="2" fill="#19191C" fill-opacity="0.7"/>
<rect x="40" y="71" width="2" height="2" fill="#19191C" fill-opacity="0.7"/>
<rect y="71" width="2" height="2" fill="#19191C" fill-opacity="0.7"/>
<rect x="21" width="2" height="2" fill="#19191C" fill-opacity="0.7"/>
<rect x="6" y="63" width="30" height="2" fill="#19191C" fill-opacity="0.7"/>
<rect x="6" y="65" width="30" height="2" fill="#19191C" fill-opacity="0.7"/>
<rect x="23" y="2" width="2" height="2" fill="#19191C" fill-opacity="0.7"/>
<rect x="23" y="4" width="2" height="59" fill="#19191C" fill-opacity="0.7"/>
</svg>
