<svg width="74" height="40" viewBox="0 0 74 40" fill="none" xmlns="http://www.w3.org/2000/svg">
<g filter="url(#filter0_b_525_21266)">
<path d="M26.0944 14.8H33.8384V16.04H27.3904V19.736H33.2944V20.968H27.3904V24.76H33.9984V26H26.0944V14.8ZM39.2958 17.616C39.9145 17.616 40.4585 17.7307 40.9278 17.96C41.3971 18.184 41.7598 18.5147 42.0158 18.952C42.2771 19.384 42.4078 19.8987 42.4078 20.496V26H41.1598V24.664C40.9305 25.16 40.5945 25.5387 40.1518 25.8C39.7091 26.0613 39.1838 26.192 38.5758 26.192C38.0531 26.192 37.5811 26.0907 37.1598 25.888C36.7385 25.6853 36.4078 25.4053 36.1678 25.048C35.9278 24.6907 35.8078 24.2853 35.8078 23.832C35.8078 23.4053 35.9171 23.0133 36.1358 22.656C36.3598 22.2933 36.6665 21.9973 37.0558 21.768C37.4505 21.5387 37.8931 21.3973 38.3838 21.344L40.5678 21.104C40.7491 21.0827 40.8905 21.008 40.9918 20.88C41.0931 20.752 41.1438 20.5653 41.1438 20.32C41.1438 19.9947 41.0665 19.7093 40.9118 19.464C40.7571 19.2187 40.5385 19.0293 40.2558 18.896C39.9785 18.7573 39.6558 18.688 39.2878 18.688C38.9198 18.688 38.5891 18.752 38.2958 18.88C38.0025 19.0027 37.7651 19.1707 37.5838 19.384C37.4078 19.592 37.3011 19.8187 37.2638 20.064H35.9838C36.0478 19.6 36.2291 19.184 36.5278 18.816C36.8318 18.4427 37.2238 18.1493 37.7038 17.936C38.1838 17.7227 38.7145 17.616 39.2958 17.616ZM37.1358 23.76C37.1358 24.0373 37.2078 24.2827 37.3518 24.496C37.5011 24.7093 37.7065 24.8773 37.9678 25C38.2291 25.1173 38.5278 25.176 38.8638 25.176C39.3225 25.176 39.7225 25.0827 40.0638 24.896C40.4105 24.7093 40.6771 24.448 40.8638 24.112C41.0505 23.7707 41.1438 23.3787 41.1438 22.936V22L38.5598 22.288C38.1331 22.336 37.7891 22.496 37.5278 22.768C37.2665 23.04 37.1358 23.3707 37.1358 23.76ZM47.6263 26C47.237 26 46.8823 25.9173 46.5623 25.752C46.2476 25.5813 45.9996 25.3493 45.8183 25.056C45.637 24.7573 45.5463 24.4267 45.5463 24.064L45.5383 18.944H44.0983L44.1063 17.808H44.9943C45.197 17.808 45.3596 17.744 45.4823 17.616C45.6103 17.488 45.6743 17.3253 45.6743 17.128V15.808H46.8263V17.808H48.8023L48.7943 18.944H46.8183L46.8263 23.984C46.8263 24.2347 46.909 24.4453 47.0743 24.616C47.245 24.7813 47.4556 24.864 47.7063 24.864H48.7943V26H47.6263Z" fill="#19191C"/>
<rect x="0.5" y="0.5" width="73" height="39" rx="19.5" stroke="#19191C" stroke-opacity="0.3"/>
</g>
<defs>
<filter id="filter0_b_525_21266" x="-8" y="-8" width="90" height="56" filterUnits="userSpaceOnUse" color-interpolation-filters="sRGB">
<feFlood flood-opacity="0" result="BackgroundImageFix"/>
<feGaussianBlur in="BackgroundImageFix" stdDeviation="4"/>
<feComposite in2="SourceAlpha" operator="in" result="effect1_backgroundBlur_525_21266"/>
<feBlend mode="normal" in="SourceGraphic" in2="effect1_backgroundBlur_525_21266" result="shape"/>
</filter>
</defs>
</svg>
