<svg width="68" height="26" viewBox="0 0 68 26" fill="none" xmlns="http://www.w3.org/2000/svg">
<rect x="4" y="10" width="2" height="2" fill="#19191C" fill-opacity="0.7"/>
<rect x="4" y="14" width="2" height="2" fill="#19191C" fill-opacity="0.7"/>
<rect x="2" y="8" width="2" height="2" fill="#19191C" fill-opacity="0.7"/>
<rect x="2" y="16" width="2" height="2" fill="#19191C" fill-opacity="0.7"/>
<rect y="6" width="2" height="2" fill="#19191C" fill-opacity="0.7"/>
<rect x="2" y="22" width="2" height="2" fill="#19191C" fill-opacity="0.7"/>
<rect y="4" width="2" height="2" fill="#19191C" fill-opacity="0.7"/>
<rect y="20" width="2" height="2" fill="#19191C" fill-opacity="0.7"/>
<rect x="2" y="2" width="2" height="2" fill="#19191C" fill-opacity="0.7"/>
<rect y="18" width="2" height="2" fill="#19191C" fill-opacity="0.7"/>
<rect x="4" width="2" height="2" fill="#19191C" fill-opacity="0.7"/>
<rect x="4" y="24" width="2" height="2" fill="#19191C" fill-opacity="0.7"/>
<rect x="6" width="2" height="2" fill="#19191C" fill-opacity="0.7"/>
<rect x="6" y="24" width="2" height="2" fill="#19191C" fill-opacity="0.7"/>
<rect x="8" width="2" height="2" fill="#19191C" fill-opacity="0.7"/>
<rect x="8" y="24" width="2" height="2" fill="#19191C" fill-opacity="0.7"/>
<rect x="6" y="12" width="2" height="2" fill="#19191C" fill-opacity="0.7"/>
<rect x="10" y="2" width="2" height="2" fill="#19191C" fill-opacity="0.7"/>
<rect x="10" y="22" width="2" height="2" fill="#19191C" fill-opacity="0.7"/>
<rect x="12" y="4" width="2" height="2" fill="#19191C" fill-opacity="0.7"/>
<rect x="12" y="18" width="2" height="2" fill="#19191C" fill-opacity="0.7"/>
<rect x="12" y="6" width="2" height="2" fill="#19191C" fill-opacity="0.7"/>
<rect x="12" y="20" width="2" height="2" fill="#19191C" fill-opacity="0.7"/>
<rect x="64" y="16" width="2" height="2" transform="rotate(-180 64 16)" fill="#19191C" fill-opacity="0.7"/>
<rect x="64" y="12" width="2" height="2" transform="rotate(-180 64 12)" fill="#19191C" fill-opacity="0.7"/>
<rect x="66" y="18" width="2" height="2" transform="rotate(-180 66 18)" fill="#19191C" fill-opacity="0.7"/>
<rect x="66" y="10" width="2" height="2" transform="rotate(-180 66 10)" fill="#19191C" fill-opacity="0.7"/>
<rect x="68" y="20" width="2" height="2" transform="rotate(-180 68 20)" fill="#19191C" fill-opacity="0.7"/>
<rect x="66" y="4" width="2" height="2" transform="rotate(-180 66 4)" fill="#19191C" fill-opacity="0.7"/>
<rect x="68" y="22" width="2" height="2" transform="rotate(-180 68 22)" fill="#19191C" fill-opacity="0.7"/>
<rect x="68" y="6" width="2" height="2" transform="rotate(-180 68 6)" fill="#19191C" fill-opacity="0.7"/>
<rect x="66" y="24" width="2" height="2" transform="rotate(-180 66 24)" fill="#19191C" fill-opacity="0.7"/>
<rect x="68" y="8" width="2" height="2" transform="rotate(-180 68 8)" fill="#19191C" fill-opacity="0.7"/>
<rect x="64" y="26" width="2" height="2" transform="rotate(-180 64 26)" fill="#19191C" fill-opacity="0.7"/>
<rect x="64" y="2" width="2" height="2" transform="rotate(-180 64 2)" fill="#19191C" fill-opacity="0.7"/>
<rect x="62" y="26" width="2" height="2" transform="rotate(-180 62 26)" fill="#19191C" fill-opacity="0.7"/>
<rect x="62" y="2" width="2" height="2" transform="rotate(-180 62 2)" fill="#19191C" fill-opacity="0.7"/>
<rect x="60" y="26" width="2" height="2" transform="rotate(-180 60 26)" fill="#19191C" fill-opacity="0.7"/>
<rect x="60" y="2" width="2" height="2" transform="rotate(-180 60 2)" fill="#19191C" fill-opacity="0.7"/>
<rect x="62" y="14" width="2" height="2" transform="rotate(-180 62 14)" fill="#19191C" fill-opacity="0.7"/>
<rect x="58" y="24" width="2" height="2" transform="rotate(-180 58 24)" fill="#19191C" fill-opacity="0.7"/>
<rect x="58" y="4" width="2" height="2" transform="rotate(-180 58 4)" fill="#19191C" fill-opacity="0.7"/>
<rect x="56" y="22" width="2" height="2" transform="rotate(-180 56 22)" fill="#19191C" fill-opacity="0.7"/>
<rect x="56" y="8" width="2" height="2" transform="rotate(-180 56 8)" fill="#19191C" fill-opacity="0.7"/>
<rect x="56" y="20" width="2" height="2" transform="rotate(-180 56 20)" fill="#19191C" fill-opacity="0.7"/>
<rect x="56" y="6" width="2" height="2" transform="rotate(-180 56 6)" fill="#19191C" fill-opacity="0.7"/>
<rect x="14" y="8" width="40" height="2" fill="#19191C" fill-opacity="0.7"/>
<rect x="14" y="16" width="40" height="2" fill="#19191C" fill-opacity="0.7"/>
</svg>
