<svg width="214" height="268" fill="none" xmlns="http://www.w3.org/2000/svg"><mask id="path-1-inside-1_732_223" fill="#fff"><path fill-rule="evenodd" clip-rule="evenodd" d="M114.093 14.707A8.953 8.953 0 0 0 116.136 9c0-4.97-4.034-9-9.011-9-4.976 0-9.01 4.03-9.01 9a8.96 8.96 0 0 0 2.09 5.765C34.303 19.652 0 91.973 0 170.224c0 64.834 37.44 96.778 107.375 96.778 69.447 0 106.625-31.944 106.625-96.778 0-78.581-29.651-151.182-99.907-155.517ZM109.128 9c0 1.105-.897 2-2.003 2a2 2 0 1 1 0-4c1.106 0 2.003.895 2.003 2Z"/></mask><path fill-rule="evenodd" clip-rule="evenodd" d="M114.093 14.707A8.953 8.953 0 0 0 116.136 9c0-4.97-4.034-9-9.011-9-4.976 0-9.01 4.03-9.01 9a8.96 8.96 0 0 0 2.09 5.765C34.303 19.652 0 91.973 0 170.224c0 64.834 37.44 96.778 107.375 96.778 69.447 0 106.625-31.944 106.625-96.778 0-78.581-29.651-151.182-99.907-155.517ZM109.128 9c0 1.105-.897 2-2.003 2a2 2 0 1 1 0-4c1.106 0 2.003.895 2.003 2Z" fill="#28B8A0"/><path d="m114.093 14.707-1.545-1.27-2.486 3.025 3.908.24.123-1.996Zm-13.888.058.148 1.994 3.886-.288-2.499-2.989-1.535 1.283Zm15.433 1.211A10.954 10.954 0 0 0 118.136 9h-4a6.958 6.958 0 0 1-1.588 4.437l3.09 2.54ZM118.136 9c0-6.077-4.932-11-11.011-11v4c3.874 0 7.011 3.136 7.011 7h4ZM107.125-2c-6.079 0-11.01 4.923-11.01 11h4c0-3.864 3.136-7 7.01-7v-4ZM96.115 9c0 2.68.961 5.14 2.556 7.047l3.069-2.565A6.956 6.956 0 0 1 100.115 9h-4ZM2 170.224C2 131.359 10.524 94.09 27.111 66c16.565-28.051 41.094-46.857 73.242-49.24l-.296-3.99c-33.753 2.503-59.327 22.302-76.39 51.196C6.627 92.821-2 130.84-2 170.224h4Zm105.375 94.778c-34.7 0-60.987-7.929-78.584-23.571C11.236 225.827 2 202.253 2 170.224h-4c0 32.805 9.484 57.62 28.133 74.196 18.606 16.539 46.008 24.582 81.242 24.582v-4ZM212 170.224c0 32.033-9.173 55.609-26.604 71.211-17.471 15.639-43.567 23.567-78.021 23.567v4c34.993 0 62.209-8.045 80.689-24.586C206.584 227.838 216 203.025 216 170.224h-4ZM113.97 16.703c34.334 2.118 58.758 20.868 74.683 48.908C204.621 93.725 212 131.145 212 170.224h4c0-39.501-7.446-77.673-23.869-106.589-16.464-28.99-41.993-48.708-77.915-50.925l-.246 3.993ZM107.125 13a4.002 4.002 0 0 0 4.003-4h-4v.002l.001-.003c0-.002 0-.001-.001 0l-.002.001h.002-.003v4Zm-4.002-4c0 2.211 1.794 4 4.002 4V9h-.003.002-.001l-.001-.001.001.003V9h-4Zm4.002-4a4.001 4.001 0 0 0-4.002 4h4v-.002l-.001.003c-.001.002-.001.001.001 0l.001-.002-.002.001h.003V5Zm4.003 4c0-2.211-1.795-4-4.003-4v4h.003-.002.002c.001.002.001.003.001.001l-.001-.003V9h4Z" fill="#19191C" fill-opacity=".7" mask="url(#path-1-inside-1_732_223)"/><rect x="38" y="74.002" width="138" height="138" rx="9" fill="#B3C497" stroke="#FFCE1F" stroke-width="6"/><circle cx="107" cy="237.752" r="8" fill="#FC801D"/><circle cx="107" cy="237.752" r="7" stroke="#19191C" stroke-opacity=".7" stroke-width="2"/><circle cx="77" cy="234.002" r="8" fill="#FC801D"/><circle cx="77" cy="234.002" r="7" stroke="#19191C" stroke-opacity=".7" stroke-width="2"/><circle cx="137" cy="234.002" r="8" fill="#FC801D"/><circle cx="137" cy="234.002" r="7" stroke="#19191C" stroke-opacity=".7" stroke-width="2"/><svg x="64" y="86" width="87" height="116" viewBox="0 0 87 116" xmlns="http://www.w3.org/2000/svg"><defs><symbol id="eye-open"><path d="M18 51h3v3h-3v-3Zm3 0h3v3h-3v-3Zm6 0h3v3h-3v-3Zm3 0h3v3h-3v-3Zm-3 3h3v3h-3v-3Zm-3 0h3v3h-3v-3Zm0-3h3v3h-3v-3Zm-3 3h3v3h-3v-3Z" fill="#3B3A3C"/><path d="M18 51h3v3h-3v-3Zm3 0h3v3h-3v-3Zm0-3h3v3h-3v-3Zm3 0h3v3h-3v-3Zm3 0h3v3h-3v-3Zm0 3h3v3h-3v-3Zm3 0h3v3h-3v-3Zm-3 3h3v3h-3v-3Zm-3 0h3v3h-3v-3Zm0-3h3v3h-3v-3Z" fill="#3B3A3C"/><path d="M24 51h3v3h-3v-3Z" fill="#B3C497"/><path d="M21 54h3v3h-3v-3Z" fill="#3B3A3C"/></symbol><symbol id="eye-close"><path d="M18 51h3v3h-3v-3Zm3 0h3v3h-3v-3Zm6 0h3v3h-3v-3Zm3 0h3v3h-3v-3Zm-3 3h3v3h-3v-3Zm-3 0h3v3h-3v-3Zm0-3h3v3h-3v-3Zm-3 3h3v3h-3v-3Z" fill="#3B3A3C"/><path d="M21 54h3v3h-3v-3Z" fill="#3B3A3C"/></symbol><style>@keyframes tonque{0%,30%{transform:translateY(0)}to{transform:translateY(4px)}}@keyframes
                eyes{0%,90%{opacity:1}to{opacity:0}}.eye-open{animation:eyes 3s steps(1,start) infinite}</style></defs><path d="M15 99h3v3h-3v-3Zm3 3h51v14H18v-14Zm-3-6h3v3h-3v-3Zm0-3h3v3h-3v-3Zm-3-3h3v3h-3v-3Zm-3-3h3v3H9v-3Zm0-3h3v3H9v-3Zm-3-3h3v3H6v-3Zm6 12h3v3h-3v-3Zm-6-9h3v3H6v-3Zm-3-3h3v3H3v-3Zm0-6h3v3H3v-3Zm0-6h3v3H3v-3Zm3-9h3v3H6v-3Zm0-6h3v3H6v-3Zm30-6h3v3h-3v-3Zm10 0h3v3h-3v-3Zm-10 3h3v3h-3v-3Zm10 0h3v3h-3v-3Zm0 3h3v3h-3v-3Zm3 3h3v3h-3v-3Zm-13-3h3v3h-3v-3Zm-3 3h3v3h-3v-3Zm-3 3h3v3h-3v-3Zm-3 3h3v3h-3v-3Zm25-3h3v3h-3v-3Zm3 3h3v3h-3v-3Zm3 3h3v3h-3v-3Zm-34 0h3v3h-3v-3Zm34 3h3v3h-3v-3Zm-34 0h3v3h-3v-3Zm34 3h3v3h-3v-3Zm3 0h3v3h-3v-3Zm-43-3h3v3h-3v-3Zm46 0h3v3h-3v-3Zm-43 3h3v3h-3v-3Zm3 0h3v3h-3v-3Zm34 3h3v3h-3v-3Zm-34 0h3v3h-3v-3Zm31 3h3v3h-3v-3Zm-14-6h3v3h-3v-3Zm0 3h3v3h-3v-3Z" fill="#3B3A3C"/><path d="M43 107h3v3h-3v-3Zm-3-3h3v9h-3v-9Zm6 6h3v3h-3v-3Zm0-6h3v3h-3v-3Z" fill="#B3C497"/><path d="M41 78h3v3h-3v-3Zm3-6h3v3h-3v-3Zm-6 0h3v3h-3v-3Zm-3-3h3v3h-3v-3Zm0-3h3v3h-3v-3Zm3 0h9v6h-9v-6Zm9 3h3v3h-3v-3Zm0-3h3v3h-3v-3Zm5 15h3v3h-3v-3Zm-25-3h3v3h-3v-3Zm3 3h3v3h-3v-3Zm3 0h19v3H33v-3ZM6 63h3v3H6v-3ZM3 78h3v3H3v-3Zm0-6h3v3H3v-3Zm0-6h3v3H3v-3Zm3-9h3v3H6v-3Zm0-6h3v3H6v-3Zm30-6h3v3h-3v-3Zm10 0h3v3h-3v-3ZM6 48h3v3H6v-3Zm30-6h3v3h-3v-3Zm10 0h3v3h-3v-3ZM9 45h3v3H9v-3Zm3-3h3v3h-3v-3Zm3-3h3v3h-3v-3Zm3-3h3v3h-3v-3Zm0-3h3v3h-3v-3Zm3 0h3v3h-3v-3Zm3-3h3v3h-3v-3Zm3-3h3v3h-3v-3Zm30 0h3v3h-3v-3Zm3 3h3v3h-3v-3Zm3 3h3v3h-3v-3Zm3 0h3v3h-3v-3Zm0 3h3v3h-3v-3Zm3 3h3v3h-3v-3Zm3 3h3v3h-3v-3Zm3 3h3v3h-3v-3Zm3 3h3v3h-3v-3Zm0 6h3v3h-3v-3Zm3 12h3v3h-3v-3Zm-3-15h3v3h-3v-3Zm0 6h3v3h-3v-3Zm3 12h3v3h-3v-3Zm-3-9h3v3h-3v-3Zm3 12h3v3h-3v-3Zm-3-9h3v3h-3v-3Zm3 12h3v3h-3v-3Zm-3 3h3v3h-3v-3Zm0 3h3v3h-3v-3Zm-3 3h3v3h-3v-3Zm0 3h3v3h-3v-3Zm-3 3h3v3h-3v-3Zm-3 3h3v3h-3v-3Zm0 3h3v3h-3v-3Zm0 3h3v3h-3v-3ZM30 24h3v3h-3v-3Zm-3-3h3v3h-3v-3Zm0 3h3v3h-3v-3Zm30-3h3v6h-3v-6Zm-33-6h3v3h-3v-3Zm0 3h3v12h-3V18Zm36-3h3v15h-3V15ZM21 9h3v3h-3V9Zm42 0h3v3h-3V9ZM18 3h3v3h-3V3Zm48 0h3v3h-3V3ZM3 3h3v3H3V3Zm78 0h3v3h-3V3ZM0 9h3v3H0V9Zm84 0h3v3h-3V9ZM0 15h3v3H0v-3Zm84 0h3v3h-3v-3ZM0 21h3v3H0v-3Zm84 0h3v3h-3v-3ZM0 27h3v3H0v-3Zm84 0h3v3h-3v-3ZM0 33h3v3H0v-3Zm84 0h3v3h-3v-3ZM3 39h3v3H3v-3Zm78 0h3v3h-3v-3ZM3 42h3v3H3v-3Zm78 0h3v3h-3v-3ZM3 45h3v3H3v-3Zm78 0h3v3h-3v-3ZM27 18h3v3h-3v-3Zm30 0h3v3h-3v-3Zm-33-6h3v3h-3v-3Zm36 0h3v3h-3v-3ZM21 6h3v3h-3V6Zm42 0h3v3h-3V6ZM0 6h3v3H0V6Zm84 0h3v3h-3V6ZM0 12h3v3H0v-3Zm84 0h3v3h-3v-3ZM0 18h3v3H0v-3Zm84 0h3v3h-3v-3ZM0 24h3v3H0v-3Zm84 0h3v3h-3v-3ZM0 30h3v3H0v-3Zm84 0h3v3h-3v-3ZM3 36h3v3H3v-3Zm78 0h3v3h-3v-3ZM15 0h3v3h-3V0Zm54 0h3v3h-3V0ZM12 0h3v3h-3V0Zm60 0h3v3h-3V0ZM9 0h3v3H9V0Zm66 0h3v3h-3V0ZM6 0h3v3H6V0Zm72 0h3v3h-3V0ZM36 24h3v3h-3v-3Zm6 0h3v3h-3v-3Zm6 0h3v3h-3v-3Zm-15 0h3v3h-3v-3Zm6 0h3v3h-3v-3Zm6 0h3v3h-3v-3Zm6 0h3v3h-3v-3Zm3 0h3v3h-3v-3Z" fill="#3B3A3C"/><path d="M35 84h3v3h-3v-3Zm0 3h3v3h-3v-3Zm0 3h3v3h-3v-3Zm15 0h3v3h-3v-3Zm-12 3h3v3h-3v-3Zm3 0h3v3h-3v-3Zm3 0h3v3h-3v-3Zm3 0h3v3h-3v-3Zm3-6h3v3h-3v-3Zm0-3h3v3h-3v-3Zm-7 0h3v3h-3v-3Zm0 3h3v3h-3v-3Zm-8-6h3v3h-3v-3Zm15 0h3v3h-3v-3Zm-7 0h3v3h-3v-3Z" fill="#3B3A3C" style="animation:tonque 1s steps(2,end) infinite"/><use href="#eye-close"/><use class="eye-open" href="#eye-open"/><g transform="translate(33)"><use href="#eye-close"/><use class="eye-open" href="#eye-open"/></g></svg></svg>