<svg width="42" height="36" viewBox="0 0 42 36" fill="none" xmlns="http://www.w3.org/2000/svg">
<rect x="16" y="32" width="4" height="2" fill="#19191C" fill-opacity="0.7"/>
<rect x="26" y="34" width="2" height="2" fill="#19191C" fill-opacity="0.7"/>
<rect x="8" y="34" width="4" height="2" fill="#19191C" fill-opacity="0.7"/>
<rect x="20" y="32" width="2" height="2" fill="#19191C" fill-opacity="0.7"/>
<rect x="28" y="34" width="2" height="2" fill="#19191C" fill-opacity="0.7"/>
<rect x="12" y="34" width="2" height="2" fill="#19191C" fill-opacity="0.7"/>
<rect x="22" y="32" width="2" height="2" fill="#19191C" fill-opacity="0.7"/>
<rect x="24" y="32" width="2" height="2" fill="#19191C" fill-opacity="0.7"/>
<rect x="30" y="34" width="4" height="2" fill="#19191C" fill-opacity="0.7"/>
<rect x="32" y="26" width="2" height="2" fill="#19191C" fill-opacity="0.7"/>
<rect x="34" y="30" width="2" height="2" fill="#19191C" fill-opacity="0.7"/>
<rect x="34" y="32" width="2" height="2" fill="#19191C" fill-opacity="0.7"/>
<rect x="6" y="30" width="2" height="2" fill="#19191C" fill-opacity="0.7"/>
<rect x="6" y="32" width="2" height="2" fill="#19191C" fill-opacity="0.7"/>
<rect x="28" y="20" width="2" height="2" fill="#19191C" fill-opacity="0.7"/>
<rect x="12" y="20" width="2" height="2" fill="#19191C" fill-opacity="0.7"/>
<rect x="8" y="26" width="2" height="2" fill="#19191C" fill-opacity="0.7"/>
<rect x="32" y="24" width="2" height="2" fill="#19191C" fill-opacity="0.7"/>
<rect x="34" y="28" width="2" height="2" fill="#19191C" fill-opacity="0.7"/>
<rect x="6" y="28" width="2" height="2" fill="#19191C" fill-opacity="0.7"/>
<rect x="28" y="18" width="2" height="2" fill="#19191C" fill-opacity="0.7"/>
<rect x="12" y="18" width="2" height="2" fill="#19191C" fill-opacity="0.7"/>
<rect x="14" y="16" width="2" height="2" fill="#19191C" fill-opacity="0.7"/>
<rect x="26" y="16" width="2" height="2" fill="#19191C" fill-opacity="0.7"/>
<rect x="8" y="6" width="2" height="2" fill="#19191C" fill-opacity="0.7"/>
<rect x="16" y="6" width="2" height="2" fill="#19191C" fill-opacity="0.7"/>
<rect x="10" y="8" width="2" height="2" fill="#19191C" fill-opacity="0.7"/>
<rect x="10" width="2" height="2" fill="#19191C" fill-opacity="0.7"/>
<path d="M12 8H14V10H12V8Z" fill="#19191C" fill-opacity="0.7"/>
<rect x="12" width="2" height="2" fill="#19191C" fill-opacity="0.7"/>
<rect x="8" y="4" width="2" height="2" fill="#19191C" fill-opacity="0.7"/>
<rect x="8" y="2" width="2" height="2" fill="#19191C" fill-opacity="0.7"/>
<rect x="16" y="2" width="2" height="2" fill="#19191C" fill-opacity="0.7"/>
<rect x="14" width="2" height="2" fill="#19191C" fill-opacity="0.7"/>
<rect x="14" y="8" width="2" height="2" fill="#19191C" fill-opacity="0.7"/>
<rect x="16" y="4" width="2" height="2" fill="#19191C" fill-opacity="0.7"/>
<rect x="24" y="6" width="2" height="2" fill="#19191C" fill-opacity="0.7"/>
<rect x="32" y="6" width="2" height="2" fill="#19191C" fill-opacity="0.7"/>
<rect x="26" y="8" width="2" height="2" fill="#19191C" fill-opacity="0.7"/>
<rect x="26" width="2" height="2" fill="#19191C" fill-opacity="0.7"/>
<path d="M28 8H30V10H28V8Z" fill="#19191C" fill-opacity="0.7"/>
<rect x="28" width="2" height="2" fill="#19191C" fill-opacity="0.7"/>
<rect x="24" y="4" width="2" height="2" fill="#19191C" fill-opacity="0.7"/>
<rect x="24" y="2" width="2" height="2" fill="#19191C" fill-opacity="0.7"/>
<rect x="32" y="2" width="2" height="2" fill="#19191C" fill-opacity="0.7"/>
<rect x="30" width="2" height="2" fill="#19191C" fill-opacity="0.7"/>
<rect x="30" y="8" width="2" height="2" fill="#19191C" fill-opacity="0.7"/>
<rect x="32" y="4" width="2" height="2" fill="#19191C" fill-opacity="0.7"/>
<rect y="16" width="2" height="2" fill="#19191C" fill-opacity="0.7"/>
<rect x="2" y="18" width="2" height="2" fill="#19191C" fill-opacity="0.7"/>
<rect x="2" y="12" width="2" height="2" fill="#19191C" fill-opacity="0.7"/>
<rect x="4" y="18" width="2" height="2" fill="#19191C" fill-opacity="0.7"/>
<rect x="4" y="12" width="2" height="2" fill="#19191C" fill-opacity="0.7"/>
<rect x="6" y="16" width="2" height="2" fill="#19191C" fill-opacity="0.7"/>
<rect y="14" width="2" height="2" fill="#19191C" fill-opacity="0.7"/>
<rect x="6" y="14" width="2" height="2" fill="#19191C" fill-opacity="0.7"/>
<rect x="34" y="16" width="2" height="2" fill="#19191C" fill-opacity="0.7"/>
<rect x="36" y="18" width="2" height="2" fill="#19191C" fill-opacity="0.7"/>
<rect x="36" y="12" width="2" height="2" fill="#19191C" fill-opacity="0.7"/>
<rect x="38" y="18" width="2" height="2" fill="#19191C" fill-opacity="0.7"/>
<rect x="38" y="12" width="2" height="2" fill="#19191C" fill-opacity="0.7"/>
<rect x="40" y="16" width="2" height="2" fill="#19191C" fill-opacity="0.7"/>
<rect x="34" y="14" width="2" height="2" fill="#19191C" fill-opacity="0.7"/>
<rect x="40" y="14" width="2" height="2" fill="#19191C" fill-opacity="0.7"/>
<rect x="16" y="14" width="10" height="2" fill="#19191C" fill-opacity="0.7"/>
<rect x="8" y="24" width="2" height="2" fill="#19191C" fill-opacity="0.7"/>
<rect x="30" y="22" width="2" height="2" fill="#19191C" fill-opacity="0.7"/>
<rect x="10" y="22" width="2" height="2" fill="#19191C" fill-opacity="0.7"/>
<rect x="14" y="34" width="2" height="2" fill="#19191C" fill-opacity="0.7"/>
</svg>
