<svg width="91" height="40" viewBox="0 0 91 40" fill="none" xmlns="http://www.w3.org/2000/svg">
<g filter="url(#filter0_b_525_21267)">
<path d="M28.9313 26.192C28.1633 26.192 27.4833 26.0507 26.8913 25.768C26.3046 25.4853 25.846 25.0907 25.5153 24.584C25.19 24.0773 25.0273 23.496 25.0273 22.84H26.3873C26.3873 23.2613 26.494 23.6347 26.7073 23.96C26.9206 24.2853 27.222 24.5387 27.6113 24.72C28.0006 24.9013 28.446 24.992 28.9473 24.992C29.4433 24.992 29.878 24.9093 30.2513 24.744C30.63 24.5733 30.9206 24.336 31.1233 24.032C31.3313 23.7227 31.4353 23.368 31.4353 22.968C31.4353 22.4613 31.2833 22.0267 30.9793 21.664C30.6806 21.3013 30.2806 21.0773 29.7793 20.992L27.9713 20.68C27.4273 20.584 26.9553 20.3947 26.5553 20.112C26.1553 19.8293 25.8486 19.4773 25.6353 19.056C25.422 18.6347 25.3153 18.176 25.3153 17.68C25.3153 17.0987 25.4673 16.576 25.7713 16.112C26.0806 15.6427 26.5073 15.2747 27.0513 15.008C27.6006 14.7413 28.2166 14.608 28.8993 14.608C29.6033 14.608 30.23 14.7413 30.7793 15.008C31.3286 15.2693 31.7553 15.6347 32.0593 16.104C32.3633 16.5733 32.5153 17.1093 32.5153 17.712H31.1553C31.1553 17.344 31.062 17.016 30.8753 16.728C30.6886 16.4347 30.4246 16.208 30.0833 16.048C29.7473 15.888 29.358 15.808 28.9153 15.808C28.4726 15.808 28.0806 15.8853 27.7393 16.04C27.398 16.1947 27.1313 16.4133 26.9393 16.696C26.7526 16.9787 26.6593 17.3067 26.6593 17.68C26.6593 18.1227 26.8006 18.504 27.0833 18.824C27.3713 19.144 27.7473 19.344 28.2113 19.424L30.0513 19.744C30.5846 19.84 31.0593 20.0453 31.4753 20.36C31.8913 20.6747 32.214 21.0613 32.4433 21.52C32.6726 21.9733 32.7873 22.4507 32.7873 22.952C32.7873 23.5547 32.6246 24.104 32.2993 24.6C31.974 25.0907 31.518 25.48 30.9313 25.768C30.3446 26.0507 29.678 26.192 28.9313 26.192ZM35.1807 14.8H36.4607V26H35.1807V14.8ZM42.6108 26.192C41.8428 26.192 41.1521 26.008 40.5388 25.64C39.9255 25.272 39.4455 24.7627 39.0988 24.112C38.7575 23.456 38.5868 22.7147 38.5868 21.888C38.5868 21.0827 38.7601 20.3547 39.1068 19.704C39.4588 19.0533 39.9415 18.544 40.5548 18.176C41.1681 17.8027 41.8535 17.616 42.6108 17.616C43.3841 17.616 44.0615 17.8 44.6428 18.168C45.2295 18.536 45.6801 19.0453 45.9948 19.696C46.3148 20.3467 46.4748 21.0827 46.4748 21.904V22.216H39.8908C39.9441 22.776 40.0961 23.272 40.3468 23.704C40.5975 24.136 40.9255 24.472 41.3308 24.712C41.7361 24.952 42.1895 25.072 42.6908 25.072C43.2295 25.072 43.7041 24.9733 44.1148 24.776C44.5255 24.5787 44.8241 24.3093 45.0108 23.968H46.2908C46.1948 24.3093 45.9921 24.6507 45.6828 24.992C45.3788 25.3333 44.9628 25.6187 44.4348 25.848C43.9121 26.0773 43.3041 26.192 42.6108 26.192ZM45.1468 21.16C45.0401 20.4133 44.7681 19.824 44.3308 19.392C43.8988 18.96 43.3308 18.744 42.6268 18.744C42.1521 18.744 41.7255 18.8427 41.3468 19.04C40.9681 19.232 40.6561 19.512 40.4108 19.88C40.1655 20.2427 40.0028 20.6693 39.9228 21.16H45.1468ZM51.9317 26.192C51.1637 26.192 50.473 26.008 49.8597 25.64C49.2464 25.272 48.7664 24.7627 48.4197 24.112C48.0784 23.456 47.9077 22.7147 47.9077 21.888C47.9077 21.0827 48.081 20.3547 48.4277 19.704C48.7797 19.0533 49.2624 18.544 49.8757 18.176C50.489 17.8027 51.1744 17.616 51.9317 17.616C52.705 17.616 53.3824 17.8 53.9637 18.168C54.5504 18.536 55.001 19.0453 55.3157 19.696C55.6357 20.3467 55.7957 21.0827 55.7957 21.904V22.216H49.2117C49.265 22.776 49.417 23.272 49.6677 23.704C49.9184 24.136 50.2464 24.472 50.6517 24.712C51.057 24.952 51.5104 25.072 52.0117 25.072C52.5504 25.072 53.025 24.9733 53.4357 24.776C53.8464 24.5787 54.145 24.3093 54.3317 23.968H55.6117C55.5157 24.3093 55.313 24.6507 55.0037 24.992C54.6997 25.3333 54.2837 25.6187 53.7557 25.848C53.233 26.0773 52.625 26.192 51.9317 26.192ZM54.4677 21.16C54.361 20.4133 54.089 19.824 53.6517 19.392C53.2197 18.96 52.6517 18.744 51.9477 18.744C51.473 18.744 51.0464 18.8427 50.6677 19.04C50.289 19.232 49.977 19.512 49.7317 19.88C49.4864 20.2427 49.3237 20.6693 49.2437 21.16H54.4677ZM59.1726 17.808V19.256C59.4819 18.7387 59.8979 18.336 60.4206 18.048C60.9432 17.76 61.5432 17.616 62.2206 17.616C62.9832 17.616 63.6606 17.7973 64.2526 18.16C64.8499 18.5173 65.3139 19.0213 65.6446 19.672C65.9806 20.3227 66.1486 21.0667 66.1486 21.904C66.1486 22.7413 65.9806 23.4853 65.6446 24.136C65.3139 24.7867 64.8499 25.2933 64.2526 25.656C63.6606 26.0133 62.9832 26.192 62.2206 26.192C61.5539 26.192 60.9619 26.0533 60.4446 25.776C59.9272 25.4987 59.5139 25.1093 59.2046 24.608V28.576H57.9246V17.808H59.1726ZM59.2046 21.904C59.2046 22.5173 59.3219 23.0613 59.5566 23.536C59.7966 24.0053 60.1299 24.3733 60.5566 24.64C60.9832 24.9013 61.4712 25.032 62.0206 25.032C62.5646 25.032 63.0472 24.9013 63.4686 24.64C63.8899 24.3733 64.2179 24.0053 64.4526 23.536C64.6872 23.0613 64.8046 22.5173 64.8046 21.904C64.8046 21.2907 64.6872 20.7493 64.4526 20.28C64.2179 19.8053 63.8899 19.4373 63.4686 19.176C63.0472 18.9093 62.5646 18.776 62.0206 18.776C61.4712 18.776 60.9832 18.9093 60.5566 19.176C60.1299 19.4373 59.7966 19.8053 59.5566 20.28C59.3219 20.7493 59.2046 21.2907 59.2046 21.904Z" fill="#19191C"/>
<rect x="0.5" y="0.5" width="90" height="39" rx="19.5" stroke="#19191C" stroke-opacity="0.3"/>
</g>
<defs>
<filter id="filter0_b_525_21267" x="-8" y="-8" width="107" height="56" filterUnits="userSpaceOnUse" color-interpolation-filters="sRGB">
<feFlood flood-opacity="0" result="BackgroundImageFix"/>
<feGaussianBlur in="BackgroundImageFix" stdDeviation="4"/>
<feComposite in2="SourceAlpha" operator="in" result="effect1_backgroundBlur_525_21267"/>
<feBlend mode="normal" in="SourceGraphic" in2="effect1_backgroundBlur_525_21267" result="shape"/>
</filter>
</defs>
</svg>
