<svg width="58" height="77" viewBox="0 0 58 77" fill="none" xmlns="http://www.w3.org/2000/svg">
<rect x="10" y="66" width="2" height="2" fill="#19191C" fill-opacity="0.7"/>
<rect x="12" y="68" width="34" height="9" fill="#19191C" fill-opacity="0.7"/>
<rect x="10" y="64" width="2" height="2" fill="#19191C" fill-opacity="0.7"/>
<rect x="10" y="62" width="2" height="2" fill="#19191C" fill-opacity="0.7"/>
<rect x="8" y="60" width="2" height="2" fill="#19191C" fill-opacity="0.7"/>
<rect x="6" y="58" width="2" height="2" fill="#19191C" fill-opacity="0.7"/>
<rect x="6" y="56" width="2" height="2" fill="#19191C" fill-opacity="0.7"/>
<rect x="4" y="54" width="2" height="2" fill="#19191C" fill-opacity="0.7"/>
<rect x="8" y="62" width="2" height="2" fill="#19191C" fill-opacity="0.7"/>
<rect x="4" y="56" width="2" height="2" fill="#19191C" fill-opacity="0.7"/>
<rect x="2" y="54" width="2" height="2" fill="#19191C" fill-opacity="0.7"/>
<rect x="2" y="50" width="2" height="2" fill="#19191C" fill-opacity="0.7"/>
<rect x="2" y="46" width="2" height="2" fill="#19191C" fill-opacity="0.7"/>
<rect x="4" y="40" width="2" height="2" fill="#19191C" fill-opacity="0.7"/>
<rect x="4" y="36" width="2" height="2" fill="#19191C" fill-opacity="0.7"/>
<rect x="24" y="32" width="2" height="2" fill="#19191C" fill-opacity="0.7"/>
<rect x="31" y="32" width="2" height="2" fill="#19191C" fill-opacity="0.7"/>
<rect x="24" y="34" width="2" height="2" fill="#19191C" fill-opacity="0.7"/>
<rect x="31" y="34" width="2" height="2" fill="#19191C" fill-opacity="0.7"/>
<rect x="31" y="36" width="2" height="2" fill="#19191C" fill-opacity="0.7"/>
<rect x="33" y="38" width="2" height="2" fill="#19191C" fill-opacity="0.7"/>
<rect x="35" y="34" width="2" height="2" fill="#19191C" fill-opacity="0.7"/>
<rect width="2" height="2" transform="matrix(-1 0 0 1 22 34)" fill="#19191C" fill-opacity="0.7"/>
<rect x="37" y="34" width="2" height="2" fill="#19191C" fill-opacity="0.7"/>
<rect width="2" height="2" transform="matrix(-1 0 0 1 20 34)" fill="#19191C" fill-opacity="0.7"/>
<rect x="41" y="34" width="2" height="2" fill="#19191C" fill-opacity="0.7"/>
<rect x="43" y="34" width="2" height="2" fill="#19191C" fill-opacity="0.7"/>
<rect width="2" height="2" transform="matrix(-1 0 0 1 16 34)" fill="#19191C" fill-opacity="0.7"/>
<rect width="2" height="2" transform="matrix(-1 0 0 1 14 34)" fill="#19191C" fill-opacity="0.7"/>
<rect x="41" y="36" width="2" height="2" fill="#19191C" fill-opacity="0.7"/>
<rect width="2" height="2" transform="matrix(-1 0 0 1 16 36)" fill="#19191C" fill-opacity="0.7"/>
<rect x="39" y="36" width="2" height="2" fill="#19191C" fill-opacity="0.7"/>
<rect width="2" height="2" transform="matrix(-1 0 0 1 18 36)" fill="#19191C" fill-opacity="0.7"/>
<rect x="37" y="36" width="2" height="2" fill="#19191C" fill-opacity="0.7"/>
<rect width="2" height="2" transform="matrix(-1 0 0 1 20 36)" fill="#19191C" fill-opacity="0.7"/>
<rect x="24" y="36" width="2" height="2" fill="#19191C" fill-opacity="0.7"/>
<rect x="22" y="38" width="2" height="2" fill="#19191C" fill-opacity="0.7"/>
<rect x="20" y="40" width="2" height="2" fill="#19191C" fill-opacity="0.7"/>
<rect x="18" y="42" width="2" height="2" fill="#19191C" fill-opacity="0.7"/>
<rect x="35" y="40" width="2" height="2" fill="#19191C" fill-opacity="0.7"/>
<rect x="37" y="42" width="2" height="2" fill="#19191C" fill-opacity="0.7"/>
<rect x="39" y="44" width="2" height="2" fill="#19191C" fill-opacity="0.7"/>
<rect x="16" y="44" width="2" height="2" fill="#19191C" fill-opacity="0.7"/>
<rect x="39" y="46" width="2" height="2" fill="#19191C" fill-opacity="0.7"/>
<rect x="16" y="46" width="2" height="2" fill="#19191C" fill-opacity="0.7"/>
<rect x="39" y="48" width="2" height="2" fill="#19191C" fill-opacity="0.7"/>
<rect x="16" y="48" width="2" height="2" fill="#19191C" fill-opacity="0.7"/>
<rect x="39" y="50" width="2" height="2" fill="#19191C" fill-opacity="0.7"/>
<rect x="16" y="50" width="2" height="2" fill="#19191C" fill-opacity="0.7"/>
<rect x="37" y="52" width="2" height="2" fill="#19191C" fill-opacity="0.7"/>
<rect x="27" y="48" width="2" height="2" fill="#19191C" fill-opacity="0.7"/>
<rect x="27" y="50" width="2" height="2" fill="#19191C" fill-opacity="0.7"/>
<rect x="30.6665" y="71.3333" width="2" height="2" transform="rotate(90 30.6665 71.3333)" fill="#B3C497"/>
<rect x="28.6665" y="69.3333" width="6" height="2" transform="rotate(90 28.6665 69.3333)" fill="#B3C497"/>
<rect x="32.6665" y="73.3333" width="2" height="2" transform="rotate(90 32.6665 73.3333)" fill="#B3C497"/>
<rect x="32.6665" y="69.3333" width="2" height="2" transform="rotate(90 32.6665 69.3333)" fill="#B3C497"/>
<rect x="27" y="52" width="2" height="2" fill="#19191C" fill-opacity="0.7"/>
<rect x="29" y="48" width="2" height="2" fill="#19191C" fill-opacity="0.7"/>
<rect x="25" y="48" width="2" height="2" fill="#19191C" fill-opacity="0.7"/>
<rect x="23" y="46" width="2" height="2" fill="#19191C" fill-opacity="0.7"/>
<rect x="23" y="44" width="2" height="2" fill="#19191C" fill-opacity="0.7"/>
<rect x="25" y="44" width="6" height="4" fill="#19191C" fill-opacity="0.7"/>
<rect x="31" y="46" width="2" height="2" fill="#19191C" fill-opacity="0.7"/>
<rect x="31" y="44" width="2" height="2" fill="#19191C" fill-opacity="0.7"/>
<rect x="18" y="52" width="2" height="2" fill="#19191C" fill-opacity="0.7"/>
<rect x="20" y="54" width="2" height="2" fill="#19191C" fill-opacity="0.7"/>
<rect x="22" y="54" width="15" height="2" fill="#19191C" fill-opacity="0.7"/>
<rect x="4" y="42" width="2" height="2" fill="#19191C" fill-opacity="0.7"/>
<rect x="2" y="52" width="2" height="2" fill="#19191C" fill-opacity="0.7"/>
<rect x="2" y="48" width="2" height="2" fill="#19191C" fill-opacity="0.7"/>
<rect x="2" y="44" width="2" height="2" fill="#19191C" fill-opacity="0.7"/>
<rect x="4" y="38" width="2" height="2" fill="#19191C" fill-opacity="0.7"/>
<rect x="4" y="34" width="2" height="2" fill="#19191C" fill-opacity="0.7"/>
<rect x="24" y="30" width="2" height="2" fill="#19191C" fill-opacity="0.7"/>
<rect x="31" y="30" width="2" height="2" fill="#19191C" fill-opacity="0.7"/>
<rect x="4" y="32" width="2" height="2" fill="#19191C" fill-opacity="0.7"/>
<rect x="24" y="28" width="2" height="2" fill="#19191C" fill-opacity="0.7"/>
<rect x="31" y="28" width="2" height="2" fill="#19191C" fill-opacity="0.7"/>
<rect x="6" y="30" width="2" height="2" fill="#19191C" fill-opacity="0.7"/>
<rect x="8" y="28" width="2" height="2" fill="#19191C" fill-opacity="0.7"/>
<rect x="10" y="26" width="2" height="2" fill="#19191C" fill-opacity="0.7"/>
<rect x="12" y="24" width="2" height="2" fill="#19191C" fill-opacity="0.7"/>
<rect x="12" y="22" width="2" height="2" fill="#19191C" fill-opacity="0.7"/>
<rect x="14" y="22" width="2" height="2" fill="#19191C" fill-opacity="0.7"/>
<rect x="16" y="20" width="2" height="2" fill="#19191C" fill-opacity="0.7"/>
<rect x="18" y="18" width="2" height="2" fill="#19191C" fill-opacity="0.7"/>
<rect x="38" y="18" width="2" height="2" fill="#19191C" fill-opacity="0.7"/>
<rect x="40" y="20" width="2" height="2" fill="#19191C" fill-opacity="0.7"/>
<rect x="42" y="22" width="2" height="2" fill="#19191C" fill-opacity="0.7"/>
<rect x="44" y="22" width="2" height="2" fill="#19191C" fill-opacity="0.7"/>
<rect x="44" y="24" width="2" height="2" fill="#19191C" fill-opacity="0.7"/>
<rect x="46" y="26" width="2" height="2" fill="#19191C" fill-opacity="0.7"/>
<rect x="48" y="28" width="2" height="2" fill="#19191C" fill-opacity="0.7"/>
<rect x="50" y="30" width="2" height="2" fill="#19191C" fill-opacity="0.7"/>
<rect x="52" y="32" width="2" height="2" fill="#19191C" fill-opacity="0.7"/>
<rect x="52" y="36" width="2" height="2" fill="#19191C" fill-opacity="0.7"/>
<rect x="54" y="44" width="2" height="2" fill="#19191C" fill-opacity="0.7"/>
<rect x="52" y="34" width="2" height="2" fill="#19191C" fill-opacity="0.7"/>
<rect x="52" y="38" width="2" height="2" fill="#19191C" fill-opacity="0.7"/>
<rect x="54" y="46" width="2" height="2" fill="#19191C" fill-opacity="0.7"/>
<rect x="52" y="40" width="2" height="2" fill="#19191C" fill-opacity="0.7"/>
<rect x="54" y="48" width="2" height="2" fill="#19191C" fill-opacity="0.7"/>
<rect x="52" y="42" width="2" height="2" fill="#19191C" fill-opacity="0.7"/>
<rect x="54" y="50" width="2" height="2" fill="#19191C" fill-opacity="0.7"/>
<rect x="52" y="52" width="2" height="2" fill="#19191C" fill-opacity="0.7"/>
<rect x="52" y="54" width="2" height="2" fill="#19191C" fill-opacity="0.7"/>
<rect x="50" y="56" width="2" height="2" fill="#19191C" fill-opacity="0.7"/>
<rect x="50" y="58" width="2" height="2" fill="#19191C" fill-opacity="0.7"/>
<rect x="48" y="60" width="2" height="2" fill="#19191C" fill-opacity="0.7"/>
<rect x="46" y="62" width="2" height="2" fill="#19191C" fill-opacity="0.7"/>
<rect x="46" y="64" width="2" height="2" fill="#19191C" fill-opacity="0.7"/>
<rect x="46" y="66" width="2" height="2" fill="#19191C" fill-opacity="0.7"/>
<rect x="20" y="16" width="2" height="2" fill="#19191C" fill-opacity="0.7"/>
<rect x="18" y="14" width="2" height="2" fill="#19191C" fill-opacity="0.7"/>
<rect x="18" y="16" width="2" height="2" fill="#19191C" fill-opacity="0.7"/>
<rect width="2" height="4" transform="matrix(-1 0 0 1 40 14)" fill="#19191C" fill-opacity="0.7"/>
<rect x="16" y="10" width="2" height="2" fill="#19191C" fill-opacity="0.7"/>
<rect x="16" y="12" width="2" height="8" fill="#19191C" fill-opacity="0.7"/>
<rect width="2" height="10" transform="matrix(-1 0 0 1 42 10)" fill="#19191C" fill-opacity="0.7"/>
<rect x="14" y="6" width="2" height="2" fill="#19191C" fill-opacity="0.7"/>
<rect width="2" height="2" transform="matrix(-1 0 0 1 44 6)" fill="#19191C" fill-opacity="0.7"/>
<rect x="12" y="2" width="2" height="2" fill="#19191C" fill-opacity="0.7"/>
<rect width="2" height="2" transform="matrix(-1 0 0 1 46 2)" fill="#19191C" fill-opacity="0.7"/>
<rect x="2" y="2" width="2" height="2" fill="#19191C" fill-opacity="0.7"/>
<rect width="2" height="2" transform="matrix(-1 0 0 1 56 2)" fill="#19191C" fill-opacity="0.7"/>
<rect y="6" width="2" height="2" fill="#19191C" fill-opacity="0.7"/>
<rect width="2" height="2" transform="matrix(-1 0 0 1 58 6)" fill="#19191C" fill-opacity="0.7"/>
<rect y="10" width="2" height="2" fill="#19191C" fill-opacity="0.7"/>
<rect width="2" height="2" transform="matrix(-1 0 0 1 58 10)" fill="#19191C" fill-opacity="0.7"/>
<rect y="14" width="2" height="2" fill="#19191C" fill-opacity="0.7"/>
<rect width="2" height="2" transform="matrix(-1 0 0 1 58 14)" fill="#19191C" fill-opacity="0.7"/>
<rect y="18" width="2" height="2" fill="#19191C" fill-opacity="0.7"/>
<rect width="2" height="2" transform="matrix(-1 0 0 1 58 18)" fill="#19191C" fill-opacity="0.7"/>
<rect y="22" width="2" height="2" fill="#19191C" fill-opacity="0.7"/>
<rect width="2" height="2" transform="matrix(-1 0 0 1 58 22)" fill="#19191C" fill-opacity="0.7"/>
<rect x="2" y="26" width="2" height="2" fill="#19191C" fill-opacity="0.7"/>
<rect width="2" height="2" transform="matrix(-1 0 0 1 56 26)" fill="#19191C" fill-opacity="0.7"/>
<rect x="2" y="28" width="2" height="2" fill="#19191C" fill-opacity="0.7"/>
<rect width="2" height="2" transform="matrix(-1 0 0 1 56 28)" fill="#19191C" fill-opacity="0.7"/>
<rect x="2" y="30" width="2" height="2" fill="#19191C" fill-opacity="0.7"/>
<rect width="2" height="2" transform="matrix(-1 0 0 1 56 30)" fill="#19191C" fill-opacity="0.7"/>
<rect x="18" y="12" width="2" height="2" fill="#19191C" fill-opacity="0.7"/>
<rect width="2" height="2" transform="matrix(-1 0 0 1 40 12)" fill="#19191C" fill-opacity="0.7"/>
<rect x="16" y="8" width="2" height="2" fill="#19191C" fill-opacity="0.7"/>
<rect width="2" height="2" transform="matrix(-1 0 0 1 42 8)" fill="#19191C" fill-opacity="0.7"/>
<rect x="14" y="4" width="2" height="2" fill="#19191C" fill-opacity="0.7"/>
<rect width="2" height="2" transform="matrix(-1 0 0 1 44 4)" fill="#19191C" fill-opacity="0.7"/>
<rect y="4" width="2" height="2" fill="#19191C" fill-opacity="0.7"/>
<rect width="2" height="2" transform="matrix(-1 0 0 1 58 4)" fill="#19191C" fill-opacity="0.7"/>
<rect y="8" width="2" height="2" fill="#19191C" fill-opacity="0.7"/>
<rect width="2" height="2" transform="matrix(-1 0 0 1 58 8)" fill="#19191C" fill-opacity="0.7"/>
<rect y="12" width="2" height="2" fill="#19191C" fill-opacity="0.7"/>
<rect width="2" height="2" transform="matrix(-1 0 0 1 58 12)" fill="#19191C" fill-opacity="0.7"/>
<rect y="16" width="2" height="2" fill="#19191C" fill-opacity="0.7"/>
<rect width="2" height="2" transform="matrix(-1 0 0 1 58 16)" fill="#19191C" fill-opacity="0.7"/>
<rect y="20" width="2" height="2" fill="#19191C" fill-opacity="0.7"/>
<rect width="2" height="2" transform="matrix(-1 0 0 1 58 20)" fill="#19191C" fill-opacity="0.7"/>
<rect x="2" y="24" width="2" height="2" fill="#19191C" fill-opacity="0.7"/>
<rect width="2" height="2" transform="matrix(-1 0 0 1 56 24)" fill="#19191C" fill-opacity="0.7"/>
<rect x="10" width="2" height="2" fill="#19191C" fill-opacity="0.7"/>
<rect width="2" height="2" transform="matrix(-1 0 0 1 48 0)" fill="#19191C" fill-opacity="0.7"/>
<rect x="8" width="2" height="2" fill="#19191C" fill-opacity="0.7"/>
<rect width="2" height="2" transform="matrix(-1 0 0 1 50 0)" fill="#19191C" fill-opacity="0.7"/>
<rect x="6" width="2" height="2" fill="#19191C" fill-opacity="0.7"/>
<rect width="2" height="2" transform="matrix(-1 0 0 1 52 0)" fill="#19191C" fill-opacity="0.7"/>
<rect x="4" width="2" height="2" fill="#19191C" fill-opacity="0.7"/>
<rect width="2" height="2" transform="matrix(-1 0 0 1 54 0)" fill="#19191C" fill-opacity="0.7"/>
<rect x="24" y="16" width="2" height="2" fill="#19191C" fill-opacity="0.7"/>
<rect x="28" y="16" width="2" height="2" fill="#19191C" fill-opacity="0.7"/>
<rect x="32" y="16" width="2" height="2" fill="#19191C" fill-opacity="0.7"/>
<rect x="22" y="16" width="2" height="2" fill="#19191C" fill-opacity="0.7"/>
<rect x="26" y="16" width="2" height="2" fill="#19191C" fill-opacity="0.7"/>
<rect x="30" y="16" width="2" height="2" fill="#19191C" fill-opacity="0.7"/>
<rect x="34" y="16" width="2" height="2" fill="#19191C" fill-opacity="0.7"/>
<rect x="36" y="16" width="2" height="2" fill="#19191C" fill-opacity="0.7"/>
</svg>
