<svg width="48" height="48" viewBox="0 0 48 48" fill="none" xmlns="http://www.w3.org/2000/svg">
<circle cx="24" cy="24" r="24" fill="#B3C497"/>
<rect x="21.6667" y="4.00006" width="1" height="1" fill="#19191C" fill-opacity="0.7"/>
<rect x="21.6667" y="5.00006" width="1" height="29.3333" fill="#19191C" fill-opacity="0.7"/>
<rect x="22.6667" y="3.00006" width="1" height="1" fill="#19191C" fill-opacity="0.7"/>
<rect x="32" y="36.3334" width="1" height="1" fill="#19191C" fill-opacity="0.7"/>
<rect x="15" y="38.3334" width="1" height="2" fill="#19191C" fill-opacity="0.7"/>
<rect x="17" y="38.3334" width="1" height="2" fill="#19191C" fill-opacity="0.7"/>
<rect x="19" y="38.3334" width="1" height="2" fill="#19191C" fill-opacity="0.7"/>
<rect x="21" y="38.3334" width="1" height="2" fill="#19191C" fill-opacity="0.7"/>
<rect x="23" y="38.3334" width="1" height="2" fill="#19191C" fill-opacity="0.7"/>
<rect x="25" y="38.3334" width="1" height="2" fill="#19191C" fill-opacity="0.7"/>
<rect x="27" y="38.3334" width="1" height="2" fill="#19191C" fill-opacity="0.7"/>
<rect x="29" y="38.3334" width="1" height="2" fill="#19191C" fill-opacity="0.7"/>
<rect x="31" y="38.3334" width="1" height="2" fill="#19191C" fill-opacity="0.7"/>
<rect x="33" y="39.3334" width="1" height="1" fill="#19191C" fill-opacity="0.7"/>
<rect x="14" y="36.3334" width="1" height="1" fill="#19191C" fill-opacity="0.7"/>
<rect x="15" y="35.3334" width="1" height="1" fill="#19191C" fill-opacity="0.7"/>
<rect x="31" y="35.3334" width="1" height="1" fill="#19191C" fill-opacity="0.7"/>
<rect x="13" y="39.3334" width="1" height="1" fill="#19191C" fill-opacity="0.7"/>
<rect x="14" y="40.3334" width="19" height="1" fill="#19191C" fill-opacity="0.7"/>
<rect x="33" y="37.3334" width="1" height="1" fill="#19191C" fill-opacity="0.7"/>
<rect x="13" y="37.3334" width="1" height="1" fill="#19191C" fill-opacity="0.7"/>
<rect x="33" y="38.3334" width="1" height="1" fill="#19191C" fill-opacity="0.7"/>
<rect x="13" y="38.3334" width="1" height="1" fill="#19191C" fill-opacity="0.7"/>
<rect x="23.6667" y="3.00006" width="1" height="1" fill="#19191C" fill-opacity="0.7"/>
<rect x="16" y="34.3334" width="15" height="1" fill="#19191C" fill-opacity="0.7"/>
<rect x="16" y="35.3334" width="15" height="1" fill="#19191C" fill-opacity="0.7"/>
<rect x="24.6667" y="4.00006" width="1" height="1" fill="#19191C" fill-opacity="0.7"/>
<rect x="24.6667" y="5.00006" width="1" height="29.3333" fill="#19191C" fill-opacity="0.7"/>
</svg>
