<svg width="48" height="48" viewBox="0 0 48 48" fill="none" xmlns="http://www.w3.org/2000/svg">
<circle cx="24" cy="24" r="24" fill="#B3C497"/>
<rect x="15" y="38.0001" width="1" height="1" fill="#19191C" fill-opacity="0.7"/>
<rect x="16" y="39.0001" width="17" height="4.66667" fill="#19191C" fill-opacity="0.7"/>
<rect x="15" y="37.0001" width="1" height="1" fill="#19191C" fill-opacity="0.7"/>
<rect x="15" y="36.0001" width="1" height="1" fill="#19191C" fill-opacity="0.7"/>
<rect x="14" y="35.0001" width="1" height="1" fill="#19191C" fill-opacity="0.7"/>
<rect x="13" y="34.0001" width="1" height="1" fill="#19191C" fill-opacity="0.7"/>
<rect x="13" y="33.0001" width="1" height="1" fill="#19191C" fill-opacity="0.7"/>
<rect x="12" y="32.0001" width="1" height="1" fill="#19191C" fill-opacity="0.7"/>
<rect x="14" y="36.0001" width="1" height="1" fill="#19191C" fill-opacity="0.7"/>
<rect x="12" y="33.0001" width="1" height="1" fill="#19191C" fill-opacity="0.7"/>
<rect x="11" y="32.0001" width="1" height="1" fill="#19191C" fill-opacity="0.7"/>
<rect x="11" y="30.0001" width="1" height="1" fill="#19191C" fill-opacity="0.7"/>
<rect x="11" y="28.0001" width="1" height="1" fill="#19191C" fill-opacity="0.7"/>
<rect x="12" y="25.0001" width="1" height="1" fill="#19191C" fill-opacity="0.7"/>
<rect x="12" y="23.0001" width="1" height="1" fill="#19191C" fill-opacity="0.7"/>
<rect x="22" y="21.0001" width="1" height="1" fill="#19191C" fill-opacity="0.7"/>
<rect x="25.3333" y="21.0001" width="1" height="1" fill="#19191C" fill-opacity="0.7"/>
<rect x="22" y="22.0001" width="1" height="1" fill="#19191C" fill-opacity="0.7"/>
<rect x="25.3333" y="22.0001" width="1" height="1" fill="#19191C" fill-opacity="0.7"/>
<rect x="25.3333" y="23.0001" width="1" height="1" fill="#19191C" fill-opacity="0.7"/>
<rect x="26.3333" y="24.0001" width="1" height="1" fill="#19191C" fill-opacity="0.7"/>
<rect x="27.4165" y="22.084" width="1" height="1" fill="#19191C" fill-opacity="0.7"/>
<rect width="1" height="1" transform="matrix(-1 0 0 1 20.9165 22.084)" fill="#19191C" fill-opacity="0.7"/>
<rect x="28.4165" y="22.084" width="1" height="1" fill="#19191C" fill-opacity="0.7"/>
<rect width="1" height="1" transform="matrix(-1 0 0 1 19.9165 22.084)" fill="#19191C" fill-opacity="0.7"/>
<rect x="30.4165" y="22.084" width="1" height="1" fill="#19191C" fill-opacity="0.7"/>
<rect x="31.4165" y="22.084" width="1" height="1" fill="#19191C" fill-opacity="0.7"/>
<rect width="1" height="1" transform="matrix(-1 0 0 1 17.9165 22.084)" fill="#19191C" fill-opacity="0.7"/>
<rect width="1" height="1" transform="matrix(-1 0 0 1 16.9165 22.084)" fill="#19191C" fill-opacity="0.7"/>
<rect x="30.4165" y="23.084" width="1" height="1" fill="#19191C" fill-opacity="0.7"/>
<rect width="1" height="1" transform="matrix(-1 0 0 1 17.9165 23.084)" fill="#19191C" fill-opacity="0.7"/>
<rect x="29.4165" y="23.084" width="1" height="1" fill="#19191C" fill-opacity="0.7"/>
<rect width="1" height="1" transform="matrix(-1 0 0 1 18.9165 23.084)" fill="#19191C" fill-opacity="0.7"/>
<rect x="28.4165" y="23.084" width="1" height="1" fill="#19191C" fill-opacity="0.7"/>
<rect width="1" height="1" transform="matrix(-1 0 0 1 19.9165 23.084)" fill="#19191C" fill-opacity="0.7"/>
<rect x="22" y="23.0001" width="1" height="1" fill="#19191C" fill-opacity="0.7"/>
<rect x="21" y="24.0001" width="1" height="1" fill="#19191C" fill-opacity="0.7"/>
<rect x="20" y="25.0001" width="1" height="1" fill="#19191C" fill-opacity="0.7"/>
<rect x="19" y="26.0001" width="1" height="1" fill="#19191C" fill-opacity="0.7"/>
<rect x="27.3333" y="25.0001" width="1" height="1" fill="#19191C" fill-opacity="0.7"/>
<rect x="28.3333" y="26.0001" width="1" height="1" fill="#19191C" fill-opacity="0.7"/>
<rect x="29.3333" y="27.0001" width="1" height="1" fill="#19191C" fill-opacity="0.7"/>
<rect x="18" y="27.0001" width="1" height="1" fill="#19191C" fill-opacity="0.7"/>
<rect x="29.3333" y="28.0001" width="1" height="1" fill="#19191C" fill-opacity="0.7"/>
<rect x="18" y="28.0001" width="1" height="1" fill="#19191C" fill-opacity="0.7"/>
<rect x="29.3333" y="29.0001" width="1" height="1" fill="#19191C" fill-opacity="0.7"/>
<rect x="18" y="29.0001" width="1" height="1" fill="#19191C" fill-opacity="0.7"/>
<rect x="29.3333" y="30.0001" width="1" height="1" fill="#19191C" fill-opacity="0.7"/>
<rect x="18" y="30.0001" width="1" height="1" fill="#19191C" fill-opacity="0.7"/>
<rect x="28.3333" y="31.0001" width="1" height="1" fill="#19191C" fill-opacity="0.7"/>
<rect x="23.6665" y="29.0001" width="1" height="1" fill="#19191C" fill-opacity="0.7"/>
<rect x="23.6665" y="30.0001" width="1" height="1" fill="#19191C" fill-opacity="0.7"/>
<rect x="25.3333" y="40.6667" width="1" height="1" transform="rotate(90 25.3333 40.6667)" fill="#B3C497"/>
<rect x="24.3333" y="39.6667" width="3" height="1" transform="rotate(90 24.3333 39.6667)" fill="#B3C497"/>
<rect x="26.3333" y="41.6667" width="1" height="1" transform="rotate(90 26.3333 41.6667)" fill="#B3C497"/>
<rect x="26.3333" y="39.6667" width="1" height="1" transform="rotate(90 26.3333 39.6667)" fill="#B3C497"/>
<rect x="23.6665" y="31.0001" width="1" height="1" fill="#19191C" fill-opacity="0.7"/>
<rect x="24.6665" y="29.0001" width="1" height="1" fill="#19191C" fill-opacity="0.7"/>
<rect x="22.6665" y="29.0001" width="1" height="1" fill="#19191C" fill-opacity="0.7"/>
<rect x="21.6665" y="28.0001" width="1" height="1" fill="#19191C" fill-opacity="0.7"/>
<rect x="21.6665" y="27.0001" width="1" height="1" fill="#19191C" fill-opacity="0.7"/>
<rect x="22.6665" y="27.0001" width="3" height="2" fill="#19191C" fill-opacity="0.7"/>
<rect x="25.6665" y="28.0001" width="1" height="1" fill="#19191C" fill-opacity="0.7"/>
<rect x="25.6665" y="27.0001" width="1" height="1" fill="#19191C" fill-opacity="0.7"/>
<rect x="27.3333" y="32.0001" width="1" height="1" fill="#19191C" fill-opacity="0.7"/>
<rect x="19" y="31.0001" width="1" height="1" fill="#19191C" fill-opacity="0.7"/>
<rect x="20" y="32.0001" width="1" height="1" fill="#19191C" fill-opacity="0.7"/>
<rect x="21" y="32.0001" width="6.33333" height="1" fill="#19191C" fill-opacity="0.7"/>
<rect x="12" y="26.0001" width="1" height="1" fill="#19191C" fill-opacity="0.7"/>
<rect x="11" y="31.0001" width="1" height="1" fill="#19191C" fill-opacity="0.7"/>
<rect x="11" y="29.0001" width="1" height="1" fill="#19191C" fill-opacity="0.7"/>
<rect x="11" y="27.0001" width="1" height="1" fill="#19191C" fill-opacity="0.7"/>
<rect x="12" y="24.0001" width="1" height="1" fill="#19191C" fill-opacity="0.7"/>
<rect x="12" y="22.0001" width="1" height="1" fill="#19191C" fill-opacity="0.7"/>
<rect x="22" y="20.0001" width="1" height="1" fill="#19191C" fill-opacity="0.7"/>
<rect x="25.3333" y="20.0001" width="1" height="1" fill="#19191C" fill-opacity="0.7"/>
<rect x="12" y="21.0001" width="1" height="1" fill="#19191C" fill-opacity="0.7"/>
<rect x="22" y="19.0001" width="1" height="1" fill="#19191C" fill-opacity="0.7"/>
<rect x="25.3333" y="19.0001" width="1" height="1" fill="#19191C" fill-opacity="0.7"/>
<rect x="13" y="20.0001" width="1" height="1" fill="#19191C" fill-opacity="0.7"/>
<rect x="14" y="19.0001" width="1" height="1" fill="#19191C" fill-opacity="0.7"/>
<rect x="15" y="18.0001" width="1" height="1" fill="#19191C" fill-opacity="0.7"/>
<rect x="16" y="17.0001" width="1" height="1" fill="#19191C" fill-opacity="0.7"/>
<rect x="16" y="16.0001" width="1" height="1" fill="#19191C" fill-opacity="0.7"/>
<rect x="17" y="16.0001" width="1" height="1" fill="#19191C" fill-opacity="0.7"/>
<rect x="18" y="15.0001" width="1" height="1" fill="#19191C" fill-opacity="0.7"/>
<rect x="19" y="14.0001" width="1" height="1" fill="#19191C" fill-opacity="0.7"/>
<rect x="29" y="14.0001" width="1" height="1" fill="#19191C" fill-opacity="0.7"/>
<rect x="30" y="15.0001" width="1" height="1" fill="#19191C" fill-opacity="0.7"/>
<rect x="31" y="16.0001" width="1" height="1" fill="#19191C" fill-opacity="0.7"/>
<rect x="32" y="16.0001" width="1" height="1" fill="#19191C" fill-opacity="0.7"/>
<rect x="32" y="17.0001" width="1" height="1" fill="#19191C" fill-opacity="0.7"/>
<rect x="33" y="18.0001" width="1" height="1" fill="#19191C" fill-opacity="0.7"/>
<rect x="34" y="19.0001" width="1" height="1" fill="#19191C" fill-opacity="0.7"/>
<rect x="35" y="20.0001" width="1" height="1" fill="#19191C" fill-opacity="0.7"/>
<rect x="36" y="21.0001" width="1" height="1" fill="#19191C" fill-opacity="0.7"/>
<rect x="36" y="23.0001" width="1" height="1" fill="#19191C" fill-opacity="0.7"/>
<rect x="37" y="27.0001" width="1" height="1" fill="#19191C" fill-opacity="0.7"/>
<rect x="36" y="22.0001" width="1" height="1" fill="#19191C" fill-opacity="0.7"/>
<rect x="36" y="24.0001" width="1" height="1" fill="#19191C" fill-opacity="0.7"/>
<rect x="37" y="28.0001" width="1" height="1" fill="#19191C" fill-opacity="0.7"/>
<rect x="36" y="25.0001" width="1" height="1" fill="#19191C" fill-opacity="0.7"/>
<rect x="37" y="29.0001" width="1" height="1" fill="#19191C" fill-opacity="0.7"/>
<rect x="36" y="26.0001" width="1" height="1" fill="#19191C" fill-opacity="0.7"/>
<rect x="37" y="30.0001" width="1" height="1" fill="#19191C" fill-opacity="0.7"/>
<rect x="36" y="31.0001" width="1" height="1" fill="#19191C" fill-opacity="0.7"/>
<rect x="36" y="32.0001" width="1" height="1" fill="#19191C" fill-opacity="0.7"/>
<rect x="35" y="33.0001" width="1" height="1" fill="#19191C" fill-opacity="0.7"/>
<rect x="35" y="34.0001" width="1" height="1" fill="#19191C" fill-opacity="0.7"/>
<rect x="34" y="35.0001" width="1" height="1" fill="#19191C" fill-opacity="0.7"/>
<rect x="33" y="36.0001" width="1" height="1" fill="#19191C" fill-opacity="0.7"/>
<rect x="33" y="37.0001" width="1" height="1" fill="#19191C" fill-opacity="0.7"/>
<rect x="33" y="38.0001" width="1" height="1" fill="#19191C" fill-opacity="0.7"/>
<rect x="20" y="13.0001" width="1" height="1" fill="#19191C" fill-opacity="0.7"/>
<rect x="19" y="12.0001" width="1" height="1" fill="#19191C" fill-opacity="0.7"/>
<rect x="19" y="13.0001" width="1" height="1" fill="#19191C" fill-opacity="0.7"/>
<rect width="1" height="2" transform="matrix(-1 0 0 1 30 12.0001)" fill="#19191C" fill-opacity="0.7"/>
<rect x="18" y="10.0001" width="1" height="1" fill="#19191C" fill-opacity="0.7"/>
<rect x="18" y="11.0001" width="1" height="4" fill="#19191C" fill-opacity="0.7"/>
<rect width="1" height="5" transform="matrix(-1 0 0 1 31 10.0001)" fill="#19191C" fill-opacity="0.7"/>
<rect x="17" y="8.00006" width="1" height="1" fill="#19191C" fill-opacity="0.7"/>
<rect width="1" height="1" transform="matrix(-1 0 0 1 32 8.00006)" fill="#19191C" fill-opacity="0.7"/>
<rect x="16" y="6.00006" width="1" height="1" fill="#19191C" fill-opacity="0.7"/>
<rect width="1" height="1" transform="matrix(-1 0 0 1 33 6.00006)" fill="#19191C" fill-opacity="0.7"/>
<rect x="11" y="6.00006" width="1" height="1" fill="#19191C" fill-opacity="0.7"/>
<rect width="1" height="1" transform="matrix(-1 0 0 1 38 6.00006)" fill="#19191C" fill-opacity="0.7"/>
<rect x="10" y="8.00006" width="1" height="1" fill="#19191C" fill-opacity="0.7"/>
<rect width="1" height="1" transform="matrix(-1 0 0 1 39 8.00006)" fill="#19191C" fill-opacity="0.7"/>
<rect x="10" y="10.0001" width="1" height="1" fill="#19191C" fill-opacity="0.7"/>
<rect width="1" height="1" transform="matrix(-1 0 0 1 39 10.0001)" fill="#19191C" fill-opacity="0.7"/>
<rect x="10" y="12.0001" width="1" height="1" fill="#19191C" fill-opacity="0.7"/>
<rect width="1" height="1" transform="matrix(-1 0 0 1 39 12.0001)" fill="#19191C" fill-opacity="0.7"/>
<rect x="10" y="14.0001" width="1" height="1" fill="#19191C" fill-opacity="0.7"/>
<rect width="1" height="1" transform="matrix(-1 0 0 1 39 14.0001)" fill="#19191C" fill-opacity="0.7"/>
<rect x="10" y="16.0001" width="1" height="1" fill="#19191C" fill-opacity="0.7"/>
<rect width="1" height="1" transform="matrix(-1 0 0 1 39 16.0001)" fill="#19191C" fill-opacity="0.7"/>
<rect x="11" y="18.0001" width="1" height="1" fill="#19191C" fill-opacity="0.7"/>
<rect width="1" height="1" transform="matrix(-1 0 0 1 38 18.0001)" fill="#19191C" fill-opacity="0.7"/>
<rect x="11" y="19.0001" width="1" height="1" fill="#19191C" fill-opacity="0.7"/>
<rect width="1" height="1" transform="matrix(-1 0 0 1 38 19.0001)" fill="#19191C" fill-opacity="0.7"/>
<rect x="11" y="20.0001" width="1" height="1" fill="#19191C" fill-opacity="0.7"/>
<rect width="1" height="1" transform="matrix(-1 0 0 1 38 20.0001)" fill="#19191C" fill-opacity="0.7"/>
<rect x="19" y="11.0001" width="1" height="1" fill="#19191C" fill-opacity="0.7"/>
<rect width="1" height="1" transform="matrix(-1 0 0 1 30 11.0001)" fill="#19191C" fill-opacity="0.7"/>
<rect x="18" y="9.00006" width="1" height="1" fill="#19191C" fill-opacity="0.7"/>
<rect width="1" height="1" transform="matrix(-1 0 0 1 31 9.00006)" fill="#19191C" fill-opacity="0.7"/>
<rect x="17" y="7.00006" width="1" height="1" fill="#19191C" fill-opacity="0.7"/>
<rect width="1" height="1" transform="matrix(-1 0 0 1 32 7.00006)" fill="#19191C" fill-opacity="0.7"/>
<rect x="10" y="7.00006" width="1" height="1" fill="#19191C" fill-opacity="0.7"/>
<rect width="1" height="1" transform="matrix(-1 0 0 1 39 7.00006)" fill="#19191C" fill-opacity="0.7"/>
<rect x="10" y="9.00006" width="1" height="1" fill="#19191C" fill-opacity="0.7"/>
<rect width="1" height="1" transform="matrix(-1 0 0 1 39 9.00006)" fill="#19191C" fill-opacity="0.7"/>
<rect x="10" y="11.0001" width="1" height="1" fill="#19191C" fill-opacity="0.7"/>
<rect width="1" height="1" transform="matrix(-1 0 0 1 39 11.0001)" fill="#19191C" fill-opacity="0.7"/>
<rect x="10" y="13.0001" width="1" height="1" fill="#19191C" fill-opacity="0.7"/>
<rect width="1" height="1" transform="matrix(-1 0 0 1 39 13.0001)" fill="#19191C" fill-opacity="0.7"/>
<rect x="10" y="15.0001" width="1" height="1" fill="#19191C" fill-opacity="0.7"/>
<rect width="1" height="1" transform="matrix(-1 0 0 1 39 15.0001)" fill="#19191C" fill-opacity="0.7"/>
<rect x="11" y="17.0001" width="1" height="1" fill="#19191C" fill-opacity="0.7"/>
<rect width="1" height="1" transform="matrix(-1 0 0 1 38 17.0001)" fill="#19191C" fill-opacity="0.7"/>
<rect x="15" y="5.00006" width="1" height="1" fill="#19191C" fill-opacity="0.7"/>
<rect width="1" height="1" transform="matrix(-1 0 0 1 34 5.00006)" fill="#19191C" fill-opacity="0.7"/>
<rect x="14" y="5.00006" width="1" height="1" fill="#19191C" fill-opacity="0.7"/>
<rect width="1" height="1" transform="matrix(-1 0 0 1 35 5.00006)" fill="#19191C" fill-opacity="0.7"/>
<rect x="13" y="5.00006" width="1" height="1" fill="#19191C" fill-opacity="0.7"/>
<rect width="1" height="1" transform="matrix(-1 0 0 1 36 5.00006)" fill="#19191C" fill-opacity="0.7"/>
<rect x="12" y="5.00006" width="1" height="1" fill="#19191C" fill-opacity="0.7"/>
<rect width="1" height="1" transform="matrix(-1 0 0 1 37 5.00006)" fill="#19191C" fill-opacity="0.7"/>
<rect x="22" y="13.0001" width="1" height="1" fill="#19191C" fill-opacity="0.7"/>
<rect x="24" y="13.0001" width="1" height="1" fill="#19191C" fill-opacity="0.7"/>
<rect x="26" y="13.0001" width="1" height="1" fill="#19191C" fill-opacity="0.7"/>
<rect x="21" y="13.0001" width="1" height="1" fill="#19191C" fill-opacity="0.7"/>
<rect x="23" y="13.0001" width="1" height="1" fill="#19191C" fill-opacity="0.7"/>
<rect x="25" y="13.0001" width="1" height="1" fill="#19191C" fill-opacity="0.7"/>
<rect x="27" y="13.0001" width="1" height="1" fill="#19191C" fill-opacity="0.7"/>
<rect x="28" y="13.0001" width="1" height="1" fill="#19191C" fill-opacity="0.7"/>
</svg>
