<svg width="214" height="268" viewBox="0 0 214 268" fill="none" xmlns="http://www.w3.org/2000/svg">
<mask id="path-1-inside-1_539_21317" fill="white">
<path fill-rule="evenodd" clip-rule="evenodd" d="M114.093 14.7065C115.37 13.1535 116.136 11.1661 116.136 9C116.136 4.02944 112.102 0 107.125 0C102.149 0 98.1146 4.02944 98.1146 9C98.1146 11.1933 98.9001 13.2033 100.205 14.7648C34.3031 19.652 0 91.9732 0 170.224C0 235.058 37.4401 267.002 107.375 267.002C176.822 267.002 214 235.058 214 170.224C214 91.643 184.349 19.0417 114.093 14.7065ZM109.128 9C109.128 10.1046 108.231 11 107.125 11C106.019 11 105.123 10.1046 105.123 9C105.123 7.89543 106.019 7 107.125 7C108.231 7 109.128 7.89543 109.128 9Z"/>
</mask>
<path fill-rule="evenodd" clip-rule="evenodd" d="M114.093 14.7065C115.37 13.1535 116.136 11.1661 116.136 9C116.136 4.02944 112.102 0 107.125 0C102.149 0 98.1146 4.02944 98.1146 9C98.1146 11.1933 98.9001 13.2033 100.205 14.7648C34.3031 19.652 0 91.9732 0 170.224C0 235.058 37.4401 267.002 107.375 267.002C176.822 267.002 214 235.058 214 170.224C214 91.643 184.349 19.0417 114.093 14.7065ZM109.128 9C109.128 10.1046 108.231 11 107.125 11C106.019 11 105.123 10.1046 105.123 9C105.123 7.89543 106.019 7 107.125 7C108.231 7 109.128 7.89543 109.128 9Z" fill="#28B8A0"/>
<path d="M114.093 14.7065L112.548 13.4367L110.062 16.4616L113.97 16.7027L114.093 14.7065ZM100.205 14.7648L100.353 16.7593L104.239 16.4712L101.74 13.482L100.205 14.7648ZM115.638 15.9764C117.198 14.0788 118.136 11.6463 118.136 9H114.136C114.136 10.6859 113.541 12.2281 112.548 13.4367L115.638 15.9764ZM118.136 9C118.136 2.92266 113.204 -2 107.125 -2V2C110.999 2 114.136 5.13621 114.136 9H118.136ZM107.125 -2C101.046 -2 96.1146 2.92266 96.1146 9H100.115C100.115 5.13621 103.251 2 107.125 2V-2ZM96.1146 9C96.1146 11.6796 97.0762 14.1398 98.6709 16.0475L101.74 13.482C100.724 12.2668 100.115 10.7069 100.115 9H96.1146ZM2 170.224C2 131.359 10.5238 94.0901 27.1115 66C43.6762 37.9488 68.2046 19.1434 100.353 16.7593L100.057 12.7703C66.3038 15.2734 40.7296 35.0721 23.6672 63.9661C6.62773 92.8212 -2 130.839 -2 170.224H2ZM107.375 265.002C72.6744 265.002 46.3884 257.073 28.7907 241.431C11.2359 225.827 2 202.253 2 170.224H-2C-2 203.029 7.48412 227.844 26.1333 244.42C44.7394 260.959 72.1411 269.002 107.375 269.002V265.002ZM212 170.224C212 202.257 202.827 225.833 185.396 241.435C167.925 257.074 141.829 265.002 107.375 265.002V269.002C142.368 269.002 169.584 260.957 188.064 244.416C206.584 227.838 216 203.025 216 170.224H212ZM113.97 16.7027C148.304 18.8213 172.728 37.5709 188.653 65.6108C204.621 93.7255 212 131.145 212 170.224H216C216 130.723 208.554 92.5505 192.132 63.6354C175.667 34.6455 150.138 14.9269 114.216 12.7103L113.97 16.7027ZM107.125 13C109.333 13 111.128 11.2113 111.128 9H107.128C107.128 9.00247 107.127 9.0028 107.128 9.00167C107.128 9.00066 107.128 8.99954 107.129 8.99861C107.129 8.99701 107.129 8.99762 107.128 8.99917C107.126 9.00073 107.125 9.00092 107.126 9.00049C107.127 9.00023 107.128 9 107.128 8.99988C107.129 8.99973 107.128 9 107.125 9V13ZM103.123 9C103.123 11.2113 104.917 13 107.125 13V9C107.122 9 107.122 8.99973 107.122 8.99988C107.123 9 107.124 9.00023 107.124 9.00049C107.125 9.00092 107.124 9.00073 107.123 8.99918C107.121 8.99762 107.121 8.99701 107.122 8.99861C107.122 8.99954 107.123 9.00066 107.123 9.00167C107.123 9.0028 107.123 9.00247 107.123 9H103.123ZM107.125 5C104.917 5 103.123 6.78866 103.123 9H107.123C107.123 8.99753 107.123 8.9972 107.123 8.99833C107.123 8.99934 107.122 9.00046 107.122 9.00139C107.121 9.00299 107.121 9.00238 107.123 9.00082C107.124 8.99927 107.125 8.99908 107.124 8.99951C107.124 8.99977 107.123 9 107.122 9.00012C107.122 9.00027 107.122 9 107.125 9V5ZM111.128 9C111.128 6.78866 109.333 5 107.125 5V9C107.128 9 107.129 9.00027 107.128 9.00012C107.128 9 107.127 8.99977 107.126 8.99951C107.125 8.99908 107.126 8.99927 107.128 9.00083C107.129 9.00238 107.129 9.00299 107.129 9.00139C107.128 9.00046 107.128 8.99934 107.128 8.99833C107.127 8.9972 107.128 8.99753 107.128 9H111.128Z" fill="#19191C" fill-opacity="0.7" mask="url(#path-1-inside-1_539_21317)"/>
<rect x="38" y="74.002" width="138" height="138" rx="9" fill="#B3C497" stroke="#FFCE1F" stroke-width="6"/>
<circle cx="107" cy="237.752" r="8" fill="#FC801D"/>
<circle cx="107" cy="237.752" r="7" stroke="#19191C" stroke-opacity="0.7" stroke-width="2"/>
<circle cx="77" cy="234.002" r="8" fill="#FC801D"/>
<circle cx="77" cy="234.002" r="7" stroke="#19191C" stroke-opacity="0.7" stroke-width="2"/>
<circle cx="137" cy="234.002" r="8" fill="#FC801D"/>
<circle cx="137" cy="234.002" r="7" stroke="#19191C" stroke-opacity="0.7" stroke-width="2"/>
</svg>
