<?xml version="1.0" encoding="utf-8"?>
<svg width="346" height="249" viewBox="0 0 346 249" fill="none" xmlns="http://www.w3.org/2000/svg">
  <defs/>
  <path d="M101.725 92.9434C101.725 92.9434 93.3651 126.163 131.075 139.223C168.785 152.283 211.585 103.253 194.375 71.9134C177.165 40.5634 156.605 40.0234 133.855 50.6834C111.105 61.3334 105.465 76.2334 101.725 92.9434Z" fill="#FC751A"/>
  <path d="M100.295 92.5433C99.4252 96.0033 99.3152 99.7833 99.5252 103.323C99.9952 111.203 102.635 118.823 107.485 125.083C110.735 129.283 114.855 132.753 119.405 135.483C124.615 138.603 130.515 141.093 136.505 142.173C147.295 144.133 158.305 141.603 167.825 136.373C177.435 131.093 185.665 123.183 191.505 113.923C196.945 105.293 200.535 94.9333 199.665 84.6233C199.225 79.4633 197.645 74.6533 195.115 70.1533C191.645 63.9933 187.525 58.0533 182.345 53.2033C178.365 49.4733 173.735 46.4533 168.545 44.6933C163.845 43.1033 158.805 42.6533 153.875 43.1333C148.495 43.6533 143.275 45.1533 138.265 47.1533C131.985 49.6633 125.905 52.7933 120.525 56.9233C115.835 60.5333 111.775 64.8833 108.645 69.9233C105.805 74.5033 103.795 79.5633 102.275 84.7233C101.515 87.3033 100.875 89.9133 100.285 92.5333C99.8652 94.4033 102.735 95.1933 103.155 93.3233C105.435 83.1833 108.715 73.1833 115.785 65.3033C120.015 60.5833 125.195 56.8533 130.765 53.8733C135.825 51.1633 141.205 48.9033 146.755 47.4333C156.145 44.9533 165.875 45.4633 174.255 50.6833C179.175 53.7433 183.295 58.0233 186.735 62.6533C190.175 67.2833 193.865 72.8233 195.555 78.6333C198.205 87.7833 196.375 97.6533 192.375 106.133C187.945 115.533 180.955 123.803 172.535 129.873C164.115 135.943 154.355 139.873 144.045 139.883C138.545 139.883 133.295 138.623 128.215 136.553C123.135 134.483 118.145 131.603 114.045 127.833C108.065 122.343 104.225 115.103 102.915 107.113C102.475 104.463 102.345 101.563 102.475 98.7933C102.525 97.7633 102.615 96.7333 102.735 95.7133C102.775 95.3633 102.735 95.7133 102.735 95.6733C102.745 95.5833 102.755 95.4933 102.775 95.4033C102.805 95.2133 102.835 95.0233 102.865 94.8333C102.915 94.5533 102.955 94.2833 103.015 94.0033C103.055 93.7733 103.105 93.5533 103.165 93.3233C103.635 91.4633 100.765 90.6733 100.295 92.5333V92.5433Z" fill="black"/>
  <path d="M175.605 124.183C177.295 131.773 183.535 136.653 190.935 138.203C196.375 139.333 198.705 130.983 193.235 129.843C188.625 128.883 185.035 126.673 183.965 121.883C182.755 116.443 174.395 118.743 175.605 124.183Z" fill="black"/>
  <path d="M173.345 124.603C173.065 124.653 173.465 124.603 173.535 124.593C173.685 124.593 173.835 124.593 173.975 124.613C174.115 124.633 174.275 124.643 174.425 124.663C174.015 124.613 175.185 124.763 174.875 124.723C175.405 124.793 175.915 124.813 176.445 124.753C177.645 124.613 178.805 124.233 179.785 123.523C181.745 122.113 182.925 119.743 182.695 117.313C182.625 116.533 182.055 115.773 181.195 115.813C180.445 115.843 179.615 116.473 179.695 117.313C179.715 117.553 179.725 117.793 179.725 118.033C179.725 118.143 179.715 118.253 179.705 118.363C179.685 118.653 179.745 118.243 179.705 118.413C179.645 118.643 179.605 118.883 179.535 119.113C179.505 119.213 179.465 119.313 179.425 119.423C179.375 119.583 179.525 119.243 179.395 119.483C179.295 119.673 179.195 119.873 179.075 120.053C179.005 120.163 178.935 120.273 178.855 120.373C178.985 120.203 178.875 120.333 178.805 120.423C178.655 120.583 178.505 120.743 178.345 120.883C178.255 120.963 178.115 121.053 178.295 120.933C178.185 121.013 178.085 121.083 177.975 121.153C177.785 121.273 177.595 121.373 177.405 121.463C177.045 121.643 177.555 121.423 177.345 121.493C177.245 121.523 177.135 121.563 177.035 121.603C176.805 121.673 176.575 121.713 176.335 121.773C176.155 121.813 176.575 121.763 176.285 121.773C176.175 121.773 176.065 121.783 175.955 121.793C175.705 121.793 175.455 121.783 175.195 121.753L175.045 121.733C175.175 121.753 175.175 121.753 175.075 121.733C174.865 121.703 174.665 121.673 174.455 121.653C173.815 121.573 173.215 121.583 172.575 121.703C171.805 121.853 171.295 122.823 171.525 123.553C171.795 124.383 172.545 124.753 173.375 124.603H173.345Z" fill="black"/>
  <path d="M124.365 127.173C158.145 158.513 183.935 130.743 183.935 130.743C177.975 126.723 160.285 99.1333 124.365 127.173Z" fill="#6BA534" stroke="black" stroke-width="2.83" stroke-miterlimit="10"/>
  <path d="M177.365 129.483C173.975 128.983 170.565 128.793 167.135 128.983C163.705 129.173 160.385 129.503 156.985 129.473C153.585 129.443 150.325 129.453 147.075 128.793C143.825 128.133 140.905 126.993 138.105 125.373C136.425 124.403 134.915 126.993 136.595 127.963C139.345 129.553 142.325 130.773 145.425 131.493C148.765 132.273 152.175 132.393 155.595 132.453C162.605 132.573 169.575 131.363 176.565 132.383C178.455 132.663 179.265 129.773 177.365 129.493V129.483Z" fill="#548C1E"/>
</svg>