<svg width="349" height="284" viewBox="0 0 349 284" fill="none" xmlns="http://www.w3.org/2000/svg">
<g clip-path="url(#clip0_859_778)">
<path d="M265.669 171.988C265.669 171.988 309.357 134.625 270.408 80.148C231.46 25.6709 125.292 51.2457 118.426 110.856C111.561 170.466 139.179 191.165 180.667 198.663C222.155 206.152 244.339 191.238 265.669 171.997V171.988Z" fill="#FC751A"/>
<path d="M266.641 172.951C268.456 171.402 270.078 169.587 271.618 167.772C275.422 163.298 278.695 158.357 281.28 153.087C284.809 145.891 287.055 138.118 287.724 130.115C288.577 120.023 286.789 109.839 283.122 100.434C279.098 90.1031 273.122 80.0657 265.44 72.0266C259.839 66.1599 253.157 61.3475 245.897 57.745C238.637 54.1425 230.809 51.6859 222.815 50.3109C214.822 48.9359 206.224 48.5234 197.91 49.1193C189.568 49.7243 181.272 51.2551 173.27 53.7026C165.506 56.0767 157.971 59.3125 150.986 63.4466C144.304 67.3974 138.07 72.2099 132.781 77.9115C127.685 83.3931 123.514 89.6905 120.672 96.6205C117.244 105.008 116.437 114.074 116.098 123.048C115.722 133.003 116.373 143.123 119.004 152.766C121.121 160.539 124.605 167.891 129.6 174.234C134.211 180.091 140.059 184.886 146.494 188.589C153.443 192.595 161.06 195.391 168.788 197.444C179.292 200.23 190.228 201.972 201.109 202C211.99 202.027 222.11 200.267 231.872 196.353C240.681 192.824 248.684 187.727 256.127 181.879C259.738 179.037 263.213 176.031 266.623 172.96C267.933 171.787 265.999 169.862 264.698 171.035C257.878 177.176 250.783 183.061 242.909 187.81C234.796 192.705 225.96 196.206 216.637 197.93C205.161 200.056 193.299 199.497 181.841 197.499C173.655 196.069 165.515 194.061 157.778 191C150.977 188.314 144.441 184.702 138.868 179.936C133.294 175.169 128.794 169.312 125.585 162.712C121.855 155.021 119.939 146.523 119.169 138.044C118.692 132.838 118.637 127.594 118.857 122.369C119.077 117.144 119.389 112.204 120.351 107.245C123.147 92.853 132.112 80.6615 143.534 71.779C155.954 62.1175 171.107 56.0859 186.525 53.29C201.943 50.4942 218.855 50.9617 234.136 55.9025C241.579 58.3133 248.656 61.815 254.972 66.4441C262.131 71.6874 267.823 78.3423 272.572 85.7947C278.658 95.3463 283.278 106.044 284.717 117.346C285.799 125.844 285.057 134.479 282.527 142.664C279.364 152.867 273.58 162.409 266.008 169.834C265.587 170.247 265.165 170.659 264.716 171.044C263.378 172.19 265.321 174.115 266.641 172.969V172.951Z" fill="black"/>
<path d="M191.842 56.0951C196.452 44.9027 192.52 33.8111 184.646 25.2495C181.181 21.4728 175.571 27.1103 179.027 30.8686C185.15 37.5327 187.717 45.3885 184.178 53.9776C182.235 58.6984 189.917 60.7609 191.842 56.0859V56.0951Z" fill="#5B2C0D"/>
<path d="M198.203 60.3117C196.535 59.5417 195.444 57.9376 193.876 56.9934C192.309 56.0493 190.302 55.481 188.386 55.481C184.673 55.481 181.217 57.5984 179.357 60.7884C178.467 62.3192 180.842 63.7034 181.731 62.1726C183.216 59.6242 185.966 58.0751 188.927 58.2401C190.402 58.3226 191.86 58.8634 193.051 59.7342C194.353 60.6784 195.316 61.9984 196.81 62.6859C197.479 62.9975 198.295 62.8783 198.689 62.1909C199.037 61.595 198.872 60.6234 198.194 60.3117H198.203Z" fill="black"/>
<path d="M267.906 103.156C252.084 27.4677 189.816 40.4477 189.816 40.4477C194.069 51.7317 191.511 106.667 267.906 103.156Z" fill="#6BA534"/>
<path d="M269.226 102.799C266.613 90.3872 262.351 78.1131 255.302 67.489C250.104 59.6608 243.413 52.8591 235.41 47.8909C229.049 43.9401 221.935 41.1901 214.602 39.6959C209.047 38.5593 203.346 38.0826 197.69 38.2843C195.068 38.376 192.135 38.4218 189.577 39.1092C189.541 39.1184 189.504 39.1276 189.467 39.1276C188.789 39.2651 188.267 40.1451 188.514 40.8051C189.807 44.2609 190.164 48.1292 190.879 51.7317C191.997 57.3416 193.437 62.8966 195.6 68.1949C198.231 74.6481 201.851 80.6522 206.646 85.7397C212.494 91.9363 219.855 96.4554 227.802 99.4254C238.811 103.55 250.783 104.788 262.47 104.669C264.285 104.65 266.1 104.595 267.915 104.513C269.73 104.43 269.675 101.708 267.915 101.781C255.824 102.322 243.477 101.616 231.872 97.9404C223.879 95.4104 216.344 91.3496 210.276 85.5105C205.353 80.7806 201.567 75.0423 198.808 68.809C196.571 63.7491 194.995 58.1024 193.84 52.575C193.033 48.725 192.575 44.7376 191.447 40.9701C191.356 40.6676 191.255 40.3651 191.145 40.0717L190.192 41.7492C190.732 41.6392 191.282 41.5567 191.832 41.4742C192.254 41.4101 191.832 41.4742 191.933 41.4559C192.098 41.4376 192.254 41.41 192.419 41.3917C192.777 41.3459 193.134 41.3093 193.492 41.2726C194.362 41.1809 195.233 41.1167 196.104 41.0617C201.237 40.7592 206.591 41.0434 211.44 41.85C218.37 43.005 225.116 45.2325 231.285 48.6242C238.958 52.8408 245.604 58.7807 250.81 65.8115C257.923 75.4089 262.461 86.6472 265.367 98.1787C265.816 99.9479 266.219 101.726 266.595 103.505C266.971 105.283 269.583 104.495 269.226 102.78V102.799Z" fill="black"/>
<path d="M198.579 47.9274C201.76 50.9799 205.179 53.7757 208.809 56.2782C212.439 58.7807 216.619 61.0907 220.496 63.5473C224.374 66.004 227.912 68.6531 231.505 71.3664C235.099 74.0797 238.234 76.8572 241.057 80.1846C244.064 83.7321 246.52 87.7104 248.445 91.9362C249.178 93.5404 251.553 92.147 250.819 90.5521C247.308 82.8521 241.983 76.188 235.374 70.9172C231.835 68.0939 228.159 65.3898 224.42 62.8415C220.68 60.2932 216.435 57.9648 212.494 55.4349C208.195 52.6849 204.198 49.5132 200.522 45.9841C199.248 44.7558 197.296 46.6991 198.579 47.9274Z" fill="#548C1E"/>
<path d="M59.0669 163.934C59.0669 163.934 41.3345 180.75 59.0669 203.027C76.7993 225.304 121.311 212.116 122.915 186.664C124.528 161.204 112.348 153.022 94.5653 150.754C76.7909 148.478 67.6937 155.298 59.0585 163.934H59.0669Z" fill="#CB1124"/>
<path d="M58.1849 163.052C55.4045 165.698 53.3381 169.301 51.9269 172.821C48.7349 180.759 49.6589 189.453 53.5901 196.963C57.4457 204.346 63.3089 210.176 71.1209 213.191C77.8325 215.779 85.2665 216.148 92.3225 215.031C105.275 212.998 119.564 205.043 123.344 191.629C124.461 187.672 124.461 183.372 124.242 179.289C124.024 175.207 123.402 171.233 121.966 167.47C119.555 161.137 114.944 156.172 108.803 153.291C105.653 151.813 102.302 150.83 98.8913 150.175C94.2881 149.293 89.5421 148.822 84.8549 149.167C80.4953 149.486 76.2617 150.527 72.2969 152.384C68.6933 154.072 65.4425 156.416 62.4521 159.028C60.9821 160.313 59.5709 161.666 58.1849 163.052C57.0425 164.186 58.8149 165.958 59.9489 164.816C65.3249 159.457 71.2553 154.66 78.7313 152.686C86.6357 150.603 95.4893 151.435 103.259 153.829C109.038 155.609 114.322 158.869 117.548 164.093C121.68 170.78 122.226 179.222 121.655 186.874C120.689 199.894 108.173 208.445 96.5981 211.57C83.9981 214.972 68.9537 213.091 60.2429 202.507C54.5981 195.652 51.0365 186.732 52.9937 177.819C53.6321 174.913 54.7661 172.157 56.2949 169.604C57.2777 167.966 58.1681 166.731 59.4029 165.387C59.5793 165.194 59.7641 165.001 59.9573 164.816C61.1249 163.707 59.3525 161.935 58.1933 163.052H58.1849Z" fill="black"/>
<path d="M84.1325 163.791C85.6613 164.497 86.6609 165.967 88.0973 166.832C89.5337 167.697 91.3733 168.218 93.1289 168.218C96.5309 168.218 99.6977 166.278 101.403 163.354C102.218 161.952 100.042 160.683 99.2273 162.086C97.8665 164.421 95.3465 165.841 92.6333 165.69C91.2809 165.614 89.9453 165.118 88.8533 164.32C87.6605 163.455 86.7785 162.246 85.4093 161.616C84.7961 161.33 84.0485 161.439 83.6873 162.069C83.3681 162.615 83.5193 163.506 84.1409 163.791H84.1325Z" fill="black"/>
<path d="M114.398 161.355C114.398 161.355 104.385 183.649 129.24 197.526C154.104 211.402 190.275 182.296 182.093 158.138C173.912 133.98 159.539 131.031 142.235 135.676C124.931 140.322 119.11 150.082 114.398 161.355Z" fill="#CB1124"/>
<path d="M113.322 160.725C112.096 163.464 111.508 166.538 111.264 169.512C110.735 175.795 112.306 182.179 115.868 187.404C118.388 191.1 121.706 194.149 125.41 196.627C129.114 199.105 132.794 200.844 136.977 201.709C144.705 203.296 152.702 201.81 159.808 198.55C166.931 195.283 173.248 190.159 177.893 183.85C182.177 178.029 185.075 170.755 184.462 163.43C184.109 159.163 182.496 155.106 180.724 151.242C178.952 147.378 176.667 143.614 173.702 140.49C168.88 135.416 162.412 132.753 155.448 132.577C151.794 132.484 148.132 133.005 144.57 133.803C139.917 134.853 135.314 136.382 131.122 138.692C124.083 142.573 119.034 148.654 115.532 155.794C114.692 157.508 113.936 159.247 113.196 161.011C112.936 161.641 113.482 162.38 114.07 162.548C114.784 162.758 115.347 162.296 115.607 161.674C118.404 154.996 121.916 148.596 127.644 143.984C133.936 138.919 142.344 136.239 150.291 135.324C156.633 134.593 163.067 135.416 168.393 139.154C174.894 143.724 178.851 151.695 181.11 159.104C185.344 173.014 174.693 186.807 163.462 193.737C157.212 197.593 149.93 200.037 142.529 199.836C134.474 199.617 126.956 195.745 121.319 190.075C116.716 185.455 113.902 179.407 113.684 172.855C113.566 169.226 114.078 165.673 115.38 162.254C115.431 162.111 115.49 161.968 115.548 161.826C115.624 161.641 115.389 162.195 115.49 161.96C116.145 160.507 113.986 159.23 113.331 160.7L113.322 160.725Z" fill="black"/>
<path d="M140.37 154.055C141 153.845 141.572 153.871 142.26 153.879C142.949 153.887 143.672 153.837 144.36 153.677C145.679 153.383 146.897 152.72 147.905 151.821C150.014 149.939 150.828 146.957 150.215 144.236C150.064 143.572 149.3 143.177 148.661 143.354C147.981 143.539 147.628 144.236 147.779 144.908C147.989 145.849 147.939 146.831 147.611 147.831C147.3 148.772 146.738 149.561 145.906 150.225C145.234 150.763 144.335 151.157 143.344 151.317C143.252 151.334 143.252 151.334 143.344 151.317L143.21 151.334C143.058 151.342 142.899 151.351 142.748 151.359C142.42 151.367 142.101 151.359 141.773 151.359C141.076 151.359 140.362 151.409 139.698 151.628C139.035 151.846 138.632 152.501 138.816 153.182C138.993 153.812 139.715 154.274 140.37 154.064V154.055Z" fill="black"/>
<path d="M143.084 143.917C131.517 138.583 124.545 127.411 120.462 115.76C116.59 104.714 114.902 93.0128 113.961 81.3872C113.642 77.3804 113.524 73.3485 113.07 69.3501C112.919 68.0313 111.012 67.5609 110.618 69.0141C109.358 73.6005 107.384 77.9685 105.376 82.2693C102.898 87.5865 100.302 92.8449 97.9253 98.2209C92.5325 110.426 88.2653 123.27 87.7361 136.71C87.4085 145.21 88.6433 153.72 91.3313 161.784C91.8353 163.304 94.2545 162.649 93.7421 161.12C89.1473 147.352 89.3069 132.862 93.0365 118.918C96.2369 106.965 101.705 95.9025 106.955 84.7557C109.257 79.8669 111.592 74.9108 113.02 69.686L110.567 69.3501C110.97 72.8613 111.08 76.4061 111.348 79.9257C111.768 85.4361 112.34 90.9464 113.196 96.4064C115.154 108.855 118.556 121.716 125.822 132.19C129.912 138.087 135.272 143.052 141.824 146.076C143.277 146.748 144.545 144.589 143.084 143.917Z" fill="#5B2C0D"/>
<path d="M164.201 72.5336C135.734 45.1664 113.205 68.5688 113.205 68.5688C118.245 72.1052 132.987 96.0116 164.201 72.5336Z" fill="#4C8E13"/>
<path d="M165.092 71.6516C156.885 63.806 146.385 57.5395 134.675 58.0267C127.846 58.3123 121.185 60.8323 115.7 64.8643C114.532 65.7295 113.339 66.6367 112.331 67.6867C111.735 68.3083 111.928 69.182 112.583 69.6524C112.903 69.8792 112.466 69.5347 112.785 69.8035C112.928 69.9295 113.079 70.0556 113.222 70.1816C113.558 70.484 113.885 70.8032 114.213 71.1224C115.011 71.912 115.8 72.7184 116.607 73.4996C118.749 75.5828 121.017 77.5483 123.52 79.1947C130.341 83.6803 138.422 84.9992 146.351 83.0504C153.13 81.3872 159.304 77.7583 164.848 73.6087C166.125 72.6595 164.873 70.484 163.588 71.45C155.499 77.5064 145.318 82.9747 134.86 81.1435C128.552 80.0347 123.268 76.448 118.732 72.0716C117.136 70.5344 115.666 68.7703 113.86 67.4851L114.112 69.4508C114.826 68.7032 115.641 68.0396 116.456 67.4096C116.288 67.5356 116.775 67.166 116.876 67.0904C117.111 66.9224 117.346 66.7459 117.581 66.5863C118.085 66.2335 118.606 65.8892 119.127 65.5616C120.353 64.7888 121.622 64.0916 122.932 63.47C130.173 60.0512 138.363 59.6311 145.94 62.1931C152.559 64.4275 158.33 68.6359 163.336 73.4155C164.495 74.5243 166.268 72.7604 165.1 71.6516H165.092Z" fill="black"/>
<path d="M153.29 100.522C145.209 61.8657 113.406 68.4933 113.406 68.4933C115.582 74.2557 114.272 102.312 153.29 100.522Z" fill="#4C8E13"/>
<path d="M154.491 100.195C152.139 89.0816 146.956 78.0608 137.027 71.8616C131.223 68.2412 124.268 66.5947 117.455 66.8383C116.002 66.8887 114.507 66.998 113.07 67.292C112.449 67.418 111.97 68.2244 112.197 68.8292C112.86 70.61 113.045 72.6008 113.415 74.4572C113.994 77.33 114.734 80.1776 115.851 82.8992C117.228 86.2592 119.11 89.3923 121.622 92.0383C124.637 95.2387 128.434 97.5572 132.533 99.1112C139.102 101.606 146.334 102.085 153.29 101.774C154.894 101.707 154.902 99.2036 153.29 99.2708C143.201 99.716 131.844 98.456 124.226 91.106C119.564 86.612 117.287 80.7151 115.985 74.5075C115.548 72.4159 115.364 70.1648 114.616 68.1572L113.742 69.6944C114.02 69.6356 114.297 69.602 114.582 69.56C114.868 69.518 114.44 69.5767 114.498 69.5683C114.582 69.5599 114.666 69.5432 114.75 69.5348C114.927 69.518 115.112 69.4928 115.288 69.476C115.742 69.434 116.195 69.392 116.64 69.3668C119.202 69.2156 121.949 69.3668 124.276 69.7448C132.18 71.0552 139.262 75.2467 144.058 81.6979C148.241 87.3343 150.644 94.0292 152.08 100.842C152.416 102.412 154.827 101.749 154.491 100.178V100.195Z" fill="black"/>
<path d="M258.676 142.043C251.826 138.373 235.866 132.053 213.636 142.403C203.466 147.143 192.926 153.863 190.856 164.893C189.566 171.753 191.426 178.803 193.806 185.363C195.796 190.843 198.176 196.233 201.486 201.033C208.386 211.033 219.056 218.013 230.476 222.173C241.896 226.333 254.096 227.873 266.226 228.683C287.246 230.093 310.196 228.773 326.416 215.313C344.356 200.413 348.626 171.563 335.776 152.113C332.296 146.843 327.676 142.213 322.016 139.443C314.186 135.613 305.116 135.583 296.396 135.633C277.686 135.743 260.126 136.843 247.526 150.683" fill="#E50A0A"/>
<path d="M259.426 140.763C250.346 135.913 239.996 134.353 229.836 135.853C222.236 136.973 214.996 139.823 208.246 143.433C202.356 146.583 196.616 150.583 192.856 156.213C188.476 162.763 188.276 170.683 190.036 178.153C191.006 182.263 192.456 186.263 194.066 190.163C195.676 194.063 197.426 197.633 199.686 201.043C208.076 213.713 221.926 221.573 236.286 225.603C244.516 227.913 253.036 229.093 261.546 229.823C269.146 230.473 276.786 230.823 284.416 230.503C298.746 229.903 313.616 226.853 325.296 218.063C335.596 210.313 342.176 198.523 344.056 185.823C345.936 173.123 343.386 159.913 335.776 149.543C331.266 143.403 325.306 138.543 317.966 136.263C310.626 133.983 302.236 134.083 294.376 134.163C280.696 134.303 266.006 135.113 254.266 142.933C251.396 144.843 248.786 147.103 246.456 149.633C245.166 151.043 247.266 153.153 248.556 151.733C252.996 146.903 258.466 143.273 264.646 141.053C270.826 138.833 277.286 137.913 283.766 137.493C290.926 137.023 298.206 136.893 305.366 137.253C312.526 137.613 320.316 139.213 326.356 143.933C336.326 151.713 341.456 164.493 341.686 176.913C341.916 189.333 337.916 200.853 329.996 209.763C320.976 219.913 307.736 224.803 294.576 226.643C287.626 227.613 280.566 227.783 273.566 227.563C265.796 227.323 257.996 226.723 250.316 225.543C235.666 223.293 220.896 218.473 209.786 208.273C204.286 203.223 200.266 197.073 197.306 190.243C194.166 182.983 191.186 174.753 192.066 166.723C192.786 160.183 196.866 154.883 201.936 150.953C207.366 146.733 213.906 143.503 220.386 141.263C231.226 137.503 243.006 137.073 253.746 141.363C255.176 141.933 256.566 142.603 257.926 143.333C259.616 144.233 261.116 141.663 259.426 140.763Z" fill="black"/>
<path d="M261.756 134.553C255.596 132.063 241.646 134.073 235.356 136.213C229.326 138.273 222.896 141.763 221.286 147.923C228.986 139.253 238.946 138.503 249.636 142.993C243.266 145.913 243.266 151.733 245.626 158.333C249.236 153.223 253.706 148.713 258.786 145.053C259.396 144.613 260.046 144.173 260.796 144.133C261.726 144.073 262.566 144.643 263.306 145.213C267.726 148.653 271.196 153.303 273.236 158.523C274.526 151.543 273.516 144.153 270.386 137.773C274.956 139.663 279.726 141.063 284.596 141.943C286.776 142.333 289.026 142.643 290.976 143.693C292.926 144.743 294.546 146.763 294.396 148.973C293.986 142.783 290.086 136.943 284.536 134.183C281.656 132.753 278.426 132.123 275.226 131.873C267.986 131.323 266.736 130.953 260.166 134.053" fill="#527F12"/>
<path d="M262.156 133.113C259.586 132.113 256.696 131.923 253.966 131.903C250.636 131.883 247.316 132.213 244.026 132.703C237.976 133.613 231.766 135.233 226.646 138.713C223.476 140.863 220.896 143.763 219.856 147.513C219.466 148.903 221.326 150.083 222.346 148.963C225.636 145.313 229.796 142.653 234.716 141.953C239.636 141.253 244.686 142.523 249.246 144.413L248.886 141.693C245.956 143.083 243.626 145.483 242.956 148.733C242.286 151.983 243.076 155.543 244.196 158.713C244.636 159.973 246.166 160.133 246.916 159.073C248.786 156.453 250.876 153.993 253.166 151.733C254.336 150.583 255.546 149.483 256.806 148.443C257.876 147.553 259.176 146.203 260.496 145.723C261.726 145.273 263.256 147.043 264.096 147.803C265.176 148.793 266.196 149.853 267.136 150.983C269.096 153.353 270.676 156.063 271.806 158.913C272.286 160.113 274.386 160.523 274.676 158.913C276.006 151.443 274.966 143.843 271.676 137.013L269.996 139.203C274.286 140.963 278.736 142.313 283.296 143.203C286.586 143.843 293.026 144.303 292.916 148.973H295.896C295.236 140.573 289.356 133.573 281.256 131.363C277.376 130.303 273.016 129.963 269.006 130.003C265.566 130.043 262.486 131.313 259.416 132.753C257.686 133.563 259.196 136.133 260.916 135.323C263.506 134.113 266.106 133.013 269.006 132.983C272.486 132.943 276.226 133.213 279.606 134.013C286.746 135.693 292.326 141.513 292.916 148.973C293.066 150.863 295.846 150.913 295.896 148.973C296.026 143.683 290.666 141.513 286.316 140.733C280.986 139.773 275.816 138.393 270.796 136.333C269.476 135.793 268.616 137.493 269.116 138.523C272.036 144.583 272.996 151.503 271.816 158.133H274.686C273.356 154.773 271.556 151.683 269.246 148.893C268.096 147.503 266.826 146.213 265.456 145.053C264.086 143.893 262.646 142.603 260.816 142.653C259.106 142.703 257.666 144.043 256.386 145.033C254.806 146.253 253.286 147.543 251.846 148.913C249.066 151.553 246.586 154.473 244.366 157.593L247.086 157.953C246.186 155.403 245.356 152.573 245.796 149.843C246.236 147.113 248.036 145.433 250.416 144.303C251.716 143.683 251.106 142.013 250.056 141.583C244.966 139.473 239.466 138.293 233.966 139.113C228.466 139.933 223.866 142.883 220.256 146.893L222.746 148.343C224.406 142.383 230.786 139.283 236.226 137.523C241.666 135.763 247.376 135.003 252.976 134.923C255.786 134.883 258.726 134.983 261.386 136.013C263.176 136.713 263.946 133.833 262.176 133.143L262.156 133.113Z" fill="black"/>
<path d="M264.957 173.91C254.462 171.413 243.956 168.912 233.461 166.415C224.16 164.2 214.739 161.976 205.187 162.149C192.343 162.384 179.616 167.132 169.758 175.374C167.37 177.37 165.089 179.637 163.828 182.484C161.719 187.233 162.825 192.939 165.531 197.37C168.238 201.801 172.35 205.18 176.542 208.249C185.682 214.935 195.585 220.592 205.989 225.056C227.125 234.13 250.016 238.229 272.755 241.693C280.463 242.867 288.253 243.985 296.04 243.54C305.474 243.008 314.762 240.14 322.865 235.279C325.632 233.619 328.331 231.655 330.041 228.914C334.025 222.536 331.519 214.105 327.753 207.601C322.704 198.865 316.026 190.548 307.082 185.884C294.836 179.505 284.548 178.427 260.551 172.858" fill="#527F12"/>
<path d="M265.284 172.73C257.509 170.883 249.736 169.025 241.961 167.179C234.709 165.453 227.462 163.553 220.107 162.265C212.752 160.977 206.07 160.493 199.015 161.376C191.959 162.26 185.385 164.378 179.229 167.587C176.178 169.181 173.286 171.055 170.56 173.157C167.835 175.259 165.225 177.532 163.481 180.481C160.327 185.812 161.26 192.535 164.307 197.702C168.03 204.013 174.407 208.396 180.355 212.424C186.303 216.452 192.703 220.157 199.265 223.326C212.173 229.567 225.917 233.837 239.881 236.987C246.815 238.552 253.809 239.855 260.814 241.028C267.82 242.201 275.102 243.427 282.288 244.232C289.475 245.038 296.888 245.156 304.105 243.754C311.322 242.352 318.113 239.713 324.24 235.866C327.121 234.056 329.896 231.84 331.535 228.79C332.813 226.408 333.36 223.69 333.292 220.989C333.137 215.105 330.514 209.65 327.48 204.741C323.906 198.962 319.634 193.473 314.313 189.195C310.159 185.859 305.421 183.468 300.472 181.539C291.118 177.893 281.08 176.152 271.309 174.012C267.827 173.253 264.351 172.471 260.881 171.667C259.345 171.313 258.683 173.678 260.227 174.028C271.126 176.552 282.237 178.464 292.975 181.592C296.868 182.725 300.681 184.103 304.34 185.862C309.901 188.536 314.645 192.211 318.711 196.85C322.776 201.488 326.445 206.815 328.835 212.477C330.833 217.214 331.936 223.083 329.275 227.794C327.615 230.724 324.783 232.705 321.94 234.381C318.935 236.157 315.766 237.676 312.48 238.872C305.883 241.269 298.928 242.446 291.91 242.39C284.891 242.333 277.86 241.231 270.899 240.155C263.939 239.08 257.218 237.973 250.419 236.664C236.99 234.073 223.648 230.732 210.893 225.732C204.412 223.19 198.118 220.193 192.057 216.769C185.995 213.346 179.881 209.459 174.379 205.046C169.412 201.061 164.633 195.916 164.015 189.279C163.74 186.316 164.388 183.456 166.056 180.977C167.868 178.283 170.572 176.127 173.164 174.224C184.145 166.19 197.673 162.506 211.211 163.546C218.08 164.076 224.827 165.613 231.514 167.195C238.893 168.943 246.273 170.711 253.656 172.466L264.622 175.076C266.155 175.441 266.817 173.076 265.276 172.715L265.284 172.73Z" fill="black"/>
<path d="M298.316 202.856C298.823 204.673 300.291 205.994 300.828 207.747C301.459 209.817 299.395 211.279 297.587 210.245C295.779 209.211 294.024 212.072 295.9 213.143C298.614 214.688 302.145 213.96 303.664 211.1C304.331 209.832 304.488 208.302 304.082 206.93C303.55 205.136 302.067 203.823 301.569 202.038C300.99 199.958 297.736 200.776 298.316 202.856Z" fill="#306605"/>
<path d="M281.744 212.803C282.291 213.384 283.634 214.701 283.03 215.544C282.644 216.085 281.586 216.409 281.012 216.734C280.071 217.267 279.131 217.799 278.186 218.324C276.305 219.389 277.954 222.304 279.836 221.239C281.264 220.43 282.729 219.668 284.137 218.823C285.159 218.217 286.075 217.423 286.41 216.239C287.029 214.05 285.539 211.954 284.117 210.446C282.695 208.938 280.264 211.242 281.741 212.814L281.744 212.803Z" fill="#306605"/>
<path d="M268.003 193.061C268.971 195.157 267.332 197.621 265.202 198.011C263.072 198.401 263.903 201.646 266.019 201.264C270.448 200.464 272.739 195.366 270.918 191.411C270.015 189.448 267.101 191.116 268.003 193.061Z" fill="#306605"/>
<path d="M249.863 201.26C250.636 202.339 251.346 203.444 251.95 204.629C252.455 205.604 253.391 207.074 253.375 208.202C253.341 210.42 248.778 210.699 247.205 211.504C245.279 212.49 246.936 215.401 248.855 214.419C251.648 212.99 255.885 213.123 256.667 209.278C257.311 206.079 254.517 202.029 252.782 199.599C251.536 197.867 248.609 199.495 249.866 201.248L249.863 201.26Z" fill="#306605"/>
<path d="M231.935 183.081C233.657 184.884 229.522 186.523 228.481 186.894C226.46 187.611 227.263 190.872 229.298 190.147C231.468 189.374 233.855 188.45 234.966 186.276C235.909 184.425 235.768 182.249 234.303 180.717C232.839 179.185 230.436 181.521 231.928 183.085L231.935 183.081Z" fill="#306605"/>
<path d="M219.567 197.474C221.64 199.429 218.567 202.173 217.184 203.43C215.588 204.883 217.957 207.259 219.552 205.806C221.147 204.353 222.783 202.755 223.345 200.616C223.858 198.658 223.445 196.522 221.943 195.106C220.44 193.691 217.987 195.989 219.567 197.474Z" fill="#306605"/>
<path d="M199.961 179.079C200.785 180.3 201.448 181.556 201.926 182.953L202.369 181.357C200.281 183.278 198.133 185.128 195.92 186.912C194.249 188.265 196.62 190.63 198.288 189.288C200.502 187.504 202.649 185.654 204.737 183.732C205.136 183.365 205.355 182.663 205.18 182.136C204.61 180.458 203.875 178.893 202.884 177.425C201.68 175.651 198.757 177.286 199.969 179.075L199.961 179.079Z" fill="#306605"/>
<path d="M184.088 191.048L185.493 193.078C185.705 193.385 185.916 193.692 186.132 194.006C186.247 194.159 186.359 194.323 186.463 194.491C186.724 194.951 186.775 194.59 186.622 193.397C186.364 193.277 184.808 194.196 184.505 194.33C183.663 194.702 182.81 195.071 181.968 195.443C179.992 196.305 181.66 199.219 183.618 198.358C184.749 197.86 185.872 197.366 187.007 196.876C187.957 196.461 189.071 196.134 189.551 195.123C190.031 194.112 189.638 193.216 189.058 192.359C188.383 191.367 187.697 190.39 187.015 189.402C185.801 187.643 182.867 189.275 184.1 191.051L184.088 191.048Z" fill="#306605"/>
<path d="M111.148 223.172C102.545 220.935 93.3182 223.315 85.4351 227.42C77.5479 231.515 74.4585 238.615 67.1276 243.645C64.8055 245.242 61.9961 246.06 59.3717 245.024C58.0838 244.512 55.3572 243.171 54.7358 242.385C51.6823 238.554 52.2455 234.739 53.441 231.956C54.725 229.003 54.5059 225.546 57.627 224.765C51.8834 231.946 44.1137 245.319 35.8429 241.042C29.4547 236.62 27.5793 230.955 30.9421 227.682C33.1658 225.986 35.5267 224.995 37.3594 224.96C29.0977 224.802 25.8158 229.986 17.5965 229.208C10.3448 228.516 10.1013 219.349 10.3279 217.564C10.7175 214.493 21.4302 208.085 24.3359 209.139C21.1183 207.48 10.6855 207.508 8.42176 204.693C6.15798 201.879 5.20473 197.653 7.17318 194.615C9.26271 191.382 14.4782 190.811 17.2214 193.522C9.5634 183.888 18.337 178.93 21.5216 178.613C29.4524 177.801 32.1697 184.998 37.7644 190.689C35.2851 188.08 36.352 183.353 39.3132 181.297C42.2745 179.242 46.3599 179.477 49.6387 180.978C52.9174 182.479 55.5694 185.034 58.1473 187.545C57.6106 185.518 56.4781 179.283 60.0578 177.981C68.0307 173.586 74.5627 181.542 81.3346 187.62C88.1066 193.698 93.6062 201.521 101.797 205.494C106.644 207.843 112.169 208.687 116.738 211.52C121.306 214.352 124.706 220.447 122.022 225.103C120.283 228.116 120.962 227.279 117.5 226.92C114.038 226.562 113.938 225.272 111.156 223.19" fill="#8FC740"/>
<path d="M111.683 221.787C106.045 220.368 100.226 220.638 94.6426 222.182C89.0594 223.725 83.6498 226.056 79.3238 229.821C74.9978 233.585 71.9452 238.076 67.5414 241.493C65.4417 243.123 62.8091 244.661 60.0739 243.696C57.9994 242.963 55.9466 241.958 54.9104 239.989C53.6148 237.534 53.8139 234.996 54.8262 232.491C55.312 231.291 55.5938 230.051 55.9781 228.82C56.2992 227.792 56.6785 226.574 57.8445 226.243L56.4137 223.902C52.5565 228.75 49.2669 234.385 44.3062 238.223C42.4067 239.688 40.0131 240.901 37.567 240.169C35.8497 239.65 34.3326 238.102 33.1768 236.776C32.1568 235.609 31.2355 234.246 30.9003 232.699C30.0755 228.886 34.2463 226.623 37.5678 226.443C39.233 226.35 39.196 223.501 37.5176 223.49C35.0067 223.476 32.6252 223.852 30.2463 224.655C28.295 225.311 26.4358 226.2 24.4926 226.875C21.0207 228.074 16.0954 228.757 13.619 225.414C12.1786 223.471 11.639 220.549 11.7403 218.284C11.7613 217.738 11.6698 217.877 11.8947 217.472C11.9679 217.341 12.4164 216.748 12.6665 216.473C13.6375 215.431 14.8326 214.573 16.0154 213.787C17.494 212.804 19.0699 211.942 20.7084 211.271C21.3474 211.009 21.9945 210.767 22.677 210.628C22.939 210.578 23.2102 210.523 23.4793 210.514C23.4254 210.516 24.0254 210.611 23.7828 210.532C25.627 211.115 26.5683 208.598 24.8524 207.762C22.4759 206.594 19.5376 206.43 16.9561 206.01C15.472 205.77 13.9787 205.535 12.5242 205.14C11.5782 204.881 10.3663 204.565 9.65944 203.882C7.59976 201.875 6.7531 197.667 8.5411 195.234C10.3291 192.802 14.1915 192.731 16.3325 194.725C17.5982 195.904 19.3593 193.855 18.3537 192.572C16.8158 190.607 15.3313 188.169 15.6899 185.571C15.9113 183.898 16.972 182.564 18.2576 181.59C19.3247 180.789 20.5377 180.219 21.7218 180.077C24.7023 179.72 27.2938 181.076 29.3504 183.151C31.9667 185.798 33.9995 188.956 36.5925 191.624C37.9036 192.979 40.1853 191.192 38.8966 189.739C37.5319 188.189 37.6158 186.008 38.5795 184.258C39.6938 182.255 41.948 181.344 44.1625 181.282C49.3938 181.141 53.4807 185.084 56.9714 188.47C57.8922 189.364 60.0047 188.898 59.5954 187.308C59.069 185.255 58.5089 182.485 59.4353 180.477C59.9485 179.364 61.2822 178.894 62.3823 178.538C63.6641 178.123 65.0319 178.075 66.3484 178.356C69.2475 178.975 71.7469 180.963 73.9377 182.847C76.5809 185.11 79.1406 187.531 81.6608 189.937C87.5246 195.52 92.6083 202.182 99.8245 206.127C103.474 208.12 107.488 209.131 111.359 210.588C114.787 211.881 118.022 213.63 120.009 216.83C120.895 218.264 121.536 219.981 121.47 221.684C121.439 222.529 121.227 223.334 120.856 224.1C120.643 224.533 120.381 224.955 120.129 225.373C120.08 225.46 119.601 226.033 119.914 225.851C120.2 225.681 119.944 225.794 119.687 225.733C119.297 225.643 118.888 225.584 118.492 225.529C117.567 225.392 116.587 225.378 115.72 224.975C114.313 224.318 113.229 222.906 112.005 221.972C110.484 220.808 108.741 223.221 110.263 224.384C111.521 225.347 112.589 226.624 113.977 227.409C115.599 228.331 117.542 228.422 119.36 228.699C121.005 228.955 121.899 228.209 122.706 226.845C123.693 225.172 124.427 223.546 124.439 221.572C124.456 217.758 122.327 214.261 119.555 211.781C116.216 208.787 111.681 207.536 107.529 206.138C102.963 204.595 98.9833 202.475 95.3208 199.318C91.6583 196.161 88.723 192.769 85.4425 189.486C82.5553 186.598 79.5117 183.801 76.4548 181.098C73.8837 178.824 70.9919 176.518 67.6088 175.621C65.8133 175.148 63.9634 175.07 62.1596 175.541C60.3557 176.012 58.4266 176.768 57.3323 178.248C55.4202 180.845 55.9189 184.835 56.6687 187.762L59.2927 186.6C54.7444 182.183 49.1236 177.149 42.2185 178.523C39.2855 179.111 36.813 180.863 35.6003 183.631C34.4436 186.254 34.6752 189.444 36.6057 191.629L38.9098 189.744C33.946 184.637 30.2417 176.719 22.0179 177.092C17.9126 177.28 13.7995 180.513 12.8858 184.549C12.067 188.182 13.8953 191.692 16.0708 194.48L18.092 192.327C15.8527 190.235 12.5035 189.859 9.69382 190.874C6.65253 191.959 4.71569 194.895 4.63864 198.079C4.56405 200.923 5.6937 204.535 8.01252 206.362C10.0159 207.946 12.9609 208.348 15.3992 208.766C18.1259 209.243 21.2927 209.306 23.8092 210.542L24.8787 207.772C22.0379 206.865 18.5193 208.872 16.1539 210.248C13.6411 211.711 10.0289 213.803 9.00996 216.737C8.64718 217.795 8.76641 219.076 8.8676 220.169C9.00973 221.823 9.38842 223.493 10.0333 225.022C10.7551 226.726 11.8944 228.31 13.4588 229.324C15.5528 230.693 18.0463 230.89 20.4843 230.74C26.3616 230.378 31.2341 226.415 37.2002 226.452L37.15 223.5C33.2945 223.709 28.646 226.326 27.915 230.379C27.1841 234.433 29.9079 237.94 32.6311 240.409C34.1646 241.796 35.738 242.904 37.7987 243.26C39.3712 243.526 40.9859 243.27 42.467 242.712C45.8618 241.438 48.559 238.614 50.8824 235.933C53.7173 232.654 56.1332 229.047 58.8301 225.654C59.5674 224.725 58.6568 222.941 57.3993 223.312C54.5899 224.13 53.6237 226.221 52.8874 228.855C52.2255 231.237 51.052 233.452 50.9931 235.961C50.9288 238.68 51.9087 241.855 53.9655 243.733C55.5588 245.182 58.1647 246.423 60.2721 246.834C66.4479 248.036 71.7128 242.095 75.4431 238.047C77.4379 235.884 79.382 233.656 81.6465 231.756C84.0605 229.724 86.8007 228.28 89.6919 227.054C96.2149 224.274 103.603 222.806 110.599 224.574C112.435 225.041 113.527 222.271 111.668 221.804L111.683 221.787Z" fill="black"/>
<path d="M101.102 215.678C101.102 215.678 97.2466 249.541 147.204 250.916C193.522 252.197 255.352 248.673 279.416 236.8C281.9 235.569 282.164 232.116 279.863 230.576C246.163 207.978 161.284 185.542 133.781 185.552C104.957 185.567 101.102 215.678 101.102 215.678Z" fill="#FC751A"/>
<path d="M99.619 215.515C99.0584 220.521 100.408 226.037 102.517 230.527C107.912 242.039 119.616 248.142 131.59 250.68C141.064 252.684 150.843 252.564 160.484 252.624C170.316 252.698 180.154 252.562 189.975 252.215C208.93 251.551 227.961 250.241 246.69 247.217C254.273 245.99 261.825 244.472 269.194 242.268C272.15 241.386 275.062 240.38 277.887 239.151C279.35 238.503 280.944 237.906 281.933 236.582C283.098 235.016 283.246 232.806 282.292 231.096C281.479 229.63 279.918 228.823 278.548 227.953C277.287 227.156 276.007 226.389 274.712 225.639C271.787 223.949 268.803 222.372 265.788 220.875C259.111 217.554 252.26 214.606 245.337 211.866C229.978 205.785 214.219 200.702 198.304 196.279C183.932 192.277 169.376 188.75 154.66 186.267C149.249 185.361 143.792 184.573 138.32 184.219C131.522 183.785 124.646 184.337 118.462 187.438C108.44 192.467 102.327 202.766 99.9881 213.459C99.84 214.137 99.696 214.825 99.6149 215.506C99.3648 217.41 102.331 217.737 102.572 215.836C102.901 213.295 103.504 211.322 104.395 208.817C106.177 203.827 108.851 199.023 112.634 195.269C117.789 190.164 124.512 187.492 131.722 187.076C136.606 186.794 141.584 187.389 146.425 188.023C159.743 189.768 172.938 192.717 185.946 196.033C201.44 199.975 216.782 204.587 231.842 209.968C245.392 214.805 258.945 220.166 271.514 227.208C274.031 228.62 276.669 230.032 278.988 231.761C280.364 232.793 280.197 234.638 278.717 235.469C277.568 236.109 276.287 236.6 275.059 237.089C268.932 239.552 262.468 241.157 256.013 242.485C238.735 246.048 221.027 247.625 203.435 248.626C184.626 249.695 165.731 250.026 146.902 249.42C133.178 248.981 117.285 246.014 108.377 234.472C106.009 231.398 104.202 227.539 103.346 224.003C102.996 222.572 102.752 221.105 102.614 219.635C102.561 219.046 102.525 218.471 102.504 217.879C102.491 217.677 102.497 217.543 102.492 217.852C102.493 217.731 102.489 217.623 102.494 217.512C102.494 217.315 102.495 217.118 102.504 216.917C102.511 216.563 102.524 216.197 102.563 215.841C102.778 213.93 99.8204 213.599 99.6058 215.51L99.619 215.515Z" fill="black"/>
<path d="M136.318 239.847C135.571 235.42 136.324 231.291 138.394 227.323C139.431 225.343 137.941 222.722 136.024 221.974C133.742 221.093 131.709 222.355 130.676 224.343C128.001 229.465 127.174 235.377 128.14 241.063C129.032 246.311 137.21 245.095 136.318 239.847Z" fill="#D66112"/>
<path d="M168.971 215.539C168.938 215.488 169.414 213.057 169.465 212.728C169.629 211.715 169.849 210.731 170.137 209.751C170.79 207.548 171.69 205.454 172.769 203.423C173.849 201.391 172.303 198.839 170.4 198.074C168.128 197.166 166.097 198.482 165.051 200.443C162.154 205.926 158.634 215.141 162.566 220.783C165.604 225.146 172.005 219.894 168.962 215.543L168.971 215.539Z" fill="#D66112"/>
<path d="M197.894 242.364C196.592 238.117 196.905 233.614 198.446 229.487C200.304 224.497 192.595 221.513 190.728 226.507C188.377 232.831 188.366 239.3 190.332 245.713C190.993 247.871 193.908 248.625 195.781 247.817C198.033 246.852 198.538 244.485 197.885 242.368L197.894 242.364Z" fill="#D66112"/>
<path d="M227.846 229.194C227.11 224.839 227.881 220.506 230.294 216.768C233.165 212.314 226.48 207.444 223.589 211.929C220.028 217.444 218.58 223.904 219.668 230.411C220.551 235.663 228.729 234.447 227.846 229.194Z" fill="#D66112"/>
</g>
<defs>
<clipPath id="clip0_859_778">
<rect width="349" height="284" fill="white"/>
</clipPath>
</defs>
</svg>
