<svg width="87" height="116" viewBox="0 0 87 116" fill="none" xmlns="http://www.w3.org/2000/svg">
    <defs>
        <symbol id="eye-open">
            <path d="M18 51H21V54H18V51ZM21 51H24V54H21V51ZM27 51H30V54H27V51ZM30 51H33V54H30V51ZM27 54H30V57H27V54ZM24 54H27V57H24V54ZM24 51H27V54H24V51ZM21 54H24V57H21V54Z" fill="#3B3A3C"/>
            <path d="M18 51H21V54H18V51ZM21 51H24V54H21V51ZM21 48H24V51H21V48ZM24 48H27V51H24V48ZM27 48H30V51H27V48ZM27 51H30V54H27V51ZM30 51H33V54H30V51ZM27 54H30V57H27V54ZM24 54H27V57H24V54ZM24 51H27V54H24V51Z" fill="#3B3A3C"/>
            <path d="M24 51H27V54H24V51Z" fill="#B3C497"/>
            <path d="M21 54H24V57H21V54Z" fill="#3B3A3C"/>
        </symbol>
        <symbol id="eye-close">
            <path d="M18 51H21V54H18V51ZM21 51H24V54H21V51ZM27 51H30V54H27V51ZM30 51H33V54H30V51ZM27 54H30V57H27V54ZM24 54H27V57H24V54ZM24 51H27V54H24V51ZM21 54H24V57H21V54Z" fill="#3B3A3C"/>
            <path d="M21 54H24V57H21V54Z" fill="#3B3A3C"/>
        </symbol>
        <style>
            @keyframes tonque{0%,30%{transform:translateY(0)}to{transform:translateY(4px)}}@keyframes
            eyes{0%,90%{opacity:1}to{opacity:0}}.eye-open{animation:eyes 3s steps(1,start) infinite}
        </style>
    </defs>
    <path d="M15 99H18V102H15V99ZM18 102H69V116H18V102ZM15 96H18V99H15V96ZM15 93H18V96H15V93ZM12 90H15V93H12V90ZM9 87H12V90H9V87ZM9 84H12V87H9V84ZM6 81H9V84H6V81ZM12 93H15V96H12V93ZM6 84H9V87H6V84ZM3 81H6V84H3V81ZM3 75H6V78H3V75ZM3 69H6V72H3V69ZM6 60H9V63H6V60ZM6 54H9V57H6V54ZM36 48H39V51H36V48ZM46 48H49V51H46V48ZM36 51H39V54H36V51ZM46 51H49V54H46V51ZM46 54H49V57H46V54ZM49 57H52V60H49V57ZM36 54H39V57H36V54ZM33 57H36V60H33V57ZM30 60H33V63H30V60ZM27 63H30V66H27V63ZM52 60H55V63H52V60ZM55 63H58V66H55V63ZM58 66H61V69H58V66ZM24 66H27V69H24V66ZM58 69H61V72H58V69ZM24 69H27V72H24V69ZM58 72H61V75H58V72ZM61 72H64V75H61V72ZM18 69H21V72H18V69ZM64 69H67V72H64V69ZM21 72H24V75H21V72ZM24 72H27V75H24V72ZM58 75H61V78H58V75ZM24 75H27V78H24V75ZM55 78H58V81H55V78ZM41 72H44V75H41V72ZM41 75H44V78H41V75Z"
          fill="#3B3A3C"/>
    <path d="M43 107H46V110H43V107ZM40 104H43V113H40V104ZM46 110H49V113H46V110ZM46 104H49V107H46V104Z" fill="#B3C497"/>
    <path d="M41 78H44V81H41V78ZM44 72H47V75H44V72ZM38 72H41V75H38V72ZM35 69H38V72H35V69ZM35 66H38V69H35V66ZM38 66H47V72H38V66ZM47 69H50V72H47V69ZM47 66H50V69H47V66ZM52 81H55V84H52V81ZM27 78H30V81H27V78ZM30 81H33V84H30V81ZM33 81H52V84H33V81ZM6 63H9V66H6V63ZM3 78H6V81H3V78ZM3 72H6V75H3V72ZM3 66H6V69H3V66ZM6 57H9V60H6V57ZM6 51H9V54H6V51ZM36 45H39V48H36V45ZM46 45H49V48H46V45ZM6 48H9V51H6V48ZM36 42H39V45H36V42ZM46 42H49V45H46V42ZM9 45H12V48H9V45ZM12 42H15V45H12V42ZM15 39H18V42H15V39ZM18 36H21V39H18V36ZM18 33H21V36H18V33ZM21 33H24V36H21V33ZM24 30H27V33H24V30ZM27 27H30V30H27V27ZM57 27H60V30H57V27ZM60 30H63V33H60V30ZM63 33H66V36H63V33ZM66 33H69V36H66V33ZM66 36H69V39H66V36ZM69 39H72V42H69V39ZM72 42H75V45H72V42ZM75 45H78V48H75V45ZM78 48H81V51H78V48ZM78 54H81V57H78V54ZM81 66H84V69H81V66ZM78 51H81V54H78V51ZM78 57H81V60H78V57ZM81 69H84V72H81V69ZM78 60H81V63H78V60ZM81 72H84V75H81V72ZM78 63H81V66H78V63ZM81 75H84V78H81V75ZM78 78H81V81H78V78ZM78 81H81V84H78V81ZM75 84H78V87H75V84ZM75 87H78V90H75V87ZM72 90H75V93H72V90ZM69 93H72V96H69V93ZM69 96H72V99H69V96ZM69 99H72V102H69V99ZM30 24H33V27H30V24ZM27 21H30V24H27V21ZM27 24H30V27H27V24ZM57 21H60V27H57V21ZM24 15H27V18H24V15ZM24 18H27V30H24V18ZM60 15H63V30H60V15ZM21 9H24V12H21V9ZM63 9H66V12H63V9ZM18 3H21V6H18V3ZM66 3H69V6H66V3ZM3 3H6V6H3V3ZM81 3H84V6H81V3ZM0 9H3V12H0V9ZM84 9H87V12H84V9ZM0 15H3V18H0V15ZM84 15H87V18H84V15ZM0 21H3V24H0V21ZM84 21H87V24H84V21ZM0 27H3V30H0V27ZM84 27H87V30H84V27ZM0 33H3V36H0V33ZM84 33H87V36H84V33ZM3 39H6V42H3V39ZM81 39H84V42H81V39ZM3 42H6V45H3V42ZM81 42H84V45H81V42ZM3 45H6V48H3V45ZM81 45H84V48H81V45ZM27 18H30V21H27V18ZM57 18H60V21H57V18ZM24 12H27V15H24V12ZM60 12H63V15H60V12ZM21 6H24V9H21V6ZM63 6H66V9H63V6ZM0 6H3V9H0V6ZM84 6H87V9H84V6ZM0 12H3V15H0V12ZM84 12H87V15H84V12ZM0 18H3V21H0V18ZM84 18H87V21H84V18ZM0 24H3V27H0V24ZM84 24H87V27H84V24ZM0 30H3V33H0V30ZM84 30H87V33H84V30ZM3 36H6V39H3V36ZM81 36H84V39H81V36ZM15 0H18V3H15V0ZM69 0H72V3H69V0ZM12 0H15V3H12V0ZM72 0H75V3H72V0ZM9 0H12V3H9V0ZM75 0H78V3H75V0ZM6 0H9V3H6V0ZM78 0H81V3H78V0ZM36 24H39V27H36V24ZM42 24H45V27H42V24ZM48 24H51V27H48V24ZM33 24H36V27H33V24ZM39 24H42V27H39V24ZM45 24H48V27H45V24ZM51 24H54V27H51V24ZM54 24H57V27H54V24Z"
          fill="#3B3A3C"/>
   <g>
    <g style="animation:tonque 1s steps(2,end) infinite">
        <path d="M35 84H38V87H35V84ZM35 87H38V90H35V87ZM35 90H38V93H35V90ZM50 90H53V93H50V90ZM38 93H41V96H38V93ZM41 93H44V96H41V93ZM44 93H47V96H44V93ZM47 93H50V96H47V93ZM50 87H53V90H50V87ZM50 84H53V87H50V84ZM43 84H46V87H43V84ZM43 87H46V90H43V87ZM35 81H38V84H35V81ZM50 81H53V84H50V81ZM43 81H46V84H43V81Z" fill="#3B3A3C"/>
    </g>
    <g>
        <use href="#eye-close"/>
        <use class="eye-open" href="#eye-open"/>
    </g>
    <g transform="translate(33)">
        <use href="#eye-close"/>
        <use class="eye-open" href="#eye-open"/>
    </g>
   </g>
</svg>
