<svg width="79" height="40" viewBox="0 0 79 40" fill="none" xmlns="http://www.w3.org/2000/svg">
<g filter="url(#filter0_b_525_21269)">
<rect width="78" height="39" rx="19.5" fill="#19191C" fill-opacity="0.1"/>
<path d="M25.7699 14.8H30.2979C31.0126 14.8 31.6393 14.9333 32.1779 15.2C32.7219 15.4667 33.1406 15.8453 33.4339 16.336C33.7326 16.8267 33.8819 17.3973 33.8819 18.048C33.8819 18.6987 33.7299 19.272 33.4259 19.768C33.1273 20.2587 32.7033 20.64 32.1539 20.912C31.6046 21.1787 30.9646 21.312 30.2339 21.312H27.0979V26H25.7699V14.8ZM30.2979 20.072C30.7353 20.072 31.1166 19.9893 31.4419 19.824C31.7726 19.6587 32.0259 19.424 32.2019 19.12C32.3833 18.816 32.4739 18.4587 32.4739 18.048C32.4739 17.6427 32.3833 17.288 32.2019 16.984C32.0259 16.68 31.7726 16.448 31.4419 16.288C31.1166 16.1227 30.7353 16.04 30.2979 16.04H27.0979V20.072H30.2979ZM35.6927 14.8H36.9727V26H35.6927V14.8ZM42.6828 17.616C43.3015 17.616 43.8455 17.7307 44.3148 17.96C44.7841 18.184 45.1468 18.5147 45.4028 18.952C45.6641 19.384 45.7948 19.8987 45.7948 20.496V26H44.5468V24.664C44.3175 25.16 43.9815 25.5387 43.5388 25.8C43.0961 26.0613 42.5708 26.192 41.9628 26.192C41.4401 26.192 40.9681 26.0907 40.5468 25.888C40.1255 25.6853 39.7948 25.4053 39.5548 25.048C39.3148 24.6907 39.1948 24.2853 39.1948 23.832C39.1948 23.4053 39.3041 23.0133 39.5228 22.656C39.7468 22.2933 40.0535 21.9973 40.4428 21.768C40.8375 21.5387 41.2801 21.3973 41.7708 21.344L43.9548 21.104C44.1361 21.0827 44.2775 21.008 44.3788 20.88C44.4801 20.752 44.5308 20.5653 44.5308 20.32C44.5308 19.9947 44.4535 19.7093 44.2988 19.464C44.1441 19.2187 43.9255 19.0293 43.6428 18.896C43.3655 18.7573 43.0428 18.688 42.6748 18.688C42.3068 18.688 41.9761 18.752 41.6828 18.88C41.3895 19.0027 41.1521 19.1707 40.9708 19.384C40.7948 19.592 40.6881 19.8187 40.6508 20.064H39.3708C39.4348 19.6 39.6161 19.184 39.9148 18.816C40.2188 18.4427 40.6108 18.1493 41.0908 17.936C41.5708 17.7227 42.1015 17.616 42.6828 17.616ZM40.5228 23.76C40.5228 24.0373 40.5948 24.2827 40.7388 24.496C40.8881 24.7093 41.0935 24.8773 41.3548 25C41.6161 25.1173 41.9148 25.176 42.2508 25.176C42.7095 25.176 43.1095 25.0827 43.4508 24.896C43.7975 24.7093 44.0641 24.448 44.2508 24.112C44.4375 23.7707 44.5308 23.3787 44.5308 22.936V22L41.9468 22.288C41.5201 22.336 41.1761 22.496 40.9148 22.768C40.6535 23.04 40.5228 23.3707 40.5228 23.76ZM47.8712 27.424H48.8872C49.1272 27.424 49.3405 27.3573 49.5272 27.224C49.7139 27.0907 49.8579 26.9173 49.9592 26.704L50.4792 25.608L47.2392 17.808H48.5992L51.1272 23.976L53.4472 17.808H54.7912L51.2392 26.784C51.0152 27.3547 50.7245 27.792 50.3672 28.096C50.0099 28.4053 49.5299 28.56 48.9272 28.56H47.8712V27.424Z" fill="#19191C"/>
<rect x="0.5" y="0.5" width="78" height="39" rx="19.5" stroke="#19191C" stroke-opacity="0.4"/>
</g>
<defs>
<filter id="filter0_b_525_21269" x="-8" y="-8" width="95" height="56" filterUnits="userSpaceOnUse" color-interpolation-filters="sRGB">
<feFlood flood-opacity="0" result="BackgroundImageFix"/>
<feGaussianBlur in="BackgroundImageFix" stdDeviation="4"/>
<feComposite in2="SourceAlpha" operator="in" result="effect1_backgroundBlur_525_21269"/>
<feBlend mode="normal" in="SourceGraphic" in2="effect1_backgroundBlur_525_21269" result="shape"/>
</filter>
</defs>
</svg>
