<?xml version="1.0" encoding="utf-8"?>
<svg width="346" height="249" viewBox="0 0 346 249" fill="none" xmlns="http://www.w3.org/2000/svg">
  <defs/>
  <path d="M103.586 127.467L100.168 128.655C99.8263 128.776 99.5125 129.173 99.3968 129.493C99.2709 129.84 99.275 130.299 99.4532 130.63C99.6314 130.96 99.9207 131.277 100.291 131.401L100.684 131.49C100.943 131.509 101.194 131.462 101.434 131.357L104.852 130.169C105.194 130.048 105.507 129.651 105.623 129.332C105.749 128.984 105.745 128.525 105.567 128.195C105.388 127.864 105.099 127.547 104.729 127.424L104.336 127.334C104.077 127.315 103.826 127.363 103.586 127.467Z" fill="#FC7E0B"/>
  <path d="M281.983 172.605C304.389 172.605 322.553 154.442 322.553 132.036C322.553 109.629 304.389 91.4655 281.983 91.4655C259.577 91.4655 241.413 109.629 241.413 132.036C241.413 154.442 259.577 172.605 281.983 172.605Z" fill="#C3EA78"/>
  <path d="M321.063 132.036C320.993 148.226 310.733 163.176 295.443 168.736C279.963 174.366 262.333 169.546 251.813 156.896C241.323 144.276 240.053 125.786 248.533 111.786C256.993 97.8256 273.773 90.4255 289.793 93.7255C305.593 96.9755 318.003 109.956 320.583 125.876C320.913 127.906 321.043 129.966 321.053 132.026C321.053 133.936 324.033 133.946 324.033 132.026C323.963 114.496 312.853 98.5655 296.393 92.5055C279.873 86.4255 260.643 91.6856 249.503 105.306C238.343 118.946 236.813 138.646 245.973 153.766C255.093 168.816 273.013 176.656 290.263 173.266C307.243 169.926 320.883 155.746 323.513 138.636C323.853 136.446 324.033 134.246 324.043 132.026C324.043 130.106 321.073 130.106 321.063 132.026V132.036Z" fill="black"/>
  <path d="M277.563 121.245C277.393 121.245 277.183 121.195 277.033 121.095C277.083 121.125 276.503 120.495 276.633 120.705C276.633 120.705 276.483 120.325 276.533 120.515C276.413 120.115 276.503 120.205 276.503 120.355C276.503 120.565 276.493 120.775 276.473 120.985C276.463 121.215 276.453 121.445 276.473 121.675C276.513 122.075 276.633 122.385 276.723 122.775C276.743 122.855 276.753 122.935 276.773 123.025C276.823 123.235 276.773 122.785 276.773 123.005C276.773 123.175 276.793 123.345 276.803 123.515C276.803 123.885 276.803 124.255 276.783 124.615C276.753 125.395 276.733 126.175 276.703 126.965C276.673 127.755 277.403 128.485 278.193 128.455C279.023 128.415 279.653 127.805 279.683 126.965C279.743 125.175 280.003 123.275 279.463 121.535C279.453 121.485 279.443 121.405 279.423 121.365C279.443 121.405 279.443 121.735 279.453 121.535C279.453 121.395 279.453 121.265 279.453 121.125C279.463 120.865 279.503 120.595 279.483 120.335C279.433 119.205 278.733 118.345 277.563 118.295C276.783 118.255 276.043 119.005 276.073 119.785C276.113 120.625 276.723 121.235 277.563 121.275V121.245Z" fill="#69AA31"/>
  <path d="M288.183 121.556C287.773 122.446 287.303 123.316 286.773 124.136C286.513 124.546 286.233 124.935 285.943 125.325C285.913 125.375 285.873 125.425 285.833 125.465C285.873 125.425 286.023 125.216 285.903 125.376C285.833 125.466 285.753 125.556 285.683 125.646C285.513 125.846 285.343 126.046 285.173 126.246C284.663 126.826 284.553 127.786 285.173 128.346C285.733 128.866 286.733 128.966 287.273 128.346C288.673 126.756 289.863 124.986 290.743 123.056C290.913 122.686 291.003 122.316 290.893 121.906C290.793 121.556 290.533 121.186 290.213 121.016C289.563 120.666 288.523 120.796 288.173 121.546L288.183 121.556Z" fill="#69AA31"/>
  <path d="M268.373 137.766C268.763 137.526 269.173 137.306 269.593 137.126L269.233 137.276C269.953 136.976 270.693 136.766 271.463 136.656L271.063 136.706C271.573 136.636 272.093 136.616 272.613 136.626C273.393 136.656 274.133 135.926 274.103 135.136C274.063 134.306 273.453 133.676 272.613 133.646C270.613 133.576 268.563 134.116 266.863 135.186C266.203 135.596 265.883 136.536 266.333 137.226C266.783 137.916 267.663 138.196 268.373 137.756V137.766Z" fill="#69AA31"/>
  <path d="M273.393 146.245C274.723 144.905 275.973 143.495 277.133 142.005C277.383 141.685 277.573 141.385 277.573 140.955C277.573 140.585 277.413 140.156 277.133 139.906C276.853 139.656 276.473 139.455 276.083 139.465C275.713 139.485 275.263 139.596 275.033 139.906C273.873 141.396 272.623 142.806 271.293 144.146C270.743 144.696 270.703 145.705 271.293 146.245C271.883 146.785 272.813 146.835 273.393 146.245Z" fill="#69AA31"/>
  <path d="M292.233 145.346C290.583 143.836 288.933 142.326 287.283 140.806C286.713 140.276 285.743 140.196 285.183 140.806C284.653 141.376 284.573 142.346 285.183 142.906C286.833 144.416 288.483 145.926 290.133 147.446C290.703 147.976 291.673 148.056 292.233 147.446C292.763 146.876 292.843 145.906 292.233 145.346Z" fill="#69AA31"/>
  <path d="M289.933 137.096C291.633 138.016 293.323 138.946 295.023 139.866C295.703 140.236 296.673 140.055 297.063 139.335C297.453 138.615 297.263 137.696 296.533 137.296C294.833 136.376 293.143 135.446 291.443 134.526C290.763 134.156 289.793 134.336 289.403 135.056C289.013 135.776 289.203 136.696 289.933 137.096Z" fill="#69AA31"/>
  <path d="M136.972 177.604C159.378 177.604 177.542 159.44 177.542 137.034C177.542 114.628 159.378 96.4637 136.972 96.4637C114.566 96.4637 96.4019 114.628 96.4019 137.034C96.4019 159.44 114.566 177.604 136.972 177.604Z" fill="#C3EA78"/>
  <path d="M154.672 171.874C140.182 179.204 122.182 176.724 110.292 165.614C98.4018 154.504 94.5618 136.464 101.112 121.464C107.662 106.464 123.402 96.8839 139.812 98.0539C156.222 99.2239 170.332 110.934 174.672 126.714C179.012 142.494 173.012 159.234 160.022 168.614C158.322 169.834 156.542 170.924 154.682 171.874C152.982 172.754 154.482 175.324 156.182 174.444C171.652 166.464 180.892 149.254 178.722 131.924C176.552 114.594 163.322 99.7638 146.072 95.9638C128.822 92.1638 110.552 99.8338 101.232 114.864C91.9118 129.894 93.1918 149.434 104.092 163.244C114.992 177.054 133.622 182.424 150.052 177.004C152.162 176.314 154.202 175.434 156.182 174.444C157.892 173.584 156.382 171.014 154.682 171.874H154.672Z" fill="black"/>
  <path d="M144.612 128.264C144.412 127.834 144.432 127.484 144.612 127.144C144.792 126.804 144.852 126.874 144.722 126.974C144.752 126.954 145.072 126.744 144.872 126.844C144.672 126.944 144.472 127.044 144.272 127.124C144.072 127.204 143.862 127.304 143.672 127.424C143.352 127.624 143.122 127.884 142.852 128.124C142.832 128.144 142.802 128.164 142.782 128.194C142.702 128.264 142.732 128.234 142.892 128.114C142.862 128.174 142.742 128.224 142.692 128.254C142.552 128.344 142.412 128.434 142.262 128.514C141.952 128.684 141.622 128.844 141.292 128.994C140.532 129.354 139.782 129.704 139.022 130.064C138.312 130.394 138.082 131.464 138.492 132.104C138.962 132.834 139.772 132.994 140.532 132.634C141.382 132.234 142.242 131.834 143.092 131.434C143.862 131.064 144.672 130.624 145.242 129.974C145.402 129.794 145.132 130.084 145.092 130.074C145.112 130.074 145.222 129.984 145.252 129.974C145.362 129.904 145.492 129.844 145.612 129.794C145.852 129.684 146.092 129.594 146.322 129.474C146.682 129.274 147.022 128.984 147.222 128.624C147.552 128.014 147.482 127.394 147.202 126.784C146.872 126.074 145.792 125.844 145.162 126.254C144.432 126.724 144.282 127.534 144.632 128.294L144.612 128.264Z" fill="#69AA31"/>
  <path d="M149.042 137.784C148.062 137.824 147.092 137.804 146.112 137.704C146.002 137.694 145.892 137.684 145.772 137.664C145.702 137.664 145.622 137.644 145.552 137.634L145.722 137.654C145.462 137.634 145.202 137.574 144.942 137.534C144.462 137.444 143.982 137.344 143.512 137.224C142.762 137.034 141.862 137.474 141.682 138.264C141.502 139.054 141.912 139.894 142.722 140.094C144.772 140.614 146.912 140.844 149.032 140.754C149.812 140.724 150.562 140.094 150.522 139.264C150.492 138.484 149.862 137.744 149.032 137.774L149.042 137.784Z" fill="#69AA31"/>
  <path d="M125.732 127.554C126.032 127.734 126.312 127.924 126.592 128.134L126.292 127.904C126.892 128.364 127.422 128.904 127.882 129.494L127.652 129.194C128.052 129.714 128.382 130.274 128.662 130.864C128.812 131.184 129.222 131.454 129.552 131.544C129.912 131.644 130.382 131.594 130.702 131.394C131.022 131.194 131.302 130.884 131.382 130.504C131.472 130.094 131.412 129.734 131.232 129.354C130.392 127.544 128.952 126.004 127.242 124.974C126.572 124.574 125.582 124.804 125.202 125.504C124.822 126.204 125.022 127.114 125.732 127.544V127.554Z" fill="#69AA31"/>
  <path d="M120.472 135.874C122.272 136.454 124.092 136.914 125.942 137.274C126.702 137.424 127.582 137.064 127.772 136.234C127.942 135.494 127.552 134.564 126.732 134.404C124.882 134.044 123.052 133.574 121.262 133.004C120.522 132.764 119.602 133.284 119.432 134.044C119.242 134.854 119.682 135.624 120.472 135.874Z" fill="#69AA31"/>
  <path d="M129.792 152.154C130.392 149.994 130.982 147.844 131.582 145.684C131.792 144.934 131.322 144.034 130.542 143.854C129.762 143.674 128.932 144.094 128.712 144.894C128.112 147.054 127.522 149.204 126.922 151.364C126.712 152.114 127.182 153.014 127.962 153.194C128.742 153.374 129.572 152.954 129.792 152.154Z" fill="#69AA31"/>
  <path d="M136.082 146.504C136.032 148.434 135.982 150.364 135.932 152.294C135.912 153.074 136.632 153.814 137.422 153.784C138.212 153.754 138.892 153.134 138.912 152.294C138.962 150.364 139.012 148.434 139.062 146.504C139.082 145.724 138.362 144.984 137.572 145.014C136.782 145.044 136.102 145.664 136.082 146.504Z" fill="#69AA31"/>
</svg>