<svg width="346" height="249" viewBox="0 0 346 249" fill="none" xmlns="http://www.w3.org/2000/svg">
<path d="M133.243 113.908C121.442 90.2161 99.5 82.0018 89.6717 90.1441C82 96.4999 75.1112 106.994 69.7729 111C59.881 118.423 56.0188 119.562 46 123.5C33.3182 128.484 24.7322 129.74 22.0779 138.374C17.7646 152.405 44.0036 180.872 69.7729 189.764C95.5422 198.657 127.014 170.89 131.661 164.912C136.308 158.934 147.993 143.524 133.243 113.908Z" fill="#E50A0A" stroke="black" stroke-width="3"/>
<path d="M67.1482 133.043C71.4863 133.756 75.9864 134.464 80.077 133.255C84.1676 132.045 87.7103 128.291 87.1939 123.929C86.776 120.407 83.8823 116.949 84.8936 113.649C85.6209 111.277 88.1309 110.041 90.5135 109.366C98.2803 107.191 107.355 108.751 114.061 113.948C120.767 119.145 124.743 127.984 123.473 136.028C122.263 143.578 116.957 149.519 111.422 154.536C107.279 158.309 102.849 161.832 97.8107 164.368C80.6471 173.029 57.0411 168.059 43.3277 152.926C41.7945 151.237 40.3038 149.251 40.2581 147.043C40.2178 145.197 41.2003 143.563 42.2253 142.096C45.1144 137.936 48.6705 134.088 53.2682 131.917C57.8659 129.746 62.4988 130.321 67.1296 133.04L67.1482 133.043Z" fill="#BF0822"/>
<path d="M104.287 141.175C103.519 140.373 102.754 139.553 101.93 138.809C101.677 138.583 101.414 138.366 101.173 138.132L101.654 138.618C101.024 137.978 100.463 137.253 99.8892 136.554C99.4694 136.039 98.8876 135.662 98.2101 135.556C97.5965 135.469 96.8128 135.641 96.3189 136.045C95.8249 136.449 95.3974 137.052 95.3205 137.724C95.2436 138.396 95.3739 139.079 95.8097 139.616C96.5776 140.55 97.3243 141.501 98.2038 142.319C98.7405 142.813 99.2799 143.289 99.7847 143.806L99.3038 143.32C99.6014 143.629 99.891 143.926 100.189 144.234C100.675 144.749 101.142 145.129 101.868 145.232C102.481 145.32 103.265 145.147 103.759 144.743C104.253 144.339 104.68 143.736 104.757 143.064C104.818 142.437 104.73 141.656 104.268 141.173L104.287 141.175Z" fill="#FC7E0B"/>
<path d="M91.9901 151.764C91.5086 149.22 90.8625 146.699 90.0358 144.247C89.6078 142.991 87.9474 142.261 86.7309 142.808C85.4241 143.39 84.84 144.759 85.2919 146.113C85.7438 147.468 86.124 148.727 86.4643 150.066L86.2995 149.425C86.5414 150.39 86.7515 151.378 86.9351 152.353C87.0654 153.035 87.3498 153.636 87.9131 154.076C88.3913 154.448 89.1537 154.69 89.7647 154.597C90.4234 154.501 91.0848 154.187 91.4885 153.619C91.8576 153.093 92.1257 152.41 92.0087 151.767L91.9901 151.764Z" fill="#FC7E0B"/>
<path d="M77.9862 154.767C78.007 152.891 78.0171 151.024 78.0379 149.148C78.0113 148.803 77.905 148.484 77.7163 148.211C77.5808 147.897 77.3629 147.629 77.0786 147.427C76.6003 147.056 75.8379 146.814 75.2269 146.907C74.5681 147.003 73.9068 147.317 73.5031 147.885L73.1659 148.454C72.9934 148.865 72.9324 149.293 72.9829 149.737L72.9312 155.355C72.9579 155.7 73.0642 156.019 73.2528 156.293C73.3884 156.606 73.6063 156.874 73.8906 157.076C74.3688 157.448 75.1313 157.69 75.7422 157.596C76.401 157.501 77.0624 157.187 77.466 156.618L77.8032 156.05C77.9758 155.638 78.0368 155.21 77.9862 154.767Z" fill="#FC7E0B"/>
<path d="M64.5791 153.453L66.9259 147.374C67.1648 146.763 67.1885 146.064 66.944 145.451C66.6994 144.837 66.1654 144.258 65.5623 144.03C64.9593 143.802 64.2473 143.738 63.6391 144.012C63.0308 144.286 62.4704 144.756 62.2182 145.394C61.4351 147.426 60.6625 149.45 59.8714 151.472C59.6325 152.083 59.6088 152.782 59.8533 153.395C60.0978 154.009 60.6319 154.588 61.235 154.816C61.838 155.044 62.55 155.108 63.1582 154.834C63.7665 154.561 64.3268 154.09 64.5791 153.453Z" fill="#FC7E0B"/>
<path d="M51.7575 146.567C52.9792 145.385 54.2221 144.253 55.4438 143.071C55.72 142.863 55.9457 142.611 56.0944 142.3C56.2856 142.024 56.3944 141.726 56.4342 141.381C56.5217 140.767 56.3488 139.984 55.945 139.49C55.5411 138.996 54.938 138.568 54.2659 138.491C53.6389 138.43 52.858 138.518 52.3746 138.98C51.153 140.163 49.91 141.295 48.6884 142.477C48.4122 142.684 48.1864 142.937 48.0377 143.248C47.8465 143.524 47.7377 143.822 47.698 144.167C47.6104 144.781 47.7833 145.564 48.1872 146.058C48.5911 146.552 49.1942 146.98 49.8663 147.057C50.4932 147.117 51.2742 147.03 51.7575 146.567Z" fill="#FC7E0B"/>
<path d="M109.521 124.827L103.934 123.423C103.339 123.272 102.521 123.554 102.043 123.912C101.544 124.287 101.116 124.956 101.045 125.591C100.973 126.226 101.106 126.957 101.534 127.483L102.015 127.969C102.366 128.237 102.777 128.409 103.213 128.481L108.8 129.885C109.395 130.036 110.213 129.754 110.691 129.396C111.19 129.021 111.618 128.351 111.69 127.717C111.761 127.082 111.628 126.351 111.2 125.825L110.719 125.339C110.369 125.071 109.957 124.899 109.521 124.827Z" fill="#FC7E0B"/>
</svg>
