<svg width="346" height="249" viewBox="0 0 346 249" fill="none" xmlns="http://www.w3.org/2000/svg">
<path d="M16.6871 150.933L20.6971 154.943C42.9471 177.193 73.1271 202.693 104.597 202.693H239.757C271.227 202.693 301.407 177.193 323.657 154.943L329.077 149.523C331.607 146.993 329.807 142.673 326.227 142.693C326.227 142.693 223.287 158.863 169.857 158.863C116.427 158.863 19.4971 144.103 19.4971 144.103C15.9371 144.123 14.1671 148.423 16.6871 150.933Z" fill="#8C4414"/>
<path d="M15.637 151.983C26.267 162.613 37.097 173.023 49.187 182.023C63.297 192.523 79.427 201.523 97.127 203.713C101.927 204.313 106.757 204.183 111.587 204.183H238.667C250.757 204.183 262.317 200.943 273.147 195.673C289.467 187.743 303.777 175.993 316.897 163.603C321.247 159.493 325.467 155.243 329.697 151.013C331.617 149.093 332.447 146.443 331.017 143.943C329.957 142.093 327.857 141.003 325.747 141.263C320.997 141.853 316.267 142.703 311.537 143.393C300.847 144.953 290.137 146.433 279.417 147.833C265.457 149.653 251.487 151.343 237.487 152.823C223.267 154.333 209.027 155.643 194.747 156.503C182.267 157.253 169.797 157.563 157.297 157.133C142.897 156.643 128.517 155.533 114.167 154.213C99.667 152.873 85.197 151.273 70.747 149.523C59.217 148.123 47.697 146.623 36.197 145.013C30.847 144.263 25.497 143.483 20.157 142.703C14.817 141.923 12.317 148.343 15.647 151.983C16.947 153.403 19.047 151.293 17.747 149.883C16.447 148.473 17.197 145.683 19.207 145.553C19.647 145.523 20.187 145.703 20.617 145.763C23.057 146.123 25.507 146.483 27.947 146.833C37.527 148.203 47.127 149.503 56.727 150.743C70.187 152.473 83.677 154.083 97.177 155.503C111.617 157.023 126.087 158.353 140.587 159.273C153.167 160.073 165.777 160.563 178.387 160.223C191.607 159.863 204.807 158.893 217.967 157.713C232.137 156.443 246.277 154.903 260.397 153.193C272.827 151.693 285.247 150.073 297.647 148.343C305.667 147.233 313.677 146.073 321.687 144.863C323.187 144.633 324.867 144.133 326.387 144.143C327.717 144.143 328.897 145.523 328.767 146.943C328.677 147.853 328.047 148.433 327.447 149.033L324.877 151.603C313.587 162.893 301.927 173.863 288.757 182.963C274.697 192.683 258.387 200.823 240.957 201.183C237.687 201.253 234.407 201.193 231.137 201.193H178.087C167.627 201.193 157.157 201.193 146.697 201.193C137.927 201.193 129.157 201.193 120.377 201.193H105.747C94.077 201.193 82.927 198.093 72.477 192.983C56.467 185.153 42.447 173.663 29.557 161.493C25.537 157.693 21.637 153.783 17.727 149.873C16.367 148.513 14.267 150.623 15.627 151.973L15.637 151.983Z" fill="black"/>
</svg>
