<?xml version="1.0" encoding="utf-8"?>
<svg width="346" height="249" viewBox="0 0 346 249" fill="none" xmlns="http://www.w3.org/2000/svg">
  <defs/>
  <path d="M 83.621 99.929 C 79.287 95.096 68.531 85.588 48.107 87.396 C 38.767 88.227 29.572 92.652 24.808 100.733 C 21.842 105.754 21.302 111.833 21.299 117.659 C 21.301 122.531 21.638 127.449 22.878 132.162 C 25.459 141.987 30.86 148.366 38.656 154.888 C 46.452 161.41 55.604 166.094 64.911 170.174 C 81.041 177.266 95.52 181.336 112.102 175.362 C 130.444 168.759 142.008 147.294 137.446 128.34 C 136.207 123.212 133.894 118.26 130.226 114.465 C 125.169 109.221 121.969 108.042 115.1 105.599 C 100.363 100.362 91.437 98.344 83.634 99.923" fill="#E50A0A"/>
  <path d="M 84.766 98.971 C 79.287 92.894 72.01 88.697 64.041 86.887 C 52.703 84.305 39.425 85.349 29.986 92.685 C 25.135 96.449 21.934 101.65 20.677 107.651 C 19.313 114.154 19.503 121.327 20.482 127.881 C 21.353 133.673 23.353 139.225 26.565 144.131 C 29.576 148.741 33.584 152.595 37.781 156.102 C 43.17 160.605 49.212 164.216 55.454 167.39 C 61.288 170.341 67.306 173.019 73.443 175.25 C 84.175 179.155 95.617 181.126 106.889 178.453 C 117.36 175.967 126.323 169.948 132.34 160.991 C 138.357 152.034 140.904 141.97 139.56 131.753 C 138.799 126.011 136.715 120.28 133.188 115.654 C 129.662 111.028 125.284 107.934 120.126 105.876 C 114.393 103.588 108.452 101.608 102.488 100.014 C 98.083 98.845 93.527 97.888 88.946 97.91 C 87.07 97.922 85.19 98.093 83.349 98.448 C 81.509 98.803 82.006 101.748 83.885 101.375 C 92.587 99.664 101.653 102.615 109.821 105.348 C 114.83 107.022 120.331 108.513 124.697 111.582 C 129.384 114.883 132.843 119.517 134.829 124.873 C 141.654 143.305 131.207 165.622 113.345 173.249 C 103.473 177.461 92.49 177.57 82.212 174.882 C 76.772 173.456 71.504 171.411 66.344 169.183 C 60.268 166.548 54.265 163.684 48.615 160.193 C 39.428 154.518 30.233 146.926 25.956 136.733 C 23.625 131.156 22.849 125.101 22.768 119.095 C 22.687 113.089 23.027 106.066 26.585 100.643 C 32.812 91.134 44.661 88.19 55.4 88.695 C 64.373 89.113 73.07 92.176 79.803 98.196 C 80.734 99.033 81.613 99.925 82.456 100.858 C 83.739 102.279 86.024 100.373 84.741 98.951 L 84.766 98.971 Z" fill="black"/>
  <path d="M 55.377 111.062 C 56.193 111.836 56.902 112.698 57.507 113.641 L 57.303 113.322 C 57.583 113.753 57.825 114.202 58.05 114.667 C 58.393 115.365 59.304 115.758 60.025 115.381 C 60.746 115.004 61.11 114.147 60.74 113.407 C 59.97 111.831 58.925 110.368 57.65 109.162 C 57.35 108.873 57.052 108.669 56.619 108.63 C 56.256 108.605 55.82 108.723 55.551 108.966 C 55.263 109.234 55.039 109.589 55.019 109.996 C 55.006 110.354 55.087 110.808 55.355 111.065 L 55.377 111.062 Z" fill="#F44A4A"/>
  <path d="M 66.64 135.216 C 65.13 132.894 63.591 130.476 63.258 127.813 C 62.924 125.151 64.195 122.165 66.838 121.357 C 68.978 120.706 71.696 121.509 73.349 120.086 C 74.536 119.069 74.619 117.313 74.402 115.767 C 73.692 110.735 70.506 105.902 65.82 103.335 C 61.134 100.767 55.031 100.706 50.712 103.472 C 46.657 106.067 44.579 110.632 43.074 115.086 C 41.948 118.432 41.032 121.876 40.837 125.411 C 40.178 137.487 48.986 149.852 61.181 153.946 C 62.536 154.405 64.067 154.757 65.352 154.233 C 66.426 153.792 67.122 152.81 67.713 151.854 C 69.386 149.141 70.703 146.119 70.797 142.92 C 70.891 139.721 69.389 137.2 66.653 135.21 L 66.64 135.216 Z" fill="#BF0822"/>
  <path d="M 51.717 118.798 C 52.365 119.033 53.007 119.286 53.636 119.578 C 54.217 119.852 54.878 119.995 55.497 120.166 C 55.883 120.274 56.262 120.284 56.634 120.11 C 56.967 119.954 57.288 119.623 57.405 119.272 C 57.521 118.921 57.539 118.491 57.348 118.135 C 57.158 117.779 56.884 117.478 56.511 117.364 C 55.892 117.193 55.244 117.044 54.65 116.776 C 54.021 116.484 53.379 116.231 52.731 115.996 C 51.997 115.731 51.07 116.118 50.822 116.89 C 50.575 117.662 50.927 118.512 51.717 118.798 Z" fill="#FC7E0B"/>
  <path d="M 50.319 128.597 C 51.77 128.261 53.247 128.03 54.74 127.9 C 55.092 127.868 55.485 127.574 55.682 127.295 C 55.899 126.99 56.011 126.531 55.932 126.162 C 55.853 125.793 55.657 125.424 55.327 125.22 C 54.972 124.996 54.622 124.933 54.194 124.97 C 52.705 125.09 51.224 125.33 49.773 125.667 C 49.401 125.755 49.054 125.949 48.831 126.272 C 48.614 126.577 48.502 127.036 48.581 127.405 C 48.754 128.159 49.504 128.791 50.319 128.597 Z" fill="#FC7E0B"/>
  <path d="M 52.472 137.31 L 55.698 135.861 C 56.04 135.708 56.343 135.371 56.469 135.024 C 56.595 134.676 56.591 134.217 56.412 133.886 C 56.234 133.556 55.945 133.239 55.575 133.115 C 55.205 132.992 54.809 132.998 54.438 133.172 L 51.212 134.621 C 50.87 134.773 50.567 135.11 50.441 135.458 C 50.315 135.806 50.319 136.265 50.498 136.595 C 50.676 136.926 50.965 137.243 51.335 137.366 C 51.705 137.49 52.101 137.484 52.472 137.31 Z" fill="#FC7E0B"/>
  <path d="M 57.633 144.091 L 60.547 141.21 C 60.833 140.92 61.043 140.603 61.079 140.18 C 61.104 139.817 60.986 139.381 60.743 139.112 C 60.475 138.823 60.12 138.599 59.712 138.579 C 59.346 138.564 58.92 138.654 58.644 138.916 L 55.73 141.796 C 55.444 142.086 55.234 142.404 55.198 142.827 C 55.173 143.19 55.291 143.626 55.534 143.895 C 55.802 144.183 56.157 144.407 56.565 144.427 C 56.931 144.443 57.357 144.353 57.633 144.091 Z" fill="#FC7E0B"/>
  <path d="M 65.676 148.373 C 66.04 147.367 66.4 146.37 66.765 145.364 C 66.894 145.007 66.87 144.573 66.708 144.227 C 66.546 143.881 66.222 143.573 65.87 143.456 C 65.519 143.34 65.089 143.322 64.733 143.512 C 64.377 143.703 64.108 143.977 63.962 144.35 C 63.598 145.356 63.238 146.353 62.873 147.359 C 62.744 147.716 62.768 148.15 62.93 148.496 C 63.092 148.842 63.416 149.151 63.768 149.267 C 64.119 149.384 64.549 149.401 64.905 149.211 C 65.26 149.021 65.53 148.746 65.676 148.373 Z" fill="#FC7E0B"/>
  <path d="M 58.188 110.495 C 58.926 111.453 59.664 112.411 60.405 113.36 C 60.638 113.657 61.063 113.864 61.436 113.893 C 61.808 113.921 62.235 113.799 62.504 113.556 C 63.123 112.993 63.205 112.119 62.7 111.457 C 61.962 110.499 61.224 109.541 60.483 108.592 C 60.25 108.295 59.825 108.088 59.452 108.06 C 59.08 108.031 58.653 108.153 58.384 108.396 C 57.765 108.959 57.683 109.833 58.188 110.495 Z" fill="#FC7E0B"/>
  <path d="M 84.06 140.212 C 86.59 139.097 89.208 137.917 90.94 135.864 C 92.672 133.811 93.253 130.618 91.469 128.494 C 90.036 126.784 87.324 125.962 86.719 123.872 C 86.283 122.374 87.172 120.856 88.205 119.677 C 91.545 115.855 96.858 113.546 102.184 113.963 C 107.509 114.38 112.658 117.668 114.753 122.34 C 116.726 126.733 115.973 131.693 114.794 136.244 C 113.91 139.656 112.793 143.038 111.022 146.109 C 104.966 156.583 90.831 162.113 78.381 158.873 C 76.992 158.509 75.525 157.978 74.738 156.832 C 74.086 155.872 74.04 154.676 74.066 153.547 C 74.147 150.354 74.695 147.107 76.371 144.385 C 78.047 141.663 80.687 140.363 84.057 140.19 L 84.06 140.212 Z" fill="#BF0822"/>
  <path d="M 106.389 131.788 C 105.722 131.631 105.046 131.472 104.363 131.363 C 104.152 131.329 103.937 131.304 103.729 131.261 L 104.123 131.35 C 103.569 131.235 103.023 131.038 102.487 130.875 C 102.113 130.761 101.711 130.754 101.349 130.932 C 101.017 131.088 100.695 131.418 100.578 131.769 C 100.341 132.513 100.682 133.423 101.473 133.677 C 102.188 133.904 102.9 134.141 103.64 134.27 C 104.09 134.348 104.535 134.413 104.991 134.504 L 104.598 134.415 C 104.866 134.469 105.12 134.53 105.384 134.593 C 105.787 134.686 106.134 134.726 106.521 134.537 C 106.854 134.381 107.176 134.05 107.292 133.699 C 107.409 133.348 107.426 132.918 107.236 132.562 C 107.067 132.235 106.769 131.883 106.398 131.791 L 106.389 131.788 Z" fill="#FC7E0B"/>
  <path d="M 103.508 141.571 C 102.389 140.401 101.181 139.304 99.903 138.309 C 99.288 137.832 98.246 138.008 97.828 138.665 C 97.37 139.371 97.529 140.226 98.183 140.739 C 98.838 141.253 99.522 141.83 100.158 142.422 L 99.871 142.158 C 100.331 142.591 100.779 143.029 101.21 143.483 C 101.487 143.775 101.827 143.983 102.24 144.016 C 102.604 144.041 103.04 143.922 103.309 143.679 C 103.875 143.171 104.074 142.18 103.504 141.58 L 103.508 141.571 Z" fill="#FC7E0B"/>
  <path d="M 97.179 147.98 C 96.54 146.983 95.908 145.999 95.269 145.002 C 95.071 144.696 94.579 144.497 94.238 144.47 C 93.875 144.445 93.439 144.563 93.17 144.806 C 92.882 145.074 92.658 145.429 92.638 145.837 L 92.656 146.226 C 92.704 146.477 92.812 146.708 92.974 146.905 C 93.613 147.902 94.246 148.886 94.885 149.883 C 95.083 150.188 95.574 150.387 95.915 150.415 C 96.278 150.44 96.715 150.322 96.984 150.079 C 97.272 149.811 97.496 149.456 97.516 149.048 L 97.497 148.659 C 97.45 148.408 97.342 148.177 97.179 147.98 Z" fill="#FC7E0B"/>
  <path d="M 89.628 151.862 L 88.759 147.857 C 88.68 147.488 88.467 147.135 88.153 146.915 C 87.839 146.695 87.39 146.585 87.021 146.665 C 86.652 146.744 86.283 146.94 86.079 147.27 C 85.874 147.6 85.75 148.002 85.828 148.403 L 86.697 152.407 C 86.777 152.776 86.989 153.13 87.303 153.35 C 87.617 153.57 88.066 153.679 88.435 153.6 C 88.804 153.521 89.173 153.324 89.378 152.994 C 89.582 152.664 89.706 152.262 89.628 151.862 Z" fill="#FC7E0B"/>
  <path d="M 80.515 152.595 C 80.753 151.554 81.01 150.519 81.249 149.478 C 81.317 149.29 81.357 149.092 81.321 148.898 C 81.325 148.709 81.286 148.524 81.192 148.341 C 81.036 148.008 80.706 147.687 80.355 147.57 C 80.003 147.454 79.574 147.437 79.218 147.627 C 78.891 147.796 78.538 148.093 78.447 148.464 C 78.208 149.505 77.951 150.54 77.712 151.581 C 77.644 151.769 77.605 151.967 77.641 152.161 C 77.636 152.35 77.675 152.535 77.769 152.718 C 77.925 153.051 78.255 153.372 78.607 153.489 C 78.958 153.605 79.388 153.622 79.744 153.432 C 80.07 153.263 80.423 152.966 80.515 152.595 Z" fill="#FC7E0B"/>
  <path d="M 103.586 121.372 L 100.168 122.56 C 99.826 122.681 99.513 123.078 99.397 123.398 C 99.271 123.745 99.275 124.204 99.453 124.535 C 99.631 124.865 99.921 125.182 100.291 125.306 L 100.684 125.395 C 100.943 125.414 101.194 125.367 101.434 125.262 L 104.852 124.074 C 105.194 123.953 105.507 123.556 105.623 123.237 C 105.749 122.889 105.745 122.43 105.567 122.1 C 105.388 121.769 105.099 121.452 104.729 121.329 L 104.336 121.239 C 104.077 121.22 103.826 121.268 103.586 121.372 Z" fill="#FC7E0B"/>
  <path d="M 251.247 115.265 C 239.447 91.572 217.505 83.358 207.676 91.5 C 200.005 97.856 193.116 108.35 187.778 112.356 C 177.886 119.779 174.024 120.918 164.005 124.856 C 151.323 129.841 142.737 131.096 140.083 139.73 C 135.769 153.761 162.008 182.228 187.778 191.12 C 213.547 200.013 245.019 172.246 249.666 166.268 C 254.313 160.29 265.998 144.88 251.247 115.265 Z" fill="#E50A0A" stroke="black" stroke-width="3"/>
  <path d="M 185.153 134.399 C 189.491 135.112 193.991 135.821 198.082 134.611 C 202.172 133.401 205.715 129.647 205.199 125.285 C 204.781 121.763 201.887 118.305 202.898 115.005 C 203.626 112.633 206.136 111.397 208.518 110.722 C 216.285 108.547 225.36 110.107 232.066 115.304 C 238.772 120.501 242.748 129.34 241.477 137.384 C 240.268 144.934 234.962 150.875 229.427 155.892 C 225.284 159.665 220.854 163.188 215.815 165.724 C 198.652 174.385 175.046 169.415 161.332 154.283 C 159.799 152.593 158.309 150.607 158.263 148.399 C 158.223 146.553 159.205 144.919 160.23 143.453 C 163.119 139.292 166.675 135.445 171.273 133.273 C 175.871 131.102 180.504 131.677 185.134 134.396 L 185.153 134.399 Z" fill="#BF0822"/>
  <path d="M 222.291 142.532 C 221.524 141.73 220.758 140.909 219.935 140.165 C 219.682 139.94 219.419 139.722 219.177 139.488 L 219.658 139.974 C 219.029 139.334 218.468 138.609 217.894 137.911 C 217.474 137.395 216.892 137.018 216.215 136.912 C 215.601 136.825 214.818 136.997 214.324 137.401 C 213.83 137.805 213.402 138.408 213.325 139.081 C 213.248 139.753 213.379 140.435 213.814 140.972 C 214.582 141.907 215.329 142.857 216.209 143.675 C 216.745 144.169 217.285 144.645 217.789 145.163 L 217.309 144.677 C 217.606 144.985 217.896 145.282 218.193 145.59 C 218.68 146.105 219.147 146.485 219.872 146.589 C 220.486 146.676 221.27 146.503 221.764 146.099 C 222.258 145.695 222.685 145.092 222.762 144.42 C 222.823 143.793 222.735 143.012 222.273 142.529 L 222.291 142.532 Z" fill="#FC7E0B"/>
  <path d="M 209.995 153.121 C 209.514 150.576 208.867 148.055 208.041 145.603 C 207.613 144.347 205.952 143.617 204.736 144.164 C 203.429 144.747 202.845 146.115 203.297 147.469 C 203.749 148.824 204.129 150.083 204.469 151.422 L 204.304 150.782 C 204.546 151.746 204.756 152.734 204.94 153.709 C 205.07 154.392 205.355 154.992 205.918 155.433 C 206.396 155.804 207.159 156.046 207.77 155.953 C 208.428 155.857 209.09 155.543 209.493 154.975 C 209.862 154.449 210.131 153.766 210.014 153.123 L 209.995 153.121 Z" fill="#FC7E0B"/>
  <path d="M 195.991 156.123 C 196.012 154.248 196.022 152.38 196.043 150.505 C 196.016 150.159 195.91 149.841 195.721 149.567 C 195.586 149.254 195.368 148.985 195.083 148.784 C 194.605 148.412 193.843 148.17 193.232 148.263 C 192.573 148.359 191.912 148.673 191.508 149.241 L 191.171 149.81 C 190.998 150.222 190.937 150.649 190.988 151.093 L 190.936 156.711 C 190.963 157.057 191.069 157.375 191.258 157.649 C 191.393 157.962 191.611 158.231 191.895 158.432 C 192.374 158.804 193.136 159.046 193.747 158.953 C 194.406 158.857 195.067 158.543 195.471 157.975 L 195.808 157.406 C 195.981 156.994 196.042 156.567 195.991 156.123 Z" fill="#FC7E0B"/>
  <path d="M 182.584 154.809 L 184.931 148.73 C 185.17 148.119 185.193 147.421 184.949 146.807 C 184.704 146.194 184.17 145.615 183.567 145.386 C 182.964 145.158 182.252 145.094 181.644 145.368 C 181.036 145.642 180.475 146.112 180.223 146.75 C 179.44 148.782 178.667 150.807 177.876 152.828 C 177.637 153.439 177.614 154.138 177.858 154.751 C 178.103 155.365 178.637 155.944 179.24 156.172 C 179.843 156.401 180.555 156.464 181.163 156.19 C 181.771 155.917 182.332 155.446 182.584 154.809 Z" fill="#FC7E0B"/>
  <path d="M 169.762 147.923 C 170.984 146.741 172.227 145.609 173.448 144.427 C 173.725 144.219 173.95 143.967 174.099 143.656 C 174.29 143.38 174.399 143.082 174.439 142.737 C 174.526 142.123 174.353 141.34 173.95 140.846 C 173.546 140.352 172.943 139.924 172.271 139.847 C 171.644 139.786 170.863 139.874 170.379 140.337 C 169.158 141.519 167.915 142.651 166.693 143.833 C 166.417 144.041 166.191 144.293 166.042 144.604 C 165.851 144.88 165.742 145.178 165.703 145.523 C 165.615 146.137 165.788 146.92 166.192 147.414 C 166.596 147.908 167.199 148.336 167.871 148.413 C 168.498 148.474 169.279 148.386 169.762 147.923 Z" fill="#FC7E0B"/>
  <path d="M 227.526 126.183 L 221.939 124.779 C 221.344 124.628 220.526 124.91 220.048 125.268 C 219.549 125.643 219.121 126.313 219.05 126.948 C 218.978 127.582 219.111 128.313 219.539 128.839 L 220.02 129.325 C 220.37 129.593 220.782 129.766 221.218 129.837 L 226.805 131.241 C 227.4 131.392 228.218 131.111 228.696 130.752 C 229.195 130.377 229.623 129.708 229.694 129.073 C 229.766 128.438 229.633 127.707 229.205 127.181 L 228.724 126.695 C 228.373 126.427 227.962 126.255 227.526 126.183 Z" fill="#FC7E0B"/>
</svg>