<svg width="48" height="48" viewBox="0 0 48 48" fill="none" xmlns="http://www.w3.org/2000/svg">
<circle cx="24" cy="24" r="24" fill="#B3C497"/>
<rect x="9" y="22.9999" width="1" height="1" fill="#19191C" fill-opacity="0.7"/>
<rect x="9" y="24.9999" width="1" height="1" fill="#19191C" fill-opacity="0.7"/>
<rect x="8" y="21.9999" width="1" height="1" fill="#19191C" fill-opacity="0.7"/>
<rect x="8" y="25.9999" width="1" height="1" fill="#19191C" fill-opacity="0.7"/>
<rect x="7" y="20.9999" width="1" height="1" fill="#19191C" fill-opacity="0.7"/>
<rect x="8" y="28.9999" width="1" height="1" fill="#19191C" fill-opacity="0.7"/>
<rect x="7" y="19.9999" width="1" height="1" fill="#19191C" fill-opacity="0.7"/>
<rect x="7" y="27.9999" width="1" height="1" fill="#19191C" fill-opacity="0.7"/>
<rect x="8" y="18.9999" width="1" height="1" fill="#19191C" fill-opacity="0.7"/>
<rect x="7" y="26.9999" width="1" height="1" fill="#19191C" fill-opacity="0.7"/>
<rect x="9" y="17.9999" width="1" height="1" fill="#19191C" fill-opacity="0.7"/>
<rect x="9" y="29.9999" width="1" height="1" fill="#19191C" fill-opacity="0.7"/>
<rect x="10" y="17.9999" width="1" height="1" fill="#19191C" fill-opacity="0.7"/>
<rect x="10" y="29.9999" width="1" height="1" fill="#19191C" fill-opacity="0.7"/>
<rect x="11" y="17.9999" width="1" height="1" fill="#19191C" fill-opacity="0.7"/>
<rect x="11" y="29.9999" width="1" height="1" fill="#19191C" fill-opacity="0.7"/>
<rect x="10" y="23.9999" width="1" height="1" fill="#19191C" fill-opacity="0.7"/>
<rect x="12" y="18.9999" width="1" height="1" fill="#19191C" fill-opacity="0.7"/>
<rect x="12" y="28.9999" width="1" height="1" fill="#19191C" fill-opacity="0.7"/>
<rect x="13" y="19.9999" width="1" height="1" fill="#19191C" fill-opacity="0.7"/>
<rect x="13" y="26.9999" width="1" height="1" fill="#19191C" fill-opacity="0.7"/>
<rect x="13" y="20.9999" width="1" height="1" fill="#19191C" fill-opacity="0.7"/>
<rect x="13" y="27.9999" width="1" height="1" fill="#19191C" fill-opacity="0.7"/>
<rect x="39" y="25.9999" width="1" height="1" transform="rotate(-180 39 25.9999)" fill="#19191C" fill-opacity="0.7"/>
<rect x="39" y="23.9999" width="1" height="1" transform="rotate(-180 39 23.9999)" fill="#19191C" fill-opacity="0.7"/>
<rect x="40" y="26.9999" width="1" height="1" transform="rotate(-180 40 26.9999)" fill="#19191C" fill-opacity="0.7"/>
<rect x="40" y="22.9999" width="1" height="1" transform="rotate(-180 40 22.9999)" fill="#19191C" fill-opacity="0.7"/>
<rect x="41" y="27.9999" width="1" height="1" transform="rotate(-180 41 27.9999)" fill="#19191C" fill-opacity="0.7"/>
<rect x="40" y="19.9999" width="1" height="1" transform="rotate(-180 40 19.9999)" fill="#19191C" fill-opacity="0.7"/>
<rect x="41" y="28.9999" width="1" height="1" transform="rotate(-180 41 28.9999)" fill="#19191C" fill-opacity="0.7"/>
<rect x="41" y="20.9999" width="1" height="1" transform="rotate(-180 41 20.9999)" fill="#19191C" fill-opacity="0.7"/>
<rect x="40" y="29.9999" width="1" height="1" transform="rotate(-180 40 29.9999)" fill="#19191C" fill-opacity="0.7"/>
<rect x="41" y="21.9999" width="1" height="1" transform="rotate(-180 41 21.9999)" fill="#19191C" fill-opacity="0.7"/>
<rect x="39" y="30.9999" width="1" height="1" transform="rotate(-180 39 30.9999)" fill="#19191C" fill-opacity="0.7"/>
<rect x="39" y="18.9999" width="1" height="1" transform="rotate(-180 39 18.9999)" fill="#19191C" fill-opacity="0.7"/>
<rect x="38" y="30.9999" width="1" height="1" transform="rotate(-180 38 30.9999)" fill="#19191C" fill-opacity="0.7"/>
<rect x="38" y="18.9999" width="1" height="1" transform="rotate(-180 38 18.9999)" fill="#19191C" fill-opacity="0.7"/>
<rect x="37" y="30.9999" width="1" height="1" transform="rotate(-180 37 30.9999)" fill="#19191C" fill-opacity="0.7"/>
<rect x="37" y="18.9999" width="1" height="1" transform="rotate(-180 37 18.9999)" fill="#19191C" fill-opacity="0.7"/>
<rect x="38" y="24.9999" width="1" height="1" transform="rotate(-180 38 24.9999)" fill="#19191C" fill-opacity="0.7"/>
<rect x="36" y="29.9999" width="1" height="1" transform="rotate(-180 36 29.9999)" fill="#19191C" fill-opacity="0.7"/>
<rect x="36" y="19.9999" width="1" height="1" transform="rotate(-180 36 19.9999)" fill="#19191C" fill-opacity="0.7"/>
<rect x="35" y="28.9999" width="1" height="1" transform="rotate(-180 35 28.9999)" fill="#19191C" fill-opacity="0.7"/>
<rect x="35" y="21.9999" width="1" height="1" transform="rotate(-180 35 21.9999)" fill="#19191C" fill-opacity="0.7"/>
<rect x="35" y="27.9999" width="1" height="1" transform="rotate(-180 35 27.9999)" fill="#19191C" fill-opacity="0.7"/>
<rect x="35" y="20.9999" width="1" height="1" transform="rotate(-180 35 20.9999)" fill="#19191C" fill-opacity="0.7"/>
<rect x="14" y="21.9999" width="20" height="1" fill="#19191C" fill-opacity="0.7"/>
<rect x="14" y="25.9999" width="20" height="1" fill="#19191C" fill-opacity="0.7"/>
</svg>
