<svg width="115" height="140" viewBox="0 0 115 140" fill="none" xmlns="http://www.w3.org/2000/svg">
<mask id="path-1-inside-1_833_7840" fill="white">
<path fill-rule="evenodd" clip-rule="evenodd" d="M61.5169 11.7661C62.1503 10.9953 62.5306 10.0089 62.5306 8.93382C62.5306 6.46682 60.5283 4.46691 58.0584 4.46691C55.5886 4.46691 53.5863 6.46682 53.5863 8.93382C53.5863 10.0224 53.9762 11.02 54.624 11.795C21.9151 14.2206 4.88965 50.1153 4.88965 88.9533C4.88965 121.131 23.4721 136.986 58.1826 136.986C92.6504 136.986 111.103 121.131 111.103 88.9533C111.103 49.9515 96.3863 13.9178 61.5169 11.7661ZM59.0522 8.93382C59.0522 9.48205 58.6073 9.92647 58.0584 9.92647C57.5096 9.92647 57.0646 9.48205 57.0646 8.93382C57.0646 8.3856 57.5096 7.94118 58.0584 7.94118C58.6073 7.94118 59.0522 8.3856 59.0522 8.93382Z"/>
</mask>
<path fill-rule="evenodd" clip-rule="evenodd" d="M61.5169 11.7661C62.1503 10.9953 62.5306 10.0089 62.5306 8.93382C62.5306 6.46682 60.5283 4.46691 58.0584 4.46691C55.5886 4.46691 53.5863 6.46682 53.5863 8.93382C53.5863 10.0224 53.9762 11.02 54.624 11.795C21.9151 14.2206 4.88965 50.1153 4.88965 88.9533C4.88965 121.131 23.4721 136.986 58.1826 136.986C92.6504 136.986 111.103 121.131 111.103 88.9533C111.103 49.9515 96.3863 13.9178 61.5169 11.7661ZM59.0522 8.93382C59.0522 9.48205 58.6073 9.92647 58.0584 9.92647C57.5096 9.92647 57.0646 9.48205 57.0646 8.93382C57.0646 8.3856 57.5096 7.94118 58.0584 7.94118C58.6073 7.94118 59.0522 8.3856 59.0522 8.93382Z" fill="#28B8A0"/>
<path d="M61.5169 11.7661L60.75 11.1358L59.5161 12.6372L61.4557 12.7569L61.5169 11.7661ZM54.624 11.795L54.6974 12.7849L56.6258 12.6419L55.3856 11.1584L54.624 11.795ZM62.2837 12.3964C63.0577 11.4546 63.5232 10.2472 63.5232 8.93382H61.5379C61.5379 9.77058 61.2429 10.536 60.75 11.1358L62.2837 12.3964ZM63.5232 8.93382C63.5232 5.9175 61.0755 3.47426 58.0584 3.47426V5.45956C59.9812 5.45956 61.5379 7.01613 61.5379 8.93382H63.5232ZM58.0584 3.47426C55.0414 3.47426 52.5937 5.9175 52.5937 8.93382H54.579C54.579 7.01613 56.1357 5.45956 58.0584 5.45956V3.47426ZM52.5937 8.93382C52.5937 10.2638 53.0709 11.4848 53.8624 12.4317L55.3856 11.1584C54.8814 10.5552 54.579 9.78101 54.579 8.93382H52.5937ZM5.8823 88.9533C5.8823 69.6634 10.1129 51.166 18.3457 37.2243C26.5672 23.3018 38.7413 13.9682 54.6974 12.7849L54.5506 10.8051C37.7978 12.0474 25.1047 21.874 16.6362 36.2148C8.17915 50.5363 3.897 69.4053 3.897 88.9533H5.8823ZM58.1826 135.994C40.9597 135.994 27.9133 132.058 19.1791 124.295C10.4663 116.55 5.8823 104.85 5.8823 88.9533H3.897C3.897 105.235 8.60419 117.551 17.8602 125.779C27.0949 133.987 40.695 137.979 58.1826 137.979V135.994ZM110.11 88.9533C110.11 104.852 105.557 116.553 96.9061 124.297C88.2348 132.059 75.2827 135.994 58.1826 135.994V137.979C75.5504 137.979 89.0584 133.986 98.2302 125.776C107.422 117.548 112.096 105.233 112.096 88.9533H110.11ZM61.4557 12.7569C78.4963 13.8084 90.6188 23.1143 98.5227 37.0311C106.448 50.9851 110.11 69.5571 110.11 88.9533H112.096C112.096 69.3477 108.4 50.4019 100.249 36.0507C92.0773 21.6623 79.4068 11.8755 61.578 10.7753L61.4557 12.7569ZM58.0584 10.9191C59.1544 10.9191 60.0449 10.0314 60.0449 8.93382H58.0596C58.0596 8.93505 58.0595 8.93521 58.0596 8.93465C58.0597 8.93415 58.0599 8.9336 58.0601 8.93314C58.0604 8.93234 58.0604 8.93264 58.0597 8.93341C58.0589 8.93419 58.0585 8.93428 58.059 8.93407C58.0593 8.93394 58.0597 8.93382 58.0599 8.93376C58.0603 8.93369 58.0599 8.93382 58.0584 8.93382V10.9191ZM56.072 8.93382C56.072 10.0314 56.9624 10.9191 58.0584 10.9191V8.93382C58.057 8.93382 58.0566 8.93369 58.0569 8.93376C58.0572 8.93382 58.0576 8.93394 58.0579 8.93407C58.0584 8.93428 58.058 8.93419 58.0572 8.93341C58.0564 8.93264 58.0565 8.93234 58.0568 8.93314C58.057 8.9336 58.0572 8.93415 58.0573 8.93465C58.0574 8.93521 58.0573 8.93505 58.0573 8.93382H56.072ZM58.0584 6.94853C56.9624 6.94853 56.072 7.83628 56.072 8.93382H58.0573C58.0573 8.9326 58.0574 8.93243 58.0573 8.933C58.0572 8.9335 58.057 8.93405 58.0568 8.93451C58.0565 8.93531 58.0564 8.93501 58.0572 8.93423C58.058 8.93346 58.0584 8.93337 58.0579 8.93358C58.0576 8.93371 58.0572 8.93383 58.0569 8.93388C58.0566 8.93396 58.057 8.93382 58.0584 8.93382V6.94853ZM60.0449 8.93382C60.0449 7.83628 59.1544 6.94853 58.0584 6.94853V8.93382C58.0599 8.93382 58.0603 8.93396 58.0599 8.93388C58.0597 8.93383 58.0593 8.93371 58.059 8.93358C58.0585 8.93337 58.0589 8.93346 58.0597 8.93423C58.0604 8.93501 58.0604 8.93531 58.0601 8.93451C58.0599 8.93405 58.0597 8.9335 58.0596 8.933C58.0595 8.93243 58.0596 8.9326 58.0596 8.93382H60.0449Z" fill="#19191C" fill-opacity="0.7" mask="url(#path-1-inside-1_833_7840)"/>
<rect x="23.7498" y="41.1958" width="68.4927" height="68.4927" rx="4.46691" fill="#B3C497" stroke="#FFCE1F" stroke-width="2.97794"/>
<circle cx="57.9965" cy="122.469" r="3.97059" fill="#FC801D"/>
<circle cx="57.9965" cy="122.469" r="3.47426" stroke="#19191C" stroke-opacity="0.7" stroke-width="0.992647"/>
<circle cx="43.1068" cy="120.608" r="3.97059" fill="#FC801D"/>
<circle cx="43.1068" cy="120.608" r="3.47426" stroke="#19191C" stroke-opacity="0.7" stroke-width="0.992647"/>
<circle cx="72.8861" cy="120.608" r="3.97059" fill="#FC801D"/>
<circle cx="72.8861" cy="120.608" r="3.47426" stroke="#19191C" stroke-opacity="0.7" stroke-width="0.992647"/>
<path d="M38.2636 102.886C37.6938 102.886 37.2352 102.716 36.8878 102.375C36.5473 102.035 36.3771 101.587 36.3771 101.031V96.4552H34.4906V95.2774H37.68V101C37.68 101.215 37.739 101.389 37.8571 101.521C37.9822 101.646 38.149 101.708 38.3574 101.708H40.0355V102.886H38.2636ZM42.5329 102.99C41.9492 102.99 41.4871 102.827 41.1467 102.5C40.8131 102.167 40.6464 101.733 40.6464 101.198C40.6464 100.642 40.8375 100.2 41.2196 99.8738C41.6018 99.5403 42.1264 99.3736 42.7935 99.3736H44.1901V98.9671C44.1901 98.3903 43.8531 98.102 43.1791 98.102C42.8734 98.102 42.6302 98.161 42.4495 98.2792C42.2689 98.3973 42.1681 98.564 42.1473 98.7795H40.8965C40.9243 98.2653 41.1397 97.8483 41.5427 97.5287C41.9527 97.2091 42.5016 97.0493 43.1895 97.0493C43.9191 97.0493 44.4854 97.2195 44.8885 97.56C45.2915 97.9005 45.493 98.3799 45.493 98.9983V102.886H44.2214V101.812C44.1728 102.181 43.999 102.469 43.7003 102.678C43.4015 102.886 43.0123 102.99 42.5329 102.99ZM42.9498 101.927C43.332 101.927 43.6342 101.833 43.8566 101.646C44.0789 101.458 44.1901 101.208 44.1901 100.895V100.218H42.856C42.5711 100.218 42.3453 100.298 42.1785 100.458C42.0118 100.617 41.9284 100.822 41.9284 101.072C41.9284 101.33 42.0152 101.538 42.1889 101.698C42.3696 101.851 42.6232 101.927 42.9498 101.927ZM49.5746 102.886C49.0396 102.886 48.6123 102.733 48.2926 102.427C47.98 102.115 47.8236 101.694 47.8236 101.166V98.3313H46.2393V97.1535H47.8236V95.538H49.1369V97.1535H51.4195V98.3313H49.1369V101.135C49.1369 101.302 49.182 101.441 49.2724 101.552C49.3697 101.656 49.5017 101.708 49.6684 101.708H51.3674V102.886H49.5746ZM52.4994 102.886V101.708H54.4589V98.3313H52.7078V97.1535H55.7617V101.708H57.5232V102.886H52.4994ZM55.0217 96.1946C54.7576 96.1946 54.5492 96.1286 54.3963 95.9966C54.2435 95.8576 54.167 95.6735 54.167 95.4442C54.167 95.2149 54.2435 95.0342 54.3963 94.9022C54.5492 94.7632 54.7576 94.6937 55.0217 94.6937C55.2857 94.6937 55.4942 94.7632 55.6471 94.9022C55.7999 95.0342 55.8764 95.2149 55.8764 95.4442C55.8764 95.6735 55.7999 95.8576 55.6471 95.9966C55.4942 96.1286 55.2857 96.1946 55.0217 96.1946ZM60.6668 102.98C59.9302 102.98 59.3465 102.775 58.9157 102.365C58.4849 101.948 58.2695 101.389 58.2695 100.687V99.3527C58.2695 98.644 58.4849 98.0846 58.9157 97.6746C59.3465 97.2647 59.9302 97.0597 60.6668 97.0597C61.4033 97.0597 61.987 97.2647 62.4178 97.6746C62.8486 98.0846 63.064 98.644 63.064 99.3527V100.687C63.064 101.389 62.8486 101.948 62.4178 102.365C61.987 102.775 61.4033 102.98 60.6668 102.98ZM60.6668 101.844C61.0142 101.844 61.2817 101.75 61.4693 101.562C61.6639 101.368 61.7612 101.09 61.7612 100.729V99.311C61.7612 98.9497 61.6639 98.6752 61.4693 98.4876C61.2817 98.2931 61.0142 98.1958 60.6668 98.1958C60.3193 98.1958 60.0484 98.2931 59.8538 98.4876C59.6662 98.6752 59.5724 98.9497 59.5724 99.311V100.729C59.5724 101.09 59.6662 101.368 59.8538 101.562C60.0484 101.75 60.3193 101.844 60.6668 101.844ZM64.1752 102.886V97.1535H65.4468V98.227C65.5162 97.8657 65.6865 97.5808 65.9575 97.3724C66.2285 97.157 66.5724 97.0493 66.9893 97.0493C67.5522 97.0493 68.0003 97.2369 68.3339 97.6121C68.6744 97.9873 68.8446 98.4911 68.8446 99.1234V102.886H67.5417V99.2797C67.5417 98.9254 67.4479 98.6544 67.2603 98.4668C67.0797 98.2722 66.833 98.1749 66.5203 98.1749C66.1937 98.1749 65.9366 98.2722 65.749 98.4668C65.5684 98.6613 65.478 98.9393 65.478 99.3006V102.886H64.1752ZM72.0924 102.98C71.4115 102.98 70.873 102.827 70.4769 102.521C70.0808 102.209 69.8828 101.788 69.8828 101.26H71.1648C71.1648 101.482 71.2447 101.653 71.4045 101.771C71.5713 101.889 71.8006 101.948 72.0924 101.948H72.551C72.8637 101.948 73.1034 101.889 73.2702 101.771C73.4439 101.653 73.5308 101.482 73.5308 101.26C73.5308 101.052 73.4717 100.899 73.3536 100.801C73.2355 100.697 73.0548 100.628 72.8116 100.593L71.3837 100.405C70.9251 100.343 70.5707 100.166 70.3206 99.8738C70.0774 99.582 69.9558 99.2033 69.9558 98.7378C69.9558 98.1958 70.1364 97.7823 70.4977 97.4974C70.8591 97.2056 71.3802 97.0597 72.0612 97.0597H72.5406C73.1799 97.0597 73.6941 97.2056 74.0832 97.4974C74.4723 97.7893 74.6738 98.1784 74.6877 98.6648H73.3953C73.3883 98.4841 73.3084 98.3417 73.1556 98.2375C73.0027 98.1263 72.7977 98.0707 72.5406 98.0707H72.0612C71.7832 98.0707 71.5713 98.1298 71.4254 98.2479C71.2795 98.3591 71.2065 98.5119 71.2065 98.7065C71.2065 98.8802 71.2586 99.0088 71.3628 99.0921C71.474 99.1755 71.6338 99.2276 71.8423 99.2485L73.1868 99.4361C73.7149 99.4986 74.111 99.6862 74.375 99.9989C74.646 100.305 74.7815 100.718 74.7815 101.239C74.7815 101.795 74.5904 102.226 74.2083 102.532C73.833 102.83 73.2806 102.98 72.551 102.98H72.0924ZM77.602 100.52L77.4561 95.2774H78.8736L78.7277 100.52H77.602ZM78.0085 102.938C77.7931 102.938 77.6194 102.876 77.4874 102.751C77.3553 102.619 77.2893 102.452 77.2893 102.25C77.2893 102.049 77.3553 101.885 77.4874 101.76C77.6194 101.628 77.7931 101.562 78.0085 101.562H78.3212C78.5435 101.562 78.7173 101.628 78.8423 101.76C78.9744 101.885 79.0404 102.049 79.0404 102.25C79.0404 102.452 78.9709 102.619 78.8319 102.751C78.6999 102.876 78.5262 102.938 78.3108 102.938H78.0085Z" fill="#474C41"/>
<path d="M34.9991 53.766C34.5058 53.766 34.0784 53.6757 33.7171 53.495C33.3558 53.3074 33.0744 53.0468 32.8729 52.7133C32.6783 52.3728 32.581 51.9733 32.581 51.5147V48.2002C32.581 47.7416 32.6783 47.3456 32.8729 47.012C33.0744 46.6715 33.3558 46.411 33.7171 46.2303C34.0784 46.0427 34.5058 45.9489 34.9991 45.9489C35.4855 45.9489 35.9094 46.0427 36.2707 46.2303C36.632 46.411 36.9134 46.6715 37.115 47.012C37.3165 47.3456 37.4172 47.7416 37.4172 48.2002H36.1039C36.1039 47.8458 36.0067 47.5749 35.8121 47.3872C35.6245 47.1927 35.3535 47.0954 34.9991 47.0954C34.6448 47.0954 34.3703 47.1927 34.1757 47.3872C33.9812 47.5749 33.8839 47.8458 33.8839 48.2002V51.5147C33.8839 51.869 33.9812 52.1435 34.1757 52.3381C34.3703 52.5257 34.6448 52.6195 34.9991 52.6195C35.3535 52.6195 35.6245 52.5257 35.8121 52.3381C36.0067 52.1435 36.1039 51.869 36.1039 51.5147H37.4172C37.4172 51.9733 37.3165 52.3728 37.115 52.7133C36.9134 53.0468 36.632 53.3074 36.2707 53.495C35.9094 53.6757 35.4855 53.766 34.9991 53.766ZM40.7484 53.7556C40.0119 53.7556 39.4282 53.5506 38.9974 53.1406C38.5666 52.7237 38.3512 52.1644 38.3512 51.4626V50.1284C38.3512 49.4197 38.5666 48.8603 38.9974 48.4504C39.4282 48.0404 40.0119 47.8354 40.7484 47.8354C41.485 47.8354 42.0687 48.0404 42.4995 48.4504C42.9303 48.8603 43.1457 49.4197 43.1457 50.1284V51.4626C43.1457 52.1644 42.9303 52.7237 42.4995 53.1406C42.0687 53.5506 41.485 53.7556 40.7484 53.7556ZM40.7484 52.6195C41.0959 52.6195 41.3634 52.5257 41.551 52.3381C41.7456 52.1435 41.8428 51.8656 41.8428 51.5042V50.0867C41.8428 49.7254 41.7456 49.451 41.551 49.2633C41.3634 49.0688 41.0959 48.9715 40.7484 48.9715C40.401 48.9715 40.13 49.0688 39.9355 49.2633C39.7479 49.451 39.654 49.7254 39.654 50.0867V51.5042C39.654 51.8656 39.7479 52.1435 39.9355 52.3381C40.13 52.5257 40.401 52.6195 40.7484 52.6195ZM44.2569 53.6618V47.9292H45.5284V49.0028C45.5979 48.6415 45.7682 48.3566 46.0391 48.1481C46.3101 47.9327 46.6541 47.825 47.071 47.825C47.6338 47.825 48.082 48.0126 48.4155 48.3878C48.756 48.7631 48.9263 49.2668 48.9263 49.8991V53.6618H47.6234V50.0555C47.6234 49.7011 47.5296 49.4301 47.342 49.2425C47.1613 49.0479 46.9147 48.9507 46.602 48.9507C46.2754 48.9507 46.0183 49.0479 45.8307 49.2425C45.65 49.4371 45.5597 49.715 45.5597 50.0763V53.6618H44.2569ZM50.8713 55.5379V54.4539H52.4868C52.7925 54.4539 53.0288 54.3705 53.1955 54.2038C53.3623 54.0439 53.4457 53.8251 53.4457 53.5471V53.2032L53.4665 52.3068C53.3484 52.6264 53.1573 52.8766 52.8933 53.0572C52.6362 53.231 52.32 53.3178 51.9448 53.3178C51.3611 53.3178 50.8956 53.1233 50.5481 52.7341C50.2077 52.3381 50.0374 51.803 50.0374 51.129V50.0138C50.0374 49.3467 50.2077 48.8152 50.5481 48.4191C50.8956 48.023 51.3611 47.825 51.9448 47.825C52.32 47.825 52.6362 47.9153 52.8933 48.096C53.1573 48.2697 53.3484 48.5199 53.4665 48.8464V47.9292H54.7381V53.5784C54.7381 54.1829 54.5366 54.6589 54.1336 55.0063C53.7375 55.3607 53.1955 55.5379 52.5076 55.5379H50.8713ZM52.3826 52.2026C52.7161 52.2026 52.9732 52.1053 53.1538 51.9107C53.3415 51.7092 53.4353 51.4313 53.4353 51.0769V50.0763C53.4353 49.7219 53.3415 49.4475 53.1538 49.2529C52.9732 49.0514 52.7161 48.9507 52.3826 48.9507C52.049 48.9507 51.7919 49.0479 51.6113 49.2425C51.4306 49.4301 51.3403 49.6942 51.3403 50.0346V51.1186C51.3403 51.4591 51.4306 51.7266 51.6113 51.9212C51.7919 52.1088 52.049 52.2026 52.3826 52.2026ZM56.1307 53.6618V47.9292H57.4023V49.0445C57.4718 48.6692 57.642 48.3739 57.913 48.1585C58.1909 47.9362 58.5488 47.825 58.9865 47.825C59.5702 47.825 60.0253 48.0126 60.3519 48.3878C60.6785 48.7631 60.8418 49.2877 60.8418 49.9617V50.5037H59.5389V50.0242C59.5389 49.6768 59.4486 49.4127 59.268 49.2321C59.0873 49.0445 58.8302 48.9507 58.4967 48.9507C58.1492 48.9507 57.8852 49.0549 57.7045 49.2633C57.5239 49.4718 57.4335 49.7671 57.4335 50.1493V53.6618H56.1307ZM63.4434 53.766C62.8597 53.766 62.3977 53.6027 62.0572 53.2761C61.7237 52.9426 61.5569 52.5083 61.5569 51.9733C61.5569 51.4174 61.748 50.9762 62.1302 50.6496C62.5123 50.316 63.0369 50.1493 63.704 50.1493H65.1006V49.7428C65.1006 49.1661 64.7636 48.8777 64.0896 48.8777C63.7839 48.8777 63.5407 48.9368 63.36 49.0549C63.1794 49.173 63.0786 49.3398 63.0578 49.5552H61.807C61.8348 49.041 62.0502 48.6241 62.4533 48.3044C62.8632 47.9848 63.4122 47.825 64.1001 47.825C64.8297 47.825 65.396 47.9952 65.799 48.3357C66.202 48.6762 66.4035 49.1556 66.4035 49.7741V53.6618H65.1319V52.5882C65.0833 52.9565 64.9096 53.2449 64.6108 53.4533C64.312 53.6618 63.9229 53.766 63.4434 53.766ZM63.8603 52.7029C64.2425 52.7029 64.5448 52.6091 64.7671 52.4215C64.9895 52.2338 65.1006 51.9837 65.1006 51.671V50.9935H63.7665C63.4816 50.9935 63.2558 51.0734 63.0891 51.2333C62.9223 51.3931 62.8389 51.5981 62.8389 51.8482C62.8389 52.1053 62.9258 52.3138 63.0995 52.4736C63.2801 52.6264 63.5338 52.7029 63.8603 52.7029ZM70.4852 53.6618C69.9501 53.6618 69.5228 53.5089 69.2032 53.2032C68.8905 52.8905 68.7341 52.4701 68.7341 51.942V49.107H67.1499V47.9292H68.7341V46.3137H70.0474V47.9292H72.33V49.107H70.0474V51.9107C70.0474 52.0775 70.0926 52.2165 70.1829 52.3276C70.2802 52.4319 70.4122 52.484 70.579 52.484H72.2779V53.6618H70.4852ZM75.7446 53.766C75.015 53.766 74.4417 53.5645 74.0248 53.1615C73.6079 52.7515 73.3995 52.1956 73.3995 51.4938V47.9292H74.7023V51.4834C74.7023 51.8447 74.7926 52.1261 74.9733 52.3276C75.154 52.5292 75.4111 52.6299 75.7446 52.6299C76.0712 52.6299 76.3248 52.5292 76.5055 52.3276C76.6931 52.1261 76.7869 51.8447 76.7869 51.4834V47.9292H78.0897V51.4938C78.0897 52.1956 77.8778 52.7515 77.4539 53.1615C77.0301 53.5645 76.4603 53.766 75.7446 53.766ZM79.9096 50.8268V49.6177H83.2449V50.8268H79.9096Z" fill="#474C41"/>
<rect x="42.1138" y="71.9185" width="1.69476" height="13.5581" fill="#474C41"/>
<path d="M42.1138 70.2298L52.7848 70.2298V71.9245H42.1138V70.2298Z" fill="#474C41"/>
<path d="M52.8477 66.8342H54.5424V70.2298H52.8477L52.8477 66.8342Z" fill="#474C41"/>
<rect x="54.542" y="65.1394" width="1.69476" height="1.69476" fill="#474C41"/>
<path d="M56.2368 60.3033H57.9316V65.1394H56.2368V60.3033Z" fill="#474C41"/>
<path d="M61.8862 60.3033H63.581V66.8342H61.8862V60.3033Z" fill="#474C41"/>
<rect x="60.5679" y="66.8342" width="1.69476" height="1.69476" fill="#474C41"/>
<rect x="71.1133" y="70.2237" width="1.69476" height="3.38953" fill="#474C41"/>
<rect x="69.0415" y="74.5817" width="1.69476" height="3.38953" fill="#474C41"/>
<rect x="66.9702" y="79.666" width="1.69476" height="3.38953" fill="#474C41"/>
<rect x="65.2759" y="84.7503" width="1.69476" height="3.38953" fill="#474C41"/>
<rect x="60.5679" y="68.529" width="12.24" height="1.69476" fill="#474C41"/>
<rect x="65.8408" y="72.8869" width="6.96736" height="1.69476" fill="#474C41"/>
<rect x="63.769" y="77.9712" width="6.96736" height="1.69476" fill="#474C41"/>
<rect x="61.6978" y="83.0555" width="6.96736" height="1.69476" fill="#474C41"/>
<rect x="49.8345" y="86.445" width="5.2726" height="1.69476" fill="#474C41"/>
<rect x="42.1138" y="84.7503" width="7.72059" height="1.69476" fill="#474C41"/>
<rect x="55.1069" y="88.1398" width="11.8633" height="1.69476" fill="#474C41"/>
<path d="M57.9961 58.5662L61.9667 58.5662V60.3033H57.9961V58.5662Z" fill="#474C41"/>
</svg>
