<svg width="108" height="108" viewBox="0 0 108 108" fill="none" xmlns="http://www.w3.org/2000/svg">
<g clip-path="url(#clip0_438_20043)">
<rect width="108" height="108" fill="#FC801D"/>
<g clip-path="url(#clip1_438_20043)">
<path d="M-38.675 118.285C-38.675 118.285 -30.065 109.43 -9.05001 101.185C24.73 87.935 24.58 75.27 34.89 75.27H83.195C83.195 75.27 94.815 75.27 100.14 92.99L84.29 158.165L42.4 157.005L31.94 103.39L-38.675 118.28V118.285Z" fill="#6BD48E"/>
<path d="M80.985 158.17H37.9L33.005 128.78C32.305 125.08 32.21 121.29 32.725 117.56L34.9 105.295H83.485L85.965 117.175C86.61 121.155 86.555 125.22 85.805 129.185L80.985 158.17Z" fill="#010407"/>
<path d="M36.81 73.2749H40.475C41.535 73.2749 42.395 74.1349 42.395 75.1949V105.305H34.885V75.1949C34.885 74.1349 35.745 73.2749 36.805 73.2749H36.81Z" fill="#010407"/>
<path d="M77.605 73.2749H81.27C82.33 73.2749 83.19 74.1349 83.19 75.1949V105.305H75.68V75.1949C75.68 74.1349 76.54 73.2749 77.6 73.2749H77.605Z" fill="#010407"/>
<path d="M40.41 53.4099C44.345 53.4099 47.535 50.2199 47.535 46.2849C47.535 42.3499 44.345 39.1599 40.41 39.1599C36.475 39.1599 33.285 42.3499 33.285 46.2849C33.285 50.2199 36.475 53.4099 40.41 53.4099Z" fill="#8C503B"/>
<path d="M56.775 64.1199C66.7161 64.1199 74.775 56.061 74.775 46.1199C74.775 36.1787 66.7161 28.1199 56.775 28.1199C46.8339 28.1199 38.775 36.1787 38.775 46.1199C38.775 56.061 46.8339 64.1199 56.775 64.1199Z" fill="#8C503B"/>
<path d="M74.775 42.8101C74.775 42.8101 67.745 43.0351 67.855 38.2801C67.965 33.5301 62.43 30.1601 56.26 30.2201C49.22 30.2901 42.96 33.6001 41.305 39.8951C40.6 42.5751 38.78 42.3951 38.78 42.3951C38.78 32.4551 46.835 24.8101 56.775 24.8101C66.715 24.8101 74.775 32.8701 74.775 42.8101Z" fill="#FF008B"/>
<path d="M53.305 51.7699V54.4599C53.305 55.1399 53.86 55.6899 54.54 55.6899C55.22 55.6899 55.775 55.1349 55.775 54.4549V51.7649C55.775 51.0849 55.22 50.5349 54.54 50.5349C53.86 50.5349 53.305 51.0899 53.305 51.7699Z" fill="black"/>
<path d="M44.93 51.7699V54.4599C44.93 55.1399 45.485 55.6899 46.165 55.6899C46.845 55.6899 47.4 55.1349 47.4 54.4549V51.7649C47.4 51.0849 46.845 50.5349 46.165 50.5349C45.485 50.5349 44.93 51.0899 44.93 51.7699Z" fill="black"/>
<path d="M76.745 53.4099C80.68 53.4099 83.87 50.2199 83.87 46.2849C83.87 42.3499 80.68 39.1599 76.745 39.1599C72.81 39.1599 69.62 42.3499 69.62 46.2849C69.62 50.2199 72.81 53.4099 76.745 53.4099Z" fill="#8C503B"/>
<path d="M61.685 26.9751C57.895 25.5301 54.62 21.2301 58.09 12.1251C61.56 3.02005 67.565 3.42005 70.655 4.64005C73.02 5.57005 77.725 7.95005 74.37 17.9151C71.015 27.8801 64.745 28.1401 61.68 26.9701L61.685 26.9751Z" fill="#FF008B"/>
<path d="M46.685 19.94C44.375 19.185 41.905 18.655 39.52 19.12C37.135 19.58 34.85 21.22 34.23 23.575C33.955 24.62 34.005 25.76 33.54 26.735C33.275 27.29 32.865 27.755 32.555 28.28C30.95 31.02 32.7 34.74 35.425 36.375C38.15 38.01 41.49 38.125 44.665 38.19C47.625 38.255 50.82 38.25 53.225 36.525C54.595 35.545 55.615 34.06 57.155 33.385C57.8 33.1 58.515 32.975 59.13 32.625C62.715 30.605 59.935 25.93 57.605 24.315C54.595 22.23 50.135 21.07 46.69 19.945L46.685 19.94Z" fill="#FF008B"/>
<path d="M87.09 107.295L75.135 95.3399C73.5 93.7049 71.28 92.7849 68.97 92.7849H32.595V106.43H66.93L77.445 116.945C80.11 119.61 83.775 120.26 87.095 116.945C89.76 114.285 89.76 109.96 87.095 107.295H87.09Z" fill="#8C503B"/>
<path d="M80.53 113.075L70.445 102.99C68.81 101.355 66.59 100.435 64.275 100.435H27.9V114.08H62.235L72.335 124.18C75.13 126.975 79.315 127.875 82.4 124.595C86.2 120.55 83.57 116.115 80.53 113.075Z" fill="#8C503B"/>
<path d="M77.44 119.805L65.475 107.855C63.84 106.22 61.625 105.305 59.315 105.305L22.935 105.295V118.94H57.28L67.91 129.57C70.54 131.535 74.425 132.185 77.445 129.455C80.11 126.79 80.11 122.47 77.445 119.805H77.44Z" fill="#8C503B"/>
<path d="M65.57 127.23L52.425 114.085C51.635 113.295 50.7 112.665 49.675 112.225L14.435 97.23L9.105 109.79L43.395 124.345L56.065 137.015C58.805 139.755 63.3 139.675 65.94 136.775C68.415 134.06 68.175 129.825 65.575 127.23H65.57Z" fill="#8C503B"/>
<path d="M79.265 126.515C80.365 126.235 81.435 125.62 82.4 124.595C86.2 120.55 83.57 116.115 80.53 113.075L70.445 102.99C68.81 101.355 66.59 100.435 64.275 100.435H53.07" stroke="#010407" stroke-width="0.5" stroke-linecap="round" stroke-linejoin="round"/>
<path d="M57.28 118.94L67.91 129.57C70.54 131.535 74.425 132.185 77.445 129.455C80.11 126.79 80.11 122.47 77.445 119.805L65.48 107.855C63.845 106.22 61.63 105.305 59.32 105.305L48.365 105.295" stroke="#010407" stroke-width="0.5" stroke-linecap="round" stroke-linejoin="round"/>
<path d="M-6.475 136.63L-17.335 109.755L18.6 95.235C22.61 93.615 26.895 92.78 31.225 92.78H39.415L29.66 119.185L-6.475 136.625V136.63Z" fill="#8C503B"/>
<path d="M98.085 87.935L118.02 137.16C126.285 157.57 121.54 180.945 105.97 196.515L97.315 205.17L69.4 177.255L82.415 163.895L80.985 161.4L81.005 158.16L98.085 87.925V87.935Z" fill="#6BD48E"/>
<path d="M29.66 103.31C33.9044 103.31 37.345 99.8692 37.345 95.6249C37.345 91.3806 33.9044 87.9399 29.66 87.9399C25.4157 87.9399 21.975 91.3806 21.975 95.6249C21.975 99.8692 25.4157 103.31 29.66 103.31Z" fill="#010407"/>
<path d="M26.495 100.435H32.595V119.185C32.595 120.1 31.85 120.845 30.935 120.845H28.155C27.24 120.845 26.495 120.1 26.495 119.185V100.435Z" fill="#010407"/>
<path d="M84.135 118.875C85.13 118.535 86.125 117.905 87.095 116.94C89.76 114.28 89.76 109.955 87.095 107.29L75.14 95.335C73.505 93.7 71.285 92.78 68.975 92.78H34.24" stroke="#010407" stroke-width="0.5" stroke-linecap="round" stroke-linejoin="round"/>
<path d="M73.17 47.4449C73.17 47.4449 77.145 47.2999 78.62 44.7949" stroke="#010407" stroke-width="0.5" stroke-linecap="round" stroke-linejoin="round"/>
<path d="M78.81 53.0099C79.015 53.4949 79.13 54.0249 79.13 54.5849C79.13 56.8199 77.315 58.6349 75.08 58.6349C72.845 58.6349 71.03 56.8199 71.03 54.5849C71.03 52.3499 72.845 50.5349 75.08 50.5349" stroke="#010407" stroke-width="0.5" stroke-linecap="round" stroke-linejoin="round"/>
<path d="M42.55 57.1499C41.805 58.0549 40.68 58.6349 39.415 58.6349C37.18 58.6349 35.365 56.8199 35.365 54.5849C35.365 52.7049 36.645 51.1249 38.38 50.6699" stroke="#010407" stroke-width="0.5" stroke-linecap="round" stroke-linejoin="round"/>
<path d="M17.79 94.405L27.27 117.55C29.365 122.67 27.665 129.56 22.36 131.135C3.82 136.63 -2.07 151.69 -17.335 155.37C-30.27 158.49 -42.46 152.28 -46.17 140.94C-50.695 127.1 -35.31 115.47 -35.31 115.47L17.785 94.405H17.79Z" fill="#6BD48E"/>
</g>
</g>
<defs>
<clipPath id="clip0_438_20043">
<rect width="108" height="108" fill="white"/>
</clipPath>
<clipPath id="clip1_438_20043">
<rect width="169.035" height="425.295" fill="white" transform="translate(-47 4)"/>
</clipPath>
</defs>
</svg>
