<svg width="108" height="108" viewBox="0 0 108 108" fill="none" xmlns="http://www.w3.org/2000/svg">
<g clip-path="url(#clip0_438_20036)">
<rect width="108" height="108" fill="#6B57FF"/>
<g clip-path="url(#clip1_438_20036)">
<path d="M68.988 82.7736H81.7591C89.5518 82.7736 97.0265 85.8676 102.54 91.3808L144.193 141.602H39.2627V78.1375L68.9832 82.7688L68.988 82.7736Z" fill="#010407"/>
<path d="M38.9205 82.7736H26.1494C18.3567 82.7736 10.882 85.8676 5.36871 91.3808L-44.853 141.602H68.6458V78.1375L38.9253 82.7688L38.9205 82.7736Z" fill="#010407"/>
<path d="M71.2049 72.4602H44.5254C43.0881 72.4602 41.923 73.6254 41.923 75.0626V82.7735C41.923 84.2107 43.0881 85.3759 44.5254 85.3759H71.2049C72.6422 85.3759 73.8073 84.2107 73.8073 82.7735V75.0626C73.8073 73.6254 72.6422 72.4602 71.2049 72.4602Z" fill="#010407"/>
<path d="M9.20972 103.81H106.709V174.976C106.709 186.966 96.9736 196.696 84.988 196.696H30.935C18.9446 196.696 9.21454 186.961 9.21454 174.976V103.81H9.20972Z" fill="#010407"/>
<path d="M57.9566 67.6409C67.5384 67.6409 75.306 59.8733 75.306 50.2915C75.306 40.7097 67.5384 32.9421 57.9566 32.9421C48.3748 32.9421 40.6072 40.7097 40.6072 50.2915C40.6072 59.8733 48.3748 67.6409 57.9566 67.6409Z" fill="#EAC59F"/>
<path d="M55.8073 47.612C55.8073 46.0364 54.531 44.759 52.9567 44.759C51.3823 44.759 50.1061 46.0364 50.1061 47.612V52.9759C50.1061 54.5516 51.3823 55.8289 52.9567 55.8289C54.531 55.8289 55.8073 54.5516 55.8073 52.9759V47.612Z" fill="white"/>
<path d="M54.8048 47.8289C54.8048 46.8095 53.9784 45.9832 52.959 45.9832C51.9396 45.9832 51.1133 46.8095 51.1133 47.8289V52.7591C51.1133 53.7785 51.9396 54.6048 52.959 54.6048C53.9784 54.6048 54.8048 53.7785 54.8048 52.7591V47.8289Z" fill="black"/>
<path d="M65.8073 47.612C65.8073 46.0364 64.531 44.759 62.9567 44.759C61.3823 44.759 60.1061 46.0364 60.1061 47.612V52.9759C60.1061 54.5516 61.3823 55.8289 62.9567 55.8289C64.531 55.8289 65.8073 54.5516 65.8073 52.9759V47.612Z" fill="white"/>
<path d="M64.8048 47.8289C64.8048 46.8095 63.9784 45.9832 62.959 45.9832C61.9396 45.9832 61.1133 46.8095 61.1133 47.8289V52.7591C61.1133 53.7785 61.9396 54.6048 62.959 54.6048C63.9784 54.6048 64.8048 53.7785 64.8048 52.7591V47.8289Z" fill="black"/>
<path d="M40.9976 36.065C46.9543 36.065 51.7832 31.2361 51.7832 25.2794C51.7832 19.3228 46.9543 14.4939 40.9976 14.4939C35.041 14.4939 30.2121 19.3228 30.2121 25.2794C30.2121 31.2361 35.041 36.065 40.9976 36.065Z" fill="#6BD48E"/>
<path d="M74.9157 36.065C80.8724 36.065 85.7012 31.2361 85.7012 25.2794C85.7012 19.3228 80.8724 14.4939 74.9157 14.4939C68.959 14.4939 64.1301 19.3228 64.1301 25.2794C64.1301 31.2361 68.959 36.065 74.9157 36.065Z" fill="#6BD48E"/>
<path d="M77.5615 44.759C77.5615 44.759 68.6507 34.0554 57.9567 34.0554C48.482 34.0554 38.3519 44.759 38.3519 44.759L43.1711 26.7253C43.1711 26.7253 48.0579 23.3518 57.9567 23.3518C68.4916 23.3518 72.7422 26.7253 72.7422 26.7253L77.5615 44.759Z" fill="#6BD48E"/>
<path d="M38.3518 55.188C41.5165 55.188 44.082 52.6226 44.082 49.4579C44.082 46.2932 41.5165 43.7278 38.3518 43.7278C35.1872 43.7278 32.6217 46.2932 32.6217 49.4579C32.6217 52.6226 35.1872 55.188 38.3518 55.188Z" fill="#EAC59F"/>
<path d="M77.5615 55.188C80.7261 55.188 83.2916 52.6226 83.2916 49.4579C83.2916 46.2932 80.7261 43.7278 77.5615 43.7278C74.3968 43.7278 71.8314 46.2932 71.8314 49.4579C71.8314 52.6226 74.3968 55.188 77.5615 55.188Z" fill="#EAC59F"/>
<path d="M47.5615 42.8844C50.1061 42.8844 49.9904 39.0193 49.9615 37.9398C50.2941 39.0097 50.935 40.147 52.67 40.1133C54.6555 40.0747 55.0892 37.7133 55.0459 36.7784C55.1808 38.1567 55.8073 41.7085 57.894 41.6988C59.6916 41.6892 60.3615 38.8265 60.3904 37.9735C60.4627 38.7591 60.6844 40.7687 62.0097 40.8073C63.7736 40.8603 63.8651 39.0627 63.9037 37.8145C64.1254 39.3759 64.7856 41.3085 66.2218 41.9591C67.6579 42.6097 69.8507 41.7037 70.5205 40.2771C70.9639 39.3374 70.7952 38.2097 70.3711 37.2555C69.6001 35.5109 68.0386 34.1952 66.2844 33.453C64.5302 32.7109 62.588 32.4988 60.6844 32.547C56.4675 32.653 49.2627 32.4844 45.788 34.8651C44.641 35.6506 44.9398 38.8024 45.1471 40.4314C45.2676 41.3759 46.2699 42.894 47.5663 42.894L47.5615 42.8844Z" fill="#6BD48E"/>
<path d="M74.9157 52.1227C74.9157 52.1227 79.1904 51.3757 79.9374 48.1323" stroke="#010407" stroke-width="0.5" stroke-linecap="round" stroke-linejoin="round"/>
<path d="M41.7591 52.1227C41.7591 52.1227 37.4844 51.3757 36.7374 48.1323" stroke="#010407" stroke-width="0.5" stroke-linecap="round" stroke-linejoin="round"/>
<path d="M82.0097 67.0047C82.9398 67.8288 84.4483 68.5035 85.0699 67.6457C85.735 66.7252 84.029 64.8264 83.2868 63.6553C81.1037 60.1951 77.9278 53.6698 77.5567 48.6288C77.3977 46.5035 77.4169 43.8529 77.4603 41.318C77.5567 36.0698 71.5326 33.3999 71.5326 33.3999C70.7423 34.5517 69.9422 36.4216 69.7928 37.7565C69.2049 43.0192 74.3374 60.2288 82.0049 67.0095L82.0097 67.0047Z" fill="#6BD48E"/>
<path d="M33.8313 67.0047C32.9012 67.8288 31.3928 68.5035 30.7711 67.6457C30.1061 66.7252 31.8121 64.8264 32.5543 63.6553C34.7374 60.1951 37.9133 53.6698 38.2844 48.6288C38.4434 46.5035 38.4241 43.8529 38.3807 41.318C38.2844 36.0698 44.3084 33.3999 44.3084 33.3999C45.0988 34.5517 45.8988 36.4216 46.0482 37.7565C46.6362 43.0192 41.5036 60.2288 33.8362 67.0095L33.8313 67.0047Z" fill="#6BD48E"/>
<path d="M45.282 99.4964L40.5109 89.5831C39.1519 86.2145 40.776 82.3831 44.1446 81.0241C47.5133 79.6651 51.3446 81.2892 52.7037 84.6578L57.4747 94.5711C58.8338 97.9397 57.2097 101.771 53.841 103.13C50.4723 104.489 46.641 102.865 45.282 99.4964Z" fill="#EAC59F"/>
<path d="M45.282 99.4964L40.5109 89.5831C39.1519 86.2145 40.776 82.3831 44.1446 81.0241C47.5133 79.6651 51.3446 81.2892 52.7037 84.6578L57.4747 94.5711C58.8338 97.9397 57.2097 101.771 53.841 103.13C50.4723 104.489 46.641 102.865 45.282 99.4964Z" stroke="white" stroke-width="0.5" stroke-miterlimit="10" stroke-linecap="round"/>
<path d="M3.0169 105.863L-27.412 136.291L-7.04575 156.663L18.5157 131.096L3.0169 105.863Z" fill="#EAC59F"/>
<path d="M40.6964 74.3326L34.6775 76.7644L50.9056 116.93L56.9245 114.499L40.6964 74.3326Z" fill="white"/>
<path d="M36.2144 71.9007C37.8766 71.2291 39.7713 72.0334 40.4428 73.6956L41.1939 75.5545L35.175 77.9862L34.424 76.1274C33.7524 74.4652 34.5566 72.5705 36.2188 71.8989L36.2144 71.9007Z" fill="#6BD48E"/>
<path d="M11.0507 99.2073C13.6242 96.6338 17.7976 96.6386 20.3663 99.2217L40.2169 119.516C42.7856 122.084 42.7856 126.248 40.2169 128.817C37.6482 131.386 33.4844 131.386 30.9157 128.817L11.041 108.494C8.48681 105.925 8.49162 101.771 11.0555 99.2073H11.0507Z" fill="#EAC59F"/>
<path d="M9.12297 104.258C7.15189 103.607 4.51572 104.359 3.01692 105.863C0.592828 108.287 0.592828 112.214 3.01692 114.634L9.43621 121.169V126.894C9.43621 130.528 12.3808 133.472 16.0145 133.472C19.6483 133.472 22.5928 130.528 22.5928 126.894V123.809C22.5928 121.559 21.7061 119.395 20.1206 117.795L15.2723 112.899" fill="#EAC59F"/>
<path d="M11.0507 99.2073C13.6242 96.6338 17.7976 96.6386 20.3663 99.2217L40.2169 119.516C42.7856 122.084 42.7856 126.248 40.2169 128.817C37.6482 131.386 33.4844 131.386 30.9157 128.817L11.041 108.494C8.48681 105.925 8.49162 101.771 11.0555 99.2073H11.0507Z" stroke="white" stroke-width="0.5" stroke-miterlimit="10" stroke-linecap="round"/>
<path d="M37.2827 84.0564C34.7137 81.4874 30.5493 81.4867 27.9812 84.0547C25.4132 86.6228 25.4139 90.7872 27.9829 93.3562L42.868 108.241C45.4369 110.81 49.6013 110.811 52.1694 108.243C54.7374 105.675 54.7367 101.51 52.1677 98.9414L37.2827 84.0564Z" fill="#EAC59F" stroke="white" stroke-width="0.5" stroke-miterlimit="10" stroke-linecap="round"/>
<path d="M27.241 92.6592C24.672 90.0902 20.5076 90.0895 17.9395 92.6575C15.3715 95.2256 15.3722 99.3899 17.9412 101.959L34.3495 118.367C36.9185 120.936 41.0829 120.937 43.651 118.369C46.219 115.801 46.2182 111.636 43.6492 109.067L27.241 92.6592Z" fill="#EAC59F" stroke="white" stroke-width="0.5" stroke-miterlimit="10" stroke-linecap="round"/>
</g>
</g>
<defs>
<clipPath id="clip0_438_20036">
<rect width="108" height="108" fill="white"/>
</clipPath>
<clipPath id="clip1_438_20036">
<rect width="220" height="498" fill="white" transform="translate(-56 -8)"/>
</clipPath>
</defs>
</svg>
