<svg width="136" height="52" viewBox="0 0 136 52" fill="none" xmlns="http://www.w3.org/2000/svg">
<g filter="url(#filter0_b_538_20002)">
<rect width="135" height="52" rx="26" fill="#19191C" fill-opacity="0.1"/>
<path d="M44.3076 21.0962L48.9038 16.5L53.5 21.0962L48.9038 25.6924L44.3076 21.0962Z" fill="#19191C"/>
<path d="M42.5 19H36V25.5H42.5V19Z" fill="#19191C"/>
<path d="M36 27.5H42.5V34H36V27.5Z" fill="#19191C"/>
<path d="M44.5 27.5H51V34H44.5V27.5Z" fill="#19191C"/>
<path d="M78.3941 33.24C77.4341 33.24 76.5841 33.0633 75.8441 32.71C75.1107 32.3567 74.5374 31.8633 74.1241 31.23C73.7174 30.5967 73.5141 29.87 73.5141 29.05H75.2141C75.2141 29.5767 75.3474 30.0433 75.6141 30.45C75.8807 30.8567 76.2574 31.1733 76.7441 31.4C77.2307 31.6267 77.7874 31.74 78.4141 31.74C79.0341 31.74 79.5774 31.6367 80.0441 31.43C80.5174 31.2167 80.8807 30.92 81.1341 30.54C81.3941 30.1533 81.5241 29.71 81.5241 29.21C81.5241 28.5767 81.3341 28.0333 80.9541 27.58C80.5807 27.1267 80.0807 26.8467 79.4541 26.74L77.1941 26.35C76.5141 26.23 75.9241 25.9933 75.4241 25.64C74.9241 25.2867 74.5407 24.8467 74.2741 24.32C74.0074 23.7933 73.8741 23.22 73.8741 22.6C73.8741 21.8733 74.0641 21.22 74.4441 20.64C74.8307 20.0533 75.3641 19.5933 76.0441 19.26C76.7307 18.9267 77.5007 18.76 78.3541 18.76C79.2341 18.76 80.0174 18.9267 80.7041 19.26C81.3907 19.5867 81.9241 20.0433 82.3041 20.63C82.6841 21.2167 82.8741 21.8867 82.8741 22.64H81.1741C81.1741 22.18 81.0574 21.77 80.8241 21.41C80.5907 21.0433 80.2607 20.76 79.8341 20.56C79.4141 20.36 78.9274 20.26 78.3741 20.26C77.8207 20.26 77.3307 20.3567 76.9041 20.55C76.4774 20.7433 76.1441 21.0167 75.9041 21.37C75.6707 21.7233 75.5541 22.1333 75.5541 22.6C75.5541 23.1533 75.7307 23.63 76.0841 24.03C76.4441 24.43 76.9141 24.68 77.4941 24.78L79.7941 25.18C80.4607 25.3 81.0541 25.5567 81.5741 25.95C82.0941 26.3433 82.4974 26.8267 82.7841 27.4C83.0707 27.9667 83.2141 28.5633 83.2141 29.19C83.2141 29.9433 83.0107 30.63 82.6041 31.25C82.1974 31.8633 81.6274 32.35 80.8941 32.71C80.1607 33.0633 79.3274 33.24 78.3941 33.24ZM90.3358 33.24C89.3758 33.24 88.5124 33.01 87.7458 32.55C86.9791 32.09 86.3791 31.4533 85.9458 30.64C85.5191 29.82 85.3058 28.8933 85.3058 27.86C85.3058 26.8533 85.5224 25.9433 85.9558 25.13C86.3958 24.3167 86.9991 23.68 87.7658 23.22C88.5324 22.7533 89.3891 22.52 90.3358 22.52C91.3024 22.52 92.1491 22.75 92.8758 23.21C93.6091 23.67 94.1724 24.3067 94.5658 25.12C94.9658 25.9333 95.1658 26.8533 95.1658 27.88V28.27H86.9358C87.0024 28.97 87.1924 29.59 87.5058 30.13C87.8191 30.67 88.2291 31.09 88.7358 31.39C89.2424 31.69 89.8091 31.84 90.4358 31.84C91.1091 31.84 91.7024 31.7167 92.2158 31.47C92.7291 31.2233 93.1024 30.8867 93.3358 30.46H94.9358C94.8158 30.8867 94.5624 31.3133 94.1758 31.74C93.7958 32.1667 93.2758 32.5233 92.6158 32.81C91.9624 33.0967 91.2024 33.24 90.3358 33.24ZM93.5058 26.95C93.3724 26.0167 93.0324 25.28 92.4858 24.74C91.9458 24.2 91.2358 23.93 90.3558 23.93C89.7624 23.93 89.2291 24.0533 88.7558 24.3C88.2824 24.54 87.8924 24.89 87.5858 25.35C87.2791 25.8033 87.0758 26.3367 86.9758 26.95H93.5058ZM101.087 33C100.6 33 100.157 32.8967 99.7569 32.69C99.3635 32.4767 99.0535 32.1867 98.8269 31.82C98.6002 31.4467 98.4869 31.0333 98.4869 30.58L98.4769 24.18H96.6769L96.6869 22.76H97.7969C98.0502 22.76 98.2535 22.68 98.4069 22.52C98.5669 22.36 98.6469 22.1567 98.6469 21.91V20.26H100.087V22.76H102.557L102.547 24.18H100.077L100.087 30.48C100.087 30.7933 100.19 31.0567 100.397 31.27C100.61 31.4767 100.874 31.58 101.187 31.58H102.547V33H101.087Z" fill="#19191C"/>
<rect x="1" y="1" width="134" height="50" rx="25" stroke="#19191C" stroke-width="2"/>
</g>
<defs>
<filter id="filter0_b_538_20002" x="-8" y="-8" width="152" height="68" filterUnits="userSpaceOnUse" color-interpolation-filters="sRGB">
<feFlood flood-opacity="0" result="BackgroundImageFix"/>
<feGaussianBlur in="BackgroundImageFix" stdDeviation="4"/>
<feComposite in2="SourceAlpha" operator="in" result="effect1_backgroundBlur_538_20002"/>
<feBlend mode="normal" in="SourceGraphic" in2="effect1_backgroundBlur_538_20002" result="shape"/>
</filter>
</defs>
</svg>
