<svg width="346" height="249" viewBox="0 0 346 249" fill="none" xmlns="http://www.w3.org/2000/svg">
<path d="M157.972 196.604C180.378 196.604 198.542 178.44 198.542 156.034C198.542 133.628 180.378 115.464 157.972 115.464C135.566 115.464 117.402 133.628 117.402 156.034C117.402 178.44 135.566 196.604 157.972 196.604Z" fill="#C3EA78"/>
<path d="M175.672 190.874C161.182 198.204 143.182 195.724 131.292 184.614C119.402 173.504 115.562 155.464 122.112 140.464C128.662 125.464 144.402 115.884 160.812 117.054C177.222 118.224 191.332 129.934 195.672 145.714C200.012 161.494 194.012 178.234 181.022 187.614C179.322 188.834 177.542 189.924 175.682 190.874C173.982 191.754 175.482 194.324 177.182 193.444C192.652 185.464 201.892 168.254 199.722 150.924C197.552 133.594 184.322 118.764 167.072 114.964C149.822 111.164 131.552 118.834 122.232 133.864C112.912 148.894 114.192 168.434 125.092 182.244C135.992 196.054 154.622 201.424 171.052 196.004C173.162 195.314 175.202 194.434 177.182 193.444C178.892 192.584 177.382 190.014 175.682 190.874H175.672Z" fill="black"/>
<path d="M165.612 147.264C165.412 146.834 165.432 146.484 165.612 146.144C165.792 145.804 165.852 145.874 165.722 145.974C165.752 145.954 166.072 145.744 165.872 145.844C165.672 145.944 165.472 146.044 165.272 146.124C165.072 146.204 164.862 146.304 164.672 146.424C164.352 146.624 164.122 146.884 163.852 147.124C163.832 147.144 163.802 147.164 163.782 147.194C163.702 147.264 163.732 147.234 163.892 147.114C163.862 147.174 163.742 147.224 163.692 147.254C163.552 147.344 163.412 147.434 163.262 147.514C162.952 147.684 162.622 147.844 162.292 147.994C161.532 148.354 160.782 148.704 160.022 149.064C159.312 149.394 159.082 150.464 159.492 151.104C159.962 151.834 160.772 151.994 161.532 151.634C162.382 151.234 163.242 150.834 164.092 150.434C164.862 150.064 165.672 149.624 166.242 148.974C166.402 148.794 166.132 149.084 166.092 149.074C166.112 149.074 166.222 148.984 166.252 148.974C166.362 148.904 166.492 148.844 166.612 148.794C166.852 148.684 167.092 148.594 167.322 148.474C167.682 148.274 168.022 147.984 168.222 147.624C168.552 147.014 168.482 146.394 168.202 145.784C167.872 145.074 166.792 144.844 166.162 145.254C165.432 145.724 165.282 146.534 165.632 147.294L165.612 147.264Z" fill="#69AA31"/>
<path d="M170.042 156.784C169.062 156.824 168.092 156.804 167.112 156.704C167.002 156.694 166.892 156.684 166.772 156.664C166.702 156.664 166.622 156.644 166.552 156.634L166.722 156.654C166.462 156.634 166.202 156.574 165.942 156.534C165.462 156.444 164.982 156.344 164.512 156.224C163.762 156.034 162.862 156.474 162.682 157.264C162.502 158.054 162.912 158.894 163.722 159.094C165.772 159.614 167.912 159.844 170.032 159.754C170.812 159.724 171.562 159.094 171.522 158.264C171.492 157.484 170.862 156.744 170.032 156.774L170.042 156.784Z" fill="#69AA31"/>
<path d="M146.732 146.554C147.032 146.734 147.312 146.924 147.592 147.134L147.292 146.904C147.892 147.364 148.422 147.904 148.882 148.494L148.652 148.194C149.052 148.714 149.382 149.274 149.662 149.864C149.812 150.184 150.222 150.454 150.552 150.544C150.912 150.644 151.382 150.594 151.702 150.394C152.022 150.194 152.302 149.884 152.382 149.504C152.472 149.094 152.412 148.734 152.232 148.354C151.392 146.544 149.952 145.004 148.242 143.974C147.572 143.574 146.582 143.804 146.202 144.504C145.822 145.204 146.022 146.114 146.732 146.544V146.554Z" fill="#69AA31"/>
<path d="M141.472 154.874C143.272 155.454 145.092 155.914 146.942 156.274C147.702 156.424 148.582 156.064 148.772 155.234C148.942 154.494 148.552 153.564 147.732 153.404C145.882 153.044 144.052 152.574 142.262 152.004C141.522 151.764 140.602 152.284 140.432 153.044C140.242 153.854 140.682 154.624 141.472 154.874Z" fill="#69AA31"/>
<path d="M150.792 171.154C151.392 168.994 151.982 166.844 152.582 164.684C152.792 163.934 152.322 163.034 151.542 162.854C150.762 162.674 149.932 163.094 149.712 163.894C149.112 166.054 148.522 168.204 147.922 170.364C147.712 171.114 148.182 172.014 148.962 172.194C149.742 172.374 150.572 171.954 150.792 171.154Z" fill="#69AA31"/>
<path d="M157.082 165.504C157.032 167.434 156.982 169.364 156.932 171.294C156.912 172.074 157.632 172.814 158.422 172.784C159.212 172.754 159.892 172.134 159.912 171.294C159.962 169.364 160.012 167.434 160.062 165.504C160.082 164.724 159.362 163.984 158.572 164.014C157.782 164.044 157.102 164.664 157.082 165.504Z" fill="#69AA31"/>
<path d="M215.972 172.604C238.378 172.604 256.542 154.44 256.542 132.034C256.542 109.628 238.378 91.4637 215.972 91.4637C193.566 91.4637 175.402 109.628 175.402 132.034C175.402 154.44 193.566 172.604 215.972 172.604Z" fill="#C3EA78"/>
<path d="M233.672 166.874C219.182 174.204 201.182 171.724 189.292 160.614C177.402 149.504 173.562 131.464 180.112 116.464C186.662 101.464 202.402 91.8839 218.812 93.0539C235.222 94.2239 249.332 105.934 253.672 121.714C258.012 137.494 252.012 154.234 239.022 163.614C237.322 164.834 235.542 165.924 233.682 166.874C231.982 167.754 233.482 170.324 235.182 169.444C250.652 161.464 259.892 144.254 257.722 126.924C255.552 109.594 242.322 94.7638 225.072 90.9638C207.822 87.1638 189.552 94.8338 180.232 109.864C170.912 124.894 172.192 144.434 183.092 158.244C193.992 172.054 212.622 177.424 229.052 172.004C231.162 171.314 233.202 170.434 235.182 169.444C236.892 168.584 235.382 166.014 233.682 166.874H233.672Z" fill="black"/>
<path d="M223.612 123.264C223.412 122.834 223.432 122.484 223.612 122.144C223.792 121.804 223.852 121.874 223.722 121.974C223.752 121.954 224.072 121.744 223.872 121.844C223.672 121.944 223.472 122.044 223.272 122.124C223.072 122.204 222.862 122.304 222.672 122.424C222.352 122.624 222.122 122.884 221.852 123.124C221.832 123.144 221.802 123.164 221.782 123.194C221.702 123.264 221.732 123.234 221.892 123.114C221.862 123.174 221.742 123.224 221.692 123.254C221.552 123.344 221.412 123.434 221.262 123.514C220.952 123.684 220.622 123.844 220.292 123.994C219.532 124.354 218.782 124.704 218.022 125.064C217.312 125.394 217.082 126.464 217.492 127.104C217.962 127.834 218.772 127.994 219.532 127.634C220.382 127.234 221.242 126.834 222.092 126.434C222.862 126.064 223.672 125.624 224.242 124.974C224.402 124.794 224.132 125.084 224.092 125.074C224.112 125.074 224.222 124.984 224.252 124.974C224.362 124.904 224.492 124.844 224.612 124.794C224.852 124.684 225.092 124.594 225.322 124.474C225.682 124.274 226.022 123.984 226.222 123.624C226.552 123.014 226.482 122.394 226.202 121.784C225.872 121.074 224.792 120.844 224.162 121.254C223.432 121.724 223.282 122.534 223.632 123.294L223.612 123.264Z" fill="#69AA31"/>
<path d="M228.042 132.784C227.062 132.824 226.092 132.804 225.112 132.704C225.002 132.694 224.892 132.684 224.772 132.664C224.702 132.664 224.622 132.644 224.552 132.634L224.722 132.654C224.462 132.634 224.202 132.574 223.942 132.534C223.462 132.444 222.982 132.344 222.512 132.224C221.762 132.034 220.862 132.474 220.682 133.264C220.502 134.054 220.912 134.894 221.722 135.094C223.772 135.614 225.912 135.844 228.032 135.754C228.812 135.724 229.562 135.094 229.522 134.264C229.492 133.484 228.862 132.744 228.032 132.774L228.042 132.784Z" fill="#69AA31"/>
<path d="M204.732 122.554C205.032 122.734 205.312 122.924 205.592 123.134L205.292 122.904C205.892 123.364 206.422 123.904 206.882 124.494L206.652 124.194C207.052 124.714 207.382 125.274 207.662 125.864C207.812 126.184 208.222 126.454 208.552 126.544C208.912 126.644 209.382 126.594 209.702 126.394C210.022 126.194 210.302 125.884 210.382 125.504C210.472 125.094 210.412 124.734 210.232 124.354C209.392 122.544 207.952 121.004 206.242 119.974C205.572 119.574 204.582 119.804 204.202 120.504C203.822 121.204 204.022 122.114 204.732 122.544V122.554Z" fill="#69AA31"/>
<path d="M199.472 130.874C201.272 131.454 203.092 131.914 204.942 132.274C205.702 132.424 206.582 132.064 206.772 131.234C206.942 130.494 206.552 129.564 205.732 129.404C203.882 129.044 202.052 128.574 200.262 128.004C199.522 127.764 198.602 128.284 198.432 129.044C198.242 129.854 198.682 130.624 199.472 130.874Z" fill="#69AA31"/>
<path d="M208.792 147.154C209.392 144.994 209.982 142.844 210.582 140.684C210.792 139.934 210.322 139.034 209.542 138.854C208.762 138.674 207.932 139.094 207.712 139.894C207.112 142.054 206.522 144.204 205.922 146.364C205.712 147.114 206.182 148.014 206.962 148.194C207.742 148.374 208.572 147.954 208.792 147.154Z" fill="#69AA31"/>
<path d="M215.082 141.504C215.032 143.434 214.982 145.364 214.932 147.294C214.912 148.074 215.632 148.814 216.422 148.784C217.212 148.754 217.892 148.134 217.912 147.294C217.962 145.364 218.012 143.434 218.062 141.504C218.082 140.724 217.362 139.984 216.572 140.014C215.782 140.044 215.102 140.664 215.082 141.504Z" fill="#69AA31"/>
</svg>
