<svg width="57" height="32" viewBox="0 0 57 32" fill="none" xmlns="http://www.w3.org/2000/svg">
<g filter="url(#filter0_b_525_20318)">
<path d="M19.9784 21.156C19.3544 21.156 18.8019 21.0412 18.3209 20.8115C17.8443 20.5818 17.4716 20.2612 17.2029 19.8495C16.9386 19.4378 16.8064 18.9655 16.8064 18.4325H17.9114C17.9114 18.7748 17.9981 19.0782 18.1714 19.3425C18.3448 19.6068 18.5896 19.8127 18.9059 19.96C19.2223 20.1073 19.5841 20.181 19.9914 20.181C20.3944 20.181 20.7476 20.1138 21.0509 19.9795C21.3586 19.8408 21.5948 19.648 21.7594 19.401C21.9284 19.1497 22.0129 18.8615 22.0129 18.5365C22.0129 18.1248 21.8894 17.7717 21.6424 17.477C21.3998 17.1823 21.0748 17.0003 20.6674 16.931L19.1984 16.6775C18.7564 16.5995 18.3729 16.4457 18.0479 16.216C17.7229 15.9863 17.4738 15.7003 17.3004 15.358C17.1271 15.0157 17.0404 14.643 17.0404 14.24C17.0404 13.7677 17.1639 13.343 17.4109 12.966C17.6623 12.5847 18.0089 12.2857 18.4509 12.069C18.8973 11.8523 19.3978 11.744 19.9524 11.744C20.5244 11.744 21.0336 11.8523 21.4799 12.069C21.9263 12.2813 22.2729 12.5782 22.5199 12.9595C22.7669 13.3408 22.8904 13.7763 22.8904 14.266H21.7854C21.7854 13.967 21.7096 13.7005 21.5579 13.4665C21.4063 13.2282 21.1918 13.044 20.9144 12.914C20.6414 12.784 20.3251 12.719 19.9654 12.719C19.6058 12.719 19.2873 12.7818 19.0099 12.9075C18.7326 13.0332 18.5159 13.2108 18.3599 13.4405C18.2083 13.6702 18.1324 13.9367 18.1324 14.24C18.1324 14.5997 18.2473 14.9095 18.4769 15.1695C18.7109 15.4295 19.0164 15.592 19.3934 15.657L20.8884 15.917C21.3218 15.995 21.7074 16.1618 22.0454 16.4175C22.3834 16.6732 22.6456 16.9873 22.8319 17.36C23.0183 17.7283 23.1114 18.1162 23.1114 18.5235C23.1114 19.0132 22.9793 19.4595 22.7149 19.8625C22.4506 20.2612 22.0801 20.5775 21.6034 20.8115C21.1268 21.0412 20.5851 21.156 19.9784 21.156ZM27.9226 21.156C27.2899 21.156 26.7136 21.0065 26.1936 20.7075C25.6779 20.4042 25.2706 19.9882 24.9716 19.4595C24.6769 18.9265 24.5296 18.3307 24.5296 17.672C24.5296 17.0133 24.6769 16.4197 24.9716 15.891C25.2706 15.358 25.6801 14.942 26.2001 14.643C26.7201 14.3397 27.2964 14.188 27.9291 14.188C28.5617 14.188 29.1359 14.3397 29.6516 14.643C30.1672 14.942 30.5724 15.3558 30.8671 15.8845C31.1661 16.4132 31.3156 17.009 31.3156 17.672C31.3156 18.335 31.1661 18.9308 30.8671 19.4595C30.5724 19.9882 30.1672 20.4042 29.6516 20.7075C29.1359 21.0065 28.5596 21.156 27.9226 21.156ZM25.6216 17.672C25.6216 18.1703 25.7212 18.6123 25.9206 18.998C26.1242 19.3793 26.4016 19.6762 26.7526 19.8885C27.1079 20.1008 27.5022 20.207 27.9356 20.207C28.3689 20.207 28.7589 20.1008 29.1056 19.8885C29.4522 19.6762 29.7252 19.3793 29.9246 18.998C30.1239 18.6123 30.2236 18.1703 30.2236 17.672C30.2236 17.1737 30.1239 16.7317 29.9246 16.346C29.7252 15.9603 29.4501 15.6613 29.0991 15.449C28.7524 15.2367 28.3624 15.1305 27.9291 15.1305C27.4957 15.1305 27.1036 15.2367 26.7526 15.449C26.4016 15.6613 26.1242 15.9603 25.9206 16.346C25.7212 16.7317 25.6216 17.1737 25.6216 17.672ZM33.0881 14.344H34.1281V15.449C34.3405 15.072 34.6156 14.7838 34.9536 14.5845C35.2916 14.3808 35.6795 14.279 36.1171 14.279H36.3511V15.3645H36.0781C35.6838 15.3645 35.3393 15.4403 35.0446 15.592C34.75 15.7437 34.5225 15.9603 34.3621 16.242C34.2061 16.5193 34.1281 16.8465 34.1281 17.2235V21H33.0881V14.344ZM39.2946 21C38.805 21 38.4215 20.8722 38.1441 20.6165C37.8711 20.3608 37.7346 20.0077 37.7346 19.557V12.68H38.7746V14.344H40.3411L40.3346 15.267H38.7681L38.7746 19.492C38.7746 19.674 38.8266 19.817 38.9306 19.921C39.0346 20.025 39.1776 20.077 39.3596 20.077H40.3346V21H39.2946Z" fill="#19191C"/>
<rect x="0.5" y="0.5" width="56" height="31" rx="15.5" stroke="#19191C" stroke-opacity="0.3"/>
</g>
<defs>
<filter id="filter0_b_525_20318" x="-8" y="-8" width="73" height="48" filterUnits="userSpaceOnUse" color-interpolation-filters="sRGB">
<feFlood flood-opacity="0" result="BackgroundImageFix"/>
<feGaussianBlur in="BackgroundImageFix" stdDeviation="4"/>
<feComposite in2="SourceAlpha" operator="in" result="effect1_backgroundBlur_525_20318"/>
<feBlend mode="normal" in="SourceGraphic" in2="effect1_backgroundBlur_525_20318" result="shape"/>
</filter>
</defs>
</svg>
