<svg width="190" height="180" viewBox="0 0 190 180" fill="none" xmlns="http://www.w3.org/2000/svg">
<path d="M186.5 78.63H154.18V56.14H186.5L181.64 67.21L186.5 78.63Z" fill="url(#paint0_radial_538_19811)"/>
<path d="M178.98 75.17H163.41V59.6H178.98L171.07 67.26L178.98 75.17Z" fill="#FEFFFE"/>
<path d="M155.9 56.14H154.17V98.52H155.9V56.14Z" fill="#19191C"/>
<path fill-rule="evenodd" clip-rule="evenodd" d="M95.18 177.67C60.24 177.67 37.85 167.16 32.15 148.08L32 147.59L31.52 147.74C31.32 147.8 31.12 147.83 30.94 147.83C30.83 147.83 30.72 147.82 30.61 147.79C28.19 147.27 26.86 140.8 28.75 131.99C30.56 123.53 34.22 118.29 36.57 118.29C36.68 118.29 36.8 118.3 36.9 118.33C37.21 118.4 37.5 118.56 37.77 118.81L38.15 119.16L38.49 118.77C43.16 113.47 49.84 108.82 57.82 105.32L58.42 105.06L58 104.55C52.48 97.78 49.69 90.25 49.69 82.16C49.69 60.38 70.1 42.66 95.19 42.66C120.28 42.66 140.69 60.38 140.69 82.16C140.69 90.05 137.81 97.58 132.13 104.55L131.71 105.06L132.31 105.32C138.05 107.84 145.14 113.44 148.86 116.56L149.71 117.27L149.68 116.16C149.68 115.87 149.68 113.82 149.68 112.77V112.18C149.68 103.29 153.26 95.68 156.18 95.68C156.67 95.68 157.16 95.96 157.64 96.52C159.62 98.85 160.92 105.69 159.69 113.1C158.63 119.44 157.62 123.16 156.19 125.93L156.09 126.12L156.16 126.32C156.66 127.84 157.15 129.73 157.69 132.29C159.38 140.22 158.77 144.75 157.95 148.14C153.91 161.6 139.74 177.67 95.18 177.67Z" fill="#1FBBA1"/>
<path d="M95.18 43.17C119.99 43.17 140.18 60.67 140.18 82.17C140.18 89.94 137.34 97.37 131.73 104.24L130.9 105.26L132.1 105.79C137.78 108.28 144.83 113.85 148.53 116.95L150.23 118.37L150.18 116.16C150.18 115.88 150.18 113.79 150.18 112.78V112.19C150.18 108.09 150.97 103.89 152.36 100.67C153.78 97.37 155.31 96.19 156.18 96.19C156.52 96.19 156.88 96.41 157.26 96.85C159.12 99.05 160.39 105.86 159.2 113.02C158.15 119.31 157.15 122.98 155.75 125.7L155.56 126.07L155.69 126.47C156.18 127.97 156.67 129.85 157.21 132.39C158.88 140.2 158.28 144.66 157.48 147.99C154.82 156.82 148.68 163.8 139.21 168.74C128.47 174.34 113.66 177.17 95.19 177.17C76.72 177.17 61.83 174.33 51.03 168.73C41.47 163.77 35.28 156.77 32.64 147.94L32.35 146.97L31.38 147.27C31.23 147.32 31.08 147.34 30.95 147.34C30.87 147.34 30.8 147.34 30.72 147.32C29.74 147.11 28.91 145.41 28.57 142.87C28.16 139.88 28.4 136.06 29.25 132.11C30.95 124.15 34.41 118.8 36.58 118.8C36.66 118.8 36.74 118.8 36.81 118.82C37.03 118.87 37.24 118.98 37.44 119.17L38.19 119.88L38.87 119.1C43.49 113.86 50.11 109.25 58.02 105.78L59.22 105.25L58.39 104.23C52.95 97.55 50.19 90.12 50.19 82.16C50.19 60.66 70.38 43.16 95.19 43.16M95.19 42.16C69.87 42.16 49.19 60.19 49.19 82.16C49.19 90.7 52.33 98.38 57.62 104.87C49.57 108.4 42.88 113.05 38.12 118.44C37.79 118.13 37.42 117.92 37.01 117.84C36.87 117.81 36.72 117.79 36.57 117.79C33.6 117.79 29.97 123.88 28.26 131.89C26.47 140.3 27.47 147.64 30.51 148.29C30.65 148.32 30.8 148.34 30.95 148.34C31.19 148.34 31.43 148.3 31.68 148.22C36.8 165.33 55.77 178.17 95.19 178.17C134.61 178.17 153.32 165.35 158.45 148.25C159.2 145.18 159.99 140.59 158.2 132.18C157.65 129.63 157.16 127.71 156.65 126.16C158.19 123.17 159.2 119.18 160.2 113.18C161.7 104.19 159.51 95.18 156.2 95.18C152.89 95.18 149.2 103.07 149.2 112.18C149.2 112.56 149.2 115.8 149.2 116.18C145.09 112.74 138.16 107.34 132.53 104.87C137.81 98.39 141.2 90.71 141.2 82.16C141.2 60.19 120.52 42.16 95.2 42.16H95.19Z" fill="#19191C"/>
<path d="M78.71 77.1C78.11 79.35 76.91 81.2 75.49 82.37C74.07 83.54 72.46 84.01 70.98 83.61C69.5 83.21 68.34 82.01 67.69 80.28C67.04 78.56 66.93 76.36 67.54 74.11C68.14 71.86 69.34 70.01 70.76 68.84C72.18 67.67 73.79 67.2 75.27 67.6C76.75 68 77.91 69.21 78.56 70.93C79.21 72.65 79.32 74.85 78.71 77.1Z" fill="#19191C" stroke="white"/>
<path d="M75.7399 72.6234C76.1015 71.2737 75.612 69.9699 74.6464 69.7112C73.6808 69.4524 72.6049 70.3368 72.2433 71.6865C71.8816 73.0362 72.3712 74.34 73.3368 74.5987C74.3023 74.8575 75.3783 73.9731 75.7399 72.6234Z" fill="#FEFFFE"/>
<path d="M111.65 77.1C112.25 79.35 113.45 81.2 114.87 82.37C116.29 83.54 117.9 84.01 119.38 83.61C120.86 83.21 122.02 82.01 122.67 80.28C123.32 78.55 123.43 76.36 122.82 74.11C122.22 71.86 121.02 70.01 119.6 68.84C118.18 67.67 116.57 67.2 115.09 67.6C113.61 68 112.45 69.21 111.8 70.93C111.15 72.65 111.04 74.85 111.65 77.1Z" fill="#19191C" stroke="white"/>
<path d="M117.023 74.5966C117.989 74.3379 118.479 73.034 118.117 71.6843C117.755 70.3347 116.679 69.4503 115.714 69.709C114.748 69.9677 114.259 71.2716 114.62 72.6213C114.982 73.9709 116.058 74.8553 117.023 74.5966Z" fill="#FEFFFE"/>
<path d="M110.68 94.25C113.49 94.61 116.04 94.94 119.61 94.97C119.46 95.99 118.87 97.01 117.83 97.98C116.62 99.11 114.85 100.16 112.61 101.04C108.14 102.81 101.94 103.92 95.06 103.92C88.18 103.92 81.98 102.81 77.51 101.04C75.28 100.15 73.5 99.11 72.29 97.98C71.25 97 70.66 95.99 70.51 94.97C72.36 94.93 74.34 94.69 76.72 94.41C77.54 94.31 78.4 94.21 79.33 94.11C83.21 93.68 88.16 93.25 95.06 93.25C101.96 93.25 106.05 93.68 109.49 94.11C109.89 94.16 110.29 94.21 110.68 94.26V94.25Z" fill="#E85D27" stroke="#19191C"/>
<path fill-rule="evenodd" clip-rule="evenodd" d="M110.46 96.13C107.11 96.13 105.31 95.64 103.4 95.12C101.33 94.56 99.2 93.97 95.06 93.97C90.92 93.97 88.78 94.55 86.72 95.12C84.81 95.64 83 96.14 79.66 96.14C72.07 96.14 70.48 95.24 70.48 94.48C70.48 92.63 72.02 92.03 74.96 91.05C78.03 90.03 81.85 88.76 84.9 84.84C89.48 78.95 91.41 78.68 94.7 78.68C98.16 78.68 100.77 79.11 105.23 84.84C108.28 88.76 112.1 90.03 115.17 91.05C118.11 92.03 119.65 92.63 119.65 94.48C119.65 95.24 118.06 96.14 110.47 96.14L110.46 96.13Z" fill="#E6432C"/>
<path d="M94.69 79.17C98.01 79.17 100.5 79.59 104.82 85.14C107.96 89.18 112.03 90.53 114.99 91.52C117.99 92.52 119.13 93.03 119.13 94.48C119.06 94.67 118.34 95.63 110.45 95.63C107.17 95.63 105.4 95.15 103.52 94.63C101.43 94.06 99.26 93.47 95.05 93.47C90.84 93.47 88.67 94.06 86.58 94.64C84.7 95.15 82.93 95.64 79.65 95.64C71.76 95.64 71.04 94.68 70.97 94.48C70.97 93.04 72.1 92.53 75.11 91.53C78.08 90.54 82.14 89.19 85.28 85.15C89.72 79.44 91.56 79.18 94.69 79.18M94.69 78.18C91.17 78.18 89.08 78.64 84.49 84.54C81.53 88.34 77.75 89.6 74.79 90.58C72.02 91.5 69.97 92.19 69.97 94.48C69.97 96.21 74.02 96.64 79.65 96.64C83.07 96.64 84.93 96.13 86.85 95.61C88.88 95.05 90.98 94.48 95.06 94.48C99.14 94.48 101.23 95.05 103.27 95.61C105.19 96.13 107.05 96.64 110.46 96.64C116.09 96.64 120.14 96.21 120.14 94.48C120.14 92.18 118.09 91.5 115.32 90.58C112.36 89.6 108.58 88.34 105.62 84.54C101.03 78.64 98.22 78.18 94.7 78.18H94.69Z" fill="#19191C"/>
<defs>
<radialGradient id="paint0_radial_538_19811" cx="0" cy="0" r="1" gradientUnits="userSpaceOnUse" gradientTransform="translate(185.712 57.0825) scale(40.0224 24.7776)">
<stop stop-color="#FE2857"/>
<stop offset="0.47" stop-color="#AF1DF5"/>
<stop offset="1" stop-color="#6B57FF"/>
</radialGradient>
</defs>
</svg>
