<svg width="168" height="52" viewBox="0 0 168 52" fill="none" xmlns="http://www.w3.org/2000/svg">
<g filter="url(#filter0_b_732_3201)">
<rect width="168" height="52" rx="26" fill="#19191C" fill-opacity="0.1"/>
<path d="M45.0084 36.007V23.556H50.0424L44.0044 17.01L37.8594 23.556H42.9864H43.0084V36.007H45.0084Z" fill="#19191C"/>
<path d="M82.3677 36.2C81.8211 36.2 81.3444 36.0967 80.9377 35.89C80.5311 35.69 80.2177 35.4 79.9977 35.02C79.7777 34.64 79.6677 34.1933 79.6677 33.68V33.19C78.5011 33.0567 77.4544 32.6633 76.5277 32.01C75.6011 31.3567 74.8744 30.5067 74.3477 29.46C73.8277 28.4133 73.5677 27.26 73.5677 26C73.5677 24.64 73.8711 23.41 74.4777 22.31C75.0844 21.2033 75.9144 20.3367 76.9677 19.71C78.0211 19.0767 79.1944 18.76 80.4877 18.76C81.7744 18.76 82.9444 19.0767 83.9977 19.71C85.0577 20.3367 85.8911 21.2033 86.4977 22.31C87.1044 23.41 87.4077 24.64 87.4077 26C87.4077 27.2667 87.1411 28.4267 86.6077 29.48C86.0811 30.5267 85.3511 31.3767 84.4177 32.03C83.4844 32.6833 82.4344 33.0733 81.2677 33.2V33.58C81.2744 33.9667 81.3777 34.2633 81.5777 34.47C81.7844 34.6767 82.0811 34.78 82.4677 34.78H84.0277V36.2H82.3677ZM75.2877 26C75.2877 27.1 75.5111 28.0833 75.9577 28.95C76.4111 29.8167 77.0311 30.4967 77.8177 30.99C78.6111 31.4767 79.5011 31.72 80.4877 31.72C81.4677 31.72 82.3544 31.4767 83.1477 30.99C83.9411 30.4967 84.5611 29.8167 85.0077 28.95C85.4611 28.0767 85.6877 27.0933 85.6877 26C85.6877 24.9 85.4644 23.9167 85.0177 23.05C84.5777 22.1767 83.9611 21.4967 83.1677 21.01C82.3811 20.5233 81.4877 20.28 80.4877 20.28C79.5011 20.28 78.6111 20.5267 77.8177 21.02C77.0311 21.5067 76.4111 22.1833 75.9577 23.05C75.5111 23.9167 75.2877 24.9 75.2877 26ZM98.691 33H97.151V31.34C96.8043 31.9533 96.341 32.4233 95.761 32.75C95.1877 33.0767 94.521 33.24 93.761 33.24C93.0277 33.24 92.3777 33.0833 91.811 32.77C91.2443 32.4567 90.7977 31.9967 90.471 31.39C90.151 30.7767 89.991 30.0433 89.991 29.19V22.76H91.591V29.03C91.591 29.9167 91.821 30.6067 92.281 31.1C92.741 31.5933 93.3743 31.84 94.181 31.84C94.7543 31.84 95.261 31.7133 95.701 31.46C96.141 31.2067 96.481 30.8533 96.721 30.4C96.9677 29.94 97.091 29.4167 97.091 28.83V22.76H98.691V33ZM106.346 33.24C105.386 33.24 104.522 33.01 103.756 32.55C102.989 32.09 102.389 31.4533 101.956 30.64C101.529 29.82 101.316 28.8933 101.316 27.86C101.316 26.8533 101.532 25.9433 101.966 25.13C102.406 24.3167 103.009 23.68 103.776 23.22C104.542 22.7533 105.399 22.52 106.346 22.52C107.312 22.52 108.159 22.75 108.886 23.21C109.619 23.67 110.182 24.3067 110.576 25.12C110.976 25.9333 111.176 26.8533 111.176 27.88V28.27H102.946C103.012 28.97 103.202 29.59 103.516 30.13C103.829 30.67 104.239 31.09 104.746 31.39C105.252 31.69 105.819 31.84 106.446 31.84C107.119 31.84 107.712 31.7167 108.226 31.47C108.739 31.2233 109.112 30.8867 109.346 30.46H110.946C110.826 30.8867 110.572 31.3133 110.186 31.74C109.806 32.1667 109.286 32.5233 108.626 32.81C107.972 33.0967 107.212 33.24 106.346 33.24ZM109.516 26.95C109.382 26.0167 109.042 25.28 108.496 24.74C107.956 24.2 107.246 23.93 106.366 23.93C105.772 23.93 105.239 24.0533 104.766 24.3C104.292 24.54 103.902 24.89 103.596 25.35C103.289 25.8033 103.086 26.3367 102.986 26.95H109.516ZM122.207 33H120.667V31.34C120.32 31.9533 119.857 32.4233 119.277 32.75C118.703 33.0767 118.037 33.24 117.277 33.24C116.543 33.24 115.893 33.0833 115.327 32.77C114.76 32.4567 114.313 31.9967 113.987 31.39C113.667 30.7767 113.507 30.0433 113.507 29.19V22.76H115.107V29.03C115.107 29.9167 115.337 30.6067 115.797 31.1C116.257 31.5933 116.89 31.84 117.697 31.84C118.27 31.84 118.777 31.7133 119.217 31.46C119.657 31.2067 119.997 30.8533 120.237 30.4C120.483 29.94 120.607 29.4167 120.607 28.83V22.76H122.207V33ZM129.861 33.24C128.901 33.24 128.038 33.01 127.271 32.55C126.505 32.09 125.905 31.4533 125.471 30.64C125.045 29.82 124.831 28.8933 124.831 27.86C124.831 26.8533 125.048 25.9433 125.481 25.13C125.921 24.3167 126.525 23.68 127.291 23.22C128.058 22.7533 128.915 22.52 129.861 22.52C130.828 22.52 131.675 22.75 132.401 23.21C133.135 23.67 133.698 24.3067 134.091 25.12C134.491 25.9333 134.691 26.8533 134.691 27.88V28.27H126.461C126.528 28.97 126.718 29.59 127.031 30.13C127.345 30.67 127.755 31.09 128.261 31.39C128.768 31.69 129.335 31.84 129.961 31.84C130.635 31.84 131.228 31.7167 131.741 31.47C132.255 31.2233 132.628 30.8867 132.861 30.46H134.461C134.341 30.8867 134.088 31.3133 133.701 31.74C133.321 32.1667 132.801 32.5233 132.141 32.81C131.488 33.0967 130.728 33.24 129.861 33.24ZM133.031 26.95C132.898 26.0167 132.558 25.28 132.011 24.74C131.471 24.2 130.761 23.93 129.881 23.93C129.288 23.93 128.755 24.0533 128.281 24.3C127.808 24.54 127.418 24.89 127.111 25.35C126.805 25.8033 126.601 26.3367 126.501 26.95H133.031Z" fill="#19191C"/>
<rect x="1" y="1" width="166" height="50" rx="25" stroke="#19191C" stroke-width="2"/>
</g>
<defs>
<filter id="filter0_b_732_3201" x="-8" y="-8" width="184" height="68" filterUnits="userSpaceOnUse" color-interpolation-filters="sRGB">
<feFlood flood-opacity="0" result="BackgroundImageFix"/>
<feGaussianBlur in="BackgroundImageFix" stdDeviation="4"/>
<feComposite in2="SourceAlpha" operator="in" result="effect1_backgroundBlur_732_3201"/>
<feBlend mode="normal" in="SourceGraphic" in2="effect1_backgroundBlur_732_3201" result="shape"/>
</filter>
</defs>
</svg>
